<?xml version="1.0" encoding="utf-8"?>
<!-- Generator: Adobe Illustrator 19.1.0, SVG Export Plug-In . SVG Version: 6.00 Build 0)  -->
<svg version="1.1" id="Ebene_1" xmlns="http://www.w3.org/2000/svg" xmlns:xlink="http://www.w3.org/1999/xlink" x="0px" y="0px"
	 viewBox="0 0 1280 740" style="enable-background:new 0 0 1280 740;" xml:space="preserve">
<style type="text/css">
	.st0{clip-path:url(#SVGID_2_);fill-rule:evenodd;clip-rule:evenodd;fill:#FFFFFF;}
	
		.st1{clip-path:url(#SVGID_2_);fill:none;stroke:#000000;stroke-width:0.144;stroke-linecap:round;stroke-linejoin:round;stroke-miterlimit:10;}
	
		.st2{clip-path:url(#SVGID_2_);fill:none;stroke:#1D1D1B;stroke-width:0.25;stroke-linecap:round;stroke-linejoin:round;stroke-miterlimit:10;}
	.st3{clip-path:url(#SVGID_2_);fill-rule:evenodd;clip-rule:evenodd;}
	
		.st4{clip-path:url(#SVGID_2_);fill:none;stroke:#000000;stroke-width:0.216;stroke-linecap:round;stroke-linejoin:round;stroke-miterlimit:10;}
	
		.st5{clip-path:url(#SVGID_2_);fill:none;stroke:#000000;stroke-width:7.200000e-02;stroke-linecap:round;stroke-linejoin:round;stroke-miterlimit:10;}
	
		.st6{clip-path:url(#SVGID_4_);fill:none;stroke:#000000;stroke-width:0.144;stroke-linecap:round;stroke-linejoin:round;stroke-miterlimit:10;}
	.st7{clip-path:url(#SVGID_4_);fill-rule:evenodd;clip-rule:evenodd;fill:#FFFFFF;}
	.st8{clip-path:url(#SVGID_4_);fill-rule:evenodd;clip-rule:evenodd;}
	
		.st9{clip-path:url(#SVGID_4_);fill:none;stroke:#000000;stroke-width:0.216;stroke-linecap:round;stroke-linejoin:round;stroke-miterlimit:10;}
	.st10{fill-rule:evenodd;clip-rule:evenodd;fill:#B3B3B3;}
	.st11{fill:none;stroke:#B3B3B3;stroke-width:0.288;stroke-linecap:round;stroke-linejoin:round;stroke-miterlimit:10;}
	.st12{fill-rule:evenodd;clip-rule:evenodd;}
	.st13{fill:none;stroke:#000000;stroke-width:0.216;stroke-linecap:round;stroke-linejoin:round;stroke-miterlimit:10;}
	.st14{fill:none;stroke:#000000;stroke-width:0.144;stroke-linecap:round;stroke-linejoin:round;stroke-miterlimit:10;}
	.st15{fill-rule:evenodd;clip-rule:evenodd;fill:#FFFFFF;}
	.st16{fill-rule:evenodd;clip-rule:evenodd;fill:none;stroke:#1D1D1B;stroke-width:0.25;stroke-miterlimit:10;}
	.st17{fill:none;stroke:#1D1D1B;stroke-width:0.25;stroke-linecap:round;stroke-linejoin:round;stroke-miterlimit:10;}
	.st18{fill:none;stroke:#000000;stroke-width:0.25;stroke-linecap:round;stroke-linejoin:round;stroke-miterlimit:10;}
	.st19{fill-rule:evenodd;clip-rule:evenodd;fill:#FFFFFF;stroke:#1D1D1B;stroke-width:0.25;stroke-miterlimit:10;}
	.st20{fill:none;stroke:#1D1D1B;stroke-width:0.25;stroke-miterlimit:10;}
	.st21{fill:none;stroke:#000000;stroke-width:7.200000e-02;stroke-linecap:round;stroke-linejoin:round;stroke-miterlimit:10;}
	.st22{fill-rule:evenodd;clip-rule:evenodd;fill:none;}
	.st23{fill:none;stroke:#1D1D1B;stroke-width:0.144;stroke-linecap:round;stroke-linejoin:round;stroke-miterlimit:10;}
	.st24{fill-rule:evenodd;clip-rule:evenodd;stroke:#1D1D1B;stroke-width:0.25;stroke-miterlimit:10;}
</style>
<rect x="296.4" y="320" class="st16" width="25.7" height="55.2"/>
<rect x="296.4" y="320" class="st17" width="25.7" height="55.2"/>
<line class="st17" x1="518.6" y1="292.9" x2="603.8" y2="292.9"/>
<line class="st17" x1="518.6" y1="301.3" x2="603.8" y2="301.3"/>
<line class="st17" x1="518.6" y1="309.9" x2="603.8" y2="309.9"/>
<line class="st17" x1="518.6" y1="318.3" x2="603.8" y2="318.3"/>
<line class="st17" x1="518.6" y1="327" x2="603.8" y2="327"/>
<line class="st17" x1="518.6" y1="335.4" x2="603.8" y2="335.4"/>
<line class="st17" x1="518.6" y1="344" x2="603.8" y2="344"/>
<line class="st17" x1="518.6" y1="352.4" x2="603.8" y2="352.4"/>
<line class="st17" x1="518.6" y1="360.8" x2="603.8" y2="360.8"/>
<line class="st17" x1="518.6" y1="369.5" x2="603.8" y2="369.5"/>
<line class="st17" x1="518.6" y1="377.9" x2="603.8" y2="377.9"/>
<line class="st17" x1="518.6" y1="386.5" x2="603.8" y2="386.5"/>
<line class="st17" x1="518.6" y1="394.9" x2="603.8" y2="394.9"/>
<line class="st17" x1="518.6" y1="403.5" x2="603.8" y2="403.5"/>
<line class="st17" x1="518.6" y1="411.9" x2="603.8" y2="411.9"/>
<line class="st17" x1="518.6" y1="420.3" x2="603.8" y2="420.3"/>
<line class="st17" x1="586.8" y1="284.5" x2="586.8" y2="429"/>
<line class="st17" x1="578.2" y1="284.5" x2="578.2" y2="429"/>
<line class="st17" x1="569.8" y1="284.5" x2="569.8" y2="429"/>
<line class="st17" x1="561.1" y1="284.5" x2="561.1" y2="429"/>
<line class="st17" x1="552.7" y1="284.5" x2="552.7" y2="429"/>
<line class="st17" x1="544.3" y1="284.5" x2="544.3" y2="429"/>
<line class="st17" x1="535.7" y1="284.5" x2="535.7" y2="429"/>
<line class="st17" x1="518.6" y1="429" x2="603.8" y2="429"/>
<line class="st17" x1="518.6" y1="284.5" x2="603.8" y2="284.5"/>
<line class="st17" x1="595.2" y1="284.5" x2="595.2" y2="429"/>
<line class="st17" x1="527.3" y1="284.5" x2="527.3" y2="429"/>
<line class="st17" x1="603.8" y1="284.5" x2="603.8" y2="429"/>
<rect x="196.8" y="383.9" class="st16" width="7.2" height="51.1"/>
<rect x="196.8" y="383.9" class="st17" width="7.2" height="51.1"/>
<polyline class="st12" points="281.8,245.9 281.8,243 289.2,243 289.2,284.5 299.3,284.5 299.3,291.7 281.8,291.7 281.8,249.2 
	204,249.2 204,322.2 263.5,322.2 263.5,325.5 196.8,325.5 196.8,195.9 289.2,195.9 289.2,217.5 281.8,217.5 281.8,203.4 204,203.4 
	204,245.9 281.8,245.9 "/>
<polygon class="st13" points="281.8,245.9 281.8,243 289.2,243 289.2,284.5 299.3,284.5 299.3,291.7 281.8,291.7 281.8,249.2 
	204,249.2 204,322.2 263.5,322.2 263.5,325.5 196.8,325.5 196.8,195.9 289.2,195.9 289.2,217.5 281.8,217.5 281.8,203.4 204,203.4 
	204,245.9 "/>
<polyline class="st12" points="204,348.1 204,383.9 196.8,383.9 196.8,348.1 204,348.1 "/>
<rect x="196.8" y="348.1" class="st13" width="7.2" height="35.8"/>
<polyline class="st12" points="289.2,325.5 286.3,325.5 286.3,322.2 289.2,322.2 289.2,314.5 296.4,314.5 296.4,567.9 289.2,567.9 
	289.2,470.7 196.8,470.7 196.8,435 204,435 204,463.3 289.2,463.3 289.2,325.5 "/>
<polygon class="st13" points="289.2,325.5 286.3,325.5 286.3,322.2 289.2,322.2 289.2,314.5 296.4,314.5 296.4,567.9 289.2,567.9 
	289.2,470.7 196.8,470.7 196.8,435 204,435 204,463.3 289.2,463.3 "/>
<polyline class="st12" points="430.3,560.5 430.3,567.9 358.8,567.9 358.8,560.5 430.3,560.5 "/>
<rect x="358.8" y="560.5" class="st13" width="71.5" height="7.4"/>
<polyline class="st12" points="511.4,429 518.6,429 518.6,567.9 511.4,567.9 511.4,429 "/>
<rect x="511.4" y="429" class="st13" width="7.2" height="139"/>
<polyline class="st12" points="518.6,284.5 430.3,284.5 430.3,291.7 518.6,291.7 518.6,284.5 "/>
<rect x="430.3" y="284.5" class="st13" width="88.3" height="7.2"/>
<path class="st12" d="M418.8,431.1L418.8,431.1c0-1.2-1-2.1-2.1-2.1c-1.2,0-2.1,1-2.1,2.1s1,2.1,2.1,2.1c0.6,0,1.1-0.2,1.5-0.6
	S418.8,431.6,418.8,431.1 M358.8,433.2v-58.7h17v-51h-17v-3.4h20.4v57.8h-17v51h68v4.3H358.8"/>
<path class="st13" d="M418.8,431.1L418.8,431.1c0-1.2-1-2.1-2.1-2.1c-1.2,0-2.1,1-2.1,2.1s1,2.1,2.1,2.1c0.6,0,1.1-0.2,1.5-0.6
	S418.8,431.6,418.8,431.1 M358.8,433.2v-58.7h17v-51h-17v-3.4h20.4v57.8h-17v51h68v4.3H358.8"/>
<polyline class="st12" points="379.2,284.5 379.2,291.7 324.7,291.7 324.7,284.5 379.2,284.5 "/>
<rect x="324.7" y="284.5" class="st13" width="54.5" height="7.2"/>
<line class="st17" x1="296.4" y1="433.3" x2="322.1" y2="433.3"/>
<line class="st14" x1="266.4" y1="291.7" x2="281.8" y2="291.7"/>
<line class="st14" x1="324.7" y1="291.7" x2="324.7" y2="291.7"/>
<line class="st14" x1="296.4" y1="433.3" x2="296.4" y2="400.4"/>
<line class="st14" x1="296.4" y1="400.4" x2="296.4" y2="399.2"/>
<line class="st14" x1="296.4" y1="396.3" x2="296.4" y2="393.5"/>
<line class="st14" x1="296.4" y1="390.6" x2="296.4" y2="387.7"/>
<line class="st14" x1="296.4" y1="384.8" x2="296.4" y2="381.9"/>
<line class="st14" x1="296.4" y1="379.1" x2="296.4" y2="376.2"/>
<line class="st14" x1="296.4" y1="373.3" x2="296.4" y2="370.4"/>
<line class="st14" x1="296.4" y1="367.5" x2="296.4" y2="364.7"/>
<line class="st14" x1="296.4" y1="361.8" x2="296.4" y2="358.9"/>
<line class="st14" x1="296.4" y1="356" x2="296.4" y2="353.1"/>
<line class="st14" x1="296.4" y1="350.3" x2="296.4" y2="347.4"/>
<line class="st14" x1="296.4" y1="344.5" x2="296.4" y2="341.6"/>
<line class="st14" x1="296.4" y1="338.7" x2="296.4" y2="335.9"/>
<line class="st14" x1="296.4" y1="333" x2="296.4" y2="330.1"/>
<line class="st14" x1="296.4" y1="327.2" x2="296.4" y2="324.3"/>
<line class="st14" x1="296.4" y1="321.5" x2="296.4" y2="320"/>
<line class="st17" x1="322.1" y1="410.5" x2="296.4" y2="410.5"/>
<line class="st17" x1="322.1" y1="433.3" x2="322.1" y2="410.5"/>
<line class="st17" x1="322.1" y1="418.2" x2="296.4" y2="418.2"/>
<line class="st17" x1="322.1" y1="425.6" x2="296.4" y2="425.6"/>
<line class="st17" x1="309.1" y1="403.1" x2="296.4" y2="403.1"/>
<line class="st14" x1="286.3" y1="322.2" x2="286.3" y2="348.1"/>
<line class="st17" x1="322.1" y1="387.9" x2="319.4" y2="387.9"/>
<line class="st17" x1="316.6" y1="387.9" x2="313.7" y2="387.9"/>
<line class="st17" x1="310.8" y1="387.9" x2="307.9" y2="387.9"/>
<line class="st17" x1="305" y1="387.9" x2="302.2" y2="387.9"/>
<line class="st17" x1="299.3" y1="387.9" x2="296.4" y2="387.9"/>
<line class="st17" x1="322.1" y1="380.5" x2="319.4" y2="380.5"/>
<line class="st17" x1="316.6" y1="380.5" x2="313.7" y2="380.5"/>
<line class="st17" x1="310.8" y1="380.5" x2="307.9" y2="380.5"/>
<line class="st17" x1="305" y1="380.5" x2="302.2" y2="380.5"/>
<line class="st17" x1="299.3" y1="380.5" x2="296.4" y2="380.5"/>
<line class="st17" x1="322.1" y1="372.8" x2="319.4" y2="372.8"/>
<line class="st17" x1="316.6" y1="372.8" x2="313.7" y2="372.8"/>
<line class="st17" x1="310.8" y1="372.8" x2="307.9" y2="372.8"/>
<line class="st17" x1="305" y1="372.8" x2="302.2" y2="372.8"/>
<line class="st17" x1="299.3" y1="372.8" x2="296.4" y2="372.8"/>
<line class="st17" x1="322.1" y1="357.7" x2="319.4" y2="357.7"/>
<line class="st17" x1="316.6" y1="357.7" x2="313.7" y2="357.7"/>
<line class="st17" x1="310.8" y1="357.7" x2="307.9" y2="357.7"/>
<line class="st17" x1="305" y1="357.7" x2="302.2" y2="357.7"/>
<line class="st17" x1="299.3" y1="357.7" x2="296.4" y2="357.7"/>
<line class="st17" x1="322.1" y1="365.4" x2="319.4" y2="365.4"/>
<line class="st17" x1="316.6" y1="365.4" x2="313.7" y2="365.4"/>
<line class="st17" x1="310.8" y1="365.4" x2="307.9" y2="365.4"/>
<line class="st17" x1="305" y1="365.4" x2="302.2" y2="365.4"/>
<line class="st17" x1="299.3" y1="365.4" x2="296.4" y2="365.4"/>
<line class="st17" x1="322.1" y1="350.3" x2="319.4" y2="350.3"/>
<line class="st17" x1="316.6" y1="350.3" x2="313.7" y2="350.3"/>
<line class="st17" x1="310.8" y1="350.3" x2="307.9" y2="350.3"/>
<line class="st17" x1="305" y1="350.3" x2="302.2" y2="350.3"/>
<line class="st17" x1="299.3" y1="350.3" x2="296.4" y2="350.3"/>
<line class="st17" x1="322.1" y1="342.8" x2="319.4" y2="342.8"/>
<line class="st17" x1="316.6" y1="342.8" x2="313.7" y2="342.8"/>
<line class="st17" x1="310.8" y1="342.8" x2="307.9" y2="342.8"/>
<line class="st17" x1="305" y1="342.8" x2="302.2" y2="342.8"/>
<line class="st17" x1="299.3" y1="342.8" x2="296.4" y2="342.8"/>
<line class="st17" x1="322.1" y1="335.1" x2="319.4" y2="335.1"/>
<line class="st17" x1="316.6" y1="335.1" x2="313.7" y2="335.1"/>
<line class="st17" x1="310.8" y1="335.1" x2="307.9" y2="335.1"/>
<line class="st17" x1="305" y1="335.1" x2="302.2" y2="335.1"/>
<line class="st17" x1="299.3" y1="335.1" x2="296.4" y2="335.1"/>
<line class="st17" x1="322.1" y1="403.1" x2="319.9" y2="403.1"/>
<line class="st17" x1="317" y1="403.1" x2="314.2" y2="403.1"/>
<line class="st17" x1="311.3" y1="403.1" x2="309.1" y2="403.1"/>
<line class="st17" x1="322.1" y1="410.5" x2="322.1" y2="405.7"/>
<line class="st17" x1="322.1" y1="405.7" x2="322.1" y2="404.5"/>
<line class="st17" x1="322.1" y1="401.6" x2="322.1" y2="398.7"/>
<line class="st17" x1="322.1" y1="395.9" x2="322.1" y2="393"/>
<line class="st17" x1="322.1" y1="390.1" x2="322.1" y2="387.2"/>
<line class="st17" x1="322.1" y1="384.3" x2="322.1" y2="381.5"/>
<line class="st17" x1="322.1" y1="378.6" x2="322.1" y2="375.7"/>
<line class="st17" x1="322.1" y1="372.8" x2="322.1" y2="369.9"/>
<line class="st17" x1="322.1" y1="367.1" x2="322.1" y2="364.2"/>
<line class="st17" x1="322.1" y1="361.3" x2="322.1" y2="358.4"/>
<line class="st17" x1="322.1" y1="355.5" x2="322.1" y2="352.7"/>
<line class="st17" x1="322.1" y1="349.8" x2="322.1" y2="346.9"/>
<line class="st17" x1="322.1" y1="344" x2="322.1" y2="341.1"/>
<line class="st17" x1="322.1" y1="338.3" x2="322.1" y2="335.4"/>
<line class="st17" x1="322.1" y1="332.5" x2="322.1" y2="329.6"/>
<line class="st17" x1="322.1" y1="326.7" x2="322.1" y2="323.9"/>
<line class="st17" x1="322.1" y1="321" x2="322.1" y2="320"/>
<line class="st17" x1="322.1" y1="395.6" x2="319.4" y2="395.6"/>
<line class="st17" x1="316.6" y1="395.6" x2="313.7" y2="395.6"/>
<line class="st17" x1="310.8" y1="395.6" x2="307.9" y2="395.6"/>
<line class="st17" x1="305" y1="395.6" x2="302.2" y2="395.6"/>
<line class="st17" x1="299.3" y1="395.6" x2="296.4" y2="395.6"/>
<line class="st23" x1="200.4" y1="383.9" x2="200.4" y2="435"/>
<line class="st14" x1="299.3" y1="314.5" x2="299.3" y2="291.7"/>
<line class="st17" x1="322.1" y1="327.7" x2="319.4" y2="327.7"/>
<line class="st17" x1="316.6" y1="327.7" x2="313.7" y2="327.7"/>
<line class="st17" x1="310.8" y1="327.7" x2="307.9" y2="327.7"/>
<line class="st17" x1="305" y1="327.7" x2="302.2" y2="327.7"/>
<line class="st17" x1="299.3" y1="327.7" x2="296.4" y2="327.7"/>
<line class="st17" x1="296.4" y1="320" x2="299" y2="320"/>
<line class="st17" x1="301.9" y1="320" x2="304.8" y2="320"/>
<line class="st17" x1="307.7" y1="320" x2="310.6" y2="320"/>
<line class="st17" x1="313.4" y1="320" x2="316.3" y2="320"/>
<line class="st17" x1="319.2" y1="320" x2="322.1" y2="320"/>
<path class="st18" d="M263.6,325.5L263.6,325.5c0,12.4,10.2,22.7,22.7,22.7"/>
<path class="st17" d="M266.4,291.8L266.4,291.8c0,12.4,10.2,22.7,22.7,22.7"/>
<path class="st17" d="M299.3,314.4L299.3,314.4c12.9,0,23.9-9.8,25.4-22.7"/>
<rect x="379.2" y="284.5" class="st16" width="51.1" height="7.2"/>
<rect x="379.2" y="284.5" class="st17" width="51.1" height="7.2"/>
<rect x="296.4" y="560.5" class="st19" width="62.4" height="7.4"/>
<rect x="296.4" y="560.5" class="st17" width="62.4" height="7.4"/>
<line class="st17" x1="358.8" y1="564.1" x2="296.4" y2="564.1"/>
<line class="st17" x1="379.2" y1="288.1" x2="430.3" y2="288.1"/>
<rect x="299.3" y="284.5" class="st16" width="25.4" height="7.2"/>
<rect x="299.3" y="284.5" class="st17" width="25.4" height="7.2"/>
<line class="st17" x1="324.7" y1="288.1" x2="299.3" y2="288.1"/>
<rect x="358.8" y="323.6" class="st15" width="17" height="50.9"/>
<rect x="358.8" y="323.6" class="st14" width="17" height="50.9"/>
<rect x="362.2" y="377.9" class="st16" width="17" height="51.1"/>
<rect x="362.2" y="377.9" class="st17" width="17" height="51.1"/>
<rect x="403" y="433.3" class="st16" width="27.4" height="35.3"/>
<rect x="403" y="433.3" class="st17" width="27.4" height="35.3"/>
<line class="st17" x1="376.3" y1="394.9" x2="382.1" y2="394.9"/>
<line class="st17" x1="376.3" y1="411.9" x2="382.1" y2="411.9"/>
<line class="st14" x1="355.9" y1="340.4" x2="361.7" y2="340.4"/>
<line class="st14" x1="355.9" y1="357.5" x2="361.7" y2="357.5"/>
<rect x="413.3" y="320" class="st16" width="17" height="85.2"/>
<rect x="413.3" y="320" class="st17" width="17" height="85.2"/>
<rect x="430.3" y="560.5" class="st19" width="81.1" height="7.4"/>
<rect x="430.3" y="560.5" class="st17" width="81.1" height="7.4"/>
<line class="st17" x1="487" y1="562.4" x2="511.4" y2="562.4"/>
<line class="st17" x1="430.3" y1="564.1" x2="489.8" y2="564.1"/>
<rect x="511.4" y="291.7" class="st16" width="7.2" height="137.3"/>
<rect x="511.4" y="291.7" class="st17" width="7.2" height="137.3"/>
<line class="st14" x1="513.1" y1="291.7" x2="513.1" y2="320"/>
<line class="st23" x1="515" y1="429" x2="515" y2="317.4"/>
<path class="st16" d="M420.1,378c0.2-0.3,0.3-0.6,0.3-0.9c0-0.3,0-0.7-0.2-1c-0.2-0.3-0.4-0.6-0.7-0.8c-0.3-0.2-0.6-0.3-0.9-0.3
	c-0.3,0-0.7,0-1,0.2c-0.3,0.2-0.6,0.4-0.8,0.7c-0.2,0.3-0.3,0.6-0.3,0.9c0,0.3,0,0.7,0.2,1c0.2,0.3,0.4,0.6,0.7,0.8
	c0.3,0.2,0.6,0.3,0.9,0.3s0.7,0,1-0.2C419.6,378.5,419.9,378.3,420.1,378"/>
<path class="st17" d="M420.1,378c0.2-0.3,0.3-0.6,0.3-0.9c0-0.3,0-0.7-0.2-1c-0.2-0.3-0.4-0.6-0.7-0.8c-0.3-0.2-0.6-0.3-0.9-0.3
	c-0.3,0-0.7,0-1,0.2c-0.3,0.2-0.6,0.4-0.8,0.7c-0.2,0.3-0.3,0.6-0.3,0.9c0,0.3,0,0.7,0.2,1c0.2,0.3,0.4,0.6,0.7,0.8
	c0.3,0.2,0.6,0.3,0.9,0.3s0.7,0,1-0.2C419.6,378.5,419.9,378.3,420.1,378"/>
<path class="st16" d="M426.7,375.7c-0.2-0.3-0.5-0.6-0.8-0.8c-0.3-0.2-0.7-0.3-1.1-0.3c-0.4,0-0.8,0.1-1.1,0.3
	c-0.3,0.2-0.6,0.5-0.8,0.8c-0.2,0.3-0.3,0.7-0.3,1.1c0,0.4,0.1,0.8,0.3,1.1c0.2,0.3,0.5,0.6,0.8,0.8c0.3,0.2,0.7,0.3,1.1,0.3
	c0.4,0,0.8-0.1,1.1-0.3c0.3-0.2,0.6-0.5,0.8-0.8c0.2-0.3,0.3-0.7,0.3-1.1C427,376.4,426.9,376,426.7,375.7"/>
<path class="st17" d="M426.7,375.7c-0.2-0.3-0.5-0.6-0.8-0.8c-0.3-0.2-0.7-0.3-1.1-0.3c-0.4,0-0.8,0.1-1.1,0.3
	c-0.3,0.2-0.6,0.5-0.8,0.8c-0.2,0.3-0.3,0.7-0.3,1.1c0,0.4,0.1,0.8,0.3,1.1c0.2,0.3,0.5,0.6,0.8,0.8c0.3,0.2,0.7,0.3,1.1,0.3
	c0.4,0,0.8-0.1,1.1-0.3c0.3-0.2,0.6-0.5,0.8-0.8c0.2-0.3,0.3-0.7,0.3-1.1C427,376.4,426.9,376,426.7,375.7"/>
<path class="st16" d="M416.8,383.6c0.2,0.3,0.5,0.6,0.8,0.8c0.3,0.2,0.7,0.3,1.1,0.3c0.4,0,0.8-0.1,1.1-0.3c0.3-0.2,0.6-0.5,0.8-0.8
	c0.2-0.3,0.3-0.7,0.3-1.1c0-0.4-0.1-0.8-0.3-1.1c-0.2-0.3-0.5-0.6-0.8-0.8c-0.3-0.2-0.7-0.3-1.1-0.3c-0.4,0-0.8,0.1-1.1,0.3
	c-0.3,0.2-0.6,0.5-0.8,0.8c-0.2,0.3-0.3,0.7-0.3,1.1C416.5,382.9,416.6,383.2,416.8,383.6"/>
<path class="st17" d="M416.8,383.6c0.2,0.3,0.5,0.6,0.8,0.8c0.3,0.2,0.7,0.3,1.1,0.3c0.4,0,0.8-0.1,1.1-0.3c0.3-0.2,0.6-0.5,0.8-0.8
	c0.2-0.3,0.3-0.7,0.3-1.1c0-0.4-0.1-0.8-0.3-1.1c-0.2-0.3-0.5-0.6-0.8-0.8c-0.3-0.2-0.7-0.3-1.1-0.3c-0.4,0-0.8,0.1-1.1,0.3
	c-0.3,0.2-0.6,0.5-0.8,0.8c-0.2,0.3-0.3,0.7-0.3,1.1C416.5,382.9,416.6,383.2,416.8,383.6"/>
<line class="st17" x1="418.8" y1="384.6" x2="418.8" y2="384.6"/>
<path class="st16" d="M426.7,383.8c0.2-0.3,0.3-0.6,0.3-0.9c0-0.3,0-0.7-0.2-1c-0.2-0.3-0.4-0.6-0.7-0.8c-0.3-0.2-0.6-0.3-0.9-0.3
	c-0.3,0-0.7,0-1,0.2c-0.3,0.2-0.6,0.4-0.8,0.7s-0.3,0.6-0.3,0.9c0,0.3,0,0.7,0.2,1c0.2,0.3,0.4,0.6,0.7,0.8c0.3,0.2,0.6,0.3,1,0.3
	c0.3,0,0.7,0,1-0.2C426.2,384.3,426.5,384.1,426.7,383.8"/>
<path class="st17" d="M426.7,383.8c0.2-0.3,0.3-0.6,0.3-0.9c0-0.3,0-0.7-0.2-1c-0.2-0.3-0.4-0.6-0.7-0.8c-0.3-0.2-0.6-0.3-0.9-0.3
	c-0.3,0-0.7,0-1,0.2c-0.3,0.2-0.6,0.4-0.8,0.7s-0.3,0.6-0.3,0.9c0,0.3,0,0.7,0.2,1c0.2,0.3,0.4,0.6,0.7,0.8c0.3,0.2,0.6,0.3,1,0.3
	c0.3,0,0.7,0,1-0.2C426.2,384.3,426.5,384.1,426.7,383.8"/>
<rect x="416.2" y="339.2" class="st16" width="11.3" height="12.7"/>
<rect x="416.2" y="339.2" class="st17" width="11.3" height="12.7"/>
<line class="st17" x1="322.1" y1="405.7" x2="296.4" y2="400.4"/>
<path class="st18" d="M281.7,217.5L281.7,217.5c-3.4,0-6.7,0.7-9.8,1.9c-3.1,1.3-5.9,3.2-8.3,5.5c-2.4,2.4-4.2,5.2-5.5,8.3
	c-1.3,3.1-1.9,6.4-1.9,9.8h25.5"/>
<line class="st18" x1="289.2" y1="195.9" x2="289.2" y2="39.9"/>
<line class="st18" x1="518.6" y1="284.5" x2="518.6" y2="39.9"/>
<line class="st14" x1="289.2" y1="567.9" x2="290.2" y2="567.9"/>
<line class="st14" x1="293" y1="567.9" x2="295.9" y2="567.9"/>
<line class="st17" x1="298.8" y1="567.9" x2="301.7" y2="567.9"/>
<line class="st17" x1="304.6" y1="567.9" x2="307.4" y2="567.9"/>
<line class="st17" x1="310.3" y1="567.9" x2="313.2" y2="567.9"/>
<line class="st17" x1="316.1" y1="567.9" x2="319" y2="567.9"/>
<line class="st17" x1="321.8" y1="567.9" x2="324.7" y2="567.9"/>
<line class="st17" x1="327.6" y1="567.9" x2="330.5" y2="567.9"/>
<line class="st17" x1="333.4" y1="567.9" x2="336.2" y2="567.9"/>
<line class="st17" x1="339.1" y1="567.9" x2="342" y2="567.9"/>
<line class="st17" x1="344.9" y1="567.9" x2="347.8" y2="567.9"/>
<line class="st17" x1="350.6" y1="567.9" x2="353.5" y2="567.9"/>
<line class="st14" x1="356.4" y1="567.9" x2="359.3" y2="567.9"/>
<line class="st14" x1="362.2" y1="567.9" x2="365" y2="567.9"/>
<line class="st14" x1="367.9" y1="567.9" x2="370.8" y2="567.9"/>
<line class="st14" x1="373.7" y1="567.9" x2="376.6" y2="567.9"/>
<line class="st14" x1="379.4" y1="567.9" x2="382.3" y2="567.9"/>
<line class="st14" x1="385.2" y1="567.9" x2="388.1" y2="567.9"/>
<line class="st14" x1="391" y1="567.9" x2="393.8" y2="567.9"/>
<line class="st14" x1="396.7" y1="567.9" x2="399.6" y2="567.9"/>
<line class="st14" x1="402.5" y1="567.9" x2="405.4" y2="567.9"/>
<line class="st14" x1="408.2" y1="567.9" x2="411.1" y2="567.9"/>
<line class="st14" x1="414" y1="567.9" x2="416.9" y2="567.9"/>
<line class="st14" x1="419.8" y1="567.9" x2="422.6" y2="567.9"/>
<line class="st14" x1="425.5" y1="567.9" x2="428.4" y2="567.9"/>
<line class="st14" x1="431.3" y1="567.9" x2="434.2" y2="567.9"/>
<line class="st14" x1="437" y1="567.9" x2="439.9" y2="567.9"/>
<line class="st17" x1="442.8" y1="567.9" x2="445.7" y2="567.9"/>
<line class="st17" x1="448.6" y1="567.9" x2="451.4" y2="567.9"/>
<line class="st17" x1="454.3" y1="567.9" x2="457.2" y2="567.9"/>
<line class="st17" x1="460.1" y1="567.9" x2="463" y2="567.9"/>
<line class="st17" x1="465.8" y1="567.9" x2="468.7" y2="567.9"/>
<line class="st17" x1="471.6" y1="567.9" x2="474.5" y2="567.9"/>
<line class="st17" x1="477.4" y1="567.9" x2="480.2" y2="567.9"/>
<line class="st17" x1="483.1" y1="567.9" x2="486" y2="567.9"/>
<line class="st17" x1="488.9" y1="567.9" x2="491.8" y2="567.9"/>
<line class="st17" x1="494.6" y1="567.9" x2="497.5" y2="567.9"/>
<line class="st17" x1="500.4" y1="567.9" x2="503.3" y2="567.9"/>
<line class="st17" x1="506.2" y1="567.9" x2="509" y2="567.9"/>
<line class="st14" x1="511.9" y1="567.9" x2="514.8" y2="567.9"/>
<line class="st14" x1="517.7" y1="567.9" x2="518.6" y2="567.9"/>
<line class="st17" x1="518.6" y1="567.9" x2="518.6" y2="569.1"/>
<line class="st17" x1="518.6" y1="572" x2="518.6" y2="574.9"/>
<line class="st17" x1="518.6" y1="577.8" x2="518.6" y2="580.7"/>
<line class="st17" x1="518.6" y1="583.5" x2="518.6" y2="586.4"/>
<line class="st17" x1="518.6" y1="589.3" x2="518.6" y2="592.2"/>
<line class="st17" x1="518.6" y1="595.1" x2="518.6" y2="596.3"/>
<line class="st17" x1="518.6" y1="596.3" x2="517.7" y2="596.3"/>
<line class="st17" x1="514.8" y1="596.3" x2="511.9" y2="596.3"/>
<line class="st17" x1="509" y1="596.3" x2="506.2" y2="596.3"/>
<line class="st17" x1="503.3" y1="596.3" x2="500.4" y2="596.3"/>
<line class="st17" x1="497.5" y1="596.3" x2="494.6" y2="596.3"/>
<line class="st17" x1="491.8" y1="596.3" x2="488.9" y2="596.3"/>
<line class="st17" x1="486" y1="596.3" x2="483.1" y2="596.3"/>
<line class="st17" x1="480.2" y1="596.3" x2="477.4" y2="596.3"/>
<line class="st17" x1="474.5" y1="596.3" x2="471.6" y2="596.3"/>
<line class="st17" x1="468.7" y1="596.3" x2="465.8" y2="596.3"/>
<line class="st17" x1="463" y1="596.3" x2="460.1" y2="596.3"/>
<line class="st17" x1="457.2" y1="596.3" x2="454.3" y2="596.3"/>
<line class="st17" x1="451.4" y1="596.3" x2="448.6" y2="596.3"/>
<line class="st17" x1="445.7" y1="596.3" x2="442.8" y2="596.3"/>
<line class="st14" x1="439.9" y1="596.3" x2="437" y2="596.3"/>
<line class="st18" x1="434.2" y1="596.3" x2="431.3" y2="596.3"/>
<line class="st18" x1="428.4" y1="596.3" x2="425.5" y2="596.3"/>
<line class="st18" x1="422.6" y1="596.3" x2="419.8" y2="596.3"/>
<line class="st18" x1="416.9" y1="596.3" x2="414" y2="596.3"/>
<line class="st18" x1="411.1" y1="596.3" x2="408.2" y2="596.3"/>
<line class="st18" x1="405.4" y1="596.3" x2="402.5" y2="596.3"/>
<line class="st18" x1="399.6" y1="596.3" x2="396.7" y2="596.3"/>
<line class="st18" x1="393.8" y1="596.3" x2="391" y2="596.3"/>
<line class="st18" x1="388.1" y1="596.3" x2="385.2" y2="596.3"/>
<line class="st18" x1="382.3" y1="596.3" x2="379.4" y2="596.3"/>
<line class="st18" x1="376.6" y1="596.3" x2="373.7" y2="596.3"/>
<line class="st18" x1="370.8" y1="596.3" x2="367.9" y2="596.3"/>
<line class="st18" x1="365" y1="596.3" x2="362.2" y2="596.3"/>
<line class="st18" x1="359.3" y1="596.3" x2="356.4" y2="596.3"/>
<line class="st18" x1="353.5" y1="596.3" x2="350.6" y2="596.3"/>
<line class="st18" x1="347.8" y1="596.3" x2="344.9" y2="596.3"/>
<line class="st18" x1="342" y1="596.3" x2="339.1" y2="596.3"/>
<line class="st18" x1="336.2" y1="596.3" x2="333.4" y2="596.3"/>
<line class="st18" x1="330.5" y1="596.3" x2="327.6" y2="596.3"/>
<line class="st18" x1="324.7" y1="596.3" x2="321.8" y2="596.3"/>
<line class="st18" x1="319" y1="596.3" x2="316.1" y2="596.3"/>
<line class="st18" x1="313.2" y1="596.3" x2="310.3" y2="596.3"/>
<line class="st18" x1="307.4" y1="596.3" x2="304.6" y2="596.3"/>
<line class="st18" x1="301.7" y1="596.3" x2="298.8" y2="596.3"/>
<line class="st18" x1="295.9" y1="596.3" x2="293" y2="596.3"/>
<line class="st18" x1="290.2" y1="596.3" x2="289.2" y2="596.3"/>
<line class="st18" x1="289.2" y1="596.3" x2="289.2" y2="595.1"/>
<line class="st18" x1="289.2" y1="592.2" x2="289.2" y2="589.3"/>
<line class="st18" x1="289.2" y1="586.4" x2="289.2" y2="583.5"/>
<line class="st18" x1="289.2" y1="580.7" x2="289.2" y2="577.8"/>
<line class="st18" x1="289.2" y1="574.9" x2="289.2" y2="572"/>
<line class="st18" x1="289.2" y1="569.1" x2="289.2" y2="567.9"/>
<polyline class="st12" points="307,273.6 312.1,278.7 317.2,273.6 307,273.6 "/>
<polyline class="st14" points="307,273.6 312.1,278.7 317.2,273.6 307,273.6 "/>
<rect x="455.3" y="351.2" class="st19" width="50.4" height="22.8"/>
<rect x="455.3" y="351.2" class="st17" width="50.4" height="22.8"/>
<rect x="490.3" y="338.5" class="st19" width="12.7" height="12.7"/>
<rect x="490.3" y="338.5" class="st17" width="12.7" height="12.7"/>
<rect x="457.9" y="338.5" class="st19" width="12.7" height="12.7"/>
<rect x="457.9" y="338.5" class="st17" width="12.7" height="12.7"/>
<rect x="474" y="338.5" class="st19" width="13" height="12.7"/>
<rect x="474" y="338.5" class="st17" width="13" height="12.7"/>
<rect x="490.3" y="374" class="st19" width="12.7" height="12.7"/>
<rect x="490.3" y="374" class="st17" width="12.7" height="12.7"/>
<rect x="457.9" y="374" class="st19" width="12.7" height="12.7"/>
<rect x="457.9" y="374" class="st17" width="12.7" height="12.7"/>
<rect x="474" y="374" class="st19" width="13" height="12.7"/>
<rect x="474" y="374" class="st17" width="13" height="12.7"/>
<rect x="378" y="491.9" class="st16" width="19.7" height="21.6"/>
<rect x="378" y="491.9" class="st17" width="19.7" height="21.6"/>
<polyline class="st16" points="378,494.7 395,494.7 395,510.6 378,510.6 378,494.7 "/>
<rect x="378" y="494.7" class="st17" width="17" height="15.8"/>
<rect x="302.2" y="478.2" class="st16" width="25.4" height="76.6"/>
<rect x="302.2" y="478.2" class="st17" width="25.4" height="76.6"/>
<polyline class="st16" points="327.6,552.1 305,552.1 305,481.1 327.6,481.1 327.6,552.1 "/>
<rect x="305" y="481.1" class="st17" width="22.6" height="71"/>
<rect x="343.2" y="500.7" class="st16" width="19.9" height="33.8"/>
<rect x="343.2" y="500.7" class="st17" width="19.9" height="33.8"/>
<rect x="378" y="524" class="st16" width="19.7" height="21.6"/>
<rect x="378" y="524" class="st17" width="19.7" height="21.6"/>
<polyline class="st16" points="378,526.9 395,526.9 395,542.7 378,542.7 378,526.9 "/>
<rect x="378" y="526.9" class="st17" width="17" height="15.8"/>
<path class="st18" d="M204.1,348.2L204.1,348.2c2.8,0,5.6-0.5,8.1-1.6c2.6-1.1,4.9-2.6,6.9-4.6c2-2,3.5-4.3,4.6-6.9
	c1.1-2.6,1.6-5.3,1.6-8.1h-21.3v-1.4"/>
<line class="st17" x1="319.2" y1="340.4" x2="324.7" y2="340.4"/>
<line class="st17" x1="319.2" y1="357.7" x2="324.7" y2="357.7"/>
<polyline class="st17" points="314.3,408.2 309.2,403 304.1,408.2 "/>
<polyline class="st22" points="649.4,626 103.9,626 103.9,160.2 649.4,160.2 "/>
<polyline class="st17" points="875.4,323.3 870.3,318.2 865.2,323.3 "/>
<line class="st17" x1="1072.5" y1="565.8" x2="1070.1" y2="565.8"/>
<line class="st17" x1="1067.2" y1="565.8" x2="1064.3" y2="565.8"/>
<line class="st17" x1="1061.5" y1="565.8" x2="1058.6" y2="565.8"/>
<line class="st17" x1="1055.7" y1="565.8" x2="1052.8" y2="565.8"/>
<line class="st17" x1="1049.9" y1="565.8" x2="1047.1" y2="565.8"/>
<line class="st17" x1="1044.2" y1="565.8" x2="1041.3" y2="565.8"/>
<line class="st17" x1="1038.4" y1="565.8" x2="1035.5" y2="565.8"/>
<line class="st17" x1="1032.7" y1="565.8" x2="1029.8" y2="565.8"/>
<line class="st17" x1="1026.9" y1="565.8" x2="1024" y2="565.8"/>
<line class="st17" x1="1021.1" y1="565.8" x2="1018.3" y2="565.8"/>
<line class="st17" x1="1015.4" y1="565.8" x2="1012.5" y2="565.8"/>
<line class="st17" x1="1009.6" y1="565.8" x2="1006.7" y2="565.8"/>
<line class="st17" x1="1003.9" y1="565.8" x2="1001" y2="565.8"/>
<line class="st17" x1="998.1" y1="565.8" x2="995.2" y2="565.8"/>
<line class="st17" x1="992.3" y1="565.8" x2="989.5" y2="565.8"/>
<line class="st17" x1="986.6" y1="565.8" x2="983.7" y2="565.8"/>
<line class="st17" x1="980.8" y1="565.8" x2="977.9" y2="565.8"/>
<line class="st17" x1="975.1" y1="565.8" x2="972.2" y2="565.8"/>
<line class="st17" x1="969.3" y1="565.8" x2="966.4" y2="565.8"/>
<line class="st17" x1="963.5" y1="565.8" x2="960.7" y2="565.8"/>
<line class="st17" x1="957.8" y1="565.8" x2="954.9" y2="565.8"/>
<line class="st17" x1="952" y1="565.8" x2="949.1" y2="565.8"/>
<line class="st17" x1="946.3" y1="565.8" x2="943.4" y2="565.8"/>
<line class="st17" x1="940.5" y1="565.8" x2="937.6" y2="565.8"/>
<line class="st17" x1="934.7" y1="565.8" x2="931.9" y2="565.8"/>
<line class="st17" x1="929" y1="565.8" x2="926.1" y2="565.8"/>
<line class="st17" x1="923.2" y1="565.8" x2="920.3" y2="565.8"/>
<line class="st17" x1="917.5" y1="565.8" x2="914.6" y2="565.8"/>
<line class="st17" x1="911.7" y1="565.8" x2="908.8" y2="565.8"/>
<line class="st17" x1="905.9" y1="565.8" x2="903.1" y2="565.8"/>
<line class="st17" x1="900.2" y1="565.8" x2="897.3" y2="565.8"/>
<line class="st17" x1="894.4" y1="565.8" x2="891.5" y2="565.8"/>
<line class="st17" x1="888.7" y1="565.8" x2="885.8" y2="565.8"/>
<line class="st17" x1="882.9" y1="565.8" x2="880" y2="565.8"/>
<line class="st17" x1="877.1" y1="565.8" x2="874.3" y2="565.8"/>
<line class="st17" x1="871.4" y1="565.8" x2="868.5" y2="565.8"/>
<line class="st17" x1="865.6" y1="565.8" x2="862.7" y2="565.8"/>
<line class="st17" x1="859.9" y1="565.8" x2="857.5" y2="565.8"/>
<polyline class="st19" points="962.6,410.8 933.3,410.8 933.3,399.5 962.6,399.5 962.6,410.8 "/>
<rect x="933.3" y="399.5" class="st17" width="29.3" height="11.3"/>
<rect x="949.9" y="401" class="st19" width="11.3" height="7.2"/>
<rect x="949.9" y="401" class="st17" width="11.3" height="7.2"/>
<rect x="934.7" y="401" class="st19" width="11.3" height="7.2"/>
<rect x="934.7" y="401" class="st17" width="11.3" height="7.2"/>
<path class="st19" d="M983.4,330.8h-10.5c-0.7,0-1.3,0.1-1.9,0.4c-0.6,0.2-1.1,0.6-1.6,1.1c-0.5,0.5-0.8,1-1.1,1.6
	c-0.2,0.6-0.4,1.2-0.4,1.9c0,0.7,0.1,1.3,0.4,1.9c0.2,0.6,0.6,1.1,1.1,1.6c0.5,0.5,1,0.8,1.6,1.1c0.6,0.2,1.2,0.4,1.9,0.4h10.5"/>
<path class="st17" d="M983.4,330.8h-10.5c-0.7,0-1.3,0.1-1.9,0.4c-0.6,0.2-1.1,0.6-1.6,1.1c-0.5,0.5-0.8,1-1.1,1.6
	c-0.2,0.6-0.4,1.2-0.4,1.9c0,0.7,0.1,1.3,0.4,1.9c0.2,0.6,0.6,1.1,1.1,1.6c0.5,0.5,1,0.8,1.6,1.1c0.6,0.2,1.2,0.4,1.9,0.4h10.5"/>
<line class="st17" x1="980.6" y1="340.7" x2="980.6" y2="330.9"/>
<path class="st19" d="M983.4,383h-10.5c-0.7,0-1.3,0.1-1.9,0.4c-0.6,0.2-1.1,0.6-1.6,1.1s-0.8,1-1.1,1.6s-0.4,1.2-0.4,1.9
	c0,0.7,0.1,1.3,0.4,1.9s0.6,1.1,1.1,1.6s1,0.8,1.6,1.1c0.6,0.2,1.2,0.4,1.9,0.4h10.5"/>
<path class="st17" d="M983.4,383h-10.5c-0.7,0-1.3,0.1-1.9,0.4c-0.6,0.2-1.1,0.6-1.6,1.1s-0.8,1-1.1,1.6s-0.4,1.2-0.4,1.9
	c0,0.7,0.1,1.3,0.4,1.9s0.6,1.1,1.1,1.6s1,0.8,1.6,1.1c0.6,0.2,1.2,0.4,1.9,0.4h10.5"/>
<line class="st17" x1="980.6" y1="393" x2="980.6" y2="383"/>
<rect x="757.9" y="194.1" class="st19" width="92.4" height="274.6"/>
<rect x="757.9" y="194.1" class="st17" width="92.4" height="274.6"/>
<line class="st14" x1="857.5" y1="431.2" x2="883.1" y2="431.2"/>
<line class="st14" x1="857.5" y1="431.2" x2="857.5" y2="398.6"/>
<line class="st14" x1="857.5" y1="398.6" x2="857.5" y2="318.2"/>
<line class="st17" x1="883.1" y1="408.6" x2="857.5" y2="408.6"/>
<polyline class="st17" points="883.1,431.2 883.1,408.6 883.1,403.8 883.1,318.2 "/>
<line class="st17" x1="883.1" y1="416.3" x2="857.5" y2="416.3"/>
<line class="st17" x1="883.1" y1="423.8" x2="857.5" y2="423.8"/>
<polyline class="st17" points="883.1,401.2 870.2,401.2 857.5,401.2 "/>
<line class="st17" x1="883.1" y1="386.1" x2="857.5" y2="386.1"/>
<line class="st17" x1="883.1" y1="378.4" x2="857.5" y2="378.4"/>
<line class="st17" x1="883.1" y1="371" x2="857.5" y2="371"/>
<line class="st17" x1="883.1" y1="355.8" x2="857.5" y2="355.8"/>
<line class="st17" x1="883.1" y1="363.5" x2="857.5" y2="363.5"/>
<line class="st17" x1="883.1" y1="348.4" x2="857.5" y2="348.4"/>
<line class="st17" x1="883.1" y1="340.7" x2="857.5" y2="340.7"/>
<line class="st17" x1="883.1" y1="333.3" x2="857.5" y2="333.3"/>
<line class="st17" x1="883.1" y1="393.5" x2="857.5" y2="393.5"/>
<line class="st17" x1="883.1" y1="325.8" x2="857.5" y2="325.8"/>
<line class="st17" x1="857.5" y1="318.2" x2="883.1" y2="318.2"/>
<polyline class="st24" points="986.8,431.2 983.5,431.2 983.5,414.4 923.2,414.4 923.2,431.2 919.9,431.2 919.9,376 923.2,376 
	923.2,410.8 983.5,410.8 983.5,353.4 919.9,353.4 919.9,349.8 983.5,349.8 983.5,321.5 923.2,321.5 923.2,327.3 919.9,327.3 
	919.9,318.2 986.8,318.2 986.8,431.2 "/>
<polygon class="st17" points="986.8,431.2 983.5,431.2 983.5,414.4 923.2,414.4 923.2,431.2 919.9,431.2 919.9,376 923.2,376 
	923.2,410.8 983.5,410.8 983.5,353.4 919.9,353.4 919.9,349.8 983.5,349.8 983.5,321.5 923.2,321.5 923.2,327.3 919.9,327.3 
	919.9,318.2 986.8,318.2 "/>
<polyline class="st12" points="921.8,465.3 921.8,468.6 857.5,468.6 857.5,594.4 850.3,594.4 850.3,282.4 857.5,282.4 857.5,465.3 
	921.8,465.3 "/>
<polygon class="st17" points="921.8,465.3 921.8,468.6 857.5,468.6 857.5,594.4 850.3,594.4 850.3,282.4 857.5,282.4 857.5,465.3 
	"/>
<polyline class="st12" points="1079.7,594.4 1079.7,565.8 1072.5,565.8 1072.5,587 1028.8,587 1028.8,594.4 1079.7,594.4 "/>
<polygon class="st13" points="1079.7,594.4 1079.7,565.8 1072.5,565.8 1072.5,587 1028.8,587 1028.8,594.4 "/>
<polyline class="st12" points="1072.5,468.6 986.3,468.6 986.3,465.3 1079.7,465.3 1079.7,515 1072.5,515 1072.5,468.6 "/>
<polygon class="st13" points="1072.5,468.6 986.3,468.6 986.3,465.3 1079.7,465.3 1079.7,515 1072.5,515 "/>
<polyline class="st12" points="1079.7,323.9 1072.5,323.9 1072.5,414.4 1079.7,414.4 1079.7,323.9 "/>
<rect x="1072.5" y="323.9" class="st13" width="7.2" height="90.5"/>
<polyline class="st12" points="1079.7,289.8 1079.7,282.4 919.9,282.4 919.9,289.8 1079.7,289.8 "/>
<rect x="919.9" y="282.4" class="st13" width="159.8" height="7.4"/>
<polyline class="st12" points="960.7,594.4 960.7,465.3 947.5,465.3 947.5,468.6 957.3,468.6 957.3,587 925.6,587 925.6,594.4 
	960.7,594.4 "/>
<polygon class="st13" points="960.7,594.4 960.7,465.3 947.5,465.3 947.5,468.6 957.3,468.6 957.3,587 925.6,587 925.6,594.4 "/>
<rect x="1072.5" y="289.8" class="st19" width="7.2" height="34.1"/>
<rect x="1072.5" y="289.8" class="st17" width="7.2" height="34.1"/>
<rect x="1072.5" y="414.4" class="st19" width="7.2" height="50.9"/>
<rect x="1072.5" y="414.4" class="st17" width="7.2" height="50.9"/>
<rect x="1072.5" y="515" class="st19" width="7.2" height="50.9"/>
<rect x="1072.5" y="515" class="st17" width="7.2" height="50.9"/>
<rect x="960.7" y="587" class="st19" width="68.2" height="7.4"/>
<rect x="960.7" y="587" class="st17" width="68.2" height="7.4"/>
<rect x="857.5" y="587" class="st19" width="68.2" height="7.4"/>
<rect x="857.5" y="587" class="st17" width="68.2" height="7.4"/>
<rect x="857.5" y="282.4" class="st19" width="62.4" height="7.4"/>
<rect x="857.5" y="282.4" class="st17" width="62.4" height="7.4"/>
<line class="st17" x1="919.9" y1="286.2" x2="857.5" y2="286.2"/>
<line class="st17" x1="1076.1" y1="323.9" x2="1076.1" y2="289.8"/>
<line class="st17" x1="1076.1" y1="414.4" x2="1076.1" y2="465.3"/>
<line class="st17" x1="1076.1" y1="515" x2="1076.1" y2="565.8"/>
<line class="st17" x1="1028.8" y1="590.6" x2="960.7" y2="590.6"/>
<line class="st17" x1="925.6" y1="590.6" x2="857.5" y2="590.6"/>
<path class="st17" d="M921.9,468.7L921.9,468.7c0,3.4,0.7,6.7,1.9,9.8c1.3,3.1,3.2,5.9,5.5,8.3c2.4,2.4,5.2,4.2,8.3,5.5
	c3.1,1.3,6.4,1.9,9.8,1.9v-25.5"/>
<path class="st17" d="M919.9,327.3L919.9,327.3c2.8,0,5.6,0.6,8.1,1.6c2.6,1.1,4.9,2.6,6.9,4.6c2,2,3.5,4.3,4.6,6.9
	c1.1,2.6,1.6,5.3,1.6,8.1h-21.3v1.4"/>
<path class="st17" d="M919.9,376L919.9,376c2.8,0,5.6-0.5,8.1-1.6c2.6-1.1,4.9-2.6,6.9-4.6c2-2,3.5-4.3,4.6-6.9
	c1.1-2.6,1.6-5.3,1.6-8.1h-21.3v-1.4"/>
<path class="st17" d="M960.7,468.7h1.4v24.1c3.2,0,6.3-0.6,9.2-1.8c2.9-1.2,5.6-3,7.8-5.2c2.2-2.2,4-4.9,5.2-7.8
	c1.2-2.9,1.8-6.1,1.8-9.2"/>
<rect x="943.4" y="321.5" class="st19" width="14.2" height="11.5"/>
<rect x="943.4" y="321.5" class="st17" width="14.2" height="11.5"/>
<rect x="944.8" y="324.4" class="st19" width="11.3" height="7.2"/>
<rect x="944.8" y="324.4" class="st17" width="11.3" height="7.2"/>
<rect x="960.7" y="353.4" class="st19" width="22.8" height="22.6"/>
<rect x="960.7" y="353.4" class="st17" width="22.8" height="22.6"/>
<rect x="962.1" y="354.6" class="st19" width="19.9" height="19.9"/>
<rect x="962.1" y="354.6" class="st17" width="19.9" height="19.9"/>
<path class="st19" d="M980.8,356.8c0-0.5-0.4-1-1-1s-1,0.4-1,1s0.4,1,1,1S980.8,357.3,980.8,356.8"/>
<path class="st17" d="M980.8,356.8c0-0.5-0.4-1-1-1s-1,0.4-1,1s0.4,1,1,1S980.8,357.3,980.8,356.8"/>
<rect x="1015.6" y="468.6" class="st19" width="56.9" height="28.3"/>
<rect x="1015.6" y="468.6" class="st17" width="56.9" height="28.3"/>
<rect x="1061" y="497" class="st19" width="11.5" height="11.5"/>
<rect x="1061" y="497" class="st17" width="11.5" height="11.5"/>
<rect x="857.5" y="468.6" class="st19" width="28.3" height="56.9"/>
<rect x="857.5" y="468.6" class="st17" width="28.3" height="56.9"/>
<rect x="885.8" y="468.6" class="st19" width="11.5" height="11.5"/>
<rect x="885.8" y="468.6" class="st17" width="11.5" height="11.5"/>
<rect x="989.7" y="338.6" class="st19" width="56.6" height="56.6"/>
<rect x="989.7" y="338.6" class="st17" width="56.6" height="56.6"/>
<rect x="989.7" y="327.3" class="st19" width="11.3" height="11.3"/>
<rect x="989.7" y="327.3" class="st17" width="11.3" height="11.3"/>
<rect x="989.7" y="395.2" class="st19" width="11.3" height="11.3"/>
<rect x="989.7" y="395.2" class="st17" width="11.3" height="11.3"/>
<line class="st14" x1="991.1" y1="292.7" x2="993.8" y2="292.7"/>
<line class="st14" x1="996.7" y1="292.7" x2="999.5" y2="292.7"/>
<line class="st14" x1="1002.4" y1="292.7" x2="1005.3" y2="292.7"/>
<line class="st14" x1="1005.3" y1="292.7" x2="1005.3" y2="295.6"/>
<line class="st14" x1="1005.3" y1="298.5" x2="1005.3" y2="301.4"/>
<line class="st14" x1="1005.3" y1="304.2" x2="1005.3" y2="307.1"/>
<line class="st17" x1="1005.3" y1="310" x2="1005.3" y2="312.9"/>
<line class="st17" x1="1005.3" y1="315.8" x2="1005.3" y2="318.6"/>
<line class="st17" x1="1005.3" y1="321.5" x2="1005.3" y2="324.4"/>
<line class="st17" x1="1005.3" y1="327.3" x2="1005.3" y2="330.2"/>
<line class="st17" x1="1005.3" y1="333" x2="1005.3" y2="335.9"/>
<line class="st17" x1="1005.3" y1="338.8" x2="1005.3" y2="341.7"/>
<line class="st17" x1="1005.3" y1="344.6" x2="1005.3" y2="347.4"/>
<line class="st17" x1="1005.3" y1="350.3" x2="1005.3" y2="353.2"/>
<line class="st17" x1="1005.3" y1="356.1" x2="1005.3" y2="359"/>
<line class="st17" x1="1005.3" y1="361.8" x2="1005.3" y2="364.7"/>
<line class="st17" x1="1005.3" y1="367.6" x2="1005.3" y2="370.5"/>
<line class="st17" x1="1005.3" y1="373.4" x2="1005.3" y2="376.2"/>
<line class="st17" x1="1005.3" y1="379.1" x2="1005.3" y2="382"/>
<line class="st17" x1="1005.3" y1="384.9" x2="1005.3" y2="387.8"/>
<line class="st17" x1="1005.3" y1="390.6" x2="1005.3" y2="393.5"/>
<line class="st17" x1="1005.3" y1="396.4" x2="1005.3" y2="399.3"/>
<line class="st17" x1="1005.3" y1="402.2" x2="1005.3" y2="405"/>
<line class="st17" x1="1005.3" y1="407.9" x2="1005.3" y2="410.8"/>
<line class="st17" x1="1005.3" y1="413.7" x2="1005.3" y2="416.6"/>
<line class="st17" x1="1005.3" y1="419.4" x2="1005.3" y2="422.3"/>
<line class="st17" x1="1005.3" y1="425.2" x2="1005.3" y2="428.1"/>
<line class="st17" x1="1005.3" y1="431" x2="1005.3" y2="433.8"/>
<line class="st17" x1="1005.3" y1="436.7" x2="1005.3" y2="439.6"/>
<line class="st17" x1="1005.3" y1="442.5" x2="1005.3" y2="445.4"/>
<line class="st17" x1="1005.3" y1="448.2" x2="1005.3" y2="451.1"/>
<line class="st17" x1="1005.3" y1="454" x2="1005.3" y2="456.9"/>
<line class="st17" x1="1005.3" y1="459.8" x2="1005.3" y2="462.4"/>
<line class="st14" x1="1005.3" y1="462.4" x2="1002.7" y2="462.4"/>
<line class="st14" x1="999.8" y1="462.4" x2="996.9" y2="462.4"/>
<line class="st14" x1="994" y1="462.4" x2="991.1" y2="462.4"/>
<line class="st17" x1="991.1" y1="462.4" x2="991.1" y2="459.5"/>
<line class="st17" x1="991.1" y1="456.6" x2="991.1" y2="453.8"/>
<line class="st17" x1="991.1" y1="450.9" x2="991.1" y2="448"/>
<line class="st17" x1="991.1" y1="445.1" x2="991.1" y2="442.2"/>
<line class="st17" x1="991.1" y1="439.4" x2="991.1" y2="436.5"/>
<line class="st17" x1="991.1" y1="433.6" x2="991.1" y2="430.7"/>
<line class="st17" x1="991.1" y1="427.8" x2="991.1" y2="425"/>
<line class="st17" x1="991.1" y1="422.1" x2="991.1" y2="419.2"/>
<line class="st17" x1="991.1" y1="416.3" x2="991.1" y2="413.4"/>
<line class="st17" x1="991.1" y1="410.6" x2="991.1" y2="407.7"/>
<line class="st17" x1="991.1" y1="404.8" x2="991.1" y2="401.9"/>
<line class="st17" x1="991.1" y1="399" x2="991.1" y2="396.2"/>
<line class="st17" x1="991.1" y1="393.3" x2="991.1" y2="390.4"/>
<line class="st17" x1="991.1" y1="387.5" x2="991.1" y2="384.6"/>
<line class="st17" x1="991.1" y1="381.8" x2="991.1" y2="378.9"/>
<line class="st17" x1="991.1" y1="376" x2="991.1" y2="373.1"/>
<line class="st17" x1="991.1" y1="370.2" x2="991.1" y2="367.4"/>
<line class="st17" x1="991.1" y1="364.5" x2="991.1" y2="361.6"/>
<line class="st17" x1="991.1" y1="358.7" x2="991.1" y2="355.8"/>
<line class="st17" x1="991.1" y1="353" x2="991.1" y2="350.1"/>
<line class="st17" x1="991.1" y1="347.2" x2="991.1" y2="344.3"/>
<line class="st17" x1="991.1" y1="341.4" x2="991.1" y2="338.6"/>
<line class="st17" x1="991.1" y1="335.7" x2="991.1" y2="332.8"/>
<line class="st17" x1="991.1" y1="329.9" x2="991.1" y2="327"/>
<line class="st17" x1="991.1" y1="324.2" x2="991.1" y2="321.3"/>
<line class="st17" x1="991.1" y1="318.4" x2="991.1" y2="315.5"/>
<line class="st17" x1="991.1" y1="312.6" x2="991.1" y2="309.8"/>
<line class="st14" x1="991.1" y1="306.9" x2="991.1" y2="304"/>
<line class="st14" x1="991.1" y1="301.1" x2="991.1" y2="298.2"/>
<line class="st14" x1="991.1" y1="295.4" x2="991.1" y2="292.7"/>
<rect x="987.5" y="408.6" class="st15" width="1.4" height="34.1"/>
<rect x="987.5" y="408.6" class="st14" width="1.4" height="34.1"/>
<rect x="987.5" y="306.9" class="st15" width="1.4" height="28.3"/>
<rect x="987.5" y="306.9" class="st14" width="1.4" height="28.3"/>
<rect x="923.2" y="414.4" class="st15" width="46.8" height="16.8"/>
<rect x="923.2" y="414.4" class="st14" width="46.8" height="16.8"/>
<rect x="970" y="414.4" class="st15" width="13.4" height="16.8"/>
<rect x="970" y="414.4" class="st14" width="13.4" height="16.8"/>
<path class="st15" d="M978.9,420.4c0-1.6-1.3-2.9-2.9-2.9c-1.6,0-2.9,1.3-2.9,2.9s1.3,2.9,2.9,2.9
	C977.6,423.3,978.9,422,978.9,420.4"/>
<path class="st14" d="M978.9,420.4c0-1.6-1.3-2.9-2.9-2.9c-1.6,0-2.9,1.3-2.9,2.9s1.3,2.9,2.9,2.9
	C977.6,423.3,978.9,422,978.9,420.4"/>
<line class="st14" x1="946.7" y1="434.1" x2="946.7" y2="428.6"/>
<g>
	<path d="M202.5,637.3h-3.2c-0.1,0-0.2,0-0.3,0l0,0c0,0.1,0,0.2,0,0.3v1.5c0,0.1,0,0.2,0,0.3l0,0c0.1,0,0.2,0,0.3,0h2.8v1.2h-2.8
		c-0.1,0-0.2,0-0.3,0l0,0c0,0.1,0,0.2,0,0.3v2.2c0,0.2,0,0.3,0,0.3l0,0c0.1,0,0.2,0,0.3,0h3.3v1.2h-4.8v-8.4h4.8V637.3z"/>
	<path d="M211.1,637.1l-0.8,1c-0.5-0.5-1.4-0.9-2.4-0.9c-1.9,0-3,1.3-3,3.1c0,1.8,1.2,3.1,3.1,3.1c1.9,0,2.8-1.4,2.9-2.4l0,0
		c-0.1,0.1-0.3,0.1-0.8,0.1h-2v-1.2h4.2v0.5c0,2.2-1.4,4.4-4.2,4.4c-2.5,0-4.5-1.7-4.5-4.4c0-2.6,1.8-4.4,4.5-4.4
		C209.4,636,210.4,636.5,211.1,637.1z"/>
</g>
<g>
	<path d="M767.1,639.8c0,2.5-1.8,4.4-4.4,4.4c-2.5,0-4.4-1.8-4.4-4.4c0-2.5,1.8-4.4,4.4-4.4C765.2,635.5,767.1,637.3,767.1,639.8z
		 M759.7,639.8c0,1.8,1.2,3.1,3,3.1c1.8,0,3-1.3,3-3.1c0-1.8-1.2-3.1-3-3.1C760.9,636.7,759.7,638,759.7,639.8z"/>
	<path d="M775.6,636.6l-0.8,1c-0.5-0.5-1.4-0.9-2.4-0.9c-1.8,0-3,1.3-3,3.1c0,1.8,1.2,3.1,3.1,3.1c1.9,0,2.8-1.4,2.8-2.4l0,0
		c-0.1,0.1-0.3,0.1-0.8,0.1h-2v-1.2h4.2v0.5c0,2.2-1.4,4.4-4.2,4.4c-2.5,0-4.4-1.7-4.4-4.4c0-2.6,1.8-4.4,4.5-4.4
		C773.8,635.5,774.8,636,775.6,636.6z"/>
</g>
<polyline class="st22" points="641.3,450.8 159.8,450.8 159.8,160.2 641.3,160.2 "/>
</svg>
