<?xml version="1.0" encoding="utf-8"?>
<!-- Generator: Adobe Illustrator 19.1.0, SVG Export Plug-In . SVG Version: 6.00 Build 0)  -->
<svg version="1.1" id="Ebene_1" xmlns="http://www.w3.org/2000/svg" xmlns:xlink="http://www.w3.org/1999/xlink" x="0px" y="0px"
	 viewBox="0 0 1280 720" style="enable-background:new 0 0 1280 720;" xml:space="preserve">
<style type="text/css">
	.st0{clip-path:url(#SVGID_2_);fill-rule:evenodd;clip-rule:evenodd;fill:#E8E8E8;}
	
		.st1{clip-path:url(#SVGID_2_);fill:none;stroke:#8C8C8C;stroke-width:0.144;stroke-linecap:round;stroke-linejoin:round;stroke-miterlimit:10;}
	
		.st2{clip-path:url(#SVGID_2_);fill:none;stroke:#9F9F9F;stroke-width:7.200000e-02;stroke-linecap:round;stroke-linejoin:round;stroke-miterlimit:10;}
	
		.st3{clip-path:url(#SVGID_2_);fill:none;stroke:#000000;stroke-width:0.144;stroke-linecap:round;stroke-linejoin:round;stroke-miterlimit:10;}
	.st4{clip-path:url(#SVGID_2_);fill-rule:evenodd;clip-rule:evenodd;fill:#FFFFFF;}
	.st5{clip-path:url(#SVGID_2_);fill-rule:evenodd;clip-rule:evenodd;fill:#212121;}
	
		.st6{clip-path:url(#SVGID_2_);fill:none;stroke:#000000;stroke-width:0.216;stroke-linecap:round;stroke-linejoin:round;stroke-miterlimit:10;}
	.st7{clip-path:url(#SVGID_2_);fill-rule:evenodd;clip-rule:evenodd;fill:#777777;}
	.st8{clip-path:url(#SVGID_2_);fill-rule:evenodd;clip-rule:evenodd;}
	
		.st9{clip-path:url(#SVGID_2_);fill:none;stroke:#000000;stroke-width:7.200000e-02;stroke-linecap:round;stroke-linejoin:round;stroke-miterlimit:10;}
	.st10{fill-rule:evenodd;clip-rule:evenodd;fill:#FFFFFF;}
	.st11{fill:none;stroke:#000000;stroke-width:0.144;stroke-linecap:round;stroke-linejoin:round;stroke-miterlimit:10;}
	.st12{fill-rule:evenodd;clip-rule:evenodd;fill:#212121;}
	.st13{fill:none;stroke:#000000;stroke-width:0.216;stroke-linecap:round;stroke-linejoin:round;stroke-miterlimit:10;}
	.st14{fill-rule:evenodd;clip-rule:evenodd;fill:none;}
	.st15{fill:none;}
	.st16{clip-path:url(#SVGID_6_);}
	.st17{fill-rule:evenodd;clip-rule:evenodd;fill:#E8E8E8;}
	.st18{fill:#8C8C8C;}
	.st19{fill:#9F9F9F;}
	.st20{fill-rule:evenodd;clip-rule:evenodd;fill:#777777;}
	.st21{fill:none;stroke:#8C8C8C;stroke-width:0.144;stroke-linecap:round;stroke-linejoin:round;stroke-miterlimit:10;}
	.st22{fill:none;stroke:#9F9F9F;stroke-width:7.200000e-02;stroke-linecap:round;stroke-linejoin:round;stroke-miterlimit:10;}
	.st23{fill:#FFFFFF;}
	.st24{fill:none;stroke:#000000;stroke-width:0.25;stroke-linecap:round;stroke-linejoin:round;stroke-miterlimit:10;}
</style>
<rect x="573.7" y="426.7" class="st10" width="48.2" height="4.3"/>
<rect x="573.7" y="426.7" class="st11" width="48.2" height="4.3"/>
<rect x="799.9" y="421" class="st10" width="47.6" height="10"/>
<rect x="799.9" y="421" class="st11" width="47.6" height="10"/>
<rect x="871.8" y="421" class="st10" width="47.9" height="10"/>
<rect x="871.8" y="421" class="st11" width="47.9" height="10"/>
<path class="st12" d="M738.6,201.5v8.3h-23.2v2.1h-4.2v-2.1h-75.8v2.1h-6.2v-57.7H373.7c-65.1,0.1-117.9,52.9-117.9,118h0v55.4
	l-4.2-1V272c0.1-67.4,54.7-122,122.1-122.1h265.7v51.5H738.6"/>
<path class="st13" d="M738.6,201.5v8.3h-23.2v2.1h-4.2v-2.1h-75.8v2.1h-6.2v-57.7H373.7c-65.1,0.1-117.9,52.9-117.9,118h0v55.4
	l-4.2-1V272c0.1-67.4,54.7-122,122.1-122.1h265.7v51.5H738.6"/>
<line class="st11" x1="705.2" y1="377.1" x2="705.2" y2="426.7"/>
<line class="st11" x1="705.2" y1="426.7" x2="684.1" y2="426.7"/>
<line class="st11" x1="251.4" y1="326.6" x2="251.4" y2="327.4"/>
<line class="st11" x1="251.4" y1="330.9" x2="251.4" y2="334.3"/>
<line class="st11" x1="251.4" y1="337.7" x2="251.4" y2="341.1"/>
<line class="st11" x1="251.4" y1="344.6" x2="251.4" y2="348"/>
<line class="st11" x1="251.4" y1="351.4" x2="251.4" y2="354.8"/>
<line class="st11" x1="251.4" y1="358.2" x2="251.4" y2="361.7"/>
<line class="st11" x1="251.4" y1="365.1" x2="251.4" y2="368.5"/>
<line class="st11" x1="251.4" y1="371.9" x2="251.4" y2="372.8"/>
<line class="st11" x1="251.4" y1="372.8" x2="254" y2="372.8"/>
<line class="st11" x1="255.7" y1="371.1" x2="255.7" y2="367.7"/>
<line class="st11" x1="255.7" y1="364.2" x2="255.7" y2="360.8"/>
<line class="st11" x1="255.7" y1="357.4" x2="255.7" y2="354"/>
<line class="st11" x1="255.7" y1="350.5" x2="255.7" y2="347.1"/>
<line class="st11" x1="255.7" y1="343.7" x2="255.7" y2="340.3"/>
<line class="st11" x1="255.7" y1="336.8" x2="255.7" y2="333.4"/>
<line class="st11" x1="255.7" y1="330" x2="255.7" y2="327.4"/>
<line class="st11" x1="255.7" y1="327.4" x2="254.9" y2="327.2"/>
<line class="st11" x1="690.1" y1="277.8" x2="700.1" y2="277.8"/>
<line class="st11" x1="703.5" y1="277.8" x2="703.8" y2="277.8"/>
<line class="st11" x1="707.2" y1="277.8" x2="711.2" y2="277.8"/>
<line class="st11" x1="690.1" y1="259.3" x2="711.2" y2="268.4"/>
<line class="st11" x1="705.2" y1="424.7" x2="684.1" y2="424.7"/>
<line class="st11" x1="705.2" y1="420.1" x2="684.1" y2="420.1"/>
<line class="st11" x1="705.2" y1="415.3" x2="684.1" y2="415.3"/>
<line class="st11" x1="705.2" y1="410.4" x2="684.1" y2="410.4"/>
<line class="st11" x1="705.2" y1="405.6" x2="697.2" y2="405.6"/>
<line class="st11" x1="705.2" y1="400.7" x2="685.8" y2="400.7"/>
<line class="st11" x1="705.2" y1="395.9" x2="684.1" y2="395.9"/>
<line class="st11" x1="705.2" y1="391.3" x2="684.1" y2="391.3"/>
<line class="st11" x1="705.2" y1="386.5" x2="684.1" y2="386.5"/>
<line class="st11" x1="684.1" y1="400.2" x2="705.2" y2="409"/>
<line class="st11" x1="697.2" y1="405.6" x2="684.1" y2="405.6"/>
<line class="st11" x1="705.2" y1="381.6" x2="684.1" y2="381.6"/>
<line class="st11" x1="705.2" y1="376.8" x2="684.1" y2="376.8"/>
<line class="st11" x1="241.2" y1="324" x2="335.3" y2="346"/>
<line class="st11" x1="635.3" y1="239.3" x2="645.3" y2="239.3"/>
<line class="st11" x1="648.7" y1="239.3" x2="649" y2="239.3"/>
<line class="st11" x1="652.4" y1="239.3" x2="656.4" y2="239.3"/>
<line class="st11" x1="635.3" y1="273" x2="645.3" y2="273"/>
<line class="st11" x1="648.7" y1="273" x2="649" y2="273"/>
<line class="st11" x1="652.4" y1="273" x2="656.4" y2="273"/>
<line class="st11" x1="635.3" y1="268.4" x2="645.3" y2="268.4"/>
<line class="st11" x1="648.7" y1="268.4" x2="649" y2="268.4"/>
<line class="st11" x1="652.4" y1="268.4" x2="656.4" y2="268.4"/>
<line class="st11" x1="635.3" y1="263.8" x2="645.3" y2="263.8"/>
<line class="st11" x1="648.7" y1="263.8" x2="649" y2="263.8"/>
<line class="st11" x1="652.4" y1="263.8" x2="656.4" y2="263.8"/>
<line class="st11" x1="635.3" y1="259.3" x2="645.3" y2="259.3"/>
<line class="st11" x1="648.7" y1="259.3" x2="649" y2="259.3"/>
<line class="st11" x1="652.4" y1="259.3" x2="656.4" y2="259.3"/>
<line class="st11" x1="635.3" y1="254.4" x2="645.3" y2="254.4"/>
<line class="st11" x1="648.7" y1="254.4" x2="649" y2="254.4"/>
<line class="st11" x1="652.4" y1="254.4" x2="656.4" y2="254.4"/>
<line class="st11" x1="635.3" y1="249.9" x2="645.3" y2="249.9"/>
<line class="st11" x1="648.7" y1="249.9" x2="649" y2="249.9"/>
<line class="st11" x1="652.4" y1="249.9" x2="656.4" y2="249.9"/>
<line class="st11" x1="690.1" y1="240.7" x2="711.2" y2="240.7"/>
<line class="st11" x1="690.1" y1="245.3" x2="711.2" y2="245.3"/>
<line class="st11" x1="690.1" y1="249.9" x2="711.2" y2="249.9"/>
<line class="st11" x1="690.1" y1="254.4" x2="711.2" y2="254.4"/>
<line class="st11" x1="690.1" y1="273" x2="700.1" y2="273"/>
<line class="st11" x1="703.5" y1="273" x2="703.8" y2="273"/>
<line class="st11" x1="707.2" y1="273" x2="711.2" y2="273"/>
<line class="st11" x1="690.1" y1="259.3" x2="711.2" y2="259.3"/>
<line class="st11" x1="690.1" y1="263.8" x2="700.1" y2="263.8"/>
<line class="st11" x1="700.6" y1="263.8" x2="711.2" y2="263.8"/>
<line class="st11" x1="690.1" y1="268.4" x2="700.1" y2="268.4"/>
<line class="st11" x1="703.5" y1="268.4" x2="703.8" y2="268.4"/>
<line class="st11" x1="707.2" y1="268.4" x2="711.2" y2="268.4"/>
<line class="st11" x1="711.2" y1="268.4" x2="711.2" y2="268.4"/>
<line class="st11" x1="635.3" y1="245.3" x2="645.3" y2="245.3"/>
<line class="st11" x1="648.7" y1="245.3" x2="649" y2="245.3"/>
<line class="st11" x1="652.4" y1="245.3" x2="656.4" y2="245.3"/>
<rect x="858.4" y="367.9" class="st12" width="3.4" height="3.4"/>
<rect x="858.4" y="367.9" class="st13" width="3.4" height="3.4"/>
<rect x="782.5" y="367.9" class="st12" width="3.4" height="3.4"/>
<rect x="782.5" y="367.9" class="st13" width="3.4" height="3.4"/>
<rect x="541.8" y="367.1" class="st12" width="8" height="4.3"/>
<rect x="541.8" y="367.1" class="st13" width="8" height="4.3"/>
<rect x="415.7" y="367.1" class="st12" width="8.3" height="4.3"/>
<rect x="415.7" y="367.1" class="st13" width="8.3" height="4.3"/>
<rect x="415.7" y="272.1" class="st12" width="8.3" height="4"/>
<rect x="415.7" y="272.1" class="st13" width="8.3" height="4"/>
<rect x="541.8" y="272.1" class="st12" width="8" height="4"/>
<rect x="541.8" y="272.1" class="st13" width="8" height="4"/>
<rect x="541.8" y="205.4" class="st12" width="8" height="4.3"/>
<rect x="541.8" y="205.4" class="st13" width="8" height="4.3"/>
<polyline class="st12" points="684.1,426.7 705.2,426.7 705.2,362.8 715.2,362.8 715.2,421 724.9,421 724.9,431 679.8,431 
	679.8,344.8 641.3,344.8 641.3,431 621.9,431 621.9,426.7 637,426.7 637,381.1 629,381.1 629,228.8 635.3,228.8 635.3,304.3 
	711.2,304.3 711.2,228.8 715.2,228.8 715.2,230.8 728.9,230.8 728.9,232.7 715.2,232.7 715.2,308.6 635.9,308.6 635.9,335.4 
	758.5,335.4 758.5,232.7 743.7,232.7 743.7,230.8 763.1,230.8 763.1,299.5 839.5,299.5 839.5,315.5 840.4,315.5 840.4,318.9 
	836.1,318.9 836.1,302.9 797,302.9 797,321.7 795,321.7 795,302.9 763.1,302.9 763.1,338.8 795,338.8 795,336.6 797,336.6 
	797,338.8 797,340.8 715.2,340.8 715.2,344.8 684.1,344.8 684.1,426.7 "/>
<polygon class="st13" points="684.1,426.7 705.2,426.7 705.2,362.8 715.2,362.8 715.2,421 724.9,421 724.9,431 679.8,431 
	679.8,344.8 641.3,344.8 641.3,431 621.9,431 621.9,426.7 637,426.7 637,381.1 629,381.1 629,228.8 635.3,228.8 635.3,304.3 
	711.2,304.3 711.2,228.8 715.2,228.8 715.2,230.8 728.9,230.8 728.9,232.7 715.2,232.7 715.2,308.6 635.9,308.6 635.9,335.4 
	758.5,335.4 758.5,232.7 743.7,232.7 743.7,230.8 763.1,230.8 763.1,299.5 839.5,299.5 839.5,315.5 840.4,315.5 840.4,318.9 
	836.1,318.9 836.1,302.9 797,302.9 797,321.7 795,321.7 795,302.9 763.1,302.9 763.1,338.8 795,338.8 795,336.6 797,336.6 
	797,338.8 797,340.8 715.2,340.8 715.2,344.8 684.1,344.8 "/>
<polyline class="st12" points="930.5,209.6 855.5,209.6 855.5,201.4 934.8,201.4 934.8,431 919.7,431 919.7,421 925.1,421 
	925.1,318.9 855.2,318.9 855.2,315.5 930.5,315.5 930.5,209.6 "/>
<polygon class="st13" points="930.5,209.6 855.5,209.6 855.5,201.4 934.8,201.4 934.8,431 919.7,431 919.7,421 925.1,421 
	925.1,318.9 855.2,318.9 855.2,315.5 930.5,315.5 "/>
<path class="st12" d="M390.1,209.7L390.1,209.7c-8.3,0-16.4,1.7-24.1,4.9c-7.6,3.2-14.5,7.8-20.4,13.7c-5.8,5.9-10.5,12.8-13.6,20.4
	c-3.2,7.6-4.8,15.8-4.8,24.1v0v153.8h246.3v4.2H323.1v-4.2V272.8c0-8.8,1.7-17.5,5.1-25.7c3.4-8.1,8.3-15.6,14.5-21.8
	c6.2-6.2,13.6-11.2,21.7-14.6c8.1-3.4,16.8-5.2,25.7-5.2l34,0v4.2H390.1"/>
<path class="st13" d="M390.1,209.7L390.1,209.7c-8.3,0-16.4,1.7-24.1,4.9c-7.6,3.2-14.5,7.8-20.4,13.7c-5.8,5.9-10.5,12.8-13.6,20.4
	c-3.2,7.6-4.8,15.8-4.8,24.1v0v153.8h246.3v4.2H323.1v-4.2V272.8c0-8.8,1.7-17.5,5.1-25.7c3.4-8.1,8.3-15.6,14.5-21.8
	c6.2-6.2,13.6-11.2,21.7-14.6c8.1-3.4,16.8-5.2,25.7-5.2l34,0v4.2H390.1"/>
<rect x="752" y="201.4" class="st12" width="90.1" height="8.3"/>
<rect x="752" y="201.4" class="st13" width="90.1" height="8.3"/>
<rect x="847.5" y="421" class="st12" width="24.2" height="10"/>
<rect x="847.5" y="421" class="st13" width="24.2" height="10"/>
<rect x="772.5" y="421" class="st12" width="27.4" height="10"/>
<rect x="772.5" y="421" class="st13" width="27.4" height="10"/>
<rect x="795" y="321.7" class="st10" width="2" height="14.8"/>
<rect x="795" y="321.7" class="st11" width="2" height="14.8"/>
<rect x="840.4" y="315.5" class="st10" width="14.8" height="3.4"/>
<rect x="840.4" y="315.5" class="st11" width="14.8" height="3.4"/>
<rect x="728.9" y="230.8" class="st10" width="14.8" height="2"/>
<rect x="728.9" y="230.8" class="st11" width="14.8" height="2"/>
<rect x="711.2" y="211.9" class="st10" width="4" height="16.8"/>
<rect x="711.2" y="211.9" class="st11" width="4" height="16.8"/>
<rect x="629" y="211.9" class="st10" width="6.3" height="16.8"/>
<rect x="629" y="211.9" class="st11" width="6.3" height="16.8"/>
<rect x="710.3" y="344.8" class="st10" width="4.8" height="18"/>
<rect x="710.3" y="344.8" class="st11" width="4.8" height="18"/>
<rect x="724.9" y="421" class="st10" width="47.6" height="10"/>
<rect x="724.9" y="421" class="st11" width="47.6" height="10"/>
<rect x="738.6" y="201.4" class="st10" width="13.4" height="8.3"/>
<rect x="738.6" y="201.4" class="st11" width="13.4" height="8.3"/>
<rect x="842.1" y="201.4" class="st10" width="13.4" height="8.3"/>
<rect x="842.1" y="201.4" class="st11" width="13.4" height="8.3"/>
<line class="st11" x1="842.1" y1="205.4" x2="855.5" y2="205.4"/>
<line class="st11" x1="738.6" y1="205.4" x2="752" y2="205.4"/>
<polyline class="st10" points="763.1,230.8 839.5,230.8 839.5,299.5 839.2,299.5 839.2,231 763.1,231 763.1,230.8 "/>
<polygon class="st11" points="763.1,230.8 839.5,230.8 839.5,299.5 839.2,299.5 839.2,231 763.1,231 "/>
<polyline class="st10" points="763.1,265.3 839.2,265.3 839.2,265.5 763.1,265.5 763.1,265.3 "/>
<rect x="763.1" y="265.3" class="st11" width="76.2" height="0.3"/>
<polyline class="st10" points="858.4,315.5 858.4,209.6 858.9,209.6 858.9,315.5 858.4,315.5 "/>
<rect x="858.4" y="209.6" class="st11" width="0.6" height="105.8"/>
<polyline class="st10" points="858.9,245 930.5,245 930.5,245.3 858.9,245.3 858.9,245 "/>
<rect x="858.9" y="245" class="st11" width="71.6" height="0.3"/>
<polyline class="st10" points="858.9,280.9 930.5,280.9 930.5,281.2 858.9,281.2 858.9,280.9 "/>
<rect x="858.9" y="280.9" class="st11" width="71.6" height="0.3"/>
<line class="st11" x1="724.9" y1="426.7" x2="772.5" y2="426.7"/>
<line class="st11" x1="799.9" y1="426.7" x2="847.5" y2="426.7"/>
<line class="st11" x1="871.8" y1="426.7" x2="919.7" y2="426.7"/>
<rect x="420" y="154" class="st10" width="4" height="51.3"/>
<rect x="420" y="154" class="st11" width="4" height="51.3"/>
<polyline class="st10" points="841,201.4 841,193.4 856.4,193.4 856.4,201.4 "/>
<polyline class="st11" points="841,201.4 841,193.4 856.4,193.4 856.4,201.4 "/>
<polyline class="st10" points="737.4,201.4 737.4,193.4 753.1,193.4 753.1,201.4 "/>
<polyline class="st11" points="737.4,201.4 737.4,193.4 753.1,193.4 753.1,201.4 "/>
<polyline class="st12" points="665.8,239.3 665.8,242.7 659.9,242.7 659.9,275.5 686.7,275.5 686.7,239.3 690.1,239.3 690.1,279 
	656.4,279 656.4,239.3 665.8,239.3 "/>
<polygon class="st13" points="665.8,239.3 665.8,242.7 659.9,242.7 659.9,275.5 686.7,275.5 686.7,239.3 690.1,239.3 690.1,279 
	656.4,279 656.4,239.3 "/>
<rect x="660.7" y="243.6" class="st10" width="25.1" height="31.1"/>
<rect x="660.7" y="243.6" class="st11" width="25.1" height="31.1"/>
<line class="st11" x1="660.7" y1="243.6" x2="685.8" y2="274.7"/>
<polyline class="st11" points="697.5,260.7 700.6,263.8 703.6,260.7 "/>
<line class="st11" x1="648.7" y1="242.4" x2="646.4" y2="239.9"/>
<line class="st11" x1="644.2" y1="241" x2="642.7" y2="242.4"/>
<polyline class="st11" points="691.6,421.8 694.7,424.8 697.7,421.8 "/>
<polyline class="st14" points="167.6,696.5 167.6,36.5 1147,36.5 1147,696.5 "/>
<polyline class="st14" points="167.6,1423.2 167.6,36.5 1139.6,36.5 1139.6,1423.2 "/>
<g>
	<defs>
		<rect id="SVGID_3_" x="167.6" y="36.5" width="579.5" height="344.8"/>
	</defs>
	<clipPath id="SVGID_2_">
		<use xlink:href="#SVGID_3_"  style="overflow:visible;"/>
	</clipPath>
</g>
<polyline class="st14" points="962.7,683.8 138.5,683.8 138.5,128.5 "/>
<g>
	<path d="M126.8,604.2c0,2.1-1.3,3.3-3.3,3.3s-3.3-1.3-3.3-3.3V599h1.3v5.2c0,1.3,0.8,2.1,2,2.1s2-0.8,2-2.1V599h1.3V604.2z"/>
	<path d="M135.6,599.9l-0.8,1c-0.5-0.5-1.4-0.9-2.4-0.9c-1.8,0-3,1.3-3,3.1c0,1.8,1.2,3.1,3.1,3.1c1.9,0,2.8-1.4,2.8-2.4l0,0
		c-0.1,0.1-0.3,0.1-0.8,0.1h-2v-1.2h4.2v0.5c0,2.2-1.4,4.4-4.2,4.4c-2.5,0-4.4-1.7-4.4-4.4c0-2.6,1.8-4.4,4.4-4.4
		C133.8,598.8,134.9,599.3,135.6,599.9z"/>
</g>
<rect y="428.6" class="st15" width="141.7" height="172.5"/>
</svg>
