<svg id="Ebene_1" xmlns="http://www.w3.org/2000/svg" viewBox="0 0 1280 720"><style>.st0{fill:#FFFFFF;} .st1{fill:none;stroke:#000000;stroke-width:7.300000e-02;stroke-linecap:round;stroke-linejoin:round;stroke-miterlimit:10;} .st2{fill:none;stroke:#000000;stroke-width:7.000000e-03;stroke-linecap:round;stroke-linejoin:round;stroke-miterlimit:10;} .st3{fill:none;stroke:#000000;stroke-width:0.271;stroke-linecap:round;stroke-linejoin:round;stroke-miterlimit:10;} .st4{fill:none;stroke:#000000;stroke-width:7.300000e-02;stroke-linejoin:round;stroke-miterlimit:10;} .st5{fill:none;stroke:#000000;stroke-width:5.500000e-02;stroke-linecap:round;stroke-linejoin:round;stroke-miterlimit:10;} .st6{fill:none;stroke:#000000;stroke-width:3.700000e-02;stroke-linejoin:round;stroke-miterlimit:10;} .st7{fill:none;stroke:#000000;stroke-width:3.700000e-02;stroke-linecap:round;stroke-linejoin:round;stroke-miterlimit:10;} .st8{fill:none;stroke:#000000;stroke-width:1.500000e-02;stroke-linecap:round;stroke-linejoin:round;stroke-miterlimit:10;} .st9{fill:none;stroke:#000000;stroke-width:1.500000e-02;stroke-linejoin:round;stroke-miterlimit:10;} .st10{fill:none;stroke:#464646;stroke-width:0.109;stroke-linecap:round;stroke-linejoin:round;stroke-miterlimit:10;} .st11{fill:none;stroke:#000000;stroke-width:0.163;stroke-linejoin:round;stroke-miterlimit:10;} .st12{fill:none;stroke:#464646;stroke-width:3.700000e-02;stroke-linecap:round;stroke-linejoin:round;stroke-miterlimit:10;} .st13{fill:none;stroke:#FFFFFF;stroke-width:7.300000e-02;stroke-linejoin:round;stroke-miterlimit:10;} .st14{fill:none;stroke:#FFFFFF;stroke-width:0.271;stroke-linejoin:round;stroke-miterlimit:10;} .st15{clip-path:url(#SVGID_2_);} .st16{clip-path:url(#SVGID_6_);fill:#FFFFFF;} .st17{clip-path:url(#SVGID_6_);fill:none;stroke:#000000;stroke-width:1.500000e-02;stroke-linecap:round;stroke-linejoin:round;stroke-miterlimit:10;} .st18{clip-path:url(#SVGID_6_);fill:none;stroke:#000000;stroke-width:1.500000e-02;stroke-linejoin:round;stroke-miterlimit:10;} .st19{clip-path:url(#SVGID_6_);fill:none;stroke:#000000;stroke-width:3.700000e-02;stroke-linejoin:round;stroke-miterlimit:10;} .st20{clip-path:url(#SVGID_6_);fill:none;stroke:#000000;stroke-width:0.271;stroke-linecap:round;stroke-linejoin:round;stroke-miterlimit:10;} .st21{clip-path:url(#SVGID_6_);fill:none;stroke:#000000;stroke-width:5.500000e-02;stroke-linejoin:round;stroke-miterlimit:10;} .st22{clip-path:url(#SVGID_6_);fill:none;stroke:#000000;stroke-width:7.300000e-02;stroke-linecap:round;stroke-linejoin:round;stroke-miterlimit:10;} .st23{clip-path:url(#SVGID_6_);fill:none;stroke:#000000;stroke-width:7.000000e-03;stroke-linecap:round;stroke-linejoin:round;stroke-miterlimit:10;} .st24{clip-path:url(#SVGID_6_);fill:none;stroke:#000000;stroke-width:3.700000e-02;stroke-linecap:round;stroke-linejoin:round;stroke-miterlimit:10;} .st25{clip-path:url(#SVGID_6_);fill:none;stroke:#000000;stroke-width:0.271;stroke-linejoin:round;stroke-miterlimit:10;} .st26{clip-path:url(#SVGID_6_);fill:none;stroke:#000000;stroke-width:5.500000e-02;stroke-linecap:round;stroke-linejoin:round;stroke-miterlimit:10;} .st27{clip-path:url(#SVGID_6_);fill:none;stroke:#000000;stroke-width:7.300000e-02;stroke-linejoin:round;stroke-miterlimit:10;} .st28{clip-path:url(#SVGID_6_);fill:none;stroke:#FFFFFF;stroke-width:0.271;stroke-linejoin:round;stroke-miterlimit:10;} .st29{clip-path:url(#SVGID_6_);fill:none;stroke:#FFFFFF;stroke-width:7.300000e-02;stroke-linejoin:round;stroke-miterlimit:10;} .st30{clip-path:url(#SVGID_8_);fill:none;stroke:#000000;stroke-width:3.700000e-02;stroke-linecap:round;stroke-linejoin:round;stroke-miterlimit:10;} .st31{clip-path:url(#SVGID_10_);} .st32{clip-path:url(#SVGID_14_);fill:none;stroke:#000000;stroke-width:3.700000e-02;stroke-linecap:round;stroke-linejoin:round;stroke-miterlimit:10;} .st33{clip-path:url(#SVGID_16_);fill:none;stroke:#000000;stroke-width:3.700000e-02;stroke-linecap:round;stroke-linejoin:round;stroke-miterlimit:10;} .st34{clip-path:url(#SVGID_18_);fill:none;stroke:#000000;stroke-width:3.700000e-02;stroke-linecap:round;stroke-linejoin:round;stroke-miterlimit:10;} .st35{clip-path:url(#SVGID_20_);fill:none;stroke:#000000;stroke-width:3.700000e-02;stroke-linecap:round;stroke-linejoin:round;stroke-miterlimit:10;} .st36{clip-path:url(#SVGID_22_);fill:none;stroke:#000000;stroke-width:3.700000e-02;stroke-linecap:round;stroke-linejoin:round;stroke-miterlimit:10;} .st37{clip-path:url(#SVGID_24_);fill:none;stroke:#000000;stroke-width:3.700000e-02;stroke-linecap:round;stroke-linejoin:round;stroke-miterlimit:10;} .st38{clip-path:url(#SVGID_26_);fill:none;stroke:#000000;stroke-width:3.700000e-02;stroke-linecap:round;stroke-linejoin:round;stroke-miterlimit:10;} .st39{clip-path:url(#SVGID_28_);fill:none;stroke:#000000;stroke-width:3.700000e-02;stroke-linecap:round;stroke-linejoin:round;stroke-miterlimit:10;} .st40{clip-path:url(#SVGID_30_);fill:none;stroke:#000000;stroke-width:3.700000e-02;stroke-linecap:round;stroke-linejoin:round;stroke-miterlimit:10;} .st41{clip-path:url(#SVGID_32_);fill:#FFFFFF;} .st42{clip-path:url(#SVGID_32_);fill:none;stroke:#000000;stroke-width:1.500000e-02;stroke-linecap:round;stroke-linejoin:round;stroke-miterlimit:10;} .st43{clip-path:url(#SVGID_32_);fill:none;stroke:#000000;stroke-width:1.500000e-02;stroke-linejoin:round;stroke-miterlimit:10;} .st44{clip-path:url(#SVGID_32_);fill:none;stroke:#000000;stroke-width:3.700000e-02;stroke-linejoin:round;stroke-miterlimit:10;} .st45{clip-path:url(#SVGID_32_);fill:none;stroke:#000000;stroke-width:7.300000e-02;stroke-linecap:round;stroke-linejoin:round;stroke-miterlimit:10;} .st46{clip-path:url(#SVGID_32_);fill:none;stroke:#000000;stroke-width:0.271;stroke-linecap:round;stroke-linejoin:round;stroke-miterlimit:10;} .st47{clip-path:url(#SVGID_32_);fill:none;stroke:#000000;stroke-width:7.000000e-03;stroke-linecap:round;stroke-linejoin:round;stroke-miterlimit:10;} .st48{clip-path:url(#SVGID_32_);fill:none;stroke:#000000;stroke-width:3.700000e-02;stroke-linecap:round;stroke-linejoin:round;stroke-miterlimit:10;} .st49{clip-path:url(#SVGID_32_);fill:none;stroke:#000000;stroke-width:5.500000e-02;stroke-linecap:round;stroke-linejoin:round;stroke-miterlimit:10;} .st50{clip-path:url(#SVGID_32_);fill:none;stroke:#000000;stroke-width:7.300000e-02;stroke-linejoin:round;stroke-miterlimit:10;} .st51{clip-path:url(#SVGID_32_);fill:none;stroke:#000000;stroke-width:5.500000e-02;stroke-linejoin:round;stroke-miterlimit:10;} .st52{clip-path:url(#SVGID_32_);fill:none;stroke:#FFFFFF;stroke-width:7.300000e-02;stroke-linejoin:round;stroke-miterlimit:10;} .st53{clip-path:url(#SVGID_34_);fill:none;stroke:#000000;stroke-width:3.700000e-02;stroke-linecap:round;stroke-linejoin:round;stroke-miterlimit:10;} .st54{clip-path:url(#SVGID_36_);fill:none;stroke:#000000;stroke-width:1.500000e-02;stroke-linecap:round;stroke-linejoin:round;stroke-miterlimit:10;} .st55{clip-path:url(#SVGID_38_);} .st56{clip-path:url(#SVGID_42_);fill:#FFFFFF;} .st57{clip-path:url(#SVGID_42_);fill:none;stroke:#000000;stroke-width:1.500000e-02;stroke-linecap:round;stroke-linejoin:round;stroke-miterlimit:10;} .st58{clip-path:url(#SVGID_42_);fill:none;stroke:#000000;stroke-width:1.500000e-02;stroke-linejoin:round;stroke-miterlimit:10;} .st59{clip-path:url(#SVGID_42_);fill:none;stroke:#000000;stroke-width:0.271;stroke-linecap:round;stroke-linejoin:round;stroke-miterlimit:10;} .st60{clip-path:url(#SVGID_42_);fill:none;stroke:#000000;stroke-width:3.700000e-02;stroke-linecap:round;stroke-linejoin:round;stroke-miterlimit:10;} .st61{clip-path:url(#SVGID_42_);fill:none;stroke:#000000;stroke-width:7.300000e-02;stroke-linecap:round;stroke-linejoin:round;stroke-miterlimit:10;} .st62{clip-path:url(#SVGID_42_);fill:none;stroke:#000000;stroke-width:3.700000e-02;stroke-linejoin:round;stroke-miterlimit:10;} .st63{clip-path:url(#SVGID_42_);fill:none;stroke:#000000;stroke-width:7.000000e-03;stroke-linecap:round;stroke-linejoin:round;stroke-miterlimit:10;} .st64{clip-path:url(#SVGID_42_);fill:none;stroke:#000000;stroke-width:7.300000e-02;stroke-linejoin:round;stroke-miterlimit:10;} .st65{clip-path:url(#SVGID_42_);fill:none;stroke:#000000;stroke-width:5.500000e-02;stroke-linecap:round;stroke-linejoin:round;stroke-miterlimit:10;} .st66{clip-path:url(#SVGID_42_);fill:none;stroke:#000000;stroke-width:5.500000e-02;stroke-linejoin:round;stroke-miterlimit:10;} .st67{clip-path:url(#SVGID_42_);fill:none;stroke:#FFFFFF;stroke-width:7.300000e-02;stroke-linejoin:round;stroke-miterlimit:10;} .st68{clip-path:url(#SVGID_44_);fill:none;stroke:#000000;stroke-width:1.500000e-02;stroke-linecap:round;stroke-linejoin:round;stroke-miterlimit:10;} .st69{fill-rule:evenodd;clip-rule:evenodd;fill:none;} .st70{fill:none;stroke:#000000;stroke-width:0.25;stroke-linecap:round;stroke-linejoin:round;stroke-miterlimit:10;} .st71{fill:none;stroke:#000000;stroke-width:0.25;stroke-linejoin:round;stroke-miterlimit:10;} .st72{fill:#464646;}</style><path d="M112 597.7l-.6 1.2c-.5-.3-1.1-.5-1.7-.5-.7 0-1 .3-1 .7 0 .4.2.7.6 1l1.5 1.2c.9.7 1.3 1.3 1.3 2.3 0 1.5-1.1 2.4-2.7 2.4-1.1 0-2.1-.4-2.7-.8l.6-1.2c.5.3 1.3.7 2.2.7.9 0 1.3-.4 1.3-1 0-.5-.3-.8-.9-1.3l-1.4-1.1c-.7-.6-1.2-1.2-1.2-2 0-1.2.9-2 2.4-2 .9-.2 1.7.1 2.3.4zM113 602.9c0-1.8 1.2-3 3-3 .7 0 1.3.2 1.9.6l-.6 1c-.4-.3-.9-.4-1.4-.4-1 0-1.8.7-1.8 1.8s.7 1.8 1.8 1.8c.5 0 1-.1 1.4-.4l.6 1c-.6.4-1.2.6-1.9.6-1.8-.1-3-1.3-3-3zM120.2 600.1c0 .5 0 .8-.1 1.2.4-.9 1.1-1.4 2-1.4 1.2 0 2 .8 2 2.1v3.6h-1.2v-3.3c0-.8-.4-1.3-1.2-1.3-1 0-1.5.7-1.5 1.9v2.7H119V597h1.2v3.1zM130.7 602v3.6h-1.2v-3.3c0-.8-.4-1.3-1.2-1.3-1 0-1.5.7-1.5 1.9v2.7h-1.2v-5.5h1.2c0 .6 0 .9-.1 1.3.4-1 1.1-1.5 2-1.5 1.3 0 2 .8 2 2.1zM133.4 598.9h-1.3v-1.6h1.3v1.6zm0 6.8h-1.2v-5.5h1.2v5.5zM136.6 599.6v.6c.1-.1.2-.1.5-.1h.6v1.1h-.6c-.3 0-.4 0-.5-.1V605.5h-1.2v-3.8-.6c-.1.1-.2.1-.5.1h-.5v-1.1h.5c.3 0 .4 0 .5.1V598l1.1-.8h.1v2.4zM140.3 599.6v.6c.1-.1.2-.1.5-.1h.6v1.1h-.6c-.3 0-.4 0-.5-.1V605.5h-1.2v-3.8-.6c-.1.1-.2.1-.5.1h-.5v-1.1h.5c.3 0 .4 0 .5.1V598l1.1-.8h.1v2.4z"/><path class="st69" d="M176.8 72.3l-31.4-1479M176.8 72.5l-31.4-1479.2"/><path class="st70" d="M714.5 199.6v-32m0 0h9.8v32.3"/><path class="st71" d="M714.2 156.3h10.5v.6h-10.5zM711.3 162.2l2.9 5.4h10.4l3-5.4z"/><path class="st71" d="M711.3 162.2l2.9-5.3h10.4l3 5.3zM714.2 167.6h10.5v.6h-10.5z"/><path class="st0" d="M713.5 171.9h9.8l-.1 28-2.2-.1-3.8-.1-3.7-.1z"/><path class="st70" d="M713.5 199.6v-27.7m0 0h9.8v27.9"/><path class="st0" d="M713.1 160.8h10.4v.6h-10.4z"/><path class="st71" d="M713.1 160.8h10.4v.6h-10.4z"/><path class="st0" d="M710.1 166.6l3.4 5.3h9.8l3.4-5.3z"/><path class="st71" d="M710.1 166.6l3.4 5.3h9.8l3.4-5.3z"/><path class="st0" d="M710.1 166.6l3-5.3h10.4l3.2 5.3z"/><path class="st71" d="M710.1 166.6l3-5.3h10.4l3.2 5.3z"/><path class="st70" d="M530 362.9h13.8v47.4H530zM516.6 362.9h13.3v47.4h-13.3zM501.8 359.5h56.7v3.4h-56.7z"/><path class="st71" d="M687.8 388.6c0-.3-.3-.6-.6-.6s-.6.3-.6.6.3.6.6.6.6-.3.6-.6M687.8 390.3c0-.3-.3-.6-.6-.6s-.6.3-.6.6.3.6.6.6.6-.2.6-.6"/><path class="st70" d="M685 364.5h19.6v45.8H685z"/><path class="st0" d="M687 388.4h2.9v.3H687z"/><path class="st70" d="M687 388.4h2.9v.3H687z"/><path class="st70" d="M683.6 363.2h22.3v47.1h-22.3zM937.1 98h6.5v95h-6.5zM944.8 160.7h5.4v32.6h-5.4z"/><path class="st0" d="M939.9 201.3l63.8 4.2v15.8h1.1v48.9H940v-68.9zM575.3 333.2v-57.8h39.8V333.1h-39.8m-363.3.1h-40v-57.8h40v57.8zm719.6 87.5h119.9v69.9H972V487h-40.4v-66.3m-616-87.9H214.1v-57.3h101.5v57.3zm478.2 157.9h-68.4v-69.9h68.4v69.9zm49.5-157.5h-39.8v-57.8h39.8v57.8zM665 275.4v8.5h1.1v48.9h-46.7v-57.3H665m341.9-.1h44.5v57.8h-44.5v-57.8zM711.3 414.6v-75.8h1.1V209.1l10.9.3v123.3h-2.2v81.9h-9.8m90-130.7v48.9h-75.9v-57.3h74.8v8.5h1.1m65.8 203H865v-66.3h63.3V487h-61.2M708 333.2h-39.8v-57.8H708v57.8zm89.6 87.5h63v69.9h-63v-69.9zM431.1 270.2H320v-63.8l111.1-3.4v67.2m144.2-65l39.8 1.1v64.3h-39.8v-65.4m164 209.4h-13.9v-75.8h13.9v75.8zM320 275.4h111.1v57.3H320v-57.3zm575.8 0h39.8V333.1h-39.8v-57.7m107.9 0v8.5h1.1v48.9H940v-57.3h63.7m-160.4-69.7v64.4H725.4v-60.7l38 1.1 79.9-4.8M442 414.6H226.1v-75.8H442v75.8zm279.1 6.1V487H530.6v.2l-41.1 2h-2.2l-41.1-2v-66.5h274.9M483 275.4h39.8v57.8H483v-57.8zm90.2-5.2h-46v-66.4l45 1.3v16.2h1.1v48.9M708 209v61.6h-39.8v-62.8L708 209m-88.6-2.6l45.6 1.3v13.6h1.1v48.9h-46.7v-63.8M214 209.7l101.6-3.1v63.6H214.1l-.1-60.5m386.1 204.9v-52.3h-3.5v52.3h-93.8v-52.3h-3.5v52.3h-53v-75.8h235.9v75.8h-82.1m292.5-193.3h1.1v48.9h-46v-64.6l45-2.7v18.4M171.4 211l40.5-1.2v60.9h-40.5V211m355.7 121.8v-57.3h45v8.5h1.1v48.9h-46.1m-46.3-111.6v48.9h-45.4v-67.3l28.7-.9 15.8.5h-.2v18.9h1.1m0 62.5v48.9h-45.4v-57.3h44.3v8.5h1.1m228.3 130.6h-24.2v-75.8h24.2v75.8zm-186.3-144H483v-68.1l39.8 1.1v67m369.8 4.8v8.5h1.1v48.9h-46v-57.3h44.9m37.8-74.8l5.2.3V270.6h-39.8v-67.9l34.6-2m76.5 69.9v-64.9l44.5 3v61.9h-44.5m48.3 68.2V204.2l-124.8-8.3-167 9.9-299.3-8.6-296.5 9.1v132.5h54.6v75.8l-50.3 1.1v-6.1l-9.6-.2v109.4H157v6.5h17.4v-6.5H169v-23.2h271.9v-8.5l-18.2.3-172.1.1-81.6-.4h-1.1v-65h273v73.4h96.2v-2.2h181.8v3.7h148.2v-3.7h98.3v3.7h83.3v36.9h-2.2v6.5h10.9v-6.5h-2.2V395h-3.8v19.6H741.5v-75.8h84.2v24.4h3.8v-24.4H981v24.4h4.3v-24.4h66v21.5h3.8v-21.5"/><path class="st70" d="M939.9 201.3l63.8 4.2v15.8h1.1v48.9H940v-68.9M575.3 333.2v-57.8h39.8V333.1h-39.8m-363.3.1h-40v-57.8h40v57.8zm719.6 87.5h119.9v69.9H972V487h-40.4v-66.3m-616-87.9H214.1v-57.3h101.5v57.3zm478.2 157.9h-68.4v-69.9h68.4v69.9zm49.5-157.5h-39.8v-57.8h39.8v57.8zM665 275.4v8.5h1.1v48.9h-46.7v-57.3H665m341.9-.1h44.5v57.8h-44.5v-57.8zM711.3 414.6v-75.8h1.1V209.1l10.9.3v123.3h-2.2v81.9h-9.8m90-130.7v48.9h-75.9v-57.3h74.8v8.5h1.1m65.8 203H865v-66.3h63.3V487h-61.2M708 333.2h-39.8v-57.8H708v57.8zm89.6 87.5h63v69.9h-63v-69.9zM431.1 270.2H320v-63.8l111.1-3.4v67.2m144.2-65l39.8 1.1v64.3h-39.8v-65.4m164 209.4h-13.9v-75.8h13.9v75.8zM320 275.4h111.1v57.3H320v-57.3zm575.8 0h39.7V333.1h-39.7v-57.7m107.9 0v8.5h1.1v48.9H940v-57.3h63.7m-160.4-69.7v64.4H725.4v-60.7l38 1.1 79.9-4.8M442 414.6H226.1v-75.8H442v75.8zm279.1 6.1V487H530.6v.2l-41.1 2h-2.2l-41.1-2v-66.5h274.9M483 275.4h39.8v57.8H483v-57.8zm90.2-5.2h-46v-66.4l45 1.3v16.2h1.1v48.9M708 209v61.6h-39.7v-62.8L708 209m-88.6-2.6l45.6 1.3v13.6h1.1v48.9h-46.7v-63.8M214 209.7l101.6-3.1v63.6H214.1l-.1-60.5m386.1 204.9v-52.3h-3.5v52.3h-93.8v-52.3h-3.5v52.3h-53v-75.8h235.9v75.8h-82.1m292.5-193.3h1.1v48.9h-46v-64.6l45-2.7v18.4M171.4 211l40.5-1.2v60.9h-40.5V211m355.7 121.8v-57.3h45v8.5h1.1v48.9h-46.1m-46.3-111.6v48.9h-45.4v-67.3l28.7-.9 15.8.5h-.2v18.9h1.1m0 62.5v48.9h-45.4v-57.3h44.3v8.5h1.1m228.3 130.6h-24.2v-75.8h24.2v75.8zm-186.3-144H483v-68.1l39.8 1.1v67m369.8 4.8v8.5h1.1v48.9h-46v-57.3h44.9m37.8-74.8l5.2.3V270.6h-39.7v-67.9l34.5-2m76.5 69.9v-64.9l44.5 3v61.9h-44.5M867.1 493.5h98.3v3.7h83.3v36.9h-2.2v6.5h10.9v-6.5h-2.2V395h-3.8v19.6H741.5v-75.8h84.2v24.4h3.8v-24.4H981v24.4h4.3v-24.4h66v21.5h3.8v-21.5m-832.8 83.4h218.6v73.4h96.2v-2.2h181.8v3.7h148.2m-426.2-9.9l-18.2.3-172.1.1-81.6-.4h-1.1v-65h54.4m832.9-83.4V204.2l-124.8-8.3-167 9.9-299.3-8.6-296.5 9.1v132.5h54.6v75.8l-50.3 1.1v-6.1l-9.6-.2v109.4H157v6.5h17.4v-6.5H169v-23.2h271.9M167.9 486.3h273"/><path class="st0" d="M167.6 338.8V206.3l296.6-9.1v-4.8l-283.7 8.8v.9l-12.9.4-5.2.1v140.6h54.7v71.6h5.2v-76z"/><path class="st70" d="M464.2 192.4l-283.7 8.7v.9l-12.9.4-5.2.2v140.5H217v71.6h5.2v-76h-54.6m0 .1V206.3l296.5-9.1"/><path class="st0" d="M865 420.7h2.6V487H865z"/><path class="st70" d="M865 420.7h2.6V487H865z"/><path class="st0" d="M528.9 422.9v63.4h1.7v-65.6h-84.3v2.2z"/><path class="st71" d="M528.9 422.9v63.4h1.7v-65.6h-84.3v2.2z"/><path class="st0" d="M1055.2 204.2v150.5h5.2v-154l-5.2-.4-12.7-.8v-.9l-112.1-7.5v4.8z"/><path class="st70" d="M930.4 195.9l124.8 8.3m0 0v150.5h5.2v-154l-5.2-.4-12.7-.8.1-.9-112.1-7.4"/><path class="st0" d="M440.9 422.3h-273v2.1h269.7v62.9h3.3z"/><path class="st71" d="M440.9 422.3h-273v2.1h269.7v62.9h3.3z"/><path class="st0" d="M464.2 197.2l299.2 8.6V201l-299.2-8.6z"/><path class="st70" d="M763.4 201l-299.3-8.6m.1 4.8l299.3 8.6"/><path class="st0" d="M930.4 195.9l-167 9.9V201l167-9.9z"/><path class="st70" d="M763.4 201l167-9.9m0 4.8l-167 9.9M725.5 275.4h12.3v54.5h-12.3z"/><path class="st0" d="M162 343.7h54.7v68.1h.3v-68.6h-54.6V202.6h-.4z"/><path class="st71" d="M162 343.7h54.7v68.1h.3v-68.6h-54.6V202.6h-.4z"/><path class="st71" d="M172 343.7h-9.6v65.7l9.6.3zM226.1 351.5H442v.8H226.1z"/><path class="st70" d="M162.4 483.2l-13.3-.2-5.1-.5-8.7.4-11.4.2-271.8 7.8"/><path class="st0" d="M162 201.8v.8l18.5-.5v-1z"/><path class="st71" d="M162 202.6l18.5-.5v-1l-18.5.7z"/><path class="st70" d="M157.2 203.9c0 1.1.9 2 2 2s2-.9 2-2"/><path class="st70" d="M157.1 205.4c.8 1.2 2.5 1.5 3.6.6.2-.2.5-.4.6-.6M161.3 205.5v-3.8M157.1 205.5V204"/><path class="st71" d="M157.1 204c0-.1-.1-.2-.2-.2s-.2.1-.2.2.1.2.2.2.2-.1.2-.2"/><path class="st70" d="M157.2 204.1c.1-.2-.1-.4-.3-.5-.2-.1-.4.1-.5.3v.1M161.1 204v-2.2M161.3 201.7l9.8-.3M156.5 203.9l-.1.3M156.4 204.2v-.6M156.4 203.6l4.5-2.3M160.9 201.3l3.5-.1M162.4 415.8l-3.9.1-.4.7 4.3-.2M169 387.9h.8v21.7h-.8z"/><path class="st71" d="M169 387.9v.5h-.5v-.9h1.7v.9h-.4v-.5z"/><path class="st0" d="M533.8 420.7h-3.2v66.7h3.2v-55.9z"/><path class="st71" d="M533.8 420.7h-3.2v66.7h3.2v-55.9z"/><path class="st70" d="M446.3 486.3h84.3"/><path class="st0" d="M1060.5 395.2h.4V503h-.4z"/><path class="st71" d="M1060.5 395.2h.4V503h-.4z"/><path class="st70" d="M342.7 338.9v.3M342.7 340v.4M342.7 341.1v.4M342.7 342.2v.4M342.7 343.3v.4M342.7 344.4v.4M342.7 345.5v.4M342.7 346.6v.4M342.7 347.7v.4M342.7 348.8v.4M342.7 349.9v.4M342.7 351v.4M342.7 352.1v.4M342.7 353.2v.4M342.7 354.3v.4M342.7 355.4v.4M342.7 356.5v.4M342.7 357.6v.4M342.7 358.7v.4M342.7 359.8v.4M342.7 360.9v.4M342.7 362.1v.3M342.7 363.2v.3M342.7 364.3v.3M342.7 365.4v.3M342.7 366.5v.3M342.7 367.6v.3M342.7 368.7v.3M342.7 369.8v.3M342.7 370.9v.3M342.7 372v.4M342.7 373.1v.4M342.7 374.2v.4M342.7 375.3v.4M342.7 376.4v.4M342.7 377.5v.4M342.7 378.6v.4M342.7 379.7v.4M342.7 380.8v.4M342.7 381.9v.4M342.7 383v.4M342.7 384.1v.4M342.7 385.2v.4M342.7 386.3v.4M342.7 387.4v.4M342.7 388.5v.4M342.7 389.6v.4M342.7 390.7v.4M342.7 391.8v.4M342.7 392.9v.4M342.7 394.1v.3M342.7 395.2v.3M342.7 396.3v.3M342.7 397.4v.3M342.7 398.5v.3M342.7 399.6v.3M342.7 400.7v.3M342.7 401.8v.3M342.7 402.9v.3M342.7 404v.4M342.7 405.1v.4M342.7 406.2v.4M342.7 407.3v.4M342.7 408.4v.4M342.7 409.5v.4M342.7 410.1v.2"/><path class="st71" d="M684.9 351.5h24.2v.8h-24.2z"/><path class="st0" d="M1054.8 390.8H1056.2v-.3h.1v-.1l.2.1h.1v.5h-.2V391.3h-.4v.2H1055.1v.5H1054.8v-.1z"/><path class="st70" d="M1054.8 390.8H1056.2v-.3h.1v-.1l.2.1h.1v.5h-.2V391.3h-.4v.2H1055.1v.5H1054.8V390.8"/><path class="st0" d="M1055.2 362.5h-.4v.3H1055.1v-.1h.1v-.2z"/><path class="st70" d="M1054.8 362.5h.4v.2h-.1v.1H1054.8v-.3"/><path class="st0" d="M1056.2 362.7v.2h.1l-.1-.2zm0 0z"/><path class="st70" d="M1056.3 362.8v-.1h-.1v.2l.1-.1"/><path class="st0" d="M1055.1 362.7v.1l.1.1v-.2z"/><path class="st70" d="M1055.1 362.8v-.1h.1v.2l-.1-.1"/><path class="st0" d="M1054.8 362.4v.1H1056.2v.2h.1v.1l.2-.1h.1v-.5h-.2v-.2h-.4V361.7H1055.1v-.4H1054.8z"/><path class="st70" d="M1054.8 362.4v.1H1056.2v.2h.1v.1l.2-.1h.1v-.5h-.2v-.2h-.4V361.7H1055.1v-.4H1054.8v1.1"/><path class="st0" d="M1055.3 358.7v2.7h.9V361.7h.2v.4h.1l.2-.1V358.7z"/><path class="st70" d="M1055.3 361.4h.9V361.7h.2v.4h.1l.2-.1v-3.3h-1.4v2.7"/><path class="st0" d="M1054.9 390.4h-.1v.4h.4V390.5h-.1v-.1z"/><path class="st70" d="M1054.8 390.7v.1h.4V390.5h-.1v-.1H1054.8v.3"/><path class="st0" d="M1056.2 390.5zm0 0l.1-.1h-.1v.1z"/><path class="st70" d="M1056.3 390.4v.1h-.1v-.2l.1.1"/><path class="st0" d="M1055.1 390.4v.1h.1v-.2z"/><path class="st70" d="M1055.1 390.4v.1h.1v-.2l-.1.1"/><path class="st0" d="M1055.2 390.7h1v.1h-1z"/><path class="st70" d="M1055.2 390.7h1v.1h-1zM1054.8 362.8v27.8M1056.6 362.7v27.9"/><path class="st0" d="M1056.4 391.1v.4h-.2v.3h-.9v3h1.4v-3.6l-.2-.1z"/><path class="st70" d="M1055.3 393.3v1.5h1.4v-3.6l-.2-.1h-.1v.4h-.2v.3h-.9v1.5M1055.2 390.7v-28.1M1056.1 390.7v-28.1"/><path class="st0" d="M1050.9 394h4.3v.5h-4.3z"/><path class="st70" d="M1050.9 394h4.3v.5h-4.3z"/><path class="st0" d="M1055.2 394.8h1.4v1.7h-1.4z"/><path class="st70" d="M1055.2 394.8h1.4v1.7h-1.4zM1058 354.7h2.5v5.4h-2.5zM1059 356.5v3.4M1059.9 359.9l-1.7-.4"/><path class="st0" d="M1056.7 358.7v1.4h1.3v-5.4h-2.8v4z"/><path class="st71" d="M1056.7 358.7v1.4h1.3v-5.4h-2.8v4z"/><path class="st70" d="M1059.9 359l-1.7-.3M1059.9 358.2l-1.7-.4M1059.9 357.4l-1.7-.5M1058.3 354.9h1.6v1.7h-1.6zM1056.7 394.8l4.9.3v.5M1060.8 360.1V395M1051.4 360.3V394"/><path class="st0" d="M1051.4 394.4h3.8v.6h-3.8z"/><path class="st70" d="M1051.4 394.4h3.8v.6h-3.8z"/><path class="st0" d="M1060.5 200.6h.4v159.5h-.4z"/><path class="st71" d="M1060.5 200.6h.4v159.5h-.4zM741.5 351.5h84.2v.8h-84.2zM829.6 351.5H981v.8H829.6zM985.4 351.5h66v.8h-66z"/><path class="st70" d="M1046.7 275.4h1.3v57.7h-1.3zM528.4 275.4h12.4v54.5h-12.4zM620.7 275.4h12.4v54.5h-12.4zM848.9 275.4h12.4v54.5h-12.4zM941.2 275.4h12.4v54.5h-12.4zM522.8 281H483M522.8 279.6H483M435.4 275.4h12.4v54.5h-12.4zM615.1 281h-39.8M615.1 279.6h-39.8M708.1 281h-39.8M708.1 279.6h-39.8M843.3 281h-39.8M843.3 279.6h-39.8M935.6 281h-39.7M935.6 279.6h-39.7M1046.7 281h-39.8M1046.7 279.6h-39.8M1046.7 208.4h1.3v62.3h-1.3zM528.4 212.8h12.4v54.5h-12.4zM620.7 212.8h12.4v54.5h-12.4zM847.6 212.8h13.7v54.5h-13.7zM522.8 218.5H483M522.8 216.9H483M435.4 212.8h12.4v54.5h-12.4zM615.1 218.5h-39.8M615.1 216.9h-39.8M708.1 218.5h-39.8M708.1 216.9h-39.8M935.6 218.5h-39.7M935.6 216.9h-39.7M1046.7 218.5h-39.8M1046.7 216.9h-39.8"/><path class="st0" d="M572.1 283.9h1.1v45.8h-1.1z"/><path class="st71" d="M572.1 283.9h1.1v45.8h-1.1z"/><path class="st0" d="M479.8 283.9h1.1v45.8h-1.1z"/><path class="st71" d="M479.8 283.9h1.1v45.8h-1.1z"/><path class="st0" d="M665.1 283.9h1.1v45.8h-1.1z"/><path class="st71" d="M665.1 283.9h1.1v45.8h-1.1z"/><path class="st0" d="M800.2 283.9h1.1v45.8h-1.1z"/><path class="st71" d="M800.2 283.9h1.1v45.8h-1.1z"/><path class="st0" d="M892.5 283.9h1.1v45.8h-1.1z"/><path class="st71" d="M892.5 283.9h1.1v45.8h-1.1z"/><path class="st0" d="M1003.7 283.9h1v45.8h-1z"/><path class="st71" d="M1003.7 283.9h1v45.8h-1z"/><path class="st0" d="M572.1 221.4h1.1v45.8h-1.1z"/><path class="st71" d="M572.1 221.4h1.1v45.8h-1.1z"/><path class="st0" d="M479.8 221.4h1.1v45.8h-1.1z"/><path class="st71" d="M479.8 221.4h1.1v45.8h-1.1z"/><path class="st0" d="M665.1 221.4h1.1v45.8h-1.1z"/><path class="st71" d="M665.1 221.4h1.1v45.8h-1.1z"/><path class="st0" d="M892.5 221.4h1.1v45.8h-1.1z"/><path class="st71" d="M892.5 221.4h1.1v45.8h-1.1z"/><path class="st0" d="M1003.7 221.4h1v45.8h-1z"/><path class="st71" d="M1003.7 221.4h1v45.8h-1z"/><path class="st0" d="M1042.4 199.5l18.5 1.2v-.9l-18.4-1.2z"/><path class="st71" d="M1042.4 199.5l18.5 1.2v-.9l-18.4-1.2z"/><path class="st70" d="M1061.7 201.9c0 1.1.9 2 2 2s2-.9 2-2"/><path class="st70" d="M1061.5 203.4c.8 1.2 2.5 1.5 3.6.6.2-.2.5-.4.6-.6M1061.6 203.4v-3.6M1065.8 203.4V202"/><path class="st71" d="M1066.3 202c0-.1-.1-.2-.2-.2s-.2.1-.2.2.1.2.2.2.2-.1.2-.2"/><path class="st70" d="M1066.4 202c0-.2-.2-.4-.4-.4s-.4.2-.4.4v.1M1061.7 202v-2M1061.6 199.8l-9.9-.7M1066.3 201.9l.1.2M1066.4 202.1l.1-.5M1066.5 201.6l-4.3-2.2M1062.2 199.4l-3.5-.2M380.9 352.3v58h-6.5v-58M374.4 351.5v-12.6h6.5v12.6M427.8 338.9v12.6M427.8 352.3v58M259 208.3v59M353.5 205.4v61.9M673.7 420.9v65.7"/><path class="st71" d="M623.1 420.7h5.4v65.6h-5.4zM575.1 420.7h5.4v65.6h-5.4zM797.7 430.7h63v.8h-63z"/><path class="st70" d="M976.3 425.7h71.8v60.6h-71.8v-60.6zm71.9-3.2v1.1h-71.8v-1.1h-2.2v68.2h2.2v-1.5h71.8v1.5h2.2v-68.2h-2.2M867.2 497.2v-3.7M860.6 490.7V487M854.8 360.1h101M353.4 275.4V330M712.4 270.2h10.9v5.2h-10.9zM712.4 332.7h8.6v6.2h-8.6z"/><path class="st71" d="M471.9 308.2c0-.3-.3-.6-.6-.6s-.6.3-.6.6.3.6.6.6.6-.3.6-.6M471.9 310c0-.3-.3-.6-.6-.6s-.6.3-.6.6.3.6.6.6.6-.3.6-.6"/><path class="st70" d="M452.6 284.1H473V330h-20.4zM473 284.1h6.3V330H473z"/><path class="st0" d="M468.5 308.1h2.8v.3h-2.8z"/><path class="st70" d="M468.5 308.1h2.9v.3h-2.9z"/><path class="st71" d="M452.4 283.9h27.2V330h-27.2zM471.9 245.7c0-.3-.3-.6-.6-.6s-.6.3-.6.6.3.6.6.6.6-.3.6-.6M471.9 247.4c0-.3-.3-.6-.6-.6s-.6.3-.6.6.3.6.6.6.6-.2.6-.6"/><path class="st70" d="M452.6 221.5H473v45.8h-20.4zM473 221.5h6.3v45.8H473z"/><path class="st0" d="M468.5 245.5h2.8v.4h-2.8z"/><path class="st70" d="M468.5 245.5h2.9v.4h-2.9z"/><path class="st71" d="M452.4 221.4h27.2v46h-27.2zM564.2 308.2c0-.3-.3-.6-.6-.6s-.6.3-.6.6.3.6.6.6.6-.3.6-.6M564.2 310c0-.3-.3-.6-.6-.6s-.6.3-.6.6.3.6.6.6.6-.3.6-.6"/><path class="st70" d="M545 284.1h20.4V330H545zM565.4 284.1h6.3V330h-6.3z"/><path class="st0" d="M560.8 308.1h2.9v.3h-2.9z"/><path class="st70" d="M560.8 308.1h2.9v.3h-2.9z"/><path class="st71" d="M544.7 283.9h27.1V330h-27.1zM564.2 245.7c0-.3-.3-.6-.6-.6s-.6.3-.6.6.3.6.6.6.6-.3.6-.6M564.2 247.4c0-.3-.3-.6-.6-.6s-.6.3-.6.6.3.6.6.6.6-.2.6-.6"/><path class="st70" d="M545 221.5h20.4v45.8H545zM565.4 221.5h6.3v45.8h-6.3z"/><path class="st0" d="M560.8 245.5h2.9v.4h-2.9z"/><path class="st70" d="M560.8 245.5h2.9v.4h-2.9z"/><path class="st71" d="M544.7 221.4h27.1v46h-27.1zM657.1 308.2c0-.3-.3-.6-.6-.6s-.6.3-.6.6.3.6.6.6c.4 0 .6-.3.6-.6M657.1 310c0-.3-.3-.6-.6-.6s-.6.3-.6.6.3.6.6.6c.4 0 .6-.3.6-.6"/><path class="st70" d="M637.9 284.1h20.4V330h-20.4zM658.3 284.1h6.3V330h-6.3z"/><path class="st0" d="M653.8 308.1h2.9v.3h-2.9z"/><path class="st70" d="M653.8 308.1h2.9v.3h-2.9z"/><path class="st71" d="M637.6 283.9h27.1V330h-27.1zM657.1 245.7c0-.3-.3-.6-.6-.6s-.6.3-.6.6.3.6.6.6c.4 0 .6-.3.6-.6M657.1 247.4c0-.3-.3-.6-.6-.6s-.6.3-.6.6.3.6.6.6c.4 0 .6-.2.6-.6"/><path class="st70" d="M637.9 221.5h20.4v45.8h-20.4zM658.3 221.5h6.3v45.8h-6.3z"/><path class="st0" d="M653.8 245.5h2.9v.4h-2.9z"/><path class="st70" d="M653.8 245.5h2.9v.4h-2.9z"/><path class="st71" d="M637.6 221.4h27.1v46h-27.1zM792.4 308.2c0-.3-.3-.6-.6-.6s-.6.3-.6.6.3.6.6.6.6-.3.6-.6M792.4 310c0-.3-.3-.6-.6-.6s-.6.3-.6.6.3.6.6.6.6-.3.6-.6"/><path class="st70" d="M773.1 284.1h20.5V330h-20.5zM793.6 284.1h6.2V330h-6.2z"/><path class="st0" d="M789 308.1h2.9v.3H789z"/><path class="st70" d="M789 308.1h2.9v.3H789z"/><path class="st71" d="M772.9 283.9H800V330h-27.1zM884.7 308.2c0-.3-.3-.6-.6-.6s-.6.3-.6.6.3.6.6.6c.4 0 .6-.3.6-.6M884.7 310c0-.3-.3-.6-.6-.6s-.6.3-.6.6.3.6.6.6c.4 0 .6-.3.6-.6"/><path class="st70" d="M865.4 284.1h20.5V330h-20.5zM885.9 284.1h6.2V330h-6.2z"/><path class="st0" d="M881.3 308.1h2.9v.3h-2.9z"/><path class="st70" d="M881.3 308.1h2.9v.3h-2.9z"/><path class="st71" d="M865.2 283.9h27.1V330h-27.1zM884.7 245.7c0-.3-.3-.6-.6-.6s-.6.3-.6.6.3.6.6.6c.4 0 .6-.3.6-.6M884.7 247.4c0-.3-.3-.6-.6-.6s-.6.3-.6.6.3.6.6.6c.4 0 .6-.2.6-.6"/><path class="st70" d="M865.4 221.5h20.5v45.8h-20.5zM885.9 221.5h6.2v45.8h-6.2z"/><path class="st0" d="M881.3 245.5h2.9v.4h-2.9z"/><path class="st70" d="M881.3 245.5h2.9v.4h-2.9z"/><path class="st71" d="M865.2 221.4h27.1v46h-27.1z"/><g><path class="st71" d="M995.8 308.2c0-.3-.3-.6-.6-.6s-.6.3-.6.6.3.6.6.6.6-.3.6-.6M995.8 310c0-.3-.3-.6-.6-.6s-.6.3-.6.6.3.6.6.6.6-.3.6-.6"/></g><path class="st70" d="M976.6 284.1H997V330h-20.4zM997 284.1h6.3V330H997z"/><path class="st0" d="M992.4 308.1h2.9v.3h-2.9z"/><path class="st70" d="M992.4 308.1h2.9v.3h-2.9z"/><path class="st71" d="M976.3 283.9h27.1V330h-27.1z"/><g><path class="st70" d="M1060.8 501.5l7.1.2 5.7.1 4.6.2 15.9.8 254.6 4.1"/></g><path class="st70" d="M829.7 364.7v45.6"/><path class="st0" d="M825.6 364.4h.9v45.8h-.9z"/><path class="st70" d="M825.6 364.4h.9v45.8h-.9z"/><path class="st0" d="M825.6 364.4h.9v1.7h-.9z"/><path class="st70" d="M825.6 364.4h.9v1.7h-.9z"/><path class="st0" d="M825.6 408.5h.9v1.7h-.9z"/><path class="st70" d="M825.6 408.5h.9v1.7h-.9zM827.4 388.4h-.9M827.4 388.8h-.9"/><g><path class="st0" d="M827.4 388.6v.2c.1 0 .2-.1.2-.2s-.1-.2-.2-.2v.2z"/><path class="st70" d="M827.4 388.8c.1 0 .2-.1.2-.2s-.1-.2-.2-.2M826.5 388.8v-.4"/><path class="st0" d="M827.4 388.6v-.2c-.1 0-.2.1-.2.2s.1.2.2.2v-.2z"/><path class="st70" d="M827.4 388.4c-.1 0-.2.1-.2.2s.1.2.2.2M824.7 388.4h.9M824.7 388.8h.9"/><path class="st0" d="M824.7 388.6v-.2c-.1 0-.2.1-.2.2s.1.2.2.2v-.2z"/><path class="st70" d="M824.7 388.4c-.1 0-.2.1-.2.2s.1.2.2.2M825.6 388.8v-.4"/><path class="st0" d="M824.7 388.6v.2c.1 0 .2-.1.2-.2s-.1-.2-.2-.2v.2z"/><path class="st70" d="M824.7 388.8c.1 0 .2-.1.2-.2s-.1-.2-.2-.2"/><path class="st72" d="M826.6 364.4v.2h3.1v-1h-.3v-.1h.3v1.2h-3.1v-.3h.2-1.2v-.9h.3v.1h-.3v.7h1.2v.1z"/><path class="st71" d="M826.6 364.4v.2h3.1v-1h-.3v-.1h.3v1.2h-3.1v-.3h.2-1.2v-.9h.3v.1h-.3v.7h1.2v.1z"/><path class="st70" d="M980.8 364.7v45.6"/><path class="st0" d="M984.6 364.4h.9v45.8h-.9z"/><path class="st70" d="M984.6 364.4h.9v45.8h-.9z"/><path class="st0" d="M984.6 364.4h.9v1.7h-.9z"/><path class="st70" d="M984.6 364.4h.9v1.7h-.9z"/><path class="st0" d="M984.6 408.5h.9v1.7h-.9z"/><path class="st70" d="M984.6 408.5h.9v1.7h-.9zM983.7 388.4h.9M983.7 388.8h.9"/><path class="st0" d="M983.7 388.6v-.2c-.1 0-.2.1-.2.2s.1.2.2.2v-.2z"/><path class="st70" d="M983.7 388.4c-.1 0-.2.1-.2.2s.1.2.2.2M984.6 388.8v-.4"/><path class="st0" d="M983.7 388.6v.2c.1 0 .2-.1.2-.2s-.1-.2-.2-.2v.2z"/><path class="st70" d="M983.7 388.8c.1 0 .2-.1.2-.2s-.1-.2-.2-.2M986.4 388.4h-.9M986.4 388.8h-.9"/><path class="st0" d="M986.4 388.6v.2c.1 0 .2-.1.2-.2s-.1-.2-.2-.2v.2z"/><path class="st70" d="M986.4 388.8c.1 0 .2-.1.2-.2s-.1-.2-.2-.2M985.5 388.8v-.4"/><path class="st0" d="M986.4 388.6v-.2c-.1 0-.2.1-.2.2s.1.2.2.2v-.2z"/><path class="st70" d="M986.4 388.4c-.1 0-.2.1-.2.2s.1.2.2.2"/><path class="st72" d="M984.5 364.4v.2h-3.6v-1h.3v-.1h-.4v1.2h3.7v-.3h-.2 1.2v-.9h-.3v.1h.3v.7h-1.3v.1z"/><path class="st71" d="M984.5 364.4v.2h-3.6v-1h.3v-.1h-.4v1.2h3.7v-.3h-.2 1.2v-.9h-.3v.1h.3v.7h-1.3v.1z"/><path class="st70" d="M941.2 212.8h12.4v54.5h-12.4z"/><path class="st0" d="M775.9 245.7c0-.3-.3-.6-.6-.6s-.6.3-.6.6.3.6.6.6c.4 0 .6-.3.6-.6"/><path class="st71" d="M775.9 245.7c0-.3-.3-.6-.6-.6s-.6.3-.6.6.3.6.6.6c.4 0 .6-.3.6-.6"/><path class="st0" d="M775.9 247.4c0-.3-.3-.6-.6-.6s-.6.3-.6.6.3.6.6.6c.4 0 .6-.2.6-.6"/><path class="st71" d="M775.9 247.4c0-.3-.3-.6-.6-.6s-.6.3-.6.6.3.6.6.6c.4 0 .6-.2.6-.6"/><path class="st70" d="M757.1 221.7h19.6v45.6h-19.6z"/><path class="st0" d="M772.6 245.5h2.9v.4h-2.9z"/><path class="st70" d="M772.6 245.5h2.9v.4h-2.9z"/><path class="st70" d="M756.5 221.1h20.9v46.3h-20.9zM797.2 222.2h31.3v29.3h-31.3z"/><path class="st70" d="M798.8 223.8H827V250h-28.2zM563.5 365.1h31.6v29.3h-31.6z"/><path class="st70" d="M565 366.7h28.7V393H565zM259 275.4V330M955.8 410.3v-50.2M854.8 410.3v-50.2"/><path class="st71" d="M446.3 351.5h235.9v.8H446.3z"/><path class="st0" d="M172.3 409.2h3.4v-10.5l-1.2-5.3 1.2-3v-2h-3.4z"/><path class="st71" d="M172.3 409.2h3.4v-10.5l-1.2-5.3 1.2-3v-2h-3.4z"/><path class="st0" d="M177.1 393.4l-1.2 5.3v10.5h3.5v-1.3l-1.2-3 1.2-5.3v-11.2h-3.5v2z"/><path class="st71" d="M177.1 393.4l-1.2 5.3v10.5h3.5v-1.3l-1.2-3 1.2-5.3v-11.2h-3.5v2z"/><path class="st0" d="M181.9 393.4l1.2-3v-2h-3.5v11.2l1.2 5.3-1.2 3v1.3h3.5v-10.5z"/><path class="st71" d="M181.9 393.4l1.2-3v-2h-3.5v11.2l1.2 5.3-1.2 3v1.3h3.5v-10.5z"/><path class="st0" d="M184.5 393.4l-1.2 5.3v10.5h3.5v-1.3l-1.2-3 1.2-5.3v-11.2h-3.5v2z"/><path class="st71" d="M184.5 393.4l-1.2 5.3v10.5h3.5v-1.3l-1.2-3 1.2-5.3v-11.2h-3.5v2z"/><path class="st0" d="M172 387.5h44.6v.8H172z"/><path class="st71" d="M172 387.5h44.6v.8H172z"/><path class="st0" d="M191.9 393.4l-1.2 5.3v10.5h3.5v-1.3l-1.2-3 1.2-5.3v-11.2h-3.5v2z"/><path class="st71" d="M191.9 393.4l-1.2 5.3v10.5h3.5v-1.3l-1.2-3 1.2-5.3v-11.2h-3.5v2z"/><path class="st0" d="M199.3 393.4l-1.2 5.3v10.5h3.5v-1.3l-1.2-3 1.2-5.3v-11.2h-3.5v2z"/><path class="st71" d="M199.3 393.4l-1.2 5.3v10.5h3.5v-1.3l-1.2-3 1.2-5.3v-11.2h-3.5v2z"/><path class="st0" d="M206.7 393.4l-1.2 5.3v10.5h3.5v-1.3l-1.2-3 1.2-5.3v-11.2h-3.5v2z"/><path class="st71" d="M206.7 393.4l-1.2 5.3v10.5h3.5v-1.3l-1.2-3 1.2-5.3v-11.2h-3.5v2z"/><path class="st0" d="M214 393.4l-1.2 5.3v10.5h3.5v-20.8h-3.5v2z"/><path class="st71" d="M214 393.4l-1.2 5.3v10.5h3.5v-20.8h-3.5v2z"/><path class="st0" d="M189.3 393.4l1.2-3v-2H187v11.2l1.2 5.3-1.2 3v1.3h3.5v-10.5z"/><path class="st71" d="M189.3 393.4l1.2-3v-2H187v11.2l1.2 5.3-1.2 3v1.3h3.5v-10.5z"/><path class="st0" d="M196.6 393.4l1.2-3v-2h-3.4v11.2l1.2 5.3-1.2 3v1.3h3.4v-10.5z"/><path class="st71" d="M196.6 393.4l1.2-3v-2h-3.4v11.2l1.2 5.3-1.2 3v1.3h3.4v-10.5z"/><path class="st0" d="M204.1 393.4l1.2-3v-2h-3.5v11.2l1.2 5.3-1.2 3v1.3h3.5v-10.5z"/><path class="st71" d="M204.1 393.4l1.2-3v-2h-3.5v11.2l1.2 5.3-1.2 3v1.3h3.5v-10.5z"/><path class="st0" d="M211.4 393.4l1.2-3v-2h-3.5v11.2l1.2 5.3-1.2 3v1.3h3.5v-10.5z"/><path class="st71" d="M211.4 393.4l1.2-3v-2h-3.5v11.2l1.2 5.3-1.2 3v1.3h3.5v-10.5z"/><path class="st70" d="M172 409.7h44.7M171.4 267.3H212M214.1 267.3h101.5M319.9 267.3h111.2M435.4 267.3h45.5M483 267.3h39.8M528.4 267.3h44.8M575.3 267.3h39.8M620.7 267.3h45.5M668.3 267.3h39.8M725.5 267.3h117.8M847.6 267.3h46.1M895.9 267.3h39.7M941.2 267.3h63.5M1006.9 267.3h39.8M172 330h40M214.1 330h101.5M319.9 330h111.2M435.4 330h45.5M483 330h39.8M528.4 330h44.8M575.3 330h39.8M620.7 330h45.5M668.3 330h39.8M725.5 330h75.8M803.5 330h39.8M848.9 330h44.8M895.9 330h39.7M941.2 330h63.5M1006.9 330h39.8M226.1 410.3H442M446.3 410.3h53M502.8 410.3h93.8M600.1 410.3h82.1M684.9 410.3h24.2M741.5 410.3h309.9M725.5 486.3h68.3M797.7 486.3h62.9"/><path class="st0" d="M1055.2 395.2h5.2v139h-5.2z"/><path class="st71" d="M1055.2 395.2h5.2v139h-5.2z"/><path class="st70" d="M528.4 203.8v66.4M620.7 206.5v63.7M848.9 275.4v57.3M941.2 201.4v68.8M941.2 275.4v57.3M620.7 275.4v57.3M528.4 275.4v57.3M167.7 202.5l1.7 3.8M169.4 202.4l-1.7 4M178.8 202.1l1.7 3.8M180.5 202.1l-1.7 3.9"/><path class="st71" d="M167.7 206.4v-3.9l1.7-.1v3.9zM178.8 206v-3.9h1.7v3.8z"/><path class="st70" d="M1055.2 200.3l-1.7 3.8M1053.5 200.2l1.7 4M1044.2 199.6l-1.8 3.7M1042.4 199.5l1.8 3.9"/><path class="st71" d="M1055.2 204.2v-3.9l-1.7-.1v3.9zM1044.2 203.4v-3.8l-1.8-.1v3.8z"/><path class="st70" d="M867.5 486.3h60.8M931.5 486.3H972M972 487v-.7M533.8 486.3h187.3M167.9 486.3l93.4.4H417l20.6-.3 3.3-.1M446.3 486.3l41.1 2h2.1l39.4-2h1.7"/><path class="st71" d="M871.2 152.9h9.4v26.3h-9.4zM870.9 139.3h9.9v.6h-9.9zM867.4 146.4l3.8 6.5h9.4l3.9-6.5zM867.4 146.4l3.5-6.5h10l3.6 6.5z"/><path class="st70" d="M880.9 139.3h7.7v.6h-7.7zM888.6 139.9l3.6 6.5-3.9 6.5M884.5 146.4h7.7M888.3 152.9V179M880.6 152.9h7.7M878.1 179.2H789M789 179.2v20.3M878.4 179.2v15M926.6 178.4l-48 .8M926.6 178.4v13"/><path class="st71" d="M821.5 153.5h15v25.7h-15z"/><path class="st70" d="M821.2 140h15.6v.6h-15.6z"/><path class="st71" d="M817.6 147.1l3.9 6.4h15l3.9-6.4zM817.6 147.1l3.6-6.6h15.6l3.6 6.6z"/><path class="st70" d="M836.8 140h11v.6h-11zM847.9 140.5l3.5 6.6-3.8 6.4M840.4 147.1h11M847.6 153.5v25.7M821.5 153.5h15M836.5 153.5h11.1"/><path class="st71" d="M855.9 153.5h14.9v25.7h-14.9z"/><path class="st0" d="M855.6 140h15.6v.6h-15.6z"/><path class="st70" d="M855.6 140h15.6v.6h-15.6z"/><path class="st0" d="M852 147.1l4 6.4h14.8l4-6.4z"/><path class="st71" d="M852 147.1l4 6.4h14.8l4-6.4z"/><path class="st0" d="M852 147.1l3.6-6.6h15.6l3.6 6.6z"/><path class="st71" d="M852 147.1l3.6-6.6h15.6l3.6 6.6z"/></g></svg>