<?xml version="1.0" encoding="utf-8"?>
<!-- Generator: Adobe Illustrator 19.1.0, SVG Export Plug-In . SVG Version: 6.00 Build 0)  -->
<svg version="1.1" id="Ebene_1" xmlns="http://www.w3.org/2000/svg" xmlns:xlink="http://www.w3.org/1999/xlink" x="0px" y="0px"
	 viewBox="0 0 1280 720" style="enable-background:new 0 0 1280 720;" xml:space="preserve">
<style type="text/css">
	.st0{clip-path:url(#SVGID_2_);fill-rule:evenodd;clip-rule:evenodd;fill:#E8E8E8;}
	
		.st1{clip-path:url(#SVGID_2_);fill:none;stroke:#8C8C8C;stroke-width:0.144;stroke-linecap:round;stroke-linejoin:round;stroke-miterlimit:10;}
	
		.st2{clip-path:url(#SVGID_2_);fill:none;stroke:#9F9F9F;stroke-width:7.200000e-02;stroke-linecap:round;stroke-linejoin:round;stroke-miterlimit:10;}
	
		.st3{clip-path:url(#SVGID_2_);fill:none;stroke:#000000;stroke-width:0.144;stroke-linecap:round;stroke-linejoin:round;stroke-miterlimit:10;}
	.st4{clip-path:url(#SVGID_2_);fill-rule:evenodd;clip-rule:evenodd;fill:#FFFFFF;}
	.st5{clip-path:url(#SVGID_2_);fill-rule:evenodd;clip-rule:evenodd;fill:#212121;}
	
		.st6{clip-path:url(#SVGID_2_);fill:none;stroke:#000000;stroke-width:0.216;stroke-linecap:round;stroke-linejoin:round;stroke-miterlimit:10;}
	.st7{clip-path:url(#SVGID_2_);fill-rule:evenodd;clip-rule:evenodd;fill:#777777;}
	.st8{clip-path:url(#SVGID_2_);fill-rule:evenodd;clip-rule:evenodd;}
	
		.st9{clip-path:url(#SVGID_2_);fill:none;stroke:#000000;stroke-width:7.200000e-02;stroke-linecap:round;stroke-linejoin:round;stroke-miterlimit:10;}
	.st10{fill-rule:evenodd;clip-rule:evenodd;fill:#FFFFFF;}
	.st11{fill:none;stroke:#000000;stroke-width:0.144;stroke-linecap:round;stroke-linejoin:round;stroke-miterlimit:10;}
	.st12{fill-rule:evenodd;clip-rule:evenodd;fill:#212121;}
	.st13{fill:none;stroke:#000000;stroke-width:0.216;stroke-linecap:round;stroke-linejoin:round;stroke-miterlimit:10;}
	.st14{fill-rule:evenodd;clip-rule:evenodd;fill:none;}
	.st15{fill:none;}
	.st16{clip-path:url(#SVGID_6_);}
	.st17{fill-rule:evenodd;clip-rule:evenodd;fill:#E8E8E8;}
	.st18{fill:#8C8C8C;}
	.st19{fill:#9F9F9F;}
	.st20{fill-rule:evenodd;clip-rule:evenodd;fill:#777777;}
	.st21{fill:none;stroke:#8C8C8C;stroke-width:0.144;stroke-linecap:round;stroke-linejoin:round;stroke-miterlimit:10;}
	.st22{fill:none;stroke:#9F9F9F;stroke-width:7.200000e-02;stroke-linecap:round;stroke-linejoin:round;stroke-miterlimit:10;}
	.st23{fill:#FFFFFF;}
	.st24{fill:none;stroke:#000000;stroke-width:0.25;stroke-linecap:round;stroke-linejoin:round;stroke-miterlimit:10;}
</style>
<path class="st17" d="M571.6,291.9v-14.1h-16.6v14.1H571.6 M717.5,305v58.5H495.9v-39h-69V206.9h216.1v21.7h-51.1V305h51.1v0H717.5"
	/>
<path class="st21" d="M571.6,291.9v-14.1h-16.6v14.1H571.6 M717.5,305v58.5H495.9v-39h-69V206.9h216.1v21.7h-51.1V305h51.1v0H717.5"
	/>
<polyline class="st17" points="864.7,363.4 864.7,324.7 933.5,324.7 933.5,206.8 717.6,206.8 717.6,228.7 768.7,228.7 768.7,305.1 
	717.6,305.1 717.6,324.7 719.3,324.7 719.3,363.4 864.7,363.4 "/>
<polygon class="st21" points="864.7,363.4 864.7,324.7 933.5,324.7 933.5,206.8 717.6,206.8 717.6,228.7 768.7,228.7 768.7,305.1 
	717.6,305.1 717.6,324.7 719.3,324.7 719.3,363.4 "/>
<path class="st11" d="M335.7,269.7L335.7,269.7c0-2.5,0.1-5,0.4-7.5c0.3-2.5,0.7-5,1.3-7.4c0.6-2.4,1.3-4.9,2.1-7.2
	c0.8-2.4,1.8-4.7,2.9-6.9l-52.2-37.9c-13.6,19.5-20.9,42.7-20.9,66.4v99h-4.1V269c0.1-66.3,53.8-120.1,120.2-120.2h257.5v49.6h-4.1
	V153H385.4c-36.2,0.1-70.3,17-92.2,45.7l55,40c-1.3,2.2-2.4,4.4-3.4,6.8c-1,2.3-1.8,4.7-2.5,7.1c-0.7,2.4-1.3,4.9-1.7,7.4
	c-0.4,2.5-0.6,5-0.7,7.5c0,0.2,0,0.4,0,0.6c0,0.2,0,0.4,0,0.6c0,0.2,0,0.4,0,0.6c0,0.2,0,0.4,0,0.6v151.4h304.8V372h4.1v53.4H335.7
	v-4.1V269.7L335.7,269.7"/>
<line class="st11" x1="663.7" y1="236.8" x2="663.7" y2="275.9"/>
<line class="st11" x1="642.9" y1="258.7" x2="663.7" y2="258.7"/>
<line class="st11" x1="696.8" y1="274.7" x2="717.6" y2="274.7"/>
<line class="st11" x1="696.8" y1="270" x2="717.6" y2="270"/>
<line class="st11" x1="696.8" y1="265.5" x2="717.6" y2="265.5"/>
<line class="st11" x1="696.8" y1="261" x2="717.6" y2="261"/>
<line class="st11" x1="696.8" y1="256.5" x2="717.6" y2="256.5"/>
<line class="st11" x1="696.8" y1="242.7" x2="717.6" y2="242.7"/>
<line class="st11" x1="696.8" y1="244.1" x2="717.6" y2="253.1"/>
<line class="st11" x1="696.8" y1="238.2" x2="717.6" y2="238.2"/>
<line class="st11" x1="642.9" y1="263.2" x2="663.7" y2="263.2"/>
<line class="st11" x1="642.9" y1="267.7" x2="663.7" y2="267.7"/>
<line class="st11" x1="696.8" y1="251.7" x2="714.5" y2="251.7"/>
<line class="st11" x1="596.3" y1="228.7" x2="596.3" y2="235.4"/>
<line class="st11" x1="596.6" y1="228.7" x2="598" y2="235.4"/>
<line class="st11" x1="598.9" y1="228.7" x2="598.9" y2="235.4"/>
<line class="st11" x1="600.6" y1="228.7" x2="600.6" y2="235.4"/>
<line class="st11" x1="602" y1="228.7" x2="601.4" y2="235.4"/>
<line class="st11" x1="603.6" y1="228.7" x2="603.6" y2="235.4"/>
<line class="st11" x1="605.3" y1="228.7" x2="605.3" y2="235.4"/>
<line class="st11" x1="607" y1="228.7" x2="607" y2="235.4"/>
<line class="st11" x1="764.2" y1="228.7" x2="764.2" y2="235.4"/>
<line class="st11" x1="763.9" y1="228.7" x2="762.5" y2="235.4"/>
<line class="st11" x1="761.7" y1="228.7" x2="761.7" y2="235.4"/>
<line class="st11" x1="760" y1="228.7" x2="760" y2="235.4"/>
<line class="st11" x1="758.3" y1="228.7" x2="758.9" y2="235.4"/>
<line class="st11" x1="756.6" y1="228.7" x2="756.6" y2="235.4"/>
<line class="st11" x1="754.9" y1="228.7" x2="754.9" y2="235.4"/>
<line class="st11" x1="753.5" y1="228.7" x2="753.5" y2="235.4"/>
<line class="st11" x1="642.9" y1="272.2" x2="663.7" y2="272.2"/>
<line class="st11" x1="642.9" y1="254" x2="663.7" y2="254"/>
<line class="st11" x1="663.7" y1="251.7" x2="663.7" y2="251.7"/>
<polyline class="st11" points="642.9,249.5 658.4,249.5 663.7,249.5 "/>
<line class="st11" x1="714.5" y1="251.7" x2="717.6" y2="251.7"/>
<line class="st11" x1="696.8" y1="247.2" x2="704.1" y2="247.2"/>
<line class="st11" x1="704.1" y1="247.2" x2="717.6" y2="247.2"/>
<line class="st11" x1="642.9" y1="240.5" x2="663.7" y2="240.5"/>
<polyline class="st11" points="642.9,245 646,245 663.7,245 "/>
<path class="st12" d="M727.1,266.5v-22.9h-6.2v22.9H727.1 M720.8,267.3v4.6h44.4v-4.6H720.8 M639.6,243.5h-6.2v22.9h6.2V243.5
	 M595.2,267.3v4.6h44.4v-4.6H595.2 M720.8,242.7h7v23.8h37.4v-23.5h-15.6v-14.3h2.1v12.3h13.5v-12.3h3.3v57h-3.3v-12.8h-44.4v30.2
	h47.7v2.1h-47.7v58.5h9.9v8.5h-26.9v-8.5h13.6V305h-76.4v0h-49.2v-2.1h47.7v-30.2h-44.4v12.8h-3.3v-57h3.3v12.3h13.5v-12.3h2.1v14.3
	h-15.6v23.5h37.4v-23.8h7v-12h-14.3v-2.1h14.3h3.3v72.3h74.6v-72.3h17.6v2.1h-14.3V242.7"/>
<path class="st13" d="M727.1,266.5v-22.9h-6.2v22.9H727.1 M720.8,267.3v4.6h44.4v-4.6H720.8 M639.6,243.5h-6.2v22.9h6.2V243.5
	 M595.2,267.3v4.6h44.4v-4.6H595.2 M720.8,242.7h7v23.8h37.4v-23.5h-15.6v-14.3h2.1v12.3h13.5v-12.3h3.3v57h-3.3v-12.8h-44.4v30.2
	h47.7v2.1h-47.7v58.5h9.9v8.5h-26.9v-8.5h13.6V305h-76.4v0h-49.2v-2.1h47.7v-30.2h-44.4v12.8h-3.3v-57h3.3v12.3h13.5v-12.3h2.1v14.3
	h-15.6v23.5h37.4v-23.8h7v-12h-14.3v-2.1h14.3h3.3v72.3h74.6v-72.3h17.6v2.1h-14.3V242.7"/>
<polyline class="st12" points="673,236.8 673,240.2 667.1,240.2 667.1,272.5 693.5,272.5 693.5,236.8 696.8,236.8 696.8,275.9 
	663.7,275.9 663.7,236.8 673,236.8 "/>
<polygon class="st13" points="673,236.8 673,240.2 667.1,240.2 667.1,272.5 693.5,272.5 693.5,236.8 696.8,236.8 696.8,275.9 
	663.7,275.9 663.7,236.8 "/>
<polyline class="st12" points="778.2,371.9 778.2,363.4 788.9,363.4 788.9,284.3 815.6,284.3 815.6,286.3 791.7,286.3 791.7,363.4 
	804.6,363.4 804.6,371.9 778.2,371.9 "/>
<polygon class="st13" points="778.2,371.9 778.2,363.4 788.9,363.4 788.9,284.3 815.6,284.3 815.6,286.3 791.7,286.3 791.7,363.4 
	804.6,363.4 804.6,371.9 "/>
<polyline class="st12" points="875.4,333.1 864.7,333.1 864.7,324.7 875.4,324.7 875.4,333.1 "/>
<rect x="864.7" y="324.7" class="st13" width="10.7" height="8.4"/>
<polyline class="st12" points="884.1,206.8 843.1,206.8 843.1,198.4 884.1,198.4 884.1,206.8 "/>
<rect x="843.1" y="198.4" class="st13" width="41" height="8.4"/>
<polyline class="st12" points="736.1,206.8 695.4,206.8 695.4,198.4 736.1,198.4 736.1,206.8 "/>
<rect x="695.4" y="198.4" class="st13" width="40.7" height="8.4"/>
<polyline class="st12" points="656.4,363.4 656.4,371.9 629.7,371.9 629.7,363.4 641,363.4 641,322.2 643.5,322.2 643.5,363.4 
	656.4,363.4 "/>
<polygon class="st13" points="656.4,363.4 656.4,371.9 629.7,371.9 629.7,363.4 641,363.4 641,322.2 643.5,322.2 643.5,363.4 "/>
<polyline class="st12" points="508.5,371.9 490.8,371.9 490.8,363.4 508.5,363.4 508.5,371.9 "/>
<rect x="490.8" y="363.4" class="st13" width="17.7" height="8.4"/>
<polyline class="st12" points="418.4,218 418.4,198.4 446.4,198.4 446.4,206.8 426.8,206.8 426.8,218 418.4,218 "/>
<polygon class="st13" points="418.4,218 418.4,198.4 446.4,198.4 446.4,206.8 426.8,206.8 426.8,218 "/>
<polyline class="st12" points="594.1,206.8 547.5,206.8 547.5,198.4 594.1,198.4 594.1,206.8 "/>
<rect x="547.5" y="198.4" class="st13" width="46.6" height="8.4"/>
<polyline class="st12" points="426.8,261.8 426.8,324.7 437.7,324.7 437.7,333.1 418.4,333.1 418.4,247.2 426.8,247.2 426.8,259.3 
	495.8,259.3 495.8,223.9 498.4,223.9 498.4,295.2 495.8,295.2 495.8,261.8 426.8,261.8 "/>
<polygon class="st13" points="426.8,261.8 426.8,324.7 437.7,324.7 437.7,333.1 418.4,333.1 418.4,247.2 426.8,247.2 426.8,259.3 
	495.8,259.3 495.8,223.9 498.4,223.9 498.4,295.2 495.8,295.2 495.8,261.8 "/>
<polyline class="st12" points="517.2,206.8 476.5,206.8 476.5,198.4 517.2,198.4 517.2,206.8 "/>
<rect x="476.5" y="198.4" class="st13" width="40.7" height="8.4"/>
<polyline class="st12" points="495.8,333.1 485.2,333.1 485.2,324.7 495.8,324.7 495.8,333.1 "/>
<rect x="485.2" y="324.7" class="st13" width="10.7" height="8.4"/>
<polyline class="st12" points="568.8,291.9 549.2,291.9 549.2,288.8 551.4,288.8 551.4,289.9 568.8,289.9 568.8,279.8 551.4,279.8 
	551.4,281.2 549.2,281.2 549.2,277.8 571.6,277.8 571.6,363.4 582.3,363.4 582.3,371.9 555.9,371.9 555.9,363.4 568.8,363.4 
	568.8,291.9 "/>
<polygon class="st13" points="568.8,291.9 549.2,291.9 549.2,288.8 551.4,288.8 551.4,289.9 568.8,289.9 568.8,279.8 551.4,279.8 
	551.4,281.2 549.2,281.2 549.2,277.8 571.6,277.8 571.6,363.4 582.3,363.4 582.3,371.9 555.9,371.9 555.9,363.4 568.8,363.4 "/>
<polyline class="st12" points="665.1,206.8 624.4,206.8 624.4,198.4 665.1,198.4 665.1,206.8 "/>
<rect x="624.4" y="198.4" class="st13" width="40.7" height="8.4"/>
<polyline class="st12" points="813.1,206.8 766.2,206.8 766.2,198.4 813.1,198.4 813.1,206.8 "/>
<rect x="766.2" y="198.4" class="st13" width="46.9" height="8.4"/>
<polyline class="st12" points="922.8,333.1 922.8,324.7 933.5,324.7 933.5,261.8 864.7,261.8 864.7,295.2 862.2,295.2 862.2,223.9 
	864.7,223.9 864.7,259.3 933.5,259.3 933.5,206.8 914.1,206.8 914.1,198.4 937.7,198.4 937.7,206.8 937.4,206.8 937.4,333.1 
	937.4,371.9 933.5,371.9 933.5,333.1 922.8,333.1 "/>
<polygon class="st13" points="922.8,333.1 922.8,324.7 933.5,324.7 933.5,261.8 864.7,261.8 864.7,295.2 862.2,295.2 862.2,223.9 
	864.7,223.9 864.7,259.3 933.5,259.3 933.5,206.8 914.1,206.8 914.1,198.4 937.7,198.4 937.7,206.8 937.4,206.8 937.4,333.1 
	937.4,371.9 933.5,371.9 933.5,333.1 "/>
<polyline class="st12" points="869.5,371.9 852.1,371.9 852.1,363.4 869.5,363.4 869.5,371.9 "/>
<rect x="852.1" y="363.4" class="st13" width="17.4" height="8.4"/>
<rect x="418.4" y="218" class="st10" width="8.4" height="29.2"/>
<rect x="418.4" y="218" class="st11" width="8.4" height="29.2"/>
<rect x="446.4" y="198.4" class="st10" width="30" height="8.4"/>
<rect x="446.4" y="198.4" class="st11" width="30" height="8.4"/>
<rect x="517.2" y="198.4" class="st10" width="30.3" height="8.4"/>
<rect x="517.2" y="198.4" class="st11" width="30.3" height="8.4"/>
<rect x="594.1" y="198.4" class="st10" width="30.3" height="8.4"/>
<rect x="594.1" y="198.4" class="st11" width="30.3" height="8.4"/>
<rect x="665.1" y="198.4" class="st10" width="30.3" height="8.4"/>
<rect x="665.1" y="198.4" class="st11" width="30.3" height="8.4"/>
<rect x="736.1" y="198.4" class="st10" width="30" height="8.4"/>
<rect x="736.1" y="198.4" class="st11" width="30" height="8.4"/>
<rect x="813.1" y="198.4" class="st10" width="30" height="8.4"/>
<rect x="813.1" y="198.4" class="st11" width="30" height="8.4"/>
<rect x="884.1" y="198.4" class="st10" width="30" height="8.4"/>
<rect x="884.1" y="198.4" class="st11" width="30" height="8.4"/>
<rect x="437.7" y="324.7" class="st10" width="47.4" height="8.4"/>
<rect x="437.7" y="324.7" class="st11" width="47.4" height="8.4"/>
<rect x="508.5" y="363.4" class="st10" width="47.4" height="8.4"/>
<rect x="508.5" y="363.4" class="st11" width="47.4" height="8.4"/>
<rect x="490.8" y="333.1" class="st10" width="3.9" height="30.3"/>
<rect x="490.8" y="333.1" class="st11" width="3.9" height="30.3"/>
<rect x="582.3" y="363.4" class="st10" width="47.4" height="8.4"/>
<rect x="582.3" y="363.4" class="st11" width="47.4" height="8.4"/>
<rect x="730.8" y="363.4" class="st10" width="47.4" height="8.4"/>
<rect x="730.8" y="363.4" class="st11" width="47.4" height="8.4"/>
<rect x="804.6" y="363.4" class="st10" width="47.4" height="8.4"/>
<rect x="804.6" y="363.4" class="st11" width="47.4" height="8.4"/>
<rect x="865.8" y="333.1" class="st10" width="3.6" height="30.3"/>
<rect x="865.8" y="333.1" class="st11" width="3.6" height="30.3"/>
<rect x="875.4" y="324.7" class="st10" width="47.4" height="8.4"/>
<rect x="875.4" y="324.7" class="st11" width="47.4" height="8.4"/>
<line class="st11" x1="485.2" y1="329.2" x2="437.7" y2="329.2"/>
<line class="st11" x1="423.4" y1="247.2" x2="423.4" y2="218"/>
<line class="st11" x1="446.4" y1="203.4" x2="476.5" y2="203.4"/>
<line class="st11" x1="517.2" y1="203.4" x2="547.5" y2="203.4"/>
<line class="st11" x1="594.1" y1="203.4" x2="624.4" y2="203.4"/>
<line class="st11" x1="665.1" y1="203.4" x2="695.4" y2="203.4"/>
<line class="st11" x1="736.1" y1="203.4" x2="766.2" y2="203.4"/>
<line class="st11" x1="813.1" y1="203.4" x2="843.1" y2="203.4"/>
<line class="st11" x1="884.1" y1="203.4" x2="914.1" y2="203.4"/>
<line class="st11" x1="508.5" y1="368.2" x2="555.9" y2="368.2"/>
<line class="st11" x1="582.3" y1="368.2" x2="629.7" y2="368.2"/>
<line class="st11" x1="730.8" y1="368.2" x2="778.2" y2="368.2"/>
<line class="st11" x1="804.6" y1="368.2" x2="852.1" y2="368.2"/>
<line class="st11" x1="875.4" y1="329.2" x2="922.8" y2="329.2"/>
<rect x="864.7" y="333.1" class="st10" width="1.1" height="30.3"/>
<rect x="864.7" y="333.1" class="st11" width="1.1" height="30.3"/>
<rect x="865" y="284" class="st10" width="1.1" height="29.8"/>
<rect x="865" y="284" class="st11" width="1.1" height="29.8"/>
<rect x="494.7" y="333.1" class="st10" width="1.1" height="30.3"/>
<rect x="494.7" y="333.1" class="st11" width="1.1" height="30.3"/>
<rect x="494.4" y="284" class="st10" width="1.1" height="29.8"/>
<rect x="494.4" y="284" class="st11" width="1.1" height="29.8"/>
<rect x="759.7" y="305.3" class="st10" width="20.8" height="1.1"/>
<rect x="759.7" y="305.3" class="st11" width="20.8" height="1.1"/>
<rect x="580.1" y="305.3" class="st10" width="20.8" height="1.1"/>
<rect x="580.1" y="305.3" class="st11" width="20.8" height="1.1"/>
<polyline class="st10" points="557.9,312.9 568.8,312.9 568.8,363.4 557.9,363.4 557.9,312.9 "/>
<rect x="557.9" y="312.9" class="st11" width="10.9" height="50.5"/>
<polyline class="st10" points="557.9,291.9 568.8,291.9 568.8,312.9 557.9,312.9 557.9,291.9 "/>
<rect x="557.9" y="291.9" class="st11" width="10.9" height="21.1"/>
<polyline class="st10" points="791.7,363.4 802.4,363.4 802.4,297.8 815.6,297.8 815.6,286.3 791.7,286.3 791.7,363.4 "/>
<polygon class="st11" points="791.7,363.4 802.4,363.4 802.4,297.8 815.6,297.8 815.6,286.3 791.7,286.3 "/>
<polyline class="st10" points="791.7,363.4 802.4,363.4 802.4,342.7 791.7,342.7 791.7,363.4 "/>
<rect x="791.7" y="342.7" class="st11" width="10.7" height="20.8"/>
<polyline class="st10" points="559.8,344.4 566.3,344.4 566.3,351.1 559.8,351.1 559.8,344.4 "/>
<rect x="559.8" y="344.4" class="st11" width="6.5" height="6.7"/>
<polyline class="st10" points="794,316 800.7,316 800.7,309.5 794,309.5 794,316 "/>
<rect x="794" y="309.5" class="st11" width="6.7" height="6.5"/>
<path class="st10" d="M801,335.1c0-0.8-0.6-1.4-1.4-1.4c-0.8,0-1.4,0.6-1.4,1.4s0.6,1.4,1.4,1.4C800.3,336.5,801,335.9,801,335.1"/>
<path class="st11" d="M801,335.1c0-0.8-0.6-1.4-1.4-1.4c-0.8,0-1.4,0.6-1.4,1.4s0.6,1.4,1.4,1.4C800.3,336.5,801,335.9,801,335.1"/>
<path class="st10" d="M801,330.6c0-0.8-0.6-1.4-1.4-1.4c-0.8,0-1.4,0.6-1.4,1.4s0.6,1.4,1.4,1.4C800.3,332,801,331.4,801,330.6"/>
<path class="st11" d="M801,330.6c0-0.8-0.6-1.4-1.4-1.4c-0.8,0-1.4,0.6-1.4,1.4s0.6,1.4,1.4,1.4C800.3,332,801,331.4,801,330.6"/>
<path class="st10" d="M795.9,330.6c0-0.8-0.6-1.4-1.4-1.4s-1.4,0.6-1.4,1.4s0.6,1.4,1.4,1.4S795.9,331.4,795.9,330.6"/>
<path class="st11" d="M795.9,330.6c0-0.8-0.6-1.4-1.4-1.4s-1.4,0.6-1.4,1.4s0.6,1.4,1.4,1.4S795.9,331.4,795.9,330.6"/>
<path class="st10" d="M795.9,335.1c0-0.8-0.6-1.4-1.4-1.4s-1.4,0.6-1.4,1.4s0.6,1.4,1.4,1.4S795.9,335.9,795.9,335.1"/>
<path class="st11" d="M795.9,335.1c0-0.8-0.6-1.4-1.4-1.4s-1.4,0.6-1.4,1.4s0.6,1.4,1.4,1.4S795.9,335.9,795.9,335.1"/>
<polyline class="st10" points="840.6,354.7 840.6,347.4 848.1,347.4 848.1,354.7 840.6,354.7 "/>
<rect x="840.6" y="347.4" class="st11" width="7.6" height="7.3"/>
<polyline class="st10" points="840.6,344.9 840.6,337.3 848.1,337.3 848.1,344.9 840.6,344.9 "/>
<rect x="840.6" y="337.3" class="st11" width="7.6" height="7.6"/>
<polyline class="st10" points="840.6,334.8 840.6,327.5 848.1,327.5 848.1,334.8 840.6,334.8 "/>
<rect x="840.6" y="327.5" class="st11" width="7.6" height="7.3"/>
<polyline class="st10" points="819.8,354.7 819.8,347.4 827.4,347.4 827.4,354.7 819.8,354.7 "/>
<rect x="819.8" y="347.4" class="st11" width="7.6" height="7.3"/>
<polyline class="st10" points="819.8,344.9 819.8,337.3 827.4,337.3 827.4,344.9 819.8,344.9 "/>
<rect x="819.8" y="337.3" class="st11" width="7.6" height="7.6"/>
<polyline class="st10" points="819.8,334.8 819.8,327.5 827.4,327.5 827.4,334.8 819.8,334.8 "/>
<rect x="819.8" y="327.5" class="st11" width="7.6" height="7.3"/>
<polyline class="st10" points="827.4,357.8 827.4,324.7 840.6,324.7 840.6,357.8 827.4,357.8 "/>
<rect x="827.4" y="324.7" class="st11" width="13.2" height="33.1"/>
<polyline class="st10" points="628.1,241.3 628.1,231.2 637.6,231.2 637.6,241.3 628.1,241.3 "/>
<rect x="628.1" y="231.2" class="st11" width="9.5" height="10.1"/>
<polyline class="st10" points="732.5,241.3 732.5,231.2 722.9,231.2 722.9,241.3 732.5,241.3 "/>
<rect x="722.9" y="231.2" class="st11" width="9.5" height="10.1"/>
<polyline class="st11" points="557.9,295.2 535.7,295.2 535.7,274.5 571.6,274.5 571.6,277.8 "/>
<rect x="667.9" y="241.1" class="st10" width="24.7" height="30.6"/>
<rect x="667.9" y="241.1" class="st11" width="24.7" height="30.6"/>
<line class="st11" x1="802.4" y1="297.8" x2="791.7" y2="297.8"/>
<polyline class="st10" points="520,354.7 520,347.4 512.4,347.4 512.4,354.7 520,354.7 "/>
<rect x="512.4" y="347.4" class="st11" width="7.6" height="7.3"/>
<polyline class="st10" points="520,344.9 520,337.3 512.4,337.3 512.4,344.9 520,344.9 "/>
<rect x="512.4" y="337.3" class="st11" width="7.6" height="7.6"/>
<polyline class="st10" points="520,334.8 520,327.5 512.4,327.5 512.4,334.8 520,334.8 "/>
<rect x="512.4" y="327.5" class="st11" width="7.6" height="7.3"/>
<polyline class="st10" points="540.8,354.7 540.8,347.4 533.2,347.4 533.2,354.7 540.8,354.7 "/>
<rect x="533.2" y="347.4" class="st11" width="7.6" height="7.3"/>
<polyline class="st10" points="540.8,344.9 540.8,337.3 533.2,337.3 533.2,344.9 540.8,344.9 "/>
<rect x="533.2" y="337.3" class="st11" width="7.6" height="7.6"/>
<polyline class="st10" points="540.8,334.8 540.8,327.5 533.2,327.5 533.2,334.8 540.8,334.8 "/>
<rect x="533.2" y="327.5" class="st11" width="7.6" height="7.3"/>
<polyline class="st10" points="533.2,357.8 533.2,324.7 520,324.7 520,357.8 533.2,357.8 "/>
<rect x="520" y="324.7" class="st11" width="13.2" height="33.1"/>
<rect x="539.6" y="280.9" class="st10" width="9.5" height="7.9"/>
<rect x="539.6" y="280.9" class="st11" width="9.5" height="7.9"/>
<rect x="549.2" y="281.2" class="st11" width="2.2" height="7.6"/>
<line class="st11" x1="610.7" y1="243" x2="610.7" y2="266.6"/>
<line class="st11" x1="749.6" y1="243" x2="749.6" y2="266.6"/>
<polyline class="st10" points="418.4,332.6 415.8,332.6 415.8,386.5 937.4,386.5 937.4,371.9 933.5,371.9 933.5,333.1 869.5,333.1 
	869.5,371.9 490.8,371.9 490.8,333.1 418.4,333.1 418.4,332.6 "/>
<polygon class="st11" points="418.4,332.6 415.8,332.6 415.8,386.5 937.4,386.5 937.4,371.9 933.5,371.9 933.5,333.1 869.5,333.1 
	869.5,371.9 490.8,371.9 490.8,333.1 418.4,333.1 "/>
<polyline class="st11" points="1146.5,139.7 757.5,126.2 539.9,117.5 530.4,117 304.1,111.9 265.9,110 265.1,279.2 265.1,484.4 
	1108.4,482.8 "/>
<rect x="812.8" y="172.8" class="st11" width="31.2" height="25.5"/>
<line class="st22" x1="932.6" y1="403.9" x2="932.6" y2="386.5"/>
<line class="st22" x1="924.5" y1="403.9" x2="924.5" y2="386.5"/>
<line class="st22" x1="916.1" y1="403.9" x2="916.1" y2="386.5"/>
<line class="st22" x1="907.9" y1="403.9" x2="907.9" y2="386.5"/>
<line class="st22" x1="899.5" y1="403.9" x2="899.5" y2="386.5"/>
<line class="st22" x1="891.4" y1="403.9" x2="891.4" y2="386.5"/>
<line class="st22" x1="883" y1="403.9" x2="883" y2="386.5"/>
<line class="st22" x1="874.8" y1="403.9" x2="874.8" y2="386.5"/>
<line class="st22" x1="866.4" y1="403.9" x2="866.4" y2="386.5"/>
<line class="st22" x1="858.2" y1="403.9" x2="858.2" y2="386.5"/>
<line class="st22" x1="849.8" y1="403.9" x2="849.8" y2="386.5"/>
<line class="st22" x1="841.7" y1="403.9" x2="841.7" y2="386.5"/>
<line class="st22" x1="833.3" y1="403.9" x2="833.3" y2="386.5"/>
<line class="st22" x1="824.8" y1="403.9" x2="824.8" y2="386.5"/>
<line class="st22" x1="816.7" y1="403.9" x2="816.7" y2="386.5"/>
<line class="st22" x1="808.3" y1="403.9" x2="808.3" y2="386.5"/>
<line class="st22" x1="800.1" y1="403.9" x2="800.1" y2="386.5"/>
<line class="st22" x1="791.7" y1="403.9" x2="791.7" y2="386.5"/>
<line class="st22" x1="783.6" y1="403.9" x2="783.6" y2="386.5"/>
<line class="st22" x1="775.2" y1="403.9" x2="775.2" y2="386.5"/>
<line class="st22" x1="767" y1="403.9" x2="767" y2="386.5"/>
<line class="st22" x1="758.6" y1="403.9" x2="758.6" y2="386.5"/>
<line class="st22" x1="750.5" y1="403.9" x2="750.5" y2="386.5"/>
<line class="st22" x1="742" y1="403.9" x2="742" y2="386.5"/>
<line class="st22" x1="733.9" y1="403.9" x2="733.9" y2="386.5"/>
<line class="st22" x1="730.8" y1="399.7" x2="933.5" y2="399.7"/>
<line class="st22" x1="730.8" y1="391.5" x2="933.5" y2="391.5"/>
<rect x="730.8" y="386.5" class="st11" width="202.7" height="17.4"/>
<line class="st22" x1="626.1" y1="403.9" x2="626.1" y2="386.5"/>
<line class="st22" x1="617.7" y1="403.9" x2="617.7" y2="386.5"/>
<line class="st22" x1="617.7" y1="198.4" x2="617.7" y2="165.3"/>
<line class="st22" x1="609.5" y1="403.9" x2="609.5" y2="386.5"/>
<line class="st22" x1="609.5" y1="198.4" x2="609.5" y2="165.3"/>
<line class="st22" x1="601.1" y1="403.9" x2="601.1" y2="386.5"/>
<line class="st22" x1="601.1" y1="198.4" x2="601.1" y2="165.3"/>
<line class="st22" x1="593" y1="403.9" x2="593" y2="386.5"/>
<line class="st22" x1="593" y1="198.4" x2="593" y2="165.3"/>
<line class="st22" x1="584.5" y1="403.9" x2="584.5" y2="386.5"/>
<line class="st22" x1="584.5" y1="198.4" x2="584.5" y2="165.3"/>
<line class="st22" x1="576.4" y1="403.9" x2="576.4" y2="386.5"/>
<line class="st22" x1="576.4" y1="198.4" x2="576.4" y2="165.3"/>
<line class="st22" x1="568" y1="403.9" x2="568" y2="386.5"/>
<line class="st22" x1="568" y1="198.4" x2="568" y2="165.3"/>
<line class="st22" x1="559.8" y1="403.9" x2="559.8" y2="386.5"/>
<line class="st22" x1="559.8" y1="198.4" x2="559.8" y2="165.3"/>
<line class="st22" x1="551.4" y1="403.9" x2="551.4" y2="386.5"/>
<line class="st22" x1="551.4" y1="198.4" x2="551.4" y2="165.3"/>
<line class="st22" x1="543.3" y1="403.9" x2="543.3" y2="386.5"/>
<line class="st22" x1="543.3" y1="198.4" x2="543.3" y2="165.3"/>
<line class="st22" x1="534.9" y1="403.9" x2="534.9" y2="386.5"/>
<line class="st22" x1="534.9" y1="198.4" x2="534.9" y2="165.3"/>
<line class="st22" x1="526.4" y1="403.9" x2="526.4" y2="386.5"/>
<line class="st22" x1="526.4" y1="198.4" x2="526.4" y2="165.3"/>
<line class="st22" x1="518.3" y1="403.9" x2="518.3" y2="386.5"/>
<line class="st22" x1="518.3" y1="198.4" x2="518.3" y2="165.3"/>
<line class="st22" x1="509.9" y1="403.9" x2="509.9" y2="386.5"/>
<line class="st22" x1="509.9" y1="198.4" x2="509.9" y2="165.3"/>
<line class="st22" x1="501.7" y1="403.9" x2="501.7" y2="386.5"/>
<line class="st22" x1="501.7" y1="198.4" x2="501.7" y2="165.3"/>
<line class="st22" x1="493.3" y1="403.9" x2="493.3" y2="386.5"/>
<line class="st22" x1="493.3" y1="198.4" x2="493.3" y2="165.3"/>
<line class="st22" x1="485.2" y1="403.9" x2="485.2" y2="386.5"/>
<line class="st22" x1="485.2" y1="198.4" x2="485.2" y2="165.3"/>
<line class="st22" x1="476.8" y1="403.9" x2="476.8" y2="386.5"/>
<line class="st22" x1="476.8" y1="198.4" x2="476.8" y2="165.3"/>
<line class="st22" x1="468.6" y1="403.9" x2="468.6" y2="386.5"/>
<line class="st22" x1="468.6" y1="198.4" x2="468.6" y2="165.3"/>
<line class="st22" x1="460.2" y1="403.9" x2="460.2" y2="386.5"/>
<line class="st22" x1="460.2" y1="198.4" x2="460.2" y2="165.3"/>
<line class="st22" x1="452.1" y1="403.9" x2="452.1" y2="386.5"/>
<line class="st22" x1="452.1" y1="198.4" x2="452.1" y2="165.3"/>
<line class="st22" x1="443.6" y1="403.9" x2="443.6" y2="386.5"/>
<line class="st22" x1="443.6" y1="198.4" x2="443.6" y2="165.3"/>
<line class="st22" x1="435.5" y1="403.9" x2="435.5" y2="386.5"/>
<line class="st22" x1="435.5" y1="198.4" x2="435.5" y2="165.3"/>
<line class="st22" x1="427.1" y1="403.9" x2="427.1" y2="386.5"/>
<line class="st22" x1="427.1" y1="198.4" x2="427.1" y2="165.3"/>
<line class="st22" x1="418.9" y1="403.9" x2="418.9" y2="386.5"/>
<line class="st22" x1="418.9" y1="198.4" x2="418.9" y2="165.3"/>
<line class="st22" x1="410.5" y1="403.9" x2="410.5" y2="165.3"/>
<line class="st22" x1="410.2" y1="399.7" x2="629.7" y2="399.7"/>
<line class="st22" x1="410.2" y1="391.5" x2="629.7" y2="391.5"/>
<line class="st22" x1="410.2" y1="383.1" x2="415.8" y2="383.1"/>
<line class="st22" x1="410.2" y1="375" x2="415.8" y2="375"/>
<line class="st22" x1="410.2" y1="366.5" x2="415.8" y2="366.5"/>
<line class="st22" x1="410.2" y1="358.4" x2="415.8" y2="358.4"/>
<line class="st22" x1="410.2" y1="350" x2="415.8" y2="350"/>
<line class="st22" x1="410.2" y1="341.8" x2="415.8" y2="341.8"/>
<line class="st22" x1="410.2" y1="333.4" x2="415.8" y2="333.4"/>
<line class="st22" x1="410.2" y1="325.3" x2="418.4" y2="325.3"/>
<line class="st22" x1="410.2" y1="316.8" x2="418.4" y2="316.8"/>
<line class="st22" x1="410.2" y1="308.7" x2="418.4" y2="308.7"/>
<line class="st22" x1="410.2" y1="300.3" x2="418.4" y2="300.3"/>
<line class="st22" x1="410.2" y1="292.1" x2="418.4" y2="292.1"/>
<line class="st22" x1="410.2" y1="283.7" x2="418.4" y2="283.7"/>
<line class="st22" x1="410.2" y1="275.3" x2="418.4" y2="275.3"/>
<line class="st22" x1="410.2" y1="267.2" x2="418.4" y2="267.2"/>
<line class="st22" x1="410.2" y1="258.7" x2="418.4" y2="258.7"/>
<line class="st22" x1="410.2" y1="250.6" x2="418.4" y2="250.6"/>
<line class="st22" x1="410.2" y1="242.2" x2="418.4" y2="242.2"/>
<line class="st22" x1="410.2" y1="234" x2="418.4" y2="234"/>
<line class="st22" x1="410.2" y1="225.6" x2="418.4" y2="225.6"/>
<line class="st22" x1="410.2" y1="217.5" x2="418.4" y2="217.5"/>
<line class="st22" x1="410.2" y1="209.1" x2="418.4" y2="209.1"/>
<line class="st22" x1="410.2" y1="200.9" x2="418.4" y2="200.9"/>
<line class="st22" x1="410.2" y1="192.5" x2="624.4" y2="192.5"/>
<line class="st22" x1="410.2" y1="184.3" x2="624.4" y2="184.3"/>
<line class="st22" x1="410.2" y1="175.9" x2="624.4" y2="175.9"/>
<line class="st22" x1="410.2" y1="167.8" x2="624.4" y2="167.8"/>
<polygon class="st11" points="418.4,198.4 624.4,198.4 624.4,165.3 410.2,165.3 410.2,403.9 629.7,403.9 629.7,386.5 415.8,386.5 
	415.8,332.6 418.4,332.6 "/>
<line class="st11" x1="182.6" y1="484.4" x2="264.3" y2="484.4"/>
<line class="st11" x1="304.4" y1="628.7" x2="301" y2="570.1"/>
<line class="st11" x1="182.6" y1="107.7" x2="265.9" y2="110"/>
<line class="st11" x1="300.7" y1="37.3" x2="304.1" y2="111.9"/>
<line class="st11" x1="526.4" y1="37.3" x2="530.4" y2="117"/>
<line class="st11" x1="753" y1="37.3" x2="757.5" y2="126.2"/>
<line class="st11" x1="711.7" y1="419.3" x2="690.9" y2="419.3"/>
<line class="st11" x1="711.7" y1="414.8" x2="690.9" y2="414.8"/>
<line class="st11" x1="711.7" y1="410" x2="690.9" y2="410"/>
<line class="st11" x1="711.7" y1="405.3" x2="690.9" y2="405.3"/>
<line class="st11" x1="711.7" y1="400.5" x2="690.9" y2="400.5"/>
<line class="st11" x1="711.7" y1="395.7" x2="690.9" y2="395.7"/>
<line class="st11" x1="711.7" y1="391" x2="690.9" y2="391"/>
<line class="st11" x1="812.8" y1="186.3" x2="843.9" y2="186.3"/>
<line class="st11" x1="812.8" y1="181.8" x2="843.9" y2="181.8"/>
<line class="st11" x1="812.8" y1="177.3" x2="843.9" y2="177.3"/>
<polygon class="st11" points="937.4,386.5 933.5,386.5 933.5,421.3 715.9,421.3 715.9,386.5 711.7,386.5 711.7,425.5 937.4,425.5 
	"/>
<rect x="690.9" y="386.5" class="st11" width="20.8" height="32.8"/>
<line class="st11" x1="335.6" y1="425.5" x2="264.5" y2="425.5"/>
<line class="st11" x1="269.3" y1="368.2" x2="269.3" y2="425.5"/>
<path class="st10" d="M853.8,564.8l3.3,0l0.8,72.6l-3.3,0l-0.8-68.9L301.1,570l-129.3,0.5c-8.7,0.2-17.1,3.5-23.5,9.5
	c-7.4,6.9-11.5,16.5-11.3,26.6l1.1,30.6l-3.3,0.2l-1.2-30.6c-0.2-11,4.3-21.6,12.4-29.2c7-6.5,16.1-10.2,25.7-10.4l2,0l418-1.4
	l143.8-0.5L853.8,564.8L853.8,564.8"/>
<path class="st11" d="M853.8,564.8l3.3,0l0.8,72.6l-3.3,0l-0.8-68.9L301.1,570l-129.3,0.5c-8.7,0.2-17.1,3.5-23.5,9.5
	c-7.4,6.9-11.5,16.5-11.3,26.6l1.1,30.6l-3.3,0.2l-1.2-30.6c-0.2-11,4.3-21.6,12.4-29.2c7-6.5,16.1-10.2,25.7-10.4l2,0l418-1.4
	l143.8-0.5L853.8,564.8L853.8,564.8"/>
<line class="st11" x1="984.6" y1="133.5" x2="979.8" y2="37.3"/>
<polyline class="st10" points="932.6,636.3 932.6,564.4 936,564.4 936,636.3 932.6,636.3 "/>
<rect x="932.6" y="564.4" class="st11" width="3.4" height="71.9"/>
<polyline class="st11" points="711.7,425.5 711.7,450.5 1099.9,449.9 "/>
<polyline class="st11" points="648.8,425.5 648.8,450.5 440,451 440,425.5 "/>
<polyline class="st11" points="398.4,425.5 398.4,451 335.6,451.3 335.6,425.5 "/>
<polyline class="st11" points="173.3,484.4 180.6,350.5 211.8,350.5 "/>
<line class="st11" x1="103.4" y1="484.4" x2="173.3" y2="484.4"/>
<path class="st10" d="M1002.3,564.3L1002.3,564.3c-4,0.2-7.8,1.8-10.7,4.5c-3.8,3.6-5.8,8.7-5.3,13.9l-0.4,53.5l3.3,0l0.4-54
	c-0.3-4.1,1.2-8.2,4.2-11c2.8-2.7,6.7-4,10.5-3.7l142.1-0.3v-3.4l-51.6,0.1l-90.9,0.2c0,0,0.1,0,0.1,0"/>
<path class="st11" d="M1002.3,564.3L1002.3,564.3c-4,0.2-7.8,1.8-10.7,4.5c-3.8,3.6-5.8,8.7-5.3,13.9l-0.4,53.5l3.3,0l0.4-54
	c-0.3-4.1,1.2-8.2,4.2-11c2.8-2.7,6.7-4,10.5-3.7l142.1-0.3v-3.4l-51.6,0.1l-90.9,0.2c0,0,0.1,0,0.1,0"/>
<polyline class="st20" points="1112.6,477.7 1146.5,477.7 1146.5,482.8 1108.4,482.8 1093.5,425.5 937.4,425.5 937.4,420.4 
	1097.4,420.4 1112.3,477.7 1112.6,477.7 "/>
<polygon class="st11" points="1112.6,477.7 1146.5,477.7 1146.5,482.8 1108.4,482.8 1093.5,425.5 937.4,425.5 937.4,420.4 
	1097.4,420.4 1112.3,477.7 "/>
<line class="st11" x1="936" y1="564.4" x2="1003.9" y2="564.2"/>
<line class="st11" x1="857.1" y1="564.7" x2="932.6" y2="564.4"/>
<line class="st11" x1="173.6" y1="567.2" x2="103.4" y2="567.5"/>
<rect x="656.4" y="363.4" class="st10" width="47.4" height="8.4"/>
<rect x="656.4" y="363.4" class="st11" width="47.4" height="8.4"/>
<line class="st11" x1="656.4" y1="368.2" x2="703.9" y2="368.2"/>
<polyline class="st10" points="936.6,730.9 936,636.3 854.6,637.4 855.7,730.9 "/>
<polyline class="st13" points="936.6,730.9 936,636.3 854.6,637.4 855.7,730.9 "/>
<polyline class="st10" points="370.4,730.9 365.3,625.4 304.4,628.7 270.4,630.4 161.2,636 "/>
<polyline class="st10" points="161.2,636 134.8,637.4 139.1,730.9 "/>
<polyline class="st13" points="370.4,730.9 365.3,625.4 304.4,628.7 270.4,630.4 161.2,636 134.8,637.4 139.1,730.9 "/>
<polyline class="st13" points="180.6,350.5 136.5,279.5 181.2,209.1 "/>
<line class="st13" x1="310.3" y1="730.9" x2="304.4" y2="628.7"/>
<line class="st13" x1="212.3" y1="633.2" x2="216.5" y2="730.9"/>
<polyline class="st10" points="760.3,89.2 813.3,90.9 812.2,125.7 759.2,124 760.3,89.2 "/>
<polygon class="st13" points="760.3,89.2 813.3,90.9 812.2,125.7 759.2,124 "/>
<polyline class="st10" points="180.6,350.5 181.2,209.1 103.4,208.8 103.4,350.3 180.6,350.5 "/>
<polygon class="st13" points="180.6,350.5 181.2,209.1 103.4,208.8 103.4,350.3 "/>
<polyline class="st10" points="212.3,208.8 265.4,209.1 265.1,385.1 211.8,384.8 212.3,208.8 "/>
<polygon class="st13" points="212.3,208.8 265.4,209.1 265.1,385.1 211.8,384.8 "/>
<polyline class="st10" points="1146.5,378.9 1146.5,186 938.5,186 941.9,378.9 1146.5,378.9 "/>
<polygon class="st13" points="1146.5,378.9 1146.5,186 938.5,186 941.9,378.9 "/>
<polyline class="st10" points="1146.5,730.9 1146.5,635.7 986,636.3 "/>
<polyline class="st13" points="1146.5,730.9 1146.5,635.7 986,636.3 986,730.9 "/>
<line class="st13" x1="1146.5" y1="280.9" x2="940.2" y2="280.9"/>
<polyline class="st10" points="339.5,368.2 265.1,368.2 265.1,366.3 339.5,366.3 339.5,368.2 "/>
<line class="st11" x1="339.5" y1="368.2" x2="337.5" y2="368.2"/>
<line class="st11" x1="334.1" y1="368.2" x2="330.8" y2="368.2"/>
<line class="st11" x1="327.4" y1="368.2" x2="324" y2="368.2"/>
<line class="st11" x1="320.7" y1="368.2" x2="317.3" y2="368.2"/>
<line class="st11" x1="313.9" y1="368.2" x2="310.6" y2="368.2"/>
<line class="st11" x1="307.2" y1="368.2" x2="303.8" y2="368.2"/>
<line class="st11" x1="300.5" y1="368.2" x2="297.1" y2="368.2"/>
<line class="st11" x1="293.7" y1="368.2" x2="290.4" y2="368.2"/>
<line class="st11" x1="287" y1="368.2" x2="283.6" y2="368.2"/>
<line class="st11" x1="280.3" y1="368.2" x2="276.9" y2="368.2"/>
<line class="st11" x1="273.5" y1="368.2" x2="270.1" y2="368.2"/>
<line class="st11" x1="266.8" y1="368.2" x2="265.1" y2="368.2"/>
<line class="st11" x1="265.1" y1="368.2" x2="265.1" y2="366.5"/>
<line class="st11" x1="265.1" y1="366.3" x2="267.1" y2="366.3"/>
<line class="st11" x1="270.4" y1="366.3" x2="273.8" y2="366.3"/>
<line class="st11" x1="277.2" y1="366.3" x2="280.5" y2="366.3"/>
<line class="st11" x1="283.9" y1="366.3" x2="287.3" y2="366.3"/>
<line class="st11" x1="290.6" y1="366.3" x2="294" y2="366.3"/>
<line class="st11" x1="297.4" y1="366.3" x2="300.7" y2="366.3"/>
<line class="st11" x1="304.1" y1="366.3" x2="307.5" y2="366.3"/>
<line class="st11" x1="310.8" y1="366.3" x2="314.2" y2="366.3"/>
<line class="st11" x1="317.6" y1="366.3" x2="321" y2="366.3"/>
<line class="st11" x1="324.3" y1="366.3" x2="327.7" y2="366.3"/>
<line class="st11" x1="331.1" y1="366.3" x2="334.4" y2="366.3"/>
<line class="st11" x1="337.8" y1="366.3" x2="339.5" y2="366.3"/>
<line class="st11" x1="339.5" y1="366.3" x2="339.5" y2="367.9"/>
<polyline class="st10" points="339.5,287.1 265.1,287.1 265.1,285.1 339.5,285.1 339.5,287.1 "/>
<line class="st11" x1="339.5" y1="287.1" x2="337.5" y2="287.1"/>
<line class="st11" x1="334.1" y1="287.1" x2="330.8" y2="287.1"/>
<line class="st11" x1="327.4" y1="287.1" x2="324" y2="287.1"/>
<line class="st11" x1="320.7" y1="287.1" x2="317.3" y2="287.1"/>
<line class="st11" x1="313.9" y1="287.1" x2="310.6" y2="287.1"/>
<line class="st11" x1="307.2" y1="287.1" x2="303.8" y2="287.1"/>
<line class="st11" x1="300.5" y1="287.1" x2="297.1" y2="287.1"/>
<line class="st11" x1="293.7" y1="287.1" x2="290.4" y2="287.1"/>
<line class="st11" x1="287" y1="287.1" x2="283.6" y2="287.1"/>
<line class="st11" x1="280.3" y1="287.1" x2="276.9" y2="287.1"/>
<line class="st11" x1="273.5" y1="287.1" x2="270.1" y2="287.1"/>
<line class="st11" x1="266.8" y1="287.1" x2="265.1" y2="287.1"/>
<line class="st11" x1="265.1" y1="287.1" x2="265.1" y2="285.4"/>
<line class="st11" x1="265.1" y1="285.1" x2="267.1" y2="285.1"/>
<line class="st11" x1="270.4" y1="285.1" x2="273.8" y2="285.1"/>
<line class="st11" x1="277.2" y1="285.1" x2="280.5" y2="285.1"/>
<line class="st11" x1="283.9" y1="285.1" x2="287.3" y2="285.1"/>
<line class="st11" x1="290.6" y1="285.1" x2="294" y2="285.1"/>
<line class="st11" x1="297.4" y1="285.1" x2="300.7" y2="285.1"/>
<line class="st11" x1="304.1" y1="285.1" x2="307.5" y2="285.1"/>
<line class="st11" x1="310.8" y1="285.1" x2="314.2" y2="285.1"/>
<line class="st11" x1="317.6" y1="285.1" x2="321" y2="285.1"/>
<line class="st11" x1="324.3" y1="285.1" x2="327.7" y2="285.1"/>
<line class="st11" x1="331.1" y1="285.1" x2="334.4" y2="285.1"/>
<line class="st11" x1="337.8" y1="285.1" x2="339.5" y2="285.1"/>
<line class="st11" x1="339.5" y1="285.1" x2="339.5" y2="286.8"/>
<polyline class="st10" points="339.5,303.4 265.1,303.4 265.1,301.4 339.5,301.4 339.5,303.4 "/>
<line class="st11" x1="339.5" y1="303.4" x2="337.5" y2="303.4"/>
<line class="st11" x1="334.1" y1="303.4" x2="330.8" y2="303.4"/>
<line class="st11" x1="327.4" y1="303.4" x2="324" y2="303.4"/>
<line class="st11" x1="320.7" y1="303.4" x2="317.3" y2="303.4"/>
<line class="st11" x1="313.9" y1="303.4" x2="310.6" y2="303.4"/>
<line class="st11" x1="307.2" y1="303.4" x2="303.8" y2="303.4"/>
<line class="st11" x1="300.5" y1="303.4" x2="297.1" y2="303.4"/>
<line class="st11" x1="293.7" y1="303.4" x2="290.4" y2="303.4"/>
<line class="st11" x1="287" y1="303.4" x2="283.6" y2="303.4"/>
<line class="st11" x1="280.3" y1="303.4" x2="276.9" y2="303.4"/>
<line class="st11" x1="273.5" y1="303.4" x2="270.1" y2="303.4"/>
<line class="st11" x1="266.8" y1="303.4" x2="265.1" y2="303.4"/>
<line class="st11" x1="265.1" y1="303.4" x2="265.1" y2="301.7"/>
<line class="st11" x1="265.1" y1="301.4" x2="267.1" y2="301.4"/>
<line class="st11" x1="270.4" y1="301.4" x2="273.8" y2="301.4"/>
<line class="st11" x1="277.2" y1="301.4" x2="280.5" y2="301.4"/>
<line class="st11" x1="283.9" y1="301.4" x2="287.3" y2="301.4"/>
<line class="st11" x1="290.6" y1="301.4" x2="294" y2="301.4"/>
<line class="st11" x1="297.4" y1="301.4" x2="300.7" y2="301.4"/>
<line class="st11" x1="304.1" y1="301.4" x2="307.5" y2="301.4"/>
<line class="st11" x1="310.8" y1="301.4" x2="314.2" y2="301.4"/>
<line class="st11" x1="317.6" y1="301.4" x2="321" y2="301.4"/>
<line class="st11" x1="324.3" y1="301.4" x2="327.7" y2="301.4"/>
<line class="st11" x1="331.1" y1="301.4" x2="334.4" y2="301.4"/>
<line class="st11" x1="337.8" y1="301.4" x2="339.5" y2="301.4"/>
<line class="st11" x1="339.5" y1="301.4" x2="339.5" y2="303.1"/>
<polyline class="st10" points="339.5,319.4 265.1,319.4 265.1,317.4 339.5,317.4 339.5,319.4 "/>
<line class="st11" x1="339.5" y1="319.4" x2="337.5" y2="319.4"/>
<line class="st11" x1="334.1" y1="319.4" x2="330.8" y2="319.4"/>
<line class="st11" x1="327.4" y1="319.4" x2="324" y2="319.4"/>
<line class="st11" x1="320.7" y1="319.4" x2="317.3" y2="319.4"/>
<line class="st11" x1="313.9" y1="319.4" x2="310.6" y2="319.4"/>
<line class="st11" x1="307.2" y1="319.4" x2="303.8" y2="319.4"/>
<line class="st11" x1="300.5" y1="319.4" x2="297.1" y2="319.4"/>
<line class="st11" x1="293.7" y1="319.4" x2="290.4" y2="319.4"/>
<line class="st11" x1="287" y1="319.4" x2="283.6" y2="319.4"/>
<line class="st11" x1="280.3" y1="319.4" x2="276.9" y2="319.4"/>
<line class="st11" x1="273.5" y1="319.4" x2="270.1" y2="319.4"/>
<line class="st11" x1="266.8" y1="319.4" x2="265.1" y2="319.4"/>
<line class="st11" x1="265.1" y1="319.4" x2="265.1" y2="317.7"/>
<line class="st11" x1="265.1" y1="317.4" x2="267.1" y2="317.4"/>
<line class="st11" x1="270.4" y1="317.4" x2="273.8" y2="317.4"/>
<line class="st11" x1="277.2" y1="317.4" x2="280.5" y2="317.4"/>
<line class="st11" x1="283.9" y1="317.4" x2="287.3" y2="317.4"/>
<line class="st11" x1="290.6" y1="317.4" x2="294" y2="317.4"/>
<line class="st11" x1="297.4" y1="317.4" x2="300.7" y2="317.4"/>
<line class="st11" x1="304.1" y1="317.4" x2="307.5" y2="317.4"/>
<line class="st11" x1="310.8" y1="317.4" x2="314.2" y2="317.4"/>
<line class="st11" x1="317.6" y1="317.4" x2="321" y2="317.4"/>
<line class="st11" x1="324.3" y1="317.4" x2="327.7" y2="317.4"/>
<line class="st11" x1="331.1" y1="317.4" x2="334.4" y2="317.4"/>
<line class="st11" x1="337.8" y1="317.4" x2="339.5" y2="317.4"/>
<line class="st11" x1="339.5" y1="317.4" x2="339.5" y2="319.1"/>
<polyline class="st10" points="339.5,335.7 265.1,335.7 265.1,333.7 339.5,333.7 339.5,335.7 "/>
<line class="st11" x1="339.5" y1="335.7" x2="337.5" y2="335.7"/>
<line class="st11" x1="334.1" y1="335.7" x2="330.8" y2="335.7"/>
<line class="st11" x1="327.4" y1="335.7" x2="324" y2="335.7"/>
<line class="st11" x1="320.7" y1="335.7" x2="317.3" y2="335.7"/>
<line class="st11" x1="313.9" y1="335.7" x2="310.6" y2="335.7"/>
<line class="st11" x1="307.2" y1="335.7" x2="303.8" y2="335.7"/>
<line class="st11" x1="300.5" y1="335.7" x2="297.1" y2="335.7"/>
<line class="st11" x1="293.7" y1="335.7" x2="290.4" y2="335.7"/>
<line class="st11" x1="287" y1="335.7" x2="283.6" y2="335.7"/>
<line class="st11" x1="280.3" y1="335.7" x2="276.9" y2="335.7"/>
<line class="st11" x1="273.5" y1="335.7" x2="270.1" y2="335.7"/>
<line class="st11" x1="266.8" y1="335.7" x2="265.1" y2="335.7"/>
<line class="st11" x1="265.1" y1="335.7" x2="265.1" y2="334"/>
<line class="st11" x1="265.1" y1="333.7" x2="267.1" y2="333.7"/>
<line class="st11" x1="270.4" y1="333.7" x2="273.8" y2="333.7"/>
<line class="st11" x1="277.2" y1="333.7" x2="280.5" y2="333.7"/>
<line class="st11" x1="283.9" y1="333.7" x2="287.3" y2="333.7"/>
<line class="st11" x1="290.6" y1="333.7" x2="294" y2="333.7"/>
<line class="st11" x1="297.4" y1="333.7" x2="300.7" y2="333.7"/>
<line class="st11" x1="304.1" y1="333.7" x2="307.5" y2="333.7"/>
<line class="st11" x1="310.8" y1="333.7" x2="314.2" y2="333.7"/>
<line class="st11" x1="317.6" y1="333.7" x2="321" y2="333.7"/>
<line class="st11" x1="324.3" y1="333.7" x2="327.7" y2="333.7"/>
<line class="st11" x1="331.1" y1="333.7" x2="334.4" y2="333.7"/>
<line class="st11" x1="337.8" y1="333.7" x2="339.5" y2="333.7"/>
<line class="st11" x1="339.5" y1="333.7" x2="339.5" y2="335.4"/>
<polyline class="st10" points="339.5,351.7 265.1,351.7 265.1,349.7 339.5,349.7 339.5,351.7 "/>
<line class="st11" x1="339.5" y1="351.7" x2="337.5" y2="351.7"/>
<line class="st11" x1="334.1" y1="351.7" x2="330.8" y2="351.7"/>
<line class="st11" x1="327.4" y1="351.7" x2="324" y2="351.7"/>
<line class="st11" x1="320.7" y1="351.7" x2="317.3" y2="351.7"/>
<line class="st11" x1="313.9" y1="351.7" x2="310.6" y2="351.7"/>
<line class="st11" x1="307.2" y1="351.7" x2="303.8" y2="351.7"/>
<line class="st11" x1="300.5" y1="351.7" x2="297.1" y2="351.7"/>
<line class="st11" x1="293.7" y1="351.7" x2="290.4" y2="351.7"/>
<line class="st11" x1="287" y1="351.7" x2="283.6" y2="351.7"/>
<line class="st11" x1="280.3" y1="351.7" x2="276.9" y2="351.7"/>
<line class="st11" x1="273.5" y1="351.7" x2="270.1" y2="351.7"/>
<line class="st11" x1="266.8" y1="351.7" x2="265.1" y2="351.7"/>
<line class="st11" x1="265.1" y1="351.7" x2="265.1" y2="350"/>
<line class="st11" x1="265.1" y1="349.7" x2="267.1" y2="349.7"/>
<line class="st11" x1="270.4" y1="349.7" x2="273.8" y2="349.7"/>
<line class="st11" x1="277.2" y1="349.7" x2="280.5" y2="349.7"/>
<line class="st11" x1="283.9" y1="349.7" x2="287.3" y2="349.7"/>
<line class="st11" x1="290.6" y1="349.7" x2="294" y2="349.7"/>
<line class="st11" x1="297.4" y1="349.7" x2="300.7" y2="349.7"/>
<line class="st11" x1="304.1" y1="349.7" x2="307.5" y2="349.7"/>
<line class="st11" x1="310.8" y1="349.7" x2="314.2" y2="349.7"/>
<line class="st11" x1="317.6" y1="349.7" x2="321" y2="349.7"/>
<line class="st11" x1="324.3" y1="349.7" x2="327.7" y2="349.7"/>
<line class="st11" x1="331.1" y1="349.7" x2="334.4" y2="349.7"/>
<line class="st11" x1="337.8" y1="349.7" x2="339.5" y2="349.7"/>
<line class="st11" x1="339.5" y1="349.7" x2="339.5" y2="351.4"/>
<polyline class="st10" points="937.4,371.9 937.4,365.4 941.6,365.4 "/>
<polyline class="st11" points="937.4,371.9 937.4,365.4 941.6,365.4 "/>
<polyline class="st10" points="339.5,271.1 265.1,271.1 265.1,269.1 339.5,269.1 339.5,271.1 "/>
<line class="st11" x1="339.5" y1="271.1" x2="337.5" y2="271.1"/>
<line class="st11" x1="334.1" y1="271.1" x2="330.8" y2="271.1"/>
<line class="st11" x1="327.4" y1="271.1" x2="324" y2="271.1"/>
<line class="st11" x1="320.7" y1="271.1" x2="317.3" y2="271.1"/>
<line class="st11" x1="313.9" y1="271.1" x2="310.6" y2="271.1"/>
<line class="st11" x1="307.2" y1="271.1" x2="303.8" y2="271.1"/>
<line class="st11" x1="300.5" y1="271.1" x2="297.1" y2="271.1"/>
<line class="st11" x1="293.7" y1="271.1" x2="290.4" y2="271.1"/>
<line class="st11" x1="287" y1="271.1" x2="283.6" y2="271.1"/>
<line class="st11" x1="280.3" y1="271.1" x2="276.9" y2="271.1"/>
<line class="st11" x1="273.5" y1="271.1" x2="270.1" y2="271.1"/>
<line class="st11" x1="266.8" y1="271.1" x2="265.1" y2="271.1"/>
<line class="st11" x1="265.1" y1="271.1" x2="265.1" y2="269.4"/>
<line class="st11" x1="265.1" y1="269.1" x2="267.1" y2="269.1"/>
<line class="st11" x1="270.4" y1="269.1" x2="273.8" y2="269.1"/>
<line class="st11" x1="277.2" y1="269.1" x2="280.5" y2="269.1"/>
<line class="st11" x1="283.9" y1="269.1" x2="287.3" y2="269.1"/>
<line class="st11" x1="290.6" y1="269.1" x2="294" y2="269.1"/>
<line class="st11" x1="297.4" y1="269.1" x2="300.7" y2="269.1"/>
<line class="st11" x1="304.1" y1="269.1" x2="307.5" y2="269.1"/>
<line class="st11" x1="310.8" y1="269.1" x2="314.2" y2="269.1"/>
<line class="st11" x1="317.6" y1="269.1" x2="321" y2="269.1"/>
<line class="st11" x1="324.3" y1="269.1" x2="327.7" y2="269.1"/>
<line class="st11" x1="331.1" y1="269.1" x2="334.4" y2="269.1"/>
<line class="st11" x1="337.8" y1="269.1" x2="339.5" y2="269.1"/>
<line class="st11" x1="339.5" y1="269.1" x2="339.5" y2="270.8"/>
<polyline class="st10" points="339.8,264.9 265.9,255.1 266.2,253.1 340,263 339.8,264.9 "/>
<line class="st11" x1="339.8" y1="264.9" x2="337.8" y2="264.6"/>
<line class="st11" x1="334.4" y1="264.1" x2="331.1" y2="263.8"/>
<line class="st11" x1="327.7" y1="263.2" x2="324.3" y2="263"/>
<line class="st11" x1="321.2" y1="262.4" x2="317.9" y2="262.1"/>
<line class="st11" x1="314.5" y1="261.5" x2="311.1" y2="261"/>
<line class="st11" x1="307.8" y1="260.7" x2="304.4" y2="260.1"/>
<line class="st11" x1="301" y1="259.9" x2="297.7" y2="259.3"/>
<line class="st11" x1="294.3" y1="258.7" x2="291.2" y2="258.5"/>
<line class="st11" x1="287.8" y1="257.9" x2="284.5" y2="257.6"/>
<line class="st11" x1="281.1" y1="257.1" x2="277.7" y2="256.8"/>
<line class="st11" x1="274.4" y1="256.2" x2="271" y2="255.7"/>
<line class="st11" x1="267.6" y1="255.4" x2="265.9" y2="255.1"/>
<line class="st11" x1="265.9" y1="255.1" x2="266.2" y2="253.4"/>
<line class="st11" x1="266.2" y1="253.1" x2="268.2" y2="253.4"/>
<line class="st11" x1="271.5" y1="254" x2="274.9" y2="254.2"/>
<line class="st11" x1="278.3" y1="254.8" x2="281.7" y2="255.1"/>
<line class="st11" x1="284.7" y1="255.7" x2="288.1" y2="255.9"/>
<line class="st11" x1="291.5" y1="256.5" x2="294.8" y2="257.1"/>
<line class="st11" x1="298.2" y1="257.3" x2="301.6" y2="257.9"/>
<line class="st11" x1="305" y1="258.2" x2="308.3" y2="258.7"/>
<line class="st11" x1="311.7" y1="259.3" x2="314.8" y2="259.6"/>
<line class="st11" x1="318.1" y1="260.1" x2="321.5" y2="260.4"/>
<line class="st11" x1="324.9" y1="261" x2="328.3" y2="261.3"/>
<line class="st11" x1="331.6" y1="261.8" x2="335" y2="262.4"/>
<line class="st11" x1="338.4" y1="262.7" x2="340" y2="263"/>
<line class="st11" x1="340" y1="263" x2="339.8" y2="264.6"/>
<polyline class="st10" points="340.6,258.5 269.3,238.5 269.9,236.6 340.9,256.5 340.6,258.5 "/>
<line class="st11" x1="340.6" y1="258.5" x2="338.9" y2="257.9"/>
<line class="st11" x1="335.8" y1="257.1" x2="332.5" y2="256.2"/>
<line class="st11" x1="329.4" y1="255.4" x2="326" y2="254.2"/>
<line class="st11" x1="322.6" y1="253.4" x2="319.6" y2="252.6"/>
<line class="st11" x1="316.2" y1="251.7" x2="313.1" y2="250.9"/>
<line class="st11" x1="309.7" y1="249.8" x2="306.6" y2="248.9"/>
<line class="st11" x1="303.3" y1="248.1" x2="300.2" y2="247.2"/>
<line class="st11" x1="296.8" y1="246.1" x2="293.4" y2="245.3"/>
<line class="st11" x1="290.4" y1="244.4" x2="287" y2="243.6"/>
<line class="st11" x1="283.9" y1="242.5" x2="280.5" y2="241.6"/>
<line class="st11" x1="277.4" y1="240.8" x2="274.1" y2="239.9"/>
<line class="st11" x1="271" y1="239.1" x2="269.3" y2="238.5"/>
<line class="st11" x1="269.3" y1="238.5" x2="269.9" y2="237.1"/>
<line class="st11" x1="269.9" y1="236.6" x2="271.3" y2="236.8"/>
<line class="st11" x1="274.4" y1="238" x2="277.7" y2="238.8"/>
<line class="st11" x1="280.8" y1="239.7" x2="284.2" y2="240.5"/>
<line class="st11" x1="287.6" y1="241.6" x2="290.6" y2="242.5"/>
<line class="st11" x1="294" y1="243.3" x2="297.1" y2="244.1"/>
<line class="st11" x1="300.5" y1="245.3" x2="303.6" y2="246.1"/>
<line class="st11" x1="306.9" y1="246.9" x2="310" y2="247.8"/>
<line class="st11" x1="313.4" y1="248.9" x2="316.7" y2="249.8"/>
<line class="st11" x1="319.8" y1="250.6" x2="323.2" y2="251.4"/>
<line class="st11" x1="326.3" y1="252.3" x2="329.7" y2="253.4"/>
<line class="st11" x1="332.7" y1="254.2" x2="336.1" y2="255.1"/>
<line class="st11" x1="339.2" y1="255.9" x2="340.9" y2="256.5"/>
<line class="st11" x1="340.9" y1="256.5" x2="340.6" y2="258.2"/>
<polyline class="st10" points="342,252.3 274.4,223.1 275.2,221.4 342.9,250.3 342,252.3 "/>
<line class="st11" x1="342" y1="252.3" x2="340.6" y2="251.7"/>
<line class="st11" x1="337.5" y1="250.3" x2="334.4" y2="249.2"/>
<line class="st11" x1="331.3" y1="247.8" x2="328.3" y2="246.4"/>
<line class="st11" x1="325.2" y1="245" x2="322.1" y2="243.6"/>
<line class="st11" x1="319" y1="242.5" x2="315.9" y2="241.1"/>
<line class="st11" x1="312.8" y1="239.7" x2="309.7" y2="238.2"/>
<line class="st11" x1="306.6" y1="237.1" x2="303.6" y2="235.7"/>
<line class="st11" x1="300.5" y1="234.3" x2="297.4" y2="232.9"/>
<line class="st11" x1="294.3" y1="231.8" x2="291.2" y2="230.4"/>
<line class="st11" x1="288.1" y1="229" x2="285" y2="227.6"/>
<line class="st11" x1="281.9" y1="226.5" x2="278.8" y2="225.1"/>
<line class="st11" x1="275.8" y1="223.7" x2="274.4" y2="223.1"/>
<line class="st11" x1="274.4" y1="223.1" x2="275.2" y2="221.4"/>
<line class="st11" x1="275.2" y1="221.4" x2="276.6" y2="222"/>
<line class="st11" x1="279.7" y1="223.4" x2="282.8" y2="224.5"/>
<line class="st11" x1="285.9" y1="225.9" x2="289" y2="227.3"/>
<line class="st11" x1="292" y1="228.7" x2="295.1" y2="229.8"/>
<line class="st11" x1="298.2" y1="231.2" x2="301.3" y2="232.6"/>
<line class="st11" x1="304.4" y1="233.8" x2="307.5" y2="235.2"/>
<line class="st11" x1="310.6" y1="236.6" x2="313.7" y2="238"/>
<line class="st11" x1="316.7" y1="239.1" x2="319.8" y2="240.5"/>
<line class="st11" x1="322.9" y1="241.9" x2="326" y2="243"/>
<line class="st11" x1="329.1" y1="244.4" x2="332.2" y2="245.8"/>
<line class="st11" x1="335.3" y1="247.2" x2="338.4" y2="248.4"/>
<line class="st11" x1="341.4" y1="249.8" x2="342.9" y2="250.3"/>
<line class="st11" x1="342.9" y1="250.3" x2="342" y2="252"/>
<polyline class="st10" points="344.3,246.1 281.7,208.5 282.8,206.8 345.1,244.4 344.3,246.1 "/>
<line class="st11" x1="344.3" y1="246.1" x2="343.4" y2="245.5"/>
<line class="st11" x1="340.3" y1="243.9" x2="337.5" y2="242.2"/>
<line class="st11" x1="334.7" y1="240.2" x2="331.6" y2="238.5"/>
<line class="st11" x1="328.8" y1="236.8" x2="326" y2="235.2"/>
<line class="st11" x1="323.2" y1="233.5" x2="320.1" y2="231.5"/>
<line class="st11" x1="317.3" y1="229.8" x2="314.5" y2="228.1"/>
<line class="st11" x1="311.4" y1="226.5" x2="308.6" y2="224.8"/>
<line class="st11" x1="305.8" y1="223.1" x2="303" y2="221.1"/>
<line class="st11" x1="299.9" y1="219.4" x2="297.1" y2="217.8"/>
<line class="st11" x1="294.3" y1="216.1" x2="291.2" y2="214.4"/>
<line class="st11" x1="288.4" y1="212.7" x2="285.6" y2="210.7"/>
<line class="st11" x1="282.8" y1="209.1" x2="281.7" y2="208.5"/>
<line class="st11" x1="281.7" y1="208.5" x2="282.8" y2="206.8"/>
<line class="st11" x1="282.8" y1="206.8" x2="283.6" y2="207.4"/>
<line class="st11" x1="286.7" y1="209.1" x2="289.5" y2="210.7"/>
<line class="st11" x1="292.3" y1="212.7" x2="295.4" y2="214.4"/>
<line class="st11" x1="298.2" y1="216.1" x2="301" y2="217.8"/>
<line class="st11" x1="303.8" y1="219.4" x2="306.9" y2="221.4"/>
<line class="st11" x1="309.7" y1="223.1" x2="312.5" y2="224.8"/>
<line class="st11" x1="315.3" y1="226.5" x2="318.4" y2="228.1"/>
<line class="st11" x1="321.2" y1="230.1" x2="324" y2="231.8"/>
<line class="st11" x1="327.1" y1="233.5" x2="329.9" y2="235.2"/>
<line class="st11" x1="332.7" y1="236.8" x2="335.6" y2="238.8"/>
<line class="st11" x1="338.6" y1="240.5" x2="341.4" y2="242.2"/>
<line class="st11" x1="344.3" y1="243.9" x2="345.1" y2="244.4"/>
<line class="st11" x1="345.1" y1="244.4" x2="344.3" y2="246.1"/>
<polyline class="st10" points="626.1,302.8 626.1,272.8 639.6,272.8 639.6,302.8 626.1,302.8 "/>
<rect x="626.1" y="272.8" class="st11" width="13.5" height="30"/>
<path class="st10" d="M627.4,274h11v21.6c0,0.7-0.2,1.4-0.4,2.1c-0.3,0.7-0.7,1.3-1.2,1.8c-0.5,0.5-1.1,0.9-1.8,1.2
	c-0.7,0.3-1.4,0.4-2.1,0.4c-0.7,0-1.4-0.1-2.1-0.4c-0.7-0.3-1.3-0.7-1.8-1.2c-0.5-0.5-0.9-1.1-1.2-1.8c-0.3-0.7-0.4-1.4-0.4-2.1V274
	"/>
<path class="st11" d="M627.4,274h11v21.6c0,0.7-0.2,1.4-0.4,2.1c-0.3,0.7-0.7,1.3-1.2,1.8c-0.5,0.5-1.1,0.9-1.8,1.2
	c-0.7,0.3-1.4,0.4-2.1,0.4c-0.7,0-1.4-0.1-2.1-0.4c-0.7-0.3-1.3-0.7-1.8-1.2c-0.5-0.5-0.9-1.1-1.2-1.8c-0.3-0.7-0.4-1.4-0.4-2.1V274
	"/>
<path class="st10" d="M632.9,276.4c0.1,0,0.2,0,0.3,0.1c0.1,0,0.2,0.1,0.2,0.2c0.1,0.1,0.1,0.2,0.1,0.3s0,0.2-0.1,0.3
	c-0.1,0.1-0.1,0.2-0.2,0.2c-0.1,0-0.2,0.1-0.3,0.1c-0.1,0-0.2,0-0.3-0.1c-0.1,0-0.2-0.1-0.2-0.2c-0.1-0.1-0.1-0.2-0.1-0.3
	s0-0.2,0.1-0.3c0.1-0.1,0.1-0.2,0.2-0.2C632.7,276.4,632.8,276.4,632.9,276.4"/>
<path class="st11" d="M632.9,276.4c0.1,0,0.2,0,0.3,0.1c0.1,0,0.2,0.1,0.2,0.2c0.1,0.1,0.1,0.2,0.1,0.3s0,0.2-0.1,0.3
	c-0.1,0.1-0.1,0.2-0.2,0.2c-0.1,0-0.2,0.1-0.3,0.1c-0.1,0-0.2,0-0.3-0.1c-0.1,0-0.2-0.1-0.2-0.2c-0.1-0.1-0.1-0.2-0.1-0.3
	s0-0.2,0.1-0.3c0.1-0.1,0.1-0.2,0.2-0.2C632.7,276.4,632.8,276.4,632.9,276.4"/>
<rect x="611.2" y="272.8" class="st10" width="8.1" height="6.7"/>
<rect x="611.2" y="272.8" class="st11" width="8.1" height="6.7"/>
<rect x="612.1" y="274.5" class="st10" width="6.5" height="4.2"/>
<rect x="612.1" y="274.5" class="st11" width="6.5" height="4.2"/>
<path class="st10" d="M599.9,272.8v6.2c0,0.4,0.1,0.8,0.2,1.1c0.1,0.4,0.4,0.7,0.6,0.9c0.3,0.3,0.6,0.5,0.9,0.6
	c0.4,0.1,0.7,0.2,1.1,0.2c0.4,0,0.8-0.1,1.1-0.2c0.4-0.1,0.7-0.4,0.9-0.6c0.3-0.3,0.5-0.6,0.6-0.9c0.1-0.4,0.2-0.7,0.2-1.1v-6.2
	H599.9"/>
<path class="st11" d="M599.9,272.8v6.2c0,0.4,0.1,0.8,0.2,1.1c0.1,0.4,0.4,0.7,0.6,0.9c0.3,0.3,0.6,0.5,0.9,0.6
	c0.4,0.1,0.7,0.2,1.1,0.2c0.4,0,0.8-0.1,1.1-0.2c0.4-0.1,0.7-0.4,0.9-0.6c0.3-0.3,0.5-0.6,0.6-0.9c0.1-0.4,0.2-0.7,0.2-1.1v-6.2
	H599.9"/>
<line class="st11" x1="605.6" y1="274.5" x2="600" y2="274.5"/>
<path class="st10" d="M621.1,266.5v-6.2c0-0.4-0.1-0.8-0.2-1.1c-0.1-0.4-0.4-0.7-0.6-0.9c-0.3-0.3-0.6-0.5-0.9-0.6
	c-0.4-0.1-0.7-0.2-1.1-0.2s-0.8,0.1-1.1,0.2c-0.4,0.1-0.7,0.4-0.9,0.6c-0.3,0.3-0.5,0.6-0.6,0.9c-0.1,0.4-0.2,0.7-0.2,1.1v6.2H621.1
	"/>
<path class="st11" d="M621.1,266.5v-6.2c0-0.4-0.1-0.8-0.2-1.1c-0.1-0.4-0.4-0.7-0.6-0.9c-0.3-0.3-0.6-0.5-0.9-0.6
	c-0.4-0.1-0.7-0.2-1.1-0.2s-0.8,0.1-1.1,0.2c-0.4,0.1-0.7,0.4-0.9,0.6c-0.3,0.3-0.5,0.6-0.6,0.9c-0.1,0.4-0.2,0.7-0.2,1.1v6.2H621.1
	"/>
<line class="st11" x1="615.4" y1="264.9" x2="621" y2="264.9"/>
<rect x="625.8" y="248.1" class="st10" width="6.7" height="8.1"/>
<rect x="625.8" y="248.1" class="st11" width="6.7" height="8.1"/>
<rect x="626.7" y="248.9" class="st10" width="4.2" height="6.5"/>
<rect x="626.7" y="248.9" class="st11" width="4.2" height="6.5"/>
<polyline class="st10" points="734.2,302.8 734.2,272.8 721,272.8 721,302.8 734.2,302.8 "/>
<rect x="721" y="272.8" class="st11" width="13.2" height="30"/>
<path class="st10" d="M733,274h-11v21.6c0,0.7,0.2,1.4,0.4,2.1c0.3,0.7,0.7,1.3,1.2,1.8c0.5,0.5,1.1,0.9,1.8,1.2
	c0.7,0.3,1.4,0.4,2.1,0.4s1.4-0.1,2.1-0.4c0.7-0.3,1.3-0.7,1.8-1.2c0.5-0.5,0.9-1.1,1.2-1.8c0.3-0.7,0.4-1.4,0.4-2.1V274"/>
<path class="st11" d="M733,274h-11v21.6c0,0.7,0.2,1.4,0.4,2.1c0.3,0.7,0.7,1.3,1.2,1.8c0.5,0.5,1.1,0.9,1.8,1.2
	c0.7,0.3,1.4,0.4,2.1,0.4s1.4-0.1,2.1-0.4c0.7-0.3,1.3-0.7,1.8-1.2c0.5-0.5,0.9-1.1,1.2-1.8c0.3-0.7,0.4-1.4,0.4-2.1V274"/>
<path class="st10" d="M727.6,276.4c-0.1,0-0.2,0-0.3,0.1c-0.1,0-0.2,0.1-0.2,0.2c-0.1,0.1-0.1,0.2-0.1,0.3s0,0.2,0.1,0.3
	c0.1,0.1,0.1,0.2,0.2,0.2c0.1,0,0.2,0.1,0.3,0.1s0.2,0,0.3-0.1c0.1,0,0.2-0.1,0.2-0.2c0.1-0.1,0.1-0.2,0.1-0.3s0-0.2-0.1-0.3
	c-0.1-0.1-0.1-0.2-0.2-0.2C727.7,276.4,727.7,276.4,727.6,276.4"/>
<path class="st11" d="M727.6,276.4c-0.1,0-0.2,0-0.3,0.1c-0.1,0-0.2,0.1-0.2,0.2c-0.1,0.1-0.1,0.2-0.1,0.3s0,0.2,0.1,0.3
	c0.1,0.1,0.1,0.2,0.2,0.2c0.1,0,0.2,0.1,0.3,0.1s0.2,0,0.3-0.1c0.1,0,0.2-0.1,0.2-0.2c0.1-0.1,0.1-0.2,0.1-0.3s0-0.2-0.1-0.3
	c-0.1-0.1-0.1-0.2-0.2-0.2C727.7,276.4,727.7,276.4,727.6,276.4"/>
<rect x="741.2" y="272.8" class="st10" width="8.1" height="6.7"/>
<rect x="741.2" y="272.8" class="st11" width="8.1" height="6.7"/>
<rect x="742" y="274.5" class="st10" width="6.5" height="4.2"/>
<rect x="742" y="274.5" class="st11" width="6.5" height="4.2"/>
<path class="st10" d="M760.5,272.8v6.2c0,0.4-0.1,0.8-0.2,1.1c-0.1,0.4-0.4,0.7-0.6,0.9c-0.3,0.3-0.6,0.5-0.9,0.6
	c-0.4,0.1-0.7,0.2-1.1,0.2c-0.4,0-0.8-0.1-1.1-0.2c-0.4-0.1-0.7-0.4-0.9-0.6c-0.3-0.3-0.5-0.6-0.6-0.9c-0.1-0.4-0.2-0.7-0.2-1.1
	v-6.2H760.5"/>
<path class="st11" d="M760.5,272.8v6.2c0,0.4-0.1,0.8-0.2,1.1c-0.1,0.4-0.4,0.7-0.6,0.9c-0.3,0.3-0.6,0.5-0.9,0.6
	c-0.4,0.1-0.7,0.2-1.1,0.2c-0.4,0-0.8-0.1-1.1-0.2c-0.4-0.1-0.7-0.4-0.9-0.6c-0.3-0.3-0.5-0.6-0.6-0.9c-0.1-0.4-0.2-0.7-0.2-1.1
	v-6.2H760.5"/>
<line class="st11" x1="754.7" y1="274.5" x2="760.6" y2="274.5"/>
<path class="st10" d="M739.3,266.5v-6.2c0-0.4,0.1-0.8,0.2-1.1c0.1-0.4,0.4-0.7,0.6-0.9c0.3-0.3,0.6-0.5,0.9-0.6
	c0.4-0.1,0.7-0.2,1.1-0.2c0.4,0,0.8,0.1,1.1,0.2c0.4,0.1,0.7,0.4,0.9,0.6c0.3,0.3,0.5,0.6,0.6,0.9c0.1,0.4,0.2,0.7,0.2,1.1v6.2
	H739.3"/>
<path class="st11" d="M739.3,266.5v-6.2c0-0.4,0.1-0.8,0.2-1.1c0.1-0.4,0.4-0.7,0.6-0.9c0.3-0.3,0.6-0.5,0.9-0.6
	c0.4-0.1,0.7-0.2,1.1-0.2c0.4,0,0.8,0.1,1.1,0.2c0.4,0.1,0.7,0.4,0.9,0.6c0.3,0.3,0.5,0.6,0.6,0.9c0.1,0.4,0.2,0.7,0.2,1.1v6.2
	H739.3"/>
<line class="st11" x1="745.1" y1="264.9" x2="739.2" y2="264.9"/>
<rect x="728" y="248.1" class="st10" width="6.5" height="8.1"/>
<rect x="728" y="248.1" class="st11" width="6.5" height="8.1"/>
<rect x="729.7" y="248.9" class="st10" width="3.9" height="6.5"/>
<rect x="729.7" y="248.9" class="st11" width="3.9" height="6.5"/>
<path class="st11" d="M591.9,285.6v1.2c2,0,3.9,0.4,5.7,1.1c1.8,0.8,3.5,1.9,4.9,3.3c1.4,1.4,2.5,3,3.3,4.9c0.8,1.8,1.1,3.8,1.1,5.7
	h-15v1.2"/>
<path class="st11" d="M768.6,285.6v1.2c-2,0-3.9,0.4-5.7,1.1c-1.8,0.8-3.5,1.9-4.9,3.3c-1.4,1.4-2.5,3-3.3,4.9
	c-0.8,1.8-1.1,3.8-1.1,5.7h15v1.2"/>
<path class="st11" d="M625.4,228.6h-1.2c0,1.6-0.3,3.2-0.9,4.7c-0.6,1.5-1.5,2.8-2.7,4c-1.1,1.1-2.5,2-4,2.7
	c-1.5,0.6-3.1,0.9-4.7,0.9v-12.3h-1.2"/>
<path class="st11" d="M735.1,228.6h1.2c0,1.6,0.3,3.2,0.9,4.7c0.6,1.5,1.5,2.8,2.7,4c1.1,1.1,2.5,2,4,2.7c1.5,0.6,3.1,0.9,4.7,0.9
	v-12.3h1.2"/>
<path class="st11" d="M498.4,224v-1.2c-1.9,0-3.9-0.4-5.6-1.1c-1.8-0.7-3.4-1.8-4.8-3.2c-1.4-1.4-2.5-3-3.2-4.8
	c-0.7-1.8-1.1-3.7-1.1-5.6h14.8v-1.2"/>
<path class="st11" d="M862.1,224v-1.2c1.9,0,3.9-0.4,5.6-1.1c1.8-0.7,3.4-1.8,4.8-3.2c1.4-1.4,2.5-3,3.2-4.8
	c0.7-1.8,1.1-3.7,1.1-5.6h-14.8v-1.2"/>
<path class="st11" d="M639.6,228.6v-2.5c-2.2,0-4.4-0.4-6.4-1.3c-2-0.8-3.9-2.1-5.4-3.6c-1.6-1.6-2.8-3.4-3.6-5.4
	c-0.8-2-1.3-4.2-1.3-6.4h16.7v-2.5"/>
<path class="st11" d="M720.8,228.6v-2.5c2.2,0,4.4-0.4,6.4-1.3c2-0.8,3.9-2.1,5.4-3.6c1.6-1.6,2.8-3.4,3.6-5.4
	c0.8-2,1.3-4.2,1.3-6.4h-16.7v-2.5"/>
<path class="st11" d="M641.1,322.1v-1.2c1.9,0,3.9-0.4,5.6-1.1c1.8-0.7,3.4-1.8,4.8-3.2c1.4-1.4,2.5-3,3.2-4.8
	c0.7-1.8,1.1-3.7,1.1-5.6h-14.8V305"/>
<line class="st11" x1="559.6" y1="302.3" x2="556.2" y2="302.3"/>
<line class="st11" x1="804.1" y1="353.1" x2="800.7" y2="353.1"/>
<rect x="534.9" y="233.2" class="st10" width="11.5" height="12.6"/>
<rect x="534.9" y="233.2" class="st11" width="11.5" height="12.6"/>
<polyline class="st10" points="534.9,234.9 544.7,234.9 544.7,244.1 534.9,244.1 534.9,234.9 "/>
<rect x="534.9" y="234.9" class="st11" width="9.8" height="9.3"/>
<polyline class="st10" points="500.9,229.3 515.8,229.3 515.8,269.1 500.9,269.1 500.9,229.3 "/>
<rect x="500.9" y="229.3" class="st11" width="14.9" height="39.9"/>
<polyline class="st10" points="515.8,267.4 502.6,267.4 502.6,230.9 515.8,230.9 515.8,267.4 "/>
<rect x="502.6" y="230.9" class="st11" width="13.2" height="36.5"/>
<rect x="520" y="239.7" class="st10" width="8.4" height="18.2"/>
<rect x="520" y="239.7" class="st11" width="8.4" height="18.2"/>
<rect x="534.9" y="253.7" class="st10" width="11.5" height="12.6"/>
<rect x="534.9" y="253.7" class="st11" width="11.5" height="12.6"/>
<polyline class="st10" points="534.9,255.4 544.7,255.4 544.7,264.6 534.9,264.6 534.9,255.4 "/>
<rect x="534.9" y="255.4" class="st11" width="9.8" height="9.3"/>
<rect x="813.9" y="252.3" class="st10" width="11.5" height="12.6"/>
<rect x="813.9" y="252.3" class="st11" width="11.5" height="12.6"/>
<polyline class="st10" points="825.4,263.2 815.6,263.2 815.6,254 825.4,254 825.4,263.2 "/>
<rect x="815.6" y="254" class="st11" width="9.8" height="9.3"/>
<polyline class="st10" points="859.4,269.1 844.2,269.1 844.2,229.3 859.4,229.3 859.4,269.1 "/>
<rect x="844.2" y="229.3" class="st11" width="15.2" height="39.9"/>
<polyline class="st10" points="844.2,230.9 857.7,230.9 857.7,267.4 844.2,267.4 844.2,230.9 "/>
<rect x="844.2" y="230.9" class="st11" width="13.5" height="36.5"/>
<rect x="831.9" y="240.2" class="st10" width="8.1" height="18.2"/>
<rect x="831.9" y="240.2" class="st11" width="8.1" height="18.2"/>
<rect x="813.9" y="232.1" class="st10" width="11.5" height="12.6"/>
<rect x="813.9" y="232.1" class="st11" width="11.5" height="12.6"/>
<polyline class="st10" points="825.4,243 815.6,243 815.6,233.8 825.4,233.8 825.4,243 "/>
<rect x="815.6" y="233.8" class="st11" width="9.8" height="9.3"/>
<polyline class="st11" points="704.2,271.6 707.2,274.6 710.1,271.6 "/>
<polyline class="st11" points="656.3,243.4 653.3,240.4 650.3,243.4 "/>
<path class="st10" d="M562.1,329.9c0-0.7-0.6-1.3-1.3-1.3s-1.3,0.6-1.3,1.3c0,0.7,0.6,1.3,1.3,1.3S562.1,330.6,562.1,329.9"/>
<path class="st11" d="M562.1,329.9c0-0.7-0.6-1.3-1.3-1.3s-1.3,0.6-1.3,1.3c0,0.7,0.6,1.3,1.3,1.3S562.1,330.6,562.1,329.9"/>
<path class="st10" d="M562.1,325.4c0-0.7-0.6-1.3-1.3-1.3s-1.3,0.6-1.3,1.3c0,0.7,0.6,1.3,1.3,1.3S562.1,326.1,562.1,325.4"/>
<path class="st11" d="M562.1,325.4c0-0.7-0.6-1.3-1.3-1.3s-1.3,0.6-1.3,1.3c0,0.7,0.6,1.3,1.3,1.3S562.1,326.1,562.1,325.4"/>
<path class="st10" d="M567.1,325.4c0-0.7-0.6-1.3-1.3-1.3s-1.3,0.6-1.3,1.3c0,0.7,0.6,1.3,1.3,1.3S567.1,326.1,567.1,325.4"/>
<path class="st11" d="M567.1,325.4c0-0.7-0.6-1.3-1.3-1.3s-1.3,0.6-1.3,1.3c0,0.7,0.6,1.3,1.3,1.3S567.1,326.1,567.1,325.4"/>
<path class="st10" d="M567.1,329.9c0-0.7-0.6-1.3-1.3-1.3s-1.3,0.6-1.3,1.3c0,0.7,0.6,1.3,1.3,1.3S567.1,330.6,567.1,329.9"/>
<path class="st11" d="M567.1,329.9c0-0.7-0.6-1.3-1.3-1.3s-1.3,0.6-1.3,1.3c0,0.7,0.6,1.3,1.3,1.3S567.1,330.6,567.1,329.9"/>
<polyline class="st12" points="426.8,366.8 423.4,366.8 423.4,363.4 426.8,363.4 426.8,366.8 "/>
<rect x="423.4" y="363.4" class="st13" width="3.4" height="3.4"/>
<rect x="182.6" y="37.3" class="st14" width="964" height="649.6"/>
<g>
	<path d="M128.6,603.1c0,2.5-1.8,4.4-4.4,4.4c-2.6,0-4.4-1.8-4.4-4.4c0-2.5,1.8-4.4,4.4-4.4C126.8,598.7,128.6,600.5,128.6,603.1z
		 M121.2,603.1c0,1.8,1.3,3.1,3,3.1c1.8,0,3-1.3,3-3.1c0-1.8-1.3-3.1-3-3.1C122.4,599.9,121.2,601.2,121.2,603.1z"/>
	<path d="M137.1,599.8l-0.8,1c-0.5-0.5-1.4-0.9-2.4-0.9c-1.9,0-3,1.3-3,3.1c0,1.8,1.2,3.1,3.1,3.1c1.9,0,2.8-1.4,2.9-2.4l0,0
		c-0.1,0.1-0.3,0.1-0.8,0.1h-2v-1.2h4.2v0.5c0,2.2-1.4,4.4-4.2,4.4c-2.5,0-4.5-1.7-4.5-4.4c0-2.6,1.8-4.4,4.5-4.4
		C135.3,598.7,136.4,599.2,137.1,599.8z"/>
</g>
<polyline class="st14" points="182.6,1402.1 182.6,37.3 1139.2,37.3 1139.2,1402.1 "/>
<g>
	<defs>
		<rect id="SVGID_7_" x="182.6" y="37.3" width="570.4" height="339.4"/>
	</defs>
	<clipPath id="SVGID_2_">
		<use xlink:href="#SVGID_7_"  style="overflow:visible;"/>
	</clipPath>
</g>
<polyline class="st14" points="182.6,1402.2 182.6,37.3 1139.3,37.3 1139.3,1402.2 "/>
<rect x="704.8" y="688.5" class="st23" width="576" height="233.5"/>
<rect x="19.8" y="693.5" class="st23" width="576" height="233.5"/>
</svg>
