<?xml version="1.0" encoding="utf-8"?>
<!-- Generator: Adobe Illustrator 19.1.0, SVG Export Plug-In . SVG Version: 6.00 Build 0)  -->
<svg version="1.1" id="Ebene_1" xmlns="http://www.w3.org/2000/svg" xmlns:xlink="http://www.w3.org/1999/xlink" x="0px" y="0px"
	 viewBox="0 0 1280 720" style="enable-background:new 0 0 1280 720;" xml:space="preserve">
<style type="text/css">
	.st0{fill:none;stroke:#161615;stroke-width:0.25;stroke-miterlimit:10;}
	.st1{fill:none;stroke:#161615;stroke-width:0.25;stroke-linecap:round;stroke-linejoin:round;stroke-miterlimit:10;}
	.st2{fill:none;stroke:#161615;stroke-width:0.25;stroke-linejoin:round;stroke-miterlimit:10;}
	.st3{fill:#FFFFFF;stroke:#161615;stroke-width:0.25;stroke-miterlimit:10;}
	.st4{fill-rule:evenodd;clip-rule:evenodd;fill:none;}
	.st5{fill-rule:evenodd;clip-rule:evenodd;fill:none;stroke:#161615;stroke-width:0.25;stroke-miterlimit:10;}
	.st6{font-family:'GTEestiProText-Regular';}
	.st7{font-size:12px;}
</style>
<text transform="matrix(1 0 0 1 106.6652 605.6635)" class="st6 st7">Schnitt</text>
<path class="st1" d="M714.5,199.6v-32 M714.5,167.6h9.8v32.3"/>
<rect x="714.2" y="156.3" class="st2" width="10.5" height="0.6"/>
<polygon class="st2" points="711.3,162.2 714.2,167.6 724.6,167.6 727.6,162.2 "/>
<polygon class="st2" points="711.3,162.2 714.2,156.9 724.6,156.9 727.6,162.2 "/>
<rect x="714.2" y="167.6" class="st2" width="10.5" height="0.6"/>
<polygon class="st0" points="713.5,171.9 723.3,171.9 723.2,199.9 721,199.8 717.2,199.7 713.5,199.6 "/>
<path class="st1" d="M713.5,199.6v-27.7 M713.5,171.9h9.8l0,27.9"/>
<rect x="713.1" y="160.8" class="st0" width="10.4" height="0.6"/>
<rect x="713.1" y="160.8" class="st2" width="10.4" height="0.6"/>
<polygon class="st0" points="710.1,166.6 713.5,171.9 723.3,171.9 726.7,166.6 "/>
<polygon class="st2" points="710.1,166.6 713.5,171.9 723.3,171.9 726.7,166.6 "/>
<polygon class="st0" points="710.1,166.6 713.1,161.3 723.5,161.3 726.7,166.6 "/>
<polygon class="st2" points="710.1,166.6 713.1,161.3 723.5,161.3 726.7,166.6 "/>
<rect x="530" y="362.9" class="st1" width="13.8" height="47.4"/>
<rect x="516.6" y="362.9" class="st1" width="13.3" height="47.4"/>
<rect x="501.8" y="359.5" class="st1" width="56.7" height="3.4"/>
<g>
	<path class="st2" d="M687.8,388.6L687.8,388.6c0-0.3-0.3-0.6-0.6-0.6c-0.3,0-0.6,0.3-0.6,0.6c0,0.3,0.3,0.6,0.6,0.6
		C687.5,389.2,687.8,388.9,687.8,388.6"/>
	<path class="st2" d="M687.8,390.3L687.8,390.3c0-0.3-0.3-0.6-0.6-0.6c-0.3,0-0.6,0.3-0.6,0.6c0,0.3,0.3,0.6,0.6,0.6
		C687.5,390.9,687.8,390.7,687.8,390.3"/>
</g>
<rect x="685" y="364.5" class="st1" width="19.6" height="45.8"/>
<rect x="687" y="388.4" class="st0" width="2.9" height="0.3"/>
<rect x="687" y="388.4" class="st1" width="2.9" height="0.3"/>
<rect x="683.6" y="363.2" class="st1" width="22.3" height="47.1"/>
<rect x="937.1" y="98" class="st1" width="6.5" height="95"/>
<rect x="944.8" y="160.7" class="st1" width="5.4" height="32.6"/>
<path class="st0" d="M939.9,201.3l63.8,4.2v15.8h1.1v48.9h-64.8V201.3z M575.3,333.2v-57.8h39.8v57.3v0.4H575.3 M212,333.2h-40
	v-57.8h40V333.2z M931.6,420.7h119.9v69.9H972V487h-40.4V420.7 M315.6,332.8H214.1v-57.3h101.5V332.8z M793.8,490.7h-68.4v-69.9
	h68.4V490.7z M843.3,333.2h-39.8v-57.8h39.8V333.2z M665,275.4v8.5h1.1v48.9h-46.7v-57.3H665 M1006.9,275.4h44.5v57.8h-44.5V275.4z
	 M711.3,414.6v-75.8h1.1v-63.4v-66.3l10.9,0.3v123.3h-2.2v81.9H711.3 M801.3,283.9v48.9h-75.9v-57.3h74.8v8.5H801.3 M867.1,487H865
	v-66.3h63.3V487H867.1 M708,333.2h-39.8v-57.8H708V333.2z M797.6,420.7h63v69.9h-63V420.7z M431.1,270.2H320v-63.8l111.1-3.4V270.2
	 M575.3,205.2l39.8,1.1v63.9v0.4h-39.8V205.2 M739.3,414.6h-13.9v-75.8h13.9V414.6z M320,275.4h111.1v57.3H320V275.4z M895.8,275.4
	h39.8v57.3v0.4h-39.8V275.4 M1003.7,275.4v8.5h1.1v48.9h-64.8v-57.3H1003.7 M843.3,205.8v64.4H725.4v-60.7l38,1.1L843.3,205.8
	 M442,414.6H226.1v-75.8H442V414.6z M721.1,420.7V487H530.6v0.2l-41.1,2h-2.2l-41.1-2v-54.5h0v-10.5h0v-1.5H721.1 M483,275.4h39.8
	v57.8H483V275.4z M573.2,270.2h-46v-66.4l45,1.3v16.2h1.1V270.2 M708,209v61.6h-39.8v-62.8L708,209 M619.4,206.4l45.6,1.3v13.6h1.1
	v48.9h-46.7V206.4 M214,209.7l101.6-3.1v63.6H214.1L214,209.7L214,209.7 M600.1,414.6v-52.3h-3.5v52.3h-93.8v-52.3h-3.5v52.3h-53
	v-75.8h235.9v75.8H600.1 M892.6,221.3h1.1v48.9h-46v-64.6l45-2.7V221.3 M171.4,211l40.5-1.2v60.9h-40.5V211 M527.1,332.8v-57.3h45
	v8.5h1.1v48.9H527.1 M480.8,221.3v48.9h-45.4v-67.3l28.7-0.9l15.8,0.5h-0.2v18.9H480.8 M480.8,283.9v48.9h-45.4v-57.3h44.3v8.5
	H480.8 M709.1,414.6h-24.2v-75.8h24.2V414.6z M522.8,270.6H483v-68.1l39.8,1.1V270.6 M892.6,275.4v8.5h1.1v48.9h-46v-57.3H892.6
	 M930.4,200.7l5.2,0.3v69.2v0.4h-39.8v-67.9L930.4,200.7 M1006.9,270.6v-64.9l44.5,3v61.9H1006.9 M1055.2,338.8v-5.6V208.7l0-4.5
	l-124.8-8.3l-167,9.9l-299.3-8.6l-296.5,9.1v4.7v59.6v4.8v57.8v5.6h54.6v75.8h0l-50.3,1.1v-6.1l-9.6-0.2v77.7h0v8.5h0v23.2H157v6.5
	h17.4v-6.5h-5.4v-23.2h271.9v-8.5l-18.2,0.3l-172.1,0.1l-81.6-0.4h-1.1v-54.5h0v-10.5h4.1h50.3h218.6v73.4h96.2v-2.2h181.8v3.7
	h148.2v-3.7h98.3v3.7h83.3v36.9h-2.2v6.5h10.9v-6.5h-2.2V414.6h0v-19.6h-3.8v19.6H741.5v-75.8h84.2v24.4h3.8v-24.4H981v24.4h4.3
	v-24.4h66v21.5h3.8V338.8"/>
<path class="st1" d="M939.9,201.3l63.8,4.2v15.8h1.1v48.9h-64.8V201.3 M575.3,333.2v-57.8h39.8v57.3v0.4H575.3 M212,333.2h-40v-57.8
	h40V333.2z M931.6,420.7h119.9v69.9H972V487h-40.4V420.7 M315.6,332.8H214.1v-57.3h101.5V332.8z M793.8,490.7h-68.4v-69.9h68.4
	V490.7z M843.3,333.2h-39.8v-57.8h39.8V333.2z M665,275.4v8.5h1.1v48.9h-46.7v-57.3H665 M1006.9,275.4h44.5v57.8h-44.5V275.4z
	 M711.3,414.6v-75.8h1.1v-63.4v-66.3l10.9,0.3v123.3h-2.2v81.9H711.3 M801.3,283.9v48.9h-75.9v-57.3h74.8v8.5H801.3 M867.1,487H865
	v-66.3h63.3V487H867.1 M708,333.2h-39.8v-57.8H708V333.2z M797.6,420.7h63v69.9h-63V420.7z M431.1,270.2H320v-63.8l111.1-3.4V270.2
	 M575.3,205.2l39.8,1.1v63.9v0.4h-39.8V205.2 M739.3,414.6h-13.9v-75.8h13.9V414.6z M320,275.4h111.1v57.3H320V275.4z M895.8,275.4
	h39.7v57.3v0.4h-39.7V275.4 M1003.7,275.4v8.5h1.1v48.9h-64.8v-57.3H1003.7 M843.3,205.8v64.4H725.4v-60.7l38,1.1L843.3,205.8
	 M442,414.6H226.1v-75.8H442V414.6z M721.1,420.7V487H530.6v0.2l-41.1,2h-2.2l-41.1-2v-54.5h0v-10.5h0v-1.5H721.1 M483,275.4h39.8
	v57.8H483V275.4z M573.2,270.2h-46v-66.4l45,1.3v16.2h1.1V270.2 M708,209v61.6h-39.7v-62.8L708,209 M619.4,206.4l45.6,1.3v13.6h1.1
	v48.9h-46.7V206.4 M214,209.7l101.6-3.1v63.6H214.1L214,209.7L214,209.7 M600.1,414.6v-52.3h-3.5v52.3h-93.8v-52.3h-3.5v52.3h-53
	v-75.8h235.9v75.8H600.1 M892.6,221.3h1.1v48.9h-46v-64.6l45-2.7V221.3 M171.4,211l40.5-1.2v60.9h-40.5V211 M527.1,332.8v-57.3h45
	v8.5h1.1v48.9H527.1 M480.8,221.3v48.9h-45.4v-67.3l28.7-0.9l15.8,0.5h-0.2v18.9H480.8 M480.8,283.9v48.9h-45.4v-57.3h44.3v8.5
	H480.8 M709.1,414.6h-24.2v-75.8h24.2V414.6z M522.8,270.6H483v-68.1l39.8,1.1V270.6 M892.6,275.4v8.5h1.1v48.9h-46v-57.3H892.6
	 M930.4,200.7l5.2,0.3v69.2v0.4h-39.7v-67.9L930.4,200.7 M1006.9,270.6v-64.9l44.5,3v61.9H1006.9 M867.1,493.5h98.3v3.7h83.3v36.9
	h-2.2v6.5h10.9v-6.5h-2.2V414.6h0v-19.6h-3.8v19.6H741.5v-75.8h84.2v24.4h3.8v-24.4H981v24.4h4.3v-24.4h66v21.5h3.8v-21.5
	 M222.3,422.2h218.6v73.4h96.2v-2.2h181.8v3.7h148.2 M440.9,487.2l-18.2,0.3l-172.1,0.1l-81.6-0.4h-1.1v-54.5h0v-10.5h4.1h50.3
	 M1055.2,338.8l0-5.6V208.7l0-4.5l-124.8-8.3l-167,9.9l-299.3-8.6l-296.5,9.1v4.7v59.6v4.8v57.8v5.6h54.6v75.8h0l-50.3,1.1v-6.1
	l-9.6-0.2v77.7h0v8.5h0v23.2H157v6.5h17.4v-6.5h-5.4v-23.2h271.9"/>
<line class="st1" x1="167.9" y1="486.3" x2="440.9" y2="486.3"/>
<polygon class="st0" points="167.6,338.8 167.6,206.3 464.2,197.2 464.2,192.4 180.5,201.2 180.5,202.1 167.6,202.5 162.4,202.6 
	162.4,343.2 217.1,343.2 217.1,414.8 222.3,414.8 222.3,338.8 "/>
<path class="st1" d="M464.2,192.4l-283.7,8.7l0,0.9l-12.9,0.4l-5.2,0.2v140.5h54.6v71.6h5.2v-76h-54.6 M167.6,338.8V206.3l296.5-9.1
	"/>
<rect x="865" y="420.7" class="st0" width="2.6" height="66.3"/>
<rect x="865" y="420.7" class="st1" width="2.6" height="66.3"/>
<polygon class="st0" points="528.9,422.9 528.9,486.3 530.6,486.3 530.6,420.7 446.3,420.7 446.3,422.9 "/>
<polygon class="st2" points="528.9,422.9 528.9,486.3 530.6,486.3 530.6,420.7 446.3,420.7 446.3,422.9 "/>
<polygon class="st0" points="1055.2,204.2 1055.2,354.7 1060.4,354.7 1060.4,200.7 1055.2,200.3 1055.2,200.3 1042.5,199.5 
	1042.5,198.6 930.4,191.1 930.4,195.9 "/>
<path class="st1" d="M930.4,195.9l124.8,8.3 M1055.2,204.2v150.5h5.2l0-154l-5.2-0.4v0l-12.7-0.8l0.1-0.9l-112.1-7.4"/>
<polygon class="st0" points="440.9,422.3 167.9,422.3 167.9,424.4 437.6,424.4 437.6,487.3 440.9,487.3 "/>
<polygon class="st2" points="440.9,422.3 167.9,422.3 167.9,424.4 437.6,424.4 437.6,487.3 440.9,487.3 "/>
<polygon class="st0" points="464.2,197.2 763.4,205.8 763.4,201 464.2,192.4 "/>
<path class="st1" d="M763.4,201l-299.3-8.6 M464.2,197.2l299.3,8.6"/>
<polygon class="st0" points="930.4,195.9 763.4,205.8 763.4,201 930.4,191.1 "/>
<path class="st1" d="M763.4,201l167-9.9 M930.4,195.9l-167,9.9"/>
<rect x="725.5" y="275.4" class="st1" width="12.3" height="54.5"/>
<polygon class="st0" points="162,343.7 216.7,343.7 216.7,411.8 217,411.8 217,343.2 162.4,343.2 162.4,202.6 162,202.6 "/>
<polygon class="st2" points="162,343.7 216.7,343.7 216.7,411.8 217,411.8 217,343.2 162.4,343.2 162.4,202.6 162,202.6 "/>
<polygon class="st2" points="172,343.7 162.4,343.7 162.4,409.4 172,409.7 "/>
<rect x="226.1" y="351.5" class="st2" width="215.9" height="0.8"/>
<g>
	<polyline class="st1" points="162.4,483.2 149.1,483 144,482.5 135.3,482.9 123.9,483.1 -147.9,490.9 	"/>
</g>
<polygon class="st0" points="162,201.8 162,202.6 180.5,202.1 180.5,201.1 "/>
<polygon class="st2" points="162,202.6 180.5,202.1 180.5,201.1 162,201.8 "/>
<g>
	<path class="st1" d="M157.2,203.9L157.2,203.9c0,1.1,0.9,2,2,2c1.1,0,2-0.9,2-2"/>
	<path class="st1" d="M157.1,205.4L157.1,205.4c0.8,1.2,2.5,1.5,3.6,0.6c0.2-0.2,0.5-0.4,0.6-0.6"/>
</g>
<line class="st1" x1="161.3" y1="205.5" x2="161.3" y2="201.7"/>
<line class="st1" x1="157.1" y1="205.5" x2="157.1" y2="204"/>
<g>
	<path class="st2" d="M157.1,204L157.1,204c0-0.1-0.1-0.2-0.2-0.2c-0.1,0-0.2,0.1-0.2,0.2c0,0.1,0.1,0.2,0.2,0.2
		C157,204.2,157.1,204.1,157.1,204"/>
	<path class="st1" d="M157.2,204.1L157.2,204.1c0.1-0.2-0.1-0.4-0.3-0.5c-0.2-0.1-0.4,0.1-0.5,0.3c0,0,0,0.1,0,0.1"/>
</g>
<line class="st1" x1="161.1" y1="204" x2="161.1" y2="201.8"/>
<line class="st1" x1="161.3" y1="201.7" x2="171.1" y2="201.4"/>
<line class="st1" x1="156.5" y1="203.9" x2="156.4" y2="204.2"/>
<line class="st1" x1="156.4" y1="204.2" x2="156.4" y2="203.6"/>
<line class="st1" x1="156.4" y1="203.6" x2="160.9" y2="201.3"/>
<line class="st1" x1="160.9" y1="201.3" x2="164.4" y2="201.2"/>
<polyline class="st1" points="162.4,415.8 158.5,415.9 158.1,416.6 162.4,416.4 "/>
<rect x="169" y="387.9" class="st1" width="0.8" height="21.7"/>
<polygon class="st2" points="169,387.9 169,388.4 168.5,388.4 168.5,387.5 170.2,387.5 170.2,388.4 169.8,388.4 169.8,387.9 "/>
<polygon class="st0" points="533.8,420.7 530.6,420.7 530.6,487.4 533.8,487.4 533.8,431.5 "/>
<polygon class="st2" points="533.8,420.7 530.6,420.7 530.6,487.4 533.8,487.4 533.8,431.5 "/>
<line class="st1" x1="446.3" y1="486.3" x2="530.6" y2="486.3"/>
<rect x="1060.5" y="395.2" class="st0" width="0.4" height="107.8"/>
<rect x="1060.5" y="395.2" class="st2" width="0.4" height="107.8"/>
<line class="st1" x1="342.7" y1="338.9" x2="342.7" y2="339.2"/>
<line class="st1" x1="342.7" y1="340" x2="342.7" y2="340.4"/>
<line class="st1" x1="342.7" y1="341.1" x2="342.7" y2="341.5"/>
<line class="st1" x1="342.7" y1="342.2" x2="342.7" y2="342.6"/>
<line class="st1" x1="342.7" y1="343.3" x2="342.7" y2="343.7"/>
<line class="st1" x1="342.7" y1="344.4" x2="342.7" y2="344.8"/>
<line class="st1" x1="342.7" y1="345.5" x2="342.7" y2="345.9"/>
<line class="st1" x1="342.7" y1="346.6" x2="342.7" y2="347"/>
<line class="st1" x1="342.7" y1="347.7" x2="342.7" y2="348.1"/>
<line class="st1" x1="342.7" y1="348.8" x2="342.7" y2="349.2"/>
<line class="st1" x1="342.7" y1="349.9" x2="342.7" y2="350.3"/>
<line class="st1" x1="342.7" y1="351" x2="342.7" y2="351.4"/>
<line class="st1" x1="342.7" y1="352.1" x2="342.7" y2="352.5"/>
<line class="st1" x1="342.7" y1="353.2" x2="342.7" y2="353.6"/>
<line class="st1" x1="342.7" y1="354.3" x2="342.7" y2="354.7"/>
<line class="st1" x1="342.7" y1="355.4" x2="342.7" y2="355.8"/>
<line class="st1" x1="342.7" y1="356.5" x2="342.7" y2="356.9"/>
<line class="st1" x1="342.7" y1="357.6" x2="342.7" y2="358"/>
<line class="st1" x1="342.7" y1="358.7" x2="342.7" y2="359.1"/>
<line class="st1" x1="342.7" y1="359.8" x2="342.7" y2="360.2"/>
<line class="st1" x1="342.7" y1="360.9" x2="342.7" y2="361.3"/>
<line class="st1" x1="342.7" y1="362.1" x2="342.7" y2="362.4"/>
<line class="st1" x1="342.7" y1="363.2" x2="342.7" y2="363.5"/>
<line class="st1" x1="342.7" y1="364.3" x2="342.7" y2="364.6"/>
<line class="st1" x1="342.7" y1="365.4" x2="342.7" y2="365.7"/>
<line class="st1" x1="342.7" y1="366.5" x2="342.7" y2="366.8"/>
<line class="st1" x1="342.7" y1="367.6" x2="342.7" y2="367.9"/>
<line class="st1" x1="342.7" y1="368.7" x2="342.7" y2="369"/>
<line class="st1" x1="342.7" y1="369.8" x2="342.7" y2="370.1"/>
<line class="st1" x1="342.7" y1="370.9" x2="342.7" y2="371.2"/>
<line class="st1" x1="342.7" y1="372" x2="342.7" y2="372.4"/>
<line class="st1" x1="342.7" y1="373.1" x2="342.7" y2="373.5"/>
<line class="st1" x1="342.7" y1="374.2" x2="342.7" y2="374.6"/>
<line class="st1" x1="342.7" y1="375.3" x2="342.7" y2="375.7"/>
<line class="st1" x1="342.7" y1="376.4" x2="342.7" y2="376.8"/>
<line class="st1" x1="342.7" y1="377.5" x2="342.7" y2="377.9"/>
<line class="st1" x1="342.7" y1="378.6" x2="342.7" y2="379"/>
<line class="st1" x1="342.7" y1="379.7" x2="342.7" y2="380.1"/>
<line class="st1" x1="342.7" y1="380.8" x2="342.7" y2="381.2"/>
<line class="st1" x1="342.7" y1="381.9" x2="342.7" y2="382.3"/>
<line class="st1" x1="342.7" y1="383" x2="342.7" y2="383.4"/>
<line class="st1" x1="342.7" y1="384.1" x2="342.7" y2="384.5"/>
<line class="st1" x1="342.7" y1="385.2" x2="342.7" y2="385.6"/>
<line class="st1" x1="342.7" y1="386.3" x2="342.7" y2="386.7"/>
<line class="st1" x1="342.7" y1="387.4" x2="342.7" y2="387.8"/>
<line class="st1" x1="342.7" y1="388.5" x2="342.7" y2="388.9"/>
<line class="st1" x1="342.7" y1="389.6" x2="342.7" y2="390"/>
<line class="st1" x1="342.7" y1="390.7" x2="342.7" y2="391.1"/>
<line class="st1" x1="342.7" y1="391.8" x2="342.7" y2="392.2"/>
<line class="st1" x1="342.7" y1="392.9" x2="342.7" y2="393.3"/>
<line class="st1" x1="342.7" y1="394.1" x2="342.7" y2="394.4"/>
<line class="st1" x1="342.7" y1="395.2" x2="342.7" y2="395.5"/>
<line class="st1" x1="342.7" y1="396.3" x2="342.7" y2="396.6"/>
<line class="st1" x1="342.7" y1="397.4" x2="342.7" y2="397.7"/>
<line class="st1" x1="342.7" y1="398.5" x2="342.7" y2="398.8"/>
<line class="st1" x1="342.7" y1="399.6" x2="342.7" y2="399.9"/>
<line class="st1" x1="342.7" y1="400.7" x2="342.7" y2="401"/>
<line class="st1" x1="342.7" y1="401.8" x2="342.7" y2="402.1"/>
<line class="st1" x1="342.7" y1="402.9" x2="342.7" y2="403.2"/>
<line class="st1" x1="342.7" y1="404" x2="342.7" y2="404.4"/>
<line class="st1" x1="342.7" y1="405.1" x2="342.7" y2="405.5"/>
<line class="st1" x1="342.7" y1="406.2" x2="342.7" y2="406.6"/>
<line class="st1" x1="342.7" y1="407.3" x2="342.7" y2="407.7"/>
<line class="st1" x1="342.7" y1="408.4" x2="342.7" y2="408.8"/>
<line class="st1" x1="342.7" y1="409.5" x2="342.7" y2="409.9"/>
<line class="st1" x1="342.7" y1="410.1" x2="342.7" y2="410.3"/>
<rect x="684.9" y="351.5" class="st2" width="24.2" height="0.8"/>
<polygon class="st0" points="1054.8,390.8 1054.8,390.8 1054.9,390.8 1055.1,390.8 1055.9,390.8 1056.2,390.8 1056.2,390.5 
	1056.2,390.5 1056.2,390.5 1056.3,390.5 1056.3,390.4 1056.3,390.4 1056.3,390.4 1056.5,390.5 1056.6,390.5 1056.6,390.5 
	1056.6,390.9 1056.6,391 1056.5,391 1056.5,391 1056.4,391 1056.4,391 1056.4,391.2 1056.4,391.3 1056.4,391.3 1056.2,391.3 
	1056.1,391.3 1056,391.3 1056,391.3 1056,391.5 1056,391.5 1056,391.5 1055.3,391.5 1055.1,391.5 1055.1,391.9 1055.1,392 
	1055.1,392 1054.9,392 1054.8,392 1054.8,391.9 "/>
<polyline class="st1" points="1054.8,390.8 1054.8,390.8 1054.9,390.8 1055.1,390.8 1055.9,390.8 1056.2,390.8 1056.2,390.5 
	1056.2,390.5 1056.2,390.5 1056.3,390.5 1056.3,390.4 1056.3,390.4 1056.3,390.4 1056.5,390.5 1056.6,390.5 1056.6,390.5 
	1056.6,390.9 1056.6,391 1056.5,391 1056.5,391 1056.4,391 1056.4,391 1056.4,391.2 1056.4,391.3 1056.4,391.3 1056.2,391.3 
	1056.1,391.3 1056,391.3 1056,391.3 1056,391.5 1056,391.5 1056,391.5 1055.3,391.5 1055.1,391.5 1055.1,391.9 1055.1,392 
	1055.1,392 1054.9,392 1054.8,392 1054.8,391.9 1054.8,390.8 "/>
<polygon class="st0" points="1055.2,362.5 1054.9,362.5 1054.8,362.5 1054.8,362.5 1054.8,362.8 1054.8,362.8 1054.9,362.8 
	1055.1,362.8 1055.1,362.8 1055.1,362.8 1055.1,362.7 1055.2,362.7 1055.2,362.7 1055.2,362.7 1055.2,362.5 1055.2,362.5 "/>
<polyline class="st1" points="1054.8,362.5 1054.8,362.5 1054.9,362.5 1055.2,362.5 1055.2,362.5 1055.2,362.5 1055.2,362.7 
	1055.2,362.7 1055.2,362.7 1055.1,362.7 1055.1,362.8 1055.1,362.8 1055.1,362.8 1054.9,362.8 1054.8,362.8 1054.8,362.8 
	1054.8,362.5 "/>
<path class="st0" d="M1056.2,362.7L1056.2,362.7l0,0.2l0.1,0l0,0L1056.2,362.7L1056.2,362.7L1056.2,362.7z M1056.2,362.7
	L1056.2,362.7L1056.2,362.7z"/>
<polyline class="st1" points="1056.3,362.8 1056.3,362.7 1056.2,362.7 1056.2,362.7 1056.2,362.7 1056.2,362.9 1056.3,362.8 
	1056.3,362.8 1056.3,362.8 "/>
<polygon class="st0" points="1055.1,362.7 1055.1,362.8 1055.1,362.8 1055.1,362.8 1055.2,362.9 1055.2,362.7 "/>
<polyline class="st1" points="1055.1,362.8 1055.1,362.7 1055.2,362.7 1055.2,362.9 1055.1,362.8 1055.1,362.8 1055.1,362.8 "/>
<polygon class="st0" points="1054.8,362.4 1054.8,362.5 1054.9,362.5 1055.1,362.5 1055.9,362.5 1056.2,362.5 1056.2,362.7 
	1056.2,362.7 1056.2,362.7 1056.3,362.7 1056.3,362.8 1056.3,362.8 1056.3,362.8 1056.5,362.7 1056.6,362.7 1056.6,362.7 
	1056.6,362.3 1056.6,362.2 1056.5,362.2 1056.5,362.2 1056.4,362.2 1056.4,362.2 1056.4,362 1056.4,362 1056.4,362 1056.2,362 
	1056.1,362 1056,362 1056,361.9 1056,361.7 1056,361.7 1056,361.7 1055.3,361.7 1055.1,361.7 1055.1,361.3 1055.1,361.3 
	1055.1,361.3 1054.9,361.3 1054.8,361.3 1054.8,361.3 "/>
<polyline class="st1" points="1054.8,362.4 1054.8,362.5 1054.9,362.5 1055.1,362.5 1055.9,362.5 1056.2,362.5 1056.2,362.7 
	1056.2,362.7 1056.2,362.7 1056.3,362.7 1056.3,362.8 1056.3,362.8 1056.3,362.8 1056.5,362.7 1056.6,362.7 1056.6,362.7 
	1056.6,362.3 1056.6,362.2 1056.5,362.2 1056.5,362.2 1056.4,362.2 1056.4,362.2 1056.4,362 1056.4,362 1056.4,362 1056.2,362 
	1056.1,362 1056,362 1056,361.9 1056,361.7 1056,361.7 1056,361.7 1055.3,361.7 1055.1,361.7 1055.1,361.3 1055.1,361.3 
	1055.1,361.3 1054.9,361.3 1054.8,361.3 1054.8,361.3 1054.8,362.4 "/>
<polygon class="st0" points="1055.3,358.7 1055.3,358.8 1055.3,361.4 1055.3,361.4 1055.3,361.4 1056.1,361.4 1056.2,361.4 
	1056.2,361.6 1056.2,361.7 1056.2,361.7 1056.2,361.7 1056.4,361.7 1056.4,361.7 1056.4,361.7 1056.4,362.1 1056.4,362.1 
	1056.5,362.1 1056.7,362 1056.7,362 1056.7,362 1056.7,358.8 1056.7,358.7 "/>
<polyline class="st1" points="1055.3,361.4 1055.3,361.4 1055.3,361.4 1056.1,361.4 1056.2,361.4 1056.2,361.6 1056.2,361.7 
	1056.2,361.7 1056.2,361.7 1056.4,361.7 1056.4,361.7 1056.4,361.7 1056.4,362.1 1056.4,362.1 1056.5,362.1 1056.7,362 1056.7,362 
	1056.7,362 1056.7,358.7 1056.7,358.7 1055.3,358.7 1055.3,358.7 1055.3,361.4 "/>
<polygon class="st0" points="1054.9,390.4 1054.8,390.4 1054.8,390.4 1054.8,390.7 1054.8,390.8 1054.9,390.8 1055.2,390.8 
	1055.2,390.8 1055.2,390.7 1055.2,390.5 1055.2,390.5 1055.2,390.5 1055.1,390.5 1055.1,390.4 1055.1,390.4 1055.1,390.4 "/>
<polyline class="st1" points="1054.8,390.7 1054.8,390.8 1054.9,390.8 1055.2,390.8 1055.2,390.8 1055.2,390.7 1055.2,390.5 
	1055.2,390.5 1055.2,390.5 1055.1,390.5 1055.1,390.4 1055.1,390.4 1055.1,390.4 1054.9,390.4 1054.8,390.4 1054.8,390.4 
	1054.8,390.7 "/>
<path class="st0" d="M1056.2,390.5L1056.2,390.5L1056.2,390.5z M1056.2,390.5L1056.2,390.5L1056.2,390.5l0.1-0.1l0,0l0,0l-0.1,0
	V390.5z"/>
<polyline class="st1" points="1056.3,390.4 1056.3,390.5 1056.2,390.5 1056.2,390.5 1056.2,390.5 1056.2,390.3 1056.3,390.4 
	1056.3,390.4 1056.3,390.4 "/>
<polygon class="st0" points="1055.1,390.4 1055.1,390.4 1055.1,390.4 1055.1,390.5 1055.2,390.5 1055.2,390.3 "/>
<polyline class="st1" points="1055.1,390.4 1055.1,390.5 1055.2,390.5 1055.2,390.3 1055.1,390.4 1055.1,390.4 1055.1,390.4 "/>
<rect x="1055.2" y="390.7" class="st0" width="1" height="0.1"/>
<rect x="1055.2" y="390.7" class="st1" width="1" height="0.1"/>
<line class="st1" x1="1054.8" y1="362.8" x2="1054.8" y2="390.6"/>
<line class="st1" x1="1056.6" y1="362.7" x2="1056.6" y2="390.6"/>
<polygon class="st0" points="1056.4,391.1 1056.4,391.5 1056.4,391.5 1056.4,391.5 1056.4,391.5 1056.4,391.5 1056.2,391.5 
	1056.2,391.5 1056.2,391.5 1056.2,391.8 1055.3,391.8 1055.3,391.8 1055.3,391.8 1055.3,393.3 1055.3,394.8 1055.3,394.8 
	1056.7,394.8 1056.7,394.8 1056.7,392.1 1056.7,391.2 1056.7,391.2 1056.5,391.1 "/>
<polyline class="st1" points="1055.3,393.3 1055.3,393.3 1055.3,394.8 1055.3,394.8 1056.7,394.8 1056.7,394.8 1056.7,392.1 
	1056.7,391.2 1056.7,391.2 1056.5,391.1 1056.4,391.1 1056.4,391.5 1056.4,391.5 1056.4,391.5 1056.4,391.5 1056.4,391.5 
	1056.2,391.5 1056.2,391.5 1056.2,391.5 1056.2,391.8 1055.3,391.8 1055.3,391.8 1055.3,391.8 1055.3,393.3 "/>
<line class="st1" x1="1055.2" y1="390.7" x2="1055.2" y2="362.6"/>
<line class="st1" x1="1056.1" y1="390.7" x2="1056.1" y2="362.6"/>
<rect x="1050.9" y="394" class="st0" width="4.3" height="0.5"/>
<rect x="1050.9" y="394" class="st1" width="4.3" height="0.5"/>
<rect x="1055.2" y="394.8" class="st0" width="1.4" height="1.7"/>
<rect x="1055.2" y="394.8" class="st1" width="1.4" height="1.7"/>
<rect x="1058" y="354.7" class="st1" width="2.5" height="5.4"/>
<line class="st1" x1="1059" y1="356.5" x2="1059" y2="359.9"/>
<line class="st1" x1="1059.9" y1="359.9" x2="1058.2" y2="359.5"/>
<polygon class="st0" points="1056.7,358.7 1056.7,360.1 1058,360.1 1058,354.7 1055.2,354.7 1055.2,358.7 "/>
<polygon class="st2" points="1056.7,358.7 1056.7,360.1 1058,360.1 1058,354.7 1055.2,354.7 1055.2,358.7 "/>
<line class="st1" x1="1059.9" y1="359" x2="1058.2" y2="358.7"/>
<line class="st1" x1="1059.9" y1="358.2" x2="1058.2" y2="357.8"/>
<line class="st1" x1="1059.9" y1="357.4" x2="1058.2" y2="356.9"/>
<rect x="1058.3" y="354.9" class="st1" width="1.6" height="1.7"/>
<polyline class="st1" points="1056.7,394.8 1061.6,395.1 1061.6,395.6 "/>
<line class="st1" x1="1060.8" y1="360.1" x2="1060.8" y2="395"/>
<line class="st1" x1="1051.4" y1="360.3" x2="1051.4" y2="394"/>
<rect x="1051.4" y="394.4" class="st0" width="3.8" height="0.6"/>
<rect x="1051.4" y="394.4" class="st1" width="3.8" height="0.6"/>
<rect x="1060.5" y="200.6" class="st0" width="0.4" height="159.5"/>
<rect x="1060.5" y="200.6" class="st2" width="0.4" height="159.5"/>
<rect x="741.5" y="351.5" class="st2" width="84.2" height="0.8"/>
<rect x="829.6" y="351.5" class="st2" width="151.4" height="0.8"/>
<rect x="985.4" y="351.5" class="st2" width="66" height="0.8"/>
<rect x="1046.7" y="275.4" class="st1" width="1.3" height="57.7"/>
<rect x="528.4" y="275.4" class="st1" width="12.4" height="54.5"/>
<rect x="620.7" y="275.4" class="st1" width="12.4" height="54.5"/>
<rect x="848.9" y="275.4" class="st1" width="12.4" height="54.5"/>
<rect x="941.2" y="275.4" class="st1" width="12.4" height="54.5"/>
<line class="st1" x1="522.8" y1="281" x2="483" y2="281"/>
<line class="st1" x1="522.8" y1="279.6" x2="483" y2="279.6"/>
<rect x="435.4" y="275.4" class="st1" width="12.4" height="54.5"/>
<line class="st1" x1="615.1" y1="281" x2="575.3" y2="281"/>
<line class="st1" x1="615.1" y1="279.6" x2="575.3" y2="279.6"/>
<line class="st1" x1="708.1" y1="281" x2="668.3" y2="281"/>
<line class="st1" x1="708.1" y1="279.6" x2="668.3" y2="279.6"/>
<line class="st1" x1="843.3" y1="281" x2="803.5" y2="281"/>
<line class="st1" x1="843.3" y1="279.6" x2="803.5" y2="279.6"/>
<line class="st1" x1="935.6" y1="281" x2="895.9" y2="281"/>
<line class="st1" x1="935.6" y1="279.6" x2="895.9" y2="279.6"/>
<line class="st1" x1="1046.7" y1="281" x2="1006.9" y2="281"/>
<line class="st1" x1="1046.7" y1="279.6" x2="1006.9" y2="279.6"/>
<rect x="1046.7" y="208.4" class="st1" width="1.3" height="62.3"/>
<rect x="528.4" y="212.8" class="st1" width="12.4" height="54.5"/>
<rect x="620.7" y="212.8" class="st1" width="12.4" height="54.5"/>
<rect x="847.6" y="212.8" class="st1" width="13.7" height="54.5"/>
<line class="st1" x1="522.8" y1="218.5" x2="483" y2="218.5"/>
<line class="st1" x1="522.8" y1="216.9" x2="483" y2="216.9"/>
<rect x="435.4" y="212.8" class="st1" width="12.4" height="54.5"/>
<line class="st1" x1="615.1" y1="218.5" x2="575.3" y2="218.5"/>
<line class="st1" x1="615.1" y1="216.9" x2="575.3" y2="216.9"/>
<line class="st1" x1="708.1" y1="218.5" x2="668.3" y2="218.5"/>
<line class="st1" x1="708.1" y1="216.9" x2="668.3" y2="216.9"/>
<line class="st1" x1="935.6" y1="218.5" x2="895.9" y2="218.5"/>
<line class="st1" x1="935.6" y1="216.9" x2="895.9" y2="216.9"/>
<line class="st1" x1="1046.7" y1="218.5" x2="1006.9" y2="218.5"/>
<line class="st1" x1="1046.7" y1="216.9" x2="1006.9" y2="216.9"/>
<rect x="572.1" y="283.9" class="st0" width="1.1" height="45.8"/>
<rect x="572.1" y="283.9" class="st2" width="1.1" height="45.8"/>
<rect x="479.8" y="283.9" class="st0" width="1.1" height="45.8"/>
<rect x="479.8" y="283.9" class="st2" width="1.1" height="45.8"/>
<rect x="665.1" y="283.9" class="st0" width="1.1" height="45.8"/>
<rect x="665.1" y="283.9" class="st2" width="1.1" height="45.8"/>
<rect x="800.2" y="283.9" class="st0" width="1.1" height="45.8"/>
<rect x="800.2" y="283.9" class="st2" width="1.1" height="45.8"/>
<rect x="892.5" y="283.9" class="st0" width="1.1" height="45.8"/>
<rect x="892.5" y="283.9" class="st2" width="1.1" height="45.8"/>
<rect x="1003.7" y="283.9" class="st0" width="1" height="45.8"/>
<rect x="1003.7" y="283.9" class="st2" width="1" height="45.8"/>
<rect x="572.1" y="221.4" class="st0" width="1.1" height="45.8"/>
<rect x="572.1" y="221.4" class="st2" width="1.1" height="45.8"/>
<rect x="479.8" y="221.4" class="st0" width="1.1" height="45.8"/>
<rect x="479.8" y="221.4" class="st2" width="1.1" height="45.8"/>
<rect x="665.1" y="221.4" class="st0" width="1.1" height="45.8"/>
<rect x="665.1" y="221.4" class="st2" width="1.1" height="45.8"/>
<rect x="892.5" y="221.4" class="st0" width="1.1" height="45.8"/>
<rect x="892.5" y="221.4" class="st2" width="1.1" height="45.8"/>
<rect x="1003.7" y="221.4" class="st0" width="1" height="45.8"/>
<rect x="1003.7" y="221.4" class="st2" width="1" height="45.8"/>
<polygon class="st0" points="1042.4,199.5 1060.9,200.7 1060.9,199.8 1042.5,198.6 "/>
<polygon class="st2" points="1042.4,199.5 1060.9,200.7 1060.9,199.8 1042.5,198.6 "/>
<g>
	<path class="st1" d="M1061.7,201.9L1061.7,201.9c0,1.1,0.9,2,2,2s2-0.9,2-2"/>
	<path class="st1" d="M1061.5,203.4L1061.5,203.4c0.8,1.2,2.5,1.5,3.6,0.6c0.2-0.2,0.5-0.4,0.6-0.6"/>
</g>
<line class="st1" x1="1061.6" y1="203.4" x2="1061.6" y2="199.8"/>
<line class="st1" x1="1065.8" y1="203.4" x2="1065.8" y2="202"/>
<g>
	<path class="st2" d="M1066.3,202L1066.3,202c0-0.1-0.1-0.2-0.2-0.2s-0.2,0.1-0.2,0.2c0,0.1,0.1,0.2,0.2,0.2
		S1066.3,202.1,1066.3,202"/>
	<path class="st1" d="M1066.4,202L1066.4,202c0-0.2-0.2-0.4-0.4-0.4c-0.2,0-0.4,0.2-0.4,0.4c0,0,0,0.1,0,0.1"/>
</g>
<line class="st1" x1="1061.7" y1="202" x2="1061.7" y2="200"/>
<line class="st1" x1="1061.6" y1="199.8" x2="1051.7" y2="199.1"/>
<line class="st1" x1="1066.3" y1="201.9" x2="1066.4" y2="202.1"/>
<line class="st1" x1="1066.4" y1="202.1" x2="1066.5" y2="201.6"/>
<line class="st1" x1="1066.5" y1="201.6" x2="1062.2" y2="199.4"/>
<line class="st1" x1="1062.2" y1="199.4" x2="1058.7" y2="199.2"/>
<polyline class="st1" points="380.9,352.3 380.9,410.3 374.4,410.3 374.4,352.3 "/>
<polyline class="st1" points="374.4,351.5 374.4,338.9 380.9,338.9 380.9,351.5 "/>
<line class="st1" x1="427.8" y1="338.9" x2="427.8" y2="351.5"/>
<line class="st1" x1="427.8" y1="352.3" x2="427.8" y2="410.3"/>
<line class="st1" x1="259" y1="208.3" x2="259" y2="267.3"/>
<line class="st1" x1="353.5" y1="205.4" x2="353.5" y2="267.3"/>
<line class="st1" x1="673.7" y1="420.9" x2="673.7" y2="486.6"/>
<rect x="623.1" y="420.7" class="st2" width="5.4" height="65.6"/>
<rect x="575.1" y="420.7" class="st2" width="5.4" height="65.6"/>
<rect x="797.7" y="430.7" class="st2" width="63" height="0.8"/>
<path class="st1" d="M976.3,425.7h71.8v60.6h-71.8V425.7z M1048.2,422.5v1.1h-71.8v-1.1h-2.2v68.2h2.2v-1.5h71.8v1.5h2.2v-68.2
	H1048.2"/>
<line class="st1" x1="867.2" y1="497.2" x2="867.2" y2="493.5"/>
<line class="st1" x1="860.6" y1="490.7" x2="860.6" y2="487"/>
<line class="st1" x1="854.8" y1="360.1" x2="955.8" y2="360.1"/>
<line class="st1" x1="353.4" y1="275.4" x2="353.4" y2="330"/>
<rect x="712.4" y="270.2" class="st1" width="10.9" height="5.2"/>
<rect x="712.4" y="332.7" class="st1" width="8.6" height="6.2"/>
<g>
	<path class="st2" d="M471.9,308.2L471.9,308.2c0-0.3-0.3-0.6-0.6-0.6s-0.6,0.3-0.6,0.6c0,0.3,0.3,0.6,0.6,0.6
		S471.9,308.5,471.9,308.2"/>
	<path class="st2" d="M471.9,310L471.9,310c0-0.3-0.3-0.6-0.6-0.6s-0.6,0.3-0.6,0.6c0,0.3,0.3,0.6,0.6,0.6S471.9,310.3,471.9,310"/>
</g>
<rect x="452.6" y="284.1" class="st1" width="20.4" height="45.9"/>
<rect x="473" y="284.1" class="st1" width="6.3" height="45.9"/>
<rect x="468.5" y="308.1" class="st0" width="2.8" height="0.3"/>
<rect x="468.5" y="308.1" class="st1" width="2.9" height="0.3"/>
<rect x="452.4" y="283.9" class="st2" width="27.2" height="46.1"/>
<g>
	<path class="st2" d="M471.9,245.7L471.9,245.7c0-0.3-0.3-0.6-0.6-0.6s-0.6,0.3-0.6,0.6c0,0.3,0.3,0.6,0.6,0.6
		S471.9,246,471.9,245.7"/>
	<path class="st2" d="M471.9,247.4L471.9,247.4c0-0.3-0.3-0.6-0.6-0.6s-0.6,0.3-0.6,0.6c0,0.3,0.3,0.6,0.6,0.6
		S471.9,247.8,471.9,247.4"/>
</g>
<rect x="452.6" y="221.5" class="st1" width="20.4" height="45.8"/>
<rect x="473" y="221.5" class="st1" width="6.3" height="45.8"/>
<rect x="468.5" y="245.5" class="st0" width="2.8" height="0.4"/>
<rect x="468.5" y="245.5" class="st1" width="2.9" height="0.4"/>
<rect x="452.4" y="221.4" class="st2" width="27.2" height="46"/>
<g>
	<path class="st2" d="M564.2,308.2L564.2,308.2c0-0.3-0.3-0.6-0.6-0.6c-0.3,0-0.6,0.3-0.6,0.6c0,0.3,0.3,0.6,0.6,0.6
		C563.9,308.8,564.2,308.5,564.2,308.2"/>
	<path class="st2" d="M564.2,310L564.2,310c0-0.3-0.3-0.6-0.6-0.6c-0.3,0-0.6,0.3-0.6,0.6c0,0.3,0.3,0.6,0.6,0.6
		C563.9,310.6,564.2,310.3,564.2,310"/>
</g>
<rect x="545" y="284.1" class="st1" width="20.4" height="45.9"/>
<rect x="565.4" y="284.1" class="st1" width="6.3" height="45.9"/>
<rect x="560.8" y="308.1" class="st0" width="2.9" height="0.3"/>
<rect x="560.8" y="308.1" class="st1" width="2.9" height="0.3"/>
<rect x="544.7" y="283.9" class="st2" width="27.1" height="46.1"/>
<g>
	<path class="st2" d="M564.2,245.7L564.2,245.7c0-0.3-0.3-0.6-0.6-0.6c-0.3,0-0.6,0.3-0.6,0.6c0,0.3,0.3,0.6,0.6,0.6
		C563.9,246.3,564.2,246,564.2,245.7"/>
	<path class="st2" d="M564.2,247.4L564.2,247.4c0-0.3-0.3-0.6-0.6-0.6c-0.3,0-0.6,0.3-0.6,0.6c0,0.3,0.3,0.6,0.6,0.6
		C563.9,248,564.2,247.8,564.2,247.4"/>
</g>
<rect x="545" y="221.5" class="st1" width="20.4" height="45.8"/>
<rect x="565.4" y="221.5" class="st1" width="6.3" height="45.8"/>
<rect x="560.8" y="245.5" class="st0" width="2.9" height="0.4"/>
<rect x="560.8" y="245.5" class="st1" width="2.9" height="0.4"/>
<rect x="544.7" y="221.4" class="st2" width="27.1" height="46"/>
<g>
	<path class="st2" d="M657.1,308.2L657.1,308.2c0-0.3-0.3-0.6-0.6-0.6c-0.3,0-0.6,0.3-0.6,0.6c0,0.3,0.3,0.6,0.6,0.6
		C656.9,308.8,657.1,308.5,657.1,308.2"/>
	<path class="st2" d="M657.1,310L657.1,310c0-0.3-0.3-0.6-0.6-0.6c-0.3,0-0.6,0.3-0.6,0.6c0,0.3,0.3,0.6,0.6,0.6
		C656.9,310.6,657.1,310.3,657.1,310"/>
</g>
<rect x="637.9" y="284.1" class="st1" width="20.4" height="45.9"/>
<rect x="658.3" y="284.1" class="st1" width="6.3" height="45.9"/>
<rect x="653.8" y="308.1" class="st0" width="2.9" height="0.3"/>
<rect x="653.8" y="308.1" class="st1" width="2.9" height="0.3"/>
<rect x="637.6" y="283.9" class="st2" width="27.1" height="46.1"/>
<g>
	<path class="st2" d="M657.1,245.7L657.1,245.7c0-0.3-0.3-0.6-0.6-0.6c-0.3,0-0.6,0.3-0.6,0.6c0,0.3,0.3,0.6,0.6,0.6
		C656.9,246.3,657.1,246,657.1,245.7"/>
	<path class="st2" d="M657.1,247.4L657.1,247.4c0-0.3-0.3-0.6-0.6-0.6c-0.3,0-0.6,0.3-0.6,0.6c0,0.3,0.3,0.6,0.6,0.6
		C656.9,248,657.1,247.8,657.1,247.4"/>
</g>
<rect x="637.9" y="221.5" class="st1" width="20.4" height="45.8"/>
<rect x="658.3" y="221.5" class="st1" width="6.3" height="45.8"/>
<rect x="653.8" y="245.5" class="st0" width="2.9" height="0.4"/>
<rect x="653.8" y="245.5" class="st1" width="2.9" height="0.4"/>
<rect x="637.6" y="221.4" class="st2" width="27.1" height="46"/>
<g>
	<path class="st2" d="M792.4,308.2L792.4,308.2c0-0.3-0.3-0.6-0.6-0.6c-0.3,0-0.6,0.3-0.6,0.6c0,0.3,0.3,0.6,0.6,0.6
		C792.1,308.8,792.4,308.5,792.4,308.2"/>
	<path class="st2" d="M792.4,310L792.4,310c0-0.3-0.3-0.6-0.6-0.6c-0.3,0-0.6,0.3-0.6,0.6c0,0.3,0.3,0.6,0.6,0.6
		C792.1,310.6,792.4,310.3,792.4,310"/>
</g>
<rect x="773.1" y="284.1" class="st1" width="20.5" height="45.9"/>
<rect x="793.6" y="284.1" class="st1" width="6.2" height="45.9"/>
<rect x="789" y="308.1" class="st0" width="2.9" height="0.3"/>
<rect x="789" y="308.1" class="st1" width="2.9" height="0.3"/>
<rect x="772.9" y="283.9" class="st2" width="27.1" height="46.1"/>
<g>
	<path class="st2" d="M884.7,308.2L884.7,308.2c0-0.3-0.3-0.6-0.6-0.6c-0.3,0-0.6,0.3-0.6,0.6c0,0.3,0.3,0.6,0.6,0.6
		C884.5,308.8,884.7,308.5,884.7,308.2"/>
	<path class="st2" d="M884.7,310L884.7,310c0-0.3-0.3-0.6-0.6-0.6c-0.3,0-0.6,0.3-0.6,0.6c0,0.3,0.3,0.6,0.6,0.6
		C884.5,310.6,884.7,310.3,884.7,310"/>
</g>
<rect x="865.4" y="284.1" class="st1" width="20.5" height="45.9"/>
<rect x="885.9" y="284.1" class="st1" width="6.2" height="45.9"/>
<rect x="881.3" y="308.1" class="st0" width="2.9" height="0.3"/>
<rect x="881.3" y="308.1" class="st1" width="2.9" height="0.3"/>
<rect x="865.2" y="283.9" class="st2" width="27.1" height="46.1"/>
<g>
	<path class="st2" d="M884.7,245.7L884.7,245.7c0-0.3-0.3-0.6-0.6-0.6c-0.3,0-0.6,0.3-0.6,0.6c0,0.3,0.3,0.6,0.6,0.6
		C884.5,246.3,884.7,246,884.7,245.7"/>
	<path class="st2" d="M884.7,247.4L884.7,247.4c0-0.3-0.3-0.6-0.6-0.6c-0.3,0-0.6,0.3-0.6,0.6c0,0.3,0.3,0.6,0.6,0.6
		C884.5,248,884.7,247.8,884.7,247.4"/>
</g>
<rect x="865.4" y="221.5" class="st1" width="20.5" height="45.8"/>
<rect x="885.9" y="221.5" class="st1" width="6.2" height="45.8"/>
<rect x="881.3" y="245.5" class="st0" width="2.9" height="0.4"/>
<rect x="881.3" y="245.5" class="st1" width="2.9" height="0.4"/>
<rect x="865.2" y="221.4" class="st2" width="27.1" height="46"/>
<g>
	<path class="st2" d="M995.8,308.2L995.8,308.2c0-0.3-0.3-0.6-0.6-0.6c-0.3,0-0.6,0.3-0.6,0.6c0,0.3,0.3,0.6,0.6,0.6
		C995.5,308.8,995.8,308.5,995.8,308.2"/>
	<path class="st2" d="M995.8,310L995.8,310c0-0.3-0.3-0.6-0.6-0.6c-0.3,0-0.6,0.3-0.6,0.6c0,0.3,0.3,0.6,0.6,0.6
		C995.5,310.6,995.8,310.3,995.8,310"/>
</g>
<rect x="976.6" y="284.1" class="st1" width="20.4" height="45.9"/>
<rect x="997" y="284.1" class="st1" width="6.3" height="45.9"/>
<rect x="992.4" y="308.1" class="st0" width="2.9" height="0.3"/>
<rect x="992.4" y="308.1" class="st1" width="2.9" height="0.3"/>
<rect x="976.3" y="283.9" class="st2" width="27.1" height="46.1"/>
<g>
	<polyline class="st1" points="1060.8,501.5 1067.9,501.7 1073.6,501.8 1078.2,502 1094.1,502.8 1348.7,506.9 	"/>
</g>
<line class="st1" x1="829.7" y1="364.7" x2="829.7" y2="410.3"/>
<rect x="825.6" y="364.4" class="st0" width="0.9" height="45.8"/>
<rect x="825.6" y="364.4" class="st1" width="0.9" height="45.8"/>
<rect x="825.6" y="364.4" class="st0" width="0.9" height="1.7"/>
<rect x="825.6" y="364.4" class="st1" width="0.9" height="1.7"/>
<rect x="825.6" y="408.5" class="st0" width="0.9" height="1.7"/>
<rect x="825.6" y="408.5" class="st1" width="0.9" height="1.7"/>
<line class="st1" x1="827.4" y1="388.4" x2="826.5" y2="388.4"/>
<line class="st1" x1="827.4" y1="388.8" x2="826.5" y2="388.8"/>
<g>
	<path class="st0" d="M827.4,388.6v0.2c0.1,0,0.2-0.1,0.2-0.2c0-0.1-0.1-0.2-0.2-0.2V388.6z"/>
	<path class="st1" d="M827.4,388.8L827.4,388.8c0.1,0,0.2-0.1,0.2-0.2c0-0.1-0.1-0.2-0.2-0.2"/>
	<line class="st1" x1="826.5" y1="388.8" x2="826.5" y2="388.4"/>
	<path class="st0" d="M827.4,388.6v-0.2c-0.1,0-0.2,0.1-0.2,0.2c0,0.1,0.1,0.2,0.2,0.2V388.6z"/>
	<path class="st1" d="M827.4,388.4L827.4,388.4c-0.1,0-0.2,0.1-0.2,0.2c0,0.1,0.1,0.2,0.2,0.2"/>
	<line class="st1" x1="824.7" y1="388.4" x2="825.6" y2="388.4"/>
	<line class="st1" x1="824.7" y1="388.8" x2="825.6" y2="388.8"/>
	<path class="st0" d="M824.7,388.6v-0.2c-0.1,0-0.2,0.1-0.2,0.2c0,0.1,0.1,0.2,0.2,0.2V388.6z"/>
	<path class="st1" d="M824.7,388.4L824.7,388.4c-0.1,0-0.2,0.1-0.2,0.2c0,0.1,0.1,0.2,0.2,0.2"/>
	<line class="st1" x1="825.6" y1="388.8" x2="825.6" y2="388.4"/>
	<path class="st0" d="M824.7,388.6v0.2c0.1,0,0.2-0.1,0.2-0.2c0-0.1-0.1-0.2-0.2-0.2V388.6z"/>
	<path class="st1" d="M824.7,388.8L824.7,388.8c0.1,0,0.2-0.1,0.2-0.2c0-0.1-0.1-0.2-0.2-0.2"/>
	<polygon class="st0" points="826.6,364.4 826.6,364.6 829.7,364.6 829.7,363.6 829.4,363.6 829.4,363.5 829.7,363.5 829.7,364.7 
		826.6,364.7 826.6,364.4 826.8,364.4 826.8,364.4 825.6,364.4 825.6,363.5 825.9,363.5 825.9,363.6 825.6,363.6 825.6,364.3 
		826.8,364.3 826.8,364.4 	"/>
	<polygon class="st2" points="826.6,364.4 826.6,364.6 829.7,364.6 829.7,363.6 829.4,363.6 829.4,363.5 829.7,363.5 829.7,364.7 
		826.6,364.7 826.6,364.4 826.8,364.4 826.8,364.4 825.6,364.4 825.6,363.5 825.9,363.5 825.9,363.6 825.6,363.6 825.6,364.3 
		826.8,364.3 826.8,364.4 	"/>
	<line class="st1" x1="980.8" y1="364.7" x2="980.8" y2="410.3"/>
	<rect x="984.6" y="364.4" class="st0" width="0.9" height="45.8"/>
	<rect x="984.6" y="364.4" class="st1" width="0.9" height="45.8"/>
	<rect x="984.6" y="364.4" class="st0" width="0.9" height="1.7"/>
	<rect x="984.6" y="364.4" class="st1" width="0.9" height="1.7"/>
	<rect x="984.6" y="408.5" class="st0" width="0.9" height="1.7"/>
	<rect x="984.6" y="408.5" class="st1" width="0.9" height="1.7"/>
	<line class="st1" x1="983.7" y1="388.4" x2="984.6" y2="388.4"/>
	<line class="st1" x1="983.7" y1="388.8" x2="984.6" y2="388.8"/>
	<path class="st0" d="M983.7,388.6v-0.2c-0.1,0-0.2,0.1-0.2,0.2c0,0.1,0.1,0.2,0.2,0.2V388.6z"/>
	<path class="st1" d="M983.7,388.4L983.7,388.4c-0.1,0-0.2,0.1-0.2,0.2c0,0.1,0.1,0.2,0.2,0.2"/>
	<line class="st1" x1="984.6" y1="388.8" x2="984.6" y2="388.4"/>
	<path class="st0" d="M983.7,388.6v0.2c0.1,0,0.2-0.1,0.2-0.2c0-0.1-0.1-0.2-0.2-0.2V388.6z"/>
	<path class="st1" d="M983.7,388.8L983.7,388.8c0.1,0,0.2-0.1,0.2-0.2c0-0.1-0.1-0.2-0.2-0.2"/>
	<line class="st1" x1="986.4" y1="388.4" x2="985.5" y2="388.4"/>
	<line class="st1" x1="986.4" y1="388.8" x2="985.5" y2="388.8"/>
	<path class="st0" d="M986.4,388.6v0.2c0.1,0,0.2-0.1,0.2-0.2c0-0.1-0.1-0.2-0.2-0.2V388.6z"/>
	<path class="st1" d="M986.4,388.8L986.4,388.8c0.1,0,0.2-0.1,0.2-0.2c0-0.1-0.1-0.2-0.2-0.2"/>
	<line class="st1" x1="985.5" y1="388.8" x2="985.5" y2="388.4"/>
	<path class="st0" d="M986.4,388.6v-0.2c-0.1,0-0.2,0.1-0.2,0.2c0,0.1,0.1,0.2,0.2,0.2V388.6z"/>
	<path class="st1" d="M986.4,388.4L986.4,388.4c-0.1,0-0.2,0.1-0.2,0.2c0,0.1,0.1,0.2,0.2,0.2"/>
	<polygon class="st0" points="984.5,364.4 984.5,364.6 980.9,364.6 980.9,363.6 981.2,363.6 981.2,363.5 980.8,363.5 980.8,364.7 
		984.5,364.7 984.5,364.4 984.3,364.4 984.3,364.4 985.5,364.4 985.5,363.5 985.2,363.5 985.2,363.6 985.5,363.6 985.5,364.3 
		984.2,364.3 984.2,364.4 	"/>
	<polygon class="st2" points="984.5,364.4 984.5,364.6 980.9,364.6 980.9,363.6 981.2,363.6 981.2,363.5 980.8,363.5 980.8,364.7 
		984.5,364.7 984.5,364.4 984.3,364.4 984.3,364.4 985.5,364.4 985.5,363.5 985.2,363.5 985.2,363.6 985.5,363.6 985.5,364.3 
		984.2,364.3 984.2,364.4 	"/>
	<rect x="941.2" y="212.8" class="st1" width="12.4" height="54.5"/>
	<path class="st0" d="M775.9,245.7L775.9,245.7c0-0.3-0.3-0.6-0.6-0.6c-0.3,0-0.6,0.3-0.6,0.6c0,0.3,0.3,0.6,0.6,0.6
		C775.7,246.3,775.9,246,775.9,245.7"/>
	<path class="st2" d="M775.9,245.7L775.9,245.7c0-0.3-0.3-0.6-0.6-0.6c-0.3,0-0.6,0.3-0.6,0.6c0,0.3,0.3,0.6,0.6,0.6
		C775.7,246.3,775.9,246,775.9,245.7"/>
	<path class="st0" d="M775.9,247.4L775.9,247.4c0-0.3-0.3-0.6-0.6-0.6c-0.3,0-0.6,0.3-0.6,0.6c0,0.3,0.3,0.6,0.6,0.6
		C775.7,248,775.9,247.8,775.9,247.4"/>
	<path class="st2" d="M775.9,247.4L775.9,247.4c0-0.3-0.3-0.6-0.6-0.6c-0.3,0-0.6,0.3-0.6,0.6c0,0.3,0.3,0.6,0.6,0.6
		C775.7,248,775.9,247.8,775.9,247.4"/>
	<rect x="757.1" y="221.7" class="st1" width="19.6" height="45.6"/>
	<rect x="772.6" y="245.5" class="st0" width="2.9" height="0.4"/>
	<rect x="772.6" y="245.5" class="st1" width="2.9" height="0.4"/>
	<rect x="756.5" y="221.1" class="st1" width="20.9" height="46.3"/>
	<rect x="797.2" y="222.2" class="st1" width="31.3" height="29.3"/>
	<rect x="798.8" y="223.8" class="st1" width="28.2" height="26.2"/>
	<rect x="563.5" y="365.1" class="st1" width="31.6" height="29.3"/>
	<rect x="565" y="366.7" class="st1" width="28.7" height="26.3"/>
	<line class="st1" x1="259" y1="275.4" x2="259" y2="330"/>
	<line class="st1" x1="955.8" y1="410.3" x2="955.8" y2="360.1"/>
	<line class="st1" x1="854.8" y1="410.3" x2="854.8" y2="360.1"/>
	<rect x="446.3" y="351.5" class="st2" width="235.9" height="0.8"/>
	<polygon class="st0" points="172.3,409.2 175.7,409.2 175.7,398.7 174.5,393.4 175.7,390.4 175.7,388.4 172.3,388.4 	"/>
	<polygon class="st2" points="172.3,409.2 175.7,409.2 175.7,398.7 174.5,393.4 175.7,390.4 175.7,388.4 172.3,388.4 	"/>
	<polygon class="st0" points="177.1,393.4 175.9,398.7 175.9,409.2 179.4,409.2 179.4,407.9 178.2,404.9 179.4,399.6 179.4,388.4 
		175.9,388.4 175.9,390.4 	"/>
	<polygon class="st2" points="177.1,393.4 175.9,398.7 175.9,409.2 179.4,409.2 179.4,407.9 178.2,404.9 179.4,399.6 179.4,388.4 
		175.9,388.4 175.9,390.4 	"/>
	<polygon class="st0" points="181.9,393.4 183.1,390.4 183.1,388.4 179.6,388.4 179.6,399.6 180.8,404.9 179.6,407.9 179.6,409.2 
		183.1,409.2 183.1,398.7 	"/>
	<polygon class="st2" points="181.9,393.4 183.1,390.4 183.1,388.4 179.6,388.4 179.6,399.6 180.8,404.9 179.6,407.9 179.6,409.2 
		183.1,409.2 183.1,398.7 	"/>
	<polygon class="st0" points="184.5,393.4 183.3,398.7 183.3,409.2 186.8,409.2 186.8,407.9 185.6,404.9 186.8,399.6 186.8,388.4 
		183.3,388.4 183.3,390.4 	"/>
	<polygon class="st2" points="184.5,393.4 183.3,398.7 183.3,409.2 186.8,409.2 186.8,407.9 185.6,404.9 186.8,399.6 186.8,388.4 
		183.3,388.4 183.3,390.4 	"/>
	<rect x="172" y="387.5" class="st0" width="44.6" height="0.8"/>
	<rect x="172" y="387.5" class="st2" width="44.6" height="0.8"/>
	<polygon class="st0" points="191.9,393.4 190.7,398.7 190.7,409.2 194.2,409.2 194.2,407.9 193,404.9 194.2,399.6 194.2,388.4 
		190.7,388.4 190.7,390.4 	"/>
	<polygon class="st2" points="191.9,393.4 190.7,398.7 190.7,409.2 194.2,409.2 194.2,407.9 193,404.9 194.2,399.6 194.2,388.4 
		190.7,388.4 190.7,390.4 	"/>
	<polygon class="st0" points="199.3,393.4 198.1,398.7 198.1,409.2 201.6,409.2 201.6,407.9 200.4,404.9 201.6,399.6 201.6,388.4 
		198.1,388.4 198.1,390.4 	"/>
	<polygon class="st2" points="199.3,393.4 198.1,398.7 198.1,409.2 201.6,409.2 201.6,407.9 200.4,404.9 201.6,399.6 201.6,388.4 
		198.1,388.4 198.1,390.4 	"/>
	<polygon class="st0" points="206.7,393.4 205.5,398.7 205.5,409.2 209,409.2 209,407.9 207.8,404.9 209,399.6 209,388.4 
		205.5,388.4 205.5,390.4 	"/>
	<polygon class="st2" points="206.7,393.4 205.5,398.7 205.5,409.2 209,409.2 209,407.9 207.8,404.9 209,399.6 209,388.4 
		205.5,388.4 205.5,390.4 	"/>
	<polygon class="st0" points="214,393.4 212.8,398.7 212.8,409.2 216.3,409.2 216.3,407.9 216.3,399.6 216.3,388.4 212.8,388.4 
		212.8,390.4 	"/>
	<polygon class="st2" points="214,393.4 212.8,398.7 212.8,409.2 216.3,409.2 216.3,407.9 216.3,399.6 216.3,388.4 212.8,388.4 
		212.8,390.4 	"/>
	<polygon class="st0" points="189.3,393.4 190.5,390.4 190.5,388.4 187,388.4 187,399.6 188.2,404.9 187,407.9 187,409.2 
		190.5,409.2 190.5,398.7 	"/>
	<polygon class="st2" points="189.3,393.4 190.5,390.4 190.5,388.4 187,388.4 187,399.6 188.2,404.9 187,407.9 187,409.2 
		190.5,409.2 190.5,398.7 	"/>
	<polygon class="st0" points="196.6,393.4 197.8,390.4 197.8,388.4 194.4,388.4 194.4,399.6 195.6,404.9 194.4,407.9 194.4,409.2 
		197.8,409.2 197.8,398.7 	"/>
	<polygon class="st2" points="196.6,393.4 197.8,390.4 197.8,388.4 194.4,388.4 194.4,399.6 195.6,404.9 194.4,407.9 194.4,409.2 
		197.8,409.2 197.8,398.7 	"/>
	<polygon class="st0" points="204.1,393.4 205.3,390.4 205.3,388.4 201.8,388.4 201.8,399.6 203,404.9 201.8,407.9 201.8,409.2 
		205.3,409.2 205.3,398.7 	"/>
	<polygon class="st2" points="204.1,393.4 205.3,390.4 205.3,388.4 201.8,388.4 201.8,399.6 203,404.9 201.8,407.9 201.8,409.2 
		205.3,409.2 205.3,398.7 	"/>
	<polygon class="st0" points="211.4,393.4 212.6,390.4 212.6,388.4 209.1,388.4 209.1,399.6 210.3,404.9 209.1,407.9 209.1,409.2 
		212.6,409.2 212.6,398.7 	"/>
	<polygon class="st2" points="211.4,393.4 212.6,390.4 212.6,388.4 209.1,388.4 209.1,399.6 210.3,404.9 209.1,407.9 209.1,409.2 
		212.6,409.2 212.6,398.7 	"/>
	<line class="st1" x1="172" y1="409.7" x2="216.7" y2="409.7"/>
	<line class="st1" x1="171.4" y1="267.3" x2="212" y2="267.3"/>
	<line class="st1" x1="214.1" y1="267.3" x2="315.6" y2="267.3"/>
	<line class="st1" x1="319.9" y1="267.3" x2="431.1" y2="267.3"/>
	<line class="st1" x1="435.4" y1="267.3" x2="480.9" y2="267.3"/>
	<line class="st1" x1="483" y1="267.3" x2="522.8" y2="267.3"/>
	<line class="st1" x1="528.4" y1="267.3" x2="573.2" y2="267.3"/>
	<line class="st1" x1="575.3" y1="267.3" x2="615.1" y2="267.3"/>
	<line class="st1" x1="620.7" y1="267.3" x2="666.2" y2="267.3"/>
	<line class="st1" x1="668.3" y1="267.3" x2="708.1" y2="267.3"/>
	<line class="st1" x1="725.5" y1="267.3" x2="843.3" y2="267.3"/>
	<line class="st1" x1="847.6" y1="267.3" x2="893.7" y2="267.3"/>
	<line class="st1" x1="895.9" y1="267.3" x2="935.6" y2="267.3"/>
	<line class="st1" x1="941.2" y1="267.3" x2="1004.7" y2="267.3"/>
	<line class="st1" x1="1006.9" y1="267.3" x2="1046.7" y2="267.3"/>
	<line class="st1" x1="172" y1="330" x2="212" y2="330"/>
	<line class="st1" x1="214.1" y1="330" x2="315.6" y2="330"/>
	<line class="st1" x1="319.9" y1="330" x2="431.1" y2="330"/>
	<line class="st1" x1="435.4" y1="330" x2="480.9" y2="330"/>
	<line class="st1" x1="483" y1="330" x2="522.8" y2="330"/>
	<line class="st1" x1="528.4" y1="330" x2="573.2" y2="330"/>
	<line class="st1" x1="575.3" y1="330" x2="615.1" y2="330"/>
	<line class="st1" x1="620.7" y1="330" x2="666.2" y2="330"/>
	<line class="st1" x1="668.3" y1="330" x2="708.1" y2="330"/>
	<line class="st1" x1="725.5" y1="330" x2="801.3" y2="330"/>
	<line class="st1" x1="803.5" y1="330" x2="843.3" y2="330"/>
	<line class="st1" x1="848.9" y1="330" x2="893.7" y2="330"/>
	<line class="st1" x1="895.9" y1="330" x2="935.6" y2="330"/>
	<line class="st1" x1="941.2" y1="330" x2="1004.7" y2="330"/>
	<line class="st1" x1="1006.9" y1="330" x2="1046.7" y2="330"/>
	<line class="st1" x1="226.1" y1="410.3" x2="442" y2="410.3"/>
	<line class="st1" x1="446.3" y1="410.3" x2="499.3" y2="410.3"/>
	<line class="st1" x1="502.8" y1="410.3" x2="596.6" y2="410.3"/>
	<line class="st1" x1="600.1" y1="410.3" x2="682.2" y2="410.3"/>
	<line class="st1" x1="684.9" y1="410.3" x2="709.1" y2="410.3"/>
	<line class="st1" x1="741.5" y1="410.3" x2="1051.4" y2="410.3"/>
	<line class="st1" x1="725.5" y1="486.3" x2="793.8" y2="486.3"/>
	<line class="st1" x1="797.7" y1="486.3" x2="860.6" y2="486.3"/>
	<rect x="1055.2" y="395.2" class="st0" width="5.2" height="139"/>
	<rect x="1055.2" y="395.2" class="st2" width="5.2" height="139"/>
	<line class="st1" x1="528.4" y1="203.8" x2="528.4" y2="270.2"/>
	<line class="st1" x1="620.7" y1="206.5" x2="620.7" y2="270.2"/>
	<line class="st1" x1="848.9" y1="275.4" x2="848.9" y2="332.7"/>
	<line class="st1" x1="941.2" y1="201.4" x2="941.2" y2="270.2"/>
	<line class="st1" x1="941.2" y1="275.4" x2="941.2" y2="332.7"/>
	<line class="st1" x1="620.7" y1="275.4" x2="620.7" y2="332.7"/>
	<line class="st1" x1="528.4" y1="275.4" x2="528.4" y2="332.7"/>
	<line class="st1" x1="167.7" y1="202.5" x2="169.4" y2="206.3"/>
	<line class="st1" x1="169.4" y1="202.4" x2="167.7" y2="206.4"/>
	<line class="st1" x1="178.8" y1="202.1" x2="180.5" y2="205.9"/>
	<line class="st1" x1="180.5" y1="202.1" x2="178.8" y2="206"/>
	<polygon class="st2" points="167.7,206.4 167.7,202.5 169.4,202.4 169.4,206.3 	"/>
	<polygon class="st2" points="178.8,206 178.8,202.1 180.5,202.1 180.5,205.9 	"/>
	<line class="st1" x1="1055.2" y1="200.3" x2="1053.5" y2="204.1"/>
	<line class="st1" x1="1053.5" y1="200.2" x2="1055.2" y2="204.2"/>
	<line class="st1" x1="1044.2" y1="199.6" x2="1042.4" y2="203.3"/>
	<line class="st1" x1="1042.4" y1="199.5" x2="1044.2" y2="203.4"/>
	<polygon class="st2" points="1055.2,204.2 1055.2,200.3 1053.5,200.2 1053.5,204.1 	"/>
	<polygon class="st2" points="1044.2,203.4 1044.2,199.6 1042.4,199.5 1042.4,203.3 	"/>
	<line class="st1" x1="867.5" y1="486.3" x2="928.3" y2="486.3"/>
	<line class="st1" x1="931.5" y1="486.3" x2="972" y2="486.3"/>
	<line class="st1" x1="972" y1="487" x2="972" y2="486.3"/>
	<line class="st1" x1="533.8" y1="486.3" x2="721.1" y2="486.3"/>
	<polyline class="st1" points="167.9,486.3 261.3,486.7 282,486.7 301.5,486.7 417,486.7 437.6,486.4 440.9,486.3 	"/>
	<polyline class="st1" points="446.3,486.3 487.4,488.3 489.5,488.3 528.9,486.3 530.6,486.3 	"/>
	<rect x="871.2" y="152.9" class="st2" width="9.4" height="26.3"/>
	<rect x="870.9" y="139.3" class="st2" width="9.9" height="0.6"/>
	<polygon class="st2" points="867.4,146.4 871.2,152.9 880.6,152.9 884.5,146.4 	"/>
	<polygon class="st2" points="867.4,146.4 870.9,139.9 880.9,139.9 884.5,146.4 	"/>
	<rect x="880.9" y="139.3" class="st1" width="7.7" height="0.6"/>
	<polyline class="st1" points="888.6,139.9 892.2,146.4 888.3,152.9 	"/>
	<line class="st1" x1="884.5" y1="146.4" x2="892.2" y2="146.4"/>
	<line class="st1" x1="888.3" y1="152.9" x2="888.3" y2="179"/>
	<line class="st1" x1="880.6" y1="152.9" x2="888.3" y2="152.9"/>
	<line class="st1" x1="878.1" y1="179.2" x2="789" y2="179.2"/>
	<line class="st1" x1="789" y1="179.2" x2="789" y2="199.5"/>
	<line class="st1" x1="878.4" y1="179.2" x2="878.4" y2="194.2"/>
	<line class="st1" x1="926.6" y1="178.4" x2="878.6" y2="179.2"/>
	<line class="st1" x1="926.6" y1="178.4" x2="926.6" y2="191.4"/>
	<rect x="821.5" y="153.5" class="st2" width="15" height="25.7"/>
	<rect x="821.2" y="140" class="st1" width="15.6" height="0.6"/>
	<polygon class="st2" points="817.6,147.1 821.5,153.5 836.5,153.5 840.4,147.1 	"/>
	<polygon class="st2" points="817.6,147.1 821.2,140.5 836.8,140.5 840.4,147.1 	"/>
	<rect x="836.8" y="140" class="st1" width="11" height="0.6"/>
	<polyline class="st1" points="847.9,140.5 851.4,147.1 847.6,153.5 	"/>
	<line class="st1" x1="840.4" y1="147.1" x2="851.4" y2="147.1"/>
	<line class="st1" x1="847.6" y1="153.5" x2="847.6" y2="179.2"/>
	<line class="st1" x1="821.5" y1="153.5" x2="836.5" y2="153.5"/>
	<line class="st1" x1="836.5" y1="153.5" x2="847.6" y2="153.5"/>
	<rect x="855.9" y="153.5" class="st2" width="14.9" height="25.7"/>
	<rect x="855.6" y="140" class="st0" width="15.6" height="0.6"/>
	<rect x="855.6" y="140" class="st1" width="15.6" height="0.6"/>
	<polygon class="st0" points="852,147.1 856,153.5 870.8,153.5 874.8,147.1 	"/>
	<polygon class="st2" points="852,147.1 856,153.5 870.8,153.5 874.8,147.1 	"/>
	<polygon class="st0" points="852,147.1 855.6,140.5 871.2,140.5 874.8,147.1 	"/>
	<polygon class="st2" points="852,147.1 855.6,140.5 871.2,140.5 874.8,147.1 	"/>
</g>
</svg>
