<?xml version="1.0" encoding="utf-8"?>
<!-- Generator: Adobe Illustrator 19.1.0, SVG Export Plug-In . SVG Version: 6.00 Build 0)  -->
<svg version="1.1" id="Ebene_1" xmlns="http://www.w3.org/2000/svg" xmlns:xlink="http://www.w3.org/1999/xlink" x="0px" y="0px"
	 width="1280px" height="720px" viewBox="-201 441 1280 720" style="enable-background:new -201 441 1280 720;"
	 xml:space="preserve">
<style type="text/css">
	.st0{fill:#FFFFFF;}
	.st1{fill:none;stroke:#000000;stroke-width:0.144;stroke-linecap:round;stroke-linejoin:round;stroke-miterlimit:10;}
	.st2{fill:#212121;}
	.st3{fill:none;stroke:#000000;stroke-width:0.216;stroke-linecap:round;stroke-linejoin:round;stroke-miterlimit:10;}
	.st4{fill:none;stroke:#000000;stroke-width:0.25;stroke-linecap:round;stroke-linejoin:round;stroke-miterlimit:10;}
	.st5{enable-background:new    ;}
</style>
<rect x="263.6" y="573.9" class="st0" width="46.8" height="97"/>
<rect x="263.6" y="573.9" class="st1" width="46.8" height="97"/>
<rect x="263.6" y="684.9" class="st0" width="46.8" height="97.3"/>
<rect x="263.6" y="684.9" class="st1" width="46.8" height="97.3"/>
<rect x="263.6" y="796.3" class="st0" width="46.8" height="97"/>
<rect x="263.6" y="796.3" class="st1" width="46.8" height="97"/>
<polyline class="st0" points="610.4,668.5 613.1,668.5 621.3,669.1 621.3,576.7 610.4,576.7 610.4,668.5 "/>
<polygon class="st1" points="610.4,668.5 613.1,668.5 621.3,669.1 621.3,576.7 610.4,576.7 "/>
<polyline class="st2" points="240.2,596.1 240.2,592.2 246.3,591.6 246.3,547.1 256.3,547.1 256.3,557.2 613.1,557.2 613.1,547.1 
	621.3,547.1 621.3,557.5 630.5,558.4 652.7,557.5 652.7,566.6 650.9,566.6 650.2,566 650.2,566.6 622.9,566.6 622.9,576 
	622.9,576.7 610.4,576.7 610.4,573.9 263.6,573.9 263.6,596.1 240.2,596.1 "/>
<polygon class="st3" points="240.2,596.1 240.2,592.2 246.3,591.6 246.3,547.1 256.3,547.1 256.3,557.2 613.1,557.2 613.1,547.1 
	621.3,547.1 621.3,557.5 630.5,558.4 652.7,557.5 652.7,566.6 650.9,566.6 650.2,566 650.2,566.6 622.9,566.6 622.9,576 
	622.9,576.7 610.4,576.7 610.4,573.9 263.6,573.9 263.6,596.1 "/>
<polyline class="st2" points="240.2,707.2 240.2,703.2 246.3,702.6 246.3,671 263.6,671 263.6,675.5 610.4,675.5 610.4,668.5 
	613.1,668.5 630.5,669.4 652.7,668.8 652.7,678 650.9,678 650.2,677 650.2,678 622.9,678 622.9,688 610.4,688 610.4,684.9 
	263.6,684.9 263.6,707.2 240.2,707.2 "/>
<polygon class="st3" points="240.2,707.2 240.2,703.2 246.3,702.6 246.3,671 263.6,671 263.6,675.5 610.4,675.5 610.4,668.5 
	613.1,668.5 630.5,669.4 652.7,668.8 652.7,678 650.9,678 650.2,677 650.2,678 622.9,678 622.9,688 610.4,688 610.4,684.9 
	263.6,684.9 263.6,707.2 "/>
<path class="st2" d="M271.1,915.3v5.9H146.8v82.6h581.3v-82.6H595.5v-5.9H271.1 M146.8,910.1l99.5-3.3v-13.6h17.2v4.9h346.9v-4.9h11
	v13.6l106.7,3.3v-9h9v113.5H137.8v-10.8V901.1h9V910.1"/>
<path class="st3" d="M271.1,915.3v5.9H146.8v82.6h581.3v-82.6H595.5v-5.9H271.1 M146.8,910.1l99.5-3.3v-13.6h17.2v4.9h346.9v-4.9h11
	v13.6l106.7,3.3v-9h9v113.5H137.8v-10.8V901.1h9V910.1"/>
<rect x="610.4" y="799" class="st0" width="11" height="94.3"/>
<rect x="610.4" y="799" class="st1" width="11" height="94.3"/>
<polyline class="st0" points="613.1,782.3 613.1,782.3 621.3,782.9 621.3,688 610.4,688 610.4,782.3 613.1,782.3 "/>
<polygon class="st1" points="613.1,782.3 613.1,782.3 621.3,782.9 621.3,688 610.4,688 610.4,782.3 "/>
<polyline class="st2" points="240.2,818.5 240.2,814.5 246.3,813.9 246.3,782.3 263.6,782.3 263.6,786.9 610.4,786.9 610.4,782.3 
	613.1,782.3 630.5,783.5 652.7,782.9 652.7,792 650.9,792 650.2,791.1 650.2,792 622.9,792 622.9,799 610.4,799 610.4,796.3 
	263.6,796.3 263.6,818.5 240.2,818.5 "/>
<polygon class="st3" points="240.2,818.5 240.2,814.5 246.3,813.9 246.3,782.3 263.6,782.3 263.6,786.9 610.4,786.9 610.4,782.3 
	613.1,782.3 630.5,783.5 652.7,782.9 652.7,792 650.9,792 650.2,791.1 650.2,792 622.9,792 622.9,799 610.4,799 610.4,796.3 
	263.6,796.3 263.6,818.5 "/>
<rect x="246.3" y="596.1" class="st0" width="17.3" height="74.8"/>
<rect x="246.3" y="596.1" class="st1" width="17.3" height="74.8"/>
<rect x="246.3" y="707.2" class="st0" width="17.3" height="75.1"/>
<rect x="246.3" y="707.2" class="st1" width="17.3" height="75.1"/>
<rect x="246.3" y="818.5" class="st0" width="17.3" height="74.8"/>
<rect x="246.3" y="818.5" class="st1" width="17.3" height="74.8"/>
<line class="st1" x1="612.8" y1="576.7" x2="612.8" y2="668.5"/>
<line class="st1" x1="612.8" y1="688" x2="612.8" y2="782.3"/>
<line class="st1" x1="612.8" y1="799" x2="612.8" y2="893.3"/>
<line class="st1" x1="256.3" y1="596.1" x2="256.3" y2="671"/>
<line class="st1" x1="256.3" y1="707.2" x2="256.3" y2="782.3"/>
<line class="st1" x1="256.3" y1="818.5" x2="256.3" y2="893.3"/>
<line class="st1" x1="263.6" y1="671" x2="610.4" y2="671"/>
<line class="st1" x1="610.4" y1="782.3" x2="263.6" y2="782.3"/>
<line class="st1" x1="610.4" y1="893.3" x2="263.6" y2="893.3"/>
<polyline class="st1" points="621.3,896.7 692.8,897.6 728.1,902.1 "/>
<polyline class="st1" points="246.3,896.7 245.7,896.7 173.6,897.6 146.8,902.1 "/>
<line class="st1" x1="256.3" y1="547.1" x2="613.1" y2="547.1"/>
<rect x="397.8" y="915.2" class="st0" width="8.5" height="88.5"/>
<rect x="397.8" y="915.2" class="st1" width="8.5" height="88.5"/>
<rect x="601.6" y="921.3" class="st0" width="8.5" height="82.4"/>
<rect x="601.6" y="921.3" class="st1" width="8.5" height="82.4"/>
<rect x="256.3" y="921.3" class="st0" width="8.5" height="82.4"/>
<rect x="256.3" y="921.3" class="st1" width="8.5" height="82.4"/>
<rect x="267.3" y="817.9" class="st0" width="34.1" height="75.4"/>
<rect x="267.3" y="817.9" class="st1" width="34.1" height="75.4"/>
<rect x="267.3" y="706.5" class="st0" width="34.1" height="75.7"/>
<rect x="267.3" y="706.5" class="st1" width="34.1" height="75.7"/>
<rect x="267.3" y="595.2" class="st0" width="34.1" height="75.7"/>
<rect x="267.3" y="595.2" class="st1" width="34.1" height="75.7"/>
<rect x="649.9" y="627.8" class="st0" width="2.7" height="41.1"/>
<rect x="649.9" y="627.8" class="st1" width="2.7" height="41.1"/>
<rect x="649.9" y="746.4" class="st0" width="2.7" height="36.5"/>
<rect x="649.9" y="746.4" class="st1" width="2.7" height="36.5"/>
<rect x="728.1" y="864.4" class="st0" width="2.7" height="36.8"/>
<rect x="728.1" y="864.4" class="st1" width="2.7" height="36.8"/>
<rect x="144.1" y="864.4" class="st0" width="2.7" height="36.8"/>
<rect x="144.1" y="864.4" class="st1" width="2.7" height="36.8"/>
<polyline class="st0" points="243.5,707.2 243.5,788.1 244.5,788.1 244.5,707.2 243.5,707.2 "/>
<rect x="243.5" y="707.2" class="st1" width="0.9" height="80.9"/>
<polyline class="st0" points="243.5,596.1 243.5,676.7 244.5,676.7 244.5,596.1 243.5,596.1 "/>
<rect x="243.5" y="596.1" class="st1" width="0.9" height="80.6"/>
<polyline class="st0" points="243.5,895.1 244.5,895.1 244.5,818.5 243.5,818.5 243.5,895.1 "/>
<rect x="243.5" y="818.5" class="st1" width="0.9" height="76.7"/>
<polyline class="st4" points="1146.8,951.3 863.8,948.2 863.1,948.1 789.9,949.8 737.1,949.8 737.1,1014.6 137.8,1014.6 
	137.8,936.7 -230.5,936.7 "/>
<line class="st1" x1="215.9" y1="1012.9" x2="215.9" y2="1015.3"/>
<line class="st1" x1="215.9" y1="1019" x2="215.9" y2="1022.6"/>
<line class="st1" x1="215.9" y1="1026.3" x2="215.9" y2="1029"/>
<line class="st1" x1="215.9" y1="1029" x2="218.6" y2="1029"/>
<line class="st1" x1="222.2" y1="1029" x2="225.9" y2="1029"/>
<line class="st1" x1="229.5" y1="1029" x2="233.2" y2="1029"/>
<line class="st1" x1="236.8" y1="1029" x2="240.5" y2="1029"/>
<line class="st1" x1="244.1" y1="1029" x2="247.8" y2="1029"/>
<line class="st1" x1="251.4" y1="1029" x2="255.1" y2="1029"/>
<line class="st1" x1="258.8" y1="1029" x2="262.4" y2="1029"/>
<line class="st1" x1="266.1" y1="1029" x2="269.7" y2="1029"/>
<line class="st1" x1="273.4" y1="1029" x2="277" y2="1029"/>
<line class="st1" x1="280.7" y1="1029" x2="284.3" y2="1029"/>
<line class="st1" x1="288" y1="1029" x2="291.6" y2="1029"/>
<line class="st1" x1="295.3" y1="1029" x2="298.9" y2="1029"/>
<line class="st1" x1="302.6" y1="1029" x2="305.6" y2="1029"/>
<line class="st1" x1="305.6" y1="1029" x2="305.6" y2="1026.6"/>
<line class="st1" x1="305.6" y1="1022.9" x2="305.6" y2="1019.3"/>
<line class="st1" x1="305.6" y1="1015.6" x2="305.6" y2="1012.9"/>
<line class="st1" x1="339.1" y1="1012.9" x2="339.1" y2="1014.7"/>
<line class="st1" x1="339.1" y1="1018.3" x2="339.1" y2="1022"/>
<line class="st1" x1="339.1" y1="1025.6" x2="339.1" y2="1029.3"/>
<line class="st1" x1="339.1" y1="1032.9" x2="339.1" y2="1034.5"/>
<line class="st1" x1="339.1" y1="1034.5" x2="341.8" y2="1034.5"/>
<line class="st1" x1="345.4" y1="1034.5" x2="349.1" y2="1034.5"/>
<line class="st1" x1="352.7" y1="1034.5" x2="356.4" y2="1034.5"/>
<line class="st1" x1="360" y1="1034.5" x2="363.7" y2="1034.5"/>
<line class="st1" x1="367.3" y1="1034.5" x2="371" y2="1034.5"/>
<line class="st1" x1="374.6" y1="1034.5" x2="378.3" y2="1034.5"/>
<line class="st1" x1="381.9" y1="1034.5" x2="385.6" y2="1034.5"/>
<line class="st1" x1="389.2" y1="1034.5" x2="392.9" y2="1034.5"/>
<line class="st1" x1="396.5" y1="1034.5" x2="400.2" y2="1034.5"/>
<line class="st1" x1="403.9" y1="1034.5" x2="407.5" y2="1034.5"/>
<line class="st1" x1="411.2" y1="1034.5" x2="414.8" y2="1034.5"/>
<line class="st1" x1="418.5" y1="1034.5" x2="422.1" y2="1034.5"/>
<line class="st1" x1="425.8" y1="1034.5" x2="429.4" y2="1034.5"/>
<line class="st1" x1="433.1" y1="1034.5" x2="436.7" y2="1034.5"/>
<line class="st1" x1="440.4" y1="1034.5" x2="444" y2="1034.5"/>
<line class="st1" x1="447.7" y1="1034.5" x2="451.3" y2="1034.5"/>
<line class="st1" x1="455" y1="1034.5" x2="458.6" y2="1034.5"/>
<line class="st1" x1="462.3" y1="1034.5" x2="465" y2="1034.5"/>
<line class="st1" x1="465" y1="1034.5" x2="465" y2="1032.6"/>
<line class="st1" x1="465" y1="1029" x2="465" y2="1025.3"/>
<line class="st1" x1="465" y1="1021.7" x2="465" y2="1018"/>
<line class="st1" x1="465" y1="1014.4" x2="465" y2="1012.9"/>
<line class="st1" x1="552" y1="1012.9" x2="552" y2="1016.2"/>
<line class="st1" x1="552" y1="1019.9" x2="552" y2="1023.5"/>
<line class="st1" x1="552" y1="1027.2" x2="552" y2="1030.8"/>
<line class="st1" x1="552" y1="1030.8" x2="552.9" y2="1030.8"/>
<line class="st1" x1="556.6" y1="1030.8" x2="560.2" y2="1030.8"/>
<line class="st1" x1="563.9" y1="1030.8" x2="567.5" y2="1030.8"/>
<line class="st1" x1="571.2" y1="1030.8" x2="574.8" y2="1030.8"/>
<line class="st1" x1="578.5" y1="1030.8" x2="582.1" y2="1030.8"/>
<line class="st1" x1="585.8" y1="1030.8" x2="589.4" y2="1030.8"/>
<line class="st1" x1="593.1" y1="1030.8" x2="596.7" y2="1030.8"/>
<line class="st1" x1="600.4" y1="1030.8" x2="604" y2="1030.8"/>
<line class="st1" x1="607.7" y1="1030.8" x2="611.3" y2="1030.8"/>
<line class="st1" x1="615" y1="1030.8" x2="618.6" y2="1030.8"/>
<line class="st1" x1="622.3" y1="1030.8" x2="625.9" y2="1030.8"/>
<line class="st1" x1="629.6" y1="1030.8" x2="633.2" y2="1030.8"/>
<line class="st1" x1="636.9" y1="1030.8" x2="640.5" y2="1030.8"/>
<line class="st1" x1="644.2" y1="1030.8" x2="647.8" y2="1030.8"/>
<line class="st1" x1="651.5" y1="1030.8" x2="655.1" y2="1030.8"/>
<line class="st1" x1="658.8" y1="1030.8" x2="659.7" y2="1030.8"/>
<line class="st1" x1="659.7" y1="1030.8" x2="659.7" y2="1027.5"/>
<line class="st1" x1="659.7" y1="1023.8" x2="659.7" y2="1020.2"/>
<line class="st1" x1="659.7" y1="1016.5" x2="659.7" y2="1012.9"/>
<g class="st5">
	<path d="M-76.2,1039l-0.6,1.2c-0.5-0.3-1.1-0.5-1.7-0.5c-0.7,0-1,0.3-1,0.7c0,0.4,0.2,0.7,0.6,1l1.5,1.2c0.9,0.7,1.3,1.3,1.3,2.3
		c0,1.5-1.1,2.4-2.7,2.4c-1.1,0-2.1-0.4-2.7-0.8l0.6-1.2c0.5,0.3,1.3,0.7,2.2,0.7c0.9,0,1.3-0.4,1.3-1c0-0.5-0.3-0.8-0.9-1.3
		l-1.4-1.1c-0.7-0.6-1.2-1.2-1.2-2c0-1.2,0.9-2,2.4-2C-77.5,1038.4-76.8,1038.7-76.2,1039z"/>
	<path d="M-75.2,1044.2c0-1.8,1.2-3,3-3c0.7,0,1.3,0.2,1.9,0.6l-0.6,1c-0.4-0.3-0.9-0.4-1.4-0.4c-1,0-1.8,0.7-1.8,1.8
		s0.7,1.8,1.8,1.8c0.5,0,1-0.1,1.4-0.4l0.6,1c-0.6,0.4-1.2,0.6-1.9,0.6C-74,1047.2-75.2,1046-75.2,1044.2z"/>
	<path d="M-68.1,1041.4c0,0.5,0,0.8-0.1,1.2l0,0c0.4-0.9,1.1-1.4,2-1.4c1.2,0,2,0.8,2,2.1v3.6h-1.2v-3.3c0-0.8-0.4-1.3-1.2-1.3
		c-1,0-1.5,0.7-1.5,1.9v2.7h-1.2v-8.6h1.2V1041.4z"/>
	<path d="M-57.5,1043.4v3.6h-1.2v-3.3c0-0.8-0.4-1.3-1.2-1.3c-1,0-1.5,0.7-1.5,1.9v2.7h-1.2v-5.5h1.2c0,0.6,0,0.9-0.1,1.3l0,0
		c0.4-1,1.1-1.5,2-1.5C-58.3,1041.3-57.5,1042-57.5,1043.4z"/>
	<path d="M-54.8,1040.2h-1.3v-1.6h1.3V1040.2z M-54.9,1047H-56v-5.5h1.2V1047z"/>
	<path d="M-51.6,1040.9c0,0.2,0,0.4,0,0.6l0,0c0.1-0.1,0.2-0.1,0.5-0.1h0.6v1.1h-0.6c-0.3,0-0.4,0-0.5-0.1l0,0c0,0.2,0,0.4,0,0.6
		v3.8h-1.2v-3.8c0-0.3,0-0.4,0-0.6l0,0c-0.1,0.1-0.2,0.1-0.5,0.1h-0.5v-1.1h0.5c0.3,0,0.4,0,0.5,0.1l0,0c0-0.2,0-0.4,0-0.6v-1.6
		l1.1-0.8h0.1V1040.9z"/>
	<path d="M-47.9,1040.9c0,0.2,0,0.4,0,0.6l0,0c0.1-0.1,0.2-0.1,0.5-0.1h0.6v1.1h-0.6c-0.3,0-0.4,0-0.5-0.1l0,0c0,0.2,0,0.4,0,0.6
		v3.8h-1.2v-3.8c0-0.3,0-0.4,0-0.6l0,0c-0.1,0.1-0.2,0.1-0.5,0.1H-50v-1.1h0.5c0.3,0,0.4,0,0.5,0.1l0,0c0-0.2,0-0.4,0-0.6v-1.6
		l1.1-0.8h0.1V1040.9z"/>
</g>
</svg>
