<?xml version="1.0" encoding="utf-8"?>
<!-- Generator: Adobe Illustrator 19.1.0, SVG Export Plug-In . SVG Version: 6.00 Build 0)  -->
<svg version="1.1" id="Ebene_1" xmlns="http://www.w3.org/2000/svg" xmlns:xlink="http://www.w3.org/1999/xlink" x="0px" y="0px"
	 viewBox="0 0 1280 720" style="enable-background:new 0 0 1280 720;" xml:space="preserve">
<style type="text/css">
	.st0{clip-path:url(#SVGID_2_);fill-rule:evenodd;clip-rule:evenodd;fill:#E8E8E8;}
	
		.st1{clip-path:url(#SVGID_2_);fill:none;stroke:#8C8C8C;stroke-width:0.144;stroke-linecap:round;stroke-linejoin:round;stroke-miterlimit:10;}
	
		.st2{clip-path:url(#SVGID_2_);fill:none;stroke:#9F9F9F;stroke-width:7.200000e-02;stroke-linecap:round;stroke-linejoin:round;stroke-miterlimit:10;}
	
		.st3{clip-path:url(#SVGID_2_);fill:none;stroke:#000000;stroke-width:0.144;stroke-linecap:round;stroke-linejoin:round;stroke-miterlimit:10;}
	.st4{clip-path:url(#SVGID_2_);fill-rule:evenodd;clip-rule:evenodd;fill:#FFFFFF;}
	.st5{clip-path:url(#SVGID_2_);fill-rule:evenodd;clip-rule:evenodd;fill:#212121;}
	
		.st6{clip-path:url(#SVGID_2_);fill:none;stroke:#000000;stroke-width:0.216;stroke-linecap:round;stroke-linejoin:round;stroke-miterlimit:10;}
	.st7{clip-path:url(#SVGID_2_);fill-rule:evenodd;clip-rule:evenodd;fill:#777777;}
	.st8{clip-path:url(#SVGID_2_);fill-rule:evenodd;clip-rule:evenodd;}
	
		.st9{clip-path:url(#SVGID_2_);fill:none;stroke:#000000;stroke-width:7.200000e-02;stroke-linecap:round;stroke-linejoin:round;stroke-miterlimit:10;}
	.st10{font-family:'GTEestiProText-Regular';}
	.st11{font-size:12px;}
	.st12{font-family:'ArialNarrow';}
	.st13{font-size:14.1989px;}
	.st14{fill-rule:evenodd;clip-rule:evenodd;fill:#FFFFFF;}
	.st15{fill:none;stroke:#000000;stroke-width:0.144;stroke-linecap:round;stroke-linejoin:round;stroke-miterlimit:10;}
	.st16{fill-rule:evenodd;clip-rule:evenodd;fill:#212121;}
	.st17{fill:none;stroke:#000000;stroke-width:0.216;stroke-linecap:round;stroke-linejoin:round;stroke-miterlimit:10;}
	.st18{fill-rule:evenodd;clip-rule:evenodd;fill:none;}
	.st19{fill:none;}
	.st20{clip-path:url(#SVGID_6_);fill-rule:evenodd;clip-rule:evenodd;fill:#E8E8E8;}
	
		.st21{clip-path:url(#SVGID_6_);fill:none;stroke:#8C8C8C;stroke-width:0.144;stroke-linecap:round;stroke-linejoin:round;stroke-miterlimit:10;}
	
		.st22{clip-path:url(#SVGID_6_);fill:none;stroke:#9F9F9F;stroke-width:7.200000e-02;stroke-linecap:round;stroke-linejoin:round;stroke-miterlimit:10;}
	
		.st23{clip-path:url(#SVGID_6_);fill:none;stroke:#000000;stroke-width:0.144;stroke-linecap:round;stroke-linejoin:round;stroke-miterlimit:10;}
	.st24{clip-path:url(#SVGID_6_);fill-rule:evenodd;clip-rule:evenodd;fill:#212121;}
	
		.st25{clip-path:url(#SVGID_6_);fill:none;stroke:#000000;stroke-width:0.216;stroke-linecap:round;stroke-linejoin:round;stroke-miterlimit:10;}
	.st26{clip-path:url(#SVGID_6_);fill-rule:evenodd;clip-rule:evenodd;fill:#FFFFFF;}
	.st27{clip-path:url(#SVGID_6_);fill-rule:evenodd;clip-rule:evenodd;fill:#777777;}
	.st28{fill-rule:evenodd;clip-rule:evenodd;fill:#E8E8E8;}
	.st29{fill:none;stroke:#8C8C8C;stroke-width:0.144;stroke-linecap:round;stroke-linejoin:round;stroke-miterlimit:10;}
	.st30{fill:none;stroke:#9F9F9F;stroke-width:7.200000e-02;stroke-linecap:round;stroke-linejoin:round;stroke-miterlimit:10;}
	.st31{fill-rule:evenodd;clip-rule:evenodd;fill:#777777;}
	.st32{fill:#FFFFFF;}
</style>
<g>
	<defs>
		<rect id="SVGID_1_" x="169.9" y="32.3" width="975.2" height="657.1"/>
	</defs>
	<clipPath id="SVGID_2_">
		<use xlink:href="#SVGID_1_"  style="overflow:visible;"/>
	</clipPath>
	<polyline class="st0" points="860,362.3 860,323.1 929.5,323.1 929.5,203.8 711.2,203.8 711.2,226 762.8,226 762.8,303.2 
		711.2,303.2 711.2,323.1 712.9,323.1 712.9,362.3 860,362.3 	"/>
	<polygon class="st1" points="860,362.3 860,323.1 929.5,323.1 929.5,203.8 711.2,203.8 711.2,226 762.8,226 762.8,303.2 
		711.2,303.2 711.2,323.1 712.9,323.1 712.9,362.3 	"/>
	<line class="st2" x1="618.6" y1="403.2" x2="618.6" y2="371.1"/>
	<line class="st2" x1="610.1" y1="403.2" x2="610.1" y2="371.1"/>
	<line class="st2" x1="610.1" y1="195.3" x2="610.1" y2="161.8"/>
	<line class="st2" x1="601.8" y1="403.2" x2="601.8" y2="371.1"/>
	<line class="st2" x1="601.8" y1="195.3" x2="601.8" y2="161.8"/>
	<line class="st2" x1="593.3" y1="403.2" x2="593.3" y2="371.1"/>
	<line class="st2" x1="593.3" y1="195.3" x2="593.3" y2="161.8"/>
	<line class="st2" x1="585.1" y1="403.2" x2="585.1" y2="371.1"/>
	<line class="st2" x1="585.1" y1="195.3" x2="585.1" y2="161.8"/>
	<line class="st2" x1="576.6" y1="403.2" x2="576.6" y2="371.1"/>
	<line class="st2" x1="576.6" y1="195.3" x2="576.6" y2="161.8"/>
	<line class="st2" x1="568.3" y1="403.2" x2="568.3" y2="371.1"/>
	<line class="st2" x1="568.3" y1="195.3" x2="568.3" y2="161.8"/>
	<line class="st2" x1="559.8" y1="403.2" x2="559.8" y2="371.1"/>
	<line class="st2" x1="559.8" y1="195.3" x2="559.8" y2="161.8"/>
	<line class="st2" x1="551.6" y1="403.2" x2="551.6" y2="371.1"/>
	<line class="st2" x1="551.6" y1="195.3" x2="551.6" y2="161.8"/>
	<line class="st2" x1="543" y1="403.2" x2="543" y2="371.1"/>
	<line class="st2" x1="543" y1="195.3" x2="543" y2="161.8"/>
	<line class="st2" x1="534.8" y1="403.2" x2="534.8" y2="371.1"/>
	<line class="st2" x1="534.8" y1="195.3" x2="534.8" y2="161.8"/>
	<line class="st2" x1="526.3" y1="403.2" x2="526.3" y2="371.1"/>
	<line class="st2" x1="526.3" y1="195.3" x2="526.3" y2="161.8"/>
	<line class="st2" x1="517.8" y1="403.2" x2="517.8" y2="371.1"/>
	<line class="st2" x1="517.8" y1="195.3" x2="517.8" y2="161.8"/>
	<line class="st2" x1="509.5" y1="403.2" x2="509.5" y2="371.1"/>
	<line class="st2" x1="509.5" y1="195.3" x2="509.5" y2="161.8"/>
	<line class="st2" x1="501" y1="403.2" x2="501" y2="371.1"/>
	<line class="st2" x1="501" y1="195.3" x2="501" y2="161.8"/>
	<line class="st2" x1="492.8" y1="403.2" x2="492.8" y2="371.1"/>
	<line class="st2" x1="492.8" y1="195.3" x2="492.8" y2="161.8"/>
	<line class="st2" x1="484.3" y1="403.2" x2="484.3" y2="371.1"/>
	<line class="st2" x1="484.3" y1="195.3" x2="484.3" y2="161.8"/>
	<line class="st2" x1="476" y1="403.2" x2="476" y2="331.6"/>
	<line class="st2" x1="476" y1="195.3" x2="476" y2="161.8"/>
	<line class="st2" x1="467.5" y1="403.2" x2="467.5" y2="331.6"/>
	<line class="st2" x1="467.5" y1="195.3" x2="467.5" y2="161.8"/>
	<line class="st2" x1="459.3" y1="403.2" x2="459.3" y2="331.6"/>
	<line class="st2" x1="459.3" y1="195.3" x2="459.3" y2="161.8"/>
	<line class="st2" x1="450.8" y1="403.2" x2="450.8" y2="331.6"/>
	<line class="st2" x1="450.8" y1="195.3" x2="450.8" y2="161.8"/>
	<line class="st2" x1="442.5" y1="403.2" x2="442.5" y2="331.6"/>
	<line class="st2" x1="442.5" y1="195.3" x2="442.5" y2="161.8"/>
	<line class="st2" x1="434" y1="403.2" x2="434" y2="331.6"/>
	<line class="st2" x1="434" y1="195.3" x2="434" y2="161.8"/>
	<line class="st2" x1="425.8" y1="403.2" x2="425.8" y2="331.6"/>
	<line class="st2" x1="425.8" y1="195.3" x2="425.8" y2="161.8"/>
	<line class="st2" x1="417.2" y1="403.2" x2="417.2" y2="331.6"/>
	<line class="st2" x1="417.2" y1="195.3" x2="417.2" y2="161.8"/>
	<line class="st2" x1="409" y1="403.2" x2="409" y2="331.6"/>
	<line class="st2" x1="409" y1="195.3" x2="409" y2="161.8"/>
	<line class="st2" x1="400.5" y1="403.2" x2="400.5" y2="161.8"/>
	<line class="st2" x1="400.2" y1="399.2" x2="622.3" y2="399.2"/>
	<line class="st2" x1="400.2" y1="390.7" x2="622.3" y2="390.7"/>
	<line class="st2" x1="400.2" y1="382.2" x2="622.3" y2="382.2"/>
	<line class="st2" x1="400.2" y1="373.9" x2="622.3" y2="373.9"/>
	<line class="st2" x1="400.2" y1="365.4" x2="481.7" y2="365.4"/>
	<line class="st2" x1="400.2" y1="357.2" x2="481.7" y2="357.2"/>
	<line class="st2" x1="400.2" y1="348.7" x2="481.7" y2="348.7"/>
	<line class="st2" x1="400.2" y1="340.4" x2="481.7" y2="340.4"/>
	<line class="st2" x1="400.2" y1="331.9" x2="481.7" y2="331.9"/>
	<line class="st2" x1="400.2" y1="323.7" x2="408.4" y2="323.7"/>
	<line class="st2" x1="400.2" y1="315.2" x2="408.4" y2="315.2"/>
	<line class="st2" x1="400.2" y1="306.9" x2="408.4" y2="306.9"/>
	<line class="st2" x1="400.2" y1="298.4" x2="408.4" y2="298.4"/>
	<line class="st2" x1="400.2" y1="290.2" x2="408.4" y2="290.2"/>
	<line class="st2" x1="400.2" y1="281.7" x2="408.4" y2="281.7"/>
	<line class="st2" x1="400.2" y1="273.4" x2="408.4" y2="273.4"/>
	<line class="st2" x1="400.2" y1="264.9" x2="408.4" y2="264.9"/>
	<line class="st2" x1="400.2" y1="256.7" x2="408.4" y2="256.7"/>
	<line class="st2" x1="400.2" y1="248.1" x2="408.4" y2="248.1"/>
	<line class="st2" x1="400.2" y1="239.6" x2="408.4" y2="239.6"/>
	<line class="st2" x1="400.2" y1="231.4" x2="408.4" y2="231.4"/>
	<line class="st2" x1="400.2" y1="222.9" x2="408.4" y2="222.9"/>
	<line class="st2" x1="400.2" y1="214.6" x2="408.4" y2="214.6"/>
	<line class="st2" x1="400.2" y1="206.1" x2="408.4" y2="206.1"/>
	<line class="st2" x1="400.2" y1="197.9" x2="408.4" y2="197.9"/>
	<line class="st2" x1="400.2" y1="189.4" x2="616.9" y2="189.4"/>
	<line class="st2" x1="400.2" y1="181.1" x2="616.9" y2="181.1"/>
	<line class="st2" x1="400.2" y1="172.6" x2="616.9" y2="172.6"/>
	<line class="st2" x1="400.2" y1="164.4" x2="616.9" y2="164.4"/>
	<polygon class="st3" points="616.9,161.8 400.2,161.8 400.2,403.2 622.3,403.2 622.3,371.1 481.7,371.1 481.7,331.6 408.4,331.6 
		408.4,195.3 616.9,195.3 	"/>
	<path class="st0" d="M563.5,290h-16.8v-14.3h16.8V290 M486.9,323v39.4h146.9V323h1.8v-19.8H584v-77.3h51.7v-22H417V323H486.9"/>
	<path class="st1" d="M563.5,290h-16.8v-14.3h16.8V290 M486.9,323v39.4h146.9V323h1.8v-19.8H584v-77.3h51.7v-22H417V323H486.9"/>
	<polyline class="st3" points="1145.1,136 751.5,122.3 531.4,113.5 521.7,113 292.9,107.9 254.2,105.9 253.4,277.1 253.4,484.7 
		1106.5,483 	"/>
	<polyline class="st4" points="549.6,311.2 560.7,311.2 560.7,362.3 549.6,362.3 549.6,311.2 	"/>
	<rect x="549.6" y="311.2" class="st3" width="11.1" height="51.1"/>
	<polyline class="st4" points="549.6,289.9 560.7,289.9 560.7,311.2 549.6,311.2 549.6,289.9 	"/>
	<rect x="549.6" y="289.9" class="st3" width="11.1" height="21.3"/>
	<polyline class="st4" points="786.1,362.3 796.9,362.3 796.9,296.1 810.3,296.1 810.3,284.2 786.1,284.2 786.1,362.3 	"/>
	<polygon class="st3" points="786.1,362.3 796.9,362.3 796.9,296.1 810.3,296.1 810.3,284.2 786.1,284.2 	"/>
	<polyline class="st4" points="786.1,362.3 796.9,362.3 796.9,341.3 786.1,341.3 786.1,362.3 	"/>
	<rect x="786.1" y="341.3" class="st3" width="10.8" height="21"/>
	<polyline class="st4" points="551.6,343 558.1,343 558.1,349.8 551.6,349.8 551.6,343 	"/>
	<rect x="551.6" y="343" class="st3" width="6.5" height="6.8"/>
	<rect x="807.4" y="169.5" class="st3" width="31.5" height="25.8"/>
	<polyline class="st4" points="788.4,314.3 795.2,314.3 795.2,307.8 788.4,307.8 788.4,314.3 	"/>
	<rect x="788.4" y="307.8" class="st3" width="6.8" height="6.5"/>
	<line class="st2" x1="928.7" y1="403.2" x2="928.7" y2="331.6"/>
	<line class="st2" x1="920.5" y1="403.2" x2="920.5" y2="331.6"/>
	<line class="st2" x1="911.9" y1="403.2" x2="911.9" y2="331.6"/>
	<line class="st2" x1="903.7" y1="403.2" x2="903.7" y2="331.6"/>
	<line class="st2" x1="895.2" y1="403.2" x2="895.2" y2="331.6"/>
	<line class="st2" x1="886.9" y1="403.2" x2="886.9" y2="331.6"/>
	<line class="st2" x1="878.4" y1="403.2" x2="878.4" y2="331.6"/>
	<line class="st2" x1="870.2" y1="403.2" x2="870.2" y2="331.6"/>
	<line class="st2" x1="861.7" y1="403.2" x2="861.7" y2="371.1"/>
	<line class="st2" x1="853.4" y1="403.2" x2="853.4" y2="371.1"/>
	<line class="st2" x1="844.9" y1="403.2" x2="844.9" y2="371.1"/>
	<line class="st2" x1="836.7" y1="403.2" x2="836.7" y2="371.1"/>
	<line class="st2" x1="828.2" y1="403.2" x2="828.2" y2="371.1"/>
	<line class="st2" x1="819.6" y1="403.2" x2="819.6" y2="371.1"/>
	<line class="st2" x1="811.4" y1="403.2" x2="811.4" y2="371.1"/>
	<line class="st2" x1="802.9" y1="403.2" x2="802.9" y2="371.1"/>
	<line class="st2" x1="794.7" y1="403.2" x2="794.7" y2="371.1"/>
	<line class="st2" x1="786.1" y1="403.2" x2="786.1" y2="371.1"/>
	<line class="st2" x1="777.9" y1="403.2" x2="777.9" y2="371.1"/>
	<line class="st2" x1="769.4" y1="403.2" x2="769.4" y2="371.1"/>
	<line class="st2" x1="761.1" y1="403.2" x2="761.1" y2="371.1"/>
	<line class="st2" x1="752.6" y1="403.2" x2="752.6" y2="371.1"/>
	<line class="st2" x1="744.4" y1="403.2" x2="744.4" y2="371.1"/>
	<line class="st2" x1="735.9" y1="403.2" x2="735.9" y2="371.1"/>
	<line class="st2" x1="727.6" y1="403.2" x2="727.6" y2="371.1"/>
	<line class="st2" x1="724.5" y1="399.2" x2="929.5" y2="399.2"/>
	<line class="st2" x1="724.5" y1="390.7" x2="929.5" y2="390.7"/>
	<line class="st2" x1="724.5" y1="382.2" x2="929.5" y2="382.2"/>
	<line class="st2" x1="724.5" y1="373.9" x2="929.5" y2="373.9"/>
	<line class="st2" x1="864.8" y1="365.4" x2="929.5" y2="365.4"/>
	<line class="st2" x1="864.8" y1="357.2" x2="929.5" y2="357.2"/>
	<line class="st2" x1="864.8" y1="348.7" x2="929.5" y2="348.7"/>
	<line class="st2" x1="864.8" y1="340.4" x2="929.5" y2="340.4"/>
	<line class="st2" x1="864.8" y1="331.9" x2="929.5" y2="331.9"/>
	<polygon class="st3" points="798.1,371.1 771.4,371.1 724.5,371.1 724.5,403.2 929.5,403.2 929.5,331.6 919,331.6 871,331.6 
		864.8,331.6 864.8,361.5 864.8,371.1 844.6,371.1 	"/>
	<line class="st3" x1="160.5" y1="484.7" x2="253.4" y2="484.7"/>
	<line class="st3" x1="293.1" y1="630.7" x2="289.7" y2="571.3"/>
	<line class="st3" x1="169.9" y1="103.6" x2="254.2" y2="105.9"/>
	<line class="st3" x1="289.5" y1="32.3" x2="292.9" y2="107.9"/>
	<line class="st3" x1="517.8" y1="32.3" x2="521.7" y2="113"/>
	<line class="st3" x1="746.9" y1="32.3" x2="751.5" y2="122.3"/>
	<line class="st3" x1="635.6" y1="240.2" x2="656.6" y2="240.2"/>
	<line class="st3" x1="635.6" y1="254.1" x2="656.6" y2="254.1"/>
	<line class="st3" x1="690.1" y1="272.6" x2="711.2" y2="272.6"/>
	<line class="st3" x1="690.1" y1="267.7" x2="711.2" y2="267.7"/>
	<line class="st3" x1="690.1" y1="263.2" x2="711.2" y2="263.2"/>
	<line class="st3" x1="690.1" y1="258.7" x2="711.2" y2="258.7"/>
	<line class="st3" x1="690.1" y1="254.1" x2="711.2" y2="254.1"/>
	<line class="st3" x1="690.1" y1="240.2" x2="711.2" y2="240.2"/>
	<line class="st3" x1="690.1" y1="241.6" x2="711.2" y2="250.7"/>
	<line class="st3" x1="690.1" y1="235.6" x2="711.2" y2="235.6"/>
	<line class="st3" x1="705.2" y1="418.8" x2="684.2" y2="418.8"/>
	<line class="st3" x1="705.2" y1="414.3" x2="684.2" y2="414.3"/>
	<line class="st3" x1="705.2" y1="409.4" x2="684.2" y2="409.4"/>
	<line class="st3" x1="705.2" y1="404.6" x2="684.2" y2="404.6"/>
	<line class="st3" x1="705.2" y1="399.8" x2="684.2" y2="399.8"/>
	<line class="st3" x1="705.2" y1="395" x2="684.2" y2="395"/>
	<line class="st3" x1="705.2" y1="390.1" x2="684.2" y2="390.1"/>
	<line class="st3" x1="705.2" y1="385.6" x2="684.2" y2="385.6"/>
	<line class="st3" x1="705.2" y1="380.8" x2="684.2" y2="380.8"/>
	<line class="st3" x1="705.2" y1="375.9" x2="684.2" y2="375.9"/>
	<line class="st3" x1="705.2" y1="371.1" x2="684.2" y2="371.1"/>
	<line class="st3" x1="635.6" y1="258.7" x2="656.6" y2="258.7"/>
	<line class="st3" x1="635.6" y1="263.2" x2="656.6" y2="263.2"/>
	<line class="st3" x1="807.4" y1="183.1" x2="839" y2="183.1"/>
	<line class="st3" x1="807.4" y1="178.6" x2="839" y2="178.6"/>
	<line class="st3" x1="807.4" y1="174" x2="839" y2="174"/>
	<line class="st3" x1="690.1" y1="249.3" x2="708" y2="249.3"/>
	<line class="st3" x1="635.6" y1="267.7" x2="656.6" y2="267.7"/>
	<line class="st3" x1="635.6" y1="249.3" x2="656.6" y2="249.3"/>
	<line class="st3" x1="656.6" y1="249.3" x2="656.6" y2="249.3"/>
	<polyline class="st3" points="635.6,244.7 643.9,244.7 656.6,244.7 	"/>
	<line class="st3" x1="708" y1="249.3" x2="711.2" y2="249.3"/>
	<line class="st3" x1="690.1" y1="244.7" x2="697.5" y2="244.7"/>
	<line class="st3" x1="697.5" y1="244.7" x2="711.2" y2="244.7"/>
	<polyline class="st4" points="835.5,353.5 835.5,346.1 843.2,346.1 843.2,353.5 835.5,353.5 	"/>
	<rect x="835.5" y="346.1" class="st3" width="7.7" height="7.4"/>
	<polyline class="st4" points="835.5,343.6 835.5,335.9 843.2,335.9 843.2,343.6 835.5,343.6 	"/>
	<rect x="835.5" y="335.9" class="st3" width="7.7" height="7.7"/>
	<polyline class="st4" points="835.5,333.6 835.5,326 843.2,326 843.2,333.6 835.5,333.6 	"/>
	<rect x="835.5" y="326" class="st3" width="7.7" height="7.7"/>
	<polyline class="st4" points="814.5,353.5 814.5,346.1 822.2,346.1 822.2,353.5 814.5,353.5 	"/>
	<rect x="814.5" y="346.1" class="st3" width="7.7" height="7.4"/>
	<polyline class="st4" points="814.5,343.6 814.5,335.9 822.2,335.9 822.2,343.6 814.5,343.6 	"/>
	<rect x="814.5" y="335.9" class="st3" width="7.7" height="7.7"/>
	<polyline class="st4" points="814.5,333.6 814.5,326 822.2,326 822.2,333.6 814.5,333.6 	"/>
	<rect x="814.5" y="326" class="st3" width="7.7" height="7.7"/>
	<polyline class="st4" points="822.2,356.6 822.2,323.1 835.5,323.1 835.5,356.6 822.2,356.6 	"/>
	<rect x="822.2" y="323.1" class="st3" width="13.3" height="33.5"/>
	<polyline class="st4" points="620.6,238.8 620.6,228.8 630.2,228.8 630.2,238.8 620.6,238.8 	"/>
	<rect x="620.6" y="228.8" class="st3" width="9.7" height="9.9"/>
	<polyline class="st4" points="726.2,238.8 726.2,228.8 716.6,228.8 716.6,238.8 726.2,238.8 	"/>
	<rect x="716.6" y="228.8" class="st3" width="9.7" height="9.9"/>
	<polyline class="st3" points="549.6,293.3 527.1,293.3 527.1,272.3 563.5,272.3 563.5,275.7 	"/>
	<line class="st3" x1="408.4" y1="331.1" x2="405.9" y2="331.1"/>
	<line class="st3" x1="405.9" y1="331.1" x2="405.9" y2="332.8"/>
	<line class="st3" x1="405.9" y1="336.2" x2="405.9" y2="339.6"/>
	<line class="st3" x1="405.9" y1="343" x2="405.9" y2="346.4"/>
	<line class="st3" x1="405.9" y1="349.8" x2="405.9" y2="353.2"/>
	<line class="st3" x1="405.9" y1="356.6" x2="405.9" y2="360"/>
	<line class="st3" x1="405.9" y1="363.4" x2="405.9" y2="366.8"/>
	<line class="st3" x1="405.9" y1="370.3" x2="405.9" y2="373.7"/>
	<line class="st3" x1="405.9" y1="377.1" x2="405.9" y2="380.5"/>
	<line class="st3" x1="405.9" y1="383.9" x2="405.9" y2="385.6"/>
	<line class="st3" x1="405.9" y1="385.6" x2="409" y2="385.6"/>
	<line class="st3" x1="412.4" y1="385.6" x2="415.8" y2="385.6"/>
	<line class="st3" x1="419.2" y1="385.6" x2="422.6" y2="385.6"/>
	<line class="st3" x1="426" y1="385.6" x2="429.5" y2="385.6"/>
	<line class="st3" x1="432.9" y1="385.6" x2="436.3" y2="385.6"/>
	<line class="st3" x1="439.7" y1="385.6" x2="443.1" y2="385.6"/>
	<line class="st3" x1="446.5" y1="385.6" x2="449.9" y2="385.6"/>
	<line class="st3" x1="453.3" y1="385.6" x2="456.7" y2="385.6"/>
	<line class="st3" x1="460.1" y1="385.6" x2="463.5" y2="385.6"/>
	<line class="st3" x1="466.9" y1="385.6" x2="470.3" y2="385.6"/>
	<line class="st3" x1="473.8" y1="385.6" x2="477.2" y2="385.6"/>
	<line class="st3" x1="480.6" y1="385.6" x2="484" y2="385.6"/>
	<line class="st3" x1="487.4" y1="385.6" x2="490.8" y2="385.6"/>
	<line class="st3" x1="494.2" y1="385.6" x2="497.6" y2="385.6"/>
	<line class="st3" x1="501" y1="385.6" x2="504.4" y2="385.6"/>
	<line class="st3" x1="507.8" y1="385.6" x2="511.2" y2="385.6"/>
	<line class="st3" x1="514.6" y1="385.6" x2="518.1" y2="385.6"/>
	<line class="st3" x1="521.5" y1="385.6" x2="524.9" y2="385.6"/>
	<line class="st3" x1="528.3" y1="385.6" x2="531.7" y2="385.6"/>
	<line class="st3" x1="535.1" y1="385.6" x2="538.5" y2="385.6"/>
	<line class="st3" x1="541.9" y1="385.6" x2="545.3" y2="385.6"/>
	<line class="st3" x1="548.7" y1="385.6" x2="552.1" y2="385.6"/>
	<line class="st3" x1="555.5" y1="385.6" x2="559" y2="385.6"/>
	<line class="st3" x1="562.4" y1="385.6" x2="565.8" y2="385.6"/>
	<line class="st3" x1="569.2" y1="385.6" x2="572.6" y2="385.6"/>
	<line class="st3" x1="576" y1="385.6" x2="579.4" y2="385.6"/>
	<line class="st3" x1="582.8" y1="385.6" x2="586.2" y2="385.6"/>
	<line class="st3" x1="589.6" y1="385.6" x2="593" y2="385.6"/>
	<line class="st3" x1="596.4" y1="385.6" x2="599.8" y2="385.6"/>
	<line class="st3" x1="603.3" y1="385.6" x2="606.7" y2="385.6"/>
	<line class="st3" x1="610.1" y1="385.6" x2="613.5" y2="385.6"/>
	<line class="st3" x1="616.9" y1="385.6" x2="620.3" y2="385.6"/>
	<line class="st3" x1="623.7" y1="385.6" x2="627.1" y2="385.6"/>
	<line class="st3" x1="630.5" y1="385.6" x2="633.9" y2="385.6"/>
	<line class="st3" x1="637.3" y1="385.6" x2="640.7" y2="385.6"/>
	<line class="st3" x1="644.1" y1="385.6" x2="647.6" y2="385.6"/>
	<line class="st3" x1="651" y1="385.6" x2="654.4" y2="385.6"/>
	<line class="st3" x1="657.8" y1="385.6" x2="661.2" y2="385.6"/>
	<line class="st3" x1="664.6" y1="385.6" x2="668" y2="385.6"/>
	<line class="st3" x1="671.4" y1="385.6" x2="674.8" y2="385.6"/>
	<line class="st3" x1="678.2" y1="385.6" x2="681.6" y2="385.6"/>
	<line class="st3" x1="685" y1="385.6" x2="688.4" y2="385.6"/>
	<line class="st3" x1="691.9" y1="385.6" x2="695.3" y2="385.6"/>
	<line class="st3" x1="698.7" y1="385.6" x2="702.1" y2="385.6"/>
	<line class="st3" x1="705.5" y1="385.6" x2="708.9" y2="385.6"/>
	<line class="st3" x1="712.3" y1="385.6" x2="715.7" y2="385.6"/>
	<line class="st3" x1="719.1" y1="385.6" x2="722.5" y2="385.6"/>
	<line class="st3" x1="725.9" y1="385.6" x2="729.3" y2="385.6"/>
	<line class="st3" x1="732.7" y1="385.6" x2="736.2" y2="385.6"/>
	<line class="st3" x1="739.6" y1="385.6" x2="743" y2="385.6"/>
	<line class="st3" x1="746.4" y1="385.6" x2="749.8" y2="385.6"/>
	<line class="st3" x1="753.2" y1="385.6" x2="756.6" y2="385.6"/>
	<line class="st3" x1="760" y1="385.6" x2="763.4" y2="385.6"/>
	<line class="st3" x1="766.8" y1="385.6" x2="770.2" y2="385.6"/>
	<line class="st3" x1="773.6" y1="385.6" x2="777" y2="385.6"/>
	<line class="st3" x1="780.5" y1="385.6" x2="783.9" y2="385.6"/>
	<line class="st3" x1="787.3" y1="385.6" x2="790.7" y2="385.6"/>
	<line class="st3" x1="794.1" y1="385.6" x2="797.5" y2="385.6"/>
	<line class="st3" x1="800.9" y1="385.6" x2="804.3" y2="385.6"/>
	<line class="st3" x1="807.7" y1="385.6" x2="811.1" y2="385.6"/>
	<line class="st3" x1="814.5" y1="385.6" x2="817.9" y2="385.6"/>
	<line class="st3" x1="821.3" y1="385.6" x2="824.8" y2="385.6"/>
	<line class="st3" x1="828.2" y1="385.6" x2="831.6" y2="385.6"/>
	<line class="st3" x1="835" y1="385.6" x2="838.4" y2="385.6"/>
	<line class="st3" x1="841.8" y1="385.6" x2="845.2" y2="385.6"/>
	<line class="st3" x1="848.6" y1="385.6" x2="852" y2="385.6"/>
	<line class="st3" x1="855.4" y1="385.6" x2="858.8" y2="385.6"/>
	<line class="st3" x1="862.2" y1="385.6" x2="865.6" y2="385.6"/>
	<line class="st3" x1="869.1" y1="385.6" x2="872.5" y2="385.6"/>
	<line class="st3" x1="875.9" y1="385.6" x2="879.3" y2="385.6"/>
	<line class="st3" x1="882.7" y1="385.6" x2="886.1" y2="385.6"/>
	<line class="st3" x1="889.5" y1="385.6" x2="892.9" y2="385.6"/>
	<line class="st3" x1="896.3" y1="385.6" x2="899.7" y2="385.6"/>
	<line class="st3" x1="903.1" y1="385.6" x2="906.5" y2="385.6"/>
	<line class="st3" x1="909.9" y1="385.6" x2="913.4" y2="385.6"/>
	<line class="st3" x1="916.8" y1="385.6" x2="920.2" y2="385.6"/>
	<line class="st3" x1="923.6" y1="385.6" x2="927" y2="385.6"/>
	<line class="st3" x1="930.4" y1="385.6" x2="933.5" y2="385.6"/>
	<line class="st3" x1="933.5" y1="385.6" x2="933.5" y2="383.6"/>
	<line class="st3" x1="933.5" y1="380.2" x2="933.5" y2="376.8"/>
	<line class="st3" x1="933.5" y1="373.4" x2="933.5" y2="371.1"/>
	<polyline class="st3" points="705.2,371.1 705.2,425.1 933.5,425.1 933.5,371.1 929.5,371.1 929.5,420.8 709.5,420.8 709.5,371.1 	
		"/>
	<polyline class="st5" points="546.7,286.8 548.7,286.8 548.7,287.9 560.7,287.9 560.7,278 548.7,278 548.7,279.1 546.7,279.1 
		546.7,275.7 563.5,275.7 563.5,362.3 574.3,362.3 574.3,371.1 547.6,371.1 547.6,362.3 560.7,362.3 560.7,289.9 546.7,289.9 
		546.7,286.8 	"/>
	<polygon class="st6" points="546.7,286.8 548.7,286.8 548.7,287.9 560.7,287.9 560.7,278 548.7,278 548.7,279.1 546.7,279.1 
		546.7,275.7 563.5,275.7 563.5,362.3 574.3,362.3 574.3,371.1 547.6,371.1 547.6,362.3 560.7,362.3 560.7,289.9 546.7,289.9 	"/>
	<path class="st5" d="M720.7,264.2V241h-6.3v23.2H720.7 M714.4,265.1v4.7h44.9v-4.7H714.4 M714.4,240.2h7.1v24.1h37.8v-23.8h-15.8
		v-14.5h2.1v12.4h13.7v-12.4h3.4v57.7h-3.4v-13h-44.9v30.5h48.3v2.1h-49.8v59.2h11.6v8.6h-19.3V299h5.9v-73.1h3.4h14.4v2.1h-14.4
		V240.2"/>
	<path class="st6" d="M720.7,264.2V241h-6.3v23.2H720.7 M714.4,265.1v4.7h44.9v-4.7H714.4 M714.4,240.2h7.1v24.1h37.8v-23.8h-15.8
		v-14.5h2.1v12.4h13.7v-12.4h3.4v57.7h-3.4v-13h-44.9v30.5h48.3v2.1h-49.8v59.2h11.6v8.6h-19.3V299h5.9v-73.1h3.4h14.4v2.1h-14.4
		V240.2"/>
	<polyline class="st5" points="417,365.7 413.6,365.7 413.6,362.3 417,362.3 417,365.7 	"/>
	<rect x="413.6" y="362.3" class="st6" width="3.4" height="3.4"/>
	<polyline class="st5" points="690.1,273.7 686.7,273.7 686.7,234.2 690.1,234.2 690.1,273.7 	"/>
	<rect x="686.7" y="234.2" class="st6" width="3.4" height="39.5"/>
	<polyline class="st5" points="864.8,371.1 847.2,371.1 847.2,362.3 864.8,362.3 864.8,371.1 	"/>
	<rect x="847.2" y="362.3" class="st6" width="17.6" height="8.8"/>
	<polyline class="st5" points="879.6,203.8 838.1,203.8 838.1,195.3 879.6,195.3 879.6,203.8 	"/>
	<rect x="838.1" y="195.3" class="st6" width="41.5" height="8.5"/>
	<polyline class="st5" points="729.9,203.8 688.7,203.8 688.7,195.3 729.9,195.3 729.9,203.8 	"/>
	<rect x="688.7" y="195.3" class="st6" width="41.2" height="8.5"/>
	<polyline class="st5" points="486.8,331.6 476,331.6 476,323.1 486.8,323.1 486.8,331.6 	"/>
	<rect x="476" y="323.1" class="st6" width="10.8" height="8.5"/>
	<polyline class="st5" points="508.4,203.8 467.2,203.8 467.2,195.3 508.4,195.3 508.4,203.8 	"/>
	<rect x="467.2" y="195.3" class="st6" width="41.2" height="8.5"/>
	<polyline class="st5" points="586.2,203.8 539.1,203.8 539.1,195.3 586.2,195.3 586.2,203.8 	"/>
	<rect x="539.1" y="195.3" class="st6" width="47.1" height="8.5"/>
	<polyline class="st5" points="408.4,215.2 408.4,195.3 436.8,195.3 436.8,203.8 417,203.8 417,215.2 408.4,215.2 	"/>
	<polygon class="st6" points="408.4,215.2 408.4,195.3 436.8,195.3 436.8,203.8 417,203.8 417,215.2 	"/>
	<polyline class="st5" points="428,323.1 428,331.6 408.4,331.6 408.4,244.7 417,244.7 417,257.2 486.8,257.2 486.8,221.2 
		489.4,221.2 489.4,293.3 486.8,293.3 486.8,259.5 417,259.5 417,323.1 428,323.1 	"/>
	<polygon class="st6" points="428,323.1 428,331.6 408.4,331.6 408.4,244.7 417,244.7 417,257.2 486.8,257.2 486.8,221.2 
		489.4,221.2 489.4,293.3 486.8,293.3 486.8,259.5 417,259.5 417,323.1 	"/>
	<polyline class="st5" points="499.6,371.1 481.7,371.1 481.7,362.3 499.6,362.3 499.6,371.1 	"/>
	<rect x="481.7" y="362.3" class="st6" width="17.9" height="8.8"/>
	<polyline class="st5" points="658.1,203.8 616.9,203.8 616.9,195.3 658.1,195.3 658.1,203.8 	"/>
	<rect x="616.9" y="195.3" class="st6" width="41.2" height="8.5"/>
	<polyline class="st5" points="807.7,203.8 760.3,203.8 760.3,195.3 807.7,195.3 807.7,203.8 	"/>
	<rect x="760.3" y="195.3" class="st6" width="47.4" height="8.5"/>
	<polyline class="st5" points="870.8,331.6 860,331.6 860,323.1 870.8,323.1 870.8,331.6 	"/>
	<rect x="860" y="323.1" class="st6" width="10.8" height="8.5"/>
	<polyline class="st5" points="799.2,371.1 772.5,371.1 772.5,362.3 799.2,362.3 799.2,371.1 	"/>
	<rect x="772.5" y="362.3" class="st6" width="26.7" height="8.8"/>
	<polyline class="st5" points="810.3,282.2 810.3,284.2 786.1,284.2 786.1,362.3 783.3,362.3 783.3,282.2 810.3,282.2 	"/>
	<polygon class="st6" points="810.3,282.2 810.3,284.2 786.1,284.2 786.1,362.3 783.3,362.3 783.3,282.2 	"/>
	<polyline class="st5" points="929.5,323.1 929.5,259.5 860,259.5 860,293.3 857.4,293.3 857.4,221.2 860,221.2 860,257.2 
		929.5,257.2 929.5,203.8 909.9,203.8 909.9,195.3 933.8,195.3 933.8,203.8 933.5,203.8 933.5,331.6 933.5,371.1 929.5,371.1 
		929.5,331.6 918.8,331.6 918.8,323.1 929.5,323.1 	"/>
	<polygon class="st6" points="929.5,323.1 929.5,259.5 860,259.5 860,293.3 857.4,293.3 857.4,221.2 860,221.2 860,257.2 
		929.5,257.2 929.5,203.8 909.9,203.8 909.9,195.3 933.8,195.3 933.8,203.8 933.5,203.8 933.5,331.6 933.5,371.1 929.5,371.1 
		929.5,331.6 918.8,331.6 918.8,323.1 	"/>
	<polyline class="st5" points="666,270.3 666,273.7 656.6,273.7 656.6,234.2 666,234.2 666,237.6 660,237.6 660,270.3 666,270.3 	
		"/>
	<polygon class="st6" points="666,270.3 666,273.7 656.6,273.7 656.6,234.2 666,234.2 666,237.6 660,237.6 660,270.3 	"/>
	<path class="st5" d="M632.3,241H626v23.2h6.3V241 M587.3,265.1v4.7h44.9v-4.7H587.3 M625.1,264.2v-24.1h7.1V228h-14.4v-2.1h14.4
		h3.4V299h5.9V371h-19.3v-8.6h11.6v-59.2H584v-2.1h48.3v-30.5h-44.9v13H584v-57.7h3.4v12.4H601v-12.4h2.1v14.5h-15.8v23.8H625.1"/>
	<path class="st6" d="M632.3,241H626v23.2h6.3V241 M587.3,265.1v4.7h44.9v-4.7H587.3 M625.1,264.2v-24.1h7.1V228h-14.4v-2.1h14.4
		h3.4V299h5.9V371h-19.3v-8.6h11.6v-59.2H584v-2.1h48.3v-30.5h-44.9v13H584v-57.7h3.4v12.4H601v-12.4h2.1v14.5h-15.8v23.8H625.1"/>
	<rect x="408.4" y="215.2" class="st4" width="8.5" height="29.5"/>
	<rect x="408.4" y="215.2" class="st3" width="8.5" height="29.5"/>
	<rect x="436.8" y="195.3" class="st4" width="30.4" height="8.5"/>
	<rect x="436.8" y="195.3" class="st3" width="30.4" height="8.5"/>
	<rect x="508.4" y="195.3" class="st4" width="30.7" height="8.5"/>
	<rect x="508.4" y="195.3" class="st3" width="30.7" height="8.5"/>
	<rect x="586.2" y="195.3" class="st4" width="30.7" height="8.5"/>
	<rect x="586.2" y="195.3" class="st3" width="30.7" height="8.5"/>
	<rect x="658.1" y="195.3" class="st4" width="30.7" height="8.5"/>
	<rect x="658.1" y="195.3" class="st3" width="30.7" height="8.5"/>
	<rect x="729.9" y="195.3" class="st4" width="30.4" height="8.5"/>
	<rect x="729.9" y="195.3" class="st3" width="30.4" height="8.5"/>
	<rect x="807.7" y="195.3" class="st4" width="30.4" height="8.5"/>
	<rect x="807.7" y="195.3" class="st3" width="30.4" height="8.5"/>
	<rect x="879.6" y="195.3" class="st4" width="30.4" height="8.5"/>
	<rect x="879.6" y="195.3" class="st3" width="30.4" height="8.5"/>
	<rect x="428" y="323.1" class="st4" width="48" height="8.5"/>
	<rect x="428" y="323.1" class="st3" width="48" height="8.5"/>
	<rect x="499.6" y="362.3" class="st4" width="48" height="8.8"/>
	<rect x="499.6" y="362.3" class="st3" width="48" height="8.8"/>
	<rect x="481.7" y="331.6" class="st4" width="4" height="30.7"/>
	<rect x="481.7" y="331.6" class="st3" width="4" height="30.7"/>
	<rect x="574.3" y="362.3" class="st4" width="48" height="8.8"/>
	<rect x="574.3" y="362.3" class="st3" width="48" height="8.8"/>
	<rect x="724.5" y="362.3" class="st4" width="48" height="8.8"/>
	<rect x="724.5" y="362.3" class="st3" width="48" height="8.8"/>
	<rect x="799.2" y="362.3" class="st4" width="48" height="8.8"/>
	<rect x="799.2" y="362.3" class="st3" width="48" height="8.8"/>
	<rect x="861.1" y="331.6" class="st4" width="3.7" height="30.7"/>
	<rect x="861.1" y="331.6" class="st3" width="3.7" height="30.7"/>
	<rect x="870.8" y="323.1" class="st4" width="48" height="8.5"/>
	<rect x="870.8" y="323.1" class="st3" width="48" height="8.5"/>
	<line class="st3" x1="476" y1="327.7" x2="428" y2="327.7"/>
	<line class="st3" x1="413.6" y1="244.7" x2="413.6" y2="215.2"/>
	<line class="st3" x1="436.8" y1="200.7" x2="467.2" y2="200.7"/>
	<line class="st3" x1="508.4" y1="200.7" x2="539.1" y2="200.7"/>
	<line class="st3" x1="586.2" y1="200.7" x2="616.9" y2="200.7"/>
	<line class="st3" x1="658.1" y1="200.7" x2="688.7" y2="200.7"/>
	<line class="st3" x1="729.9" y1="200.7" x2="760.3" y2="200.7"/>
	<line class="st3" x1="807.7" y1="200.7" x2="838.1" y2="200.7"/>
	<line class="st3" x1="879.6" y1="200.7" x2="909.9" y2="200.7"/>
	<line class="st3" x1="499.6" y1="367.1" x2="547.6" y2="367.1"/>
	<line class="st3" x1="574.3" y1="367.1" x2="622.3" y2="367.1"/>
	<line class="st3" x1="724.5" y1="367.1" x2="772.5" y2="367.1"/>
	<line class="st3" x1="799.2" y1="367.1" x2="847.2" y2="367.1"/>
	<line class="st3" x1="870.8" y1="327.7" x2="918.8" y2="327.7"/>
	<rect x="860" y="331.6" class="st4" width="1.1" height="30.7"/>
	<rect x="860" y="331.6" class="st3" width="1.1" height="30.7"/>
	<rect x="860.3" y="281.9" class="st4" width="1.1" height="30.1"/>
	<rect x="860.3" y="281.9" class="st3" width="1.1" height="30.1"/>
	<rect x="485.7" y="331.6" class="st4" width="1.1" height="30.7"/>
	<rect x="485.7" y="331.6" class="st3" width="1.1" height="30.7"/>
	<rect x="485.4" y="281.9" class="st4" width="1.1" height="30.1"/>
	<rect x="485.4" y="281.9" class="st3" width="1.1" height="30.1"/>
	<rect x="753.8" y="303.5" class="st4" width="21" height="1.1"/>
	<rect x="753.8" y="303.5" class="st3" width="21" height="1.1"/>
	<rect x="572" y="303.5" class="st4" width="21" height="1.1"/>
	<rect x="572" y="303.5" class="st3" width="21" height="1.1"/>
	<polyline class="st4" points="641.6,299 641.6,302.4 663.2,302.4 663.2,299 641.6,299 	"/>
	<rect x="641.6" y="299" class="st3" width="21.6" height="3.4"/>
	<polyline class="st4" points="683.3,302.4 705.2,302.4 705.2,299 683.3,299 683.3,302.4 	"/>
	<rect x="683.3" y="299" class="st3" width="21.9" height="3.4"/>
	<rect x="660.9" y="238.5" class="st4" width="25" height="31"/>
	<rect x="660.9" y="238.5" class="st3" width="25" height="31"/>
	<line class="st3" x1="796.9" y1="296.1" x2="786.1" y2="296.1"/>
	<polyline class="st4" points="511.2,353.5 511.2,346.1 503.6,346.1 503.6,353.5 511.2,353.5 	"/>
	<rect x="503.6" y="346.1" class="st3" width="7.7" height="7.4"/>
	<polyline class="st4" points="511.2,343.6 511.2,335.9 503.6,335.9 503.6,343.6 511.2,343.6 	"/>
	<rect x="503.6" y="335.9" class="st3" width="7.7" height="7.7"/>
	<polyline class="st4" points="511.2,333.6 511.2,326 503.6,326 503.6,333.6 511.2,333.6 	"/>
	<rect x="503.6" y="326" class="st3" width="7.7" height="7.7"/>
	<polyline class="st4" points="532.3,353.5 532.3,346.1 524.6,346.1 524.6,353.5 532.3,353.5 	"/>
	<rect x="524.6" y="346.1" class="st3" width="7.7" height="7.4"/>
	<polyline class="st4" points="532.3,343.6 532.3,335.9 524.6,335.9 524.6,343.6 532.3,343.6 	"/>
	<rect x="524.6" y="335.9" class="st3" width="7.7" height="7.7"/>
	<polyline class="st4" points="532.3,333.6 532.3,326 524.6,326 524.6,333.6 532.3,333.6 	"/>
	<rect x="524.6" y="326" class="st3" width="7.7" height="7.7"/>
	<polyline class="st4" points="524.6,356.6 524.6,323.1 511.2,323.1 511.2,356.6 524.6,356.6 	"/>
	<rect x="511.2" y="323.1" class="st3" width="13.3" height="33.5"/>
	<rect x="537.1" y="278.8" class="st4" width="9.7" height="8"/>
	<rect x="537.1" y="278.8" class="st3" width="9.7" height="8"/>
	<rect x="546.7" y="279.1" class="st3" width="2" height="7.7"/>
	<rect x="684.2" y="340.4" class="st3" width="21" height="78.4"/>
	<line class="st3" x1="324.7" y1="425.1" x2="252.8" y2="425.1"/>
	<line class="st3" x1="257.6" y1="367.1" x2="257.6" y2="425.1"/>
	<line class="st3" x1="328.6" y1="367.1" x2="326.7" y2="367.1"/>
	<line class="st3" x1="323.2" y1="367.1" x2="319.8" y2="367.1"/>
	<line class="st3" x1="316.4" y1="367.1" x2="313" y2="367.1"/>
	<line class="st3" x1="309.6" y1="367.1" x2="306.2" y2="367.1"/>
	<line class="st3" x1="302.8" y1="367.1" x2="299.4" y2="367.1"/>
	<line class="st3" x1="296" y1="367.1" x2="292.6" y2="367.1"/>
	<line class="st3" x1="289.2" y1="367.1" x2="285.8" y2="367.1"/>
	<line class="st3" x1="282.4" y1="367.1" x2="278.9" y2="367.1"/>
	<line class="st3" x1="275.5" y1="367.1" x2="272.1" y2="367.1"/>
	<line class="st3" x1="268.7" y1="367.1" x2="265.3" y2="367.1"/>
	<line class="st3" x1="261.9" y1="367.1" x2="258.5" y2="367.1"/>
	<line class="st3" x1="255.1" y1="367.1" x2="253.4" y2="367.1"/>
	<line class="st3" x1="253.4" y1="367.1" x2="253.4" y2="365.4"/>
	<line class="st3" x1="253.4" y1="365.1" x2="255.4" y2="365.1"/>
	<line class="st3" x1="258.8" y1="365.1" x2="262.2" y2="365.1"/>
	<line class="st3" x1="265.6" y1="365.1" x2="269" y2="365.1"/>
	<line class="st3" x1="272.4" y1="365.1" x2="275.8" y2="365.1"/>
	<line class="st3" x1="279.2" y1="365.1" x2="282.6" y2="365.1"/>
	<line class="st3" x1="286" y1="365.1" x2="289.5" y2="365.1"/>
	<line class="st3" x1="292.9" y1="365.1" x2="296.3" y2="365.1"/>
	<line class="st3" x1="299.7" y1="365.1" x2="303.1" y2="365.1"/>
	<line class="st3" x1="306.5" y1="365.1" x2="309.9" y2="365.1"/>
	<line class="st3" x1="313.3" y1="365.1" x2="316.7" y2="365.1"/>
	<line class="st3" x1="320.1" y1="365.1" x2="323.5" y2="365.1"/>
	<line class="st3" x1="326.9" y1="365.1" x2="328.6" y2="365.1"/>
	<line class="st3" x1="328.6" y1="365.1" x2="328.6" y2="366.8"/>
	<line class="st3" x1="328.6" y1="285.1" x2="326.7" y2="285.1"/>
	<line class="st3" x1="323.2" y1="285.1" x2="319.8" y2="285.1"/>
	<line class="st3" x1="316.4" y1="285.1" x2="313" y2="285.1"/>
	<line class="st3" x1="309.6" y1="285.1" x2="306.2" y2="285.1"/>
	<line class="st3" x1="302.8" y1="285.1" x2="299.4" y2="285.1"/>
	<line class="st3" x1="296" y1="285.1" x2="292.6" y2="285.1"/>
	<line class="st3" x1="289.2" y1="285.1" x2="285.8" y2="285.1"/>
	<line class="st3" x1="282.4" y1="285.1" x2="278.9" y2="285.1"/>
	<line class="st3" x1="275.5" y1="285.1" x2="272.1" y2="285.1"/>
	<line class="st3" x1="268.7" y1="285.1" x2="265.3" y2="285.1"/>
	<line class="st3" x1="261.9" y1="285.1" x2="258.5" y2="285.1"/>
	<line class="st3" x1="255.1" y1="285.1" x2="253.4" y2="285.1"/>
	<line class="st3" x1="253.4" y1="285.1" x2="253.4" y2="283.4"/>
	<line class="st3" x1="253.4" y1="283.1" x2="255.4" y2="283.1"/>
	<line class="st3" x1="258.8" y1="283.1" x2="262.2" y2="283.1"/>
	<line class="st3" x1="265.6" y1="283.1" x2="269" y2="283.1"/>
	<line class="st3" x1="272.4" y1="283.1" x2="275.8" y2="283.1"/>
	<line class="st3" x1="279.2" y1="283.1" x2="282.6" y2="283.1"/>
	<line class="st3" x1="286" y1="283.1" x2="289.5" y2="283.1"/>
	<line class="st3" x1="292.9" y1="283.1" x2="296.3" y2="283.1"/>
	<line class="st3" x1="299.7" y1="283.1" x2="303.1" y2="283.1"/>
	<line class="st3" x1="306.5" y1="283.1" x2="309.9" y2="283.1"/>
	<line class="st3" x1="313.3" y1="283.1" x2="316.7" y2="283.1"/>
	<line class="st3" x1="320.1" y1="283.1" x2="323.5" y2="283.1"/>
	<line class="st3" x1="326.9" y1="283.1" x2="328.6" y2="283.1"/>
	<line class="st3" x1="328.6" y1="283.1" x2="328.6" y2="284.8"/>
	<line class="st3" x1="328.6" y1="301.5" x2="326.7" y2="301.5"/>
	<line class="st3" x1="323.2" y1="301.5" x2="319.8" y2="301.5"/>
	<line class="st3" x1="316.4" y1="301.5" x2="313" y2="301.5"/>
	<line class="st3" x1="309.6" y1="301.5" x2="306.2" y2="301.5"/>
	<line class="st3" x1="302.8" y1="301.5" x2="299.4" y2="301.5"/>
	<line class="st3" x1="296" y1="301.5" x2="292.6" y2="301.5"/>
	<line class="st3" x1="289.2" y1="301.5" x2="285.8" y2="301.5"/>
	<line class="st3" x1="282.4" y1="301.5" x2="278.9" y2="301.5"/>
	<line class="st3" x1="275.5" y1="301.5" x2="272.1" y2="301.5"/>
	<line class="st3" x1="268.7" y1="301.5" x2="265.3" y2="301.5"/>
	<line class="st3" x1="261.9" y1="301.5" x2="258.5" y2="301.5"/>
	<line class="st3" x1="255.1" y1="301.5" x2="253.4" y2="301.5"/>
	<line class="st3" x1="253.4" y1="301.5" x2="253.4" y2="299.8"/>
	<line class="st3" x1="253.4" y1="299.5" x2="255.4" y2="299.5"/>
	<line class="st3" x1="258.8" y1="299.5" x2="262.2" y2="299.5"/>
	<line class="st3" x1="265.6" y1="299.5" x2="269" y2="299.5"/>
	<line class="st3" x1="272.4" y1="299.5" x2="275.8" y2="299.5"/>
	<line class="st3" x1="279.2" y1="299.5" x2="282.6" y2="299.5"/>
	<line class="st3" x1="286" y1="299.5" x2="289.5" y2="299.5"/>
	<line class="st3" x1="292.9" y1="299.5" x2="296.3" y2="299.5"/>
	<line class="st3" x1="299.7" y1="299.5" x2="303.1" y2="299.5"/>
	<line class="st3" x1="306.5" y1="299.5" x2="309.9" y2="299.5"/>
	<line class="st3" x1="313.3" y1="299.5" x2="316.7" y2="299.5"/>
	<line class="st3" x1="320.1" y1="299.5" x2="323.5" y2="299.5"/>
	<line class="st3" x1="326.9" y1="299.5" x2="328.6" y2="299.5"/>
	<line class="st3" x1="328.6" y1="299.5" x2="328.6" y2="301.2"/>
	<line class="st3" x1="328.6" y1="317.7" x2="326.7" y2="317.7"/>
	<line class="st3" x1="323.2" y1="317.7" x2="319.8" y2="317.7"/>
	<line class="st3" x1="316.4" y1="317.7" x2="313" y2="317.7"/>
	<line class="st3" x1="309.6" y1="317.7" x2="306.2" y2="317.7"/>
	<line class="st3" x1="302.8" y1="317.7" x2="299.4" y2="317.7"/>
	<line class="st3" x1="296" y1="317.7" x2="292.6" y2="317.7"/>
	<line class="st3" x1="289.2" y1="317.7" x2="285.8" y2="317.7"/>
	<line class="st3" x1="282.4" y1="317.7" x2="278.9" y2="317.7"/>
	<line class="st3" x1="275.5" y1="317.7" x2="272.1" y2="317.7"/>
	<line class="st3" x1="268.7" y1="317.7" x2="265.3" y2="317.7"/>
	<line class="st3" x1="261.9" y1="317.7" x2="258.5" y2="317.7"/>
	<line class="st3" x1="255.1" y1="317.7" x2="253.4" y2="317.7"/>
	<line class="st3" x1="253.4" y1="317.7" x2="253.4" y2="316"/>
	<line class="st3" x1="253.4" y1="315.7" x2="255.4" y2="315.7"/>
	<line class="st3" x1="258.8" y1="315.7" x2="262.2" y2="315.7"/>
	<line class="st3" x1="265.6" y1="315.7" x2="269" y2="315.7"/>
	<line class="st3" x1="272.4" y1="315.7" x2="275.8" y2="315.7"/>
	<line class="st3" x1="279.2" y1="315.7" x2="282.6" y2="315.7"/>
	<line class="st3" x1="286" y1="315.7" x2="289.5" y2="315.7"/>
	<line class="st3" x1="292.9" y1="315.7" x2="296.3" y2="315.7"/>
	<line class="st3" x1="299.7" y1="315.7" x2="303.1" y2="315.7"/>
	<line class="st3" x1="306.5" y1="315.7" x2="309.9" y2="315.7"/>
	<line class="st3" x1="313.3" y1="315.7" x2="316.7" y2="315.7"/>
	<line class="st3" x1="320.1" y1="315.7" x2="323.5" y2="315.7"/>
	<line class="st3" x1="326.9" y1="315.7" x2="328.6" y2="315.7"/>
	<line class="st3" x1="328.6" y1="315.7" x2="328.6" y2="317.4"/>
	<line class="st3" x1="328.6" y1="334.2" x2="326.7" y2="334.2"/>
	<line class="st3" x1="323.2" y1="334.2" x2="319.8" y2="334.2"/>
	<line class="st3" x1="316.4" y1="334.2" x2="313" y2="334.2"/>
	<line class="st3" x1="309.6" y1="334.2" x2="306.2" y2="334.2"/>
	<line class="st3" x1="302.8" y1="334.2" x2="299.4" y2="334.2"/>
	<line class="st3" x1="296" y1="334.2" x2="292.6" y2="334.2"/>
	<line class="st3" x1="289.2" y1="334.2" x2="285.8" y2="334.2"/>
	<line class="st3" x1="282.4" y1="334.2" x2="278.9" y2="334.2"/>
	<line class="st3" x1="275.5" y1="334.2" x2="272.1" y2="334.2"/>
	<line class="st3" x1="268.7" y1="334.2" x2="265.3" y2="334.2"/>
	<line class="st3" x1="261.9" y1="334.2" x2="258.5" y2="334.2"/>
	<line class="st3" x1="255.1" y1="334.2" x2="253.4" y2="334.2"/>
	<line class="st3" x1="253.4" y1="334.2" x2="253.4" y2="332.5"/>
	<line class="st3" x1="253.4" y1="332.2" x2="255.4" y2="332.2"/>
	<line class="st3" x1="258.8" y1="332.2" x2="262.2" y2="332.2"/>
	<line class="st3" x1="265.6" y1="332.2" x2="269" y2="332.2"/>
	<line class="st3" x1="272.4" y1="332.2" x2="275.8" y2="332.2"/>
	<line class="st3" x1="279.2" y1="332.2" x2="282.6" y2="332.2"/>
	<line class="st3" x1="286" y1="332.2" x2="289.5" y2="332.2"/>
	<line class="st3" x1="292.9" y1="332.2" x2="296.3" y2="332.2"/>
	<line class="st3" x1="299.7" y1="332.2" x2="303.1" y2="332.2"/>
	<line class="st3" x1="306.5" y1="332.2" x2="309.9" y2="332.2"/>
	<line class="st3" x1="313.3" y1="332.2" x2="316.7" y2="332.2"/>
	<line class="st3" x1="320.1" y1="332.2" x2="323.5" y2="332.2"/>
	<line class="st3" x1="326.9" y1="332.2" x2="328.6" y2="332.2"/>
	<line class="st3" x1="328.6" y1="332.2" x2="328.6" y2="333.9"/>
	<line class="st3" x1="328.6" y1="350.7" x2="326.7" y2="350.7"/>
	<line class="st3" x1="323.2" y1="350.7" x2="319.8" y2="350.7"/>
	<line class="st3" x1="316.4" y1="350.7" x2="313" y2="350.7"/>
	<line class="st3" x1="309.6" y1="350.7" x2="306.2" y2="350.7"/>
	<line class="st3" x1="302.8" y1="350.7" x2="299.4" y2="350.7"/>
	<line class="st3" x1="296" y1="350.7" x2="292.6" y2="350.7"/>
	<line class="st3" x1="289.2" y1="350.7" x2="285.8" y2="350.7"/>
	<line class="st3" x1="282.4" y1="350.7" x2="278.9" y2="350.7"/>
	<line class="st3" x1="275.5" y1="350.7" x2="272.1" y2="350.7"/>
	<line class="st3" x1="268.7" y1="350.7" x2="265.3" y2="350.7"/>
	<line class="st3" x1="261.9" y1="350.7" x2="258.5" y2="350.7"/>
	<line class="st3" x1="255.1" y1="350.7" x2="253.4" y2="350.7"/>
	<line class="st3" x1="253.4" y1="350.7" x2="253.4" y2="349"/>
	<line class="st3" x1="253.4" y1="348.4" x2="255.4" y2="348.4"/>
	<line class="st3" x1="258.8" y1="348.4" x2="262.2" y2="348.4"/>
	<line class="st3" x1="265.6" y1="348.4" x2="269" y2="348.4"/>
	<line class="st3" x1="272.4" y1="348.4" x2="275.8" y2="348.4"/>
	<line class="st3" x1="279.2" y1="348.4" x2="282.6" y2="348.4"/>
	<line class="st3" x1="286" y1="348.4" x2="289.5" y2="348.4"/>
	<line class="st3" x1="292.9" y1="348.4" x2="296.3" y2="348.4"/>
	<line class="st3" x1="299.7" y1="348.4" x2="303.1" y2="348.4"/>
	<line class="st3" x1="306.5" y1="348.4" x2="309.9" y2="348.4"/>
	<line class="st3" x1="313.3" y1="348.4" x2="316.7" y2="348.4"/>
	<line class="st3" x1="320.1" y1="348.4" x2="323.5" y2="348.4"/>
	<line class="st3" x1="326.9" y1="348.4" x2="328.6" y2="348.4"/>
	<line class="st3" x1="328.6" y1="348.4" x2="328.6" y2="350.1"/>
	<line class="st3" x1="603" y1="240.5" x2="603" y2="264.3"/>
	<line class="st3" x1="743.5" y1="240.5" x2="743.5" y2="264.3"/>
	<path class="st4" d="M849,566l3.3,0l0.9,73.4l-3.3,0l-0.8-69.7l-559.3,1.6l-130.9,0.5c-8.8,0.2-17.3,3.6-23.8,9.6
		c-7.5,6.9-11.6,16.7-11.5,26.9l1.2,30.9l-3.3,0.2l-1.2-31c-0.2-11.2,4.3-21.9,12.5-29.5c7.1-6.6,16.3-10.3,26-10.5l2,0l422.8-1.5
		l145.4-0.5L849,566L849,566"/>
	<path class="st3" d="M849,566l3.3,0l0.9,73.4l-3.3,0l-0.8-69.7l-559.3,1.6l-130.9,0.5c-8.8,0.2-17.3,3.6-23.8,9.6
		c-7.5,6.9-11.6,16.7-11.5,26.9l1.2,30.9l-3.3,0.2l-1.2-31c-0.2-11.2,4.3-21.9,12.5-29.5c7.1-6.6,16.3-10.3,26-10.5l2,0l422.8-1.5
		l145.4-0.5L849,566L849,566"/>
	<line class="st3" x1="981.2" y1="129.7" x2="976.4" y2="32.3"/>
	<polyline class="st4" points="932.7,734.3 932.1,638.3 849.7,639.5 850.9,734.3 932.7,734.3 	"/>
	<polygon class="st6" points="932.7,734.3 932.1,638.3 849.7,639.5 850.9,734.3 	"/>
	<polyline class="st4" points="928.7,638.3 928.7,565.6 932.1,565.6 932.1,638.3 928.7,638.3 	"/>
	<rect x="928.7" y="565.6" class="st3" width="3.4" height="72.7"/>
	<polyline class="st4" points="148.3,638 121.6,639.5 125.9,734.3 359.9,734.3 354.8,627.5 293.1,630.7 258.8,632.4 148.3,638 	"/>
	<polygon class="st6" points="148.3,638 121.6,639.5 125.9,734.3 359.9,734.3 354.8,627.5 293.1,630.7 258.8,632.4 	"/>
	<polyline class="st6" points="167.9,349.2 123.3,277.4 168.5,206.1 	"/>
	<line class="st6" x1="299.1" y1="734.3" x2="293.1" y2="630.7"/>
	<line class="st6" x1="200" y1="635.2" x2="204.3" y2="734.3"/>
	<polyline class="st4" points="754.3,84.9 808,86.6 806.9,121.8 753.2,120.1 754.3,84.9 	"/>
	<polygon class="st6" points="754.3,84.9 808,86.6 806.9,121.8 753.2,120.1 	"/>
	<polyline class="st4" points="167.9,349.2 168.5,206.1 89.8,205.8 89.8,349 167.9,349.2 	"/>
	<polygon class="st6" points="167.9,349.2 168.5,206.1 89.8,205.8 89.8,349 	"/>
	<polyline class="st4" points="200,205.8 253.7,206.1 253.4,384.2 199.4,383.9 200,205.8 	"/>
	<polygon class="st6" points="200,205.8 253.7,206.1 253.4,384.2 199.4,383.9 	"/>
	<polyline class="st3" points="705.2,425.1 705.2,450.3 1097.9,449.8 	"/>
	<polyline class="st3" points="641.6,425.1 641.6,450.6 430.3,450.9 430.3,425.1 	"/>
	<polyline class="st3" points="388.3,425.1 388.3,450.9 324.7,451.2 324.7,425.1 	"/>
	<polyline class="st3" points="160.5,484.7 167.9,349.2 199.4,349.2 	"/>
	<line class="st3" x1="89.8" y1="484.7" x2="160.5" y2="484.7"/>
	<polyline class="st4" points="1145.1,377.9 1145.1,182.8 934.7,182.8 938.1,377.9 1145.1,377.9 	"/>
	<polygon class="st6" points="1145.1,377.9 1145.1,182.8 934.7,182.8 938.1,377.9 	"/>
	<path class="st4" d="M999.1,565.5L999.1,565.5c-4,0.2-7.9,1.8-10.8,4.6c-3.9,3.6-5.8,8.8-5.4,14.1l-0.4,54.1l3.3,0l0.4-54.6
		c-0.3-4.2,1.2-8.3,4.3-11.2c2.9-2.7,6.7-4,10.7-3.7l143.7-0.3v-3.4l-52.2,0.2l-92,0.2c0,0,0.1,0,0.1,0"/>
	<path class="st3" d="M999.1,565.5L999.1,565.5c-4,0.2-7.9,1.8-10.8,4.6c-3.9,3.6-5.8,8.8-5.4,14.1l-0.4,54.1l3.3,0l0.4-54.6
		c-0.3-4.2,1.2-8.3,4.3-11.2c2.9-2.7,6.7-4,10.7-3.7l143.7-0.3v-3.4l-52.2,0.2l-92,0.2c0,0,0.1,0,0.1,0"/>
	<polyline class="st7" points="1110.7,477.9 1145.1,477.9 1145.1,483 1106.5,483 1091.4,425.1 933.5,425.1 933.5,420 1095.4,420 
		1110.4,477.9 1110.7,477.9 	"/>
	<polygon class="st3" points="1110.7,477.9 1145.1,477.9 1145.1,483 1106.5,483 1091.4,425.1 933.5,425.1 933.5,420 1095.4,420 
		1110.4,477.9 	"/>
	<line class="st3" x1="932.1" y1="565.6" x2="1000.8" y2="565.6"/>
	<line class="st3" x1="852.3" y1="565.9" x2="928.7" y2="565.6"/>
	<line class="st3" x1="160.8" y1="568.5" x2="89.8" y2="568.8"/>
	<polyline class="st4" points="982.6,638.3 982.6,734.3 1145.1,734.3 1145.1,638 982.6,638.3 	"/>
	<polygon class="st6" points="982.6,638.3 982.6,734.3 1145.1,734.3 1145.1,638 	"/>
	<line class="st6" x1="1145.1" y1="278.8" x2="936.4" y2="278.8"/>
	<line class="st3" x1="933.5" y1="364.3" x2="937.8" y2="364.3"/>
	<line class="st3" x1="588.5" y1="226" x2="588.5" y2="232.8"/>
	<line class="st3" x1="588.8" y1="226" x2="590.2" y2="232.8"/>
	<line class="st3" x1="591" y1="226" x2="591" y2="232.8"/>
	<line class="st3" x1="592.7" y1="226" x2="592.7" y2="232.8"/>
	<line class="st3" x1="594.2" y1="226" x2="593.6" y2="232.8"/>
	<line class="st3" x1="595.9" y1="226" x2="595.9" y2="232.8"/>
	<line class="st3" x1="597.6" y1="226" x2="597.6" y2="232.8"/>
	<line class="st3" x1="599.3" y1="226" x2="599.3" y2="232.8"/>
	<line class="st3" x1="758.3" y1="226" x2="758.3" y2="232.8"/>
	<line class="st3" x1="758" y1="226" x2="756.6" y2="232.8"/>
	<line class="st3" x1="755.7" y1="226" x2="755.7" y2="232.8"/>
	<line class="st3" x1="754" y1="226" x2="754" y2="232.8"/>
	<line class="st3" x1="752.3" y1="226" x2="752.9" y2="232.8"/>
	<line class="st3" x1="750.6" y1="226" x2="750.6" y2="232.8"/>
	<line class="st3" x1="748.9" y1="226" x2="748.9" y2="232.8"/>
	<line class="st3" x1="747.5" y1="226" x2="747.5" y2="232.8"/>
	<polyline class="st4" points="726.2,238.8 726.2,228.8 716.6,228.8 716.6,238.8 726.2,238.8 	"/>
	<rect x="716.6" y="228.8" class="st3" width="9.7" height="9.9"/>
	<path class="st3" d="M324.8,267.5L324.8,267.5c0-2.5,0.1-5.1,0.4-7.6c0.3-2.5,0.7-5,1.3-7.5c0.6-2.5,1.3-4.9,2.1-7.3
		c0.9-2.4,1.8-4.7,3-7l-52.8-38.4c-13.7,19.7-21.1,43.2-21.1,67.2v100.1h-4.2V266.8c0.1-67.1,54.5-121.5,121.6-121.6h260.5v50.1
		h-4.2v-46H375.1c-36.6,0.1-71.1,17.1-93.3,46.2l55.6,40.4c-1.3,2.2-2.4,4.5-3.4,6.8c-1,2.3-1.9,4.8-2.6,7.2
		c-0.7,2.5-1.3,4.9-1.7,7.5c-0.4,2.5-0.7,5.1-0.8,7.6c0,0.2,0,0.4,0,0.6c0,0.2,0,0.4,0,0.6c0,0.2,0,0.4,0,0.6c0,0.2,0,0.4,0,0.6
		v153.2h308.3V371h4.2v54H324.8v-4.2V267.5L324.8,267.5"/>
	<line class="st3" x1="328.6" y1="268.9" x2="326.7" y2="268.9"/>
	<line class="st3" x1="323.2" y1="268.9" x2="319.8" y2="268.9"/>
	<line class="st3" x1="316.4" y1="268.9" x2="313" y2="268.9"/>
	<line class="st3" x1="309.6" y1="268.9" x2="306.2" y2="268.9"/>
	<line class="st3" x1="302.8" y1="268.9" x2="299.4" y2="268.9"/>
	<line class="st3" x1="296" y1="268.9" x2="292.6" y2="268.9"/>
	<line class="st3" x1="289.2" y1="268.9" x2="285.8" y2="268.9"/>
	<line class="st3" x1="282.4" y1="268.9" x2="278.9" y2="268.9"/>
	<line class="st3" x1="275.5" y1="268.9" x2="272.1" y2="268.9"/>
	<line class="st3" x1="268.7" y1="268.9" x2="265.3" y2="268.9"/>
	<line class="st3" x1="261.9" y1="268.9" x2="258.5" y2="268.9"/>
	<line class="st3" x1="255.1" y1="268.9" x2="253.4" y2="268.9"/>
	<line class="st3" x1="253.4" y1="268.9" x2="253.4" y2="267.2"/>
	<line class="st3" x1="253.4" y1="266.9" x2="255.4" y2="266.9"/>
	<line class="st3" x1="258.8" y1="266.9" x2="262.2" y2="266.9"/>
	<line class="st3" x1="265.6" y1="266.9" x2="269" y2="266.9"/>
	<line class="st3" x1="272.4" y1="266.9" x2="275.8" y2="266.9"/>
	<line class="st3" x1="279.2" y1="266.9" x2="282.6" y2="266.9"/>
	<line class="st3" x1="286" y1="266.9" x2="289.5" y2="266.9"/>
	<line class="st3" x1="292.9" y1="266.9" x2="296.3" y2="266.9"/>
	<line class="st3" x1="299.7" y1="266.9" x2="303.1" y2="266.9"/>
	<line class="st3" x1="306.5" y1="266.9" x2="309.9" y2="266.9"/>
	<line class="st3" x1="313.3" y1="266.9" x2="316.7" y2="266.9"/>
	<line class="st3" x1="320.1" y1="266.9" x2="323.5" y2="266.9"/>
	<line class="st3" x1="326.9" y1="266.9" x2="328.6" y2="266.9"/>
	<line class="st3" x1="328.6" y1="266.9" x2="328.6" y2="268.6"/>
	<line class="st3" x1="328.9" y1="262.6" x2="326.9" y2="262.3"/>
	<line class="st3" x1="323.5" y1="261.8" x2="320.1" y2="261.5"/>
	<line class="st3" x1="316.7" y1="260.9" x2="313.3" y2="260.6"/>
	<line class="st3" x1="310.2" y1="260.1" x2="306.8" y2="259.8"/>
	<line class="st3" x1="303.4" y1="259.2" x2="300" y2="258.7"/>
	<line class="st3" x1="296.6" y1="258.4" x2="293.1" y2="257.8"/>
	<line class="st3" x1="289.7" y1="257.5" x2="286.3" y2="256.9"/>
	<line class="st3" x1="282.9" y1="256.4" x2="279.8" y2="256.1"/>
	<line class="st3" x1="276.4" y1="255.5" x2="273" y2="255.2"/>
	<line class="st3" x1="269.6" y1="254.7" x2="266.2" y2="254.4"/>
	<line class="st3" x1="262.8" y1="253.8" x2="259.4" y2="253.3"/>
	<line class="st3" x1="255.9" y1="253" x2="254.2" y2="252.7"/>
	<line class="st3" x1="254.2" y1="252.7" x2="254.5" y2="251"/>
	<line class="st3" x1="254.5" y1="250.7" x2="256.5" y2="251"/>
	<line class="st3" x1="259.9" y1="251.6" x2="263.3" y2="251.8"/>
	<line class="st3" x1="266.7" y1="252.4" x2="270.1" y2="252.7"/>
	<line class="st3" x1="273.3" y1="253.3" x2="276.7" y2="253.5"/>
	<line class="st3" x1="280.1" y1="254.1" x2="283.5" y2="254.7"/>
	<line class="st3" x1="286.9" y1="255" x2="290.3" y2="255.5"/>
	<line class="st3" x1="293.7" y1="255.8" x2="297.1" y2="256.4"/>
	<line class="st3" x1="300.5" y1="256.9" x2="303.7" y2="257.2"/>
	<line class="st3" x1="307.1" y1="257.8" x2="310.5" y2="258.1"/>
	<line class="st3" x1="313.9" y1="258.7" x2="317.3" y2="258.9"/>
	<line class="st3" x1="320.7" y1="259.5" x2="324.1" y2="260.1"/>
	<line class="st3" x1="327.5" y1="260.4" x2="329.2" y2="260.6"/>
	<line class="st3" x1="329.2" y1="260.6" x2="328.9" y2="262.3"/>
	<line class="st3" x1="329.8" y1="256.1" x2="328.1" y2="255.5"/>
	<line class="st3" x1="325" y1="254.7" x2="321.5" y2="253.8"/>
	<line class="st3" x1="318.4" y1="253" x2="315" y2="251.8"/>
	<line class="st3" x1="311.6" y1="251" x2="308.5" y2="250.1"/>
	<line class="st3" x1="305.1" y1="249.3" x2="301.9" y2="248.4"/>
	<line class="st3" x1="298.5" y1="247.3" x2="295.4" y2="246.4"/>
	<line class="st3" x1="292" y1="245.6" x2="288.9" y2="244.7"/>
	<line class="st3" x1="285.5" y1="243.6" x2="282.1" y2="242.7"/>
	<line class="st3" x1="278.9" y1="241.9" x2="275.5" y2="241"/>
	<line class="st3" x1="272.4" y1="239.9" x2="269" y2="239.1"/>
	<line class="st3" x1="265.9" y1="238.2" x2="262.5" y2="237.4"/>
	<line class="st3" x1="259.4" y1="236.5" x2="257.6" y2="235.9"/>
	<line class="st3" x1="257.6" y1="235.9" x2="258.2" y2="234.5"/>
	<line class="st3" x1="258.2" y1="233.9" x2="259.6" y2="234.2"/>
	<line class="st3" x1="262.8" y1="235.4" x2="266.2" y2="236.2"/>
	<line class="st3" x1="269.3" y1="237.1" x2="272.7" y2="237.9"/>
	<line class="st3" x1="276.1" y1="239.1" x2="279.2" y2="239.9"/>
	<line class="st3" x1="282.6" y1="240.8" x2="285.8" y2="241.6"/>
	<line class="st3" x1="289.2" y1="242.7" x2="292.3" y2="243.6"/>
	<line class="st3" x1="295.7" y1="244.5" x2="298.8" y2="245.3"/>
	<line class="st3" x1="302.2" y1="246.4" x2="305.6" y2="247.3"/>
	<line class="st3" x1="308.8" y1="248.1" x2="312.2" y2="249"/>
	<line class="st3" x1="315.3" y1="249.8" x2="318.7" y2="251"/>
	<line class="st3" x1="321.8" y1="251.8" x2="325.2" y2="252.7"/>
	<line class="st3" x1="328.4" y1="253.5" x2="330.1" y2="254.1"/>
	<line class="st3" x1="330.1" y1="254.1" x2="329.8" y2="255.8"/>
	<line class="st3" x1="331.2" y1="249.8" x2="329.8" y2="249.3"/>
	<line class="st3" x1="326.7" y1="247.9" x2="323.5" y2="246.7"/>
	<line class="st3" x1="320.4" y1="245.3" x2="317.3" y2="243.9"/>
	<line class="st3" x1="314.2" y1="242.5" x2="311" y2="241"/>
	<line class="st3" x1="307.9" y1="239.9" x2="304.8" y2="238.5"/>
	<line class="st3" x1="301.7" y1="237.1" x2="298.5" y2="235.6"/>
	<line class="st3" x1="295.4" y1="234.5" x2="292.3" y2="233.1"/>
	<line class="st3" x1="289.2" y1="231.7" x2="286" y2="230.3"/>
	<line class="st3" x1="282.9" y1="229.1" x2="279.8" y2="227.7"/>
	<line class="st3" x1="276.7" y1="226.3" x2="273.6" y2="224.9"/>
	<line class="st3" x1="270.4" y1="223.7" x2="267.3" y2="222.3"/>
	<line class="st3" x1="264.2" y1="220.9" x2="262.8" y2="220.3"/>
	<line class="st3" x1="262.8" y1="220.3" x2="263.6" y2="218.6"/>
	<line class="st3" x1="263.6" y1="218.6" x2="265" y2="219.2"/>
	<line class="st3" x1="268.2" y1="220.6" x2="271.3" y2="221.7"/>
	<line class="st3" x1="274.4" y1="223.2" x2="277.5" y2="224.6"/>
	<line class="st3" x1="280.7" y1="226" x2="283.8" y2="227.1"/>
	<line class="st3" x1="286.9" y1="228.5" x2="290" y2="230"/>
	<line class="st3" x1="293.1" y1="231.1" x2="296.3" y2="232.5"/>
	<line class="st3" x1="299.4" y1="233.9" x2="302.5" y2="235.4"/>
	<line class="st3" x1="305.6" y1="236.5" x2="308.8" y2="237.9"/>
	<line class="st3" x1="311.9" y1="239.3" x2="315" y2="240.5"/>
	<line class="st3" x1="318.1" y1="241.9" x2="321.3" y2="243.3"/>
	<line class="st3" x1="324.4" y1="244.7" x2="327.5" y2="245.9"/>
	<line class="st3" x1="330.6" y1="247.3" x2="332.1" y2="247.9"/>
	<line class="st3" x1="332.1" y1="247.9" x2="331.2" y2="249.6"/>
	<line class="st3" x1="333.5" y1="243.6" x2="332.6" y2="243"/>
	<line class="st3" x1="329.5" y1="241.3" x2="326.7" y2="239.6"/>
	<line class="st3" x1="323.8" y1="237.6" x2="320.7" y2="235.9"/>
	<line class="st3" x1="317.9" y1="234.2" x2="315" y2="232.5"/>
	<line class="st3" x1="312.2" y1="230.8" x2="309" y2="228.8"/>
	<line class="st3" x1="306.2" y1="227.1" x2="303.4" y2="225.4"/>
	<line class="st3" x1="300.2" y1="223.7" x2="297.4" y2="222"/>
	<line class="st3" x1="294.6" y1="220.3" x2="291.7" y2="218.3"/>
	<line class="st3" x1="288.6" y1="216.6" x2="285.8" y2="214.9"/>
	<line class="st3" x1="282.9" y1="213.2" x2="279.8" y2="211.5"/>
	<line class="st3" x1="277" y1="209.8" x2="274.1" y2="207.8"/>
	<line class="st3" x1="271.3" y1="206.1" x2="270.1" y2="205.5"/>
	<line class="st3" x1="270.1" y1="205.5" x2="271.3" y2="203.8"/>
	<line class="st3" x1="271.3" y1="203.8" x2="272.1" y2="204.4"/>
	<line class="st3" x1="275.3" y1="206.1" x2="278.1" y2="207.8"/>
	<line class="st3" x1="280.9" y1="209.8" x2="284.1" y2="211.5"/>
	<line class="st3" x1="286.9" y1="213.2" x2="289.7" y2="214.9"/>
	<line class="st3" x1="292.6" y1="216.6" x2="295.7" y2="218.6"/>
	<line class="st3" x1="298.5" y1="220.3" x2="301.4" y2="222"/>
	<line class="st3" x1="304.2" y1="223.7" x2="307.3" y2="225.4"/>
	<line class="st3" x1="310.2" y1="227.4" x2="313" y2="229.1"/>
	<line class="st3" x1="316.1" y1="230.8" x2="319" y2="232.5"/>
	<line class="st3" x1="321.8" y1="234.2" x2="324.7" y2="236.2"/>
	<line class="st3" x1="327.8" y1="237.9" x2="330.6" y2="239.6"/>
	<line class="st3" x1="333.5" y1="241.3" x2="334.3" y2="241.9"/>
	<line class="st3" x1="334.3" y1="241.9" x2="333.5" y2="243.6"/>
	<polyline class="st4" points="618.6,301.2 618.6,270.6 632.2,270.6 632.2,301.2 618.6,301.2 	"/>
	<rect x="618.6" y="270.6" class="st3" width="13.6" height="30.7"/>
	<path class="st4" d="M619.9,271.8H631v21.9c0,0.7-0.2,1.4-0.4,2.1c-0.3,0.7-0.7,1.3-1.2,1.8c-0.5,0.5-1.1,0.9-1.8,1.2
		c-0.7,0.3-1.4,0.4-2.1,0.4c-0.7,0-1.4-0.1-2.1-0.4c-0.7-0.3-1.3-0.7-1.8-1.2c-0.5-0.5-0.9-1.1-1.2-1.8c-0.3-0.7-0.4-1.4-0.4-2.1
		V271.8"/>
	<path class="st3" d="M619.9,271.8H631v21.9c0,0.7-0.2,1.4-0.4,2.1c-0.3,0.7-0.7,1.3-1.2,1.8c-0.5,0.5-1.1,0.9-1.8,1.2
		c-0.7,0.3-1.4,0.4-2.1,0.4c-0.7,0-1.4-0.1-2.1-0.4c-0.7-0.3-1.3-0.7-1.8-1.2c-0.5-0.5-0.9-1.1-1.2-1.8c-0.3-0.7-0.4-1.4-0.4-2.1
		V271.8"/>
	<path class="st4" d="M625.5,274.3c0.1,0,0.2,0,0.3,0.1c0.1,0.1,0.2,0.1,0.2,0.2c0.1,0.1,0.1,0.2,0.1,0.3c0,0.1,0,0.2-0.1,0.3
		c-0.1,0.1-0.1,0.2-0.2,0.2c-0.1,0.1-0.2,0.1-0.3,0.1c-0.1,0-0.2,0-0.3-0.1c-0.1,0-0.2-0.1-0.2-0.2c-0.1-0.1-0.1-0.2-0.1-0.3
		c0-0.1,0-0.2,0.1-0.3c0.1-0.1,0.1-0.2,0.2-0.2C625.3,274.3,625.4,274.3,625.5,274.3"/>
	<path class="st3" d="M625.5,274.3c0.1,0,0.2,0,0.3,0.1c0.1,0.1,0.2,0.1,0.2,0.2c0.1,0.1,0.1,0.2,0.1,0.3c0,0.1,0,0.2-0.1,0.3
		c-0.1,0.1-0.1,0.2-0.2,0.2c-0.1,0.1-0.2,0.1-0.3,0.1c-0.1,0-0.2,0-0.3-0.1c-0.1,0-0.2-0.1-0.2-0.2c-0.1-0.1-0.1-0.2-0.1-0.3
		c0-0.1,0-0.2,0.1-0.3c0.1-0.1,0.1-0.2,0.2-0.2C625.3,274.3,625.4,274.3,625.5,274.3"/>
	<rect x="603.5" y="270.6" class="st4" width="8.2" height="6.8"/>
	<rect x="603.5" y="270.6" class="st3" width="8.2" height="6.8"/>
	<rect x="604.4" y="272.3" class="st4" width="6.5" height="4.3"/>
	<rect x="604.4" y="272.3" class="st3" width="6.5" height="4.3"/>
	<path class="st4" d="M592.1,270.6v6.2c0,0.4,0.1,0.8,0.2,1.1c0.1,0.4,0.4,0.7,0.6,1c0.3,0.3,0.6,0.5,1,0.6c0.4,0.1,0.7,0.2,1.1,0.2
		c0.4,0,0.8-0.1,1.1-0.2c0.4-0.1,0.7-0.4,1-0.6c0.3-0.3,0.5-0.6,0.6-1c0.1-0.4,0.2-0.7,0.2-1.1v-6.2H592.1"/>
	<path class="st3" d="M592.1,270.6v6.2c0,0.4,0.1,0.8,0.2,1.1c0.1,0.4,0.4,0.7,0.6,1c0.3,0.3,0.6,0.5,1,0.6c0.4,0.1,0.7,0.2,1.1,0.2
		c0.4,0,0.8-0.1,1.1-0.2c0.4-0.1,0.7-0.4,1-0.6c0.3-0.3,0.5-0.6,0.6-1c0.1-0.4,0.2-0.7,0.2-1.1v-6.2H592.1"/>
	<line class="st3" x1="597.9" y1="272.3" x2="592.2" y2="272.3"/>
	<path class="st4" d="M613.6,264.2V258c0-0.4-0.1-0.8-0.2-1.1c-0.1-0.4-0.4-0.7-0.6-1c-0.3-0.3-0.6-0.5-1-0.6
		c-0.4-0.1-0.7-0.2-1.1-0.2c-0.4,0-0.8,0.1-1.1,0.2c-0.4,0.1-0.7,0.4-1,0.6c-0.3,0.3-0.5,0.6-0.6,1c-0.1,0.4-0.2,0.7-0.2,1.1v6.2
		H613.6"/>
	<path class="st3" d="M613.6,264.2V258c0-0.4-0.1-0.8-0.2-1.1c-0.1-0.4-0.4-0.7-0.6-1c-0.3-0.3-0.6-0.5-1-0.6
		c-0.4-0.1-0.7-0.2-1.1-0.2c-0.4,0-0.8,0.1-1.1,0.2c-0.4,0.1-0.7,0.4-1,0.6c-0.3,0.3-0.5,0.6-0.6,1c-0.1,0.4-0.2,0.7-0.2,1.1v6.2
		H613.6"/>
	<line class="st3" x1="607.8" y1="262.6" x2="613.5" y2="262.6"/>
	<rect x="618.3" y="245.6" class="st4" width="6.8" height="8.2"/>
	<rect x="618.3" y="245.6" class="st3" width="6.8" height="8.2"/>
	<rect x="619.2" y="246.4" class="st4" width="4.3" height="6.5"/>
	<rect x="619.2" y="246.4" class="st3" width="4.3" height="6.5"/>
	<polyline class="st4" points="727.9,301.2 727.9,270.6 714.6,270.6 714.6,301.2 727.9,301.2 	"/>
	<rect x="714.6" y="270.6" class="st3" width="13.3" height="30.7"/>
	<path class="st4" d="M726.8,271.8h-11.1v21.9c0,0.7,0.2,1.4,0.4,2.1c0.3,0.7,0.7,1.3,1.2,1.8c0.5,0.5,1.1,0.9,1.8,1.2
		c0.7,0.3,1.4,0.4,2.1,0.4c0.7,0,1.4-0.1,2.1-0.4c0.7-0.3,1.3-0.7,1.8-1.2c0.5-0.5,0.9-1.1,1.2-1.8c0.3-0.7,0.4-1.4,0.4-2.1V271.8"
		/>
	<path class="st3" d="M726.8,271.8h-11.1v21.9c0,0.7,0.2,1.4,0.4,2.1c0.3,0.7,0.7,1.3,1.2,1.8c0.5,0.5,1.1,0.9,1.8,1.2
		c0.7,0.3,1.4,0.4,2.1,0.4c0.7,0,1.4-0.1,2.1-0.4c0.7-0.3,1.3-0.7,1.8-1.2c0.5-0.5,0.9-1.1,1.2-1.8c0.3-0.7,0.4-1.4,0.4-2.1V271.8"
		/>
	<path class="st4" d="M721.2,274.3c-0.1,0-0.2,0-0.3,0.1c-0.1,0.1-0.2,0.1-0.2,0.2c-0.1,0.1-0.1,0.2-0.1,0.3c0,0.1,0,0.2,0.1,0.3
		c0.1,0.1,0.1,0.2,0.2,0.2c0.1,0.1,0.2,0.1,0.3,0.1c0.1,0,0.2,0,0.3-0.1c0.1,0,0.2-0.1,0.2-0.2c0.1-0.1,0.1-0.2,0.1-0.3
		c0-0.1,0-0.2-0.1-0.3c-0.1-0.1-0.1-0.2-0.2-0.2C721.4,274.3,721.3,274.3,721.2,274.3"/>
	<path class="st3" d="M721.2,274.3c-0.1,0-0.2,0-0.3,0.1c-0.1,0.1-0.2,0.1-0.2,0.2c-0.1,0.1-0.1,0.2-0.1,0.3c0,0.1,0,0.2,0.1,0.3
		c0.1,0.1,0.1,0.2,0.2,0.2c0.1,0.1,0.2,0.1,0.3,0.1c0.1,0,0.2,0,0.3-0.1c0.1,0,0.2-0.1,0.2-0.2c0.1-0.1,0.1-0.2,0.1-0.3
		c0-0.1,0-0.2-0.1-0.3c-0.1-0.1-0.1-0.2-0.2-0.2C721.4,274.3,721.3,274.3,721.2,274.3"/>
	<rect x="735" y="270.6" class="st4" width="8.2" height="6.8"/>
	<rect x="735" y="270.6" class="st3" width="8.2" height="6.8"/>
	<rect x="735.9" y="272.3" class="st4" width="6.5" height="4.3"/>
	<rect x="735.9" y="272.3" class="st3" width="6.5" height="4.3"/>
	<path class="st4" d="M754.6,270.6v6.2c0,0.4-0.1,0.8-0.2,1.1c-0.1,0.4-0.4,0.7-0.6,1c-0.3,0.3-0.6,0.5-1,0.6
		c-0.4,0.1-0.7,0.2-1.1,0.2c-0.4,0-0.8-0.1-1.1-0.2c-0.4-0.1-0.7-0.4-1-0.6c-0.3-0.3-0.5-0.6-0.6-1c-0.1-0.4-0.2-0.7-0.2-1.1v-6.2
		H754.6"/>
	<path class="st3" d="M754.6,270.6v6.2c0,0.4-0.1,0.8-0.2,1.1c-0.1,0.4-0.4,0.7-0.6,1c-0.3,0.3-0.6,0.5-1,0.6
		c-0.4,0.1-0.7,0.2-1.1,0.2c-0.4,0-0.8-0.1-1.1-0.2c-0.4-0.1-0.7-0.4-1-0.6c-0.3-0.3-0.5-0.6-0.6-1c-0.1-0.4-0.2-0.7-0.2-1.1v-6.2
		H754.6"/>
	<line class="st3" x1="748.6" y1="272.3" x2="754.6" y2="272.3"/>
	<path class="st4" d="M733.1,264.2V258c0-0.4,0.1-0.8,0.2-1.1c0.1-0.4,0.4-0.7,0.6-1c0.3-0.3,0.6-0.5,1-0.6s0.7-0.2,1.1-0.2
		c0.4,0,0.8,0.1,1.1,0.2c0.4,0.1,0.7,0.4,1,0.6c0.3,0.3,0.5,0.6,0.6,1c0.1,0.4,0.2,0.7,0.2,1.1v6.2H733.1"/>
	<path class="st3" d="M733.1,264.2V258c0-0.4,0.1-0.8,0.2-1.1c0.1-0.4,0.4-0.7,0.6-1c0.3-0.3,0.6-0.5,1-0.6s0.7-0.2,1.1-0.2
		c0.4,0,0.8,0.1,1.1,0.2c0.4,0.1,0.7,0.4,1,0.6c0.3,0.3,0.5,0.6,0.6,1c0.1,0.4,0.2,0.7,0.2,1.1v6.2H733.1"/>
	<line class="st3" x1="739" y1="262.6" x2="733" y2="262.6"/>
	<rect x="721.7" y="245.6" class="st4" width="6.5" height="8.2"/>
	<rect x="721.7" y="245.6" class="st3" width="6.5" height="8.2"/>
	<rect x="723.4" y="246.4" class="st4" width="4" height="6.5"/>
	<rect x="723.4" y="246.4" class="st3" width="4" height="6.5"/>
	<path class="st3" d="M584,283.6v1.2c2,0,4,0.4,5.8,1.2c1.8,0.8,3.5,1.9,4.9,3.3c1.4,1.4,2.5,3.1,3.3,4.9c0.8,1.8,1.2,3.8,1.2,5.8
		H584v1.2"/>
	<path class="st3" d="M762.7,283.6v1.2c-2,0-4,0.4-5.8,1.2c-1.8,0.8-3.5,1.9-4.9,3.3c-1.4,1.4-2.5,3.1-3.3,4.9
		c-0.8,1.8-1.2,3.8-1.2,5.8h15.2v1.2"/>
	<path class="st3" d="M617.8,225.9h-1.2c0,1.6-0.3,3.2-0.9,4.7c-0.6,1.5-1.5,2.9-2.7,4c-1.2,1.2-2.5,2.1-4,2.7
		c-1.5,0.6-3.1,0.9-4.7,0.9v-12.4h-1.2"/>
	<path class="st3" d="M728.9,225.9h1.2c0,1.6,0.3,3.2,0.9,4.7c0.6,1.5,1.5,2.9,2.7,4c1.2,1.2,2.5,2.1,4,2.7c1.5,0.6,3.1,0.9,4.7,0.9
		v-12.4h1.2"/>
	<path class="st3" d="M489.4,221.2V220c-2,0-3.9-0.4-5.7-1.1c-1.8-0.8-3.5-1.9-4.8-3.2c-1.4-1.4-2.5-3-3.2-4.8
		c-0.7-1.8-1.1-3.8-1.1-5.7h14.9v-1.2"/>
	<path class="st3" d="M857.3,221.2V220c2,0,3.9-0.4,5.7-1.1c1.8-0.8,3.5-1.9,4.8-3.2c1.4-1.4,2.5-3,3.2-4.8c0.7-1.8,1.1-3.8,1.1-5.7
		h-14.9v-1.2"/>
	<polyline class="st3" points="697.6,269.4 700.6,272.5 703.6,269.4 	"/>
	<polyline class="st3" points="649.1,243.2 646.1,240.2 643.1,243.2 	"/>
	<polyline class="st3" points="820.3,180.2 823.3,183.2 826.3,180.2 	"/>
	<polyline class="st3" points="691.7,415.9 694.7,418.9 697.7,415.9 	"/>
	<line class="st3" x1="551.3" y1="300.4" x2="547.9" y2="300.4"/>
	<line class="st3" x1="798.6" y1="351.8" x2="795.2" y2="351.8"/>
	<path class="st3" d="M632.3,225.9v-2.5c-2.2,0-4.4-0.4-6.5-1.3c-2.1-0.9-3.9-2.1-5.5-3.7s-2.8-3.4-3.7-5.5
		c-0.9-2.1-1.3-4.3-1.3-6.5h16.9v-2.5"/>
	<path class="st3" d="M714.4,225.9v-2.5c2.2,0,4.4-0.4,6.5-1.3c2.1-0.9,3.9-2.1,5.5-3.7c1.6-1.6,2.8-3.4,3.7-5.5
		c0.9-2.1,1.3-4.3,1.3-6.5h-16.9v-2.5"/>
	<path class="st4" d="M795.5,333.6c0-0.8-0.6-1.4-1.4-1.4s-1.4,0.6-1.4,1.4c0,0.8,0.6,1.4,1.4,1.4S795.5,334.4,795.5,333.6"/>
	<path class="st3" d="M795.5,333.6c0-0.8-0.6-1.4-1.4-1.4s-1.4,0.6-1.4,1.4c0,0.8,0.6,1.4,1.4,1.4S795.5,334.4,795.5,333.6"/>
	<path class="st4" d="M795.5,329.1c0-0.8-0.6-1.4-1.4-1.4s-1.4,0.6-1.4,1.4c0,0.8,0.6,1.4,1.4,1.4S795.5,329.9,795.5,329.1"/>
	<path class="st3" d="M795.5,329.1c0-0.8-0.6-1.4-1.4-1.4s-1.4,0.6-1.4,1.4c0,0.8,0.6,1.4,1.4,1.4S795.5,329.9,795.5,329.1"/>
	<path class="st4" d="M790.4,329.1c0-0.8-0.6-1.4-1.4-1.4s-1.4,0.6-1.4,1.4c0,0.8,0.6,1.4,1.4,1.4S790.4,329.9,790.4,329.1"/>
	<path class="st3" d="M790.4,329.1c0-0.8-0.6-1.4-1.4-1.4s-1.4,0.6-1.4,1.4c0,0.8,0.6,1.4,1.4,1.4S790.4,329.9,790.4,329.1"/>
	<path class="st4" d="M790.4,333.6c0-0.8-0.6-1.4-1.4-1.4s-1.4,0.6-1.4,1.4c0,0.8,0.6,1.4,1.4,1.4S790.4,334.4,790.4,333.6"/>
	<path class="st3" d="M790.4,333.6c0-0.8-0.6-1.4-1.4-1.4s-1.4,0.6-1.4,1.4c0,0.8,0.6,1.4,1.4,1.4S790.4,334.4,790.4,333.6"/>
	<path class="st4" d="M553.8,328.4c0-0.7-0.6-1.3-1.3-1.3s-1.3,0.6-1.3,1.3s0.6,1.3,1.3,1.3S553.8,329.1,553.8,328.4"/>
	<path class="st3" d="M553.8,328.4c0-0.7-0.6-1.3-1.3-1.3s-1.3,0.6-1.3,1.3s0.6,1.3,1.3,1.3S553.8,329.1,553.8,328.4"/>
	<path class="st4" d="M553.8,323.8c0-0.7-0.6-1.3-1.3-1.3s-1.3,0.6-1.3,1.3c0,0.7,0.6,1.3,1.3,1.3S553.8,324.5,553.8,323.8"/>
	<path class="st3" d="M553.8,323.8c0-0.7-0.6-1.3-1.3-1.3s-1.3,0.6-1.3,1.3c0,0.7,0.6,1.3,1.3,1.3S553.8,324.5,553.8,323.8"/>
	<path class="st4" d="M559,323.8c0-0.7-0.6-1.3-1.3-1.3c-0.7,0-1.3,0.6-1.3,1.3c0,0.7,0.6,1.3,1.3,1.3
		C558.4,325.1,559,324.5,559,323.8"/>
	<path class="st3" d="M559,323.8c0-0.7-0.6-1.3-1.3-1.3c-0.7,0-1.3,0.6-1.3,1.3c0,0.7,0.6,1.3,1.3,1.3
		C558.4,325.1,559,324.5,559,323.8"/>
	<path class="st4" d="M559,328.4c0-0.7-0.6-1.3-1.3-1.3c-0.7,0-1.3,0.6-1.3,1.3s0.6,1.3,1.3,1.3C558.4,329.6,559,329.1,559,328.4"/>
	<path class="st3" d="M559,328.4c0-0.7-0.6-1.3-1.3-1.3c-0.7,0-1.3,0.6-1.3,1.3s0.6,1.3,1.3,1.3C558.4,329.6,559,329.1,559,328.4"/>
	<rect x="526.3" y="230.5" class="st4" width="11.6" height="12.8"/>
	<rect x="526.3" y="230.5" class="st3" width="11.6" height="12.8"/>
	<polyline class="st4" points="526.3,232.2 536.2,232.2 536.2,241.6 526.3,241.6 526.3,232.2 	"/>
	<rect x="526.3" y="232.2" class="st3" width="9.9" height="9.4"/>
	<polyline class="st4" points="491.9,226.6 507,226.6 507,266.9 491.9,266.9 491.9,226.6 	"/>
	<rect x="491.9" y="226.6" class="st3" width="15.1" height="40.3"/>
	<polyline class="st4" points="507,265.2 493.6,265.2 493.6,228.3 507,228.3 507,265.2 	"/>
	<rect x="493.6" y="228.3" class="st3" width="13.3" height="36.9"/>
	<rect x="511.2" y="237.4" class="st4" width="8.5" height="18.2"/>
	<rect x="511.2" y="237.4" class="st3" width="8.5" height="18.2"/>
	<rect x="526.3" y="251.3" class="st4" width="11.6" height="12.8"/>
	<rect x="526.3" y="251.3" class="st3" width="11.6" height="12.8"/>
	<polyline class="st4" points="526.3,253 536.2,253 536.2,262.3 526.3,262.3 526.3,253 	"/>
	<rect x="526.3" y="253" class="st3" width="9.9" height="9.4"/>
	<rect x="808.6" y="249.8" class="st4" width="11.6" height="12.8"/>
	<rect x="808.6" y="249.8" class="st3" width="11.6" height="12.8"/>
	<polyline class="st4" points="820.2,260.9 810.3,260.9 810.3,251.6 820.2,251.6 820.2,260.9 	"/>
	<rect x="810.3" y="251.6" class="st3" width="9.9" height="9.4"/>
	<polyline class="st4" points="854.6,266.9 839.2,266.9 839.2,226.6 854.6,226.6 854.6,266.9 	"/>
	<rect x="839.2" y="226.6" class="st3" width="15.3" height="40.3"/>
	<polyline class="st4" points="839.2,228.3 852.9,228.3 852.9,265.2 839.2,265.2 839.2,228.3 	"/>
	<rect x="839.2" y="228.3" class="st3" width="13.6" height="36.9"/>
	<rect x="826.7" y="237.6" class="st4" width="8.2" height="18.5"/>
	<rect x="826.7" y="237.6" class="st3" width="8.2" height="18.5"/>
	<rect x="808.6" y="229.4" class="st4" width="11.6" height="12.8"/>
	<rect x="808.6" y="229.4" class="st3" width="11.6" height="12.8"/>
	<polyline class="st4" points="820.2,240.5 810.3,240.5 810.3,231.1 820.2,231.1 820.2,240.5 	"/>
	<rect x="810.3" y="231.1" class="st3" width="9.9" height="9.4"/>
	<polyline class="st8" points="676.3,328.9 673.2,325.9 670.2,328.9 676.3,328.9 	"/>
	<polyline class="st9" points="676.3,328.9 673.2,325.9 670.2,328.9 676.3,328.9 	"/>
	<path class="st3" d="M663.3,302.4L663.3,302.4c0,2.6,0.5,5.3,1.5,7.7c1,2.4,2.5,4.7,4.4,6.5c1.9,1.9,4.1,3.4,6.5,4.4
		c2.4,1,5.1,1.5,7.7,1.5v-20.1"/>
</g>
<text transform="matrix(1 0 0 1 119.9004 606.6055)" class="st10 st11">EG</text>
<text transform="matrix(1.0012 0 0 1 186.6543 686.6055)" class="st12 st13"> </text>
<rect y="544.3" class="st19" width="171.6" height="172.5"/>
</svg>
