<?xml version="1.0" encoding="utf-8"?>
<!-- Generator: Adobe Illustrator 19.1.0, SVG Export Plug-In . SVG Version: 6.00 Build 0)  -->
<svg version="1.1" id="Ebene_1" xmlns="http://www.w3.org/2000/svg" xmlns:xlink="http://www.w3.org/1999/xlink" x="0px" y="0px"
	 viewBox="0 0 1280 720" style="enable-background:new 0 0 1280 720;" xml:space="preserve">
<style type="text/css">
	.st0{clip-path:url(#SVGID_2_);fill-rule:evenodd;clip-rule:evenodd;fill:#E8E8E8;}
	
		.st1{clip-path:url(#SVGID_2_);fill:none;stroke:#8C8C8C;stroke-width:0.144;stroke-linecap:round;stroke-linejoin:round;stroke-miterlimit:10;}
	
		.st2{clip-path:url(#SVGID_2_);fill:none;stroke:#9F9F9F;stroke-width:7.200000e-02;stroke-linecap:round;stroke-linejoin:round;stroke-miterlimit:10;}
	
		.st3{clip-path:url(#SVGID_2_);fill:none;stroke:#000000;stroke-width:0.144;stroke-linecap:round;stroke-linejoin:round;stroke-miterlimit:10;}
	.st4{clip-path:url(#SVGID_2_);fill-rule:evenodd;clip-rule:evenodd;fill:#FFFFFF;}
	.st5{clip-path:url(#SVGID_2_);fill-rule:evenodd;clip-rule:evenodd;fill:#212121;}
	
		.st6{clip-path:url(#SVGID_2_);fill:none;stroke:#000000;stroke-width:0.216;stroke-linecap:round;stroke-linejoin:round;stroke-miterlimit:10;}
	.st7{clip-path:url(#SVGID_2_);fill-rule:evenodd;clip-rule:evenodd;fill:#777777;}
	.st8{clip-path:url(#SVGID_2_);fill-rule:evenodd;clip-rule:evenodd;}
	
		.st9{clip-path:url(#SVGID_2_);fill:none;stroke:#000000;stroke-width:7.200000e-02;stroke-linecap:round;stroke-linejoin:round;stroke-miterlimit:10;}
	.st10{fill-rule:evenodd;clip-rule:evenodd;fill:#FFFFFF;}
	.st11{fill:none;stroke:#000000;stroke-width:0.144;stroke-linecap:round;stroke-linejoin:round;stroke-miterlimit:10;}
	.st12{fill-rule:evenodd;clip-rule:evenodd;fill:#212121;}
	.st13{fill:none;stroke:#000000;stroke-width:0.216;stroke-linecap:round;stroke-linejoin:round;stroke-miterlimit:10;}
	.st14{fill-rule:evenodd;clip-rule:evenodd;fill:none;}
	.st15{fill:none;}
	.st16{clip-path:url(#SVGID_6_);fill-rule:evenodd;clip-rule:evenodd;fill:#E8E8E8;}
	
		.st17{clip-path:url(#SVGID_6_);fill:none;stroke:#8C8C8C;stroke-width:0.144;stroke-linecap:round;stroke-linejoin:round;stroke-miterlimit:10;}
	
		.st18{clip-path:url(#SVGID_6_);fill:none;stroke:#9F9F9F;stroke-width:7.200000e-02;stroke-linecap:round;stroke-linejoin:round;stroke-miterlimit:10;}
	
		.st19{clip-path:url(#SVGID_6_);fill:none;stroke:#000000;stroke-width:0.144;stroke-linecap:round;stroke-linejoin:round;stroke-miterlimit:10;}
	.st20{clip-path:url(#SVGID_6_);fill-rule:evenodd;clip-rule:evenodd;fill:#212121;}
	
		.st21{clip-path:url(#SVGID_6_);fill:none;stroke:#000000;stroke-width:0.216;stroke-linecap:round;stroke-linejoin:round;stroke-miterlimit:10;}
	.st22{clip-path:url(#SVGID_6_);fill-rule:evenodd;clip-rule:evenodd;fill:#FFFFFF;}
	.st23{clip-path:url(#SVGID_6_);fill-rule:evenodd;clip-rule:evenodd;fill:#777777;}
	.st24{fill-rule:evenodd;clip-rule:evenodd;fill:#E8E8E8;}
	.st25{fill:none;stroke:#8C8C8C;stroke-width:0.144;stroke-linecap:round;stroke-linejoin:round;stroke-miterlimit:10;}
	.st26{fill:none;stroke:#9F9F9F;stroke-width:7.200000e-02;stroke-linecap:round;stroke-linejoin:round;stroke-miterlimit:10;}
	.st27{fill-rule:evenodd;clip-rule:evenodd;fill:#777777;}
	.st28{fill:#FFFFFF;}
	.st29{fill:none;stroke:#000000;stroke-width:0.25;stroke-linecap:round;stroke-linejoin:round;stroke-miterlimit:10;}
	.st30{font-family:'GTEestiProText-Regular';}
	.st31{font-size:12px;}
</style>
<rect x="464.6" y="132.9" class="st10" width="46.8" height="97"/>
<rect x="464.6" y="132.9" class="st11" width="46.8" height="97"/>
<rect x="464.6" y="243.9" class="st10" width="46.8" height="97.3"/>
<rect x="464.6" y="243.9" class="st11" width="46.8" height="97.3"/>
<rect x="464.6" y="355.3" class="st10" width="46.8" height="97"/>
<rect x="464.6" y="355.3" class="st11" width="46.8" height="97"/>
<polyline class="st10" points="811.4,227.5 814.1,227.5 822.3,228.1 822.3,135.7 811.4,135.7 811.4,227.5 "/>
<polygon class="st11" points="811.4,227.5 814.1,227.5 822.3,228.1 822.3,135.7 811.4,135.7 "/>
<polyline class="st12" points="441.2,155.1 441.2,151.2 447.3,150.6 447.3,106.1 457.3,106.1 457.3,116.2 814.1,116.2 814.1,106.1 
	822.3,106.1 822.3,116.5 831.5,117.4 853.7,116.5 853.7,125.6 851.9,125.6 851.2,125 851.2,125.6 823.9,125.6 823.9,135 
	823.9,135.7 811.4,135.7 811.4,132.9 464.6,132.9 464.6,155.1 441.2,155.1 "/>
<polygon class="st13" points="441.2,155.1 441.2,151.2 447.3,150.6 447.3,106.1 457.3,106.1 457.3,116.2 814.1,116.2 814.1,106.1 
	822.3,106.1 822.3,116.5 831.5,117.4 853.7,116.5 853.7,125.6 851.9,125.6 851.2,125 851.2,125.6 823.9,125.6 823.9,135 
	823.9,135.7 811.4,135.7 811.4,132.9 464.6,132.9 464.6,155.1 "/>
<polyline class="st12" points="441.2,266.2 441.2,262.2 447.3,261.6 447.3,230 464.6,230 464.6,234.5 811.4,234.5 811.4,227.5 
	814.1,227.5 831.5,228.4 853.7,227.8 853.7,237 851.9,237 851.2,236 851.2,237 823.9,237 823.9,247 811.4,247 811.4,243.9 
	464.6,243.9 464.6,266.2 441.2,266.2 "/>
<polygon class="st13" points="441.2,266.2 441.2,262.2 447.3,261.6 447.3,230 464.6,230 464.6,234.5 811.4,234.5 811.4,227.5 
	814.1,227.5 831.5,228.4 853.7,227.8 853.7,237 851.9,237 851.2,236 851.2,237 823.9,237 823.9,247 811.4,247 811.4,243.9 
	464.6,243.9 464.6,266.2 "/>
<path class="st12" d="M472.1,474.3v5.9H347.8v82.6h581.3v-82.6H796.5v-5.9H472.1 M347.8,469.1l99.5-3.3v-13.6h17.2v4.9h346.9v-4.9
	h11v13.6l106.7,3.3v-9h9v113.5H338.8v-10.8V460.1h9V469.1"/>
<path class="st13" d="M472.1,474.3v5.9H347.8v82.6h581.3v-82.6H796.5v-5.9H472.1 M347.8,469.1l99.5-3.3v-13.6h17.2v4.9h346.9v-4.9
	h11v13.6l106.7,3.3v-9h9v113.5H338.8v-10.8V460.1h9V469.1"/>
<rect x="811.4" y="358" class="st10" width="11" height="94.3"/>
<rect x="811.4" y="358" class="st11" width="11" height="94.3"/>
<polyline class="st10" points="814.1,341.3 814.1,341.3 822.3,341.9 822.3,247 811.4,247 811.4,341.3 814.1,341.3 "/>
<polygon class="st11" points="814.1,341.3 814.1,341.3 822.3,341.9 822.3,247 811.4,247 811.4,341.3 "/>
<polyline class="st12" points="441.2,377.5 441.2,373.5 447.3,372.9 447.3,341.3 464.6,341.3 464.6,345.9 811.4,345.9 811.4,341.3 
	814.1,341.3 831.5,342.5 853.7,341.9 853.7,351 851.9,351 851.2,350.1 851.2,351 823.9,351 823.9,358 811.4,358 811.4,355.3 
	464.6,355.3 464.6,377.5 441.2,377.5 "/>
<polygon class="st13" points="441.2,377.5 441.2,373.5 447.3,372.9 447.3,341.3 464.6,341.3 464.6,345.9 811.4,345.9 811.4,341.3 
	814.1,341.3 831.5,342.5 853.7,341.9 853.7,351 851.9,351 851.2,350.1 851.2,351 823.9,351 823.9,358 811.4,358 811.4,355.3 
	464.6,355.3 464.6,377.5 "/>
<rect x="447.3" y="155.1" class="st10" width="17.3" height="74.8"/>
<rect x="447.3" y="155.1" class="st11" width="17.3" height="74.8"/>
<rect x="447.3" y="266.2" class="st10" width="17.3" height="75.1"/>
<rect x="447.3" y="266.2" class="st11" width="17.3" height="75.1"/>
<rect x="447.3" y="377.5" class="st10" width="17.3" height="74.8"/>
<rect x="447.3" y="377.5" class="st11" width="17.3" height="74.8"/>
<line class="st11" x1="813.8" y1="135.7" x2="813.8" y2="227.5"/>
<line class="st11" x1="813.8" y1="247" x2="813.8" y2="341.3"/>
<line class="st11" x1="813.8" y1="358" x2="813.8" y2="452.3"/>
<line class="st11" x1="457.3" y1="155.1" x2="457.3" y2="230"/>
<line class="st11" x1="457.3" y1="266.2" x2="457.3" y2="341.3"/>
<line class="st11" x1="457.3" y1="377.5" x2="457.3" y2="452.3"/>
<line class="st11" x1="464.6" y1="230" x2="811.4" y2="230"/>
<line class="st11" x1="811.4" y1="341.3" x2="464.6" y2="341.3"/>
<line class="st11" x1="811.4" y1="452.3" x2="464.6" y2="452.3"/>
<polyline class="st11" points="822.3,455.7 893.8,456.6 929.1,461.1 "/>
<polyline class="st11" points="447.3,455.7 446.7,455.7 374.6,456.6 347.8,461.1 "/>
<line class="st11" x1="457.3" y1="106.1" x2="814.1" y2="106.1"/>
<rect x="598.8" y="474.2" class="st10" width="8.5" height="88.5"/>
<rect x="598.8" y="474.2" class="st11" width="8.5" height="88.5"/>
<rect x="802.6" y="480.3" class="st10" width="8.5" height="82.4"/>
<rect x="802.6" y="480.3" class="st11" width="8.5" height="82.4"/>
<rect x="457.3" y="480.3" class="st10" width="8.5" height="82.4"/>
<rect x="457.3" y="480.3" class="st11" width="8.5" height="82.4"/>
<rect x="468.3" y="376.9" class="st10" width="34.1" height="75.4"/>
<rect x="468.3" y="376.9" class="st11" width="34.1" height="75.4"/>
<rect x="468.3" y="265.5" class="st10" width="34.1" height="75.7"/>
<rect x="468.3" y="265.5" class="st11" width="34.1" height="75.7"/>
<rect x="468.3" y="154.2" class="st10" width="34.1" height="75.7"/>
<rect x="468.3" y="154.2" class="st11" width="34.1" height="75.7"/>
<rect x="850.9" y="186.8" class="st10" width="2.7" height="41.1"/>
<rect x="850.9" y="186.8" class="st11" width="2.7" height="41.1"/>
<rect x="850.9" y="305.4" class="st10" width="2.7" height="36.5"/>
<rect x="850.9" y="305.4" class="st11" width="2.7" height="36.5"/>
<rect x="929.1" y="423.4" class="st10" width="2.7" height="36.8"/>
<rect x="929.1" y="423.4" class="st11" width="2.7" height="36.8"/>
<rect x="345.1" y="423.4" class="st10" width="2.7" height="36.8"/>
<rect x="345.1" y="423.4" class="st11" width="2.7" height="36.8"/>
<polyline class="st10" points="444.5,266.2 444.5,347.1 445.5,347.1 445.5,266.2 444.5,266.2 "/>
<rect x="444.5" y="266.2" class="st11" width="0.9" height="80.9"/>
<polyline class="st10" points="444.5,155.1 444.5,235.7 445.5,235.7 445.5,155.1 444.5,155.1 "/>
<rect x="444.5" y="155.1" class="st11" width="0.9" height="80.6"/>
<polyline class="st10" points="444.5,454.1 445.5,454.1 445.5,377.5 444.5,377.5 444.5,454.1 "/>
<rect x="444.5" y="377.5" class="st11" width="0.9" height="76.7"/>
<polyline class="st29" points="1347.8,510.3 1064.8,507.2 1064.1,507.1 990.9,508.8 938.1,508.8 938.1,573.6 338.8,573.6 
	338.8,495.7 -29.5,495.7 "/>
<line class="st11" x1="416.9" y1="571.9" x2="416.9" y2="574.3"/>
<line class="st11" x1="416.9" y1="578" x2="416.9" y2="581.6"/>
<line class="st11" x1="416.9" y1="585.3" x2="416.9" y2="588"/>
<line class="st11" x1="416.9" y1="588" x2="419.6" y2="588"/>
<line class="st11" x1="423.2" y1="588" x2="426.9" y2="588"/>
<line class="st11" x1="430.5" y1="588" x2="434.2" y2="588"/>
<line class="st11" x1="437.8" y1="588" x2="441.5" y2="588"/>
<line class="st11" x1="445.1" y1="588" x2="448.8" y2="588"/>
<line class="st11" x1="452.4" y1="588" x2="456.1" y2="588"/>
<line class="st11" x1="459.8" y1="588" x2="463.4" y2="588"/>
<line class="st11" x1="467.1" y1="588" x2="470.7" y2="588"/>
<line class="st11" x1="474.4" y1="588" x2="478" y2="588"/>
<line class="st11" x1="481.7" y1="588" x2="485.3" y2="588"/>
<line class="st11" x1="489" y1="588" x2="492.6" y2="588"/>
<line class="st11" x1="496.3" y1="588" x2="499.9" y2="588"/>
<line class="st11" x1="503.6" y1="588" x2="506.6" y2="588"/>
<line class="st11" x1="506.6" y1="588" x2="506.6" y2="585.6"/>
<line class="st11" x1="506.6" y1="581.9" x2="506.6" y2="578.3"/>
<line class="st11" x1="506.6" y1="574.6" x2="506.6" y2="571.9"/>
<line class="st11" x1="540.1" y1="571.9" x2="540.1" y2="573.7"/>
<line class="st11" x1="540.1" y1="577.3" x2="540.1" y2="581"/>
<line class="st11" x1="540.1" y1="584.6" x2="540.1" y2="588.3"/>
<line class="st11" x1="540.1" y1="591.9" x2="540.1" y2="593.5"/>
<line class="st11" x1="540.1" y1="593.5" x2="542.8" y2="593.5"/>
<line class="st11" x1="546.4" y1="593.5" x2="550.1" y2="593.5"/>
<line class="st11" x1="553.7" y1="593.5" x2="557.4" y2="593.5"/>
<line class="st11" x1="561" y1="593.5" x2="564.7" y2="593.5"/>
<line class="st11" x1="568.3" y1="593.5" x2="572" y2="593.5"/>
<line class="st11" x1="575.6" y1="593.5" x2="579.3" y2="593.5"/>
<line class="st11" x1="582.9" y1="593.5" x2="586.6" y2="593.5"/>
<line class="st11" x1="590.2" y1="593.5" x2="593.9" y2="593.5"/>
<line class="st11" x1="597.5" y1="593.5" x2="601.2" y2="593.5"/>
<line class="st11" x1="604.9" y1="593.5" x2="608.5" y2="593.5"/>
<line class="st11" x1="612.2" y1="593.5" x2="615.8" y2="593.5"/>
<line class="st11" x1="619.5" y1="593.5" x2="623.1" y2="593.5"/>
<line class="st11" x1="626.8" y1="593.5" x2="630.4" y2="593.5"/>
<line class="st11" x1="634.1" y1="593.5" x2="637.7" y2="593.5"/>
<line class="st11" x1="641.4" y1="593.5" x2="645" y2="593.5"/>
<line class="st11" x1="648.7" y1="593.5" x2="652.3" y2="593.5"/>
<line class="st11" x1="656" y1="593.5" x2="659.6" y2="593.5"/>
<line class="st11" x1="663.3" y1="593.5" x2="666" y2="593.5"/>
<line class="st11" x1="666" y1="593.5" x2="666" y2="591.6"/>
<line class="st11" x1="666" y1="588" x2="666" y2="584.3"/>
<line class="st11" x1="666" y1="580.7" x2="666" y2="577"/>
<line class="st11" x1="666" y1="573.4" x2="666" y2="571.9"/>
<line class="st11" x1="753" y1="571.9" x2="753" y2="575.2"/>
<line class="st11" x1="753" y1="578.9" x2="753" y2="582.5"/>
<line class="st11" x1="753" y1="586.2" x2="753" y2="589.8"/>
<line class="st11" x1="753" y1="589.8" x2="753.9" y2="589.8"/>
<line class="st11" x1="757.6" y1="589.8" x2="761.2" y2="589.8"/>
<line class="st11" x1="764.9" y1="589.8" x2="768.5" y2="589.8"/>
<line class="st11" x1="772.2" y1="589.8" x2="775.8" y2="589.8"/>
<line class="st11" x1="779.5" y1="589.8" x2="783.1" y2="589.8"/>
<line class="st11" x1="786.8" y1="589.8" x2="790.4" y2="589.8"/>
<line class="st11" x1="794.1" y1="589.8" x2="797.7" y2="589.8"/>
<line class="st11" x1="801.4" y1="589.8" x2="805" y2="589.8"/>
<line class="st11" x1="808.7" y1="589.8" x2="812.3" y2="589.8"/>
<line class="st11" x1="816" y1="589.8" x2="819.6" y2="589.8"/>
<line class="st11" x1="823.3" y1="589.8" x2="826.9" y2="589.8"/>
<line class="st11" x1="830.6" y1="589.8" x2="834.2" y2="589.8"/>
<line class="st11" x1="837.9" y1="589.8" x2="841.5" y2="589.8"/>
<line class="st11" x1="845.2" y1="589.8" x2="848.8" y2="589.8"/>
<line class="st11" x1="852.5" y1="589.8" x2="856.1" y2="589.8"/>
<line class="st11" x1="859.8" y1="589.8" x2="860.7" y2="589.8"/>
<line class="st11" x1="860.7" y1="589.8" x2="860.7" y2="586.5"/>
<line class="st11" x1="860.7" y1="582.8" x2="860.7" y2="579.2"/>
<line class="st11" x1="860.7" y1="575.5" x2="860.7" y2="571.9"/>
<text transform="matrix(1 0 0 1 119.4985 605.9969)" class="st30 st31">Schnitt</text>
</svg>
