<?xml version="1.0" encoding="utf-8"?>
<!-- Generator: Adobe Illustrator 19.1.0, SVG Export Plug-In . SVG Version: 6.00 Build 0)  -->
<svg version="1.1" id="Ebene_1" xmlns="http://www.w3.org/2000/svg" xmlns:xlink="http://www.w3.org/1999/xlink" x="0px" y="0px"
	 viewBox="0 0 1280 720" style="enable-background:new 0 0 1280 720;" xml:space="preserve">
<style type="text/css">
	.st0{clip-path:url(#SVGID_2_);fill-rule:evenodd;clip-rule:evenodd;fill:#E8E8E8;}
	
		.st1{clip-path:url(#SVGID_2_);fill:none;stroke:#8C8C8C;stroke-width:0.144;stroke-linecap:round;stroke-linejoin:round;stroke-miterlimit:10;}
	
		.st2{clip-path:url(#SVGID_2_);fill:none;stroke:#9F9F9F;stroke-width:7.200000e-02;stroke-linecap:round;stroke-linejoin:round;stroke-miterlimit:10;}
	
		.st3{clip-path:url(#SVGID_2_);fill:none;stroke:#000000;stroke-width:0.144;stroke-linecap:round;stroke-linejoin:round;stroke-miterlimit:10;}
	.st4{clip-path:url(#SVGID_2_);fill-rule:evenodd;clip-rule:evenodd;fill:#FFFFFF;}
	.st5{clip-path:url(#SVGID_2_);fill-rule:evenodd;clip-rule:evenodd;fill:#212121;}
	
		.st6{clip-path:url(#SVGID_2_);fill:none;stroke:#000000;stroke-width:0.216;stroke-linecap:round;stroke-linejoin:round;stroke-miterlimit:10;}
	.st7{clip-path:url(#SVGID_2_);fill-rule:evenodd;clip-rule:evenodd;fill:#777777;}
	.st8{clip-path:url(#SVGID_2_);fill-rule:evenodd;clip-rule:evenodd;}
	
		.st9{clip-path:url(#SVGID_2_);fill:none;stroke:#000000;stroke-width:7.200000e-02;stroke-linecap:round;stroke-linejoin:round;stroke-miterlimit:10;}
	.st10{fill-rule:evenodd;clip-rule:evenodd;fill:#FFFFFF;}
	.st11{fill:none;stroke:#000000;stroke-width:0.144;stroke-linecap:round;stroke-linejoin:round;stroke-miterlimit:10;}
	.st12{fill-rule:evenodd;clip-rule:evenodd;fill:#212121;}
	.st13{fill:none;stroke:#000000;stroke-width:0.216;stroke-linecap:round;stroke-linejoin:round;stroke-miterlimit:10;}
	.st14{fill-rule:evenodd;clip-rule:evenodd;fill:none;}
	.st15{fill:none;}
	.st16{clip-path:url(#SVGID_6_);fill-rule:evenodd;clip-rule:evenodd;fill:#E8E8E8;}
	
		.st17{clip-path:url(#SVGID_6_);fill:none;stroke:#8C8C8C;stroke-width:0.144;stroke-linecap:round;stroke-linejoin:round;stroke-miterlimit:10;}
	
		.st18{clip-path:url(#SVGID_6_);fill:none;stroke:#9F9F9F;stroke-width:7.200000e-02;stroke-linecap:round;stroke-linejoin:round;stroke-miterlimit:10;}
	
		.st19{clip-path:url(#SVGID_6_);fill:none;stroke:#000000;stroke-width:0.144;stroke-linecap:round;stroke-linejoin:round;stroke-miterlimit:10;}
	.st20{clip-path:url(#SVGID_6_);fill-rule:evenodd;clip-rule:evenodd;fill:#212121;}
	
		.st21{clip-path:url(#SVGID_6_);fill:none;stroke:#000000;stroke-width:0.216;stroke-linecap:round;stroke-linejoin:round;stroke-miterlimit:10;}
	.st22{clip-path:url(#SVGID_6_);fill-rule:evenodd;clip-rule:evenodd;fill:#FFFFFF;}
	.st23{clip-path:url(#SVGID_6_);fill-rule:evenodd;clip-rule:evenodd;fill:#777777;}
	.st24{font-family:'GTEestiProText-Regular';}
	.st25{font-size:12px;}
	.st26{fill-rule:evenodd;clip-rule:evenodd;fill:#E8E8E8;}
	.st27{fill:none;stroke:#8C8C8C;stroke-width:0.144;stroke-linecap:round;stroke-linejoin:round;stroke-miterlimit:10;}
	.st28{fill:none;stroke:#9F9F9F;stroke-width:7.200000e-02;stroke-linecap:round;stroke-linejoin:round;stroke-miterlimit:10;}
	.st29{fill-rule:evenodd;clip-rule:evenodd;fill:#777777;}
	.st30{fill:#FFFFFF;}
</style>
<g>
	<g>
		<g>
			<defs>
				<rect id="SVGID_5_" x="170" y="40.3" width="962" height="648.2"/>
			</defs>
			<clipPath id="SVGID_2_">
				<use xlink:href="#SVGID_5_"  style="overflow:visible;"/>
			</clipPath>
			<polyline class="st0" points="671.2,307.6 671.2,307.6 578.4,307.6 578.4,231.4 629.4,231.4 629.4,209.6 486.3,209.6 
				486.3,365.9 703.9,365.9 703.9,307.6 671.2,307.6 			"/>
			<polygon class="st1" points="671.2,307.6 671.2,307.6 578.4,307.6 578.4,231.4 629.4,231.4 629.4,209.6 486.3,209.6 486.3,365.9 
				703.9,365.9 703.9,307.6 			"/>
			<line class="st2" x1="612.6" y1="406.2" x2="612.6" y2="388.8"/>
			<line class="st2" x1="604.2" y1="406.2" x2="604.2" y2="388.8"/>
			<line class="st2" x1="604.2" y1="201.1" x2="604.2" y2="168.1"/>
			<line class="st2" x1="596.1" y1="406.2" x2="596.1" y2="388.8"/>
			<line class="st2" x1="596.1" y1="201.1" x2="596.1" y2="168.1"/>
			<line class="st2" x1="587.7" y1="406.2" x2="587.7" y2="388.8"/>
			<line class="st2" x1="587.7" y1="201.1" x2="587.7" y2="168.1"/>
			<line class="st2" x1="579.6" y1="406.2" x2="579.6" y2="388.8"/>
			<line class="st2" x1="579.6" y1="201.1" x2="579.6" y2="168.1"/>
			<line class="st2" x1="571.2" y1="406.2" x2="571.2" y2="388.8"/>
			<line class="st2" x1="571.2" y1="201.1" x2="571.2" y2="168.1"/>
			<line class="st2" x1="563" y1="406.2" x2="563" y2="388.8"/>
			<line class="st2" x1="563" y1="201.1" x2="563" y2="168.1"/>
			<line class="st2" x1="554.6" y1="406.2" x2="554.6" y2="388.8"/>
			<line class="st2" x1="554.6" y1="201.1" x2="554.6" y2="168.1"/>
			<line class="st2" x1="546.5" y1="406.2" x2="546.5" y2="388.8"/>
			<line class="st2" x1="546.5" y1="201.1" x2="546.5" y2="168.1"/>
			<line class="st2" x1="538.1" y1="406.2" x2="538.1" y2="388.8"/>
			<line class="st2" x1="538.1" y1="201.1" x2="538.1" y2="168.1"/>
			<line class="st2" x1="530" y1="406.2" x2="530" y2="388.8"/>
			<line class="st2" x1="530" y1="201.1" x2="530" y2="168.1"/>
			<line class="st2" x1="521.6" y1="406.2" x2="521.6" y2="388.8"/>
			<line class="st2" x1="521.6" y1="201.1" x2="521.6" y2="168.1"/>
			<line class="st2" x1="513.2" y1="406.2" x2="513.2" y2="388.8"/>
			<line class="st2" x1="513.2" y1="201.1" x2="513.2" y2="168.1"/>
			<line class="st2" x1="505" y1="406.2" x2="505" y2="388.8"/>
			<line class="st2" x1="505" y1="201.1" x2="505" y2="168.1"/>
			<line class="st2" x1="496.6" y1="406.2" x2="496.6" y2="388.8"/>
			<line class="st2" x1="496.6" y1="201.1" x2="496.6" y2="168.1"/>
			<line class="st2" x1="488.5" y1="406.2" x2="488.5" y2="388.8"/>
			<line class="st2" x1="488.5" y1="201.1" x2="488.5" y2="168.1"/>
			<line class="st2" x1="480.1" y1="406.2" x2="480.1" y2="388.8"/>
			<line class="st2" x1="480.1" y1="201.1" x2="480.1" y2="168.1"/>
			<line class="st2" x1="472" y1="406.2" x2="472" y2="388.8"/>
			<line class="st2" x1="472" y1="201.1" x2="472" y2="168.1"/>
			<line class="st2" x1="463.6" y1="406.2" x2="463.6" y2="388.8"/>
			<line class="st2" x1="463.6" y1="201.1" x2="463.6" y2="168.1"/>
			<line class="st2" x1="455.5" y1="406.2" x2="455.5" y2="388.8"/>
			<line class="st2" x1="455.5" y1="201.1" x2="455.5" y2="168.1"/>
			<line class="st2" x1="447.1" y1="406.2" x2="447.1" y2="388.8"/>
			<line class="st2" x1="447.1" y1="201.1" x2="447.1" y2="168.1"/>
			<line class="st2" x1="438.9" y1="406.2" x2="438.9" y2="388.8"/>
			<line class="st2" x1="438.9" y1="201.1" x2="438.9" y2="168.1"/>
			<line class="st2" x1="430.5" y1="406.2" x2="430.5" y2="388.8"/>
			<line class="st2" x1="430.5" y1="201.1" x2="430.5" y2="168.1"/>
			<line class="st2" x1="422.4" y1="406.2" x2="422.4" y2="388.8"/>
			<line class="st2" x1="422.4" y1="201.1" x2="422.4" y2="168.1"/>
			<line class="st2" x1="414" y1="406.2" x2="414" y2="388.8"/>
			<line class="st2" x1="414" y1="201.1" x2="414" y2="168.1"/>
			<line class="st2" x1="405.9" y1="406.2" x2="405.9" y2="388.8"/>
			<line class="st2" x1="405.9" y1="201.1" x2="405.9" y2="168.1"/>
			<line class="st2" x1="397.5" y1="406.2" x2="397.5" y2="168.1"/>
			<line class="st2" x1="397.2" y1="402.3" x2="616.3" y2="402.3"/>
			<line class="st2" x1="397.2" y1="393.9" x2="616.3" y2="393.9"/>
			<line class="st2" x1="397.2" y1="385.5" x2="402.8" y2="385.5"/>
			<line class="st2" x1="397.2" y1="377.4" x2="402.8" y2="377.4"/>
			<line class="st2" x1="397.2" y1="369" x2="402.8" y2="369"/>
			<line class="st2" x1="397.2" y1="360.8" x2="402.8" y2="360.8"/>
			<line class="st2" x1="397.2" y1="352.4" x2="402.8" y2="352.4"/>
			<line class="st2" x1="397.2" y1="344.3" x2="402.8" y2="344.3"/>
			<line class="st2" x1="397.2" y1="335.9" x2="402.8" y2="335.9"/>
			<line class="st2" x1="397.2" y1="327.8" x2="405.3" y2="327.8"/>
			<line class="st2" x1="397.2" y1="319.4" x2="405.3" y2="319.4"/>
			<line class="st2" x1="397.2" y1="311.2" x2="405.3" y2="311.2"/>
			<line class="st2" x1="397.2" y1="302.8" x2="405.3" y2="302.8"/>
			<line class="st2" x1="397.2" y1="294.7" x2="405.3" y2="294.7"/>
			<line class="st2" x1="397.2" y1="286.3" x2="405.3" y2="286.3"/>
			<line class="st2" x1="397.2" y1="278.2" x2="405.3" y2="278.2"/>
			<line class="st2" x1="397.2" y1="269.8" x2="405.3" y2="269.8"/>
			<line class="st2" x1="397.2" y1="261.7" x2="405.3" y2="261.7"/>
			<line class="st2" x1="397.2" y1="253.3" x2="405.3" y2="253.3"/>
			<line class="st2" x1="397.2" y1="244.8" x2="405.3" y2="244.8"/>
			<line class="st2" x1="397.2" y1="236.7" x2="405.3" y2="236.7"/>
			<line class="st2" x1="397.2" y1="228.3" x2="405.3" y2="228.3"/>
			<line class="st2" x1="397.2" y1="220.2" x2="405.3" y2="220.2"/>
			<line class="st2" x1="397.2" y1="211.8" x2="405.3" y2="211.8"/>
			<line class="st2" x1="397.2" y1="203.7" x2="405.3" y2="203.7"/>
			<line class="st2" x1="397.2" y1="195.3" x2="610.9" y2="195.3"/>
			<line class="st2" x1="397.2" y1="187.1" x2="610.9" y2="187.1"/>
			<line class="st2" x1="397.2" y1="178.7" x2="610.9" y2="178.7"/>
			<line class="st2" x1="397.2" y1="170.6" x2="610.9" y2="170.6"/>
			<polygon class="st3" points="465.3,388.8 402.8,388.8 402.8,335.1 405.3,335.1 405.3,201.1 610.9,201.1 610.9,168.1 397.2,168.1 
				397.2,406.2 616.3,406.2 616.3,388.8 			"/>
			<polygon class="st3" points="477.6,201.1 405.3,201.1 405.3,335.6 411.2,335.6 411.2,207.3 477.6,207.3 			"/>
			<polygon class="st3" points="712.4,201.1 712.4,207.3 924.7,207.3 924.4,201.1 			"/>
			<line class="st2" x1="736.7" y1="374.6" x2="736.7" y2="308.7"/>
			<line class="st2" x1="728.3" y1="374.6" x2="728.3" y2="308.7"/>
			<line class="st2" x1="720.2" y1="374.6" x2="720.2" y2="308.7"/>
			<line class="st2" x1="712.4" y1="369" x2="744.8" y2="369"/>
			<line class="st2" x1="712.4" y1="360.8" x2="744.8" y2="360.8"/>
			<line class="st2" x1="712.4" y1="352.4" x2="744.8" y2="352.4"/>
			<line class="st2" x1="712.4" y1="344.3" x2="744.8" y2="344.3"/>
			<line class="st2" x1="712.4" y1="335.9" x2="744.8" y2="335.9"/>
			<line class="st2" x1="712.4" y1="327.8" x2="744.8" y2="327.8"/>
			<line class="st2" x1="712.4" y1="319.4" x2="744.8" y2="319.4"/>
			<line class="st2" x1="712.4" y1="311.2" x2="744.8" y2="311.2"/>
			<rect x="712.4" y="308.7" class="st3" width="32.5" height="65.8"/>
			<line class="st2" x1="472" y1="374.6" x2="472" y2="207.3"/>
			<line class="st2" x1="463.6" y1="374.6" x2="463.6" y2="207.3"/>
			<line class="st2" x1="455.5" y1="374.6" x2="455.5" y2="207.3"/>
			<line class="st2" x1="447.1" y1="374.6" x2="447.1" y2="207.3"/>
			<line class="st2" x1="438.9" y1="374.6" x2="438.9" y2="207.3"/>
			<line class="st2" x1="430.5" y1="374.6" x2="430.5" y2="207.3"/>
			<line class="st2" x1="422.4" y1="369" x2="477.6" y2="369"/>
			<line class="st2" x1="422.4" y1="360.8" x2="477.6" y2="360.8"/>
			<line class="st2" x1="422.4" y1="352.4" x2="477.6" y2="352.4"/>
			<line class="st2" x1="422.4" y1="344.3" x2="477.6" y2="344.3"/>
			<line class="st2" x1="422.4" y1="335.9" x2="477.6" y2="335.9"/>
			<line class="st2" x1="422.4" y1="327.8" x2="477.6" y2="327.8"/>
			<line class="st2" x1="422.4" y1="319.4" x2="477.6" y2="319.4"/>
			<line class="st2" x1="422.4" y1="311.2" x2="477.6" y2="311.2"/>
			<line class="st2" x1="422.4" y1="302.8" x2="477.6" y2="302.8"/>
			<line class="st2" x1="422.4" y1="294.7" x2="477.6" y2="294.7"/>
			<line class="st2" x1="422.4" y1="286.3" x2="477.6" y2="286.3"/>
			<line class="st2" x1="422.4" y1="278.2" x2="477.6" y2="278.2"/>
			<line class="st2" x1="422.4" y1="269.8" x2="477.6" y2="269.8"/>
			<line class="st2" x1="422.4" y1="261.7" x2="477.6" y2="261.7"/>
			<line class="st2" x1="422.4" y1="253.3" x2="477.6" y2="253.3"/>
			<line class="st2" x1="422.4" y1="244.8" x2="477.6" y2="244.8"/>
			<line class="st2" x1="422.4" y1="236.7" x2="477.6" y2="236.7"/>
			<line class="st2" x1="422.4" y1="228.3" x2="477.6" y2="228.3"/>
			<line class="st2" x1="422.4" y1="220.2" x2="477.6" y2="220.2"/>
			<line class="st2" x1="422.4" y1="211.8" x2="477.6" y2="211.8"/>
			<polygon class="st3" points="477.6,374.6 422.4,374.6 422.4,336.5 422.4,207.3 477.6,207.3 			"/>
			<line class="st3" x1="683.2" y1="277.3" x2="703.9" y2="277.3"/>
			<line class="st3" x1="629.4" y1="261.4" x2="650.2" y2="261.4"/>
			<line class="st3" x1="683.2" y1="272.6" x2="703.9" y2="272.6"/>
			<line class="st3" x1="683.2" y1="268.1" x2="703.9" y2="268.1"/>
			<line class="st3" x1="683.2" y1="263.6" x2="703.9" y2="263.6"/>
			<line class="st3" x1="683.2" y1="259.1" x2="703.9" y2="259.1"/>
			<line class="st3" x1="683.2" y1="254.4" x2="703.9" y2="254.4"/>
			<line class="st3" x1="629.4" y1="265.9" x2="650.2" y2="265.9"/>
			<line class="st3" x1="629.4" y1="270.3" x2="650.2" y2="270.3"/>
			<line class="st3" x1="683.2" y1="249.9" x2="703.9" y2="249.9"/>
			<line class="st3" x1="683.2" y1="240.4" x2="703.9" y2="240.4"/>
			<line class="st3" x1="683.2" y1="245.4" x2="703.9" y2="245.4"/>
			<line class="st3" x1="629.4" y1="275.1" x2="650.2" y2="275.1"/>
			<line class="st3" x1="629.4" y1="252.1" x2="642.9" y2="252.1"/>
			<line class="st3" x1="650.2" y1="255.5" x2="629.4" y2="246.3"/>
			<line class="st3" x1="629.4" y1="256.9" x2="650.2" y2="256.9"/>
			<line class="st3" x1="650.2" y1="254.4" x2="650.2" y2="254.4"/>
			<line class="st3" x1="629.4" y1="243.2" x2="650.2" y2="243.2"/>
			<line class="st3" x1="642.9" y1="252.1" x2="650.2" y2="252.1"/>
			<line class="st3" x1="629.4" y1="247.7" x2="632.5" y2="247.7"/>
			<line class="st3" x1="632.5" y1="247.7" x2="650.2" y2="247.7"/>
			<polygon class="st3" points="902.6,263.9 925.5,263.3 925.8,268.1 902.6,268.7 			"/>
			<polygon class="st3" points="902.3,259.1 925.5,258.6 925.5,263.3 902.6,263.9 			"/>
			<polygon class="st3" points="902.3,254.1 925.5,253.8 925.5,258.6 902.3,259.1 			"/>
			<polygon class="st3" points="902.3,249.3 925.3,249.1 925.5,253.8 902.3,254.1 			"/>
			<polygon class="st3" points="902.3,244.6 925.3,244.3 925.3,249.1 902.3,249.3 			"/>
			<polygon class="st3" points="902.6,268.7 925.8,268.1 926.4,296.7 903.1,297 			"/>
			<path class="st5" d="M626.1,246.2h-6.2v22.9h6.2V246.2 M581.8,270v4.6h44.3V270H581.8 M619.1,269.1v-23.7h7v-12h-14.2v-2.1h14.2
				h3.3v72.1h74.4v-72.1h8.4v76.3h-84.7v0h-49.1v-2.1h47.6v-30.1h-44.3v12.8h-3.3v-56.9h3.3v12.2h13.5v-12.2h2.1v14.3h-15.6v23.5
				H619.1"/>
			<path class="st6" d="M626.1,246.2h-6.2v22.9h6.2V246.2 M581.8,270v4.6h44.3V270H581.8 M619.1,269.1v-23.7h7v-12h-14.2v-2.1h14.2
				h3.3v72.1h74.4v-72.1h8.4v76.3h-84.7v0h-49.1v-2.1h47.6v-30.1h-44.3v12.8h-3.3v-56.9h3.3v12.2h13.5v-12.2h2.1v14.3h-15.6v23.5
				H619.1"/>
			<polyline class="st5" points="486.3,317.1 477.6,317.1 477.6,250.5 486.3,250.5 486.3,317.1 			"/>
			<rect x="477.6" y="250.5" class="st6" width="8.7" height="66.7"/>
			<polyline class="st5" points="659.4,239.5 659.4,242.9 653.5,242.9 653.5,275.1 679.9,275.1 679.9,239.5 683.2,239.5 
				683.2,278.5 650.2,278.5 650.2,239.5 659.4,239.5 			"/>
			<polygon class="st6" points="659.4,239.5 659.4,242.9 653.5,242.9 653.5,275.1 679.9,275.1 679.9,239.5 683.2,239.5 683.2,278.5 
				650.2,278.5 650.2,239.5 			"/>
			<polyline class="st5" points="681.8,201.1 712.4,201.1 712.4,209.6 681.8,209.6 681.8,201.1 			"/>
			<rect x="681.8" y="201.1" class="st6" width="30.5" height="8.4"/>
			<polyline class="st5" points="642.9,365.9 642.9,374.6 616.3,374.6 616.3,365.9 627.5,365.9 627.5,324.7 630,324.7 630,365.9 
				642.9,365.9 			"/>
			<polygon class="st6" points="642.9,365.9 642.9,374.6 616.3,374.6 616.3,365.9 627.5,365.9 627.5,324.7 630,324.7 630,365.9 			
				"/>
			<polyline class="st5" points="555.5,294.4 535.9,294.4 535.9,291.4 538.1,291.4 538.1,292.5 555.5,292.5 555.5,282.7 
				538.1,282.7 538.1,283.8 535.9,283.8 535.9,280.4 558.3,280.4 558.3,365.9 568.9,365.9 568.9,374.6 542.6,374.6 542.6,365.9 
				555.5,365.9 555.5,294.4 			"/>
			<polygon class="st6" points="555.5,294.4 535.9,294.4 535.9,291.4 538.1,291.4 538.1,292.5 555.5,292.5 555.5,282.7 538.1,282.7 
				538.1,283.8 535.9,283.8 535.9,280.4 558.3,280.4 558.3,365.9 568.9,365.9 568.9,374.6 542.6,374.6 542.6,365.9 555.5,365.9 			
				"/>
			<polyline class="st5" points="580.7,209.6 534.2,209.6 534.2,201.1 580.7,201.1 580.7,209.6 			"/>
			<rect x="534.2" y="201.1" class="st6" width="46.5" height="8.4"/>
			<polyline class="st5" points="503.9,209.6 486.3,209.6 486.3,220.2 477.6,220.2 477.6,201.1 503.9,201.1 503.9,209.6 			"/>
			<polygon class="st6" points="503.9,209.6 486.3,209.6 486.3,220.2 477.6,220.2 477.6,201.1 503.9,201.1 			"/>
			<polyline class="st5" points="495.2,374.6 477.6,374.6 477.6,365.9 495.2,365.9 495.2,374.6 			"/>
			<rect x="477.6" y="365.9" class="st6" width="17.6" height="8.7"/>
			<polyline class="st5" points="703.9,365.9 703.9,339.3 712.4,339.3 712.4,374.6 690.2,374.6 690.2,365.9 703.9,365.9 			"/>
			<polygon class="st6" points="703.9,365.9 703.9,339.3 712.4,339.3 712.4,374.6 690.2,374.6 690.2,365.9 			"/>
			<polyline class="st5" points="651.6,209.6 610.9,209.6 610.9,201.1 651.6,201.1 651.6,209.6 			"/>
			<rect x="610.9" y="201.1" class="st6" width="40.6" height="8.4"/>
			<rect x="580.7" y="201.1" class="st4" width="30.3" height="8.4"/>
			<rect x="580.7" y="201.1" class="st3" width="30.3" height="8.4"/>
			<rect x="651.6" y="201.1" class="st4" width="30.3" height="8.4"/>
			<rect x="651.6" y="201.1" class="st3" width="30.3" height="8.4"/>
			<rect x="503.9" y="201.1" class="st4" width="30.3" height="8.4"/>
			<rect x="503.9" y="201.1" class="st3" width="30.3" height="8.4"/>
			<rect x="477.6" y="220.2" class="st4" width="8.7" height="30.3"/>
			<rect x="477.6" y="220.2" class="st3" width="8.7" height="30.3"/>
			<rect x="477.6" y="317.1" class="st4" width="8.7" height="48.7"/>
			<rect x="477.6" y="317.1" class="st3" width="8.7" height="48.7"/>
			<rect x="495.2" y="365.9" class="st4" width="47.3" height="8.7"/>
			<rect x="495.2" y="365.9" class="st3" width="47.3" height="8.7"/>
			<rect x="568.9" y="365.9" class="st4" width="47.3" height="8.7"/>
			<rect x="568.9" y="365.9" class="st3" width="47.3" height="8.7"/>
			<rect x="642.9" y="365.9" class="st4" width="47.3" height="8.7"/>
			<rect x="642.9" y="365.9" class="st3" width="47.3" height="8.7"/>
			<rect x="703.9" y="307.6" class="st4" width="8.4" height="31.7"/>
			<rect x="703.9" y="307.6" class="st3" width="8.4" height="31.7"/>
			<line class="st3" x1="681.8" y1="206.5" x2="651.6" y2="206.5"/>
			<line class="st3" x1="610.9" y1="206.5" x2="580.7" y2="206.5"/>
			<line class="st3" x1="534.2" y1="206.5" x2="503.9" y2="206.5"/>
			<line class="st3" x1="481.5" y1="220.2" x2="481.5" y2="250.5"/>
			<line class="st3" x1="481.5" y1="317.1" x2="481.5" y2="365.9"/>
			<line class="st3" x1="495.2" y1="370.6" x2="542.6" y2="370.6"/>
			<line class="st3" x1="568.9" y1="370.6" x2="616.3" y2="370.6"/>
			<line class="st3" x1="642.9" y1="370.6" x2="690.2" y2="370.6"/>
			<line class="st3" x1="708.4" y1="339.3" x2="708.4" y2="307.6"/>
			<line class="st3" x1="463.3" y1="388.8" x2="463.3" y2="387.4"/>
			<line class="st3" x1="463.3" y1="384.1" x2="463.3" y2="380.7"/>
			<line class="st3" x1="463.3" y1="377.4" x2="463.3" y2="374"/>
			<line class="st3" x1="463.3" y1="370.6" x2="463.3" y2="367.3"/>
			<line class="st3" x1="463.3" y1="363.9" x2="463.3" y2="360.5"/>
			<line class="st3" x1="463.3" y1="357.2" x2="463.3" y2="353.8"/>
			<line class="st3" x1="463.3" y1="350.5" x2="463.3" y2="347.1"/>
			<line class="st3" x1="463.3" y1="343.7" x2="463.3" y2="340.4"/>
			<line class="st3" x1="463.3" y1="337" x2="463.3" y2="333.7"/>
			<line class="st3" x1="463.3" y1="330.3" x2="463.3" y2="326.9"/>
			<line class="st3" x1="463.3" y1="323.6" x2="463.3" y2="320.2"/>
			<line class="st3" x1="463.3" y1="316.8" x2="463.3" y2="313.5"/>
			<line class="st3" x1="463.3" y1="310.1" x2="463.3" y2="306.8"/>
			<line class="st3" x1="463.3" y1="303.4" x2="463.3" y2="300"/>
			<line class="st3" x1="463.3" y1="296.7" x2="463.3" y2="293.3"/>
			<line class="st3" x1="463.3" y1="290" x2="463.3" y2="286.6"/>
			<line class="st3" x1="463.3" y1="283.2" x2="463.3" y2="279.9"/>
			<line class="st3" x1="463.3" y1="276.5" x2="463.3" y2="273.1"/>
			<line class="st3" x1="463.3" y1="269.8" x2="463.3" y2="266.4"/>
			<line class="st3" x1="463.3" y1="263.1" x2="463.3" y2="259.7"/>
			<line class="st3" x1="463.3" y1="256.3" x2="463.3" y2="253"/>
			<line class="st3" x1="463.3" y1="249.6" x2="463.3" y2="246.3"/>
			<line class="st3" x1="463.3" y1="242.9" x2="463.3" y2="239.5"/>
			<line class="st3" x1="463.3" y1="236.2" x2="463.3" y2="232.8"/>
			<line class="st3" x1="463.3" y1="229.4" x2="463.3" y2="226.1"/>
			<line class="st3" x1="463.3" y1="222.7" x2="463.3" y2="219.4"/>
			<line class="st3" x1="463.3" y1="216" x2="463.3" y2="212.6"/>
			<line class="st3" x1="463.3" y1="209.3" x2="463.3" y2="205.9"/>
			<line class="st3" x1="463.3" y1="202.5" x2="463.3" y2="201.1"/>
			<line class="st3" x1="726.6" y1="388.8" x2="726.6" y2="387.4"/>
			<line class="st3" x1="726.6" y1="384.1" x2="726.6" y2="380.7"/>
			<line class="st3" x1="726.6" y1="377.4" x2="726.6" y2="374"/>
			<line class="st3" x1="726.6" y1="370.6" x2="726.6" y2="367.3"/>
			<line class="st3" x1="726.6" y1="363.9" x2="726.6" y2="360.5"/>
			<line class="st3" x1="726.6" y1="357.2" x2="726.6" y2="353.8"/>
			<line class="st3" x1="726.6" y1="350.5" x2="726.6" y2="347.1"/>
			<line class="st3" x1="726.6" y1="343.7" x2="726.6" y2="340.4"/>
			<line class="st3" x1="726.6" y1="337" x2="726.6" y2="333.7"/>
			<line class="st3" x1="726.6" y1="330.3" x2="726.6" y2="326.9"/>
			<line class="st3" x1="726.6" y1="323.6" x2="726.6" y2="320.2"/>
			<line class="st3" x1="726.6" y1="316.8" x2="726.6" y2="313.5"/>
			<line class="st3" x1="726.6" y1="310.1" x2="726.6" y2="306.8"/>
			<line class="st3" x1="726.6" y1="303.4" x2="726.6" y2="300"/>
			<line class="st3" x1="726.6" y1="296.7" x2="726.6" y2="293.3"/>
			<line class="st3" x1="726.6" y1="290" x2="726.6" y2="286.6"/>
			<line class="st3" x1="726.6" y1="283.2" x2="726.6" y2="279.9"/>
			<line class="st3" x1="726.6" y1="276.5" x2="726.6" y2="273.1"/>
			<line class="st3" x1="726.6" y1="269.8" x2="726.6" y2="266.4"/>
			<line class="st3" x1="726.6" y1="263.1" x2="726.6" y2="259.7"/>
			<line class="st3" x1="726.6" y1="256.3" x2="726.6" y2="253"/>
			<line class="st3" x1="726.6" y1="249.6" x2="726.6" y2="246.3"/>
			<line class="st3" x1="726.6" y1="242.9" x2="726.6" y2="239.5"/>
			<line class="st3" x1="726.6" y1="236.2" x2="726.6" y2="232.8"/>
			<line class="st3" x1="726.6" y1="229.4" x2="726.6" y2="226.1"/>
			<line class="st3" x1="726.6" y1="222.7" x2="726.6" y2="219.4"/>
			<line class="st3" x1="726.6" y1="216" x2="726.6" y2="212.6"/>
			<line class="st3" x1="726.6" y1="209.3" x2="726.6" y2="205.9"/>
			<line class="st3" x1="726.6" y1="202.5" x2="726.6" y2="201.1"/>
			<line class="st3" x1="726.6" y1="201.1" x2="724.7" y2="201.1"/>
			<line class="st3" x1="721.3" y1="201.1" x2="718" y2="201.1"/>
			<line class="st3" x1="714.6" y1="201.1" x2="712.4" y2="201.1"/>
			<path class="st3" d="M643.4,388.8H465.3H643.4z"/>
			<path class="st3" d="M838.7,388.8H643.4H838.7z"/>
			<path class="st3" d="M465.3,388.8h-62.5H465.3z"/>
			<polyline class="st3" points="1093.9,484.9 252.4,486.6 252.4,281.8 253.2,112.9 291.3,114.9 517.1,119.9 526.6,120.5 
				743.7,129.2 1132,142.6 			"/>
			<rect x="798.9" y="175.7" class="st3" width="31.1" height="25.5"/>
			<line class="st2" x1="918.5" y1="406.2" x2="918.5" y2="388.8"/>
			<line class="st2" x1="910.4" y1="406.2" x2="910.4" y2="388.8"/>
			<line class="st2" x1="902" y1="406.2" x2="902" y2="388.8"/>
			<line class="st2" x1="893.9" y1="406.2" x2="893.9" y2="388.8"/>
			<line class="st2" x1="885.5" y1="406.2" x2="885.5" y2="388.8"/>
			<line class="st2" x1="877.4" y1="406.2" x2="877.4" y2="388.8"/>
			<line class="st2" x1="868.9" y1="406.2" x2="868.9" y2="388.8"/>
			<line class="st2" x1="860.8" y1="406.2" x2="860.8" y2="388.8"/>
			<line class="st2" x1="852.4" y1="406.2" x2="852.4" y2="388.8"/>
			<line class="st2" x1="844.3" y1="406.2" x2="844.3" y2="388.8"/>
			<line class="st2" x1="835.9" y1="406.2" x2="835.9" y2="388.8"/>
			<line class="st2" x1="827.8" y1="406.2" x2="827.8" y2="388.8"/>
			<line class="st2" x1="819.4" y1="406.2" x2="819.4" y2="388.8"/>
			<line class="st2" x1="811" y1="406.2" x2="811" y2="388.8"/>
			<line class="st2" x1="802.8" y1="406.2" x2="802.8" y2="388.8"/>
			<line class="st2" x1="794.4" y1="406.2" x2="794.4" y2="388.8"/>
			<line class="st2" x1="786.3" y1="406.2" x2="786.3" y2="388.8"/>
			<line class="st2" x1="777.9" y1="406.2" x2="777.9" y2="388.8"/>
			<line class="st2" x1="769.8" y1="406.2" x2="769.8" y2="388.8"/>
			<line class="st2" x1="761.4" y1="406.2" x2="761.4" y2="388.8"/>
			<line class="st2" x1="753.3" y1="406.2" x2="753.3" y2="388.8"/>
			<line class="st2" x1="744.8" y1="406.2" x2="744.8" y2="388.8"/>
			<line class="st2" x1="736.7" y1="406.2" x2="736.7" y2="388.8"/>
			<line class="st2" x1="728.3" y1="406.2" x2="728.3" y2="388.8"/>
			<line class="st2" x1="720.2" y1="406.2" x2="720.2" y2="388.8"/>
			<line class="st2" x1="717.1" y1="402.3" x2="919.4" y2="402.3"/>
			<line class="st2" x1="717.1" y1="393.9" x2="919.4" y2="393.9"/>
			<polygon class="st3" points="717.1,406.2 919.4,406.2 919.4,388.8 838.7,388.8 717.1,388.8 			"/>
			<line class="st3" x1="170" y1="486.6" x2="251.5" y2="486.6"/>
			<line class="st3" x1="291.6" y1="630.6" x2="288.2" y2="572.1"/>
			<line class="st3" x1="170" y1="110.7" x2="253.2" y2="112.9"/>
			<line class="st3" x1="287.9" y1="40.3" x2="291.3" y2="114.9"/>
			<line class="st3" x1="513.2" y1="40.3" x2="517.1" y2="119.9"/>
			<line class="st3" x1="739.2" y1="40.3" x2="743.7" y2="129.2"/>
			<line class="st3" x1="698.1" y1="421.6" x2="677.3" y2="421.6"/>
			<line class="st3" x1="698.1" y1="417.1" x2="677.3" y2="417.1"/>
			<line class="st3" x1="698.1" y1="412.4" x2="677.3" y2="412.4"/>
			<line class="st3" x1="698.1" y1="407.6" x2="677.3" y2="407.6"/>
			<line class="st3" x1="698.1" y1="402.8" x2="677.3" y2="402.8"/>
			<line class="st3" x1="698.1" y1="398.1" x2="677.3" y2="398.1"/>
			<line class="st3" x1="698.1" y1="393.3" x2="677.3" y2="393.3"/>
			<line class="st3" x1="798.9" y1="189.1" x2="830" y2="189.1"/>
			<line class="st3" x1="798.9" y1="184.6" x2="830" y2="184.6"/>
			<line class="st3" x1="798.9" y1="180.1" x2="830" y2="180.1"/>
			<polygon class="st3" points="923.3,388.8 919.4,388.8 919.4,423.6 702.3,423.6 702.3,388.8 698.1,388.8 698.1,427.8 923.3,427.8 
							"/>
			<rect x="677.3" y="388.8" class="st3" width="20.7" height="32.8"/>
			<line class="st3" x1="322.7" y1="427.8" x2="251.8" y2="427.8"/>
			<line class="st3" x1="256.6" y1="370.6" x2="256.6" y2="427.8"/>
			<path class="st4" d="M839.9,566.8l3.3,0l0.8,72.4l-3.3,0l-0.8-68.8L288.2,572l-129.1,0.5c-8.7,0.2-17.1,3.5-23.5,9.5
				c-7.4,6.8-11.5,16.5-11.3,26.6l1.1,30.5l-3.3,0.2l-1.2-30.6c-0.2-11,4.3-21.6,12.4-29.1c7-6.5,16.1-10.2,25.6-10.3l2,0l417.1-1.4
				l143.5-0.5L839.9,566.8L839.9,566.8"/>
			<path class="st3" d="M839.9,566.8l3.3,0l0.8,72.4l-3.3,0l-0.8-68.8L288.2,572l-129.1,0.5c-8.7,0.2-17.1,3.5-23.5,9.5
				c-7.4,6.8-11.5,16.5-11.3,26.6l1.1,30.5l-3.3,0.2l-1.2-30.6c-0.2-11,4.3-21.6,12.4-29.1c7-6.5,16.1-10.2,25.6-10.3l2,0l417.1-1.4
				l143.5-0.5L839.9,566.8L839.9,566.8"/>
			<line class="st3" x1="970.4" y1="136.4" x2="965.6" y2="40.3"/>
			<polyline class="st4" points="918.5,638.2 918.5,566.4 921.9,566.4 921.9,638.2 918.5,638.2 			"/>
			<rect x="918.5" y="566.4" class="st3" width="3.4" height="71.7"/>
			<polyline class="st3" points="698.1,427.8 698.1,452.7 1085.5,452.2 			"/>
			<polyline class="st3" points="635.3,427.8 635.3,453 426.9,453.3 426.9,427.8 			"/>
			<polyline class="st3" points="385.4,427.8 385.4,453.3 322.7,453.6 322.7,427.8 			"/>
			<polyline class="st3" points="160.8,486.6 168,353 199.1,353 			"/>
			<line class="st3" x1="91" y1="486.6" x2="160.8" y2="486.6"/>
			<path class="st4" d="M988,566.3L988,566.3c-4,0.2-7.8,1.8-10.7,4.5c-3.8,3.6-5.8,8.7-5.3,13.9l-0.4,53.4l3.3,0l0.4-53.9
				c-0.3-4.1,1.2-8.2,4.2-11c2.8-2.7,6.7-4,10.5-3.7l141.8-0.3v-3.3l-51.5,0.1l-90.7,0.2c0,0,0.1,0,0.1,0"/>
			<path class="st3" d="M988,566.3L988,566.3c-4,0.2-7.8,1.8-10.7,4.5c-3.8,3.6-5.8,8.7-5.3,13.9l-0.4,53.4l3.3,0l0.4-53.9
				c-0.3-4.1,1.2-8.2,4.2-11c2.8-2.7,6.7-4,10.5-3.7l141.8-0.3v-3.3l-51.5,0.1l-90.7,0.2c0,0,0.1,0,0.1,0"/>
			<polyline class="st7" points="1098.1,479.9 1132,479.9 1132,484.9 1093.9,484.9 1079.1,427.8 923.3,427.8 923.3,422.7 
				1083,422.7 1097.8,479.9 1098.1,479.9 			"/>
			<polygon class="st3" points="1098.1,479.9 1132,479.9 1132,484.9 1093.9,484.9 1079.1,427.8 923.3,427.8 923.3,422.7 1083,422.7 
				1097.8,479.9 			"/>
			<line class="st3" x1="921.9" y1="566.4" x2="989.7" y2="566.4"/>
			<line class="st3" x1="843.2" y1="566.7" x2="918.5" y2="566.4"/>
			<line class="st3" x1="161" y1="569.3" x2="91" y2="569.5"/>
			<polyline class="st4" points="922.5,732.9 921.9,638.2 840.7,639.3 841.8,732.9 922.5,732.9 			"/>
			<polygon class="st6" points="922.5,732.9 921.9,638.2 840.7,639.3 841.8,732.9 			"/>
			<polyline class="st4" points="148.7,637.9 122.4,639.3 126.6,732.9 357.4,732.9 352.4,627.5 291.6,630.6 257.7,632.3 
				148.7,637.9 			"/>
			<polygon class="st6" points="148.7,637.9 122.4,639.3 126.6,732.9 357.4,732.9 352.4,627.5 291.6,630.6 257.7,632.3 			"/>
			<polyline class="st6" points="168,353 124.1,282.1 168.6,211.8 			"/>
			<line class="st6" x1="297.5" y1="732.9" x2="291.6" y2="630.6"/>
			<line class="st6" x1="199.7" y1="635.1" x2="203.9" y2="732.9"/>
			<polyline class="st4" points="746.5,92.2 799.5,93.9 798.4,128.6 745.4,126.9 746.5,92.2 			"/>
			<polygon class="st6" points="746.5,92.2 799.5,93.9 798.4,128.6 745.4,126.9 			"/>
			<polyline class="st4" points="168,353 168.6,211.8 91,211.5 91,352.7 168,353 			"/>
			<polygon class="st6" points="168,353 168.6,211.8 91,211.5 91,352.7 			"/>
			<polyline class="st4" points="199.7,211.5 252.6,211.8 252.4,387.4 199.1,387.2 199.7,211.5 			"/>
			<polygon class="st6" points="199.7,211.5 252.6,211.8 252.4,387.4 199.1,387.2 			"/>
			<polyline class="st4" points="1132,381.3 1132,188.8 924.4,188.8 927.8,381.3 1132,381.3 			"/>
			<polygon class="st6" points="1132,381.3 1132,188.8 924.4,188.8 927.8,381.3 			"/>
			<polyline class="st4" points="971.8,638.2 971.8,732.9 1132,732.9 1132,637.9 971.8,638.2 			"/>
			<polygon class="st6" points="971.8,638.2 971.8,732.9 1132,732.9 1132,637.9 			"/>
			<line class="st6" x1="1132" y1="283.5" x2="926.1" y2="283.5"/>
			<rect x="566.7" y="307.9" class="st4" width="20.7" height="1.1"/>
			<rect x="566.7" y="307.9" class="st3" width="20.7" height="1.1"/>
			<polyline class="st4" points="326.6,370.6 252.4,370.6 252.4,368.7 326.6,368.7 326.6,370.6 			"/>
			<line class="st3" x1="326.6" y1="370.6" x2="324.6" y2="370.6"/>
			<line class="st3" x1="321.3" y1="370.6" x2="317.9" y2="370.6"/>
			<line class="st3" x1="314.6" y1="370.6" x2="311.2" y2="370.6"/>
			<line class="st3" x1="307.8" y1="370.6" x2="304.5" y2="370.6"/>
			<line class="st3" x1="301.1" y1="370.6" x2="297.7" y2="370.6"/>
			<line class="st3" x1="294.4" y1="370.6" x2="291" y2="370.6"/>
			<line class="st3" x1="287.7" y1="370.6" x2="284.3" y2="370.6"/>
			<line class="st3" x1="280.9" y1="370.6" x2="277.6" y2="370.6"/>
			<line class="st3" x1="274.2" y1="370.6" x2="270.9" y2="370.6"/>
			<line class="st3" x1="267.5" y1="370.6" x2="264.1" y2="370.6"/>
			<line class="st3" x1="260.8" y1="370.6" x2="257.4" y2="370.6"/>
			<line class="st3" x1="254" y1="370.6" x2="252.4" y2="370.6"/>
			<line class="st3" x1="252.4" y1="370.6" x2="252.4" y2="369"/>
			<line class="st3" x1="252.4" y1="368.7" x2="254.3" y2="368.7"/>
			<line class="st3" x1="257.7" y1="368.7" x2="261" y2="368.7"/>
			<line class="st3" x1="264.4" y1="368.7" x2="267.8" y2="368.7"/>
			<line class="st3" x1="271.1" y1="368.7" x2="274.5" y2="368.7"/>
			<line class="st3" x1="277.9" y1="368.7" x2="281.2" y2="368.7"/>
			<line class="st3" x1="284.6" y1="368.7" x2="287.9" y2="368.7"/>
			<line class="st3" x1="291.3" y1="368.7" x2="294.7" y2="368.7"/>
			<line class="st3" x1="298" y1="368.7" x2="301.4" y2="368.7"/>
			<line class="st3" x1="304.7" y1="368.7" x2="308.1" y2="368.7"/>
			<line class="st3" x1="311.5" y1="368.7" x2="314.8" y2="368.7"/>
			<line class="st3" x1="318.2" y1="368.7" x2="321.6" y2="368.7"/>
			<line class="st3" x1="324.9" y1="368.7" x2="326.6" y2="368.7"/>
			<line class="st3" x1="326.6" y1="368.7" x2="326.6" y2="370.4"/>
			<polyline class="st4" points="326.6,289.7 252.4,289.7 252.4,287.7 326.6,287.7 326.6,289.7 			"/>
			<line class="st3" x1="326.6" y1="289.7" x2="324.6" y2="289.7"/>
			<line class="st3" x1="321.3" y1="289.7" x2="317.9" y2="289.7"/>
			<line class="st3" x1="314.6" y1="289.7" x2="311.2" y2="289.7"/>
			<line class="st3" x1="307.8" y1="289.7" x2="304.5" y2="289.7"/>
			<line class="st3" x1="301.1" y1="289.7" x2="297.7" y2="289.7"/>
			<line class="st3" x1="294.4" y1="289.7" x2="291" y2="289.7"/>
			<line class="st3" x1="287.7" y1="289.7" x2="284.3" y2="289.7"/>
			<line class="st3" x1="280.9" y1="289.7" x2="277.6" y2="289.7"/>
			<line class="st3" x1="274.2" y1="289.7" x2="270.9" y2="289.7"/>
			<line class="st3" x1="267.5" y1="289.7" x2="264.1" y2="289.7"/>
			<line class="st3" x1="260.8" y1="289.7" x2="257.4" y2="289.7"/>
			<line class="st3" x1="254" y1="289.7" x2="252.4" y2="289.7"/>
			<line class="st3" x1="252.4" y1="289.7" x2="252.4" y2="288"/>
			<line class="st3" x1="252.4" y1="287.7" x2="254.3" y2="287.7"/>
			<line class="st3" x1="257.7" y1="287.7" x2="261" y2="287.7"/>
			<line class="st3" x1="264.4" y1="287.7" x2="267.8" y2="287.7"/>
			<line class="st3" x1="271.1" y1="287.7" x2="274.5" y2="287.7"/>
			<line class="st3" x1="277.9" y1="287.7" x2="281.2" y2="287.7"/>
			<line class="st3" x1="284.6" y1="287.7" x2="287.9" y2="287.7"/>
			<line class="st3" x1="291.3" y1="287.7" x2="294.7" y2="287.7"/>
			<line class="st3" x1="298" y1="287.7" x2="301.4" y2="287.7"/>
			<line class="st3" x1="304.7" y1="287.7" x2="308.1" y2="287.7"/>
			<line class="st3" x1="311.5" y1="287.7" x2="314.8" y2="287.7"/>
			<line class="st3" x1="318.2" y1="287.7" x2="321.6" y2="287.7"/>
			<line class="st3" x1="324.9" y1="287.7" x2="326.6" y2="287.7"/>
			<line class="st3" x1="326.6" y1="287.7" x2="326.6" y2="289.4"/>
			<polyline class="st4" points="326.6,305.9 252.4,305.9 252.4,304 326.6,304 326.6,305.9 			"/>
			<line class="st3" x1="326.6" y1="305.9" x2="324.6" y2="305.9"/>
			<line class="st3" x1="321.3" y1="305.9" x2="317.9" y2="305.9"/>
			<line class="st3" x1="314.6" y1="305.9" x2="311.2" y2="305.9"/>
			<line class="st3" x1="307.8" y1="305.9" x2="304.5" y2="305.9"/>
			<line class="st3" x1="301.1" y1="305.9" x2="297.7" y2="305.9"/>
			<line class="st3" x1="294.4" y1="305.9" x2="291" y2="305.9"/>
			<line class="st3" x1="287.7" y1="305.9" x2="284.3" y2="305.9"/>
			<line class="st3" x1="280.9" y1="305.9" x2="277.6" y2="305.9"/>
			<line class="st3" x1="274.2" y1="305.9" x2="270.9" y2="305.9"/>
			<line class="st3" x1="267.5" y1="305.9" x2="264.1" y2="305.9"/>
			<line class="st3" x1="260.8" y1="305.9" x2="257.4" y2="305.9"/>
			<line class="st3" x1="254" y1="305.9" x2="252.4" y2="305.9"/>
			<line class="st3" x1="252.4" y1="305.9" x2="252.4" y2="304.2"/>
			<line class="st3" x1="252.4" y1="304" x2="254.3" y2="304"/>
			<line class="st3" x1="257.7" y1="304" x2="261" y2="304"/>
			<line class="st3" x1="264.4" y1="304" x2="267.8" y2="304"/>
			<line class="st3" x1="271.1" y1="304" x2="274.5" y2="304"/>
			<line class="st3" x1="277.9" y1="304" x2="281.2" y2="304"/>
			<line class="st3" x1="284.6" y1="304" x2="287.9" y2="304"/>
			<line class="st3" x1="291.3" y1="304" x2="294.7" y2="304"/>
			<line class="st3" x1="298" y1="304" x2="301.4" y2="304"/>
			<line class="st3" x1="304.7" y1="304" x2="308.1" y2="304"/>
			<line class="st3" x1="311.5" y1="304" x2="314.8" y2="304"/>
			<line class="st3" x1="318.2" y1="304" x2="321.6" y2="304"/>
			<line class="st3" x1="324.9" y1="304" x2="326.6" y2="304"/>
			<line class="st3" x1="326.6" y1="304" x2="326.6" y2="305.6"/>
			<polyline class="st4" points="326.6,321.9 252.4,321.9 252.4,319.9 326.6,319.9 326.6,321.9 			"/>
			<line class="st3" x1="326.6" y1="321.9" x2="324.6" y2="321.9"/>
			<line class="st3" x1="321.3" y1="321.9" x2="317.9" y2="321.9"/>
			<line class="st3" x1="314.6" y1="321.9" x2="311.2" y2="321.9"/>
			<line class="st3" x1="307.8" y1="321.9" x2="304.5" y2="321.9"/>
			<line class="st3" x1="301.1" y1="321.9" x2="297.7" y2="321.9"/>
			<line class="st3" x1="294.4" y1="321.9" x2="291" y2="321.9"/>
			<line class="st3" x1="287.7" y1="321.9" x2="284.3" y2="321.9"/>
			<line class="st3" x1="280.9" y1="321.9" x2="277.6" y2="321.9"/>
			<line class="st3" x1="274.2" y1="321.9" x2="270.9" y2="321.9"/>
			<line class="st3" x1="267.5" y1="321.9" x2="264.1" y2="321.9"/>
			<line class="st3" x1="260.8" y1="321.9" x2="257.4" y2="321.9"/>
			<line class="st3" x1="254" y1="321.9" x2="252.4" y2="321.9"/>
			<line class="st3" x1="252.4" y1="321.9" x2="252.4" y2="320.2"/>
			<line class="st3" x1="252.4" y1="319.9" x2="254.3" y2="319.9"/>
			<line class="st3" x1="257.7" y1="319.9" x2="261" y2="319.9"/>
			<line class="st3" x1="264.4" y1="319.9" x2="267.8" y2="319.9"/>
			<line class="st3" x1="271.1" y1="319.9" x2="274.5" y2="319.9"/>
			<line class="st3" x1="277.9" y1="319.9" x2="281.2" y2="319.9"/>
			<line class="st3" x1="284.6" y1="319.9" x2="287.9" y2="319.9"/>
			<line class="st3" x1="291.3" y1="319.9" x2="294.7" y2="319.9"/>
			<line class="st3" x1="298" y1="319.9" x2="301.4" y2="319.9"/>
			<line class="st3" x1="304.7" y1="319.9" x2="308.1" y2="319.9"/>
			<line class="st3" x1="311.5" y1="319.9" x2="314.8" y2="319.9"/>
			<line class="st3" x1="318.2" y1="319.9" x2="321.6" y2="319.9"/>
			<line class="st3" x1="324.9" y1="319.9" x2="326.6" y2="319.9"/>
			<line class="st3" x1="326.6" y1="319.9" x2="326.6" y2="321.6"/>
			<polyline class="st4" points="326.6,338.1 252.4,338.1 252.4,336.2 326.6,336.2 326.6,338.1 			"/>
			<line class="st3" x1="326.6" y1="338.1" x2="324.6" y2="338.1"/>
			<line class="st3" x1="321.3" y1="338.1" x2="317.9" y2="338.1"/>
			<line class="st3" x1="314.6" y1="338.1" x2="311.2" y2="338.1"/>
			<line class="st3" x1="307.8" y1="338.1" x2="304.5" y2="338.1"/>
			<line class="st3" x1="301.1" y1="338.1" x2="297.7" y2="338.1"/>
			<line class="st3" x1="294.4" y1="338.1" x2="291" y2="338.1"/>
			<line class="st3" x1="287.7" y1="338.1" x2="284.3" y2="338.1"/>
			<line class="st3" x1="280.9" y1="338.1" x2="277.6" y2="338.1"/>
			<line class="st3" x1="274.2" y1="338.1" x2="270.9" y2="338.1"/>
			<line class="st3" x1="267.5" y1="338.1" x2="264.1" y2="338.1"/>
			<line class="st3" x1="260.8" y1="338.1" x2="257.4" y2="338.1"/>
			<line class="st3" x1="254" y1="338.1" x2="252.4" y2="338.1"/>
			<line class="st3" x1="252.4" y1="338.1" x2="252.4" y2="336.5"/>
			<line class="st3" x1="252.4" y1="336.2" x2="254.3" y2="336.2"/>
			<line class="st3" x1="257.7" y1="336.2" x2="261" y2="336.2"/>
			<line class="st3" x1="264.4" y1="336.2" x2="267.8" y2="336.2"/>
			<line class="st3" x1="271.1" y1="336.2" x2="274.5" y2="336.2"/>
			<line class="st3" x1="277.9" y1="336.2" x2="281.2" y2="336.2"/>
			<line class="st3" x1="284.6" y1="336.2" x2="287.9" y2="336.2"/>
			<line class="st3" x1="291.3" y1="336.2" x2="294.7" y2="336.2"/>
			<line class="st3" x1="298" y1="336.2" x2="301.4" y2="336.2"/>
			<line class="st3" x1="304.7" y1="336.2" x2="308.1" y2="336.2"/>
			<line class="st3" x1="311.5" y1="336.2" x2="314.8" y2="336.2"/>
			<line class="st3" x1="318.2" y1="336.2" x2="321.6" y2="336.2"/>
			<line class="st3" x1="324.9" y1="336.2" x2="326.6" y2="336.2"/>
			<line class="st3" x1="326.6" y1="336.2" x2="326.6" y2="337.9"/>
			<polyline class="st4" points="326.6,354.4 252.4,354.4 252.4,352.1 326.6,352.1 326.6,354.4 			"/>
			<line class="st3" x1="326.6" y1="354.4" x2="324.6" y2="354.4"/>
			<line class="st3" x1="321.3" y1="354.4" x2="317.9" y2="354.4"/>
			<line class="st3" x1="314.6" y1="354.4" x2="311.2" y2="354.4"/>
			<line class="st3" x1="307.8" y1="354.4" x2="304.5" y2="354.4"/>
			<line class="st3" x1="301.1" y1="354.4" x2="297.7" y2="354.4"/>
			<line class="st3" x1="294.4" y1="354.4" x2="291" y2="354.4"/>
			<line class="st3" x1="287.7" y1="354.4" x2="284.3" y2="354.4"/>
			<line class="st3" x1="280.9" y1="354.4" x2="277.6" y2="354.4"/>
			<line class="st3" x1="274.2" y1="354.4" x2="270.9" y2="354.4"/>
			<line class="st3" x1="267.5" y1="354.4" x2="264.1" y2="354.4"/>
			<line class="st3" x1="260.8" y1="354.4" x2="257.4" y2="354.4"/>
			<line class="st3" x1="254" y1="354.4" x2="252.4" y2="354.4"/>
			<line class="st3" x1="252.4" y1="354.4" x2="252.4" y2="352.7"/>
			<line class="st3" x1="252.4" y1="352.1" x2="254.3" y2="352.1"/>
			<line class="st3" x1="257.7" y1="352.1" x2="261" y2="352.1"/>
			<line class="st3" x1="264.4" y1="352.1" x2="267.8" y2="352.1"/>
			<line class="st3" x1="271.1" y1="352.1" x2="274.5" y2="352.1"/>
			<line class="st3" x1="277.9" y1="352.1" x2="281.2" y2="352.1"/>
			<line class="st3" x1="284.6" y1="352.1" x2="287.9" y2="352.1"/>
			<line class="st3" x1="291.3" y1="352.1" x2="294.7" y2="352.1"/>
			<line class="st3" x1="298" y1="352.1" x2="301.4" y2="352.1"/>
			<line class="st3" x1="304.7" y1="352.1" x2="308.1" y2="352.1"/>
			<line class="st3" x1="311.5" y1="352.1" x2="314.8" y2="352.1"/>
			<line class="st3" x1="318.2" y1="352.1" x2="321.6" y2="352.1"/>
			<line class="st3" x1="324.9" y1="352.1" x2="326.6" y2="352.1"/>
			<line class="st3" x1="326.6" y1="352.1" x2="326.6" y2="353.8"/>
			<line class="st3" x1="582.9" y1="231.4" x2="582.9" y2="238.1"/>
			<line class="st3" x1="583.2" y1="231.4" x2="584.6" y2="238.1"/>
			<line class="st3" x1="585.4" y1="231.4" x2="585.4" y2="238.1"/>
			<line class="st3" x1="587.1" y1="231.4" x2="587.1" y2="238.1"/>
			<line class="st3" x1="588.5" y1="231.4" x2="588" y2="238.1"/>
			<line class="st3" x1="590.2" y1="231.4" x2="590.2" y2="238.1"/>
			<line class="st3" x1="591.9" y1="231.4" x2="591.9" y2="238.1"/>
			<line class="st3" x1="593.6" y1="231.4" x2="593.6" y2="238.1"/>
			<polyline class="st4" points="544.5,294.4 555.5,294.4 555.5,365.9 544.5,365.9 544.5,294.4 			"/>
			<rect x="544.5" y="294.4" class="st3" width="10.9" height="71.4"/>
			<polyline class="st4" points="544.5,294.4 555.5,294.4 555.5,315.4 544.5,315.4 544.5,294.4 			"/>
			<rect x="544.5" y="294.4" class="st3" width="10.9" height="21"/>
			<polyline class="st4" points="546.5,346.8 553,346.8 553,353.5 546.5,353.5 546.5,346.8 			"/>
			<rect x="546.5" y="346.8" class="st3" width="6.4" height="6.7"/>
			<path class="st4" d="M548.7,332.4c0-0.7-0.6-1.3-1.3-1.3s-1.3,0.6-1.3,1.3c0,0.7,0.6,1.3,1.3,1.3S548.7,333.1,548.7,332.4"/>
			<path class="st3" d="M548.7,332.4c0-0.7-0.6-1.3-1.3-1.3s-1.3,0.6-1.3,1.3c0,0.7,0.6,1.3,1.3,1.3S548.7,333.1,548.7,332.4"/>
			<path class="st4" d="M548.7,327.9c0-0.7-0.6-1.3-1.3-1.3s-1.3,0.6-1.3,1.3c0,0.7,0.6,1.3,1.3,1.3S548.7,328.6,548.7,327.9"/>
			<path class="st3" d="M548.7,327.9c0-0.7-0.6-1.3-1.3-1.3s-1.3,0.6-1.3,1.3c0,0.7,0.6,1.3,1.3,1.3S548.7,328.6,548.7,327.9"/>
			<path class="st4" d="M553.8,327.9c0-0.7-0.6-1.3-1.3-1.3c-0.7,0-1.3,0.6-1.3,1.3c0,0.7,0.6,1.3,1.3,1.3
				C553.2,329.2,553.8,328.6,553.8,327.9"/>
			<path class="st3" d="M553.8,327.9c0-0.7-0.6-1.3-1.3-1.3c-0.7,0-1.3,0.6-1.3,1.3c0,0.7,0.6,1.3,1.3,1.3
				C553.2,329.2,553.8,328.6,553.8,327.9"/>
			<path class="st4" d="M553.8,332.4c0-0.7-0.6-1.3-1.3-1.3c-0.7,0-1.3,0.6-1.3,1.3c0,0.7,0.6,1.3,1.3,1.3
				C553.2,333.7,553.8,333.1,553.8,332.4"/>
			<path class="st3" d="M553.8,332.4c0-0.7-0.6-1.3-1.3-1.3c-0.7,0-1.3,0.6-1.3,1.3c0,0.7,0.6,1.3,1.3,1.3
				C553.2,333.7,553.8,333.1,553.8,332.4"/>
			<polyline class="st4" points="614.6,244 614.6,234.2 624.1,234.2 624.1,244 614.6,244 			"/>
			<rect x="614.6" y="234.2" class="st3" width="9.5" height="9.8"/>
			<polyline class="st3" points="544.5,297.8 522.4,297.8 522.4,277.1 558.3,277.1 558.3,280.4 			"/>
			<rect x="654.4" y="243.7" class="st4" width="24.7" height="30.5"/>
			<rect x="654.4" y="243.7" class="st3" width="24.7" height="30.5"/>
			<polyline class="st4" points="506.7,357.2 506.7,349.9 499.2,349.9 499.2,357.2 506.7,357.2 			"/>
			<rect x="499.2" y="349.9" class="st3" width="7.6" height="7.3"/>
			<polyline class="st4" points="506.7,347.4 506.7,339.8 499.2,339.8 499.2,347.4 506.7,347.4 			"/>
			<rect x="499.2" y="339.8" class="st3" width="7.6" height="7.6"/>
			<polyline class="st4" points="506.7,337.6 506.7,330 499.2,330 499.2,337.6 506.7,337.6 			"/>
			<rect x="499.2" y="330" class="st3" width="7.6" height="7.6"/>
			<polyline class="st4" points="527.5,357.2 527.5,349.9 519.9,349.9 519.9,357.2 527.5,357.2 			"/>
			<rect x="519.9" y="349.9" class="st3" width="7.6" height="7.3"/>
			<polyline class="st4" points="527.5,347.4 527.5,339.8 519.9,339.8 519.9,347.4 527.5,347.4 			"/>
			<rect x="519.9" y="339.8" class="st3" width="7.6" height="7.6"/>
			<polyline class="st4" points="527.5,337.6 527.5,330 519.9,330 519.9,337.6 527.5,337.6 			"/>
			<rect x="519.9" y="330" class="st3" width="7.6" height="7.6"/>
			<polyline class="st4" points="519.9,360.3 519.9,327.2 506.7,327.2 506.7,360.3 519.9,360.3 			"/>
			<rect x="506.7" y="327.2" class="st3" width="13.2" height="33.1"/>
			<rect x="526.3" y="283.5" class="st4" width="9.5" height="7.8"/>
			<rect x="526.3" y="283.5" class="st3" width="9.5" height="7.8"/>
			<rect x="535.9" y="283.8" class="st3" width="2.2" height="7.6"/>
			<line class="st3" x1="597.2" y1="245.7" x2="597.2" y2="269.2"/>
			<polyline class="st3" points="923.3,388.8 923.3,367.8 927.5,367.8 			"/>
			<line class="st3" x1="744.8" y1="374.6" x2="923.3" y2="374.6"/>
			<path class="st3" d="M322.8,272.4L322.8,272.4c0-2.5,0.1-5,0.4-7.5c0.3-2.5,0.7-5,1.3-7.4c0.6-2.4,1.3-4.8,2.1-7.2
				c0.8-2.4,1.8-4.7,2.9-6.9l-52.1-37.8c-13.6,19.4-20.8,42.6-20.8,66.3v98.8h-4.1v-98.9c0.1-66.2,53.7-119.8,119.9-119.9h257v49.5
				h-4.1v-45.3H372.4c-36.1,0.1-70.1,16.9-92,45.6l54.9,39.9c-1.3,2.2-2.4,4.4-3.4,6.8c-1,2.3-1.8,4.7-2.5,7.1
				c-0.7,2.4-1.3,4.9-1.6,7.4c-0.4,2.5-0.6,5-0.7,7.5c0,0.2,0,0.4,0,0.6c0,0.2,0,0.4,0,0.6c0,0.2,0,0.4,0,0.6c0,0.2,0,0.4,0,0.6
				v151.1h304.2v-49.1h4.1v53.3H322.8v-4.1V272.4L322.8,272.4"/>
			<polyline class="st4" points="326.6,273.7 252.4,273.7 252.4,271.7 326.6,271.7 326.6,273.7 			"/>
			<line class="st3" x1="326.6" y1="273.7" x2="324.6" y2="273.7"/>
			<line class="st3" x1="321.3" y1="273.7" x2="317.9" y2="273.7"/>
			<line class="st3" x1="314.6" y1="273.7" x2="311.2" y2="273.7"/>
			<line class="st3" x1="307.8" y1="273.7" x2="304.5" y2="273.7"/>
			<line class="st3" x1="301.1" y1="273.7" x2="297.7" y2="273.7"/>
			<line class="st3" x1="294.4" y1="273.7" x2="291" y2="273.7"/>
			<line class="st3" x1="287.7" y1="273.7" x2="284.3" y2="273.7"/>
			<line class="st3" x1="280.9" y1="273.7" x2="277.6" y2="273.7"/>
			<line class="st3" x1="274.2" y1="273.7" x2="270.9" y2="273.7"/>
			<line class="st3" x1="267.5" y1="273.7" x2="264.1" y2="273.7"/>
			<line class="st3" x1="260.8" y1="273.7" x2="257.4" y2="273.7"/>
			<line class="st3" x1="254" y1="273.7" x2="252.4" y2="273.7"/>
			<line class="st3" x1="252.4" y1="273.7" x2="252.4" y2="272"/>
			<line class="st3" x1="252.4" y1="271.7" x2="254.3" y2="271.7"/>
			<line class="st3" x1="257.7" y1="271.7" x2="261" y2="271.7"/>
			<line class="st3" x1="264.4" y1="271.7" x2="267.8" y2="271.7"/>
			<line class="st3" x1="271.1" y1="271.7" x2="274.5" y2="271.7"/>
			<line class="st3" x1="277.9" y1="271.7" x2="281.2" y2="271.7"/>
			<line class="st3" x1="284.6" y1="271.7" x2="287.9" y2="271.7"/>
			<line class="st3" x1="291.3" y1="271.7" x2="294.7" y2="271.7"/>
			<line class="st3" x1="298" y1="271.7" x2="301.4" y2="271.7"/>
			<line class="st3" x1="304.7" y1="271.7" x2="308.1" y2="271.7"/>
			<line class="st3" x1="311.5" y1="271.7" x2="314.8" y2="271.7"/>
			<line class="st3" x1="318.2" y1="271.7" x2="321.6" y2="271.7"/>
			<line class="st3" x1="324.9" y1="271.7" x2="326.6" y2="271.7"/>
			<line class="st3" x1="326.6" y1="271.7" x2="326.6" y2="273.4"/>
			<polyline class="st4" points="326.9,267.5 253.2,257.7 253.5,255.8 327.2,265.6 326.9,267.5 			"/>
			<line class="st3" x1="326.9" y1="267.5" x2="324.9" y2="267.3"/>
			<line class="st3" x1="321.6" y1="266.7" x2="318.2" y2="266.4"/>
			<line class="st3" x1="314.8" y1="265.9" x2="311.5" y2="265.6"/>
			<line class="st3" x1="308.4" y1="265" x2="305" y2="264.7"/>
			<line class="st3" x1="301.7" y1="264.2" x2="298.3" y2="263.6"/>
			<line class="st3" x1="294.9" y1="263.3" x2="291.6" y2="262.8"/>
			<line class="st3" x1="288.2" y1="262.5" x2="284.9" y2="261.9"/>
			<line class="st3" x1="281.5" y1="261.4" x2="278.4" y2="261.1"/>
			<line class="st3" x1="275.1" y1="260.5" x2="271.7" y2="260.3"/>
			<line class="st3" x1="268.3" y1="259.7" x2="265" y2="259.4"/>
			<line class="st3" x1="261.6" y1="258.9" x2="258.2" y2="258.3"/>
			<line class="st3" x1="254.9" y1="258" x2="253.2" y2="257.7"/>
			<line class="st3" x1="253.2" y1="257.7" x2="253.5" y2="256.1"/>
			<line class="st3" x1="253.5" y1="255.8" x2="255.4" y2="256.1"/>
			<line class="st3" x1="258.8" y1="256.6" x2="262.2" y2="256.9"/>
			<line class="st3" x1="265.5" y1="257.5" x2="268.9" y2="257.7"/>
			<line class="st3" x1="272" y1="258.3" x2="275.3" y2="258.6"/>
			<line class="st3" x1="278.7" y1="259.1" x2="282.1" y2="259.7"/>
			<line class="st3" x1="285.4" y1="260" x2="288.8" y2="260.5"/>
			<line class="st3" x1="292.1" y1="260.8" x2="295.5" y2="261.4"/>
			<line class="st3" x1="298.9" y1="261.9" x2="301.9" y2="262.2"/>
			<line class="st3" x1="305.3" y1="262.8" x2="308.7" y2="263.1"/>
			<line class="st3" x1="312" y1="263.6" x2="315.4" y2="263.9"/>
			<line class="st3" x1="318.8" y1="264.5" x2="322.1" y2="265"/>
			<line class="st3" x1="325.5" y1="265.3" x2="327.2" y2="265.6"/>
			<line class="st3" x1="327.2" y1="265.6" x2="326.9" y2="267.3"/>
			<polyline class="st4" points="327.7,261.1 256.6,241.2 257.1,239.2 328,259.1 327.7,261.1 			"/>
			<line class="st3" x1="327.7" y1="261.1" x2="326" y2="260.5"/>
			<line class="st3" x1="323" y1="259.7" x2="319.6" y2="258.9"/>
			<line class="st3" x1="316.5" y1="258" x2="313.2" y2="256.9"/>
			<line class="st3" x1="309.8" y1="256.1" x2="306.7" y2="255.2"/>
			<line class="st3" x1="303.3" y1="254.4" x2="300.3" y2="253.5"/>
			<line class="st3" x1="296.9" y1="252.4" x2="293.8" y2="251.6"/>
			<line class="st3" x1="290.5" y1="250.7" x2="287.4" y2="249.9"/>
			<line class="st3" x1="284" y1="248.8" x2="280.7" y2="247.9"/>
			<line class="st3" x1="277.6" y1="247.1" x2="274.2" y2="246.3"/>
			<line class="st3" x1="271.1" y1="245.1" x2="267.8" y2="244.3"/>
			<line class="st3" x1="264.7" y1="243.4" x2="261.3" y2="242.6"/>
			<line class="st3" x1="258.2" y1="241.8" x2="256.6" y2="241.2"/>
			<line class="st3" x1="256.6" y1="241.2" x2="257.1" y2="239.8"/>
			<line class="st3" x1="257.1" y1="239.2" x2="258.5" y2="239.5"/>
			<line class="st3" x1="261.6" y1="240.6" x2="265" y2="241.5"/>
			<line class="st3" x1="268" y1="242.3" x2="271.4" y2="243.2"/>
			<line class="st3" x1="274.8" y1="244.3" x2="277.9" y2="245.1"/>
			<line class="st3" x1="281.2" y1="246" x2="284.3" y2="246.8"/>
			<line class="st3" x1="287.7" y1="247.9" x2="290.7" y2="248.8"/>
			<line class="st3" x1="294.1" y1="249.6" x2="297.2" y2="250.5"/>
			<line class="st3" x1="300.5" y1="251.6" x2="303.9" y2="252.4"/>
			<line class="st3" x1="307" y1="253.3" x2="310.4" y2="254.1"/>
			<line class="st3" x1="313.4" y1="254.9" x2="316.8" y2="256.1"/>
			<line class="st3" x1="319.9" y1="256.9" x2="323.2" y2="257.7"/>
			<line class="st3" x1="326.3" y1="258.6" x2="328" y2="259.1"/>
			<line class="st3" x1="328" y1="259.1" x2="327.7" y2="260.8"/>
			<polyline class="st4" points="329.1,254.9 261.6,225.8 262.4,224.1 330,253 329.1,254.9 			"/>
			<line class="st3" x1="329.1" y1="254.9" x2="327.7" y2="254.4"/>
			<line class="st3" x1="324.6" y1="253" x2="321.6" y2="251.9"/>
			<line class="st3" x1="318.5" y1="250.5" x2="315.4" y2="249.1"/>
			<line class="st3" x1="312.3" y1="247.7" x2="309.2" y2="246.3"/>
			<line class="st3" x1="306.1" y1="245.1" x2="303.1" y2="243.7"/>
			<line class="st3" x1="300" y1="242.3" x2="296.9" y2="240.9"/>
			<line class="st3" x1="293.8" y1="239.8" x2="290.7" y2="238.4"/>
			<line class="st3" x1="287.7" y1="237" x2="284.6" y2="235.6"/>
			<line class="st3" x1="281.5" y1="234.5" x2="278.4" y2="233.1"/>
			<line class="st3" x1="275.3" y1="231.7" x2="272.3" y2="230.3"/>
			<line class="st3" x1="269.2" y1="229.2" x2="266.1" y2="227.8"/>
			<line class="st3" x1="263" y1="226.4" x2="261.6" y2="225.8"/>
			<line class="st3" x1="261.6" y1="225.8" x2="262.4" y2="224.1"/>
			<line class="st3" x1="262.4" y1="224.1" x2="263.8" y2="224.7"/>
			<line class="st3" x1="266.9" y1="226.1" x2="270" y2="227.2"/>
			<line class="st3" x1="273.1" y1="228.6" x2="276.2" y2="230"/>
			<line class="st3" x1="279.3" y1="231.4" x2="282.3" y2="232.5"/>
			<line class="st3" x1="285.4" y1="233.9" x2="288.5" y2="235.3"/>
			<line class="st3" x1="291.6" y1="236.4" x2="294.7" y2="237.8"/>
			<line class="st3" x1="297.7" y1="239.2" x2="300.8" y2="240.6"/>
			<line class="st3" x1="303.9" y1="241.8" x2="307" y2="243.2"/>
			<line class="st3" x1="310.1" y1="244.6" x2="313.2" y2="245.7"/>
			<line class="st3" x1="316.2" y1="247.1" x2="319.3" y2="248.5"/>
			<line class="st3" x1="322.4" y1="249.9" x2="325.5" y2="251"/>
			<line class="st3" x1="328.6" y1="252.4" x2="330" y2="253"/>
			<line class="st3" x1="330" y1="253" x2="329.1" y2="254.7"/>
			<polyline class="st4" points="331.4,248.8 268.9,211.2 270,209.6 332.2,247.1 331.4,248.8 			"/>
			<line class="st3" x1="331.4" y1="248.8" x2="330.5" y2="248.2"/>
			<line class="st3" x1="327.4" y1="246.5" x2="324.6" y2="244.8"/>
			<line class="st3" x1="321.8" y1="242.9" x2="318.8" y2="241.2"/>
			<line class="st3" x1="316" y1="239.5" x2="313.2" y2="237.8"/>
			<line class="st3" x1="310.4" y1="236.2" x2="307.3" y2="234.2"/>
			<line class="st3" x1="304.5" y1="232.5" x2="301.7" y2="230.8"/>
			<line class="st3" x1="298.6" y1="229.2" x2="295.8" y2="227.5"/>
			<line class="st3" x1="293" y1="225.8" x2="290.2" y2="223.8"/>
			<line class="st3" x1="287.1" y1="222.2" x2="284.3" y2="220.5"/>
			<line class="st3" x1="281.5" y1="218.8" x2="278.4" y2="217.1"/>
			<line class="st3" x1="275.6" y1="215.4" x2="272.8" y2="213.5"/>
			<line class="st3" x1="270" y1="211.8" x2="268.9" y2="211.2"/>
			<line class="st3" x1="268.9" y1="211.2" x2="270" y2="209.6"/>
			<line class="st3" x1="270" y1="209.6" x2="270.9" y2="210.1"/>
			<line class="st3" x1="273.9" y1="211.8" x2="276.7" y2="213.5"/>
			<line class="st3" x1="279.5" y1="215.4" x2="282.6" y2="217.1"/>
			<line class="st3" x1="285.4" y1="218.8" x2="288.2" y2="220.5"/>
			<line class="st3" x1="291" y1="222.2" x2="294.1" y2="224.1"/>
			<line class="st3" x1="296.9" y1="225.8" x2="299.7" y2="227.5"/>
			<line class="st3" x1="302.5" y1="229.2" x2="305.6" y2="230.8"/>
			<line class="st3" x1="308.4" y1="232.8" x2="311.2" y2="234.5"/>
			<line class="st3" x1="314.3" y1="236.2" x2="317.1" y2="237.8"/>
			<line class="st3" x1="319.9" y1="239.5" x2="322.7" y2="241.5"/>
			<line class="st3" x1="325.8" y1="243.2" x2="328.6" y2="244.8"/>
			<line class="st3" x1="331.4" y1="246.5" x2="332.2" y2="247.1"/>
			<line class="st3" x1="332.2" y1="247.1" x2="331.4" y2="248.8"/>
			<polyline class="st4" points="612.6,305.6 612.6,275.4 626.1,275.4 626.1,305.6 612.6,305.6 			"/>
			<rect x="612.6" y="275.4" class="st3" width="13.4" height="30.3"/>
			<path class="st4" d="M613.9,276.6h11v21.6c0,0.7-0.2,1.4-0.4,2.1c-0.3,0.7-0.7,1.3-1.2,1.8c-0.5,0.5-1.1,0.9-1.8,1.2
				c-0.7,0.3-1.4,0.4-2.1,0.4c-0.7,0-1.4-0.1-2.1-0.4c-0.7-0.3-1.3-0.7-1.8-1.2c-0.5-0.5-0.9-1.1-1.2-1.8c-0.3-0.7-0.4-1.4-0.4-2.1
				V276.6"/>
			<path class="st3" d="M613.9,276.6h11v21.6c0,0.7-0.2,1.4-0.4,2.1c-0.3,0.7-0.7,1.3-1.2,1.8c-0.5,0.5-1.1,0.9-1.8,1.2
				c-0.7,0.3-1.4,0.4-2.1,0.4c-0.7,0-1.4-0.1-2.1-0.4c-0.7-0.3-1.3-0.7-1.8-1.2c-0.5-0.5-0.9-1.1-1.2-1.8c-0.3-0.7-0.4-1.4-0.4-2.1
				V276.6"/>
			<path class="st4" d="M619.4,279c0.1,0,0.2,0,0.3,0.1c0.1,0.1,0.2,0.1,0.2,0.2c0.1,0.1,0.1,0.2,0.1,0.3c0,0.1,0,0.2-0.1,0.3
				c-0.1,0.1-0.1,0.2-0.2,0.2c-0.1,0.1-0.2,0.1-0.3,0.1c-0.1,0-0.2,0-0.3-0.1c-0.1,0-0.2-0.1-0.2-0.2c-0.1-0.1-0.1-0.2-0.1-0.3
				c0-0.1,0-0.2,0.1-0.3c0.1-0.1,0.1-0.2,0.2-0.2C619.2,279,619.3,279,619.4,279"/>
			<path class="st3" d="M619.4,279c0.1,0,0.2,0,0.3,0.1c0.1,0.1,0.2,0.1,0.2,0.2c0.1,0.1,0.1,0.2,0.1,0.3c0,0.1,0,0.2-0.1,0.3
				c-0.1,0.1-0.1,0.2-0.2,0.2c-0.1,0.1-0.2,0.1-0.3,0.1c-0.1,0-0.2,0-0.3-0.1c-0.1,0-0.2-0.1-0.2-0.2c-0.1-0.1-0.1-0.2-0.1-0.3
				c0-0.1,0-0.2,0.1-0.3c0.1-0.1,0.1-0.2,0.2-0.2C619.2,279,619.3,279,619.4,279"/>
			<path class="st4" d="M607.7,269.1V263c0-0.4-0.1-0.8-0.2-1.1c-0.1-0.4-0.4-0.7-0.6-0.9c-0.3-0.3-0.6-0.5-0.9-0.6
				c-0.4-0.1-0.7-0.2-1.1-0.2c-0.4,0-0.8,0.1-1.1,0.2c-0.4,0.1-0.7,0.4-0.9,0.6c-0.3,0.3-0.5,0.6-0.6,0.9c-0.1,0.4-0.2,0.7-0.2,1.1
				v6.1H607.7"/>
			<path class="st3" d="M607.7,269.1V263c0-0.4-0.1-0.8-0.2-1.1c-0.1-0.4-0.4-0.7-0.6-0.9c-0.3-0.3-0.6-0.5-0.9-0.6
				c-0.4-0.1-0.7-0.2-1.1-0.2c-0.4,0-0.8,0.1-1.1,0.2c-0.4,0.1-0.7,0.4-0.9,0.6c-0.3,0.3-0.5,0.6-0.6,0.9c-0.1,0.4-0.2,0.7-0.2,1.1
				v6.1H607.7"/>
			<line class="st3" x1="602" y1="267.5" x2="607.6" y2="267.5"/>
			<rect x="612.3" y="250.7" class="st4" width="6.7" height="8.1"/>
			<rect x="612.3" y="250.7" class="st3" width="6.7" height="8.1"/>
			<rect x="613.2" y="251.6" class="st4" width="4.2" height="6.4"/>
			<rect x="613.2" y="251.6" class="st3" width="4.2" height="6.4"/>
			<rect x="597.8" y="275.4" class="st4" width="8.1" height="6.7"/>
			<rect x="597.8" y="275.4" class="st3" width="8.1" height="6.7"/>
			<rect x="598.6" y="277.1" class="st4" width="6.4" height="4.2"/>
			<rect x="598.6" y="277.1" class="st3" width="6.4" height="4.2"/>
			<path class="st4" d="M586.5,275.4v6.1c0,0.4,0.1,0.8,0.2,1.1c0.1,0.4,0.4,0.7,0.6,0.9c0.3,0.3,0.6,0.5,0.9,0.6
				c0.4,0.1,0.7,0.2,1.1,0.2c0.4,0,0.8-0.1,1.1-0.2c0.4-0.1,0.7-0.4,0.9-0.6c0.3-0.3,0.5-0.6,0.6-0.9c0.1-0.4,0.2-0.7,0.2-1.1v-6.1
				H586.5"/>
			<path class="st3" d="M586.5,275.4v6.1c0,0.4,0.1,0.8,0.2,1.1c0.1,0.4,0.4,0.7,0.6,0.9c0.3,0.3,0.6,0.5,0.9,0.6
				c0.4,0.1,0.7,0.2,1.1,0.2c0.4,0,0.8-0.1,1.1-0.2c0.4-0.1,0.7-0.4,0.9-0.6c0.3-0.3,0.5-0.6,0.6-0.9c0.1-0.4,0.2-0.7,0.2-1.1v-6.1
				H586.5"/>
			<line class="st3" x1="592.2" y1="277.1" x2="586.6" y2="277.1"/>
			<path class="st3" d="M626.1,231.3v-2.5c-2.2,0-4.4-0.4-6.4-1.3c-2-0.8-3.9-2.1-5.4-3.6c-1.6-1.6-2.8-3.4-3.6-5.4
				c-0.8-2-1.3-4.2-1.3-6.4h16.7v-2.5"/>
			<path class="st3" d="M712.3,231.3v-2.5c-2.2,0-4.4-0.4-6.4-1.3c-2-0.8-3.9-2.1-5.4-3.6c-1.5-1.6-2.8-3.4-3.6-5.4
				c-0.8-2-1.3-4.2-1.3-6.4h16.7v-2.5"/>
			<path class="st3" d="M627.6,324.6v-1.2c1.9,0,3.8-0.4,5.6-1.1c1.8-0.7,3.4-1.8,4.8-3.2c1.4-1.4,2.5-3,3.2-4.8
				c0.7-1.8,1.1-3.7,1.1-5.6h-14.7v-1.2"/>
			<rect x="513.5" y="253.8" class="st4" width="12.6" height="11.5"/>
			<rect x="513.5" y="253.8" class="st3" width="12.6" height="11.5"/>
			<polyline class="st4" points="524.4,253.8 524.4,263.6 515.1,263.6 515.1,253.8 524.4,253.8 			"/>
			<rect x="515.1" y="253.8" class="st3" width="9.2" height="9.8"/>
			<polyline class="st4" points="530,219.9 530,234.8 490.2,234.8 490.2,219.9 530,219.9 			"/>
			<rect x="490.2" y="219.9" class="st3" width="39.8" height="14.8"/>
			<polyline class="st4" points="491.9,234.8 491.9,221.6 528.3,221.6 528.3,234.8 491.9,234.8 			"/>
			<rect x="491.9" y="221.6" class="st3" width="36.4" height="13.2"/>
			<rect x="501.1" y="239" class="st4" width="18.2" height="8.4"/>
			<rect x="501.1" y="239" class="st3" width="18.2" height="8.4"/>
			<rect x="493" y="253.8" class="st4" width="12.6" height="11.5"/>
			<rect x="493" y="253.8" class="st3" width="12.6" height="11.5"/>
			<polyline class="st4" points="503.9,253.8 503.9,263.6 494.7,263.6 494.7,253.8 503.9,253.8 			"/>
			<rect x="494.7" y="253.8" class="st3" width="9.2" height="9.8"/>
			<line class="st3" x1="546.2" y1="304.8" x2="542.9" y2="304.8"/>
			<polyline class="st3" points="690.5,274.3 693.5,277.2 696.5,274.3 			"/>
			<polyline class="st3" points="642.7,246.1 639.8,243.1 636.8,246.1 			"/>
			<polyline class="st3" points="911.1,265.5 914.2,268.4 917.1,265.4 			"/>
			<path class="st3" d="M578.5,288.2v1.2c2,0,3.9,0.4,5.7,1.1c1.8,0.8,3.5,1.9,4.9,3.2c1.4,1.4,2.5,3,3.2,4.9
				c0.8,1.8,1.1,3.8,1.1,5.7h-15v1.2"/>
			<path class="st3" d="M611.9,231.3h-1.2c0,1.6-0.3,3.2-0.9,4.7c-0.6,1.5-1.5,2.8-2.7,4c-1.1,1.1-2.5,2-4,2.7
				c-1.5,0.6-3.1,0.9-4.7,0.9v-12.2h-1.2"/>
		</g>
		<text transform="matrix(1 0 0 1 118.9991 607.9755)" class="st24 st25">DG</text>
	</g>
</g>
</svg>
