<?xml version="1.0" encoding="utf-8"?>
<!-- Generator: Adobe Illustrator 19.1.0, SVG Export Plug-In . SVG Version: 6.00 Build 0)  -->
<svg version="1.1" id="Ebene_1" xmlns="http://www.w3.org/2000/svg" xmlns:xlink="http://www.w3.org/1999/xlink" x="0px" y="0px"
	 width="1280px" height="740px" viewBox="-201 431 1280 740" style="enable-background:new -201 431 1280 740;"
	 xml:space="preserve">
<style type="text/css">
	.st0{fill:none;stroke:#1D1D1B;stroke-width:0.25;stroke-miterlimit:10;}
	.st1{fill:none;stroke:#1D1D1B;stroke-width:0.25;stroke-linecap:round;stroke-linejoin:round;stroke-miterlimit:10;}
	.st2{fill:none;stroke:#000000;stroke-width:0.216;stroke-linecap:round;stroke-linejoin:round;stroke-miterlimit:10;}
	.st3{fill:none;stroke:#000000;stroke-width:0.25;stroke-linecap:round;stroke-linejoin:round;stroke-miterlimit:10;}
	.st4{fill:#FFFFFF;stroke:#1D1D1B;stroke-width:0.25;stroke-miterlimit:10;}
	.st5{enable-background:new    ;}
</style>
<line class="st0" x1="83.4" y1="1051.6" x2="-327.4" y2="1051.5"/>
<polyline class="st1" points="1184.7,1051.6 748,1051.6 748,1089.7 733.1,1089.7 733.1,1063.5 98.3,1063.5 98.3,1089.7 83.4,1089.7 
	83.4,1051.6 -327.4,1051.5 "/>
<path d="M289.3,680h259.9V574.7l-127.6-39.8l-132.3,92.9V680 M289.3,1045.9h-15.2V621.5l147.5-102.4l134.6,42.2v191.8h-5.9v-55.6
	h-261v172.7H733v-52.7h15.2v272.2H733v-26.3H98.5v11.1v15.2H83.3v-188l15.4-1.1l-0.2,151.1H733V887.8H289.3V1045.9"/>
<path class="st2" d="M289.3,680h259.9V574.7l-127.6-39.8l-132.3,92.9V680 M289.3,1045.9h-15.2V621.5l147.5-102.4l134.6,42.2v191.8
	h-5.9v-55.6h-261v172.7H733v-52.7h15.2v272.2H733v-26.3H98.5v11.1v15.2H83.3v-188l15.4-1.1l-0.2,151.1H733V887.8H289.3V1045.9"/>
<polyline points="748,621.4 748,712.1 733.1,712.1 733.1,631.8 602.8,591.7 602.8,575.8 748,621.4 "/>
<polygon class="st2" points="748,621.4 748,712.1 733.1,712.1 733.1,631.8 602.8,591.7 602.8,575.8 "/>
<line class="st3" x1="556.2" y1="561.4" x2="602.8" y2="575.8"/>
<line class="st3" x1="556.2" y1="576.8" x2="602.8" y2="591.7"/>
<rect x="733.1" y="712.1" class="st4" width="14.9" height="105.6"/>
<rect x="733.1" y="712.1" class="st1" width="14.9" height="105.6"/>
<line class="st1" x1="740.5" y1="712.1" x2="740.5" y2="817.7"/>
<rect x="550.2" y="753.2" class="st0" width="5.9" height="117"/>
<rect x="550.2" y="753.2" class="st0" width="5.9" height="117"/>
<polyline points="274.2,888.5 83.4,901.9 83.4,887 274.2,873.7 274.2,888.5 "/>
<polygon class="st2" points="274.2,888.5 83.4,901.9 83.4,887 274.2,873.7 "/>
<line class="st3" x1="556.2" y1="568.9" x2="602.8" y2="583.7"/>
<line class="st1" x1="83.4" y1="1051.6" x2="-327.4" y2="1051.5"/>
<line class="st3" x1="521.5" y1="565.9" x2="521.5" y2="679.9"/>
<line class="st3" x1="532.9" y1="888" x2="532.9" y2="975.7"/>
<line class="st3" x1="417.9" y1="1046.1" x2="417.9" y2="888"/>
<line class="st3" x1="509.6" y1="975.7" x2="565.6" y2="975.7"/>
<line class="st3" x1="509.6" y1="1046.1" x2="509.6" y2="975.7"/>
<line class="st3" x1="565.6" y1="1046.1" x2="565.6" y2="888"/>
<line class="st3" x1="541.8" y1="888" x2="541.8" y2="975.7"/>
<line class="st3" x1="348" y1="1046.1" x2="348" y2="888"/>
<line class="st1" x1="289.1" y1="817.7" x2="348" y2="817.7"/>
<line class="st1" x1="348" y1="870.2" x2="348" y2="817.7"/>
<polyline class="st3" points="268.3,1046.1 268.3,928.7 221.2,928.7 221.2,1046.1 "/>
<line class="st1" x1="417.9" y1="870.2" x2="417.9" y2="697.7"/>
<line class="st3" x1="348" y1="1034.2" x2="289.1" y2="1034.2"/>
<line class="st3" x1="348" y1="1022.3" x2="289.1" y2="1022.3"/>
<line class="st3" x1="348" y1="1010.9" x2="289.1" y2="1010.9"/>
<line class="st3" x1="348" y1="999" x2="289.1" y2="999"/>
<line class="st3" x1="348" y1="987.1" x2="289.1" y2="987.1"/>
<line class="st3" x1="348" y1="975.7" x2="289.1" y2="975.7"/>
<line class="st3" x1="348" y1="963.9" x2="289.1" y2="963.9"/>
<line class="st3" x1="348" y1="952.5" x2="289.1" y2="952.5"/>
<line class="st3" x1="348" y1="940.6" x2="289.1" y2="940.6"/>
<line class="st3" x1="348" y1="928.7" x2="289.1" y2="928.7"/>
<line class="st3" x1="348" y1="917.3" x2="289.1" y2="917.3"/>
<line class="st3" x1="348" y1="905.4" x2="289.1" y2="905.4"/>
<line class="st3" x1="348" y1="893.5" x2="289.1" y2="893.5"/>
<line class="st3" x1="98.3" y1="1046.1" x2="733.1" y2="1046.1"/>
<line class="st1" x1="748" y1="1051.6" x2="1184.7" y2="1051.6"/>
<polyline class="st3" points="553.7,560.4 553.7,492.1 521.5,492.1 521.5,550.5 "/>
<g class="st5">
	<path d="M1.2,1068l-0.6,1.2c-0.5-0.3-1.1-0.5-1.7-0.5c-0.7,0-1,0.3-1,0.7c0,0.4,0.2,0.7,0.7,1l1.5,1.2c0.9,0.7,1.3,1.3,1.3,2.3
		c0,1.5-1.1,2.4-2.7,2.4c-1.1,0-2.1-0.4-2.7-0.8l0.6-1.2c0.5,0.3,1.3,0.7,2.2,0.7c0.9,0,1.3-0.4,1.3-1c0-0.5-0.3-0.8-0.9-1.3
		l-1.4-1.1c-0.7-0.6-1.2-1.2-1.2-2c0-1.2,0.9-2,2.4-2C-0.2,1067.4,0.6,1067.7,1.2,1068z"/>
	<path d="M2.1,1073.2c0-1.8,1.3-2.9,3.1-2.9c0.7,0,1.3,0.2,1.9,0.6l-0.6,1c-0.4-0.3-0.9-0.4-1.4-0.4c-1,0-1.8,0.7-1.8,1.8
		c0,1.1,0.7,1.8,1.8,1.8c0.5,0,1-0.1,1.4-0.4l0.6,1c-0.6,0.4-1.2,0.6-1.9,0.6C3.4,1076.2,2.1,1075,2.1,1073.2z"/>
	<path d="M9.3,1070.4c0,0.5,0,0.8-0.1,1.2l0,0c0.4-0.9,1.1-1.4,2-1.4c1.2,0,2,0.8,2,2.1v3.6h-1.2v-3.3c0-0.8-0.4-1.3-1.2-1.3
		c-1,0-1.6,0.7-1.6,1.9v2.7H8.1v-8.6h1.2V1070.4z"/>
	<path d="M19.9,1072.3v3.6h-1.2v-3.3c0-0.8-0.4-1.3-1.2-1.3c-1,0-1.6,0.7-1.6,1.9v2.7h-1.2v-5.5h1.2c0,0.6,0,0.9-0.1,1.3l0,0
		c0.4-1,1.1-1.5,2-1.5C19.1,1070.3,19.9,1071,19.9,1072.3z"/>
	<path d="M22.6,1069.2h-1.3v-1.6h1.3V1069.2z M22.6,1076h-1.2v-5.5h1.2V1076z"/>
	<path d="M25.8,1069.9c0,0.2,0,0.4,0,0.6l0,0c0.1-0.1,0.2-0.1,0.5-0.1h0.6v1.1h-0.6c-0.3,0-0.4,0-0.5-0.1l0,0c0,0.2,0,0.4,0,0.6v3.8
		h-1.2v-3.8c0-0.3,0-0.4,0-0.6l0,0c-0.1,0.1-0.2,0.1-0.5,0.1h-0.5v-1.1h0.5c0.3,0,0.4,0,0.5,0.1l0,0c0-0.2,0-0.4,0-0.6v-1.6l1.1-0.8
		h0.1V1069.9z"/>
	<path d="M29.6,1069.9c0,0.2,0,0.4,0,0.6l0,0c0.1-0.1,0.2-0.1,0.5-0.1h0.6v1.1H30c-0.3,0-0.4,0-0.5-0.1l0,0c0,0.2,0,0.4,0,0.6v3.8
		h-1.2v-3.8c0-0.3,0-0.4,0-0.6l0,0c-0.1,0.1-0.2,0.1-0.5,0.1h-0.5v-1.1h0.5c0.3,0,0.4,0,0.5,0.1l0,0c0-0.2,0-0.4,0-0.6v-1.6l1.1-0.8
		h0.1V1069.9z"/>
</g>
</svg>
