<?xml version="1.0" encoding="utf-8"?>
<!-- Generator: Adobe Illustrator 19.1.0, SVG Export Plug-In . SVG Version: 6.00 Build 0)  -->
<svg version="1.1" id="Ebene_1" xmlns="http://www.w3.org/2000/svg" xmlns:xlink="http://www.w3.org/1999/xlink" x="0px" y="0px"
	 viewBox="0 0 1500 844" style="enable-background:new 0 0 1500 844;" xml:space="preserve">
<style type="text/css">
	.st0{fill:none;stroke:#000000;stroke-width:0.144;stroke-linecap:round;stroke-linejoin:round;stroke-miterlimit:10;}
	.st1{fill-rule:evenodd;clip-rule:evenodd;}
	.st2{fill:none;stroke:#000000;stroke-width:0.216;stroke-linecap:round;stroke-linejoin:round;stroke-miterlimit:10;}
	.st3{font-family:'GTEestiProText-Regular';}
	.st4{font-size:12px;}
</style>
<g>
	<g>
		<g>
			<rect x="1286.1" y="385" class="st0" width="63.1" height="8.7"/>
			<rect x="1159.5" y="385" class="st0" width="63.1" height="8.7"/>
			<rect x="1034.5" y="385" class="st0" width="63.1" height="8.7"/>
			<rect x="907.6" y="385" class="st0" width="63.1" height="8.7"/>
			<polygon class="st0" points="952,267.3 874,267.3 873.5,270.6 952,270.6 952,323 955.5,323 955.5,245.2 952,245.2 			"/>
			<polygon class="st0" points="992.8,344 992.8,245.2 996.2,245.2 996.2,347.5 906.9,347.5 906.9,344 			"/>
			<polyline class="st0" points="1005,393.7 976.4,591.7 828.2,570.6 			"/>
			<polyline class="st0" points="843.4,389.6 842.7,393.7 815.5,573.1 980.8,596.8 1010,393.7 			"/>
			<line class="st0" x1="968.8" y1="633.6" x2="809.7" y2="610.8"/>
			<polyline class="st0" points="1349.2,389.6 1349.2,393.7 1411.6,393.7 1378,196.4 1358.2,196.4 			"/>
			<polyline class="st1" points="907.6,385 907.6,389.6 843.4,389.6 872.4,196.4 884.3,196.4 884.3,205.6 883.2,205.6 856.2,385 
				907.6,385 			"/>
			<polygon class="st2" points="907.6,385 907.6,389.6 843.4,389.6 872.4,196.4 884.3,196.4 884.3,205.6 883.2,205.6 856.2,385 			
				"/>
			<polyline class="st1" points="1363.9,205.6 1358.2,205.6 1358.2,201 1373.6,201 1405.6,389.6 1349.2,389.6 1349.2,385 
				1394.3,385 1363.9,205.6 			"/>
			<polygon class="st2" points="1363.9,205.6 1358.2,205.6 1358.2,201 1373.6,201 1405.6,389.6 1349.2,389.6 1349.2,385 1394.3,385 
							"/>
			<polyline class="st0" points="884.3,196.4 1358.2,196.4 1358.2,201 			"/>
			<line class="st0" x1="964" y1="594.5" x2="958.2" y2="632"/>
			<line class="st0" x1="953.4" y1="592.9" x2="947.7" y2="630.6"/>
			<line class="st0" x1="942.8" y1="591.5" x2="937.1" y2="629"/>
			<line class="st0" x1="932.2" y1="589.9" x2="926.5" y2="627.4"/>
			<line class="st0" x1="921.6" y1="588.3" x2="915.9" y2="626"/>
			<line class="st0" x1="911" y1="586.9" x2="905.3" y2="624.4"/>
			<line class="st0" x1="900.5" y1="585.3" x2="894.7" y2="623"/>
			<line class="st0" x1="889.9" y1="583.9" x2="884.1" y2="621.4"/>
			<line class="st0" x1="879.3" y1="582.3" x2="873.5" y2="619.8"/>
			<line class="st0" x1="868.7" y1="580.7" x2="862.9" y2="618.4"/>
			<line class="st0" x1="858.1" y1="579.3" x2="852.3" y2="616.8"/>
			<line class="st0" x1="847.3" y1="577.7" x2="841.7" y2="615.5"/>
			<line class="st0" x1="836.7" y1="576.3" x2="831.2" y2="613.8"/>
			<line class="st0" x1="974.6" y1="595.9" x2="968.8" y2="633.6"/>
			<line class="st0" x1="854.9" y1="393.7" x2="827.5" y2="574.9"/>
			<rect x="1178.6" y="198.7" class="st1" width="5.5" height="6.9"/>
			<rect x="1178.6" y="198.7" class="st2" width="5.5" height="6.9"/>
			<rect x="1119" y="198.7" class="st1" width="5.3" height="6.9"/>
			<rect x="1119" y="198.7" class="st2" width="5.3" height="6.9"/>
			<rect x="1059.1" y="198.7" class="st1" width="5.3" height="6.9"/>
			<rect x="1059.1" y="198.7" class="st2" width="5.3" height="6.9"/>
			<rect x="999.2" y="198.7" class="st1" width="5.3" height="6.9"/>
			<rect x="999.2" y="198.7" class="st2" width="5.3" height="6.9"/>
			<rect x="939.4" y="198.7" class="st1" width="5.5" height="6.9"/>
			<rect x="939.4" y="198.7" class="st2" width="5.5" height="6.9"/>
			<rect x="1298.3" y="198.7" class="st1" width="5.5" height="6.9"/>
			<rect x="1298.3" y="198.7" class="st2" width="5.5" height="6.9"/>
			<rect x="1238.4" y="198.7" class="st1" width="5.5" height="6.9"/>
			<rect x="1238.4" y="198.7" class="st2" width="5.5" height="6.9"/>
			<polyline class="st0" points="1159.5,389.6 1159.5,393.7 1097.5,393.7 1097.5,389.6 			"/>
			<polyline class="st0" points="970.7,389.6 970.7,393.7 1034.5,393.7 1034.5,389.6 			"/>
			<polyline class="st0" points="1222.6,389.6 1222.6,393.7 1286.1,393.7 1286.1,389.6 			"/>
			<polyline class="st0" points="842.7,393.7 907.6,393.7 907.6,389.6 			"/>
			<rect x="1222.6" y="385" class="st1" width="63.5" height="4.6"/>
			<rect x="1222.6" y="385" class="st2" width="63.5" height="4.6"/>
			<rect x="1097.5" y="385" class="st1" width="61.9" height="4.6"/>
			<rect x="1097.5" y="385" class="st2" width="61.9" height="4.6"/>
			<rect x="970.7" y="385" class="st1" width="63.8" height="4.6"/>
			<rect x="970.7" y="385" class="st2" width="63.8" height="4.6"/>
			<line class="st0" x1="815.5" y1="573.1" x2="809.7" y2="610.8"/>
			<rect x="884.3" y="204" class="st0" width="55" height="1.6"/>
			<rect x="944.9" y="204" class="st0" width="54.3" height="1.6"/>
			<rect x="1004.5" y="204" class="st0" width="54.6" height="1.6"/>
			<rect x="1064.4" y="204" class="st0" width="54.6" height="1.6"/>
			<rect x="1124.2" y="204" class="st0" width="54.3" height="1.6"/>
			<rect x="1184.1" y="204" class="st0" width="54.3" height="1.6"/>
			<rect x="1244" y="204" class="st0" width="54.3" height="1.6"/>
			<rect x="1303.8" y="204" class="st0" width="54.3" height="1.6"/>
			<line class="st0" x1="1286.1" y1="389.6" x2="1349.2" y2="389.6"/>
			<line class="st0" x1="1159.5" y1="389.6" x2="1222.6" y2="389.6"/>
			<line class="st0" x1="1034.5" y1="389.6" x2="1097.5" y2="389.6"/>
			<line class="st0" x1="907.6" y1="389.6" x2="970.7" y2="389.6"/>
			<polyline class="st0" points="839.5,590.9 833.9,595 838,600.6 			"/>
		</g>
	</g>
</g>
<g>
	<line class="st0" x1="614.8" y1="205.5" x2="635.9" y2="205.5"/>
	<rect x="614.8" y="200" class="st0" width="21.1" height="9.1"/>
	<rect x="522.4" y="200" class="st0" width="27" height="9.1"/>
	<line class="st0" x1="522.4" y1="205.5" x2="549.3" y2="205.5"/>
	<polyline class="st1" points="138.3,609.3 126.5,607.7 158.9,394.1 187.4,204.6 194.2,204.6 522.4,204.6 522.4,209.1 198.7,209.1 
		189.7,269.8 266.5,269.8 266.5,248 269.9,248 269.9,324.6 266.5,324.6 266.5,273 189.2,273 172.2,385.5 344.8,385.5 344.8,390 
		171.6,390 138.3,609.3 	"/>
	<polygon class="st2" points="138.3,609.3 126.5,607.7 158.9,394.1 187.4,204.6 194.2,204.6 522.4,204.6 522.4,209.1 198.7,209.1 
		189.7,269.8 266.5,269.8 266.5,248 269.9,248 269.9,324.6 266.5,324.6 266.5,273 189.2,273 172.2,385.5 344.8,385.5 344.8,390 
		171.6,390 	"/>
	<polyline class="st1" points="222.1,345.2 306.5,345.2 306.5,248 309.9,248 309.9,348.6 222.1,348.6 222.1,345.2 	"/>
	<polygon class="st2" points="222.1,345.2 306.5,345.2 306.5,248 309.9,248 309.9,348.6 222.1,348.6 	"/>
	<polyline class="st1" points="309,417.2 319.5,418.8 318.1,429.5 307.5,427.9 309,417.2 	"/>
	<polygon class="st2" points="309,417.2 319.5,418.8 318.1,429.5 307.5,427.9 	"/>
	<polygon class="st0" points="326.5,395.9 298.8,588 297,587.8 324.7,395.7 	"/>
	<polyline class="st1" points="235.9,585.5 236.6,580.8 284.6,587.8 285.5,581.9 295.9,583.2 294.5,593.9 235.9,585.5 	"/>
	<polygon class="st2" points="235.9,585.5 236.6,580.8 284.6,587.8 285.5,581.9 295.9,583.2 294.5,593.9 	"/>
	<polyline class="st1" points="297.9,494.5 308.6,495.8 307,506.5 296.4,504.9 297.9,494.5 	"/>
	<polygon class="st2" points="297.9,494.5 308.6,495.8 307,506.5 296.4,504.9 	"/>
	<line class="st0" x1="283" y1="630.1" x2="262.2" y2="627.2"/>
	<line class="st0" x1="262.2" y1="627.2" x2="138.3" y2="609.3"/>
	<line class="st0" x1="289.1" y1="593.2" x2="143.9" y2="572.4"/>
	<polyline class="st0" points="635.9,200 685.5,200 718.5,394.1 433.2,394.1 433.2,390 	"/>
	<polyline class="st1" points="676.2,204.6 681.2,204.6 712.6,390 709.5,390 433.2,390 433.2,385.5 701.5,385.5 671.6,209.1 
		635.9,209.1 635.9,204.6 676.2,204.6 	"/>
	<polygon class="st2" points="676.2,204.6 681.2,204.6 712.6,390 709.5,390 433.2,390 433.2,385.5 701.5,385.5 671.6,209.1 
		635.9,209.1 635.9,204.6 	"/>
	<polyline class="st1" points="614.8,209.1 549.3,209.1 549.3,204.6 614.8,204.6 614.8,209.1 	"/>
	<rect x="549.3" y="204.6" class="st2" width="65.5" height="4.5"/>
	<line class="st0" x1="549.3" y1="209.1" x2="549.3" y2="200"/>
	<line class="st0" x1="635.9" y1="209.1" x2="635.9" y2="200"/>
	<line class="st0" x1="614.8" y1="200" x2="549.3" y2="200"/>
	<polyline class="st0" points="522.4,200 188.1,200 187.4,204.6 	"/>
	<line class="st0" x1="278.2" y1="591.6" x2="272.6" y2="628.5"/>
	<line class="st0" x1="267.8" y1="590" x2="262.2" y2="627.2"/>
	<line class="st0" x1="254.7" y1="605.9" x2="254.2" y2="608.6"/>
	<line class="st0" x1="253.8" y1="611.3" x2="253.5" y2="614"/>
	<line class="st0" x1="253.1" y1="616.5" x2="252.6" y2="619.3"/>
	<line class="st0" x1="252.2" y1="622" x2="252" y2="624.7"/>
	<line class="st0" x1="251.7" y1="625.1" x2="251.7" y2="625.6"/>
	<line class="st0" x1="247" y1="587.1" x2="246.8" y2="588"/>
	<line class="st0" x1="246.5" y1="590.7" x2="246.1" y2="593.4"/>
	<line class="st0" x1="245.6" y1="596.2" x2="245.2" y2="598.6"/>
	<line class="st0" x1="244.7" y1="601.4" x2="244.3" y2="604.1"/>
	<line class="st0" x1="244" y1="606.8" x2="243.6" y2="609.5"/>
	<line class="st0" x1="243.1" y1="612.2" x2="242.7" y2="615"/>
	<line class="st0" x1="242.2" y1="617.4" x2="242" y2="620.2"/>
	<line class="st0" x1="241.5" y1="622.9" x2="241.3" y2="624"/>
	<line class="st0" x1="236.6" y1="585.5" x2="236.3" y2="586.6"/>
	<line class="st0" x1="235.9" y1="589.4" x2="235.7" y2="592.1"/>
	<line class="st0" x1="235.2" y1="594.8" x2="234.7" y2="597.3"/>
	<line class="st0" x1="234.3" y1="600" x2="233.8" y2="602.7"/>
	<line class="st0" x1="233.6" y1="605.4" x2="233.2" y2="608.2"/>
	<line class="st0" x1="232.7" y1="610.9" x2="232.3" y2="613.6"/>
	<line class="st0" x1="231.8" y1="616.1" x2="231.6" y2="618.8"/>
	<line class="st0" x1="231.1" y1="621.5" x2="230.9" y2="622.7"/>
	<line class="st0" x1="226.1" y1="584.1" x2="225.9" y2="585.1"/>
	<line class="st0" x1="225.7" y1="587.8" x2="225.2" y2="590.5"/>
	<line class="st0" x1="224.8" y1="593.2" x2="224.3" y2="595.7"/>
	<line class="st0" x1="223.9" y1="598.4" x2="223.4" y2="601.1"/>
	<line class="st0" x1="223.2" y1="603.9" x2="222.7" y2="606.6"/>
	<line class="st0" x1="222.3" y1="609.3" x2="221.8" y2="612"/>
	<line class="st0" x1="221.4" y1="614.5" x2="221.2" y2="617.2"/>
	<line class="st0" x1="220.7" y1="619.9" x2="220.5" y2="621.1"/>
	<line class="st0" x1="215.7" y1="582.6" x2="215.5" y2="583.7"/>
	<line class="st0" x1="215" y1="586.4" x2="214.8" y2="589.1"/>
	<line class="st0" x1="214.4" y1="591.8" x2="213.9" y2="594.3"/>
	<line class="st0" x1="213.5" y1="597.1" x2="213" y2="599.8"/>
	<line class="st0" x1="212.8" y1="602.5" x2="212.3" y2="605.2"/>
	<line class="st0" x1="211.9" y1="607.9" x2="211.4" y2="610.6"/>
	<line class="st0" x1="211" y1="613.1" x2="210.7" y2="615.9"/>
	<line class="st0" x1="210.3" y1="618.6" x2="210.1" y2="619.7"/>
	<line class="st0" x1="205.3" y1="581.2" x2="205.1" y2="582.1"/>
	<line class="st0" x1="204.9" y1="584.8" x2="204.4" y2="587.5"/>
	<line class="st0" x1="203.9" y1="590.3" x2="203.5" y2="592.8"/>
	<line class="st0" x1="203" y1="595.5" x2="202.6" y2="598.2"/>
	<line class="st0" x1="202.4" y1="600.9" x2="201.9" y2="603.6"/>
	<line class="st0" x1="201.5" y1="606.3" x2="201" y2="609.1"/>
	<line class="st0" x1="200.6" y1="611.6" x2="200.3" y2="614.3"/>
	<line class="st0" x1="199.9" y1="617" x2="199.6" y2="618.1"/>
	<line class="st0" x1="194.9" y1="579.6" x2="194.7" y2="580.5"/>
	<line class="st0" x1="194.4" y1="583.2" x2="194" y2="586"/>
	<line class="st0" x1="193.5" y1="588.7" x2="193.1" y2="591.2"/>
	<line class="st0" x1="192.6" y1="593.9" x2="192.2" y2="596.6"/>
	<line class="st0" x1="191.9" y1="599.3" x2="191.5" y2="602"/>
	<line class="st0" x1="191" y1="604.8" x2="190.6" y2="607.5"/>
	<line class="st0" x1="190.1" y1="610" x2="189.9" y2="612.7"/>
	<line class="st0" x1="189.5" y1="615.4" x2="189.2" y2="616.5"/>
	<line class="st0" x1="184.5" y1="578" x2="184.2" y2="579.2"/>
	<line class="st0" x1="183.8" y1="581.9" x2="183.6" y2="584.6"/>
	<line class="st0" x1="183.1" y1="587.3" x2="182.7" y2="589.8"/>
	<line class="st0" x1="182.2" y1="592.5" x2="181.8" y2="595.2"/>
	<line class="st0" x1="181.5" y1="598" x2="181.1" y2="600.7"/>
	<line class="st0" x1="180.6" y1="603.4" x2="180.2" y2="606.1"/>
	<line class="st0" x1="179.7" y1="608.6" x2="179.5" y2="611.3"/>
	<line class="st0" x1="179" y1="614" x2="178.8" y2="615.2"/>
	<line class="st0" x1="174.1" y1="576.7" x2="173.8" y2="577.6"/>
	<line class="st0" x1="173.6" y1="580.3" x2="173.1" y2="583"/>
	<line class="st0" x1="172.7" y1="585.7" x2="172.2" y2="588.2"/>
	<line class="st0" x1="171.8" y1="590.9" x2="171.3" y2="593.7"/>
	<line class="st0" x1="171.1" y1="596.4" x2="170.7" y2="599.1"/>
	<line class="st0" x1="170.2" y1="601.8" x2="169.7" y2="604.5"/>
	<line class="st0" x1="169.3" y1="607" x2="169.1" y2="609.7"/>
	<line class="st0" x1="168.6" y1="612.5" x2="168.4" y2="613.6"/>
	<line class="st0" x1="163.4" y1="575.1" x2="163.2" y2="576.2"/>
	<line class="st0" x1="163" y1="578.9" x2="162.5" y2="581.7"/>
	<line class="st0" x1="162" y1="584.4" x2="161.6" y2="586.9"/>
	<line class="st0" x1="161.4" y1="589.6" x2="160.9" y2="592.3"/>
	<line class="st0" x1="160.5" y1="595" x2="160" y2="597.7"/>
	<line class="st0" x1="159.8" y1="600.5" x2="159.3" y2="603.2"/>
	<line class="st0" x1="158.9" y1="605.9" x2="158.4" y2="608.4"/>
	<line class="st0" x1="158.2" y1="611.1" x2="158" y2="612.2"/>
	<line class="st0" x1="153" y1="573.7" x2="152.8" y2="574.6"/>
	<line class="st0" x1="152.5" y1="577.4" x2="152.1" y2="580.1"/>
	<line class="st0" x1="151.6" y1="582.8" x2="151.2" y2="585.3"/>
	<line class="st0" x1="150.9" y1="588" x2="150.5" y2="590.7"/>
	<line class="st0" x1="150" y1="593.4" x2="149.6" y2="596.2"/>
	<line class="st0" x1="149.4" y1="598.9" x2="148.9" y2="601.6"/>
	<line class="st0" x1="148.5" y1="604.3" x2="148" y2="606.8"/>
	<line class="st0" x1="147.8" y1="609.5" x2="147.6" y2="610.6"/>
	<line class="st0" x1="288.7" y1="593" x2="283" y2="630.1"/>
	<polyline class="st0" points="344.8,390 344.8,394.1 170.9,394.1 	"/>
	<line class="st0" x1="257.4" y1="588.7" x2="254.7" y2="605.9"/>
	<line class="st0" x1="262.2" y1="627.2" x2="248.3" y2="587.3"/>
	<rect x="344.8" y="392.5" class="st0" width="44.2" height="1.6"/>
	<rect x="389" y="392.5" class="st0" width="44.2" height="1.6"/>
	<line class="st0" x1="495.7" y1="394.1" x2="495.7" y2="396.8"/>
	<line class="st0" x1="495.7" y1="396.8" x2="495" y2="396.8"/>
	<line class="st0" x1="492.3" y1="396.8" x2="489.5" y2="396.8"/>
	<line class="st0" x1="486.8" y1="396.8" x2="484.1" y2="396.8"/>
	<line class="st0" x1="481.4" y1="396.8" x2="478.7" y2="396.8"/>
	<line class="st0" x1="476" y1="396.8" x2="473.2" y2="396.8"/>
	<line class="st0" x1="470.5" y1="396.8" x2="467.8" y2="396.8"/>
	<line class="st0" x1="465.1" y1="396.8" x2="462.4" y2="396.8"/>
	<line class="st0" x1="459.7" y1="396.8" x2="456.9" y2="396.8"/>
	<line class="st0" x1="454.2" y1="396.8" x2="451.5" y2="396.8"/>
	<line class="st0" x1="448.8" y1="396.8" x2="446.1" y2="396.8"/>
	<line class="st0" x1="443.3" y1="396.8" x2="440.6" y2="396.8"/>
	<line class="st0" x1="437.9" y1="396.8" x2="435.2" y2="396.8"/>
	<line class="st0" x1="432.5" y1="396.8" x2="429.8" y2="396.8"/>
	<line class="st0" x1="427" y1="396.8" x2="424.3" y2="396.8"/>
	<line class="st0" x1="421.6" y1="396.8" x2="418.9" y2="396.8"/>
	<line class="st0" x1="416.2" y1="396.8" x2="413.4" y2="396.8"/>
	<line class="st0" x1="410.7" y1="396.8" x2="408" y2="396.8"/>
	<line class="st0" x1="405.3" y1="396.8" x2="402.6" y2="396.8"/>
	<line class="st0" x1="399.9" y1="396.8" x2="397.1" y2="396.8"/>
	<line class="st0" x1="394.4" y1="396.8" x2="391.7" y2="396.8"/>
	<line class="st0" x1="389" y1="396.8" x2="386.3" y2="396.8"/>
	<line class="st0" x1="383.6" y1="396.8" x2="380.8" y2="396.8"/>
	<line class="st0" x1="378.1" y1="396.8" x2="375.4" y2="396.8"/>
	<line class="st0" x1="372.7" y1="396.8" x2="370" y2="396.8"/>
	<line class="st0" x1="367.2" y1="396.8" x2="364.5" y2="396.8"/>
	<line class="st0" x1="361.8" y1="396.8" x2="359.1" y2="396.8"/>
	<line class="st0" x1="356.4" y1="396.8" x2="353.7" y2="396.8"/>
	<line class="st0" x1="350.9" y1="396.8" x2="348.2" y2="396.8"/>
	<line class="st0" x1="345.5" y1="396.8" x2="344.8" y2="396.8"/>
	<line class="st0" x1="344.8" y1="396.8" x2="344.8" y2="394.8"/>
	<line class="st0" x1="389" y1="392.5" x2="390.1" y2="390"/>
	<line class="st0" x1="391.3" y1="387.6" x2="392.4" y2="385.1"/>
	<line class="st0" x1="393.5" y1="382.6" x2="394.6" y2="380.1"/>
	<line class="st0" x1="395.8" y1="377.8" x2="396.9" y2="375.3"/>
	<line class="st0" x1="398" y1="372.8" x2="399.2" y2="370.3"/>
	<line class="st0" x1="400.3" y1="367.9" x2="401.4" y2="365.4"/>
	<line class="st0" x1="402.6" y1="362.9" x2="403.7" y2="360.4"/>
	<line class="st0" x1="404.8" y1="357.9" x2="406" y2="355.4"/>
	<line class="st0" x1="407.1" y1="353.1" x2="408.2" y2="350.6"/>
	<line class="st0" x1="409.4" y1="348.1" x2="410.5" y2="345.7"/>
	<line class="st0" x1="410.7" y1="345.2" x2="411" y2="344.8"/>
	<line class="st0" x1="412.1" y1="347.2" x2="413.2" y2="349.7"/>
	<line class="st0" x1="414.4" y1="352.2" x2="415.5" y2="354.7"/>
	<line class="st0" x1="416.6" y1="357" x2="417.8" y2="359.5"/>
	<line class="st0" x1="418.9" y1="362" x2="420" y2="364.5"/>
	<line class="st0" x1="421.1" y1="366.9" x2="422.5" y2="369.4"/>
	<line class="st0" x1="423.6" y1="371.9" x2="424.8" y2="374.4"/>
	<line class="st0" x1="425.9" y1="376.7" x2="427" y2="379.2"/>
	<line class="st0" x1="428.2" y1="381.7" x2="429.3" y2="384.2"/>
	<line class="st0" x1="430.4" y1="386.7" x2="431.6" y2="389.1"/>
	<line class="st0" x1="432.7" y1="391.6" x2="433.2" y2="392.5"/>
	<polyline class="st0" points="146.6,586.8 141.1,590.8 145.1,596.3 	"/>
</g>
<text transform="matrix(1 0 0 1 167.0022 734.152)" class="st3 st4">EG Schnitt tiefer Höhe ca. 1m</text>
<g>
	<defs>
		<polygon id="SVGID_1_" points="87,112.4 541.4,145.4 541.4,419.7 87,386.7 		"/>
	</defs>
	<clipPath id="SVGID_2_">
		<use xlink:href="#SVGID_1_"  style="overflow:visible;"/>
	</clipPath>
</g>
<text transform="matrix(1 0 0 1 860.6875 736.0076)" class="st3 st4">EG Schnitt höher Höhe ca. 2m</text>
</svg>
