<?xml version="1.0" encoding="utf-8"?>
<!-- Generator: Adobe Illustrator 19.1.0, SVG Export Plug-In . SVG Version: 6.00 Build 0)  -->
<svg version="1.1" id="Ebene_1" xmlns="http://www.w3.org/2000/svg" xmlns:xlink="http://www.w3.org/1999/xlink" x="0px" y="0px"
	 viewBox="-201 441 1280 720" style="enable-background:new -201 441 1280 720;" xml:space="preserve">
<style type="text/css">
	.st0{fill:#FFFFFF;}
	.st1{fill:none;stroke:#000000;stroke-width:0.144;stroke-linecap:round;stroke-linejoin:round;stroke-miterlimit:10;}
	.st2{fill:#E8E8E8;}
	.st3{fill:none;stroke:#8C8C8C;stroke-width:0.144;stroke-linecap:round;stroke-linejoin:round;stroke-miterlimit:10;}
	.st4{fill:none;stroke:#000000;stroke-width:0.216;stroke-linecap:round;stroke-linejoin:round;stroke-miterlimit:10;}
	.st5{fill:none;stroke:#CCCCCC;stroke-width:0.144;stroke-linecap:round;stroke-linejoin:round;stroke-miterlimit:10;}
	.st6{fill:none;}
	.st7{enable-background:new    ;}
	.st8{font-family:'GTEestiProText-Regular';}
	.st9{font-size:11.1416px;}
	.st10{fill:none;stroke:#000000;stroke-width:7.200000e-02;stroke-linecap:round;stroke-linejoin:round;stroke-miterlimit:10;}
</style>
<rect x="575.5" y="665" class="st0" width="18.5" height="175.8"/>
<rect x="575.5" y="665" class="st1" width="18.5" height="175.8"/>
<path class="st2" d="M504.8,837.5h-12.9v-54.2h12.9V837.5 M438.9,780.2v60.5h81.6v-60.5H438.9"/>
<path class="st3" d="M504.8,837.5h-12.9v-54.2h12.9V837.5 M438.9,780.2v60.5h81.6v-60.5H438.9"/>
<rect x="392.3" y="665" class="st0" width="12.5" height="153.3"/>
<rect x="392.3" y="665" class="st1" width="12.5" height="153.3"/>
<rect x="280.9" y="657.4" width="7.4" height="14.7"/>
<rect x="280.9" y="657.4" class="st4" width="7.4" height="14.7"/>
<polyline points="288.2,809.1 292.5,811.4 288.9,817.8 280.9,813.4 280.9,735.4 288.2,735.4 288.2,809.1 "/>
<polygon class="st4" points="288.2,809.1 292.5,811.4 288.9,817.8 280.9,813.4 280.9,735.4 288.2,735.4 "/>
<polyline points="575.5,874 594,874 594,777.5 601.3,777.5 601.3,881.6 575.5,881.6 575.5,874 "/>
<polygon class="st4" points="575.5,874 594,874 594,777.5 601.3,777.5 601.3,881.6 575.5,881.6 "/>
<rect x="438.9" y="874" width="81.6" height="7.6"/>
<rect x="438.9" y="874" class="st4" width="81.6" height="7.6"/>
<polyline points="594,665 575.5,665 575.5,657.4 601.3,657.4 601.3,714.2 594,714.2 594,665 "/>
<polygon class="st4" points="594,665 575.5,665 575.5,657.4 601.3,657.4 601.3,714.2 594,714.2 "/>
<path d="M494,833.3h6.6v-45.8H494V833.3 M504.8,783.3v54.2h-12.9v-54.2H504.8"/>
<path class="st4" d="M494,833.3h6.6v-45.8H494V833.3 M504.8,783.3v54.2h-12.9v-54.2H504.8"/>
<rect x="438.9" y="657.4" width="8" height="7.6"/>
<rect x="438.9" y="657.4" class="st4" width="8" height="7.6"/>
<rect x="378.5" y="657.4" width="26.3" height="7.6"/>
<rect x="378.5" y="657.4" class="st4" width="26.3" height="7.6"/>
<polyline points="369.1,854.1 404.6,874 404.8,874 404.8,881.6 402.5,881.6 365.3,860.8 369.1,854.1 "/>
<polygon class="st4" points="369.1,854.1 404.6,874 404.8,874 404.8,881.6 402.5,881.6 365.3,860.8 "/>
<rect x="280.9" y="672.1" class="st0" width="7.4" height="63.3"/>
<rect x="280.9" y="672.1" class="st1" width="7.4" height="63.3"/>
<rect x="594" y="714.2" class="st0" width="7.4" height="63.3"/>
<rect x="594" y="714.2" class="st1" width="7.4" height="63.3"/>
<rect x="404.8" y="874" class="st0" width="34.1" height="7.6"/>
<rect x="404.8" y="874" class="st1" width="34.1" height="7.6"/>
<rect x="405.7" y="880.4" width="2.7" height="1.1"/>
<rect x="405.7" y="880.4" class="st4" width="2.7" height="1.1"/>
<rect x="409.5" y="880.4" width="2.7" height="1.1"/>
<rect x="409.5" y="880.4" class="st4" width="2.7" height="1.1"/>
<rect x="413.2" y="880.4" width="2.5" height="1.1"/>
<rect x="413.2" y="880.4" class="st4" width="2.5" height="1.1"/>
<rect x="416.8" y="880.4" width="2.7" height="1.1"/>
<rect x="416.8" y="880.4" class="st4" width="2.7" height="1.1"/>
<rect x="420.6" y="880.4" width="2.5" height="1.1"/>
<rect x="420.6" y="880.4" class="st4" width="2.5" height="1.1"/>
<rect x="424.2" y="880.4" width="2.7" height="1.1"/>
<rect x="424.2" y="880.4" class="st4" width="2.7" height="1.1"/>
<rect x="428" y="880.4" width="2.5" height="1.1"/>
<rect x="428" y="880.4" class="st4" width="2.5" height="1.1"/>
<rect x="431.5" y="880.4" width="2.7" height="1.1"/>
<rect x="431.5" y="880.4" class="st4" width="2.7" height="1.1"/>
<rect x="435.3" y="880.4" width="2.7" height="1.1"/>
<rect x="435.3" y="880.4" class="st4" width="2.7" height="1.1"/>
<rect x="575.5" y="840.8" class="st0" width="18.5" height="33.2"/>
<rect x="575.5" y="840.8" class="st1" width="18.5" height="33.2"/>
<polyline class="st0" points="292.5,811.4 296.9,803.3 373.6,846.1 369.1,854.1 292.5,811.4 "/>
<polygon class="st1" points="292.5,811.4 296.9,803.3 373.6,846.1 369.1,854.1 "/>
<polyline class="st0" points="321.9,817.4 323.2,818 318.8,826.1 317.4,825.4 321.9,817.4 "/>
<polygon class="st1" points="321.9,817.4 323.2,818 318.8,826.1 317.4,825.4 "/>
<polyline class="st0" points="347.3,831.4 348.6,832.3 344.2,840.3 342.8,839.4 347.3,831.4 "/>
<polygon class="st1" points="347.3,831.4 348.6,832.3 344.2,840.3 342.8,839.4 "/>
<polyline class="st0" points="288.9,817.8 292.5,811.4 369.1,854.1 365.3,860.8 288.9,817.8 "/>
<polygon class="st1" points="288.9,817.8 292.5,811.4 369.1,854.1 365.3,860.8 "/>
<rect x="288.2" y="657.4" class="st0" width="90.2" height="7.6"/>
<rect x="288.2" y="657.4" class="st1" width="90.2" height="7.6"/>
<rect x="446.9" y="657.4" class="st0" width="128.6" height="7.6"/>
<rect x="446.9" y="657.4" class="st1" width="128.6" height="7.6"/>
<line class="st1" x1="283.6" y1="672.1" x2="283.6" y2="735.4"/>
<line class="st1" x1="288.2" y1="660.1" x2="351.3" y2="660.1"/>
<line class="st1" x1="338.2" y1="662.1" x2="365.3" y2="662.1"/>
<line class="st1" x1="446.9" y1="660.1" x2="519.1" y2="660.1"/>
<line class="st1" x1="479.6" y1="662.1" x2="535.8" y2="662.1"/>
<line class="st1" x1="598.6" y1="777.5" x2="598.6" y2="714.2"/>
<line class="st1" x1="290.2" y1="815.4" x2="366.7" y2="858.4"/>
<line class="st1" x1="404.8" y1="876.9" x2="438.9" y2="876.9"/>
<rect x="504.8" y="794.7" class="st0" width="15.6" height="31.6"/>
<rect x="504.8" y="794.7" class="st1" width="15.6" height="31.6"/>
<rect x="476.1" y="783.3" class="st0" width="15.8" height="54.1"/>
<rect x="476.1" y="783.3" class="st1" width="15.8" height="54.1"/>
<polyline class="st0" points="454.9,837.4 443.1,837.4 443.1,783.3 454.9,783.3 454.9,837.4 "/>
<rect x="443.1" y="783.3" class="st1" width="11.8" height="54.1"/>
<rect x="441.5" y="834.8" width="1.3" height="1.3"/>
<rect x="441.5" y="834.8" class="st4" width="1.3" height="1.3"/>
<rect x="441.5" y="784.8" width="1.3" height="1.3"/>
<rect x="441.5" y="784.8" class="st4" width="1.3" height="1.3"/>
<polyline class="st0" points="519.5,781.5 440,781.5 440,839.7 519.5,839.7 519.5,826.3 520.4,826.3 520.4,840.8 438.9,840.8 
	438.9,780.2 520.4,780.2 520.4,794.7 519.5,794.7 519.5,781.5 "/>
<polygon class="st1" points="519.5,781.5 440,781.5 440,839.7 519.5,839.7 519.5,826.3 520.4,826.3 520.4,840.8 438.9,840.8 
	438.9,780.2 520.4,780.2 520.4,794.7 519.5,794.7 "/>
<line class="st5" x1="448" y1="906.1" x2="448" y2="881.6"/>
<line class="st5" x1="487.4" y1="881.6" x2="487.4" y2="906.1"/>
<line class="st5" x1="500.6" y1="881.6" x2="500.6" y2="906.1"/>
<line class="st5" x1="443.8" y1="889.4" x2="570.6" y2="889.4"/>
<line class="st5" x1="461.2" y1="881.6" x2="461.2" y2="906.1"/>
<line class="st5" x1="474.3" y1="881.6" x2="474.3" y2="906.1"/>
<line class="st5" x1="513.7" y1="881.6" x2="513.7" y2="906.1"/>
<line class="st5" x1="526.9" y1="881.6" x2="526.9" y2="906.1"/>
<line class="st5" x1="540" y1="881.6" x2="540" y2="906.1"/>
<line class="st5" x1="553.2" y1="881.6" x2="553.2" y2="906.1"/>
<line class="st5" x1="566.3" y1="881.6" x2="566.3" y2="906.1"/>
<line class="st3" x1="438.9" y1="665" x2="438.9" y2="780.2"/>
<line class="st1" x1="404.8" y1="818.3" x2="404.8" y2="665"/>
<line class="st3" x1="520.4" y1="840.8" x2="575.5" y2="840.8"/>
<polyline class="st0" points="291.6,816.3 290.2,815.4 296.9,803.3 298.3,804.2 291.6,816.3 "/>
<polygon class="st1" points="291.6,816.3 290.2,815.4 296.9,803.3 298.3,804.2 "/>
<polyline class="st0" points="366.7,858.4 365.3,857.5 372.2,845.5 373.6,846.1 366.7,858.4 "/>
<polygon class="st1" points="366.7,858.4 365.3,857.5 372.2,845.5 373.6,846.1 "/>
<polyline class="st1" points="575.5,881.6 570.6,881.6 570.6,965.8 "/>
<line class="st1" x1="575.5" y1="942.6" x2="438.9" y2="942.6"/>
<line class="st1" x1="575.5" y1="954.2" x2="438.9" y2="954.2"/>
<line class="st1" x1="575.5" y1="965.8" x2="438.9" y2="965.8"/>
<line class="st1" x1="570.6" y1="929.2" x2="443.8" y2="929.2"/>
<line class="st1" x1="520.4" y1="965.8" x2="520.4" y2="977.4"/>
<line class="st1" x1="520.4" y1="977.4" x2="438.9" y2="977.4"/>
<line class="st1" x1="570.6" y1="952.4" x2="443.8" y2="952.4"/>
<line class="st1" x1="570.6" y1="964" x2="443.8" y2="964"/>
<line class="st1" x1="520.4" y1="975.6" x2="443.8" y2="975.6"/>
<line class="st1" x1="438.9" y1="881.6" x2="438.9" y2="977.4"/>
<line class="st1" x1="570.6" y1="940.8" x2="443.8" y2="940.8"/>
<line class="st3" x1="404.8" y1="874" x2="404.8" y2="818.3"/>
<line class="st1" x1="570.6" y1="906.1" x2="443.8" y2="906.1"/>
<line class="st1" x1="575.5" y1="907.8" x2="438.9" y2="907.8"/>
<line class="st1" x1="570.6" y1="917.7" x2="443.8" y2="917.7"/>
<line class="st1" x1="438.9" y1="810.7" x2="404.8" y2="810.7"/>
<line class="st1" x1="575.5" y1="919.4" x2="438.9" y2="919.4"/>
<line class="st1" x1="575.5" y1="931" x2="438.9" y2="931"/>
<line class="st1" x1="601.3" y1="631.1" x2="438.9" y2="631.1"/>
<line class="st1" x1="438.9" y1="840.8" x2="438.9" y2="874"/>
<line class="st1" x1="453.1" y1="874" x2="467.6" y2="840.8"/>
<line class="st1" x1="438.9" y1="780.2" x2="404.8" y2="780.2"/>
<line class="st1" x1="461.8" y1="840.8" x2="461.8" y2="853.9"/>
<line class="st1" x1="454.2" y1="840.8" x2="454.2" y2="871.8"/>
<line class="st1" x1="438.9" y1="787.7" x2="404.8" y2="787.7"/>
<line class="st1" x1="438.9" y1="795.5" x2="404.8" y2="795.5"/>
<line class="st1" x1="438.9" y1="803.1" x2="404.8" y2="803.1"/>
<line class="st1" x1="461.8" y1="853.9" x2="461.8" y2="874"/>
<line class="st1" x1="469.4" y1="840.8" x2="469.4" y2="874"/>
<line class="st1" x1="477.2" y1="840.8" x2="477.2" y2="874"/>
<line class="st1" x1="446.7" y1="840.8" x2="446.7" y2="874"/>
<line class="st1" x1="484.8" y1="840.8" x2="484.8" y2="874"/>
<line class="st1" x1="492.4" y1="840.8" x2="492.4" y2="874"/>
<line class="st1" x1="499.9" y1="840.8" x2="499.9" y2="874"/>
<line class="st1" x1="507.7" y1="840.8" x2="507.7" y2="874"/>
<line class="st1" x1="443.8" y1="977.4" x2="443.8" y2="881.6"/>
<line class="st1" x1="601.3" y1="713.8" x2="601.3" y2="631.1"/>
<line class="st1" x1="438.9" y1="818.3" x2="404.8" y2="818.3"/>
<line class="st1" x1="438.9" y1="631.1" x2="438.9" y2="645.4"/>
<polyline class="st1" points="438.9,645.4 405.4,645.4 404.8,645.4 "/>
<polyline class="st1" points="438.9,638.2 405.4,638.2 404.8,638.2 "/>
<polyline class="st1" points="438.9,631.1 405.4,631.1 404.8,631.1 "/>
<line class="st1" x1="575.5" y1="881.6" x2="575.5" y2="965.8"/>
<polyline class="st1" points="455.6,862.1 460.4,857.4 455.6,852.6 "/>
<polyline class="st0" points="484.3,755.2 484.3,689.5 510.6,689.5 510.6,755.2 484.3,755.2 "/>
<rect x="484.3" y="689.5" class="st1" width="26.3" height="65.7"/>
<rect x="510.6" y="739.2" class="st0" width="11.8" height="11.8"/>
<rect x="510.6" y="739.2" class="st1" width="11.8" height="11.8"/>
<rect x="472.5" y="739.2" class="st0" width="11.8" height="11.8"/>
<rect x="472.5" y="739.2" class="st1" width="11.8" height="11.8"/>
<rect x="510.6" y="724.5" class="st0" width="11.8" height="11.8"/>
<rect x="510.6" y="724.5" class="st1" width="11.8" height="11.8"/>
<rect x="472.5" y="724.5" class="st0" width="11.8" height="11.8"/>
<rect x="472.5" y="724.5" class="st1" width="11.8" height="11.8"/>
<rect x="510.6" y="709.1" class="st0" width="11.8" height="11.8"/>
<rect x="510.6" y="709.1" class="st1" width="11.8" height="11.8"/>
<rect x="472.5" y="709.1" class="st0" width="11.8" height="11.8"/>
<rect x="472.5" y="709.1" class="st1" width="11.8" height="11.8"/>
<rect x="510.6" y="693.7" class="st0" width="11.8" height="11.8"/>
<rect x="510.6" y="693.7" class="st1" width="11.8" height="11.8"/>
<rect x="472.5" y="693.7" class="st0" width="11.8" height="11.8"/>
<rect x="472.5" y="693.7" class="st1" width="11.8" height="11.8"/>
<line class="st1" x1="572.8" y1="857.3" x2="577.9" y2="857.3"/>
<line class="st1" x1="518" y1="810.5" x2="523.1" y2="810.5"/>
<path class="st1" d="M438.9,664.9h-2.1c0,3.9-0.8,7.8-2.3,11.5c-1.5,3.6-3.7,6.9-6.5,9.7c-2.8,2.8-6.1,5-9.7,6.5
	c-3.6,1.5-7.5,2.3-11.5,2.3v-30h-2.1"/>
<line class="st1" x1="601.3" y1="881.6" x2="601.3" y2="884"/>
<line class="st1" x1="601.3" y1="884" x2="601.3" y2="884.2"/>
<line class="st1" x1="600.9" y1="886.9" x2="600.2" y2="889.1"/>
<line class="st1" x1="600.2" y1="889.1" x2="600" y2="889.4"/>
<line class="st1" x1="599.1" y1="891.8" x2="598.2" y2="893.8"/>
<line class="st1" x1="598.2" y1="893.8" x2="598" y2="894.3"/>
<line class="st1" x1="596.6" y1="896.5" x2="595.5" y2="898"/>
<line class="st1" x1="595.5" y1="898" x2="595.1" y2="898.5"/>
<line class="st1" x1="593.3" y1="900.3" x2="592" y2="901.6"/>
<line class="st1" x1="592" y1="901.6" x2="591.3" y2="902.1"/>
<line class="st1" x1="589.1" y1="903.6" x2="587.7" y2="904.5"/>
<line class="st1" x1="587.7" y1="904.5" x2="586.8" y2="905"/>
<line class="st1" x1="584.4" y1="905.8" x2="582.8" y2="906.5"/>
<line class="st1" x1="582.8" y1="906.5" x2="581.9" y2="906.7"/>
<line class="st1" x1="579.3" y1="907.2" x2="577.9" y2="907.4"/>
<line class="st1" x1="577.9" y1="907.4" x2="576.6" y2="907.6"/>
<line class="st1" x1="573.9" y1="907.4" x2="572.8" y2="907.4"/>
<line class="st1" x1="572.8" y1="907.4" x2="571.2" y2="907.2"/>
<line class="st1" x1="568.6" y1="906.7" x2="567.9" y2="906.5"/>
<line class="st1" x1="567.9" y1="906.5" x2="566.1" y2="905.8"/>
<line class="st1" x1="563.7" y1="904.7" x2="563.2" y2="904.5"/>
<line class="st1" x1="563.2" y1="904.5" x2="561.4" y2="903.4"/>
<line class="st1" x1="559.2" y1="901.8" x2="559" y2="901.6"/>
<line class="st1" x1="559" y1="901.6" x2="557.2" y2="900.1"/>
<line class="st1" x1="555.4" y1="898" x2="553.9" y2="896"/>
<line class="st1" x1="553.9" y1="896" x2="553.9" y2="895.8"/>
<line class="st1" x1="552.3" y1="893.6" x2="551.4" y2="891.6"/>
<line class="st1" x1="551.4" y1="891.6" x2="551.2" y2="891.1"/>
<line class="st1" x1="550.3" y1="888.7" x2="549.8" y2="886.7"/>
<line class="st1" x1="549.8" y1="886.7" x2="549.8" y2="886"/>
<line class="st1" x1="549.6" y1="883.3" x2="549.4" y2="881.6"/>
<path class="st1" d="M549.4,881.5L549.4,881.5c0-3.8-0.7-7.6-2.2-11.1s-3.6-6.7-6.3-9.4c-2.7-2.7-5.9-4.8-9.4-6.3s-7.3-2.2-11.1-2.2
	v28.9"/>
<line class="st5" x1="443.8" y1="881.6" x2="570.6" y2="881.6"/>
<line class="st1" x1="549.4" y1="881.6" x2="575.5" y2="881.6"/>
<rect x="577.9" y="747" class="st0" width="12" height="11.8"/>
<rect x="577.9" y="747" class="st1" width="12" height="11.8"/>
<path class="st0" d="M583.1,799.3c0.2-0.3,0.3-0.6,0.3-0.9c0-0.3,0-0.6-0.2-0.9c-0.1-0.3-0.3-0.5-0.6-0.7s-0.6-0.3-0.9-0.3
	c-0.3,0-0.6,0-0.9,0.2c-0.3,0.1-0.5,0.3-0.7,0.6c-0.2,0.3-0.3,0.6-0.3,0.9s0,0.6,0.2,0.9c0.1,0.3,0.3,0.5,0.6,0.7
	c0.3,0.2,0.6,0.3,0.9,0.3c0.3,0,0.6,0,0.9-0.2C582.6,799.7,582.9,799.5,583.1,799.3"/>
<path class="st1" d="M583.1,799.3c0.2-0.3,0.3-0.6,0.3-0.9c0-0.3,0-0.6-0.2-0.9c-0.1-0.3-0.3-0.5-0.6-0.7s-0.6-0.3-0.9-0.3
	c-0.3,0-0.6,0-0.9,0.2c-0.3,0.1-0.5,0.3-0.7,0.6c-0.2,0.3-0.3,0.6-0.3,0.9s0,0.6,0.2,0.9c0.1,0.3,0.3,0.5,0.6,0.7
	c0.3,0.2,0.6,0.3,0.9,0.3c0.3,0,0.6,0,0.9-0.2C582.6,799.7,582.9,799.5,583.1,799.3"/>
<path class="st0" d="M589.2,797.1c-0.2-0.3-0.4-0.6-0.7-0.7c-0.3-0.2-0.7-0.3-1-0.3s-0.7,0.1-1,0.3c-0.3,0.2-0.6,0.4-0.7,0.7
	c-0.2,0.3-0.3,0.6-0.3,1c0,0.4,0.1,0.7,0.3,1c0.2,0.3,0.4,0.6,0.7,0.7c0.3,0.2,0.6,0.3,1,0.3s0.7-0.1,1-0.3c0.3-0.2,0.6-0.4,0.7-0.7
	c0.2-0.3,0.3-0.6,0.3-1C589.5,797.7,589.4,797.4,589.2,797.1"/>
<path class="st1" d="M589.2,797.1c-0.2-0.3-0.4-0.6-0.7-0.7c-0.3-0.2-0.7-0.3-1-0.3s-0.7,0.1-1,0.3c-0.3,0.2-0.6,0.4-0.7,0.7
	c-0.2,0.3-0.3,0.6-0.3,1c0,0.4,0.1,0.7,0.3,1c0.2,0.3,0.4,0.6,0.7,0.7c0.3,0.2,0.6,0.3,1,0.3s0.7-0.1,1-0.3c0.3-0.2,0.6-0.4,0.7-0.7
	c0.2-0.3,0.3-0.6,0.3-1C589.5,797.7,589.4,797.4,589.2,797.1"/>
<path class="st0" d="M580,804.4c0.2,0.3,0.4,0.6,0.7,0.7c0.3,0.2,0.6,0.3,1,0.3s0.7-0.1,1-0.3c0.3-0.2,0.6-0.4,0.7-0.7
	c0.2-0.3,0.3-0.7,0.3-1c0-0.4-0.1-0.7-0.3-1c-0.2-0.3-0.4-0.6-0.7-0.7c-0.3-0.2-0.7-0.3-1-0.3c-0.4,0-0.7,0.1-1,0.3
	c-0.3,0.2-0.6,0.4-0.7,0.7c-0.2,0.3-0.3,0.6-0.3,1C579.8,803.8,579.9,804.1,580,804.4"/>
<path class="st1" d="M580,804.4c0.2,0.3,0.4,0.6,0.7,0.7c0.3,0.2,0.6,0.3,1,0.3s0.7-0.1,1-0.3c0.3-0.2,0.6-0.4,0.7-0.7
	c0.2-0.3,0.3-0.7,0.3-1c0-0.4-0.1-0.7-0.3-1c-0.2-0.3-0.4-0.6-0.7-0.7c-0.3-0.2-0.7-0.3-1-0.3c-0.4,0-0.7,0.1-1,0.3
	c-0.3,0.2-0.6,0.4-0.7,0.7c-0.2,0.3-0.3,0.6-0.3,1C579.8,803.8,579.9,804.1,580,804.4"/>
<line class="st1" x1="581.7" y1="805.3" x2="581.7" y2="805.3"/>
<path class="st0" d="M589.2,804.6c0.2-0.3,0.3-0.6,0.3-0.9s0-0.6-0.2-0.9c-0.1-0.3-0.3-0.5-0.6-0.7c-0.3-0.2-0.6-0.3-0.9-0.3
	c-0.3,0-0.6,0-0.9,0.2c-0.3,0.1-0.5,0.3-0.7,0.6s-0.3,0.6-0.3,0.9c0,0.3,0,0.6,0.2,0.9c0.1,0.3,0.3,0.5,0.6,0.7s0.6,0.3,0.9,0.3
	c0.3,0,0.6,0,0.9-0.2C588.8,805.1,589,804.9,589.2,804.6"/>
<path class="st1" d="M589.2,804.6c0.2-0.3,0.3-0.6,0.3-0.9s0-0.6-0.2-0.9c-0.1-0.3-0.3-0.5-0.6-0.7c-0.3-0.2-0.6-0.3-0.9-0.3
	c-0.3,0-0.6,0-0.9,0.2c-0.3,0.1-0.5,0.3-0.7,0.6s-0.3,0.6-0.3,0.9c0,0.3,0,0.6,0.2,0.9c0.1,0.3,0.3,0.5,0.6,0.7s0.6,0.3,0.9,0.3
	c0.3,0,0.6,0,0.9-0.2C588.8,805.1,589,804.9,589.2,804.6"/>
<line class="st1" x1="452.2" y1="810.5" x2="457.6" y2="810.5"/>
<polyline class="st4" points="280.9,659.4 280.9,604.8 404.8,604.8 404.8,657.4 "/>
<line class="st1" x1="473.4" y1="810.5" x2="478.8" y2="810.5"/>
<polyline points="554.1,891.6 549.4,886.8 544.7,891.6 554.1,891.6 "/>
<polyline class="st1" points="554.1,891.6 549.4,886.8 544.7,891.6 554.1,891.6 "/>
<line class="st1" x1="452.2" y1="796.9" x2="457.6" y2="796.9"/>
<line class="st1" x1="452.2" y1="824.1" x2="457.6" y2="824.1"/>
<line class="st1" x1="473.4" y1="796.9" x2="478.8" y2="796.9"/>
<line class="st1" x1="473.4" y1="824.1" x2="478.8" y2="824.1"/>
<polyline class="st1" points="417.1,813.6 421.8,818.3 426.6,813.6 "/>
<polyline class="st1" points="417.5,640.5 422.2,645.3 427,640.5 "/>
<line class="st1" x1="404.8" y1="699.7" x2="407" y2="699.7"/>
<line class="st1" x1="409.7" y1="699.7" x2="412.4" y2="699.7"/>
<line class="st1" x1="415" y1="699.7" x2="417.7" y2="699.7"/>
<line class="st1" x1="420.4" y1="699.7" x2="423.1" y2="699.7"/>
<line class="st1" x1="425.7" y1="699.7" x2="428.4" y2="699.7"/>
<line class="st1" x1="431.1" y1="699.7" x2="433.7" y2="699.7"/>
<line class="st1" x1="436.4" y1="699.7" x2="438.9" y2="699.7"/>
<line class="st1" x1="404.8" y1="734.5" x2="407" y2="734.5"/>
<line class="st1" x1="409.7" y1="734.5" x2="412.4" y2="734.5"/>
<line class="st1" x1="415" y1="734.5" x2="417.7" y2="734.5"/>
<line class="st1" x1="420.4" y1="734.5" x2="423.1" y2="734.5"/>
<line class="st1" x1="425.7" y1="734.5" x2="428.4" y2="734.5"/>
<line class="st1" x1="431.1" y1="734.5" x2="433.7" y2="734.5"/>
<line class="st1" x1="436.4" y1="734.5" x2="438.9" y2="734.5"/>
<line class="st1" x1="404.8" y1="769.5" x2="407" y2="769.5"/>
<line class="st1" x1="409.7" y1="769.5" x2="412.4" y2="769.5"/>
<line class="st1" x1="415" y1="769.5" x2="417.7" y2="769.5"/>
<line class="st1" x1="420.4" y1="769.5" x2="423.1" y2="769.5"/>
<line class="st1" x1="425.7" y1="769.5" x2="428.4" y2="769.5"/>
<line class="st1" x1="431.1" y1="769.5" x2="433.7" y2="769.5"/>
<line class="st1" x1="436.4" y1="769.5" x2="438.9" y2="769.5"/>
<line class="st1" x1="404.8" y1="839.2" x2="407" y2="839.2"/>
<line class="st1" x1="409.7" y1="839.2" x2="412.4" y2="839.2"/>
<line class="st1" x1="415" y1="839.2" x2="417.7" y2="839.2"/>
<line class="st1" x1="420.4" y1="839.2" x2="423.1" y2="839.2"/>
<line class="st1" x1="425.7" y1="839.2" x2="428.4" y2="839.2"/>
<line class="st1" x1="431.1" y1="839.2" x2="433.7" y2="839.2"/>
<line class="st1" x1="436.4" y1="839.2" x2="438.9" y2="839.2"/>
<line class="st1" x1="404.8" y1="665" x2="407" y2="665"/>
<line class="st1" x1="409.7" y1="665" x2="412.4" y2="665"/>
<line class="st1" x1="415" y1="665" x2="417.7" y2="665"/>
<line class="st1" x1="420.4" y1="665" x2="423.1" y2="665"/>
<line class="st1" x1="425.7" y1="665" x2="428.4" y2="665"/>
<line class="st1" x1="431.1" y1="665" x2="433.7" y2="665"/>
<line class="st1" x1="436.4" y1="665" x2="438.9" y2="665"/>
<polyline class="st6" points="234.7,1006.1 239.7,553.3 650.3,553.3 645.3,1006.1 "/>
<rect x="856.8" y="782.2" class="st2" width="48.8" height="53.3"/>
<rect x="856.8" y="782.2" class="st3" width="48.8" height="53.3"/>
<rect x="804.4" y="665" class="st0" width="12.5" height="153.3"/>
<rect x="804.4" y="665" class="st1" width="12.5" height="153.3"/>
<polyline points="693,813.4 693,657.4 816.9,657.4 816.9,665 700.4,665 700.4,809.1 816.7,874 816.9,874 816.9,881.6 814.7,881.6 
	693,813.4 "/>
<polygon class="st4" points="693,813.4 693,657.4 816.9,657.4 816.9,665 700.4,665 700.4,809.1 816.7,874 816.9,874 816.9,881.6 
	814.7,881.6 "/>
<polyline points="1013.5,874 851,874 851,881.6 880.7,881.6 880.7,879.6 904.5,879.6 904.5,881.6 1013.5,881.6 1013.5,874 "/>
<polygon class="st4" points="1013.5,874 851,874 851,881.6 880.7,881.6 880.7,879.6 904.5,879.6 904.5,881.6 1013.5,881.6 "/>
<polyline points="851,665 851,657.4 1013.5,657.4 1013.5,714.2 1006.1,714.2 1006.1,665 851,665 "/>
<polygon class="st4" points="851,665 851,657.4 1013.5,657.4 1013.5,714.2 1006.1,714.2 1006.1,665 "/>
<rect x="1006.1" y="665" class="st0" width="7.4" height="209"/>
<rect x="1006.1" y="665" class="st1" width="7.4" height="209"/>
<rect x="816.9" y="874" class="st0" width="34.1" height="7.6"/>
<rect x="816.9" y="874" class="st1" width="34.1" height="7.6"/>
<rect x="818" y="880.4" width="2.5" height="1.1"/>
<rect x="818" y="880.4" class="st4" width="2.5" height="1.1"/>
<rect x="821.6" y="880.4" width="2.7" height="1.1"/>
<rect x="821.6" y="880.4" class="st4" width="2.7" height="1.1"/>
<rect x="825.4" y="880.4" width="2.5" height="1.1"/>
<rect x="825.4" y="880.4" class="st4" width="2.5" height="1.1"/>
<rect x="829" y="880.4" width="2.7" height="1.1"/>
<rect x="829" y="880.4" class="st4" width="2.7" height="1.1"/>
<rect x="832.7" y="880.4" width="2.7" height="1.1"/>
<rect x="832.7" y="880.4" class="st4" width="2.7" height="1.1"/>
<rect x="836.3" y="880.4" width="2.7" height="1.1"/>
<rect x="836.3" y="880.4" class="st4" width="2.7" height="1.1"/>
<rect x="840.1" y="880.4" width="2.7" height="1.1"/>
<rect x="840.1" y="880.4" class="st4" width="2.7" height="1.1"/>
<rect x="843.7" y="880.4" width="2.7" height="1.1"/>
<rect x="843.7" y="880.4" class="st4" width="2.7" height="1.1"/>
<rect x="847.4" y="880.4" width="2.7" height="1.1"/>
<rect x="847.4" y="880.4" class="st4" width="2.7" height="1.1"/>
<polyline class="st0" points="704.6,811.4 709.1,803.3 785.7,846.1 781.3,854.1 704.6,811.4 "/>
<polygon class="st1" points="704.6,811.4 709.1,803.3 785.7,846.1 781.3,854.1 "/>
<line class="st1" x1="702.4" y1="815.4" x2="779" y2="858.4"/>
<line class="st1" x1="816.9" y1="876.9" x2="851" y2="876.9"/>
<line class="st5" x1="860.2" y1="906.1" x2="860.2" y2="881.6"/>
<line class="st5" x1="899.6" y1="881.6" x2="899.6" y2="906.1"/>
<line class="st5" x1="912.7" y1="881.6" x2="912.7" y2="906.1"/>
<line class="st5" x1="855.9" y1="889.4" x2="982.9" y2="889.4"/>
<line class="st5" x1="873.3" y1="881.6" x2="873.3" y2="906.1"/>
<line class="st5" x1="886.4" y1="881.6" x2="886.4" y2="906.1"/>
<line class="st5" x1="925.9" y1="881.6" x2="925.9" y2="906.1"/>
<line class="st5" x1="939" y1="881.6" x2="939" y2="906.1"/>
<line class="st5" x1="952.2" y1="881.6" x2="952.2" y2="906.1"/>
<line class="st5" x1="965.3" y1="881.6" x2="965.3" y2="906.1"/>
<line class="st5" x1="978.5" y1="881.6" x2="978.5" y2="906.1"/>
<line class="st1" x1="851" y1="665" x2="851" y2="780.2"/>
<line class="st1" x1="816.9" y1="818.3" x2="816.9" y2="665"/>
<line class="st1" x1="932.8" y1="881.6" x2="982.9" y2="881.6"/>
<polyline class="st1" points="987.6,881.6 982.9,881.6 982.9,965.8 "/>
<line class="st1" x1="959.5" y1="880.2" x2="987.6" y2="880.2"/>
<line class="st1" x1="987.6" y1="942.6" x2="851" y2="942.6"/>
<line class="st1" x1="987.6" y1="954.2" x2="851" y2="954.2"/>
<line class="st1" x1="987.6" y1="965.8" x2="851" y2="965.8"/>
<line class="st1" x1="982.9" y1="929.2" x2="855.9" y2="929.2"/>
<line class="st1" x1="932.8" y1="965.8" x2="932.8" y2="977.4"/>
<line class="st1" x1="932.8" y1="977.4" x2="851" y2="977.4"/>
<line class="st1" x1="982.9" y1="952.4" x2="855.9" y2="952.4"/>
<line class="st1" x1="982.9" y1="964" x2="855.9" y2="964"/>
<line class="st1" x1="932.8" y1="975.6" x2="855.9" y2="975.6"/>
<line class="st1" x1="851" y1="881.6" x2="851" y2="977.4"/>
<line class="st1" x1="982.9" y1="940.8" x2="855.9" y2="940.8"/>
<line class="st3" x1="816.9" y1="874" x2="816.9" y2="818.3"/>
<line class="st1" x1="982.9" y1="906.1" x2="855.9" y2="906.1"/>
<line class="st1" x1="987.6" y1="907.8" x2="851" y2="907.8"/>
<line class="st1" x1="982.9" y1="917.7" x2="855.9" y2="917.7"/>
<line class="st1" x1="851" y1="810.7" x2="816.9" y2="810.7"/>
<line class="st1" x1="987.6" y1="919.4" x2="851" y2="919.4"/>
<line class="st1" x1="987.6" y1="931" x2="851" y2="931"/>
<polyline class="st4" points="693,659.4 693,604.8 816.9,604.8 816.9,657.4 "/>
<line class="st1" x1="1013.5" y1="631.1" x2="851" y2="631.1"/>
<line class="st1" x1="851" y1="840.8" x2="851" y2="874"/>
<line class="st1" x1="851" y1="780.2" x2="816.9" y2="780.2"/>
<line class="st1" x1="874" y1="840.8" x2="874" y2="853.9"/>
<line class="st1" x1="866.4" y1="840.8" x2="866.4" y2="874"/>
<line class="st1" x1="851" y1="787.7" x2="816.9" y2="787.7"/>
<line class="st1" x1="851" y1="795.5" x2="816.9" y2="795.5"/>
<line class="st1" x1="851" y1="803.1" x2="816.9" y2="803.1"/>
<line class="st1" x1="874" y1="853.9" x2="874" y2="874"/>
<line class="st1" x1="881.5" y1="840.8" x2="881.5" y2="874"/>
<line class="st1" x1="889.3" y1="840.8" x2="889.3" y2="874"/>
<line class="st1" x1="858.8" y1="840.8" x2="858.8" y2="874"/>
<line class="st1" x1="896.9" y1="840.8" x2="896.9" y2="874"/>
<line class="st1" x1="904.5" y1="840.8" x2="904.5" y2="874"/>
<line class="st1" x1="912.1" y1="840.8" x2="912.1" y2="874"/>
<line class="st1" x1="919.9" y1="840.8" x2="919.9" y2="874"/>
<line class="st1" x1="855.9" y1="977.4" x2="855.9" y2="881.6"/>
<line class="st1" x1="1013.5" y1="713.8" x2="1013.5" y2="631.1"/>
<line class="st1" x1="851" y1="818.3" x2="816.9" y2="818.3"/>
<line class="st1" x1="851" y1="631.1" x2="851" y2="645.4"/>
<polyline class="st1" points="851,645.4 817.6,645.4 816.9,645.4 "/>
<polyline class="st1" points="851,638.2 817.6,638.2 816.9,638.2 "/>
<polyline class="st1" points="851,631.1 817.6,631.1 816.9,631.1 "/>
<line class="st1" x1="987.6" y1="881.6" x2="987.6" y2="965.8"/>
<rect x="908.3" y="684.8" class="st0" width="42.3" height="52.8"/>
<rect x="908.3" y="684.8" class="st1" width="42.3" height="52.8"/>
<rect x="929.9" y="657.4" class="st0" width="23.8" height="7.6"/>
<rect x="929.9" y="657.4" class="st1" width="23.8" height="7.6"/>
<rect x="904.5" y="874" class="st0" width="23" height="7.6"/>
<rect x="904.5" y="874" class="st1" width="23" height="7.6"/>
<line class="st1" x1="927.4" y1="840.8" x2="927.4" y2="874"/>
<rect x="816.9" y="657.4" class="st0" width="34.1" height="7.6"/>
<rect x="816.9" y="657.4" class="st1" width="34.1" height="7.6"/>
<line class="st1" x1="904.5" y1="876.9" x2="927.4" y2="876.9"/>
<rect x="818" y="657.4" width="2.5" height="1.1"/>
<rect x="818" y="657.4" class="st4" width="2.5" height="1.1"/>
<rect x="821.6" y="657.4" width="2.7" height="1.1"/>
<rect x="821.6" y="657.4" class="st4" width="2.7" height="1.1"/>
<rect x="825.4" y="657.4" width="2.5" height="1.1"/>
<rect x="825.4" y="657.4" class="st4" width="2.5" height="1.1"/>
<rect x="829" y="657.4" width="2.7" height="1.1"/>
<rect x="829" y="657.4" class="st4" width="2.7" height="1.1"/>
<rect x="832.7" y="657.4" width="2.7" height="1.1"/>
<rect x="832.7" y="657.4" class="st4" width="2.7" height="1.1"/>
<rect x="836.3" y="657.4" width="2.7" height="1.1"/>
<rect x="836.3" y="657.4" class="st4" width="2.7" height="1.1"/>
<rect x="840.1" y="657.4" width="2.7" height="1.1"/>
<rect x="840.1" y="657.4" class="st4" width="2.7" height="1.1"/>
<rect x="843.7" y="657.4" width="2.7" height="1.1"/>
<rect x="843.7" y="657.4" class="st4" width="2.7" height="1.1"/>
<rect x="847.4" y="657.4" width="2.7" height="1.1"/>
<rect x="847.4" y="657.4" class="st4" width="2.7" height="1.1"/>
<line class="st1" x1="816.9" y1="662.1" x2="851" y2="662.1"/>
<line class="st1" x1="929.9" y1="662.1" x2="953.7" y2="662.1"/>
<line class="st1" x1="1010.8" y1="665" x2="1010.8" y2="874"/>
<rect x="882.7" y="780.2" class="st0" width="79.6" height="1.1"/>
<rect x="882.7" y="780.2" class="st1" width="79.6" height="1.1"/>
<rect x="882.7" y="839.7" class="st0" width="79.6" height="1.1"/>
<rect x="882.7" y="839.7" class="st1" width="79.6" height="1.1"/>
<polyline points="946.4,782.2 946.4,784 930.6,784 930.6,837 946.4,837 946.4,838.5 851,838.5 851,782.2 871.3,782.2 871.3,785.5 
	856.8,785.5 856.8,835.4 926.6,835.4 926.6,782.2 946.4,782.2 "/>
<polygon class="st4" points="946.4,782.2 946.4,784 930.6,784 930.6,837 946.4,837 946.4,838.5 851,838.5 851,782.2 871.3,782.2 
	871.3,785.5 856.8,785.5 856.8,835.4 926.6,835.4 926.6,782.2 "/>
<rect x="856.8" y="785.5" class="st0" width="14.5" height="26.3"/>
<rect x="856.8" y="785.5" class="st1" width="14.5" height="26.3"/>
<rect x="862.2" y="788" class="st0" width="6.7" height="10.7"/>
<rect x="862.2" y="788" class="st1" width="6.7" height="10.7"/>
<rect x="905.6" y="782.2" class="st1" width="20.9" height="53.3"/>
<path class="st1" d="M917,808.2c0-0.5-0.4-0.9-0.9-0.9s-0.9,0.4-0.9,0.9s0.4,0.9,0.9,0.9S917,808.7,917,808.2"/>
<path class="st1" d="M907.5,792.8v31c0,1.1,0.2,2.3,0.7,3.3c0.4,1,1.1,2,1.9,2.8s1.7,1.4,2.8,1.9c1,0.4,2.2,0.7,3.3,0.7
	c1.1,0,2.2-0.2,3.3-0.7c1-0.4,2-1.1,2.8-1.9s1.4-1.7,1.9-2.8c0.4-1,0.7-2.2,0.7-3.3v-31c0-1.1-0.2-2.2-0.7-3.3c-0.4-1-1.1-2-1.9-2.8
	s-1.7-1.4-2.8-1.9c-1-0.4-2.2-0.7-3.3-0.7c-1.1,0-2.3,0.2-3.3,0.7c-1,0.4-2,1.1-2.8,1.9s-1.4,1.7-1.9,2.8S907.5,791.7,907.5,792.8
	v31"/>
<rect x="930.6" y="784" class="st0" width="15.8" height="53"/>
<rect x="930.6" y="784" class="st1" width="15.8" height="53"/>
<line class="st1" x1="943.7" y1="810.5" x2="949.1" y2="810.5"/>
<rect x="990.3" y="784" class="st0" width="15.8" height="53"/>
<rect x="990.3" y="784" class="st1" width="15.8" height="53"/>
<line class="st1" x1="987.6" y1="810.5" x2="993" y2="810.5"/>
<path class="st0" d="M866.7,819h-9.8v9.2h9.8c0.6,0,1.2-0.1,1.8-0.3c0.6-0.2,1.1-0.6,1.5-1s0.8-0.9,1-1.5s0.4-1.2,0.4-1.8
	c0-0.6-0.1-1.2-0.4-1.8c-0.2-0.6-0.6-1.1-1-1.5s-0.9-0.8-1.5-1C867.9,819.1,867.3,819,866.7,819"/>
<path class="st1" d="M866.7,819h-9.8v9.2h9.8c0.6,0,1.2-0.1,1.8-0.3c0.6-0.2,1.1-0.6,1.5-1s0.8-0.9,1-1.5s0.4-1.2,0.4-1.8
	c0-0.6-0.1-1.2-0.4-1.8c-0.2-0.6-0.6-1.1-1-1.5s-0.9-0.8-1.5-1C867.9,819.1,867.3,819,866.7,819"/>
<line class="st1" x1="859.5" y1="818.9" x2="859.5" y2="828.3"/>
<rect x="700.4" y="649.4" class="st0" width="89.6" height="8"/>
<rect x="700.4" y="649.4" class="st1" width="89.6" height="8"/>
<rect x="1006.1" y="831.4" width="7.4" height="1.6"/>
<rect x="1006.1" y="831.4" class="st4" width="7.4" height="1.6"/>
<rect x="1006.1" y="789.5" width="7.4" height="1.6"/>
<rect x="1006.1" y="789.5" class="st4" width="7.4" height="1.6"/>
<rect x="1006.1" y="747.9" width="7.4" height="1.6"/>
<rect x="1006.1" y="747.9" class="st4" width="7.4" height="1.6"/>
<rect x="1006.1" y="706" width="7.4" height="1.6"/>
<rect x="1006.1" y="706" class="st4" width="7.4" height="1.6"/>
<rect x="851" y="881.6" class="st0" width="136.6" height="7.8"/>
<rect x="851" y="881.6" class="st1" width="136.6" height="7.8"/>
<polyline class="st0" points="851,666.1 861.7,666.1 861.7,778.8 851,778.8 851,666.1 "/>
<rect x="851" y="666.1" class="st1" width="10.7" height="112.8"/>
<rect x="858.6" y="649.4" class="st0" width="128.6" height="8"/>
<rect x="858.6" y="649.4" class="st1" width="128.6" height="8"/>
<line class="st1" x1="851" y1="780.2" x2="851" y2="782.2"/>
<line class="st1" x1="851" y1="840.8" x2="895.8" y2="840.8"/>
<rect x="881.5" y="880.4" class="st0" width="23" height="1.1"/>
<rect x="881.5" y="880.4" class="st1" width="23" height="1.1"/>
<line class="st1" x1="816.9" y1="699.7" x2="819.1" y2="699.7"/>
<line class="st1" x1="821.8" y1="699.7" x2="824.5" y2="699.7"/>
<line class="st1" x1="827.2" y1="699.7" x2="829.8" y2="699.7"/>
<line class="st1" x1="832.5" y1="699.7" x2="835.2" y2="699.7"/>
<line class="st1" x1="837.9" y1="699.7" x2="840.5" y2="699.7"/>
<line class="st1" x1="843.2" y1="699.7" x2="845.9" y2="699.7"/>
<line class="st1" x1="848.6" y1="699.7" x2="851" y2="699.7"/>
<line class="st1" x1="816.9" y1="734.5" x2="819.1" y2="734.5"/>
<line class="st1" x1="821.8" y1="734.5" x2="824.5" y2="734.5"/>
<line class="st1" x1="827.2" y1="734.5" x2="829.8" y2="734.5"/>
<line class="st1" x1="832.5" y1="734.5" x2="835.2" y2="734.5"/>
<line class="st1" x1="837.9" y1="734.5" x2="840.5" y2="734.5"/>
<line class="st1" x1="843.2" y1="734.5" x2="845.9" y2="734.5"/>
<line class="st1" x1="848.6" y1="734.5" x2="851" y2="734.5"/>
<line class="st1" x1="816.9" y1="769.5" x2="819.1" y2="769.5"/>
<line class="st1" x1="821.8" y1="769.5" x2="824.5" y2="769.5"/>
<line class="st1" x1="827.2" y1="769.5" x2="829.8" y2="769.5"/>
<line class="st1" x1="832.5" y1="769.5" x2="835.2" y2="769.5"/>
<line class="st1" x1="837.9" y1="769.5" x2="840.5" y2="769.5"/>
<line class="st1" x1="843.2" y1="769.5" x2="845.9" y2="769.5"/>
<line class="st1" x1="848.6" y1="769.5" x2="851" y2="769.5"/>
<line class="st1" x1="816.9" y1="839.2" x2="819.1" y2="839.2"/>
<line class="st1" x1="821.8" y1="839.2" x2="824.5" y2="839.2"/>
<line class="st1" x1="827.2" y1="839.2" x2="829.8" y2="839.2"/>
<line class="st1" x1="832.5" y1="839.2" x2="835.2" y2="839.2"/>
<line class="st1" x1="837.9" y1="839.2" x2="840.5" y2="839.2"/>
<line class="st1" x1="843.2" y1="839.2" x2="845.9" y2="839.2"/>
<line class="st1" x1="848.6" y1="839.2" x2="851" y2="839.2"/>
<polyline class="st1" points="922.7,862.1 927.4,857.4 922.7,852.6 "/>
<polyline class="st1" points="829.3,813.6 834,818.3 838.7,813.6 "/>
<polyline class="st1" points="829.7,640.5 834.4,645.3 839.1,640.5 "/>
<polyline class="st6" points="664.9,1021.7 664.9,571.8 1052,571.8 1052,1021.7 "/>
<g class="st7">
	<path d="M297.5,980.4h-3.2c-0.1,0-0.2,0-0.3,0l0,0c0,0.1,0,0.2,0,0.3v1.5c0,0.1,0,0.2,0,0.3l0,0c0.1,0,0.2,0,0.3,0h2.8v1.2h-2.8
		c-0.1,0-0.2,0-0.3,0l0,0c0,0.1,0,0.2,0,0.3v2.2c0,0.2,0,0.3,0,0.3l0,0c0.1,0,0.2,0,0.3,0h3.3v1.2h-4.8v-8.4h4.8V980.4z"/>
	<path d="M306,980.2l-0.8,1c-0.5-0.5-1.4-0.9-2.4-0.9c-1.8,0-3,1.3-3,3.1c0,1.8,1.2,3.1,3.1,3.1c1.9,0,2.8-1.4,2.8-2.4l0,0
		c-0.1,0.1-0.3,0.1-0.8,0.1h-2V983h4.2v0.5c0,2.2-1.4,4.4-4.2,4.4c-2.5,0-4.4-1.7-4.4-4.4c0-2.6,1.8-4.4,4.4-4.4
		C304.2,979,305.2,979.6,306,980.2z"/>
</g>
<text transform="matrix(1.0039 0 0 1 693.0254 987.6235)" class="st8 st9">O</text>
<g class="st7">
	<path d="M709.5,980.7l-0.8,1c-0.5-0.5-1.3-0.8-2.3-0.8c-1.7,0-2.8,1.2-2.8,2.9c0,1.7,1.2,2.9,2.9,2.9c1.8,0,2.6-1.3,2.7-2.3l0,0
		c-0.1,0.1-0.3,0.1-0.7,0.1h-1.9v-1.1h3.9v0.4c0,2-1.3,4-3.9,4c-2.4,0-4.1-1.6-4.1-4c0-2.4,1.7-4.1,4.1-4.1
		C707.8,979.7,708.8,980.1,709.5,980.7z"/>
</g>
<polyline class="st1" points="46.7,863.4 51.4,858.6 46.7,853.9 "/>
<rect x="30" y="784.9" class="st2" width="61.7" height="57"/>
<rect x="30" y="784.9" class="st3" width="61.7" height="57"/>
<polyline points="65.6,784.9 85,784.9 85,788.9 91.7,788.9 91.7,837.7 34.4,837.7 34.4,784.9 47.3,784.9 47.3,781.5 30,781.5 
	30,841.9 91.7,841.9 91.7,875.4 -4.4,875.4 -9.9,872.2 -13.7,878.7 -6.4,882.9 185,882.9 192.4,882.9 192.4,821 187.5,821 185,821 
	185,875.4 98.8,875.4 98.8,788.9 125.6,788.9 125.6,784 125.6,781.5 85,781.5 85,692.4 78.5,692.4 78.5,781.5 65.6,781.5 
	65.6,784.9 "/>
<polygon class="st4" points="65.6,784.9 85,784.9 85,788.9 91.7,788.9 91.7,837.7 34.4,837.7 34.4,784.9 47.3,784.9 47.3,781.5 
	30,781.5 30,841.9 91.7,841.9 91.7,875.4 -4.4,875.4 -9.9,872.2 -13.7,878.7 -6.4,882.9 185,882.9 192.4,882.9 192.4,821 187.5,821 
	185,821 185,875.4 98.8,875.4 98.8,788.9 125.6,788.9 125.6,784 125.6,781.5 85,781.5 85,692.4 78.5,692.4 78.5,781.5 65.6,781.5 
	"/>
<polyline points="187.5,805.2 192.4,805.2 192.4,776.9 185,776.9 185,781.5 146.7,781.5 146.7,784 146.7,788.9 185,788.9 185,805.2 
	187.5,805.2 "/>
<polygon class="st4" points="187.5,805.2 192.4,805.2 192.4,776.9 185,776.9 185,781.5 146.7,781.5 146.7,784 146.7,788.9 
	185,788.9 185,805.2 "/>
<polyline points="192.4,730.7 185,730.7 185,759.7 192.4,759.7 192.4,730.7 "/>
<rect x="185" y="730.7" class="st4" width="7.4" height="29"/>
<polyline points="-11.7,666.1 185,666.1 185,713.6 192.4,713.6 192.4,666.1 192.4,658.5 -4.1,658.5 -4.1,605.9 -11.7,605.9 
	-11.7,666.1 "/>
<polygon class="st4" points="-11.7,666.1 185,666.1 185,713.6 192.4,713.6 192.4,666.1 192.4,658.5 -4.1,658.5 -4.1,605.9 
	-11.7,605.9 "/>
<polyline points="-128,605.9 -120.7,605.9 -120.7,696.9 -128,696.9 -128,605.9 "/>
<rect x="-128" y="605.9" class="st4" width="7.4" height="90.9"/>
<polyline points="-128,814.7 -43.6,862 -39.8,855.5 -120.7,810.3 -120.7,807.2 -128,807.2 -128,814.7 "/>
<polygon class="st4" points="-128,814.7 -43.6,862 -39.8,855.5 -120.7,810.3 -120.7,807.2 -128,807.2 "/>
<polyline points="-48.3,821.4 -48.3,802 -49.8,802 -49.8,765.5 -120.7,765.5 -120.7,733.9 -128,733.9 -128,772.9 -53.6,772.9 
	-53.6,821.4 -48.3,821.4 "/>
<polygon class="st4" points="-48.3,821.4 -48.3,802 -49.8,802 -49.8,765.5 -120.7,765.5 -120.7,733.9 -128,733.9 -128,772.9 
	-53.6,772.9 -53.6,821.4 "/>
<rect x="-120.7" y="605.9" class="st0" width="109" height="7.6"/>
<rect x="-120.7" y="605.9" class="st1" width="109" height="7.6"/>
<line class="st1" x1="30" y1="812.1" x2="-4.1" y2="812.1"/>
<line class="st1" x1="30" y1="841.9" x2="30" y2="875.4"/>
<line class="st1" x1="44.2" y1="875.4" x2="58.7" y2="841.9"/>
<line class="st1" x1="30" y1="781.5" x2="-4.1" y2="781.5"/>
<line class="st1" x1="52.9" y1="841.9" x2="52.9" y2="855.3"/>
<line class="st1" x1="45.3" y1="841.9" x2="45.3" y2="872.9"/>
<line class="st1" x1="30" y1="789.1" x2="-4.1" y2="789.1"/>
<line class="st1" x1="30" y1="796.7" x2="-4.1" y2="796.7"/>
<line class="st1" x1="30" y1="804.3" x2="-4.1" y2="804.3"/>
<line class="st1" x1="52.9" y1="855.3" x2="52.9" y2="856"/>
<line class="st1" x1="52.9" y1="858.6" x2="52.9" y2="861.3"/>
<line class="st1" x1="52.9" y1="864" x2="52.9" y2="866.7"/>
<line class="st1" x1="52.9" y1="869.3" x2="52.9" y2="872"/>
<line class="st1" x1="52.9" y1="874.7" x2="52.9" y2="875.4"/>
<line class="st1" x1="60.5" y1="841.9" x2="60.5" y2="843.9"/>
<line class="st1" x1="60.5" y1="846.6" x2="60.5" y2="849.3"/>
<line class="st1" x1="60.5" y1="852" x2="60.5" y2="854.6"/>
<line class="st1" x1="60.5" y1="857.3" x2="60.5" y2="860"/>
<line class="st1" x1="60.5" y1="862.7" x2="60.5" y2="865.3"/>
<line class="st1" x1="60.5" y1="868" x2="60.5" y2="870.7"/>
<line class="st1" x1="60.5" y1="873.3" x2="60.5" y2="875.4"/>
<line class="st1" x1="68.3" y1="841.9" x2="68.3" y2="843.9"/>
<line class="st1" x1="68.3" y1="846.6" x2="68.3" y2="849.3"/>
<line class="st1" x1="68.3" y1="852" x2="68.3" y2="854.6"/>
<line class="st1" x1="68.3" y1="857.3" x2="68.3" y2="860"/>
<line class="st1" x1="68.3" y1="862.7" x2="68.3" y2="865.3"/>
<line class="st1" x1="68.3" y1="868" x2="68.3" y2="870.7"/>
<line class="st1" x1="68.3" y1="873.3" x2="68.3" y2="875.4"/>
<line class="st1" x1="37.8" y1="841.9" x2="37.8" y2="875.4"/>
<line class="st1" x1="75.9" y1="841.9" x2="75.9" y2="843.9"/>
<line class="st1" x1="75.9" y1="846.6" x2="75.9" y2="849.3"/>
<line class="st1" x1="75.9" y1="852" x2="75.9" y2="854.6"/>
<line class="st1" x1="75.9" y1="857.3" x2="75.9" y2="860"/>
<line class="st1" x1="75.9" y1="862.7" x2="75.9" y2="865.3"/>
<line class="st1" x1="75.9" y1="868" x2="75.9" y2="870.7"/>
<line class="st1" x1="75.9" y1="873.3" x2="75.9" y2="875.4"/>
<line class="st1" x1="83.4" y1="841.9" x2="83.4" y2="843.9"/>
<line class="st1" x1="83.4" y1="846.6" x2="83.4" y2="849.3"/>
<line class="st1" x1="83.4" y1="852" x2="83.4" y2="854.6"/>
<line class="st1" x1="83.4" y1="857.3" x2="83.4" y2="860"/>
<line class="st1" x1="83.4" y1="862.7" x2="83.4" y2="865.3"/>
<line class="st1" x1="83.4" y1="868" x2="83.4" y2="870.7"/>
<line class="st1" x1="83.4" y1="873.3" x2="83.4" y2="875.4"/>
<line class="st1" x1="30" y1="819.6" x2="-4.1" y2="819.6"/>
<polyline class="st0" points="-43.6,862 -39.8,855.5 -9.9,872.2 -13.7,878.7 -43.6,862 "/>
<polygon class="st1" points="-43.6,862 -39.8,855.5 -9.9,872.2 -13.7,878.7 "/>
<rect x="-128" y="696.9" class="st0" width="7.4" height="37"/>
<rect x="-128" y="696.9" class="st1" width="7.4" height="37"/>
<rect x="-128" y="772.9" class="st0" width="7.4" height="34.3"/>
<rect x="-128" y="772.9" class="st1" width="7.4" height="34.3"/>
<rect x="-11.7" y="814.3" width="7.6" height="5.3"/>
<rect x="-11.7" y="814.3" class="st4" width="7.6" height="5.3"/>
<rect x="-11.7" y="765.5" width="7.6" height="5.1"/>
<rect x="-11.7" y="765.5" class="st4" width="7.6" height="5.1"/>
<rect x="85" y="788.9" class="st0" width="6.7" height="48.8"/>
<rect x="85" y="788.9" class="st1" width="6.7" height="48.8"/>
<rect x="-11.7" y="770.6" class="st0" width="7.6" height="43.7"/>
<rect x="-11.7" y="770.6" class="st1" width="7.6" height="43.7"/>
<rect x="-11.7" y="666.1" class="st0" width="7.6" height="99.4"/>
<rect x="-11.7" y="666.1" class="st1" width="7.6" height="99.4"/>
<rect x="62.5" y="696.4" class="st0" width="16" height="15.6"/>
<rect x="62.5" y="696.4" class="st1" width="16" height="15.6"/>
<rect x="62.7" y="718" class="st0" width="15.8" height="16"/>
<rect x="62.7" y="718" class="st1" width="15.8" height="16"/>
<polyline class="st0" points="-56.3,805.8 -54.7,805.8 -54.7,831.5 -56.3,830.6 -56.3,805.8 "/>
<polygon class="st1" points="-56.3,805.8 -54.7,805.8 -54.7,831.5 -56.3,830.6 "/>
<polyline points="118.2,761.3 128.9,779.5 125.6,781.5 115.1,763.3 118.2,761.3 "/>
<polygon class="st4" points="118.2,761.3 128.9,779.5 125.6,781.5 115.1,763.3 "/>
<polyline points="204.9,712.5 204.9,732.1 192.4,732.1 192.4,735.4 208.2,735.4 208.2,709.1 192.4,709.1 192.4,712.5 204.9,712.5 
	"/>
<polygon class="st4" points="204.9,712.5 204.9,732.1 192.4,732.1 192.4,735.4 208.2,735.4 208.2,709.1 192.4,709.1 192.4,712.5 "/>
<polyline points="204.9,758.4 204.9,778.2 192.4,778.2 192.4,781.5 208.2,781.5 208.2,755 192.4,755 192.4,758.4 204.9,758.4 "/>
<polygon class="st4" points="204.9,758.4 204.9,778.2 192.4,778.2 192.4,781.5 208.2,781.5 208.2,755 192.4,755 192.4,758.4 "/>
<polyline points="208.2,803.2 208.2,823 192.4,823 192.4,826.1 211.6,826.1 211.6,799.8 192.4,799.8 192.4,803.2 208.2,803.2 "/>
<polygon class="st4" points="208.2,803.2 208.2,823 192.4,823 192.4,826.1 211.6,826.1 211.6,799.8 192.4,799.8 192.4,803.2 "/>
<rect x="185" y="713.6" class="st0" width="7.4" height="17.2"/>
<rect x="185" y="713.6" class="st1" width="7.4" height="17.2"/>
<line class="st1" x1="192.4" y1="658.5" x2="192.4" y2="657.4"/>
<line class="st1" x1="192.4" y1="654.7" x2="192.4" y2="652.1"/>
<line class="st1" x1="192.4" y1="649.4" x2="192.4" y2="646.7"/>
<line class="st1" x1="192.4" y1="644.1" x2="192.4" y2="641.4"/>
<line class="st1" x1="192.4" y1="638.7" x2="192.4" y2="636"/>
<line class="st1" x1="192.4" y1="633.4" x2="192.4" y2="632.2"/>
<line class="st1" x1="192.4" y1="632.2" x2="191.7" y2="632.2"/>
<line class="st1" x1="189.1" y1="632.2" x2="186.4" y2="632.2"/>
<line class="st1" x1="183.7" y1="632.2" x2="181" y2="632.2"/>
<line class="st1" x1="178.4" y1="632.2" x2="175.7" y2="632.2"/>
<line class="st1" x1="173" y1="632.2" x2="170.3" y2="632.2"/>
<line class="st1" x1="167.7" y1="632.2" x2="165" y2="632.2"/>
<line class="st1" x1="162.3" y1="632.2" x2="159.6" y2="632.2"/>
<line class="st1" x1="157" y1="632.2" x2="154.3" y2="632.2"/>
<line class="st1" x1="151.6" y1="632.2" x2="148.9" y2="632.2"/>
<line class="st1" x1="146.3" y1="632.2" x2="143.6" y2="632.2"/>
<line class="st1" x1="140.9" y1="632.2" x2="138.3" y2="632.2"/>
<line class="st1" x1="135.6" y1="632.2" x2="132.9" y2="632.2"/>
<line class="st1" x1="130.2" y1="632.2" x2="127.6" y2="632.2"/>
<line class="st1" x1="124.9" y1="632.2" x2="122.2" y2="632.2"/>
<line class="st1" x1="119.5" y1="632.2" x2="116.9" y2="632.2"/>
<line class="st1" x1="114.2" y1="632.2" x2="111.5" y2="632.2"/>
<line class="st1" x1="108.8" y1="632.2" x2="106.2" y2="632.2"/>
<line class="st1" x1="103.5" y1="632.2" x2="100.8" y2="632.2"/>
<line class="st1" x1="98.1" y1="632.2" x2="95.5" y2="632.2"/>
<line class="st1" x1="92.8" y1="632.2" x2="90.1" y2="632.2"/>
<line class="st1" x1="87.4" y1="632.2" x2="84.8" y2="632.2"/>
<line class="st1" x1="82.1" y1="632.2" x2="79.4" y2="632.2"/>
<line class="st1" x1="76.8" y1="632.2" x2="74.1" y2="632.2"/>
<line class="st1" x1="71.4" y1="632.2" x2="68.7" y2="632.2"/>
<line class="st1" x1="66.1" y1="632.2" x2="63.4" y2="632.2"/>
<line class="st1" x1="60.7" y1="632.2" x2="58" y2="632.2"/>
<line class="st1" x1="55.4" y1="632.2" x2="52.7" y2="632.2"/>
<line class="st1" x1="50" y1="632.2" x2="47.3" y2="632.2"/>
<line class="st1" x1="44.7" y1="632.2" x2="42" y2="632.2"/>
<line class="st1" x1="39.3" y1="632.2" x2="36.6" y2="632.2"/>
<line class="st1" x1="34" y1="632.2" x2="31.3" y2="632.2"/>
<line class="st1" x1="28.6" y1="632.2" x2="25.9" y2="632.2"/>
<line class="st1" x1="23.3" y1="632.2" x2="20.6" y2="632.2"/>
<line class="st1" x1="17.9" y1="632.2" x2="15.2" y2="632.2"/>
<line class="st1" x1="12.6" y1="632.2" x2="9.9" y2="632.2"/>
<line class="st1" x1="7.2" y1="632.2" x2="4.6" y2="632.2"/>
<line class="st1" x1="1.9" y1="632.2" x2="-0.8" y2="632.2"/>
<line class="st1" x1="-3.5" y1="632.2" x2="-4.1" y2="632.2"/>
<line class="st1" x1="30" y1="882.9" x2="30" y2="883.8"/>
<line class="st1" x1="30" y1="886.5" x2="30" y2="889.2"/>
<line class="st1" x1="30" y1="891.8" x2="30" y2="894.5"/>
<line class="st1" x1="30" y1="897.2" x2="30" y2="899.9"/>
<line class="st1" x1="30" y1="902.5" x2="30" y2="905.2"/>
<line class="st1" x1="30" y1="907.9" x2="30" y2="910.6"/>
<line class="st1" x1="30" y1="913.2" x2="30" y2="915.9"/>
<line class="st1" x1="30" y1="918.6" x2="30" y2="921.3"/>
<line class="st1" x1="30" y1="923.9" x2="30" y2="926.6"/>
<line class="st1" x1="30" y1="929.3" x2="30" y2="932"/>
<line class="st1" x1="30" y1="934.6" x2="30" y2="937.3"/>
<line class="st1" x1="30" y1="940" x2="30" y2="942.6"/>
<line class="st1" x1="30" y1="945.3" x2="30" y2="948"/>
<line class="st1" x1="30" y1="950.7" x2="30" y2="953.3"/>
<line class="st1" x1="30" y1="956" x2="30" y2="958.7"/>
<line class="st1" x1="30" y1="961.4" x2="30" y2="964"/>
<line class="st1" x1="30" y1="966.7" x2="30" y2="969.4"/>
<line class="st1" x1="30" y1="972.1" x2="30" y2="974.7"/>
<line class="st1" x1="30" y1="977.4" x2="30" y2="978.5"/>
<line class="st1" x1="30" y1="978.5" x2="32" y2="978.5"/>
<line class="st1" x1="34.6" y1="978.5" x2="37.3" y2="978.5"/>
<line class="st1" x1="40" y1="978.5" x2="42.7" y2="978.5"/>
<line class="st1" x1="45.3" y1="978.5" x2="48" y2="978.5"/>
<line class="st1" x1="50.7" y1="978.5" x2="53.4" y2="978.5"/>
<line class="st1" x1="56" y1="978.5" x2="58.7" y2="978.5"/>
<line class="st1" x1="61.4" y1="978.5" x2="64" y2="978.5"/>
<line class="st1" x1="66.7" y1="978.5" x2="69.4" y2="978.5"/>
<line class="st1" x1="72.1" y1="978.5" x2="74.7" y2="978.5"/>
<line class="st1" x1="77.4" y1="978.5" x2="80.1" y2="978.5"/>
<line class="st1" x1="82.8" y1="978.5" x2="85.4" y2="978.5"/>
<line class="st1" x1="88.1" y1="978.5" x2="90.8" y2="978.5"/>
<line class="st1" x1="93.5" y1="978.5" x2="96.1" y2="978.5"/>
<line class="st1" x1="98.8" y1="978.5" x2="101.5" y2="978.5"/>
<line class="st1" x1="104.2" y1="978.5" x2="106.8" y2="978.5"/>
<line class="st1" x1="109.5" y1="978.5" x2="111.5" y2="978.5"/>
<line class="st1" x1="111.5" y1="978.5" x2="111.5" y2="976.7"/>
<line class="st1" x1="111.5" y1="974.1" x2="111.5" y2="971.4"/>
<line class="st1" x1="111.5" y1="968.7" x2="111.5" y2="966.9"/>
<line class="st1" x1="111.5" y1="966.9" x2="113.5" y2="966.9"/>
<line class="st1" x1="116.2" y1="966.9" x2="118.9" y2="966.9"/>
<line class="st1" x1="121.5" y1="966.9" x2="124.2" y2="966.9"/>
<line class="st1" x1="126.9" y1="966.9" x2="129.6" y2="966.9"/>
<line class="st1" x1="132.2" y1="966.9" x2="134.9" y2="966.9"/>
<line class="st1" x1="137.6" y1="966.9" x2="140.3" y2="966.9"/>
<line class="st1" x1="142.9" y1="966.9" x2="145.6" y2="966.9"/>
<line class="st1" x1="148.3" y1="966.9" x2="151" y2="966.9"/>
<line class="st1" x1="153.6" y1="966.9" x2="156.3" y2="966.9"/>
<line class="st1" x1="159" y1="966.9" x2="161.7" y2="966.9"/>
<line class="st1" x1="164.3" y1="966.9" x2="166.6" y2="966.9"/>
<line class="st1" x1="166.6" y1="966.9" x2="166.6" y2="966.5"/>
<line class="st1" x1="166.6" y1="963.8" x2="166.6" y2="961.1"/>
<line class="st1" x1="166.6" y1="958.5" x2="166.6" y2="955.8"/>
<line class="st1" x1="166.6" y1="953.1" x2="166.6" y2="950.4"/>
<line class="st1" x1="166.6" y1="947.8" x2="166.6" y2="945.1"/>
<line class="st1" x1="166.6" y1="942.4" x2="166.6" y2="939.8"/>
<line class="st1" x1="166.6" y1="937.1" x2="166.6" y2="934.4"/>
<line class="st1" x1="166.6" y1="931.7" x2="166.6" y2="929.1"/>
<line class="st1" x1="166.6" y1="926.4" x2="166.6" y2="923.7"/>
<line class="st1" x1="166.6" y1="921" x2="166.6" y2="918.4"/>
<line class="st1" x1="166.6" y1="915.7" x2="166.6" y2="913"/>
<line class="st1" x1="166.6" y1="910.3" x2="166.6" y2="907.7"/>
<line class="st1" x1="166.6" y1="905" x2="166.6" y2="902.3"/>
<line class="st1" x1="166.6" y1="899.6" x2="166.6" y2="897"/>
<line class="st1" x1="166.6" y1="894.3" x2="166.6" y2="891.6"/>
<line class="st1" x1="166.6" y1="888.9" x2="166.6" y2="886.3"/>
<line class="st1" x1="166.6" y1="883.6" x2="166.6" y2="882.9"/>
<line class="st1" x1="34.9" y1="882.9" x2="34.9" y2="889.6"/>
<line class="st1" x1="34.9" y1="891.6" x2="34.9" y2="899.6"/>
<line class="st1" x1="34.9" y1="901.6" x2="34.9" y2="909.7"/>
<line class="st1" x1="34.9" y1="911.7" x2="34.9" y2="919.7"/>
<line class="st1" x1="34.9" y1="921.7" x2="34.9" y2="929.7"/>
<line class="st1" x1="34.9" y1="931.7" x2="34.9" y2="939.8"/>
<line class="st1" x1="34.9" y1="941.8" x2="34.9" y2="949.8"/>
<line class="st1" x1="34.9" y1="951.8" x2="34.9" y2="959.8"/>
<line class="st1" x1="34.9" y1="961.8" x2="34.9" y2="969.8"/>
<line class="st1" x1="34.9" y1="971.8" x2="34.9" y2="978.5"/>
<line class="st1" x1="161.7" y1="882.9" x2="161.7" y2="885.6"/>
<line class="st1" x1="161.7" y1="888.3" x2="161.7" y2="891"/>
<line class="st1" x1="161.7" y1="893.6" x2="161.7" y2="896.3"/>
<line class="st1" x1="161.7" y1="899" x2="161.7" y2="901.6"/>
<line class="st1" x1="975.2" y1="904.3" x2="975.2" y2="907"/>
<line class="st1" x1="161.7" y1="909.7" x2="161.7" y2="912.3"/>
<line class="st1" x1="161.7" y1="915" x2="161.7" y2="917.7"/>
<line class="st1" x1="161.7" y1="920.4" x2="161.7" y2="923"/>
<line class="st1" x1="161.7" y1="925.7" x2="161.7" y2="928.4"/>
<line class="st1" x1="161.7" y1="931.1" x2="161.7" y2="933.7"/>
<line class="st1" x1="161.7" y1="936.4" x2="161.7" y2="939.1"/>
<line class="st1" x1="161.7" y1="941.8" x2="161.7" y2="944.4"/>
<line class="st1" x1="161.7" y1="947.1" x2="161.7" y2="949.8"/>
<line class="st1" x1="161.7" y1="952.5" x2="161.7" y2="955.1"/>
<line class="st1" x1="161.7" y1="957.8" x2="161.7" y2="960.5"/>
<line class="st1" x1="161.7" y1="963.1" x2="161.7" y2="965.8"/>
<line class="st1" x1="161.7" y1="966.5" x2="161.7" y2="966.9"/>
<path class="st0" d="M89.5,792.1c0-0.6-0.5-1-1.1-1s-1.1,0.5-1.1,1c0,0.6,0.5,1,1.1,1S89.5,792.7,89.5,792.1"/>
<path class="st1" d="M89.5,792.1c0-0.6-0.5-1-1.1-1s-1.1,0.5-1.1,1c0,0.6,0.5,1,1.1,1S89.5,792.7,89.5,792.1"/>
<rect x="-49.8" y="765.5" class="st0" width="1.6" height="36.5"/>
<rect x="-49.8" y="765.5" class="st1" width="1.6" height="36.5"/>
<line class="st1" x1="-11.7" y1="765.5" x2="-11.9" y2="768.2"/>
<line class="st1" x1="-12.2" y1="770.8" x2="-12.4" y2="772.6"/>
<line class="st1" x1="-12.4" y1="772.6" x2="-12.6" y2="773.5"/>
<line class="st1" x1="-13.3" y1="776.2" x2="-14.2" y2="778.6"/>
<line class="st1" x1="-15.3" y1="781.1" x2="-15.9" y2="782.7"/>
<line class="st1" x1="-15.9" y1="782.7" x2="-16.4" y2="783.5"/>
<line class="st1" x1="-18" y1="785.8" x2="-19.5" y2="788"/>
<line class="st1" x1="-21.3" y1="790" x2="-22.4" y2="791.3"/>
<line class="st1" x1="-22.4" y1="791.3" x2="-23.1" y2="792"/>
<line class="st1" x1="-25.3" y1="793.8" x2="-27.3" y2="795.4"/>
<line class="st1" x1="-29.5" y1="796.7" x2="-31.1" y2="797.6"/>
<line class="st1" x1="-31.1" y1="797.6" x2="-32" y2="798"/>
<line class="st1" x1="-34.4" y1="799.1" x2="-36.9" y2="800.3"/>
<line class="st1" x1="-39.6" y1="800.9" x2="-41.1" y2="801.2"/>
<line class="st1" x1="-41.1" y1="801.2" x2="-42.2" y2="801.4"/>
<line class="st1" x1="-44.9" y1="801.8" x2="-47.6" y2="802"/>
<line class="st1" x1="-56.3" y1="816.3" x2="-56.3" y2="813.6"/>
<line class="st1" x1="-56.3" y1="811" x2="-56.3" y2="808.3"/>
<line class="st1" x1="-56.3" y1="805.6" x2="-56.3" y2="802.9"/>
<line class="st1" x1="-56.3" y1="800.3" x2="-56.3" y2="797.6"/>
<line class="st1" x1="-56.3" y1="794.9" x2="-56.3" y2="792.2"/>
<line class="st1" x1="-56.3" y1="792.2" x2="-56.3" y2="791.8"/>
<line class="st1" x1="-54.7" y1="792.9" x2="-54.7" y2="795.6"/>
<line class="st1" x1="-54.7" y1="798.3" x2="-54.7" y2="800.9"/>
<line class="st1" x1="-54.7" y1="803.6" x2="-54.7" y2="806.3"/>
<line class="st1" x1="-54.7" y1="808.9" x2="-54.7" y2="811.6"/>
<line class="st1" x1="-54.7" y1="814.3" x2="-54.7" y2="816.3"/>
<path class="st1" d="M65.6,781.4v-18.3c-2.4,0-4.8,0.5-7,1.4s-4.2,2.3-5.9,4s-3,3.7-4,5.9c-0.9,2.2-1.4,4.6-1.4,7"/>
<path class="st0" d="M89.5,804.8c0-0.6-0.5-1-1.1-1s-1.1,0.5-1.1,1c0,0.6,0.5,1,1.1,1S89.5,805.4,89.5,804.8"/>
<path class="st1" d="M89.5,804.8c0-0.6-0.5-1-1.1-1s-1.1,0.5-1.1,1c0,0.6,0.5,1,1.1,1S89.5,805.4,89.5,804.8"/>
<path class="st0" d="M89.5,804.8c0-0.6-0.5-1-1.1-1s-1.1,0.5-1.1,1c0,0.6,0.5,1,1.1,1S89.5,805.4,89.5,804.8"/>
<path class="st1" d="M89.5,804.8c0-0.6-0.5-1-1.1-1s-1.1,0.5-1.1,1c0,0.6,0.5,1,1.1,1S89.5,805.4,89.5,804.8"/>
<path class="st0" d="M89.5,809.5c0-0.6-0.5-1-1.1-1s-1.1,0.5-1.1,1s0.5,1,1.1,1S89.5,810.1,89.5,809.5"/>
<path class="st1" d="M89.5,809.5c0-0.6-0.5-1-1.1-1s-1.1,0.5-1.1,1s0.5,1,1.1,1S89.5,810.1,89.5,809.5"/>
<path class="st0" d="M89.5,814.3c0-0.6-0.5-1.1-1.1-1.1s-1.1,0.5-1.1,1.1s0.5,1.1,1.1,1.1S89.5,814.9,89.5,814.3"/>
<path class="st1" d="M89.5,814.3c0-0.6-0.5-1.1-1.1-1.1s-1.1,0.5-1.1,1.1s0.5,1.1,1.1,1.1S89.5,814.9,89.5,814.3"/>
<path class="st0" d="M89.5,819c0-0.6-0.5-1.1-1.1-1.1s-1.1,0.5-1.1,1.1s0.5,1.1,1.1,1.1S89.5,819.6,89.5,819"/>
<path class="st1" d="M89.5,819c0-0.6-0.5-1.1-1.1-1.1s-1.1,0.5-1.1,1.1s0.5,1.1,1.1,1.1S89.5,819.6,89.5,819"/>
<path class="st0" d="M89.5,823.8c0-0.6-0.5-1-1.1-1s-1.1,0.5-1.1,1c0,0.6,0.5,1,1.1,1S89.5,824.3,89.5,823.8"/>
<path class="st1" d="M89.5,823.8c0-0.6-0.5-1-1.1-1s-1.1,0.5-1.1,1c0,0.6,0.5,1,1.1,1S89.5,824.3,89.5,823.8"/>
<path class="st0" d="M89.5,828.4c0-0.6-0.5-1-1.1-1s-1.1,0.5-1.1,1c0,0.6,0.5,1,1.1,1S89.5,829,89.5,828.4"/>
<path class="st1" d="M89.5,828.4c0-0.6-0.5-1-1.1-1s-1.1,0.5-1.1,1c0,0.6,0.5,1,1.1,1S89.5,829,89.5,828.4"/>
<rect x="185" y="759.7" class="st0" width="7.4" height="17.2"/>
<rect x="185" y="759.7" class="st1" width="7.4" height="17.2"/>
<rect x="185" y="805.2" class="st0" width="7.4" height="15.8"/>
<rect x="185" y="805.2" class="st1" width="7.4" height="15.8"/>
<line class="st1" x1="-41.1" y1="858" x2="-11.3" y2="874.7"/>
<line class="st1" x1="-123.4" y1="696.9" x2="-123.4" y2="733.9"/>
<line class="st1" x1="-123.4" y1="807.2" x2="-123.4" y2="772.9"/>
<line class="st1" x1="-120.7" y1="610.9" x2="-11.7" y2="610.9"/>
<path class="st0" d="M-60.6,782.5v-9.8h-9.2v9.8c0,0.6,0.1,1.2,0.4,1.8c0.2,0.6,0.6,1.1,1,1.5s0.9,0.8,1.5,1s1.2,0.3,1.8,0.3
	s1.2-0.1,1.8-0.3s1.1-0.6,1.5-1s0.8-0.9,1-1.5C-60.7,783.7-60.6,783.1-60.6,782.5"/>
<path class="st1" d="M-60.6,782.5v-9.8h-9.2v9.8c0,0.6,0.1,1.2,0.4,1.8c0.2,0.6,0.6,1.1,1,1.5s0.9,0.8,1.5,1s1.2,0.3,1.8,0.3
	s1.2-0.1,1.8-0.3s1.1-0.6,1.5-1s0.8-0.9,1-1.5C-60.7,783.7-60.6,783.1-60.6,782.5"/>
<line class="st1" x1="-60.5" y1="775.3" x2="-69.9" y2="775.3"/>
<rect x="-92.4" y="772.9" class="st0" width="13.1" height="10.5"/>
<rect x="-92.4" y="772.9" class="st10" width="13.1" height="10.5"/>
<rect x="-91" y="775.3" class="st0" width="10.5" height="6.7"/>
<rect x="-91" y="775.3" class="st10" width="10.5" height="6.7"/>
<path class="st1" d="M78.5,692.5v-2.1c-2.9,0-5.8-0.6-8.5-1.7c-2.7-1.1-5.1-2.7-7.2-4.8c-2.1-2.1-3.7-4.5-4.8-7.2
	c-1.1-2.7-1.7-5.6-1.7-8.5h22.1v-2.1"/>
<rect x="67.8" y="740.5" class="st0" width="10.7" height="13.1"/>
<rect x="67.8" y="740.5" class="st10" width="10.7" height="13.1"/>
<rect x="69.2" y="741.9" class="st0" width="6.7" height="10.5"/>
<rect x="69.2" y="741.9" class="st10" width="6.7" height="10.5"/>
<rect x="-97.7" y="772.9" class="st0" width="1.1" height="20.9"/>
<rect x="-97.7" y="772.9" class="st1" width="1.1" height="20.9"/>
<path class="st0" d="M-108.4,783.3c0-0.5-0.4-0.9-0.8-0.9s-0.8,0.4-0.8,0.9s0.4,0.9,0.8,0.9C-108.8,784.2-108.4,783.8-108.4,783.3"
	/>
<path class="st1" d="M-108.4,783.3c0-0.5-0.4-0.9-0.8-0.9s-0.8,0.4-0.8,0.9s0.4,0.9,0.8,0.9C-108.8,784.2-108.4,783.8-108.4,783.3"
	/>
<line class="st1" x1="187.7" y1="713.6" x2="187.7" y2="730.7"/>
<line class="st1" x1="187.7" y1="759.7" x2="187.7" y2="776.9"/>
<line class="st1" x1="187.7" y1="805.2" x2="187.7" y2="821"/>
<polyline points="171.2,828.8 169.4,825.7 183,817.6 185,821 171.2,828.8 "/>
<polygon class="st4" points="171.2,828.8 169.4,825.7 183,817.6 185,821 "/>
<path class="st1" d="M146.7,781.4L146.7,781.4c0-6.9-3.4-13.3-9-17.2c-5.6-3.9-12.8-4.9-19.3-2.6"/>
<path class="st1" d="M184.9,805.1L184.9,805.1c-5,0-9.7,2.3-12.6,6.3c-3,4-3.9,9.1-2.5,13.9"/>
<polyline class="st1" points="8.2,814.9 12.9,819.6 17.6,814.9 "/>
<g class="st7">
	<path d="M-109.7,984.8c0,2.1-1.3,3.3-3.3,3.3s-3.3-1.3-3.3-3.3v-5.2h1.3v5.2c0,1.3,0.8,2.1,2,2.1s2-0.8,2-2.1v-5.2h1.3V984.8z"/>
	<path d="M-100.8,980.6l-0.8,1c-0.5-0.5-1.4-0.9-2.4-0.9c-1.8,0-3,1.3-3,3.1c0,1.8,1.2,3.1,3.1,3.1c1.9,0,2.8-1.4,2.8-2.4l0,0
		c-0.1,0.1-0.3,0.1-0.8,0.1h-2v-1.2h4.2v0.5c0,2.2-1.4,4.4-4.2,4.4c-2.5,0-4.4-1.7-4.4-4.4c0-2.6,1.8-4.4,4.4-4.4
		C-102.6,979.4-101.6,980-100.8,980.6z"/>
</g>
</svg>
