<?xml version="1.0" encoding="utf-8"?>
<!-- Generator: Adobe Illustrator 19.1.0, SVG Export Plug-In . SVG Version: 6.00 Build 0)  -->
<svg version="1.1" id="Ebene_1" xmlns="http://www.w3.org/2000/svg" xmlns:xlink="http://www.w3.org/1999/xlink" x="0px" y="0px"
	 viewBox="-91 379 1500 844" style="enable-background:new -91 379 1500 844;" xml:space="preserve">
<style type="text/css">
	.st0{fill:none;stroke:#000000;stroke-width:0.144;stroke-linecap:round;stroke-linejoin:round;stroke-miterlimit:10;}
	.st1{fill:none;stroke:#000000;stroke-width:0.216;stroke-linecap:round;stroke-linejoin:round;stroke-miterlimit:10;}
	.st2{enable-background:new    ;}
</style>
<g>
	<g>
		<g>
			<rect x="1195.1" y="764" class="st0" width="63.1" height="8.7"/>
			<rect x="1068.5" y="764" class="st0" width="63.1" height="8.7"/>
			<rect x="943.5" y="764" class="st0" width="63.1" height="8.7"/>
			<rect x="816.6" y="764" class="st0" width="63.1" height="8.7"/>
			<polygon class="st0" points="861,646.3 783,646.3 782.5,649.6 861,649.6 861,702 864.5,702 864.5,624.2 861,624.2 			"/>
			<polygon class="st0" points="901.8,723 901.8,624.2 905.2,624.2 905.2,726.5 815.9,726.5 815.9,723 			"/>
			<polyline class="st0" points="914,772.7 885.4,970.7 737.2,949.6 			"/>
			<polyline class="st0" points="752.4,768.6 751.7,772.7 724.5,952.1 889.8,975.8 919,772.7 			"/>
			<line class="st0" x1="877.8" y1="1012.6" x2="718.7" y2="989.8"/>
			<polyline class="st0" points="1258.2,768.6 1258.2,772.7 1320.6,772.7 1287,575.4 1267.2,575.4 			"/>
			<polyline points="816.6,764 816.6,768.6 752.4,768.6 781.4,575.4 793.3,575.4 793.3,584.6 792.2,584.6 765.2,764 816.6,764 			
				"/>
			<polygon class="st1" points="816.6,764 816.6,768.6 752.4,768.6 781.4,575.4 793.3,575.4 793.3,584.6 792.2,584.6 765.2,764 			
				"/>
			<polyline points="1272.9,584.6 1267.2,584.6 1267.2,580 1282.6,580 1314.6,768.6 1258.2,768.6 1258.2,764 1303.3,764 
				1272.9,584.6 			"/>
			<polygon class="st1" points="1272.9,584.6 1267.2,584.6 1267.2,580 1282.6,580 1314.6,768.6 1258.2,768.6 1258.2,764 1303.3,764 
							"/>
			<polyline class="st0" points="793.3,575.4 1267.2,575.4 1267.2,580 			"/>
			<line class="st0" x1="873" y1="973.5" x2="867.2" y2="1011"/>
			<line class="st0" x1="862.4" y1="971.9" x2="856.7" y2="1009.6"/>
			<line class="st0" x1="851.8" y1="970.5" x2="846.1" y2="1008"/>
			<line class="st0" x1="841.2" y1="968.9" x2="835.5" y2="1006.4"/>
			<line class="st0" x1="830.6" y1="967.3" x2="824.9" y2="1005"/>
			<line class="st0" x1="820" y1="965.9" x2="814.3" y2="1003.4"/>
			<line class="st0" x1="809.5" y1="964.3" x2="803.7" y2="1002"/>
			<line class="st0" x1="798.9" y1="962.9" x2="793.1" y2="1000.4"/>
			<line class="st0" x1="788.3" y1="961.3" x2="782.5" y2="998.8"/>
			<line class="st0" x1="777.7" y1="959.7" x2="771.9" y2="997.4"/>
			<line class="st0" x1="767.1" y1="958.3" x2="761.3" y2="995.8"/>
			<line class="st0" x1="756.3" y1="956.7" x2="750.7" y2="994.5"/>
			<line class="st0" x1="745.7" y1="955.3" x2="740.2" y2="992.8"/>
			<line class="st0" x1="883.6" y1="974.9" x2="877.8" y2="1012.6"/>
			<line class="st0" x1="763.9" y1="772.7" x2="736.5" y2="953.9"/>
			<rect x="1087.6" y="577.7" width="5.5" height="6.9"/>
			<rect x="1087.6" y="577.7" class="st1" width="5.5" height="6.9"/>
			<rect x="1028" y="577.7" width="5.3" height="6.9"/>
			<rect x="1028" y="577.7" class="st1" width="5.3" height="6.9"/>
			<rect x="968.1" y="577.7" width="5.3" height="6.9"/>
			<rect x="968.1" y="577.7" class="st1" width="5.3" height="6.9"/>
			<rect x="908.2" y="577.7" width="5.3" height="6.9"/>
			<rect x="908.2" y="577.7" class="st1" width="5.3" height="6.9"/>
			<rect x="848.4" y="577.7" width="5.5" height="6.9"/>
			<rect x="848.4" y="577.7" class="st1" width="5.5" height="6.9"/>
			<rect x="1207.3" y="577.7" width="5.5" height="6.9"/>
			<rect x="1207.3" y="577.7" class="st1" width="5.5" height="6.9"/>
			<rect x="1147.4" y="577.7" width="5.5" height="6.9"/>
			<rect x="1147.4" y="577.7" class="st1" width="5.5" height="6.9"/>
			<polyline class="st0" points="1068.5,768.6 1068.5,772.7 1006.5,772.7 1006.5,768.6 			"/>
			<polyline class="st0" points="879.7,768.6 879.7,772.7 943.5,772.7 943.5,768.6 			"/>
			<polyline class="st0" points="1131.6,768.6 1131.6,772.7 1195.1,772.7 1195.1,768.6 			"/>
			<polyline class="st0" points="751.7,772.7 816.6,772.7 816.6,768.6 			"/>
			<rect x="1131.6" y="764" width="63.5" height="4.6"/>
			<rect x="1131.6" y="764" class="st1" width="63.5" height="4.6"/>
			<rect x="1006.5" y="764" width="61.9" height="4.6"/>
			<rect x="1006.5" y="764" class="st1" width="61.9" height="4.6"/>
			<rect x="879.7" y="764" width="63.8" height="4.6"/>
			<rect x="879.7" y="764" class="st1" width="63.8" height="4.6"/>
			<line class="st0" x1="724.5" y1="952.1" x2="718.7" y2="989.8"/>
			<rect x="793.3" y="583" class="st0" width="55" height="1.6"/>
			<rect x="853.9" y="583" class="st0" width="54.3" height="1.6"/>
			<rect x="913.5" y="583" class="st0" width="54.6" height="1.6"/>
			<rect x="973.4" y="583" class="st0" width="54.6" height="1.6"/>
			<rect x="1033.2" y="583" class="st0" width="54.3" height="1.6"/>
			<rect x="1093.1" y="583" class="st0" width="54.3" height="1.6"/>
			<rect x="1153" y="583" class="st0" width="54.3" height="1.6"/>
			<rect x="1212.8" y="583" class="st0" width="54.3" height="1.6"/>
			<line class="st0" x1="1195.1" y1="768.6" x2="1258.2" y2="768.6"/>
			<line class="st0" x1="1068.5" y1="768.6" x2="1131.6" y2="768.6"/>
			<line class="st0" x1="943.5" y1="768.6" x2="1006.5" y2="768.6"/>
			<line class="st0" x1="816.6" y1="768.6" x2="879.7" y2="768.6"/>
			<polyline class="st0" points="748.5,969.9 742.9,974 747,979.6 			"/>
		</g>
	</g>
</g>
<g>
	<line class="st0" x1="523.8" y1="584.5" x2="544.9" y2="584.5"/>
	<rect x="523.8" y="579" class="st0" width="21.1" height="9.1"/>
	<rect x="431.4" y="579" class="st0" width="27" height="9.1"/>
	<line class="st0" x1="431.4" y1="584.5" x2="458.3" y2="584.5"/>
	<polyline points="47.3,988.3 35.5,986.7 67.9,773.1 96.4,583.6 103.2,583.6 431.4,583.6 431.4,588.1 107.7,588.1 98.7,648.8 
		175.5,648.8 175.5,627 178.9,627 178.9,703.6 175.5,703.6 175.5,652 98.2,652 81.2,764.5 253.8,764.5 253.8,769 80.6,769 
		47.3,988.3 	"/>
	<polygon class="st1" points="47.3,988.3 35.5,986.7 67.9,773.1 96.4,583.6 103.2,583.6 431.4,583.6 431.4,588.1 107.7,588.1 
		98.7,648.8 175.5,648.8 175.5,627 178.9,627 178.9,703.6 175.5,703.6 175.5,652 98.2,652 81.2,764.5 253.8,764.5 253.8,769 
		80.6,769 	"/>
	<polyline points="131.1,724.2 215.5,724.2 215.5,627 218.9,627 218.9,727.6 131.1,727.6 131.1,724.2 	"/>
	<polygon class="st1" points="131.1,724.2 215.5,724.2 215.5,627 218.9,627 218.9,727.6 131.1,727.6 	"/>
	<polyline points="218,796.2 228.5,797.8 227.1,808.5 216.5,806.9 218,796.2 	"/>
	<polygon class="st1" points="218,796.2 228.5,797.8 227.1,808.5 216.5,806.9 	"/>
	<polygon class="st0" points="235.5,774.9 207.8,967 206,966.8 233.7,774.7 	"/>
	<polyline points="144.9,964.5 145.6,959.8 193.6,966.8 194.5,960.9 204.9,962.2 203.5,972.9 144.9,964.5 	"/>
	<polygon class="st1" points="144.9,964.5 145.6,959.8 193.6,966.8 194.5,960.9 204.9,962.2 203.5,972.9 	"/>
	<polyline points="206.9,873.5 217.6,874.8 216,885.5 205.4,883.9 206.9,873.5 	"/>
	<polygon class="st1" points="206.9,873.5 217.6,874.8 216,885.5 205.4,883.9 	"/>
	<line class="st0" x1="192" y1="1009.1" x2="171.2" y2="1006.2"/>
	<line class="st0" x1="171.2" y1="1006.2" x2="47.3" y2="988.3"/>
	<line class="st0" x1="198.1" y1="972.2" x2="52.9" y2="951.4"/>
	<polyline class="st0" points="544.9,579 594.5,579 627.5,773.1 342.2,773.1 342.2,769 	"/>
	<polyline points="585.2,583.6 590.2,583.6 621.6,769 618.5,769 342.2,769 342.2,764.5 610.5,764.5 580.6,588.1 544.9,588.1 
		544.9,583.6 585.2,583.6 	"/>
	<polygon class="st1" points="585.2,583.6 590.2,583.6 621.6,769 618.5,769 342.2,769 342.2,764.5 610.5,764.5 580.6,588.1 
		544.9,588.1 544.9,583.6 	"/>
	<polyline points="523.8,588.1 458.3,588.1 458.3,583.6 523.8,583.6 523.8,588.1 	"/>
	<rect x="458.3" y="583.6" class="st1" width="65.5" height="4.5"/>
	<line class="st0" x1="458.3" y1="588.1" x2="458.3" y2="579"/>
	<line class="st0" x1="544.9" y1="588.1" x2="544.9" y2="579"/>
	<line class="st0" x1="523.8" y1="579" x2="458.3" y2="579"/>
	<polyline class="st0" points="431.4,579 97.1,579 96.4,583.6 	"/>
	<line class="st0" x1="187.2" y1="970.6" x2="181.6" y2="1007.5"/>
	<line class="st0" x1="176.8" y1="969" x2="171.2" y2="1006.2"/>
	<line class="st0" x1="163.7" y1="984.9" x2="163.2" y2="987.6"/>
	<line class="st0" x1="162.8" y1="990.3" x2="162.5" y2="993"/>
	<line class="st0" x1="162.1" y1="995.5" x2="161.6" y2="998.3"/>
	<line class="st0" x1="161.2" y1="1001" x2="161" y2="1003.7"/>
	<line class="st0" x1="160.7" y1="1004.1" x2="160.7" y2="1004.6"/>
	<line class="st0" x1="156" y1="966.1" x2="155.8" y2="967"/>
	<line class="st0" x1="155.5" y1="969.7" x2="155.1" y2="972.4"/>
	<line class="st0" x1="154.6" y1="975.2" x2="154.2" y2="977.6"/>
	<line class="st0" x1="153.7" y1="980.4" x2="153.3" y2="983.1"/>
	<line class="st0" x1="153" y1="985.8" x2="152.6" y2="988.5"/>
	<line class="st0" x1="152.1" y1="991.2" x2="151.7" y2="994"/>
	<line class="st0" x1="151.2" y1="996.4" x2="151" y2="999.2"/>
	<line class="st0" x1="150.5" y1="1001.9" x2="150.3" y2="1003"/>
	<line class="st0" x1="145.6" y1="964.5" x2="145.3" y2="965.6"/>
	<line class="st0" x1="144.9" y1="968.4" x2="144.7" y2="971.1"/>
	<line class="st0" x1="144.2" y1="973.8" x2="143.7" y2="976.3"/>
	<line class="st0" x1="143.3" y1="979" x2="142.8" y2="981.7"/>
	<line class="st0" x1="142.6" y1="984.4" x2="142.2" y2="987.2"/>
	<line class="st0" x1="141.7" y1="989.9" x2="141.3" y2="992.6"/>
	<line class="st0" x1="140.8" y1="995.1" x2="140.6" y2="997.8"/>
	<line class="st0" x1="140.1" y1="1000.5" x2="139.9" y2="1001.7"/>
	<line class="st0" x1="135.1" y1="963.1" x2="134.9" y2="964.1"/>
	<line class="st0" x1="134.7" y1="966.8" x2="134.2" y2="969.5"/>
	<line class="st0" x1="133.8" y1="972.2" x2="133.3" y2="974.7"/>
	<line class="st0" x1="132.9" y1="977.4" x2="132.4" y2="980.1"/>
	<line class="st0" x1="132.2" y1="982.9" x2="131.7" y2="985.6"/>
	<line class="st0" x1="131.3" y1="988.3" x2="130.8" y2="991"/>
	<line class="st0" x1="130.4" y1="993.5" x2="130.2" y2="996.2"/>
	<line class="st0" x1="129.7" y1="998.9" x2="129.5" y2="1000.1"/>
	<line class="st0" x1="124.7" y1="961.6" x2="124.5" y2="962.7"/>
	<line class="st0" x1="124" y1="965.4" x2="123.8" y2="968.1"/>
	<line class="st0" x1="123.4" y1="970.8" x2="122.9" y2="973.3"/>
	<line class="st0" x1="122.5" y1="976.1" x2="122" y2="978.8"/>
	<line class="st0" x1="121.8" y1="981.5" x2="121.3" y2="984.2"/>
	<line class="st0" x1="120.9" y1="986.9" x2="120.4" y2="989.6"/>
	<line class="st0" x1="120" y1="992.1" x2="119.7" y2="994.9"/>
	<line class="st0" x1="119.3" y1="997.6" x2="119.1" y2="998.7"/>
	<line class="st0" x1="114.3" y1="960.2" x2="114.1" y2="961.1"/>
	<line class="st0" x1="113.9" y1="963.8" x2="113.4" y2="966.5"/>
	<line class="st0" x1="112.9" y1="969.3" x2="112.5" y2="971.8"/>
	<line class="st0" x1="112" y1="974.5" x2="111.6" y2="977.2"/>
	<line class="st0" x1="111.4" y1="979.9" x2="110.9" y2="982.6"/>
	<line class="st0" x1="110.5" y1="985.3" x2="110" y2="988.1"/>
	<line class="st0" x1="109.6" y1="990.6" x2="109.3" y2="993.3"/>
	<line class="st0" x1="108.9" y1="996" x2="108.6" y2="997.1"/>
	<line class="st0" x1="103.9" y1="958.6" x2="103.7" y2="959.5"/>
	<line class="st0" x1="103.4" y1="962.2" x2="103" y2="965"/>
	<line class="st0" x1="102.5" y1="967.7" x2="102.1" y2="970.2"/>
	<line class="st0" x1="101.6" y1="972.9" x2="101.2" y2="975.6"/>
	<line class="st0" x1="100.9" y1="978.3" x2="100.5" y2="981"/>
	<line class="st0" x1="100" y1="983.8" x2="99.6" y2="986.5"/>
	<line class="st0" x1="99.1" y1="989" x2="98.9" y2="991.7"/>
	<line class="st0" x1="98.5" y1="994.4" x2="98.2" y2="995.5"/>
	<line class="st0" x1="93.5" y1="957" x2="93.2" y2="958.2"/>
	<line class="st0" x1="92.8" y1="960.9" x2="92.6" y2="963.6"/>
	<line class="st0" x1="92.1" y1="966.3" x2="91.7" y2="968.8"/>
	<line class="st0" x1="91.2" y1="971.5" x2="90.8" y2="974.2"/>
	<line class="st0" x1="90.5" y1="977" x2="90.1" y2="979.7"/>
	<line class="st0" x1="89.6" y1="982.4" x2="89.2" y2="985.1"/>
	<line class="st0" x1="88.7" y1="987.6" x2="88.5" y2="990.3"/>
	<line class="st0" x1="88" y1="993" x2="87.8" y2="994.2"/>
	<line class="st0" x1="83.1" y1="955.7" x2="82.8" y2="956.6"/>
	<line class="st0" x1="82.6" y1="959.3" x2="82.1" y2="962"/>
	<line class="st0" x1="81.7" y1="964.7" x2="81.2" y2="967.2"/>
	<line class="st0" x1="80.8" y1="969.9" x2="80.3" y2="972.7"/>
	<line class="st0" x1="80.1" y1="975.4" x2="79.7" y2="978.1"/>
	<line class="st0" x1="79.2" y1="980.8" x2="78.7" y2="983.5"/>
	<line class="st0" x1="78.3" y1="986" x2="78.1" y2="988.7"/>
	<line class="st0" x1="77.6" y1="991.5" x2="77.4" y2="992.6"/>
	<line class="st0" x1="72.4" y1="954.1" x2="72.2" y2="955.2"/>
	<line class="st0" x1="72" y1="957.9" x2="71.5" y2="960.7"/>
	<line class="st0" x1="71" y1="963.4" x2="70.6" y2="965.9"/>
	<line class="st0" x1="70.4" y1="968.6" x2="69.9" y2="971.3"/>
	<line class="st0" x1="69.5" y1="974" x2="69" y2="976.7"/>
	<line class="st0" x1="68.8" y1="979.5" x2="68.3" y2="982.2"/>
	<line class="st0" x1="67.9" y1="984.9" x2="67.4" y2="987.4"/>
	<line class="st0" x1="67.2" y1="990.1" x2="67" y2="991.2"/>
	<line class="st0" x1="62" y1="952.7" x2="61.8" y2="953.6"/>
	<line class="st0" x1="61.5" y1="956.4" x2="61.1" y2="959.1"/>
	<line class="st0" x1="60.6" y1="961.8" x2="60.2" y2="964.3"/>
	<line class="st0" x1="59.9" y1="967" x2="59.5" y2="969.7"/>
	<line class="st0" x1="59" y1="972.4" x2="58.6" y2="975.2"/>
	<line class="st0" x1="58.4" y1="977.9" x2="57.9" y2="980.6"/>
	<line class="st0" x1="57.5" y1="983.3" x2="57" y2="985.8"/>
	<line class="st0" x1="56.8" y1="988.5" x2="56.6" y2="989.6"/>
	<line class="st0" x1="197.7" y1="972" x2="192" y2="1009.1"/>
	<polyline class="st0" points="253.8,769 253.8,773.1 79.9,773.1 	"/>
	<line class="st0" x1="166.4" y1="967.7" x2="163.7" y2="984.9"/>
	<line class="st0" x1="171.2" y1="1006.2" x2="157.3" y2="966.3"/>
	<rect x="253.8" y="771.5" class="st0" width="44.2" height="1.6"/>
	<rect x="298" y="771.5" class="st0" width="44.2" height="1.6"/>
	<line class="st0" x1="404.7" y1="773.1" x2="404.7" y2="775.8"/>
	<line class="st0" x1="404.7" y1="775.8" x2="404" y2="775.8"/>
	<line class="st0" x1="401.3" y1="775.8" x2="398.5" y2="775.8"/>
	<line class="st0" x1="395.8" y1="775.8" x2="393.1" y2="775.8"/>
	<line class="st0" x1="390.4" y1="775.8" x2="387.7" y2="775.8"/>
	<line class="st0" x1="385" y1="775.8" x2="382.2" y2="775.8"/>
	<line class="st0" x1="379.5" y1="775.8" x2="376.8" y2="775.8"/>
	<line class="st0" x1="374.1" y1="775.8" x2="371.4" y2="775.8"/>
	<line class="st0" x1="368.7" y1="775.8" x2="365.9" y2="775.8"/>
	<line class="st0" x1="363.2" y1="775.8" x2="360.5" y2="775.8"/>
	<line class="st0" x1="357.8" y1="775.8" x2="355.1" y2="775.8"/>
	<line class="st0" x1="352.3" y1="775.8" x2="349.6" y2="775.8"/>
	<line class="st0" x1="346.9" y1="775.8" x2="344.2" y2="775.8"/>
	<line class="st0" x1="341.5" y1="775.8" x2="338.8" y2="775.8"/>
	<line class="st0" x1="336" y1="775.8" x2="333.3" y2="775.8"/>
	<line class="st0" x1="330.6" y1="775.8" x2="327.9" y2="775.8"/>
	<line class="st0" x1="325.2" y1="775.8" x2="322.4" y2="775.8"/>
	<line class="st0" x1="319.7" y1="775.8" x2="317" y2="775.8"/>
	<line class="st0" x1="314.3" y1="775.8" x2="311.6" y2="775.8"/>
	<line class="st0" x1="308.9" y1="775.8" x2="306.1" y2="775.8"/>
	<line class="st0" x1="303.4" y1="775.8" x2="300.7" y2="775.8"/>
	<line class="st0" x1="298" y1="775.8" x2="295.3" y2="775.8"/>
	<line class="st0" x1="292.6" y1="775.8" x2="289.8" y2="775.8"/>
	<line class="st0" x1="287.1" y1="775.8" x2="284.4" y2="775.8"/>
	<line class="st0" x1="281.7" y1="775.8" x2="279" y2="775.8"/>
	<line class="st0" x1="276.2" y1="775.8" x2="273.5" y2="775.8"/>
	<line class="st0" x1="270.8" y1="775.8" x2="268.1" y2="775.8"/>
	<line class="st0" x1="265.4" y1="775.8" x2="262.7" y2="775.8"/>
	<line class="st0" x1="259.9" y1="775.8" x2="257.2" y2="775.8"/>
	<line class="st0" x1="254.5" y1="775.8" x2="253.8" y2="775.8"/>
	<line class="st0" x1="253.8" y1="775.8" x2="253.8" y2="773.8"/>
	<line class="st0" x1="298" y1="771.5" x2="299.1" y2="769"/>
	<line class="st0" x1="300.3" y1="766.6" x2="301.4" y2="764.1"/>
	<line class="st0" x1="302.5" y1="761.6" x2="303.6" y2="759.1"/>
	<line class="st0" x1="304.8" y1="756.8" x2="305.9" y2="754.3"/>
	<line class="st0" x1="307" y1="751.8" x2="308.2" y2="749.3"/>
	<line class="st0" x1="309.3" y1="746.9" x2="310.4" y2="744.4"/>
	<line class="st0" x1="311.6" y1="741.9" x2="312.7" y2="739.4"/>
	<line class="st0" x1="313.8" y1="736.9" x2="315" y2="734.4"/>
	<line class="st0" x1="316.1" y1="732.1" x2="317.2" y2="729.6"/>
	<line class="st0" x1="318.4" y1="727.1" x2="319.5" y2="724.7"/>
	<line class="st0" x1="319.7" y1="724.2" x2="320" y2="723.8"/>
	<line class="st0" x1="321.1" y1="726.2" x2="322.2" y2="728.7"/>
	<line class="st0" x1="323.4" y1="731.2" x2="324.5" y2="733.7"/>
	<line class="st0" x1="325.6" y1="736" x2="326.8" y2="738.5"/>
	<line class="st0" x1="327.9" y1="741" x2="329" y2="743.5"/>
	<line class="st0" x1="330.1" y1="745.9" x2="331.5" y2="748.4"/>
	<line class="st0" x1="332.6" y1="750.9" x2="333.8" y2="753.4"/>
	<line class="st0" x1="334.9" y1="755.7" x2="336" y2="758.2"/>
	<line class="st0" x1="337.2" y1="760.7" x2="338.3" y2="763.2"/>
	<line class="st0" x1="339.4" y1="765.7" x2="340.6" y2="768.1"/>
	<line class="st0" x1="341.7" y1="770.6" x2="342.2" y2="771.5"/>
	<polyline class="st0" points="55.6,965.8 50.1,969.8 54.1,975.3 	"/>
</g>
<g class="st2">
	<path d="M81.7,1105.9h-3.2c-0.1,0-0.2,0-0.3,0l0,0c0,0.1,0,0.2,0,0.3v1.5c0,0.1,0,0.2,0,0.3l0,0c0.1,0,0.2,0,0.3,0h2.8v1.2h-2.8
		c-0.1,0-0.2,0-0.3,0l0,0c0,0.1,0,0.2,0,0.3v2.2c0,0.2,0,0.3,0,0.3l0,0c0.1,0,0.2,0,0.3,0h3.3v1.2h-4.8v-8.4h4.8V1105.9z"/>
	<path d="M90.2,1105.7l-0.8,1c-0.5-0.5-1.4-0.9-2.4-0.9c-1.8,0-3,1.3-3,3.1c0,1.8,1.2,3.1,3.1,3.1c1.9,0,2.8-1.4,2.8-2.4l0,0
		c-0.1,0.1-0.3,0.1-0.8,0.1h-2v-1.2h4.2v0.5c0,2.2-1.4,4.4-4.2,4.4c-2.5,0-4.4-1.7-4.4-4.4c0-2.6,1.8-4.4,4.4-4.4
		C88.4,1104.6,89.5,1105.1,90.2,1105.7z"/>
	<path d="M100.4,1105.1l-0.6,1.2c-0.5-0.3-1.1-0.5-1.7-0.5c-0.7,0-1,0.3-1,0.7c0,0.4,0.2,0.7,0.6,1l1.5,1.2c0.9,0.7,1.3,1.3,1.3,2.3
		c0,1.5-1.1,2.4-2.7,2.4c-1.1,0-2.1-0.4-2.7-0.8l0.6-1.2c0.5,0.3,1.3,0.7,2.2,0.7c0.9,0,1.3-0.4,1.3-1c0-0.5-0.3-0.8-0.9-1.3
		l-1.4-1.1c-0.7-0.6-1.2-1.2-1.2-2c0-1.2,0.9-2,2.4-2C99,1104.6,99.8,1104.8,100.4,1105.1z"/>
	<path d="M101.4,1110.4c0-1.8,1.2-3,3-3c0.7,0,1.3,0.2,1.9,0.6l-0.6,1c-0.4-0.3-0.9-0.4-1.4-0.4c-1,0-1.8,0.7-1.8,1.8
		s0.7,1.8,1.8,1.8c0.5,0,1-0.1,1.4-0.4l0.6,1c-0.6,0.4-1.2,0.6-1.9,0.6C102.6,1113.3,101.4,1112.1,101.4,1110.4z"/>
	<path d="M108.5,1107.6c0,0.5,0,0.8-0.1,1.2l0,0c0.4-0.9,1.1-1.4,2-1.4c1.2,0,2,0.8,2,2.1v3.6h-1.2v-3.3c0-0.8-0.4-1.3-1.2-1.3
		c-1,0-1.5,0.7-1.5,1.9v2.7h-1.2v-8.6h1.2V1107.6z"/>
	<path d="M119,1109.5v3.6h-1.2v-3.3c0-0.8-0.4-1.3-1.2-1.3c-1,0-1.5,0.7-1.5,1.9v2.7h-1.2v-5.5h1.2c0,0.6,0,0.9-0.1,1.3l0,0
		c0.4-1,1.1-1.5,2-1.5C118.3,1107.4,119,1108.2,119,1109.5z"/>
	<path d="M121.8,1106.3h-1.3v-1.6h1.3V1106.3z M121.7,1113.2h-1.2v-5.5h1.2V1113.2z"/>
	<path d="M124.9,1107c0,0.2,0,0.4,0,0.6l0,0c0.1-0.1,0.2-0.1,0.5-0.1h0.6v1.1h-0.6c-0.3,0-0.4,0-0.5-0.1l0,0c0,0.2,0,0.4,0,0.6v3.8
		h-1.2v-3.8c0-0.3,0-0.4,0-0.6l0,0c-0.1,0.1-0.2,0.1-0.5,0.1h-0.5v-1.1h0.5c0.3,0,0.4,0,0.5,0.1l0,0c0-0.2,0-0.4,0-0.6v-1.6l1.1-0.8
		h0.1V1107z"/>
	<path d="M128.7,1107c0,0.2,0,0.4,0,0.6l0,0c0.1-0.1,0.2-0.1,0.5-0.1h0.6v1.1h-0.6c-0.3,0-0.4,0-0.5-0.1l0,0c0,0.2,0,0.4,0,0.6v3.8
		h-1.2v-3.8c0-0.3,0-0.4,0-0.6l0,0c-0.1,0.1-0.2,0.1-0.5,0.1h-0.5v-1.1h0.5c0.3,0,0.4,0,0.5,0.1l0,0c0-0.2,0-0.4,0-0.6v-1.6l1.1-0.8
		h0.1V1107z"/>
	<path d="M136,1107c0,0.2,0,0.4,0,0.6l0,0c0.1-0.1,0.2-0.1,0.5-0.1h0.6v1.1h-0.6c-0.3,0-0.4,0-0.5-0.1l0,0c0,0.2,0,0.4,0,0.6v3.8
		h-1.2v-3.8c0-0.3,0-0.4,0-0.6l0,0c-0.1,0.1-0.2,0.1-0.5,0.1h-0.5v-1.1h0.5c0.3,0,0.4,0,0.5,0.1l0,0c0-0.2,0-0.4,0-0.6v-1.6l1.1-0.8
		h0.1V1107z"/>
	<path d="M139.4,1106.3h-1.3v-1.6h1.3V1106.3z M139.3,1113.2h-1.2v-5.5h1.2V1113.2z"/>
	<path d="M145.9,1110.4v0.2h-3.6c-0.4,0-0.6,0-0.7-0.1l0,0l0,0.1c0.1,1,0.7,1.5,1.7,1.5c0.6,0,1.1-0.2,1.7-0.8l0.7,0.8
		c-0.6,0.8-1.4,1.2-2.4,1.2c-1.7,0-2.9-1.2-2.9-2.9c0-1.8,1.1-3,2.8-3C144.9,1107.4,145.9,1108.5,145.9,1110.4z M141.7,1109.8
		L141.7,1109.8c0.2,0,0.4-0.1,0.7-0.1h1.4c0.6,0,0.8,0,0.9,0.1l0,0c-0.1-0.8-0.6-1.3-1.5-1.3C142.4,1108.5,141.8,1109,141.7,1109.8z
		"/>
	<path d="M149.6,1105.8L149.6,1105.8c-0.7,0-1.1,0.3-1.1,1.1v0.4c0,0.1,0,0.3,0,0.4l0,0c0.1-0.1,0.2-0.1,0.5-0.1h0.6v1.1H149
		c-0.3,0-0.4,0-0.5-0.1l0,0c0,0.2,0,0.5,0,0.6v3.8h-1.2v-3.8c0-0.1,0-0.4,0-0.6l0,0c-0.1,0.1-0.2,0.1-0.5,0.1h-0.5v-1.1h0.5
		c0.3,0,0.4,0,0.5,0.1l0,0c0-0.1,0-0.3,0-0.4v-0.3c0-1.8,1.2-2.4,2.1-2.4h0.2V1105.8z"/>
	<path d="M155.6,1110.4v0.2H152c-0.4,0-0.6,0-0.7-0.1l0,0l0,0.1c0.1,1,0.7,1.5,1.7,1.5c0.6,0,1.1-0.2,1.7-0.8l0.7,0.8
		c-0.6,0.8-1.4,1.2-2.4,1.2c-1.7,0-2.9-1.2-2.9-2.9c0-1.8,1.1-3,2.8-3C154.6,1107.4,155.6,1108.5,155.6,1110.4z M151.3,1109.8
		L151.3,1109.8c0.2,0,0.4-0.1,0.7-0.1h1.4c0.6,0,0.8,0,0.9,0.1l0,0c-0.1-0.8-0.6-1.3-1.5-1.3C152,1108.5,151.4,1109,151.3,1109.8z"
		/>
	<path d="M160,1107.5v1.4c-0.2,0-0.3,0-0.4,0c-1.1,0-1.7,0.7-1.7,1.9v2.4h-1.2v-5.5h1.2c0,0.4-0.1,1-0.1,1.5l0.1,0
		c0.3-1.1,0.9-1.6,1.9-1.6C159.8,1107.4,159.9,1107.4,160,1107.5z"/>
	<path d="M171.4,1113.2h-1.2v-3.6c0-0.1,0-0.2,0-0.3l0,0c-0.1,0-0.2,0-0.3,0h-3.7c-0.1,0-0.2,0-0.3,0l0,0c0,0.1,0,0.2,0,0.3v3.6
		h-1.2v-8.4h1.2v3.1c0,0.1,0,0.2,0,0.3l0,0c0.1,0,0.2,0,0.3,0h3.7c0.1,0,0.2,0,0.3,0l0,0c0-0.1,0-0.2,0-0.3v-3.1h1.2V1113.2z"/>
	<path d="M178.7,1110.4c0,1.7-1.3,3-3,3s-3-1.3-3-3s1.3-3,3-3S178.7,1108.7,178.7,1110.4z M173.9,1110.4c0,1.1,0.7,1.8,1.8,1.8
		s1.8-0.7,1.8-1.8s-0.7-1.8-1.8-1.8S173.9,1109.3,173.9,1110.4z M175.2,1106.2h-1.1v-1.5h1.1V1106.2z M177.3,1106.2h-1.1v-1.5h1.1
		V1106.2z"/>
	<path d="M181,1107.6c0,0.5,0,0.8-0.1,1.2l0,0c0.4-0.9,1.1-1.4,2-1.4c1.2,0,2,0.8,2,2.1v3.6h-1.2v-3.3c0-0.8-0.4-1.3-1.2-1.3
		c-1,0-1.5,0.7-1.5,1.9v2.7h-1.2v-8.6h1.2V1107.6z"/>
	<path d="M191.5,1110.4v0.2h-3.6c-0.4,0-0.6,0-0.7-0.1l0,0l0,0.1c0.1,1,0.7,1.5,1.7,1.5c0.6,0,1.1-0.2,1.7-0.8l0.7,0.8
		c-0.6,0.8-1.4,1.2-2.4,1.2c-1.7,0-2.9-1.2-2.9-2.9c0-1.8,1.1-3,2.8-3C190.5,1107.4,191.5,1108.5,191.5,1110.4z M187.3,1109.8
		L187.3,1109.8c0.2,0,0.4-0.1,0.7-0.1h1.4c0.6,0,0.8,0,0.9,0.1l0,0c-0.1-0.8-0.6-1.3-1.5-1.3C188,1108.5,187.4,1109,187.3,1109.8z"
		/>
	<path d="M195.8,1110.4c0-1.8,1.2-3,3-3c0.7,0,1.3,0.2,1.9,0.6l-0.6,1c-0.4-0.3-0.9-0.4-1.4-0.4c-1,0-1.8,0.7-1.8,1.8
		s0.7,1.8,1.8,1.8c0.5,0,1-0.1,1.4-0.4l0.6,1c-0.6,0.4-1.2,0.6-1.9,0.6C197.1,1113.3,195.8,1112.1,195.8,1110.4z"/>
	<path d="M206.2,1109.7v3.5H205c0-0.4,0-0.6,0.2-0.9l0,0c-0.4,0.7-1.1,1.1-1.9,1.1c-1.2,0-2-0.8-2-1.9c0-1.2,0.8-2,2-2
		c0.8,0,1.5,0.3,1.8,0.9l0,0c-0.1-0.2-0.1-0.6-0.1-0.8c0-0.7-0.5-1-1.3-1c-0.4,0-0.9,0.1-1.6,0.3l-0.3-1.1c0.7-0.2,1.4-0.3,2-0.3
		C205.5,1107.4,206.2,1108.1,206.2,1109.7z M202.5,1111.4c0,0.6,0.5,1,1.2,1c0.7,0,1.3-0.4,1.3-1c0-0.6-0.5-1-1.2-1
		C203,1110.4,202.5,1110.8,202.5,1111.4z"/>
	<path d="M207.6,1111.7h1.4v1.5h-1.4V1111.7z"/>
	<path d="M216.2,1113.2H215v-5.1c0-0.6,0-0.7,0.1-1l0,0c-0.1,0.2-0.2,0.3-0.4,0.4l-1,0.6v-1.2l1.5-1l0.2-0.6h0.9V1113.2z"/>
	<path d="M218.1,1107.6h1.2c0,0.4,0,0.8-0.1,1.2l0,0c0.3-1,0.9-1.4,1.8-1.4c0.9,0,1.5,0.5,1.7,1.3h0c0.2-0.8,0.9-1.3,1.8-1.3
		c1.2,0,1.8,0.8,1.8,2.1v3.6h-1.2v-3.2c0-0.9-0.3-1.4-1.1-1.4c-0.8,0-1.2,0.6-1.2,1.8v2.8h-1.1v-3.2c0-0.9-0.3-1.4-1.1-1.4
		c-0.8,0-1.2,0.6-1.2,1.8v2.8h-1.2V1107.6z"/>
</g>
<g class="st2">
	<path d="M775.3,1107.8h-3.2c-0.1,0-0.2,0-0.3,0l0,0c0,0.1,0,0.2,0,0.3v1.5c0,0.1,0,0.2,0,0.3l0,0c0.1,0,0.2,0,0.3,0h2.8v1.2h-2.8
		c-0.1,0-0.2,0-0.3,0l0,0c0,0.1,0,0.2,0,0.3v2.2c0,0.2,0,0.3,0,0.3l0,0c0.1,0,0.2,0,0.3,0h3.3v1.2h-4.8v-8.4h4.8V1107.8z"/>
	<path d="M783.8,1107.6l-0.8,1c-0.5-0.5-1.4-0.9-2.4-0.9c-1.8,0-3,1.3-3,3.1c0,1.8,1.2,3.1,3.1,3.1c1.9,0,2.8-1.4,2.8-2.4l0,0
		c-0.1,0.1-0.3,0.1-0.8,0.1h-2v-1.2h4.2v0.5c0,2.2-1.4,4.4-4.2,4.4c-2.5,0-4.4-1.7-4.4-4.4c0-2.6,1.8-4.4,4.4-4.4
		C782.1,1106.4,783.1,1107,783.8,1107.6z"/>
	<path d="M794.1,1107l-0.6,1.2c-0.5-0.3-1.1-0.5-1.7-0.5c-0.7,0-1,0.3-1,0.7c0,0.4,0.2,0.7,0.6,1l1.5,1.2c0.9,0.7,1.3,1.3,1.3,2.3
		c0,1.5-1.1,2.4-2.7,2.4c-1.1,0-2.1-0.4-2.7-0.8l0.6-1.2c0.5,0.3,1.3,0.7,2.2,0.7c0.9,0,1.3-0.4,1.3-1c0-0.5-0.3-0.8-0.9-1.3
		l-1.4-1.1c-0.7-0.6-1.2-1.2-1.2-2c0-1.2,0.9-2,2.4-2C792.7,1106.4,793.5,1106.7,794.1,1107z"/>
	<path d="M795,1112.2c0-1.8,1.2-3,3-3c0.7,0,1.3,0.2,1.9,0.6l-0.6,1c-0.4-0.3-0.9-0.4-1.4-0.4c-1,0-1.8,0.7-1.8,1.8s0.7,1.8,1.8,1.8
		c0.5,0,1-0.1,1.4-0.4l0.6,1c-0.6,0.4-1.2,0.6-1.9,0.6C796.3,1115.2,795,1114,795,1112.2z"/>
	<path d="M802.2,1109.4c0,0.5,0,0.8-0.1,1.2l0,0c0.4-0.9,1.1-1.4,2-1.4c1.2,0,2,0.8,2,2.1v3.6h-1.2v-3.3c0-0.8-0.4-1.3-1.2-1.3
		c-1,0-1.5,0.7-1.5,1.9v2.7H801v-8.6h1.2V1109.4z"/>
	<path d="M812.7,1111.4v3.6h-1.2v-3.3c0-0.8-0.4-1.3-1.2-1.3c-1,0-1.5,0.7-1.5,1.9v2.7h-1.2v-5.5h1.2c0,0.6,0,0.9-0.1,1.3l0,0
		c0.4-1,1.1-1.5,2-1.5C812,1109.3,812.7,1110,812.7,1111.4z"/>
	<path d="M815.5,1108.2h-1.3v-1.6h1.3V1108.2z M815.4,1115h-1.2v-5.5h1.2V1115z"/>
	<path d="M818.6,1108.9c0,0.2,0,0.4,0,0.6l0,0c0.1-0.1,0.2-0.1,0.5-0.1h0.6v1.1h-0.6c-0.3,0-0.4,0-0.5-0.1l0,0c0,0.2,0,0.4,0,0.6
		v3.8h-1.2v-3.8c0-0.3,0-0.4,0-0.6l0,0c-0.1,0.1-0.2,0.1-0.5,0.1h-0.5v-1.1h0.5c0.3,0,0.4,0,0.5,0.1l0,0c0-0.2,0-0.4,0-0.6v-1.6
		l1.1-0.8h0.1V1108.9z"/>
	<path d="M822.4,1108.9c0,0.2,0,0.4,0,0.6l0,0c0.1-0.1,0.2-0.1,0.5-0.1h0.6v1.1h-0.6c-0.3,0-0.4,0-0.5-0.1l0,0c0,0.2,0,0.4,0,0.6
		v3.8h-1.2v-3.8c0-0.3,0-0.4,0-0.6l0,0c-0.1,0.1-0.2,0.1-0.5,0.1h-0.5v-1.1h0.5c0.3,0,0.4,0,0.5,0.1l0,0c0-0.2,0-0.4,0-0.6v-1.6
		l1.1-0.8h0.1V1108.9z"/>
	<path d="M829.3,1109.4c0,0.5,0,0.8-0.1,1.2l0,0c0.4-0.9,1.1-1.4,2-1.4c1.2,0,2,0.8,2,2.1v3.6H832v-3.3c0-0.8-0.4-1.3-1.2-1.3
		c-1,0-1.5,0.7-1.5,1.9v2.7h-1.2v-8.6h1.2V1109.4z"/>
	<path d="M840.3,1112.2c0,1.7-1.3,3-3,3c-1.8,0-3-1.3-3-3s1.3-3,3-3C839,1109.3,840.3,1110.5,840.3,1112.2z M835.5,1112.2
		c0,1.1,0.7,1.8,1.8,1.8c1.1,0,1.8-0.7,1.8-1.8s-0.7-1.8-1.8-1.8C836.2,1110.4,835.5,1111.2,835.5,1112.2z M836.8,1108.1h-1.1v-1.5
		h1.1V1108.1z M838.9,1108.1h-1.1v-1.5h1.1V1108.1z"/>
	<path d="M842.6,1109.4c0,0.5,0,0.8-0.1,1.2l0,0c0.4-0.9,1.1-1.4,2-1.4c1.2,0,2,0.8,2,2.1v3.6h-1.2v-3.3c0-0.8-0.4-1.3-1.2-1.3
		c-1,0-1.5,0.7-1.5,1.9v2.7h-1.2v-8.6h1.2V1109.4z"/>
	<path d="M853.1,1112.2v0.2h-3.6c-0.4,0-0.6,0-0.7-0.1l0,0l0,0.1c0.1,1,0.7,1.5,1.7,1.5c0.6,0,1.1-0.2,1.7-0.8l0.7,0.8
		c-0.6,0.8-1.4,1.2-2.4,1.2c-1.7,0-2.9-1.2-2.9-2.9c0-1.8,1.1-3,2.8-3C852.1,1109.3,853.1,1110.4,853.1,1112.2z M848.9,1111.7
		L848.9,1111.7c0.2,0,0.4-0.1,0.7-0.1h1.4c0.6,0,0.8,0,0.9,0.1l0,0c-0.1-0.8-0.6-1.3-1.5-1.3C849.6,1110.4,849,1110.8,848.9,1111.7z
		"/>
	<path d="M857.5,1109.3v1.4c-0.2,0-0.3,0-0.4,0c-1.1,0-1.7,0.7-1.7,1.9v2.4h-1.2v-5.5h1.2c0,0.4-0.1,1-0.1,1.5l0.1,0
		c0.3-1.1,0.9-1.6,1.9-1.6C857.4,1109.3,857.4,1109.3,857.5,1109.3z"/>
	<path d="M868.9,1115h-1.2v-3.6c0-0.1,0-0.2,0-0.3l0,0c-0.1,0-0.2,0-0.3,0h-3.7c-0.1,0-0.2,0-0.3,0l0,0c0,0.1,0,0.2,0,0.3v3.6h-1.2
		v-8.4h1.2v3.1c0,0.1,0,0.2,0,0.3l0,0c0.1,0,0.2,0,0.3,0h3.7c0.1,0,0.2,0,0.3,0l0,0c0-0.1,0-0.2,0-0.3v-3.1h1.2V1115z"/>
	<path d="M876.3,1112.2c0,1.7-1.3,3-3,3s-3-1.3-3-3s1.3-3,3-3S876.3,1110.5,876.3,1112.2z M871.4,1112.2c0,1.1,0.7,1.8,1.8,1.8
		s1.8-0.7,1.8-1.8s-0.7-1.8-1.8-1.8S871.4,1111.2,871.4,1112.2z M872.7,1108.1h-1.1v-1.5h1.1V1108.1z M874.8,1108.1h-1.1v-1.5h1.1
		V1108.1z"/>
	<path d="M878.6,1109.4c0,0.5,0,0.8-0.1,1.2l0,0c0.4-0.9,1.1-1.4,2-1.4c1.2,0,2,0.8,2,2.1v3.6h-1.2v-3.3c0-0.8-0.4-1.3-1.2-1.3
		c-1,0-1.5,0.7-1.5,1.9v2.7h-1.2v-8.6h1.2V1109.4z"/>
	<path d="M889,1112.2v0.2h-3.6c-0.4,0-0.6,0-0.7-0.1l0,0l0,0.1c0.1,1,0.7,1.5,1.7,1.5c0.6,0,1.1-0.2,1.7-0.8l0.7,0.8
		c-0.6,0.8-1.4,1.2-2.4,1.2c-1.7,0-2.9-1.2-2.9-2.9c0-1.8,1.1-3,2.8-3C888,1109.3,889,1110.4,889,1112.2z M884.8,1111.7
		L884.8,1111.7c0.2,0,0.4-0.1,0.7-0.1h1.4c0.6,0,0.8,0,0.9,0.1l0,0c-0.1-0.8-0.6-1.3-1.5-1.3
		C885.5,1110.4,884.9,1110.8,884.8,1111.7z"/>
	<path d="M893.4,1112.2c0-1.8,1.2-3,3-3c0.7,0,1.3,0.2,1.9,0.6l-0.6,1c-0.4-0.3-0.9-0.4-1.4-0.4c-1,0-1.8,0.7-1.8,1.8
		s0.7,1.8,1.8,1.8c0.5,0,1-0.1,1.4-0.4l0.6,1c-0.6,0.4-1.2,0.6-1.9,0.6C894.6,1115.2,893.4,1114,893.4,1112.2z"/>
	<path d="M903.7,1111.5v3.5h-1.2c0-0.4,0-0.6,0.2-0.9l0,0c-0.4,0.7-1.1,1.1-1.9,1.1c-1.2,0-2-0.8-2-1.9c0-1.2,0.8-2,2-2
		c0.8,0,1.5,0.3,1.8,0.9l0,0c-0.1-0.2-0.1-0.6-0.1-0.8c0-0.7-0.5-1-1.3-1c-0.4,0-0.9,0.1-1.6,0.3l-0.3-1.1c0.7-0.2,1.4-0.3,2-0.3
		C903,1109.3,903.7,1110,903.7,1111.5z M900,1113.3c0,0.6,0.5,1,1.2,1c0.7,0,1.3-0.4,1.3-1c0-0.6-0.5-1-1.2-1
		C900.5,1112.3,900,1112.7,900,1113.3z"/>
	<path d="M905.1,1113.5h1.4v1.5h-1.4V1113.5z"/>
	<path d="M916.1,1108.8c0,0.8-0.3,1.5-1,2.4l-1.4,1.8c-0.3,0.4-0.6,0.7-0.8,0.9l0,0c0.2-0.1,0.5-0.1,1-0.1h2.4l0,0l-0.6,1.1h-4.9
		l0,0l3.3-4.3c0.5-0.7,0.8-1.2,0.8-1.7c0-0.7-0.4-1.1-1.2-1.1c-0.5,0-1.1,0.3-1.9,0.8l-0.6-0.9c0.9-0.6,1.7-0.9,2.5-0.9
		C915.2,1106.7,916.1,1107.5,916.1,1108.8z"/>
	<path d="M917.4,1109.5h1.2c0,0.4,0,0.8-0.1,1.2l0,0c0.3-1,0.9-1.4,1.8-1.4c0.9,0,1.5,0.5,1.7,1.3h0c0.2-0.8,0.9-1.3,1.8-1.3
		c1.2,0,1.8,0.8,1.8,2.1v3.6h-1.2v-3.2c0-0.9-0.3-1.4-1.1-1.4c-0.8,0-1.2,0.6-1.2,1.8v2.8h-1.1v-3.2c0-0.9-0.3-1.4-1.1-1.4
		c-0.8,0-1.2,0.6-1.2,1.8v2.8h-1.2V1109.5z"/>
</g>
</svg>
