<?xml version="1.0" encoding="utf-8"?>
<!-- Generator: Adobe Illustrator 19.1.0, SVG Export Plug-In . SVG Version: 6.00 Build 0)  -->
<svg version="1.1" id="Ebene_1" xmlns="http://www.w3.org/2000/svg" xmlns:xlink="http://www.w3.org/1999/xlink" x="0px" y="0px"
	 viewBox="-201 441 1280 720" style="enable-background:new -201 441 1280 720;" xml:space="preserve">
<style type="text/css">
	.st0{fill:none;stroke:#B3B3B3;stroke-width:0.25;stroke-linecap:round;stroke-linejoin:round;stroke-miterlimit:10;}
	.st1{fill:#FFFFFF;}
	.st2{fill:none;stroke:#000000;stroke-width:0.144;stroke-linecap:round;stroke-linejoin:round;stroke-miterlimit:10;}
	.st3{fill:none;stroke:#000000;stroke-width:0.25;stroke-linecap:round;stroke-linejoin:round;stroke-miterlimit:10;}
	.st4{fill:none;stroke:#000000;stroke-width:7.200000e-02;stroke-linecap:round;stroke-linejoin:round;stroke-miterlimit:10;}
	.st5{fill:none;stroke:#000000;stroke-width:0.216;stroke-linecap:round;stroke-linejoin:round;stroke-miterlimit:10;}
	.st6{fill:none;}
	.st7{enable-background:new    ;}
</style>
<polyline class="st0" points="-312.6,974.6 -77.5,974.6 -77.5,997.7 -69.8,997.7 -69.8,984.2 554.5,984.2 554.5,1011.2 570,1011.2 
	570,957.2 947.6,957.2 947.6,1011.2 965,1011.2 965,968.8 1151.5,968.8 "/>
<polyline class="st1" points="756.9,573.8 756.9,583.4 570,747.2 570,737.6 756.9,573.8 "/>
<polygon class="st2" points="756.9,573.8 756.9,583.4 570,747.2 570,737.6 "/>
<polyline class="st1" points="976.5,766.5 976.5,778 756.9,583.4 756.9,573.8 976.5,766.5 "/>
<polygon class="st2" points="976.5,766.5 976.5,778 756.9,583.4 756.9,573.8 "/>
<polyline class="st1" points="-73.6,573.8 -65.9,573.8 -65.9,747.2 -73.6,747.2 -73.6,573.8 "/>
<rect x="-73.6" y="573.8" class="st2" width="7.7" height="173.4"/>
<rect x="753" y="598.8" class="st1" width="7.7" height="165.7"/>
<rect x="753" y="598.8" class="st2" width="7.7" height="165.7"/>
<line class="st3" x1="-77.5" y1="974.6" x2="-312.6" y2="974.6"/>
<line class="st2" x1="570" y1="853.2" x2="577.7" y2="853.2"/>
<line class="st2" x1="585.4" y1="853.2" x2="593.1" y2="853.2"/>
<line class="st2" x1="600.8" y1="853.2" x2="608.5" y2="853.2"/>
<line class="st2" x1="616.2" y1="853.2" x2="623.9" y2="853.2"/>
<line class="st2" x1="631.6" y1="853.2" x2="639.3" y2="853.2"/>
<line class="st2" x1="647" y1="853.2" x2="654.7" y2="853.2"/>
<line class="st2" x1="662.4" y1="853.2" x2="670.2" y2="853.2"/>
<line class="st2" x1="677.9" y1="853.2" x2="685.6" y2="853.2"/>
<line class="st2" x1="693.3" y1="853.2" x2="701" y2="853.2"/>
<line class="st2" x1="708.7" y1="853.2" x2="716.4" y2="853.2"/>
<line class="st2" x1="724.1" y1="853.2" x2="731.8" y2="853.2"/>
<line class="st2" x1="739.5" y1="853.2" x2="747.2" y2="853.2"/>
<line class="st2" x1="754.9" y1="853.2" x2="762.6" y2="853.2"/>
<line class="st2" x1="770.3" y1="853.2" x2="778.1" y2="853.2"/>
<line class="st2" x1="785.8" y1="853.2" x2="793.5" y2="853.2"/>
<line class="st2" x1="801.2" y1="853.2" x2="808.9" y2="853.2"/>
<line class="st2" x1="816.6" y1="853.2" x2="824.3" y2="853.2"/>
<line class="st2" x1="832" y1="853.2" x2="839.7" y2="853.2"/>
<line class="st2" x1="847.4" y1="853.2" x2="855.1" y2="853.2"/>
<line class="st2" x1="862.8" y1="853.2" x2="870.5" y2="853.2"/>
<line class="st2" x1="878.3" y1="853.2" x2="886" y2="853.2"/>
<line class="st2" x1="893.7" y1="853.2" x2="901.4" y2="853.2"/>
<line class="st2" x1="909.1" y1="853.2" x2="916.8" y2="853.2"/>
<line class="st2" x1="924.5" y1="853.2" x2="932.2" y2="853.2"/>
<line class="st2" x1="939.9" y1="853.2" x2="947.6" y2="853.2"/>
<line class="st2" x1="947.6" y1="853.2" x2="947.6" y2="857"/>
<line class="st2" x1="947.6" y1="864.8" x2="947.6" y2="868.6"/>
<line class="st2" x1="947.6" y1="868.6" x2="939.9" y2="868.6"/>
<line class="st2" x1="932.2" y1="868.6" x2="924.5" y2="868.6"/>
<line class="st2" x1="916.8" y1="868.6" x2="909.1" y2="868.6"/>
<line class="st2" x1="901.4" y1="868.6" x2="893.7" y2="868.6"/>
<line class="st2" x1="886" y1="868.6" x2="878.3" y2="868.6"/>
<line class="st2" x1="870.5" y1="868.6" x2="862.8" y2="868.6"/>
<line class="st2" x1="855.1" y1="868.6" x2="847.4" y2="868.6"/>
<line class="st2" x1="839.7" y1="868.6" x2="832" y2="868.6"/>
<line class="st2" x1="824.3" y1="868.6" x2="816.6" y2="868.6"/>
<line class="st2" x1="808.9" y1="868.6" x2="801.2" y2="868.6"/>
<line class="st2" x1="793.5" y1="868.6" x2="785.8" y2="868.6"/>
<line class="st2" x1="778.1" y1="868.6" x2="770.3" y2="868.6"/>
<line class="st2" x1="762.6" y1="868.6" x2="754.9" y2="868.6"/>
<line class="st2" x1="747.2" y1="868.6" x2="739.5" y2="868.6"/>
<line class="st2" x1="731.8" y1="868.6" x2="724.1" y2="868.6"/>
<line class="st2" x1="716.4" y1="868.6" x2="708.7" y2="868.6"/>
<line class="st2" x1="701" y1="868.6" x2="693.3" y2="868.6"/>
<line class="st2" x1="685.6" y1="868.6" x2="677.9" y2="868.6"/>
<line class="st2" x1="670.2" y1="868.6" x2="662.4" y2="868.6"/>
<line class="st2" x1="654.7" y1="868.6" x2="647" y2="868.6"/>
<line class="st2" x1="639.3" y1="868.6" x2="631.6" y2="868.6"/>
<line class="st2" x1="623.9" y1="868.6" x2="616.2" y2="868.6"/>
<line class="st2" x1="608.5" y1="868.6" x2="600.8" y2="868.6"/>
<line class="st2" x1="593.1" y1="868.6" x2="585.4" y2="868.6"/>
<line class="st2" x1="577.7" y1="868.6" x2="570" y2="868.6"/>
<line class="st2" x1="570" y1="868.6" x2="570" y2="864.8"/>
<line class="st2" x1="570" y1="857" x2="570" y2="853.2"/>
<polyline class="st2" points="965,947.6 1005.4,947.6 1005.4,968.8 "/>
<line class="st4" x1="965" y1="965" x2="970.7" y2="965"/>
<line class="st4" x1="976.5" y1="965" x2="982.3" y2="965"/>
<line class="st4" x1="988.1" y1="965" x2="993.9" y2="965"/>
<line class="st4" x1="999.7" y1="965" x2="1005.4" y2="965"/>
<line class="st4" x1="965" y1="959.2" x2="970.7" y2="959.2"/>
<line class="st4" x1="976.5" y1="959.2" x2="982.3" y2="959.2"/>
<line class="st4" x1="988.1" y1="959.2" x2="993.9" y2="959.2"/>
<line class="st4" x1="999.7" y1="959.2" x2="1005.4" y2="959.2"/>
<line class="st4" x1="965" y1="953.4" x2="970.7" y2="953.4"/>
<line class="st4" x1="976.5" y1="953.4" x2="982.3" y2="953.4"/>
<line class="st4" x1="988.1" y1="953.4" x2="993.9" y2="953.4"/>
<line class="st4" x1="999.7" y1="953.4" x2="1005.4" y2="953.4"/>
<line class="st2" x1="839.7" y1="947.6" x2="839.7" y2="939.9"/>
<line class="st2" x1="839.7" y1="932.2" x2="839.7" y2="924.5"/>
<line class="st2" x1="839.7" y1="924.5" x2="839.7" y2="920.6"/>
<line class="st2" x1="799.3" y1="934.1" x2="799.3" y2="928.3"/>
<line class="st2" x1="799.3" y1="920.6" x2="799.3" y2="912.9"/>
<line class="st2" x1="799.3" y1="905.2" x2="799.3" y2="897.5"/>
<line class="st2" x1="799.3" y1="889.8" x2="799.3" y2="882.1"/>
<line class="st2" x1="799.3" y1="874.4" x2="799.3" y2="866.7"/>
<line class="st2" x1="799.3" y1="859" x2="799.3" y2="853.2"/>
<line class="st2" x1="911" y1="860.9" x2="911" y2="853.2"/>
<line class="st2" x1="911" y1="845.5" x2="911" y2="837.8"/>
<line class="st2" x1="911" y1="830.1" x2="911" y2="822.4"/>
<line class="st2" x1="911" y1="814.7" x2="911" y2="806.9"/>
<line class="st2" x1="911" y1="799.2" x2="911" y2="791.5"/>
<line class="st2" x1="911" y1="783.8" x2="911" y2="776.1"/>
<line class="st2" x1="911" y1="778" x2="911" y2="774.2"/>
<line class="st3" x1="1151.5" y1="968.8" x2="965" y2="968.8"/>
<polyline class="st2" points="1.5,957.2 -6.2,957.2 -6.2,963 -17.8,963 -17.8,970.7 "/>
<rect x="1.5" y="870.5" class="st1" width="1.9" height="100.2"/>
<rect x="1.5" y="870.5" class="st2" width="1.9" height="100.2"/>
<line class="st2" x1="-17.8" y1="870.5" x2="-17.8" y2="963"/>
<polyline class="st2" points="367.6,957.2 377.3,957.2 377.3,963 386.9,963 386.9,970.7 "/>
<rect x="365.7" y="870.5" class="st1" width="1.9" height="100.2"/>
<rect x="365.7" y="870.5" class="st2" width="1.9" height="100.2"/>
<polyline points="-21.6,573.8 -15.8,573.8 -15.8,587.3 -21.6,587.3 -21.6,573.8 "/>
<rect x="-21.6" y="573.8" class="st5" width="5.8" height="13.5"/>
<polyline points="15,573.8 20.8,573.8 20.8,587.3 15,587.3 15,573.8 "/>
<rect x="15" y="573.8" class="st5" width="5.8" height="13.5"/>
<polyline points="53.5,573.8 59.3,573.8 59.3,587.3 53.5,587.3 53.5,573.8 "/>
<rect x="53.5" y="573.8" class="st5" width="5.8" height="13.5"/>
<polyline points="92.1,573.8 97.9,573.8 97.9,587.3 92.1,587.3 92.1,573.8 "/>
<rect x="92.1" y="573.8" class="st5" width="5.8" height="13.5"/>
<polyline points="128.7,573.8 134.5,573.8 134.5,587.3 128.7,587.3 128.7,573.8 "/>
<rect x="128.7" y="573.8" class="st5" width="5.8" height="13.5"/>
<polyline points="167.2,573.8 173,573.8 173,587.3 167.2,587.3 167.2,573.8 "/>
<rect x="167.2" y="573.8" class="st5" width="5.8" height="13.5"/>
<polyline points="205.8,573.8 211.5,573.8 211.5,587.3 205.8,587.3 205.8,573.8 "/>
<rect x="205.8" y="573.8" class="st5" width="5.8" height="13.5"/>
<polyline points="242.4,573.8 248.2,573.8 248.2,587.3 242.4,587.3 242.4,573.8 "/>
<rect x="242.4" y="573.8" class="st5" width="5.8" height="13.5"/>
<polyline points="280.9,573.8 286.7,573.8 286.7,587.3 280.9,587.3 280.9,573.8 "/>
<rect x="280.9" y="573.8" class="st5" width="5.8" height="13.5"/>
<polyline points="319.5,573.8 325.2,573.8 325.2,587.3 319.5,587.3 319.5,573.8 "/>
<rect x="319.5" y="573.8" class="st5" width="5.8" height="13.5"/>
<polyline points="356.1,573.8 363.8,573.8 363.8,587.3 356.1,587.3 356.1,573.8 "/>
<rect x="356.1" y="573.8" class="st5" width="7.7" height="13.5"/>
<polyline points="394.6,573.8 400.4,573.8 400.4,587.3 394.6,587.3 394.6,573.8 "/>
<rect x="394.6" y="573.8" class="st5" width="5.8" height="13.5"/>
<polyline points="433.1,573.8 438.9,573.8 438.9,587.3 433.1,587.3 433.1,573.8 "/>
<rect x="433.1" y="573.8" class="st5" width="5.8" height="13.5"/>
<polyline points="469.8,573.8 477.5,573.8 477.5,587.3 469.8,587.3 469.8,573.8 "/>
<rect x="469.8" y="573.8" class="st5" width="7.7" height="13.5"/>
<polyline points="508.3,573.8 514.1,573.8 514.1,587.3 508.3,587.3 508.3,573.8 "/>
<rect x="508.3" y="573.8" class="st5" width="5.8" height="13.5"/>
<polyline points="546.8,573.8 552.6,573.8 552.6,587.3 546.8,587.3 546.8,573.8 "/>
<rect x="546.8" y="573.8" class="st5" width="5.8" height="13.5"/>
<rect x="583.4" y="573.8" width="7.7" height="15.4"/>
<rect x="583.4" y="573.8" class="st5" width="7.7" height="15.4"/>
<rect x="622" y="573.8" width="5.8" height="15.4"/>
<rect x="622" y="573.8" class="st5" width="5.8" height="15.4"/>
<rect x="660.5" y="573.8" width="5.8" height="15.4"/>
<rect x="660.5" y="573.8" class="st5" width="5.8" height="15.4"/>
<rect x="699.1" y="573.8" width="5.8" height="15.4"/>
<rect x="699.1" y="573.8" class="st5" width="5.8" height="15.4"/>
<rect x="729.9" y="573.8" width="5.8" height="15.4"/>
<rect x="729.9" y="573.8" class="st5" width="5.8" height="15.4"/>
<polyline points="-60.1,573.8 -54.4,573.8 -54.4,587.3 -60.1,587.3 -60.1,573.8 "/>
<rect x="-60.1" y="573.8" class="st5" width="5.8" height="13.5"/>
<rect x="-73.6" y="587.3" class="st1" width="628.2" height="11.6"/>
<rect x="-73.6" y="587.3" class="st2" width="628.2" height="11.6"/>
<rect x="570" y="589.2" class="st1" width="190.8" height="9.6"/>
<rect x="570" y="589.2" class="st2" width="190.8" height="9.6"/>
<rect x="753" y="585.4" class="st1" width="7.7" height="13.5"/>
<rect x="753" y="585.4" class="st2" width="7.7" height="13.5"/>
<rect x="-21.6" y="710.6" class="st1" width="163.8" height="36.6"/>
<rect x="-21.6" y="710.6" class="st2" width="163.8" height="36.6"/>
<rect x="188.4" y="598.8" class="st1" width="204.3" height="148.4"/>
<rect x="188.4" y="598.8" class="st2" width="204.3" height="148.4"/>
<rect x="196.1" y="664.4" class="st1" width="34.7" height="82.9"/>
<rect x="196.1" y="664.4" class="st2" width="34.7" height="82.9"/>
<polyline points="570,860.9 606.6,860.9 606.6,866.7 616.2,866.7 616.2,874.4 627.8,874.4 627.8,880.2 637.4,880.2 637.4,887.9 
	647,887.9 647,893.7 658.6,893.7 658.6,901.4 668.2,901.4 668.2,907.1 677.9,907.1 677.9,914.9 689.4,914.9 689.4,920.6 
	699.1,920.6 699.1,928.3 708.7,928.3 708.7,934.1 720.2,934.1 720.2,941.8 754.9,941.8 754.9,947.6 708.7,947.6 708.7,941.8 
	598.9,868.6 570,868.6 570,860.9 "/>
<polygon class="st5" points="570,860.9 606.6,860.9 606.6,866.7 616.2,866.7 616.2,874.4 627.8,874.4 627.8,880.2 637.4,880.2 
	637.4,887.9 647,887.9 647,893.7 658.6,893.7 658.6,901.4 668.2,901.4 668.2,907.1 677.9,907.1 677.9,914.9 689.4,914.9 
	689.4,920.6 699.1,920.6 699.1,928.3 708.7,928.3 708.7,934.1 720.2,934.1 720.2,941.8 754.9,941.8 754.9,947.6 708.7,947.6 
	708.7,941.8 598.9,868.6 570,868.6 "/>
<polyline points="947.6,860.9 911,860.9 911,866.7 901.4,866.7 901.4,874.4 891.7,874.4 891.7,880.2 880.2,880.2 880.2,887.9 
	870.5,887.9 870.5,893.7 860.9,893.7 860.9,901.4 851.3,901.4 851.3,907.1 839.7,907.1 839.7,914.9 830.1,914.9 830.1,920.6 
	820.4,920.6 820.4,928.3 808.9,928.3 808.9,934.1 799.3,934.1 799.3,941.8 762.6,941.8 762.6,947.6 808.9,947.6 808.9,941.8 
	918.7,868.6 947.6,868.6 947.6,860.9 "/>
<polygon class="st5" points="947.6,860.9 911,860.9 911,866.7 901.4,866.7 901.4,874.4 891.7,874.4 891.7,880.2 880.2,880.2 
	880.2,887.9 870.5,887.9 870.5,893.7 860.9,893.7 860.9,901.4 851.3,901.4 851.3,907.1 839.7,907.1 839.7,914.9 830.1,914.9 
	830.1,920.6 820.4,920.6 820.4,928.3 808.9,928.3 808.9,934.1 799.3,934.1 799.3,941.8 762.6,941.8 762.6,947.6 808.9,947.6 
	808.9,941.8 918.7,868.6 947.6,868.6 "/>
<polyline points="965,876.3 947.6,876.3 947.6,822.4 965,822.4 965,876.3 "/>
<rect x="947.6" y="822.4" class="st5" width="17.3" height="54"/>
<path d="M294.4,857.3h-3.8V759h-54.2v98.3h-2.7V759h-43.2v103.1h244.7V759H303.8v98.3H300V759h-5.7v98.3 M755.5,948.3V774.2H570.7
	v174.1L755.5,948.3 M179.4,871.2H-61.9v8.2h-16v-17.3h257.4V759h-43.2v98.3h-2.7V759H79.4v98.3h-3.8V759h-5.7v98.3H66V759H-61.9
	v17.3h-16v-28.4h525.7v229.3h106V574h16.9v190.7h377.9v-12.1l15.9,13.9V778H948v-3.8H763.1v174.1h201.3v62h-16.5v-52.5H570.7v52.5
	h-16.9v-25.5H-70.4v12.1H-78v-19.7h513v-106H190.4v99.9h-11V871.2"/>
<path class="st5" d="M294.4,857.3h-3.8V759h-54.2v98.3h-2.7V759h-43.2v103.1h244.7V759H303.8v98.3H300V759h-5.7v98.3 M755.5,948.3
	V774.2H570.7v174.1L755.5,948.3 M179.4,871.2H-61.9v8.2h-16v-17.3h257.4V759h-43.2v98.3h-2.7V759H79.4v98.3h-3.8V759h-5.7v98.3H66
	V759H-61.9v17.3h-16v-28.4h525.7v229.3h106V574h16.9v190.7h377.9v-12.1l15.9,13.9V778H948v-3.8H763.1v174.1h201.3v62h-16.5v-52.5
	H570.7v52.5h-16.9v-25.5H-70.4v12.1H-78v-19.7h513v-106H190.4v99.9h-11V871.2"/>
<polyline points="304,970.7 300.2,970.7 300.2,870.5 304,870.5 304,970.7 "/>
<rect x="300.2" y="870.5" class="st5" width="3.9" height="100.2"/>
<polyline points="294.4,970.7 290.5,970.7 290.5,870.5 294.4,870.5 294.4,970.7 "/>
<rect x="290.5" y="870.5" class="st5" width="3.9" height="100.2"/>
<polyline points="78.6,970.7 74.7,970.7 74.7,870.5 78.6,870.5 78.6,970.7 "/>
<rect x="74.7" y="870.5" class="st5" width="3.9" height="100.2"/>
<polyline points="69,970.7 65.1,970.7 65.1,870.5 69,870.5 69,970.7 "/>
<rect x="65.1" y="870.5" class="st5" width="3.9" height="100.2"/>
<rect x="-77.5" y="880.2" class="st1" width="15.4" height="96.3"/>
<rect x="-77.5" y="880.2" class="st2" width="15.4" height="96.3"/>
<rect x="-77.5" y="776.1" class="st1" width="15.4" height="86.7"/>
<rect x="-77.5" y="776.1" class="st2" width="15.4" height="86.7"/>
<line class="st2" x1="-62.1" y1="857" x2="178.8" y2="857"/>
<line class="st2" x1="-62.1" y1="970.7" x2="435.1" y2="970.7"/>
<line class="st2" x1="190.3" y1="857" x2="435.1" y2="857"/>
<polyline class="st2" points="570,853.2 606.6,853.2 606.6,860.9 "/>
<line class="st2" x1="606.6" y1="853.2" x2="606.6" y2="774.2"/>
<polyline class="st2" points="720.2,941.8 720.2,868.6 754.9,868.6 "/>
<line class="st2" x1="-77.5" y1="747.2" x2="-77.5" y2="573.8"/>
<rect x="-83.3" y="569.9" class="st1" width="840.1" height="3.9"/>
<rect x="-83.3" y="569.9" class="st2" width="840.1" height="3.9"/>
<polyline class="st1" points="756.9,569.9 976.5,762.6 976.5,766.5 756.9,573.8 756.9,569.9 "/>
<polygon class="st2" points="756.9,569.9 976.5,762.6 976.5,766.5 756.9,573.8 "/>
<line class="st2" x1="583.4" y1="726" x2="583.4" y2="598.8"/>
<line class="st2" x1="591.1" y1="720.2" x2="591.1" y2="598.8"/>
<line class="st2" x1="622" y1="691.3" x2="622" y2="598.8"/>
<line class="st2" x1="627.8" y1="687.5" x2="627.8" y2="598.8"/>
<line class="st2" x1="660.5" y1="658.6" x2="660.5" y2="598.8"/>
<line class="st2" x1="666.3" y1="652.8" x2="666.3" y2="598.8"/>
<line class="st2" x1="699.1" y1="625.8" x2="699.1" y2="598.8"/>
<line class="st2" x1="704.8" y1="620" x2="704.8" y2="598.8"/>
<rect x="438.9" y="598.8" class="st1" width="9.6" height="148.4"/>
<rect x="438.9" y="598.8" class="st2" width="9.6" height="148.4"/>
<rect x="-65.9" y="675.9" class="st1" width="620.5" height="13.5"/>
<rect x="-65.9" y="675.9" class="st2" width="620.5" height="13.5"/>
<rect x="448.6" y="739.5" class="st1" width="106" height="7.7"/>
<rect x="448.6" y="739.5" class="st2" width="106" height="7.7"/>
<rect x="392.7" y="739.5" class="st1" width="46.2" height="7.7"/>
<rect x="392.7" y="739.5" class="st2" width="46.2" height="7.7"/>
<rect x="142.2" y="739.5" class="st1" width="46.2" height="7.7"/>
<rect x="142.2" y="739.5" class="st2" width="46.2" height="7.7"/>
<rect x="-65.9" y="739.5" class="st1" width="44.3" height="7.7"/>
<rect x="-65.9" y="739.5" class="st2" width="44.3" height="7.7"/>
<line class="st2" x1="-60.1" y1="675.9" x2="-60.1" y2="598.8"/>
<line class="st2" x1="-54.4" y1="675.9" x2="-54.4" y2="598.8"/>
<line class="st2" x1="-21.6" y1="675.9" x2="-21.6" y2="598.8"/>
<line class="st2" x1="-15.8" y1="675.9" x2="-15.8" y2="598.8"/>
<line class="st2" x1="15" y1="675.9" x2="15" y2="598.8"/>
<line class="st2" x1="20.8" y1="675.9" x2="20.8" y2="598.8"/>
<line class="st2" x1="53.5" y1="675.9" x2="53.5" y2="598.8"/>
<line class="st2" x1="59.3" y1="675.9" x2="59.3" y2="598.8"/>
<line class="st2" x1="92.1" y1="675.9" x2="92.1" y2="598.8"/>
<line class="st2" x1="97.9" y1="675.9" x2="97.9" y2="598.8"/>
<line class="st2" x1="128.7" y1="675.9" x2="128.7" y2="598.8"/>
<line class="st2" x1="134.5" y1="675.9" x2="134.5" y2="598.8"/>
<line class="st2" x1="167.2" y1="675.9" x2="167.2" y2="598.8"/>
<line class="st2" x1="173" y1="675.9" x2="173" y2="598.8"/>
<line class="st2" x1="394.6" y1="675.9" x2="394.6" y2="598.8"/>
<line class="st2" x1="400.4" y1="675.9" x2="400.4" y2="598.8"/>
<line class="st2" x1="433.1" y1="675.9" x2="433.1" y2="598.8"/>
<line class="st2" x1="469.8" y1="675.9" x2="469.8" y2="598.8"/>
<line class="st2" x1="477.5" y1="675.9" x2="477.5" y2="598.8"/>
<line class="st2" x1="508.3" y1="675.9" x2="508.3" y2="598.8"/>
<line class="st2" x1="514.1" y1="675.9" x2="514.1" y2="598.8"/>
<line class="st2" x1="546.8" y1="675.9" x2="546.8" y2="598.8"/>
<line class="st2" x1="552.6" y1="675.9" x2="552.6" y2="598.8"/>
<line class="st2" x1="-54.4" y1="739.5" x2="-54.4" y2="689.4"/>
<line class="st2" x1="-21.6" y1="710.6" x2="-21.6" y2="689.4"/>
<line class="st2" x1="-15.8" y1="710.6" x2="-15.8" y2="689.4"/>
<line class="st2" x1="-60.1" y1="739.5" x2="-60.1" y2="689.4"/>
<line class="st2" x1="15" y1="710.6" x2="15" y2="689.4"/>
<line class="st2" x1="20.8" y1="710.6" x2="20.8" y2="689.4"/>
<line class="st2" x1="53.5" y1="710.6" x2="53.5" y2="689.4"/>
<line class="st2" x1="59.3" y1="710.6" x2="59.3" y2="689.4"/>
<line class="st2" x1="92.1" y1="710.6" x2="92.1" y2="689.4"/>
<line class="st2" x1="97.9" y1="710.6" x2="97.9" y2="689.4"/>
<line class="st2" x1="128.7" y1="710.6" x2="128.7" y2="689.4"/>
<line class="st2" x1="134.5" y1="710.6" x2="134.5" y2="689.4"/>
<line class="st2" x1="167.2" y1="689.4" x2="167.2" y2="739.5"/>
<line class="st2" x1="173" y1="689.4" x2="173" y2="739.5"/>
<line class="st2" x1="394.6" y1="689.4" x2="394.6" y2="739.5"/>
<line class="st2" x1="400.4" y1="689.4" x2="400.4" y2="739.5"/>
<line class="st2" x1="433.1" y1="689.4" x2="433.1" y2="739.5"/>
<line class="st2" x1="469.8" y1="689.4" x2="469.8" y2="739.5"/>
<line class="st2" x1="477.5" y1="689.4" x2="477.5" y2="739.5"/>
<line class="st2" x1="508.3" y1="689.4" x2="508.3" y2="739.5"/>
<line class="st2" x1="514.1" y1="689.4" x2="514.1" y2="739.5"/>
<line class="st2" x1="546.8" y1="689.4" x2="546.8" y2="739.5"/>
<line class="st2" x1="552.6" y1="689.4" x2="552.6" y2="739.5"/>
<rect x="947.6" y="876.3" class="st1" width="17.3" height="71.3"/>
<rect x="947.6" y="876.3" class="st2" width="17.3" height="71.3"/>
<rect x="947.6" y="778" class="st1" width="17.3" height="44.3"/>
<rect x="947.6" y="778" class="st2" width="17.3" height="44.3"/>
<line class="st2" x1="-64" y1="776.1" x2="-64" y2="862.8"/>
<line class="st2" x1="-64" y1="880.2" x2="-64" y2="976.5"/>
<line class="st2" x1="949.6" y1="822.4" x2="949.6" y2="778"/>
<line class="st2" x1="949.6" y1="947.6" x2="949.6" y2="876.3"/>
<rect x="-168.1" y="390.7" class="st6" width="1215.9" height="847.8"/>
<rect x="-106.5" y="1066.2" class="st6" width="160" height="76"/>
<g class="st7">
	<path d="M-101.1,1066.8l-0.6,1.2c-0.5-0.3-1.1-0.5-1.7-0.5c-0.7,0-1,0.3-1,0.7c0,0.4,0.2,0.7,0.6,1l1.5,1.2
		c0.9,0.7,1.3,1.3,1.3,2.3c0,1.5-1.1,2.4-2.7,2.4c-1.1,0-2.1-0.4-2.7-0.8l0.6-1.2c0.5,0.3,1.3,0.7,2.2,0.7c0.9,0,1.3-0.4,1.3-1
		c0-0.5-0.3-0.8-0.9-1.3l-1.4-1.1c-0.7-0.6-1.2-1.2-1.2-2c0-1.2,0.9-2,2.4-2C-102.5,1066.2-101.7,1066.5-101.1,1066.8z"/>
	<path d="M-100.2,1072.1c0-1.8,1.2-3,3-3c0.7,0,1.3,0.2,1.9,0.6l-0.6,1c-0.4-0.3-0.9-0.4-1.4-0.4c-1,0-1.8,0.7-1.8,1.8
		s0.7,1.8,1.8,1.8c0.5,0,1-0.1,1.4-0.4l0.6,1c-0.6,0.4-1.2,0.6-1.9,0.6C-98.9,1075-100.2,1073.8-100.2,1072.1z"/>
	<path d="M-93,1069.2c0,0.5,0,0.8-0.1,1.2l0,0c0.4-0.9,1.1-1.4,2-1.4c1.2,0,2,0.8,2,2.1v3.6h-1.2v-3.3c0-0.8-0.4-1.3-1.2-1.3
		c-1,0-1.5,0.7-1.5,1.9v2.7h-1.2v-8.6h1.2V1069.2z"/>
	<path d="M-82.5,1071.2v3.6h-1.2v-3.3c0-0.8-0.4-1.3-1.2-1.3c-1,0-1.5,0.7-1.5,1.9v2.7h-1.2v-5.5h1.2c0,0.6,0,0.9-0.1,1.3l0,0
		c0.4-1,1.1-1.5,2-1.5C-83.2,1069.1-82.5,1069.9-82.5,1071.2z"/>
	<path d="M-79.7,1068h-1.3v-1.6h1.3V1068z M-79.8,1074.8H-81v-5.5h1.2V1074.8z"/>
	<path d="M-76.6,1068.7c0,0.2,0,0.4,0,0.6l0,0c0.1-0.1,0.2-0.1,0.5-0.1h0.6v1.1h-0.6c-0.3,0-0.4,0-0.5-0.1l0,0c0,0.2,0,0.4,0,0.6
		v3.8h-1.2v-3.8c0-0.3,0-0.4,0-0.6l0,0c-0.1,0.1-0.2,0.1-0.5,0.1h-0.5v-1.1h0.5c0.3,0,0.4,0,0.5,0.1l0,0c0-0.2,0-0.4,0-0.6v-1.6
		l1.1-0.8h0.1V1068.7z"/>
	<path d="M-72.8,1068.7c0,0.2,0,0.4,0,0.6l0,0c0.1-0.1,0.2-0.1,0.5-0.1h0.6v1.1h-0.6c-0.3,0-0.4,0-0.5-0.1l0,0c0,0.2,0,0.4,0,0.6
		v3.8H-74v-3.8c0-0.3,0-0.4,0-0.6l0,0c-0.1,0.1-0.2,0.1-0.5,0.1H-75v-1.1h0.5c0.3,0,0.4,0,0.5,0.1l0,0c0-0.2,0-0.4,0-0.6v-1.6
		l1.1-0.8h0.1V1068.7z"/>
</g>
</svg>
