<?xml version="1.0" encoding="utf-8"?>
<!-- Generator: Adobe Illustrator 19.1.0, SVG Export Plug-In . SVG Version: 6.00 Build 0)  -->
<svg version="1.1" id="Ebene_1" xmlns="http://www.w3.org/2000/svg" xmlns:xlink="http://www.w3.org/1999/xlink" x="0px" y="0px"
	 viewBox="0 0 1280 720" style="enable-background:new 0 0 1280 720;" xml:space="preserve">
<style type="text/css">
	.st0{clip-path:url(#SVGID_2_);}
	.st1{clip-path:url(#SVGID_4_);}
	
		.st2{clip-path:url(#SVGID_6_);fill:none;stroke:#000000;stroke-width:0.144;stroke-linecap:round;stroke-linejoin:round;stroke-miterlimit:10;}
	.st3{clip-path:url(#SVGID_6_);fill-rule:evenodd;clip-rule:evenodd;fill:#E8E8E8;}
	
		.st4{clip-path:url(#SVGID_6_);fill:none;stroke:#8C8C8C;stroke-width:0.144;stroke-linecap:round;stroke-linejoin:round;stroke-miterlimit:10;}
	.st5{clip-path:url(#SVGID_6_);fill-rule:evenodd;clip-rule:evenodd;}
	
		.st6{clip-path:url(#SVGID_6_);fill:none;stroke:#000000;stroke-width:0.216;stroke-linecap:round;stroke-linejoin:round;stroke-miterlimit:10;}
	.st7{clip-path:url(#SVGID_6_);fill-rule:evenodd;clip-rule:evenodd;fill:#FFFFFF;}
	
		.st8{clip-path:url(#SVGID_6_);fill:none;stroke:#000000;stroke-width:7.200000e-02;stroke-linecap:round;stroke-linejoin:round;stroke-miterlimit:10;}
	.st9{clip-path:url(#SVGID_8_);fill-rule:evenodd;clip-rule:evenodd;fill:#FFFFFF;}
	
		.st10{clip-path:url(#SVGID_8_);fill:none;stroke:#000000;stroke-width:0.144;stroke-linecap:round;stroke-linejoin:round;stroke-miterlimit:10;}
	.st11{clip-path:url(#SVGID_8_);fill-rule:evenodd;clip-rule:evenodd;fill:#E8E8E8;}
	
		.st12{clip-path:url(#SVGID_8_);fill:none;stroke:#8C8C8C;stroke-width:0.144;stroke-linecap:round;stroke-linejoin:round;stroke-miterlimit:10;}
	.st13{clip-path:url(#SVGID_8_);fill-rule:evenodd;clip-rule:evenodd;}
	
		.st14{clip-path:url(#SVGID_8_);fill:none;stroke:#000000;stroke-width:0.216;stroke-linecap:round;stroke-linejoin:round;stroke-miterlimit:10;}
	
		.st15{clip-path:url(#SVGID_8_);fill:none;stroke:#CCCCCC;stroke-width:0.144;stroke-linecap:round;stroke-linejoin:round;stroke-miterlimit:10;}
	.st16{clip-path:url(#SVGID_10_);fill-rule:evenodd;clip-rule:evenodd;fill:#E8E8E8;}
	
		.st17{clip-path:url(#SVGID_10_);fill:none;stroke:#8C8C8C;stroke-width:0.144;stroke-linecap:round;stroke-linejoin:round;stroke-miterlimit:10;}
	.st18{clip-path:url(#SVGID_10_);fill-rule:evenodd;clip-rule:evenodd;fill:#FFFFFF;}
	
		.st19{clip-path:url(#SVGID_10_);fill:none;stroke:#000000;stroke-width:0.144;stroke-linecap:round;stroke-linejoin:round;stroke-miterlimit:10;}
	.st20{clip-path:url(#SVGID_10_);fill-rule:evenodd;clip-rule:evenodd;}
	
		.st21{clip-path:url(#SVGID_10_);fill:none;stroke:#000000;stroke-width:0.216;stroke-linecap:round;stroke-linejoin:round;stroke-miterlimit:10;}
	
		.st22{clip-path:url(#SVGID_10_);fill:none;stroke:#CCCCCC;stroke-width:0.144;stroke-linecap:round;stroke-linejoin:round;stroke-miterlimit:10;}
	.st23{clip-path:url(#SVGID_12_);fill-rule:evenodd;clip-rule:evenodd;fill:#FFFFFF;}
	
		.st24{clip-path:url(#SVGID_12_);fill:none;stroke:#000000;stroke-width:0.144;stroke-linecap:round;stroke-linejoin:round;stroke-miterlimit:10;}
	.st25{clip-path:url(#SVGID_12_);fill-rule:evenodd;clip-rule:evenodd;fill:#B3B3B3;}
	
		.st26{clip-path:url(#SVGID_12_);fill:none;stroke:#B3B3B3;stroke-width:0.288;stroke-linecap:round;stroke-linejoin:round;stroke-miterlimit:10;}
	.st27{clip-path:url(#SVGID_12_);fill-rule:evenodd;clip-rule:evenodd;}
	
		.st28{clip-path:url(#SVGID_12_);fill:none;stroke:#000000;stroke-width:0.216;stroke-linecap:round;stroke-linejoin:round;stroke-miterlimit:10;}
	
		.st29{clip-path:url(#SVGID_12_);fill:none;stroke:#8C8C8C;stroke-width:0.144;stroke-linecap:round;stroke-linejoin:round;stroke-miterlimit:10;}
	.st30{fill-rule:evenodd;clip-rule:evenodd;fill:#FFFFFF;}
	.st31{fill:none;stroke:#000000;stroke-width:0.144;stroke-linecap:round;stroke-linejoin:round;stroke-miterlimit:10;}
	.st32{fill-rule:evenodd;clip-rule:evenodd;fill:#E8E8E8;}
	.st33{fill:none;stroke:#8C8C8C;stroke-width:0.144;stroke-linecap:round;stroke-linejoin:round;stroke-miterlimit:10;}
	.st34{fill-rule:evenodd;clip-rule:evenodd;}
	.st35{fill:none;stroke:#000000;stroke-width:0.216;stroke-linecap:round;stroke-linejoin:round;stroke-miterlimit:10;}
	.st36{fill:none;stroke:#CCCCCC;stroke-width:0.144;stroke-linecap:round;stroke-linejoin:round;stroke-miterlimit:10;}
	.st37{fill-rule:evenodd;clip-rule:evenodd;fill:none;}
	.st38{fill:none;stroke:#000000;stroke-width:7.200000e-02;stroke-linecap:round;stroke-linejoin:round;stroke-miterlimit:10;}
	.st39{fill:none;stroke:#000000;stroke-width:0.25;stroke-linecap:round;stroke-linejoin:round;stroke-miterlimit:10;}
	.st40{font-family:'GTEestiProText-Regular';}
	.st41{font-size:12px;}
</style>
<rect x="620" y="173.3" class="st30" width="38.8" height="86.7"/>
<rect x="620" y="173.3" class="st31" width="38.8" height="86.7"/>
<polyline class="st30" points="767.4,173.8 767.4,147.9 723,147.9 723,215.6 757.1,215.6 757.1,173.8 767.4,173.8 "/>
<polygon class="st31" points="767.4,173.8 767.4,147.9 723,147.9 723,215.6 757.1,215.6 757.1,173.8 "/>
<polyline class="st30" points="764,173.8 764,151.8 726.9,151.8 726.9,215.6 757.1,215.6 757.1,173.8 764,173.8 "/>
<polygon class="st31" points="764,173.8 764,151.8 726.9,151.8 726.9,215.6 757.1,215.6 757.1,173.8 "/>
<rect x="757.1" y="173.8" class="st30" width="153.9" height="86.2"/>
<rect x="757.1" y="173.8" class="st31" width="153.9" height="86.2"/>
<polyline class="st30" points="335.9,213 493.3,213 493.3,335.4 335.9,335.4 335.9,213 "/>
<rect x="335.9" y="213" class="st31" width="157.4" height="122.4"/>
<rect x="620" y="276.8" class="st30" width="157.8" height="135.4"/>
<rect x="620" y="276.8" class="st31" width="157.8" height="135.4"/>
<rect x="653.2" y="445.4" class="st30" width="35.4" height="109.5"/>
<rect x="653.2" y="445.4" class="st31" width="35.4" height="109.5"/>
<path class="st31" d="M737.9,421.3h14.8v-8.9 M619.8,501.5v-8.9h14.8v-8.9h14.8v-8.9h14.8v-8.9h14.8v-8.9h14.8V448h14.8v-8.9h14.8
	v-8.9"/>
<polyline class="st31" points="620,357.9 620,348.8 634.7,348.8 634.7,340.2 649.3,340.2 649.3,331.1 664,331.1 664,322.5 
	679.1,322.5 679.1,313.4 693.7,313.4 693.7,304.4 708.4,304.4 708.4,295.8 723,295.8 723,286.7 738.1,286.7 738.1,277.7 
	752.8,277.7 752.8,269 767.4,269 767.4,260 "/>
<polyline class="st34" points="919.6,498.4 919.6,562.2 726.5,562.2 726.5,429.8 919.6,429.8 919.6,462.6 933.8,462.6 933.8,338.5 
	919.6,338.5 919.6,419.5 539,419.5 539,429.8 713.6,429.8 713.6,562.2 553.6,562.2 553.6,518.7 553.6,508.7 328.6,508.7 
	328.6,414.8 313.9,414.8 313.9,518.7 539,518.7 539,572.1 933.8,572.1 933.8,498.4 919.6,498.4 "/>
<polygon class="st35" points="919.6,498.4 919.6,562.2 726.5,562.2 726.5,429.8 919.6,429.8 919.6,462.6 933.8,462.6 933.8,338.5 
	919.6,338.5 919.6,419.5 539,419.5 539,429.8 713.6,429.8 713.6,562.2 553.6,562.2 553.6,518.7 553.6,508.7 328.6,508.7 
	328.6,414.8 313.9,414.8 313.9,518.7 539,518.7 539,572.1 933.8,572.1 933.8,498.4 "/>
<polyline class="st34" points="328.6,335.9 313.9,335.9 313.9,376.8 328.6,376.8 328.6,371.2 553.6,371.2 553.6,361.7 328.6,361.7 
	328.6,335.9 "/>
<polygon class="st35" points="328.6,335.9 313.9,335.9 313.9,376.8 328.6,376.8 328.6,371.2 553.6,371.2 553.6,361.7 328.6,361.7 
	"/>
<polyline class="st34" points="620,276.8 919.6,276.8 919.6,310.4 933.8,310.4 933.8,191.9 919.6,191.9 919.6,264.3 620,264.3 
	620,276.8 "/>
<polygon class="st35" points="620,276.8 919.6,276.8 919.6,310.4 933.8,310.4 933.8,191.9 919.6,191.9 919.6,264.3 620,264.3 "/>
<polyline class="st34" points="620,160.4 770.5,109.5 919.6,163.9 933.8,163.9 933.8,146.6 770.5,87.1 620,137.6 620,160.4 "/>
<polygon class="st35" points="620,160.4 770.5,109.5 919.6,163.9 933.8,163.9 933.8,146.6 770.5,87.1 620,137.6 "/>
<polyline class="st34" points="328.6,307.8 328.6,133.2 552.7,182.8 553.6,182.4 553.6,160 551.5,160.4 313.9,107.8 313.9,307.8 
	328.6,307.8 "/>
<polygon class="st35" points="328.6,307.8 328.6,133.2 552.7,182.8 553.6,182.4 553.6,160 551.5,160.4 313.9,107.8 313.9,307.8 "/>
<polyline class="st30" points="620,137.6 620,160.4 553.6,182.4 553.6,160 620,137.6 "/>
<polygon class="st31" points="620,137.6 620,160.4 553.6,182.4 553.6,160 "/>
<rect x="328.6" y="501.4" class="st30" width="225" height="7.3"/>
<rect x="328.6" y="501.4" class="st31" width="225" height="7.3"/>
<rect x="328.6" y="357.9" class="st30" width="225" height="3.9"/>
<rect x="328.6" y="357.9" class="st31" width="225" height="3.9"/>
<rect x="553.6" y="412.2" class="st30" width="366" height="7.3"/>
<rect x="553.6" y="412.2" class="st31" width="366" height="7.3"/>
<rect x="620" y="260" class="st30" width="299.6" height="4.3"/>
<rect x="620" y="260" class="st31" width="299.6" height="4.3"/>
<rect x="553.6" y="554.9" class="st30" width="159.9" height="7.3"/>
<rect x="553.6" y="554.9" class="st31" width="159.9" height="7.3"/>
<line class="st31" x1="553.6" y1="501.4" x2="620" y2="501.4"/>
<line class="st31" x1="553.6" y1="501.4" x2="620" y2="501.4"/>
<line class="st31" x1="620" y1="510.5" x2="553.6" y2="510.5"/>
<line class="st31" x1="553.6" y1="519.1" x2="620" y2="519.1"/>
<line class="st31" x1="553.6" y1="528.1" x2="620" y2="528.1"/>
<line class="st31" x1="553.6" y1="537.2" x2="620" y2="537.2"/>
<line class="st31" x1="553.6" y1="545.8" x2="620" y2="545.8"/>
<line class="st31" x1="620" y1="501.4" x2="620" y2="554.9"/>
<line class="st31" x1="553.6" y1="357.9" x2="620" y2="357.9"/>
<line class="st31" x1="553.6" y1="366.9" x2="620" y2="366.9"/>
<line class="st31" x1="553.6" y1="376" x2="620" y2="376"/>
<line class="st31" x1="553.6" y1="385" x2="620" y2="385"/>
<line class="st31" x1="553.6" y1="394.1" x2="620" y2="394.1"/>
<line class="st31" x1="553.6" y1="403.1" x2="620" y2="403.1"/>
<line class="st31" x1="620" y1="357.9" x2="620" y2="412.2"/>
<line class="st31" x1="553.6" y1="371.2" x2="553.6" y2="412.2"/>
<rect x="693.3" y="510.9" class="st30" width="20.3" height="12.9"/>
<rect x="693.3" y="510.9" class="st31" width="20.3" height="12.9"/>
<line class="st31" x1="468.3" y1="501.4" x2="468.3" y2="371.2"/>
<polyline class="st30" points="539,447.1 539,448.4 551,448.4 551,447.1 539,447.1 "/>
<rect x="539" y="447.1" class="st31" width="12.1" height="1.3"/>
<polyline class="st30" points="539,464.8 539,466.1 551,466.1 551,464.8 539,464.8 "/>
<rect x="539" y="464.8" class="st31" width="12.1" height="1.3"/>
<polyline class="st30" points="539,482.9 539,484.2 551,484.2 551,482.9 539,482.9 "/>
<rect x="539" y="482.9" class="st31" width="12.1" height="1.3"/>
<polyline class="st30" points="551,501.4 551,429.8 553.6,429.8 553.6,501.4 551,501.4 "/>
<rect x="551" y="429.8" class="st31" width="2.6" height="71.6"/>
<rect x="539" y="371.2" class="st30" width="14.7" height="48.3"/>
<rect x="539" y="371.2" class="st31" width="14.7" height="48.3"/>
<line class="st31" x1="548.4" y1="371.2" x2="548.4" y2="419.5"/>
<rect x="883.8" y="364.3" class="st30" width="35.8" height="47.9"/>
<rect x="883.8" y="364.3" class="st31" width="35.8" height="47.9"/>
<line class="st31" x1="833.4" y1="412.2" x2="833.4" y2="276.8"/>
<line class="st31" x1="883.8" y1="364.3" x2="883.8" y2="276.8"/>
<line class="st31" x1="539" y1="429.8" x2="539" y2="501.4"/>
<rect x="529.5" y="323.8" class="st30" width="24.1" height="34.1"/>
<rect x="529.5" y="323.8" class="st31" width="24.1" height="34.1"/>
<polyline class="st30" points="529.5,357.9 529.5,323.8 531.2,323.8 531.2,357.9 529.5,357.9 "/>
<rect x="529.5" y="323.8" class="st31" width="1.7" height="34.1"/>
<polyline class="st30" points="531.2,334.1 553.6,334.1 553.6,335.9 531.2,335.9 531.2,334.1 "/>
<rect x="531.2" y="334.1" class="st31" width="22.4" height="1.7"/>
<polyline class="st30" points="551.9,334.1 551.9,323.8 553.6,323.8 553.6,334.1 551.9,334.1 "/>
<rect x="551.9" y="323.8" class="st31" width="1.7" height="10.3"/>
<path class="st30" d="M347.7,215.6v117.4h45.6V215.6H347.7 M396,215.6v117.4h46.3V215.6H396 M445,215.6v117.4h45.7V215.6H445
	 M493.3,335.6H345.1V212.9h148.2V335.6"/>
<path class="st31" d="M347.7,215.6v117.4h45.6V215.6H347.7 M396,215.6v117.4h46.3V215.6H396 M445,215.6v117.4h45.7V215.6H445
	 M493.3,335.6H345.1V212.9h148.2V335.6"/>
<polyline class="st30" points="347.5,234.6 393.2,234.6 393.2,235.8 347.5,235.8 347.5,234.6 "/>
<rect x="347.5" y="234.6" class="st31" width="45.7" height="1.3"/>
<polyline class="st30" points="347.5,254 393.2,254 393.2,255.2 347.5,255.2 347.5,254 "/>
<rect x="347.5" y="254" class="st31" width="45.7" height="1.3"/>
<polyline class="st30" points="347.5,273.8 393.2,273.8 393.2,275.1 347.5,275.1 347.5,273.8 "/>
<rect x="347.5" y="273.8" class="st31" width="45.7" height="1.3"/>
<polyline class="st30" points="347.5,293.2 393.2,293.2 393.2,294.5 347.5,294.5 347.5,293.2 "/>
<rect x="347.5" y="293.2" class="st31" width="45.7" height="1.3"/>
<polyline class="st30" points="347.5,312.6 393.2,312.6 393.2,313.9 347.5,313.9 347.5,312.6 "/>
<rect x="347.5" y="312.6" class="st31" width="45.7" height="1.3"/>
<line class="st31" x1="385" y1="215.6" x2="385" y2="332.8"/>
<polyline class="st30" points="395.8,234.6 442.4,234.6 442.4,235.8 395.8,235.8 395.8,234.6 "/>
<rect x="395.8" y="234.6" class="st31" width="46.6" height="1.3"/>
<polyline class="st30" points="395.8,254 442.4,254 442.4,255.2 395.8,255.2 395.8,254 "/>
<rect x="395.8" y="254" class="st31" width="46.6" height="1.3"/>
<polyline class="st30" points="395.8,273.8 442.4,273.8 442.4,275.1 395.8,275.1 395.8,273.8 "/>
<rect x="395.8" y="273.8" class="st31" width="46.6" height="1.3"/>
<polyline class="st30" points="395.8,293.2 442.4,293.2 442.4,294.5 395.8,294.5 395.8,293.2 "/>
<rect x="395.8" y="293.2" class="st31" width="46.6" height="1.3"/>
<polyline class="st30" points="395.8,312.6 442.4,312.6 442.4,313.9 395.8,313.9 395.8,312.6 "/>
<rect x="395.8" y="312.6" class="st31" width="46.6" height="1.3"/>
<polyline class="st30" points="445,234.6 490.7,234.6 490.7,235.8 445,235.8 445,234.6 "/>
<rect x="445" y="234.6" class="st31" width="45.7" height="1.3"/>
<polyline class="st30" points="445,254 490.7,254 490.7,255.2 445,255.2 445,254 "/>
<rect x="445" y="254" class="st31" width="45.7" height="1.3"/>
<polyline class="st30" points="445,273.8 490.7,273.8 490.7,275.1 445,275.1 445,273.8 "/>
<rect x="445" y="273.8" class="st31" width="45.7" height="1.3"/>
<polyline class="st30" points="445,293.2 490.7,293.2 490.7,294.5 445,294.5 445,293.2 "/>
<rect x="445" y="293.2" class="st31" width="45.7" height="1.3"/>
<polyline class="st30" points="445,312.6 490.7,312.6 490.7,313.9 445,313.9 445,312.6 "/>
<rect x="445" y="312.6" class="st31" width="45.7" height="1.3"/>
<line class="st31" x1="433.8" y1="215.6" x2="433.8" y2="332.8"/>
<line class="st31" x1="482" y1="215.6" x2="482" y2="332.8"/>
<polyline class="st30" points="553.6,182.4 553.6,268.6 620,268.6 620,160.4 553.6,182.4 "/>
<polygon class="st31" points="553.6,182.4 553.6,268.6 620,268.6 620,160.4 "/>
<polyline class="st30" points="557.1,185 557.1,264.7 616.1,264.7 616.1,165.1 557.1,185 "/>
<polygon class="st31" points="557.1,185 557.1,264.7 616.1,264.7 616.1,165.1 "/>
<polyline class="st30" points="553.6,268.6 553.6,357.9 620,357.9 620,268.6 553.6,268.6 "/>
<rect x="553.6" y="268.6" class="st31" width="66.4" height="89.2"/>
<polyline class="st30" points="557.1,272.1 557.1,354.4 616.1,354.4 616.1,272.1 557.1,272.1 "/>
<rect x="557.1" y="272.1" class="st31" width="59.1" height="82.3"/>
<rect x="313.9" y="307.8" class="st30" width="14.7" height="28"/>
<rect x="313.9" y="307.8" class="st31" width="14.7" height="28"/>
<rect x="313.9" y="376.8" class="st30" width="14.7" height="37.9"/>
<rect x="313.9" y="376.8" class="st31" width="14.7" height="37.9"/>
<rect x="919.6" y="462.6" class="st30" width="14.2" height="35.8"/>
<rect x="919.6" y="462.6" class="st31" width="14.2" height="35.8"/>
<rect x="919.6" y="310.4" class="st30" width="14.2" height="28"/>
<rect x="919.6" y="310.4" class="st31" width="14.2" height="28"/>
<rect x="919.6" y="163.9" class="st30" width="14.2" height="28"/>
<rect x="919.6" y="163.9" class="st31" width="14.2" height="28"/>
<line class="st31" x1="319.1" y1="307.8" x2="319.1" y2="335.9"/>
<line class="st31" x1="928.7" y1="163.9" x2="928.7" y2="191.9"/>
<line class="st31" x1="928.7" y1="310.4" x2="928.7" y2="338.5"/>
<line class="st31" x1="553.6" y1="165.1" x2="620" y2="143.2"/>
<line class="st31" x1="313.9" y1="451.9" x2="-57" y2="452.7"/>
<rect x="620" y="216" class="st30" width="20.3" height="44"/>
<rect x="620" y="216" class="st31" width="20.3" height="44"/>
<polyline class="st30" points="620,234.1 640.3,234.1 640.3,235.4 620,235.4 620,234.1 "/>
<rect x="620" y="234.1" class="st31" width="20.3" height="1.3"/>
<polyline class="st30" points="620,252.2 640.3,252.2 640.3,253.5 620,253.5 620,252.2 "/>
<rect x="620" y="252.2" class="st31" width="20.3" height="1.3"/>
<polyline class="st30" points="620,216 640.3,216 640.3,217.3 620,217.3 620,216 "/>
<rect x="620" y="216" class="st31" width="20.3" height="1.3"/>
<polyline class="st30" points="620.9,235.4 620.9,252.2 620,252.2 620,235.4 620.9,235.4 "/>
<rect x="620" y="235.4" class="st31" width="0.9" height="16.8"/>
<line class="st39" x1="1294" y1="426.3" x2="964.5" y2="426"/>
<line class="st31" x1="631.2" y1="173.3" x2="631.2" y2="177.6"/>
<line class="st31" x1="631.2" y1="182.8" x2="631.2" y2="188"/>
<line class="st31" x1="631.2" y1="193.2" x2="631.2" y2="198.3"/>
<line class="st31" x1="631.2" y1="203.5" x2="631.2" y2="208.7"/>
<line class="st31" x1="631.2" y1="213.9" x2="631.2" y2="219"/>
<line class="st31" x1="631.2" y1="224.2" x2="631.2" y2="229.4"/>
<line class="st31" x1="631.2" y1="234.6" x2="631.2" y2="239.7"/>
<line class="st31" x1="631.2" y1="244.9" x2="631.2" y2="250.1"/>
<line class="st31" x1="631.2" y1="255.2" x2="631.2" y2="260"/>
<polyline class="st31" points="725.2,260 725.2,232 757.1,232 "/>
<line class="st31" x1="757.1" y1="232" x2="758.8" y2="232"/>
<line class="st31" x1="764" y1="232" x2="765.7" y2="232"/>
<line class="st31" x1="765.7" y1="232" x2="765.7" y2="233.3"/>
<line class="st31" x1="765.7" y1="238.4" x2="765.7" y2="243.6"/>
<line class="st31" x1="765.7" y1="248.8" x2="765.7" y2="254"/>
<line class="st31" x1="765.7" y1="259.1" x2="765.7" y2="260"/>
<line class="st31" x1="765.7" y1="232" x2="765.7" y2="226.8"/>
<line class="st31" x1="765.7" y1="221.6" x2="765.7" y2="216.4"/>
<line class="st31" x1="765.7" y1="211.3" x2="765.7" y2="206.1"/>
<line class="st31" x1="765.7" y1="200.9" x2="765.7" y2="195.8"/>
<line class="st31" x1="765.7" y1="190.6" x2="765.7" y2="185.4"/>
<line class="st31" x1="765.7" y1="180.2" x2="765.7" y2="175.1"/>
<line class="st31" x1="765.7" y1="174.6" x2="765.7" y2="173.8"/>
<line class="st31" x1="773.5" y1="173.8" x2="773.5" y2="178.1"/>
<line class="st31" x1="773.5" y1="183.3" x2="773.5" y2="188.4"/>
<line class="st31" x1="773.5" y1="193.6" x2="773.5" y2="198.8"/>
<line class="st31" x1="773.5" y1="203.9" x2="773.5" y2="209.1"/>
<line class="st31" x1="773.5" y1="214.3" x2="773.5" y2="219.5"/>
<line class="st31" x1="773.5" y1="224.6" x2="773.5" y2="229.8"/>
<line class="st31" x1="773.5" y1="235" x2="773.5" y2="240.2"/>
<line class="st31" x1="773.5" y1="245.3" x2="773.5" y2="250.5"/>
<line class="st31" x1="773.5" y1="255.7" x2="773.5" y2="260"/>
<line class="st31" x1="658.8" y1="215.6" x2="757.1" y2="215.6"/>
<line class="st31" x1="804.1" y1="260" x2="804.1" y2="255.7"/>
<line class="st31" x1="804.1" y1="250.5" x2="804.1" y2="245.3"/>
<line class="st31" x1="804.1" y1="240.2" x2="804.1" y2="235"/>
<line class="st31" x1="804.1" y1="229.8" x2="804.1" y2="224.6"/>
<line class="st31" x1="804.1" y1="219.5" x2="804.1" y2="214.3"/>
<line class="st31" x1="804.1" y1="209.1" x2="804.1" y2="203.9"/>
<line class="st31" x1="804.1" y1="198.8" x2="804.1" y2="193.6"/>
<line class="st31" x1="804.1" y1="188.4" x2="804.1" y2="183.3"/>
<line class="st31" x1="804.1" y1="178.1" x2="804.1" y2="173.8"/>
<line class="st31" x1="911" y1="188.9" x2="908" y2="188.9"/>
<line class="st31" x1="902.8" y1="188.9" x2="897.6" y2="188.9"/>
<line class="st31" x1="892.5" y1="188.9" x2="889" y2="188.9"/>
<line class="st31" x1="889" y1="188.9" x2="889" y2="191"/>
<line class="st31" x1="889" y1="196.2" x2="889" y2="201.4"/>
<line class="st31" x1="889" y1="206.5" x2="889" y2="211.7"/>
<line class="st31" x1="889" y1="216.9" x2="889" y2="222.1"/>
<line class="st31" x1="889" y1="227.2" x2="889" y2="232.4"/>
<line class="st31" x1="889" y1="237.6" x2="889" y2="242.7"/>
<line class="st31" x1="889" y1="247.9" x2="889" y2="253.1"/>
<line class="st31" x1="889" y1="258.3" x2="889" y2="260"/>
<line class="st31" x1="911" y1="188.9" x2="919.6" y2="188.9"/>
<line class="st31" x1="319.1" y1="376.8" x2="319.1" y2="414.8"/>
<rect x="958" y="422.9" class="st34" width="6.5" height="83.2"/>
<rect x="958" y="422.9" class="st35" width="6.5" height="83.2"/>
<polyline class="st30" points="933.8,422.9 958,422.9 958,503.6 933.8,503.6 933.8,422.9 "/>
<rect x="933.8" y="422.9" class="st31" width="24.1" height="80.6"/>
<line class="st33" x1="561.8" y1="183.7" x2="561.8" y2="264.7"/>
<line class="st33" x1="568.7" y1="181.1" x2="568.7" y2="264.7"/>
<line class="st33" x1="576" y1="178.5" x2="576" y2="264.7"/>
<line class="st33" x1="582.9" y1="176.4" x2="582.9" y2="264.7"/>
<line class="st33" x1="590.3" y1="173.8" x2="590.3" y2="264.7"/>
<line class="st33" x1="597.6" y1="171.6" x2="597.6" y2="264.7"/>
<line class="st33" x1="604.5" y1="169" x2="604.5" y2="264.7"/>
<line class="st33" x1="611.8" y1="166.9" x2="611.8" y2="264.7"/>
<line class="st33" x1="561.8" y1="272.1" x2="561.8" y2="354.4"/>
<line class="st33" x1="568.7" y1="272.1" x2="568.7" y2="354.4"/>
<line class="st33" x1="576" y1="272.1" x2="576" y2="354.4"/>
<line class="st33" x1="582.9" y1="272.1" x2="582.9" y2="354.4"/>
<line class="st33" x1="590.3" y1="272.1" x2="590.3" y2="354.4"/>
<line class="st33" x1="597.6" y1="272.1" x2="597.6" y2="354.4"/>
<line class="st33" x1="604.5" y1="272.1" x2="604.5" y2="354.4"/>
<line class="st33" x1="611.8" y1="272.1" x2="611.8" y2="354.4"/>
<text transform="matrix(1.0022 0 0 1 165.7521 548.8339)" class="st40 st41">Schnitt</text>
</svg>
