<?xml version="1.0" encoding="utf-8"?>
<!-- Generator: Adobe Illustrator 19.1.0, SVG Export Plug-In . SVG Version: 6.00 Build 0)  -->
<svg version="1.1" id="Ebene_1" xmlns="http://www.w3.org/2000/svg" xmlns:xlink="http://www.w3.org/1999/xlink" x="0px" y="0px"
	 viewBox="0 0 1280 720" style="enable-background:new 0 0 1280 720;" xml:space="preserve">
<style type="text/css">
	.st0{clip-path:url(#SVGID_2_);}
	.st1{clip-path:url(#SVGID_4_);}
	
		.st2{clip-path:url(#SVGID_6_);fill:none;stroke:#000000;stroke-width:0.144;stroke-linecap:round;stroke-linejoin:round;stroke-miterlimit:10;}
	.st3{clip-path:url(#SVGID_6_);fill-rule:evenodd;clip-rule:evenodd;fill:#E8E8E8;}
	
		.st4{clip-path:url(#SVGID_6_);fill:none;stroke:#8C8C8C;stroke-width:0.144;stroke-linecap:round;stroke-linejoin:round;stroke-miterlimit:10;}
	.st5{clip-path:url(#SVGID_6_);fill-rule:evenodd;clip-rule:evenodd;}
	
		.st6{clip-path:url(#SVGID_6_);fill:none;stroke:#000000;stroke-width:0.216;stroke-linecap:round;stroke-linejoin:round;stroke-miterlimit:10;}
	.st7{clip-path:url(#SVGID_6_);fill-rule:evenodd;clip-rule:evenodd;fill:#FFFFFF;}
	
		.st8{clip-path:url(#SVGID_6_);fill:none;stroke:#000000;stroke-width:7.200000e-02;stroke-linecap:round;stroke-linejoin:round;stroke-miterlimit:10;}
	.st9{clip-path:url(#SVGID_8_);fill-rule:evenodd;clip-rule:evenodd;fill:#FFFFFF;}
	
		.st10{clip-path:url(#SVGID_8_);fill:none;stroke:#000000;stroke-width:0.144;stroke-linecap:round;stroke-linejoin:round;stroke-miterlimit:10;}
	.st11{clip-path:url(#SVGID_8_);fill-rule:evenodd;clip-rule:evenodd;fill:#E8E8E8;}
	
		.st12{clip-path:url(#SVGID_8_);fill:none;stroke:#8C8C8C;stroke-width:0.144;stroke-linecap:round;stroke-linejoin:round;stroke-miterlimit:10;}
	.st13{clip-path:url(#SVGID_8_);fill-rule:evenodd;clip-rule:evenodd;}
	
		.st14{clip-path:url(#SVGID_8_);fill:none;stroke:#000000;stroke-width:0.216;stroke-linecap:round;stroke-linejoin:round;stroke-miterlimit:10;}
	
		.st15{clip-path:url(#SVGID_8_);fill:none;stroke:#CCCCCC;stroke-width:0.144;stroke-linecap:round;stroke-linejoin:round;stroke-miterlimit:10;}
	.st16{clip-path:url(#SVGID_10_);fill-rule:evenodd;clip-rule:evenodd;fill:#E8E8E8;}
	
		.st17{clip-path:url(#SVGID_10_);fill:none;stroke:#8C8C8C;stroke-width:0.144;stroke-linecap:round;stroke-linejoin:round;stroke-miterlimit:10;}
	.st18{clip-path:url(#SVGID_10_);fill-rule:evenodd;clip-rule:evenodd;fill:#FFFFFF;}
	
		.st19{clip-path:url(#SVGID_10_);fill:none;stroke:#000000;stroke-width:0.144;stroke-linecap:round;stroke-linejoin:round;stroke-miterlimit:10;}
	.st20{clip-path:url(#SVGID_10_);fill-rule:evenodd;clip-rule:evenodd;}
	
		.st21{clip-path:url(#SVGID_10_);fill:none;stroke:#000000;stroke-width:0.216;stroke-linecap:round;stroke-linejoin:round;stroke-miterlimit:10;}
	
		.st22{clip-path:url(#SVGID_10_);fill:none;stroke:#CCCCCC;stroke-width:0.144;stroke-linecap:round;stroke-linejoin:round;stroke-miterlimit:10;}
	.st23{clip-path:url(#SVGID_12_);fill-rule:evenodd;clip-rule:evenodd;fill:#FFFFFF;}
	
		.st24{clip-path:url(#SVGID_12_);fill:none;stroke:#000000;stroke-width:0.144;stroke-linecap:round;stroke-linejoin:round;stroke-miterlimit:10;}
	.st25{clip-path:url(#SVGID_12_);fill-rule:evenodd;clip-rule:evenodd;fill:#B3B3B3;}
	
		.st26{clip-path:url(#SVGID_12_);fill:none;stroke:#B3B3B3;stroke-width:0.288;stroke-linecap:round;stroke-linejoin:round;stroke-miterlimit:10;}
	.st27{clip-path:url(#SVGID_12_);fill-rule:evenodd;clip-rule:evenodd;}
	
		.st28{clip-path:url(#SVGID_12_);fill:none;stroke:#000000;stroke-width:0.216;stroke-linecap:round;stroke-linejoin:round;stroke-miterlimit:10;}
	
		.st29{clip-path:url(#SVGID_12_);fill:none;stroke:#8C8C8C;stroke-width:0.144;stroke-linecap:round;stroke-linejoin:round;stroke-miterlimit:10;}
	.st30{fill-rule:evenodd;clip-rule:evenodd;fill:#FFFFFF;}
	.st31{fill:none;stroke:#000000;stroke-width:0.144;stroke-linecap:round;stroke-linejoin:round;stroke-miterlimit:10;}
	.st32{fill-rule:evenodd;clip-rule:evenodd;fill:#E8E8E8;}
	.st33{fill:none;stroke:#8C8C8C;stroke-width:0.144;stroke-linecap:round;stroke-linejoin:round;stroke-miterlimit:10;}
	.st34{fill-rule:evenodd;clip-rule:evenodd;}
	.st35{fill:none;stroke:#000000;stroke-width:0.216;stroke-linecap:round;stroke-linejoin:round;stroke-miterlimit:10;}
	.st36{fill:none;stroke:#CCCCCC;stroke-width:0.144;stroke-linecap:round;stroke-linejoin:round;stroke-miterlimit:10;}
	.st37{fill-rule:evenodd;clip-rule:evenodd;fill:none;}
	.st38{font-family:'GTEestiProText-Regular';}
	.st39{font-size:12px;}
	.st40{font-size:11.1416px;}
	.st41{fill:none;stroke:#000000;stroke-width:7.200000e-02;stroke-linecap:round;stroke-linejoin:round;stroke-miterlimit:10;}
	.st42{fill:none;stroke:#000000;stroke-width:0.25;stroke-linecap:round;stroke-linejoin:round;stroke-miterlimit:10;}
</style>
<rect x="776.5" y="224" class="st30" width="18.5" height="175.8"/>
<rect x="776.5" y="224" class="st31" width="18.5" height="175.8"/>
<path class="st32" d="M705.8,396.5h-12.9v-54.2h12.9V396.5 M639.9,339.2v60.5h81.6v-60.5H639.9"/>
<path class="st33" d="M705.8,396.5h-12.9v-54.2h12.9V396.5 M639.9,339.2v60.5h81.6v-60.5H639.9"/>
<rect x="593.3" y="224" class="st30" width="12.5" height="153.3"/>
<rect x="593.3" y="224" class="st31" width="12.5" height="153.3"/>
<rect x="481.9" y="216.4" class="st34" width="7.4" height="14.7"/>
<rect x="481.9" y="216.4" class="st35" width="7.4" height="14.7"/>
<polyline class="st34" points="489.2,368.1 493.5,370.4 489.9,376.8 481.9,372.4 481.9,294.4 489.2,294.4 489.2,368.1 "/>
<polygon class="st35" points="489.2,368.1 493.5,370.4 489.9,376.8 481.9,372.4 481.9,294.4 489.2,294.4 "/>
<polyline class="st34" points="776.5,433 795,433 795,336.5 802.3,336.5 802.3,440.6 776.5,440.6 776.5,433 "/>
<polygon class="st35" points="776.5,433 795,433 795,336.5 802.3,336.5 802.3,440.6 776.5,440.6 "/>
<rect x="639.9" y="433" class="st34" width="81.6" height="7.6"/>
<rect x="639.9" y="433" class="st35" width="81.6" height="7.6"/>
<polyline class="st34" points="795,224 776.5,224 776.5,216.4 802.3,216.4 802.3,273.2 795,273.2 795,224 "/>
<polygon class="st35" points="795,224 776.5,224 776.5,216.4 802.3,216.4 802.3,273.2 795,273.2 "/>
<path class="st34" d="M695,392.3h6.6v-45.8H695V392.3 M705.8,342.3v54.2h-12.9v-54.2H705.8"/>
<path class="st35" d="M695,392.3h6.6v-45.8H695V392.3 M705.8,342.3v54.2h-12.9v-54.2H705.8"/>
<rect x="639.9" y="216.4" class="st34" width="8" height="7.6"/>
<rect x="639.9" y="216.4" class="st35" width="8" height="7.6"/>
<rect x="579.5" y="216.4" class="st34" width="26.3" height="7.6"/>
<rect x="579.5" y="216.4" class="st35" width="26.3" height="7.6"/>
<polyline class="st34" points="570.1,413.1 605.6,433 605.8,433 605.8,440.6 603.5,440.6 566.3,419.8 570.1,413.1 "/>
<polygon class="st35" points="570.1,413.1 605.6,433 605.8,433 605.8,440.6 603.5,440.6 566.3,419.8 "/>
<rect x="481.9" y="231.1" class="st30" width="7.4" height="63.3"/>
<rect x="481.9" y="231.1" class="st31" width="7.4" height="63.3"/>
<rect x="795" y="273.2" class="st30" width="7.4" height="63.3"/>
<rect x="795" y="273.2" class="st31" width="7.4" height="63.3"/>
<rect x="605.8" y="433" class="st30" width="34.1" height="7.6"/>
<rect x="605.8" y="433" class="st31" width="34.1" height="7.6"/>
<rect x="606.7" y="439.4" class="st34" width="2.7" height="1.1"/>
<rect x="606.7" y="439.4" class="st35" width="2.7" height="1.1"/>
<rect x="610.5" y="439.4" class="st34" width="2.7" height="1.1"/>
<rect x="610.5" y="439.4" class="st35" width="2.7" height="1.1"/>
<rect x="614.2" y="439.4" class="st34" width="2.5" height="1.1"/>
<rect x="614.2" y="439.4" class="st35" width="2.5" height="1.1"/>
<rect x="617.8" y="439.4" class="st34" width="2.7" height="1.1"/>
<rect x="617.8" y="439.4" class="st35" width="2.7" height="1.1"/>
<rect x="621.6" y="439.4" class="st34" width="2.5" height="1.1"/>
<rect x="621.6" y="439.4" class="st35" width="2.5" height="1.1"/>
<rect x="625.2" y="439.4" class="st34" width="2.7" height="1.1"/>
<rect x="625.2" y="439.4" class="st35" width="2.7" height="1.1"/>
<rect x="629" y="439.4" class="st34" width="2.5" height="1.1"/>
<rect x="629" y="439.4" class="st35" width="2.5" height="1.1"/>
<rect x="632.5" y="439.4" class="st34" width="2.7" height="1.1"/>
<rect x="632.5" y="439.4" class="st35" width="2.7" height="1.1"/>
<rect x="636.3" y="439.4" class="st34" width="2.7" height="1.1"/>
<rect x="636.3" y="439.4" class="st35" width="2.7" height="1.1"/>
<rect x="776.5" y="399.8" class="st30" width="18.5" height="33.2"/>
<rect x="776.5" y="399.8" class="st31" width="18.5" height="33.2"/>
<polyline class="st30" points="493.5,370.4 497.9,362.3 574.6,405.1 570.1,413.1 493.5,370.4 "/>
<polygon class="st31" points="493.5,370.4 497.9,362.3 574.6,405.1 570.1,413.1 "/>
<polyline class="st30" points="522.9,376.4 524.2,377 519.8,385.1 518.4,384.4 522.9,376.4 "/>
<polygon class="st31" points="522.9,376.4 524.2,377 519.8,385.1 518.4,384.4 "/>
<polyline class="st30" points="548.3,390.4 549.6,391.3 545.2,399.3 543.8,398.4 548.3,390.4 "/>
<polygon class="st31" points="548.3,390.4 549.6,391.3 545.2,399.3 543.8,398.4 "/>
<polyline class="st30" points="489.9,376.8 493.5,370.4 570.1,413.1 566.3,419.8 489.9,376.8 "/>
<polygon class="st31" points="489.9,376.8 493.5,370.4 570.1,413.1 566.3,419.8 "/>
<rect x="489.2" y="216.4" class="st30" width="90.2" height="7.6"/>
<rect x="489.2" y="216.4" class="st31" width="90.2" height="7.6"/>
<rect x="647.9" y="216.4" class="st30" width="128.6" height="7.6"/>
<rect x="647.9" y="216.4" class="st31" width="128.6" height="7.6"/>
<line class="st31" x1="484.6" y1="231.1" x2="484.6" y2="294.4"/>
<line class="st31" x1="489.2" y1="219.1" x2="552.3" y2="219.1"/>
<line class="st31" x1="539.2" y1="221.1" x2="566.3" y2="221.1"/>
<line class="st31" x1="647.9" y1="219.1" x2="720.1" y2="219.1"/>
<line class="st31" x1="680.6" y1="221.1" x2="736.8" y2="221.1"/>
<line class="st31" x1="799.6" y1="336.5" x2="799.6" y2="273.2"/>
<line class="st31" x1="491.2" y1="374.4" x2="567.7" y2="417.4"/>
<line class="st31" x1="605.8" y1="435.9" x2="639.9" y2="435.9"/>
<rect x="705.8" y="353.7" class="st30" width="15.6" height="31.6"/>
<rect x="705.8" y="353.7" class="st31" width="15.6" height="31.6"/>
<rect x="677.1" y="342.3" class="st30" width="15.8" height="54.1"/>
<rect x="677.1" y="342.3" class="st31" width="15.8" height="54.1"/>
<polyline class="st30" points="655.9,396.4 644.1,396.4 644.1,342.3 655.9,342.3 655.9,396.4 "/>
<rect x="644.1" y="342.3" class="st31" width="11.8" height="54.1"/>
<rect x="642.5" y="393.8" class="st34" width="1.3" height="1.3"/>
<rect x="642.5" y="393.8" class="st35" width="1.3" height="1.3"/>
<rect x="642.5" y="343.8" class="st34" width="1.3" height="1.3"/>
<rect x="642.5" y="343.8" class="st35" width="1.3" height="1.3"/>
<polyline class="st30" points="720.5,340.5 641,340.5 641,398.7 720.5,398.7 720.5,385.3 721.4,385.3 721.4,399.8 639.9,399.8 
	639.9,339.2 721.4,339.2 721.4,353.7 720.5,353.7 720.5,340.5 "/>
<polygon class="st31" points="720.5,340.5 641,340.5 641,398.7 720.5,398.7 720.5,385.3 721.4,385.3 721.4,399.8 639.9,399.8 
	639.9,339.2 721.4,339.2 721.4,353.7 720.5,353.7 "/>
<line class="st36" x1="649" y1="465.1" x2="649" y2="440.6"/>
<line class="st36" x1="688.4" y1="440.6" x2="688.4" y2="465.1"/>
<line class="st36" x1="701.6" y1="440.6" x2="701.6" y2="465.1"/>
<line class="st36" x1="644.8" y1="448.4" x2="771.6" y2="448.4"/>
<line class="st36" x1="662.2" y1="440.6" x2="662.2" y2="465.1"/>
<line class="st36" x1="675.3" y1="440.6" x2="675.3" y2="465.1"/>
<line class="st36" x1="714.7" y1="440.6" x2="714.7" y2="465.1"/>
<line class="st36" x1="727.9" y1="440.6" x2="727.9" y2="465.1"/>
<line class="st36" x1="741" y1="440.6" x2="741" y2="465.1"/>
<line class="st36" x1="754.2" y1="440.6" x2="754.2" y2="465.1"/>
<line class="st36" x1="767.3" y1="440.6" x2="767.3" y2="465.1"/>
<line class="st33" x1="639.9" y1="224" x2="639.9" y2="339.2"/>
<line class="st31" x1="605.8" y1="377.3" x2="605.8" y2="224"/>
<line class="st33" x1="721.4" y1="399.8" x2="776.5" y2="399.8"/>
<polyline class="st30" points="492.6,375.3 491.2,374.4 497.9,362.3 499.3,363.2 492.6,375.3 "/>
<polygon class="st31" points="492.6,375.3 491.2,374.4 497.9,362.3 499.3,363.2 "/>
<polyline class="st30" points="567.7,417.4 566.3,416.5 573.2,404.5 574.6,405.1 567.7,417.4 "/>
<polygon class="st31" points="567.7,417.4 566.3,416.5 573.2,404.5 574.6,405.1 "/>
<polyline class="st31" points="776.5,440.6 771.6,440.6 771.6,524.8 "/>
<line class="st31" x1="776.5" y1="501.6" x2="639.9" y2="501.6"/>
<line class="st31" x1="776.5" y1="513.2" x2="639.9" y2="513.2"/>
<line class="st31" x1="776.5" y1="524.8" x2="639.9" y2="524.8"/>
<line class="st31" x1="771.6" y1="488.2" x2="644.8" y2="488.2"/>
<line class="st31" x1="721.4" y1="524.8" x2="721.4" y2="536.4"/>
<line class="st31" x1="721.4" y1="536.4" x2="639.9" y2="536.4"/>
<line class="st31" x1="771.6" y1="511.4" x2="644.8" y2="511.4"/>
<line class="st31" x1="771.6" y1="523" x2="644.8" y2="523"/>
<line class="st31" x1="721.4" y1="534.6" x2="644.8" y2="534.6"/>
<line class="st31" x1="639.9" y1="440.6" x2="639.9" y2="536.4"/>
<line class="st31" x1="771.6" y1="499.8" x2="644.8" y2="499.8"/>
<line class="st33" x1="605.8" y1="433" x2="605.8" y2="377.3"/>
<line class="st31" x1="771.6" y1="465.1" x2="644.8" y2="465.1"/>
<line class="st31" x1="776.5" y1="466.8" x2="639.9" y2="466.8"/>
<line class="st31" x1="771.6" y1="476.7" x2="644.8" y2="476.7"/>
<line class="st31" x1="639.9" y1="369.7" x2="605.8" y2="369.7"/>
<line class="st31" x1="776.5" y1="478.4" x2="639.9" y2="478.4"/>
<line class="st31" x1="776.5" y1="490" x2="639.9" y2="490"/>
<line class="st31" x1="802.3" y1="190.1" x2="639.9" y2="190.1"/>
<line class="st31" x1="639.9" y1="399.8" x2="639.9" y2="433"/>
<line class="st31" x1="654.1" y1="433" x2="668.6" y2="399.8"/>
<line class="st31" x1="639.9" y1="339.2" x2="605.8" y2="339.2"/>
<line class="st31" x1="662.8" y1="399.8" x2="662.8" y2="412.9"/>
<line class="st31" x1="655.2" y1="399.8" x2="655.2" y2="430.8"/>
<line class="st31" x1="639.9" y1="346.7" x2="605.8" y2="346.7"/>
<line class="st31" x1="639.9" y1="354.5" x2="605.8" y2="354.5"/>
<line class="st31" x1="639.9" y1="362.1" x2="605.8" y2="362.1"/>
<line class="st31" x1="662.8" y1="412.9" x2="662.8" y2="433"/>
<line class="st31" x1="670.4" y1="399.8" x2="670.4" y2="433"/>
<line class="st31" x1="678.2" y1="399.8" x2="678.2" y2="433"/>
<line class="st31" x1="647.7" y1="399.8" x2="647.7" y2="433"/>
<line class="st31" x1="685.8" y1="399.8" x2="685.8" y2="433"/>
<line class="st31" x1="693.4" y1="399.8" x2="693.4" y2="433"/>
<line class="st31" x1="700.9" y1="399.8" x2="700.9" y2="433"/>
<line class="st31" x1="708.7" y1="399.8" x2="708.7" y2="433"/>
<line class="st31" x1="644.8" y1="536.4" x2="644.8" y2="440.6"/>
<line class="st31" x1="802.3" y1="272.8" x2="802.3" y2="190.1"/>
<line class="st31" x1="639.9" y1="377.3" x2="605.8" y2="377.3"/>
<line class="st31" x1="639.9" y1="190.1" x2="639.9" y2="204.4"/>
<polyline class="st31" points="639.9,204.4 606.4,204.4 605.8,204.4 "/>
<polyline class="st31" points="639.9,197.2 606.4,197.2 605.8,197.2 "/>
<polyline class="st31" points="639.9,190.1 606.4,190.1 605.8,190.1 "/>
<line class="st31" x1="776.5" y1="440.6" x2="776.5" y2="524.8"/>
<polyline class="st31" points="656.6,421.1 661.4,416.4 656.6,411.6 "/>
<polyline class="st30" points="685.3,314.2 685.3,248.5 711.6,248.5 711.6,314.2 685.3,314.2 "/>
<rect x="685.3" y="248.5" class="st31" width="26.3" height="65.7"/>
<rect x="711.6" y="298.2" class="st30" width="11.8" height="11.8"/>
<rect x="711.6" y="298.2" class="st31" width="11.8" height="11.8"/>
<rect x="673.5" y="298.2" class="st30" width="11.8" height="11.8"/>
<rect x="673.5" y="298.2" class="st31" width="11.8" height="11.8"/>
<rect x="711.6" y="283.5" class="st30" width="11.8" height="11.8"/>
<rect x="711.6" y="283.5" class="st31" width="11.8" height="11.8"/>
<rect x="673.5" y="283.5" class="st30" width="11.8" height="11.8"/>
<rect x="673.5" y="283.5" class="st31" width="11.8" height="11.8"/>
<rect x="711.6" y="268.1" class="st30" width="11.8" height="11.8"/>
<rect x="711.6" y="268.1" class="st31" width="11.8" height="11.8"/>
<rect x="673.5" y="268.1" class="st30" width="11.8" height="11.8"/>
<rect x="673.5" y="268.1" class="st31" width="11.8" height="11.8"/>
<rect x="711.6" y="252.7" class="st30" width="11.8" height="11.8"/>
<rect x="711.6" y="252.7" class="st31" width="11.8" height="11.8"/>
<rect x="673.5" y="252.7" class="st30" width="11.8" height="11.8"/>
<rect x="673.5" y="252.7" class="st31" width="11.8" height="11.8"/>
<line class="st31" x1="773.8" y1="416.3" x2="778.9" y2="416.3"/>
<line class="st31" x1="719" y1="369.5" x2="724.1" y2="369.5"/>
<path class="st31" d="M639.9,223.9h-2.1c0,3.9-0.8,7.8-2.3,11.5c-1.5,3.6-3.7,6.9-6.5,9.7c-2.8,2.8-6.1,5-9.7,6.5
	c-3.6,1.5-7.5,2.3-11.5,2.3v-30h-2.1"/>
<line class="st31" x1="802.3" y1="440.6" x2="802.3" y2="443"/>
<line class="st31" x1="802.3" y1="443" x2="802.3" y2="443.2"/>
<line class="st31" x1="801.9" y1="445.9" x2="801.2" y2="448.1"/>
<line class="st31" x1="801.2" y1="448.1" x2="801" y2="448.4"/>
<line class="st31" x1="800.1" y1="450.8" x2="799.2" y2="452.8"/>
<line class="st31" x1="799.2" y1="452.8" x2="799" y2="453.3"/>
<line class="st31" x1="797.6" y1="455.5" x2="796.5" y2="457"/>
<line class="st31" x1="796.5" y1="457" x2="796.1" y2="457.5"/>
<line class="st31" x1="794.3" y1="459.3" x2="793" y2="460.6"/>
<line class="st31" x1="793" y1="460.6" x2="792.3" y2="461.1"/>
<line class="st31" x1="790.1" y1="462.6" x2="788.7" y2="463.5"/>
<line class="st31" x1="788.7" y1="463.5" x2="787.8" y2="464"/>
<line class="st31" x1="785.4" y1="464.8" x2="783.8" y2="465.5"/>
<line class="st31" x1="783.8" y1="465.5" x2="782.9" y2="465.7"/>
<line class="st31" x1="780.3" y1="466.2" x2="778.9" y2="466.4"/>
<line class="st31" x1="778.9" y1="466.4" x2="777.6" y2="466.6"/>
<line class="st31" x1="774.9" y1="466.4" x2="773.8" y2="466.4"/>
<line class="st31" x1="773.8" y1="466.4" x2="772.2" y2="466.2"/>
<line class="st31" x1="769.6" y1="465.7" x2="768.9" y2="465.5"/>
<line class="st31" x1="768.9" y1="465.5" x2="767.1" y2="464.8"/>
<line class="st31" x1="764.7" y1="463.7" x2="764.2" y2="463.5"/>
<line class="st31" x1="764.2" y1="463.5" x2="762.4" y2="462.4"/>
<line class="st31" x1="760.2" y1="460.8" x2="760" y2="460.6"/>
<line class="st31" x1="760" y1="460.6" x2="758.2" y2="459.1"/>
<line class="st31" x1="756.4" y1="457" x2="754.9" y2="455"/>
<line class="st31" x1="754.9" y1="455" x2="754.9" y2="454.8"/>
<line class="st31" x1="753.3" y1="452.6" x2="752.4" y2="450.6"/>
<line class="st31" x1="752.4" y1="450.6" x2="752.2" y2="450.1"/>
<line class="st31" x1="751.3" y1="447.7" x2="750.8" y2="445.7"/>
<line class="st31" x1="750.8" y1="445.7" x2="750.8" y2="445"/>
<line class="st31" x1="750.6" y1="442.3" x2="750.4" y2="440.6"/>
<path class="st31" d="M750.4,440.5L750.4,440.5c0-3.8-0.7-7.6-2.2-11.1c-1.5-3.5-3.6-6.7-6.3-9.4c-2.7-2.7-5.9-4.8-9.4-6.3
	c-3.5-1.5-7.3-2.2-11.1-2.2v28.9"/>
<line class="st36" x1="644.8" y1="440.6" x2="771.6" y2="440.6"/>
<line class="st31" x1="750.4" y1="440.6" x2="776.5" y2="440.6"/>
<rect x="778.9" y="306" class="st30" width="12" height="11.8"/>
<rect x="778.9" y="306" class="st31" width="12" height="11.8"/>
<path class="st30" d="M784.1,358.3c0.2-0.3,0.3-0.6,0.3-0.9c0-0.3,0-0.6-0.2-0.9c-0.1-0.3-0.3-0.5-0.6-0.7c-0.3-0.2-0.6-0.3-0.9-0.3
	c-0.3,0-0.6,0-0.9,0.2c-0.3,0.1-0.5,0.3-0.7,0.6c-0.2,0.3-0.3,0.6-0.3,0.9c0,0.3,0,0.6,0.2,0.9c0.1,0.3,0.3,0.5,0.6,0.7
	c0.3,0.2,0.6,0.3,0.9,0.3c0.3,0,0.6,0,0.9-0.2C783.6,358.7,783.9,358.5,784.1,358.3"/>
<path class="st31" d="M784.1,358.3c0.2-0.3,0.3-0.6,0.3-0.9c0-0.3,0-0.6-0.2-0.9c-0.1-0.3-0.3-0.5-0.6-0.7c-0.3-0.2-0.6-0.3-0.9-0.3
	c-0.3,0-0.6,0-0.9,0.2c-0.3,0.1-0.5,0.3-0.7,0.6c-0.2,0.3-0.3,0.6-0.3,0.9c0,0.3,0,0.6,0.2,0.9c0.1,0.3,0.3,0.5,0.6,0.7
	c0.3,0.2,0.6,0.3,0.9,0.3c0.3,0,0.6,0,0.9-0.2C783.6,358.7,783.9,358.5,784.1,358.3"/>
<path class="st30" d="M790.2,356.1c-0.2-0.3-0.4-0.6-0.7-0.7c-0.3-0.2-0.7-0.3-1-0.3s-0.7,0.1-1,0.3c-0.3,0.2-0.6,0.4-0.7,0.7
	c-0.2,0.3-0.3,0.6-0.3,1c0,0.4,0.1,0.7,0.3,1c0.2,0.3,0.4,0.6,0.7,0.7c0.3,0.2,0.6,0.3,1,0.3s0.7-0.1,1-0.3c0.3-0.2,0.6-0.4,0.7-0.7
	c0.2-0.3,0.3-0.6,0.3-1C790.5,356.7,790.4,356.4,790.2,356.1"/>
<path class="st31" d="M790.2,356.1c-0.2-0.3-0.4-0.6-0.7-0.7c-0.3-0.2-0.7-0.3-1-0.3s-0.7,0.1-1,0.3c-0.3,0.2-0.6,0.4-0.7,0.7
	c-0.2,0.3-0.3,0.6-0.3,1c0,0.4,0.1,0.7,0.3,1c0.2,0.3,0.4,0.6,0.7,0.7c0.3,0.2,0.6,0.3,1,0.3s0.7-0.1,1-0.3c0.3-0.2,0.6-0.4,0.7-0.7
	c0.2-0.3,0.3-0.6,0.3-1C790.5,356.7,790.4,356.4,790.2,356.1"/>
<path class="st30" d="M781,363.4c0.2,0.3,0.4,0.6,0.7,0.7c0.3,0.2,0.6,0.3,1,0.3c0.4,0,0.7-0.1,1-0.3c0.3-0.2,0.6-0.4,0.7-0.7
	c0.2-0.3,0.3-0.7,0.3-1c0-0.4-0.1-0.7-0.3-1c-0.2-0.3-0.4-0.6-0.7-0.7c-0.3-0.2-0.7-0.3-1-0.3c-0.4,0-0.7,0.1-1,0.3
	c-0.3,0.2-0.6,0.4-0.7,0.7c-0.2,0.3-0.3,0.6-0.3,1C780.8,362.8,780.9,363.1,781,363.4"/>
<path class="st31" d="M781,363.4c0.2,0.3,0.4,0.6,0.7,0.7c0.3,0.2,0.6,0.3,1,0.3c0.4,0,0.7-0.1,1-0.3c0.3-0.2,0.6-0.4,0.7-0.7
	c0.2-0.3,0.3-0.7,0.3-1c0-0.4-0.1-0.7-0.3-1c-0.2-0.3-0.4-0.6-0.7-0.7c-0.3-0.2-0.7-0.3-1-0.3c-0.4,0-0.7,0.1-1,0.3
	c-0.3,0.2-0.6,0.4-0.7,0.7c-0.2,0.3-0.3,0.6-0.3,1C780.8,362.8,780.9,363.1,781,363.4"/>
<line class="st31" x1="782.7" y1="364.3" x2="782.7" y2="364.3"/>
<path class="st30" d="M790.2,363.6c0.2-0.3,0.3-0.6,0.3-0.9c0-0.3,0-0.6-0.2-0.9c-0.1-0.3-0.3-0.5-0.6-0.7c-0.3-0.2-0.6-0.3-0.9-0.3
	c-0.3,0-0.6,0-0.9,0.2c-0.3,0.1-0.5,0.3-0.7,0.6c-0.2,0.3-0.3,0.6-0.3,0.9c0,0.3,0,0.6,0.2,0.9c0.1,0.3,0.3,0.5,0.6,0.7
	s0.6,0.3,0.9,0.3c0.3,0,0.6,0,0.9-0.2C789.8,364.1,790,363.9,790.2,363.6"/>
<path class="st31" d="M790.2,363.6c0.2-0.3,0.3-0.6,0.3-0.9c0-0.3,0-0.6-0.2-0.9c-0.1-0.3-0.3-0.5-0.6-0.7c-0.3-0.2-0.6-0.3-0.9-0.3
	c-0.3,0-0.6,0-0.9,0.2c-0.3,0.1-0.5,0.3-0.7,0.6c-0.2,0.3-0.3,0.6-0.3,0.9c0,0.3,0,0.6,0.2,0.9c0.1,0.3,0.3,0.5,0.6,0.7
	s0.6,0.3,0.9,0.3c0.3,0,0.6,0,0.9-0.2C789.8,364.1,790,363.9,790.2,363.6"/>
<line class="st31" x1="653.2" y1="369.5" x2="658.6" y2="369.5"/>
<polyline class="st35" points="481.9,218.4 481.9,163.8 605.8,163.8 605.8,216.4 "/>
<line class="st31" x1="674.4" y1="369.5" x2="679.8" y2="369.5"/>
<polyline class="st34" points="755.1,450.6 750.4,445.8 745.7,450.6 755.1,450.6 "/>
<polyline class="st31" points="755.1,450.6 750.4,445.8 745.7,450.6 755.1,450.6 "/>
<line class="st31" x1="653.2" y1="355.9" x2="658.6" y2="355.9"/>
<line class="st31" x1="653.2" y1="383.1" x2="658.6" y2="383.1"/>
<line class="st31" x1="674.4" y1="355.9" x2="679.8" y2="355.9"/>
<line class="st31" x1="674.4" y1="383.1" x2="679.8" y2="383.1"/>
<polyline class="st31" points="618.1,372.6 622.8,377.3 627.6,372.6 "/>
<polyline class="st31" points="618.5,199.5 623.2,204.3 628,199.5 "/>
<line class="st31" x1="605.8" y1="258.7" x2="608" y2="258.7"/>
<line class="st31" x1="610.7" y1="258.7" x2="613.4" y2="258.7"/>
<line class="st31" x1="616" y1="258.7" x2="618.7" y2="258.7"/>
<line class="st31" x1="621.4" y1="258.7" x2="624.1" y2="258.7"/>
<line class="st31" x1="626.7" y1="258.7" x2="629.4" y2="258.7"/>
<line class="st31" x1="632.1" y1="258.7" x2="634.7" y2="258.7"/>
<line class="st31" x1="637.4" y1="258.7" x2="639.9" y2="258.7"/>
<line class="st31" x1="605.8" y1="293.5" x2="608" y2="293.5"/>
<line class="st31" x1="610.7" y1="293.5" x2="613.4" y2="293.5"/>
<line class="st31" x1="616" y1="293.5" x2="618.7" y2="293.5"/>
<line class="st31" x1="621.4" y1="293.5" x2="624.1" y2="293.5"/>
<line class="st31" x1="626.7" y1="293.5" x2="629.4" y2="293.5"/>
<line class="st31" x1="632.1" y1="293.5" x2="634.7" y2="293.5"/>
<line class="st31" x1="637.4" y1="293.5" x2="639.9" y2="293.5"/>
<line class="st31" x1="605.8" y1="328.5" x2="608" y2="328.5"/>
<line class="st31" x1="610.7" y1="328.5" x2="613.4" y2="328.5"/>
<line class="st31" x1="616" y1="328.5" x2="618.7" y2="328.5"/>
<line class="st31" x1="621.4" y1="328.5" x2="624.1" y2="328.5"/>
<line class="st31" x1="626.7" y1="328.5" x2="629.4" y2="328.5"/>
<line class="st31" x1="632.1" y1="328.5" x2="634.7" y2="328.5"/>
<line class="st31" x1="637.4" y1="328.5" x2="639.9" y2="328.5"/>
<line class="st31" x1="605.8" y1="398.2" x2="608" y2="398.2"/>
<line class="st31" x1="610.7" y1="398.2" x2="613.4" y2="398.2"/>
<line class="st31" x1="616" y1="398.2" x2="618.7" y2="398.2"/>
<line class="st31" x1="621.4" y1="398.2" x2="624.1" y2="398.2"/>
<line class="st31" x1="626.7" y1="398.2" x2="629.4" y2="398.2"/>
<line class="st31" x1="632.1" y1="398.2" x2="634.7" y2="398.2"/>
<line class="st31" x1="637.4" y1="398.2" x2="639.9" y2="398.2"/>
<line class="st31" x1="605.8" y1="224" x2="608" y2="224"/>
<line class="st31" x1="610.7" y1="224" x2="613.4" y2="224"/>
<line class="st31" x1="616" y1="224" x2="618.7" y2="224"/>
<line class="st31" x1="621.4" y1="224" x2="624.1" y2="224"/>
<line class="st31" x1="626.7" y1="224" x2="629.4" y2="224"/>
<line class="st31" x1="632.1" y1="224" x2="634.7" y2="224"/>
<line class="st31" x1="637.4" y1="224" x2="639.9" y2="224"/>
<polyline class="st37" points="435.7,565.1 440.7,112.3 851.3,112.3 846.3,565.1 "/>
<rect x="1057.8" y="341.2" class="st32" width="48.8" height="53.3"/>
<rect x="1057.8" y="341.2" class="st33" width="48.8" height="53.3"/>
<rect x="1005.4" y="224" class="st30" width="12.5" height="153.3"/>
<rect x="1005.4" y="224" class="st31" width="12.5" height="153.3"/>
<polyline class="st34" points="894,372.4 894,216.4 1017.9,216.4 1017.9,224 901.4,224 901.4,368.1 1017.7,433 1017.9,433 
	1017.9,440.6 1015.7,440.6 894,372.4 "/>
<polygon class="st35" points="894,372.4 894,216.4 1017.9,216.4 1017.9,224 901.4,224 901.4,368.1 1017.7,433 1017.9,433 
	1017.9,440.6 1015.7,440.6 "/>
<polyline class="st34" points="1214.5,433 1052,433 1052,440.6 1081.7,440.6 1081.7,438.6 1105.5,438.6 1105.5,440.6 1214.5,440.6 
	1214.5,433 "/>
<polygon class="st35" points="1214.5,433 1052,433 1052,440.6 1081.7,440.6 1081.7,438.6 1105.5,438.6 1105.5,440.6 1214.5,440.6 
	"/>
<polyline class="st34" points="1052,224 1052,216.4 1214.5,216.4 1214.5,273.2 1207.1,273.2 1207.1,224 1052,224 "/>
<polygon class="st35" points="1052,224 1052,216.4 1214.5,216.4 1214.5,273.2 1207.1,273.2 1207.1,224 "/>
<rect x="1207.1" y="224" class="st30" width="7.4" height="209"/>
<rect x="1207.1" y="224" class="st31" width="7.4" height="209"/>
<rect x="1017.9" y="433" class="st30" width="34.1" height="7.6"/>
<rect x="1017.9" y="433" class="st31" width="34.1" height="7.6"/>
<rect x="1019" y="439.4" class="st34" width="2.5" height="1.1"/>
<rect x="1019" y="439.4" class="st35" width="2.5" height="1.1"/>
<rect x="1022.6" y="439.4" class="st34" width="2.7" height="1.1"/>
<rect x="1022.6" y="439.4" class="st35" width="2.7" height="1.1"/>
<rect x="1026.4" y="439.4" class="st34" width="2.5" height="1.1"/>
<rect x="1026.4" y="439.4" class="st35" width="2.5" height="1.1"/>
<rect x="1030" y="439.4" class="st34" width="2.7" height="1.1"/>
<rect x="1030" y="439.4" class="st35" width="2.7" height="1.1"/>
<rect x="1033.7" y="439.4" class="st34" width="2.7" height="1.1"/>
<rect x="1033.7" y="439.4" class="st35" width="2.7" height="1.1"/>
<rect x="1037.3" y="439.4" class="st34" width="2.7" height="1.1"/>
<rect x="1037.3" y="439.4" class="st35" width="2.7" height="1.1"/>
<rect x="1041.1" y="439.4" class="st34" width="2.7" height="1.1"/>
<rect x="1041.1" y="439.4" class="st35" width="2.7" height="1.1"/>
<rect x="1044.7" y="439.4" class="st34" width="2.7" height="1.1"/>
<rect x="1044.7" y="439.4" class="st35" width="2.7" height="1.1"/>
<rect x="1048.4" y="439.4" class="st34" width="2.7" height="1.1"/>
<rect x="1048.4" y="439.4" class="st35" width="2.7" height="1.1"/>
<polyline class="st30" points="905.6,370.4 910.1,362.3 986.7,405.1 982.3,413.1 905.6,370.4 "/>
<polygon class="st31" points="905.6,370.4 910.1,362.3 986.7,405.1 982.3,413.1 "/>
<line class="st31" x1="903.4" y1="374.4" x2="980" y2="417.4"/>
<line class="st31" x1="1017.9" y1="435.9" x2="1052" y2="435.9"/>
<line class="st36" x1="1061.2" y1="465.1" x2="1061.2" y2="440.6"/>
<line class="st36" x1="1100.6" y1="440.6" x2="1100.6" y2="465.1"/>
<line class="st36" x1="1113.7" y1="440.6" x2="1113.7" y2="465.1"/>
<line class="st36" x1="1056.9" y1="448.4" x2="1183.9" y2="448.4"/>
<line class="st36" x1="1074.3" y1="440.6" x2="1074.3" y2="465.1"/>
<line class="st36" x1="1087.4" y1="440.6" x2="1087.4" y2="465.1"/>
<line class="st36" x1="1126.9" y1="440.6" x2="1126.9" y2="465.1"/>
<line class="st36" x1="1140" y1="440.6" x2="1140" y2="465.1"/>
<line class="st36" x1="1153.2" y1="440.6" x2="1153.2" y2="465.1"/>
<line class="st36" x1="1166.3" y1="440.6" x2="1166.3" y2="465.1"/>
<line class="st36" x1="1179.5" y1="440.6" x2="1179.5" y2="465.1"/>
<line class="st31" x1="1052" y1="224" x2="1052" y2="339.2"/>
<line class="st31" x1="1017.9" y1="377.3" x2="1017.9" y2="224"/>
<line class="st31" x1="1133.8" y1="440.6" x2="1183.9" y2="440.6"/>
<polyline class="st31" points="1188.6,440.6 1183.9,440.6 1183.9,524.8 "/>
<line class="st31" x1="1160.5" y1="439.2" x2="1188.6" y2="439.2"/>
<line class="st31" x1="1188.6" y1="501.6" x2="1052" y2="501.6"/>
<line class="st31" x1="1188.6" y1="513.2" x2="1052" y2="513.2"/>
<line class="st31" x1="1188.6" y1="524.8" x2="1052" y2="524.8"/>
<line class="st31" x1="1183.9" y1="488.2" x2="1056.9" y2="488.2"/>
<line class="st31" x1="1133.8" y1="524.8" x2="1133.8" y2="536.4"/>
<line class="st31" x1="1133.8" y1="536.4" x2="1052" y2="536.4"/>
<line class="st31" x1="1183.9" y1="511.4" x2="1056.9" y2="511.4"/>
<line class="st31" x1="1183.9" y1="523" x2="1056.9" y2="523"/>
<line class="st31" x1="1133.8" y1="534.6" x2="1056.9" y2="534.6"/>
<line class="st31" x1="1052" y1="440.6" x2="1052" y2="536.4"/>
<line class="st31" x1="1183.9" y1="499.8" x2="1056.9" y2="499.8"/>
<line class="st33" x1="1017.9" y1="433" x2="1017.9" y2="377.3"/>
<line class="st31" x1="1183.9" y1="465.1" x2="1056.9" y2="465.1"/>
<line class="st31" x1="1188.6" y1="466.8" x2="1052" y2="466.8"/>
<line class="st31" x1="1183.9" y1="476.7" x2="1056.9" y2="476.7"/>
<line class="st31" x1="1052" y1="369.7" x2="1017.9" y2="369.7"/>
<line class="st31" x1="1188.6" y1="478.4" x2="1052" y2="478.4"/>
<line class="st31" x1="1188.6" y1="490" x2="1052" y2="490"/>
<polyline class="st35" points="894,218.4 894,163.8 1017.9,163.8 1017.9,216.4 "/>
<line class="st31" x1="1214.5" y1="190.1" x2="1052" y2="190.1"/>
<line class="st31" x1="1052" y1="399.8" x2="1052" y2="433"/>
<line class="st31" x1="1052" y1="339.2" x2="1017.9" y2="339.2"/>
<line class="st31" x1="1075" y1="399.8" x2="1075" y2="412.9"/>
<line class="st31" x1="1067.4" y1="399.8" x2="1067.4" y2="433"/>
<line class="st31" x1="1052" y1="346.7" x2="1017.9" y2="346.7"/>
<line class="st31" x1="1052" y1="354.5" x2="1017.9" y2="354.5"/>
<line class="st31" x1="1052" y1="362.1" x2="1017.9" y2="362.1"/>
<line class="st31" x1="1075" y1="412.9" x2="1075" y2="433"/>
<line class="st31" x1="1082.5" y1="399.8" x2="1082.5" y2="433"/>
<line class="st31" x1="1090.3" y1="399.8" x2="1090.3" y2="433"/>
<line class="st31" x1="1059.8" y1="399.8" x2="1059.8" y2="433"/>
<line class="st31" x1="1097.9" y1="399.8" x2="1097.9" y2="433"/>
<line class="st31" x1="1105.5" y1="399.8" x2="1105.5" y2="433"/>
<line class="st31" x1="1113.1" y1="399.8" x2="1113.1" y2="433"/>
<line class="st31" x1="1120.9" y1="399.8" x2="1120.9" y2="433"/>
<line class="st31" x1="1056.9" y1="536.4" x2="1056.9" y2="440.6"/>
<line class="st31" x1="1214.5" y1="272.8" x2="1214.5" y2="190.1"/>
<line class="st31" x1="1052" y1="377.3" x2="1017.9" y2="377.3"/>
<line class="st31" x1="1052" y1="190.1" x2="1052" y2="204.4"/>
<polyline class="st31" points="1052,204.4 1018.6,204.4 1017.9,204.4 "/>
<polyline class="st31" points="1052,197.2 1018.6,197.2 1017.9,197.2 "/>
<polyline class="st31" points="1052,190.1 1018.6,190.1 1017.9,190.1 "/>
<line class="st31" x1="1188.6" y1="440.6" x2="1188.6" y2="524.8"/>
<rect x="1109.3" y="243.8" class="st30" width="42.3" height="52.8"/>
<rect x="1109.3" y="243.8" class="st31" width="42.3" height="52.8"/>
<rect x="1130.9" y="216.4" class="st30" width="23.8" height="7.6"/>
<rect x="1130.9" y="216.4" class="st31" width="23.8" height="7.6"/>
<rect x="1105.5" y="433" class="st30" width="23" height="7.6"/>
<rect x="1105.5" y="433" class="st31" width="23" height="7.6"/>
<line class="st31" x1="1128.4" y1="399.8" x2="1128.4" y2="433"/>
<rect x="1017.9" y="216.4" class="st30" width="34.1" height="7.6"/>
<rect x="1017.9" y="216.4" class="st31" width="34.1" height="7.6"/>
<line class="st31" x1="1105.5" y1="435.9" x2="1128.4" y2="435.9"/>
<rect x="1019" y="216.4" class="st34" width="2.5" height="1.1"/>
<rect x="1019" y="216.4" class="st35" width="2.5" height="1.1"/>
<rect x="1022.6" y="216.4" class="st34" width="2.7" height="1.1"/>
<rect x="1022.6" y="216.4" class="st35" width="2.7" height="1.1"/>
<rect x="1026.4" y="216.4" class="st34" width="2.5" height="1.1"/>
<rect x="1026.4" y="216.4" class="st35" width="2.5" height="1.1"/>
<rect x="1030" y="216.4" class="st34" width="2.7" height="1.1"/>
<rect x="1030" y="216.4" class="st35" width="2.7" height="1.1"/>
<rect x="1033.7" y="216.4" class="st34" width="2.7" height="1.1"/>
<rect x="1033.7" y="216.4" class="st35" width="2.7" height="1.1"/>
<rect x="1037.3" y="216.4" class="st34" width="2.7" height="1.1"/>
<rect x="1037.3" y="216.4" class="st35" width="2.7" height="1.1"/>
<rect x="1041.1" y="216.4" class="st34" width="2.7" height="1.1"/>
<rect x="1041.1" y="216.4" class="st35" width="2.7" height="1.1"/>
<rect x="1044.7" y="216.4" class="st34" width="2.7" height="1.1"/>
<rect x="1044.7" y="216.4" class="st35" width="2.7" height="1.1"/>
<rect x="1048.4" y="216.4" class="st34" width="2.7" height="1.1"/>
<rect x="1048.4" y="216.4" class="st35" width="2.7" height="1.1"/>
<line class="st31" x1="1017.9" y1="221.1" x2="1052" y2="221.1"/>
<line class="st31" x1="1130.9" y1="221.1" x2="1154.7" y2="221.1"/>
<line class="st31" x1="1211.8" y1="224" x2="1211.8" y2="433"/>
<rect x="1083.7" y="339.2" class="st30" width="79.6" height="1.1"/>
<rect x="1083.7" y="339.2" class="st31" width="79.6" height="1.1"/>
<rect x="1083.7" y="398.7" class="st30" width="79.6" height="1.1"/>
<rect x="1083.7" y="398.7" class="st31" width="79.6" height="1.1"/>
<polyline class="st34" points="1147.4,341.2 1147.4,343 1131.6,343 1131.6,396 1147.4,396 1147.4,397.5 1052,397.5 1052,341.2 
	1072.3,341.2 1072.3,344.5 1057.8,344.5 1057.8,394.4 1127.6,394.4 1127.6,341.2 1147.4,341.2 "/>
<polygon class="st35" points="1147.4,341.2 1147.4,343 1131.6,343 1131.6,396 1147.4,396 1147.4,397.5 1052,397.5 1052,341.2 
	1072.3,341.2 1072.3,344.5 1057.8,344.5 1057.8,394.4 1127.6,394.4 1127.6,341.2 "/>
<rect x="1057.8" y="344.5" class="st30" width="14.5" height="26.3"/>
<rect x="1057.8" y="344.5" class="st31" width="14.5" height="26.3"/>
<rect x="1063.2" y="347" class="st30" width="6.7" height="10.7"/>
<rect x="1063.2" y="347" class="st31" width="6.7" height="10.7"/>
<rect x="1106.6" y="341.2" class="st31" width="20.9" height="53.3"/>
<path class="st31" d="M1118,367.2c0-0.5-0.4-0.9-0.9-0.9c-0.5,0-0.9,0.4-0.9,0.9s0.4,0.9,0.9,0.9
	C1117.6,368.1,1118,367.7,1118,367.2"/>
<path class="st31" d="M1108.5,351.8v31c0,1.1,0.2,2.3,0.7,3.3c0.4,1,1.1,2,1.9,2.8c0.8,0.8,1.7,1.4,2.8,1.9c1,0.4,2.2,0.7,3.3,0.7
	c1.1,0,2.2-0.2,3.3-0.7c1-0.4,2-1.1,2.8-1.9c0.8-0.8,1.4-1.7,1.9-2.8c0.4-1,0.7-2.2,0.7-3.3v-31c0-1.1-0.2-2.2-0.7-3.3
	c-0.4-1-1.1-2-1.9-2.8c-0.8-0.8-1.7-1.4-2.8-1.9c-1-0.4-2.2-0.7-3.3-0.7c-1.1,0-2.3,0.2-3.3,0.7c-1,0.4-2,1.1-2.8,1.9
	c-0.8,0.8-1.4,1.7-1.9,2.8C1108.7,349.6,1108.5,350.7,1108.5,351.8v31"/>
<rect x="1131.6" y="343" class="st30" width="15.8" height="53"/>
<rect x="1131.6" y="343" class="st31" width="15.8" height="53"/>
<line class="st31" x1="1144.7" y1="369.5" x2="1150.1" y2="369.5"/>
<rect x="1191.3" y="343" class="st30" width="15.8" height="53"/>
<rect x="1191.3" y="343" class="st31" width="15.8" height="53"/>
<line class="st31" x1="1188.6" y1="369.5" x2="1194" y2="369.5"/>
<path class="st30" d="M1067.7,378h-9.8v9.2h9.8c0.6,0,1.2-0.1,1.8-0.3c0.6-0.2,1.1-0.6,1.5-1s0.8-0.9,1-1.5c0.2-0.6,0.4-1.2,0.4-1.8
	c0-0.6-0.1-1.2-0.4-1.8c-0.2-0.6-0.6-1.1-1-1.5c-0.4-0.4-0.9-0.8-1.5-1C1068.9,378.1,1068.3,378,1067.7,378"/>
<path class="st31" d="M1067.7,378h-9.8v9.2h9.8c0.6,0,1.2-0.1,1.8-0.3c0.6-0.2,1.1-0.6,1.5-1s0.8-0.9,1-1.5c0.2-0.6,0.4-1.2,0.4-1.8
	c0-0.6-0.1-1.2-0.4-1.8c-0.2-0.6-0.6-1.1-1-1.5c-0.4-0.4-0.9-0.8-1.5-1C1068.9,378.1,1068.3,378,1067.7,378"/>
<line class="st31" x1="1060.5" y1="377.9" x2="1060.5" y2="387.3"/>
<rect x="901.4" y="208.4" class="st30" width="89.6" height="8"/>
<rect x="901.4" y="208.4" class="st31" width="89.6" height="8"/>
<rect x="1207.1" y="390.4" class="st34" width="7.4" height="1.6"/>
<rect x="1207.1" y="390.4" class="st35" width="7.4" height="1.6"/>
<rect x="1207.1" y="348.5" class="st34" width="7.4" height="1.6"/>
<rect x="1207.1" y="348.5" class="st35" width="7.4" height="1.6"/>
<rect x="1207.1" y="306.9" class="st34" width="7.4" height="1.6"/>
<rect x="1207.1" y="306.9" class="st35" width="7.4" height="1.6"/>
<rect x="1207.1" y="265" class="st34" width="7.4" height="1.6"/>
<rect x="1207.1" y="265" class="st35" width="7.4" height="1.6"/>
<rect x="1052" y="440.6" class="st30" width="136.6" height="7.8"/>
<rect x="1052" y="440.6" class="st31" width="136.6" height="7.8"/>
<polyline class="st30" points="1052,225.1 1062.7,225.1 1062.7,337.8 1052,337.8 1052,225.1 "/>
<rect x="1052" y="225.1" class="st31" width="10.7" height="112.8"/>
<rect x="1059.6" y="208.4" class="st30" width="128.6" height="8"/>
<rect x="1059.6" y="208.4" class="st31" width="128.6" height="8"/>
<line class="st31" x1="1052" y1="339.2" x2="1052" y2="341.2"/>
<line class="st31" x1="1052" y1="399.8" x2="1096.8" y2="399.8"/>
<rect x="1082.5" y="439.4" class="st30" width="23" height="1.1"/>
<rect x="1082.5" y="439.4" class="st31" width="23" height="1.1"/>
<line class="st31" x1="1017.9" y1="258.7" x2="1020.1" y2="258.7"/>
<line class="st31" x1="1022.8" y1="258.7" x2="1025.5" y2="258.7"/>
<line class="st31" x1="1028.2" y1="258.7" x2="1030.8" y2="258.7"/>
<line class="st31" x1="1033.5" y1="258.7" x2="1036.2" y2="258.7"/>
<line class="st31" x1="1038.9" y1="258.7" x2="1041.5" y2="258.7"/>
<line class="st31" x1="1044.2" y1="258.7" x2="1046.9" y2="258.7"/>
<line class="st31" x1="1049.6" y1="258.7" x2="1052" y2="258.7"/>
<line class="st31" x1="1017.9" y1="293.5" x2="1020.1" y2="293.5"/>
<line class="st31" x1="1022.8" y1="293.5" x2="1025.5" y2="293.5"/>
<line class="st31" x1="1028.2" y1="293.5" x2="1030.8" y2="293.5"/>
<line class="st31" x1="1033.5" y1="293.5" x2="1036.2" y2="293.5"/>
<line class="st31" x1="1038.9" y1="293.5" x2="1041.5" y2="293.5"/>
<line class="st31" x1="1044.2" y1="293.5" x2="1046.9" y2="293.5"/>
<line class="st31" x1="1049.6" y1="293.5" x2="1052" y2="293.5"/>
<line class="st31" x1="1017.9" y1="328.5" x2="1020.1" y2="328.5"/>
<line class="st31" x1="1022.8" y1="328.5" x2="1025.5" y2="328.5"/>
<line class="st31" x1="1028.2" y1="328.5" x2="1030.8" y2="328.5"/>
<line class="st31" x1="1033.5" y1="328.5" x2="1036.2" y2="328.5"/>
<line class="st31" x1="1038.9" y1="328.5" x2="1041.5" y2="328.5"/>
<line class="st31" x1="1044.2" y1="328.5" x2="1046.9" y2="328.5"/>
<line class="st31" x1="1049.6" y1="328.5" x2="1052" y2="328.5"/>
<line class="st31" x1="1017.9" y1="398.2" x2="1020.1" y2="398.2"/>
<line class="st31" x1="1022.8" y1="398.2" x2="1025.5" y2="398.2"/>
<line class="st31" x1="1028.2" y1="398.2" x2="1030.8" y2="398.2"/>
<line class="st31" x1="1033.5" y1="398.2" x2="1036.2" y2="398.2"/>
<line class="st31" x1="1038.9" y1="398.2" x2="1041.5" y2="398.2"/>
<line class="st31" x1="1044.2" y1="398.2" x2="1046.9" y2="398.2"/>
<line class="st31" x1="1049.6" y1="398.2" x2="1052" y2="398.2"/>
<polyline class="st31" points="1123.7,421.1 1128.4,416.4 1123.7,411.6 "/>
<polyline class="st31" points="1030.3,372.6 1035,377.3 1039.7,372.6 "/>
<polyline class="st31" points="1030.7,199.5 1035.4,204.3 1040.1,199.5 "/>
<polyline class="st37" points="865.9,580.7 865.9,130.8 1253,130.8 1253,580.7 "/>
<text transform="matrix(1 0 0 1 492.8016 546.6234)" class="st38 st39">EG</text>
<text transform="matrix(1.0039 0 0 1 894.0253 546.6234)"><tspan x="0" y="0" class="st38 st40">O</tspan><tspan x="8.9" y="0" class="st38 st40">G</tspan></text>
<g>
	<defs>
		<rect id="SVGID_15_" x="476.5" y="136.2" width="468.1" height="268.5"/>
	</defs>
	<clipPath id="SVGID_2_">
		<use xlink:href="#SVGID_15_"  style="overflow:visible;"/>
	</clipPath>
</g>
<polyline class="st31" points="247.7,422.4 252.4,417.6 247.7,412.9 "/>
<rect x="231" y="343.9" class="st32" width="61.7" height="57"/>
<rect x="231" y="343.9" class="st33" width="61.7" height="57"/>
<polyline class="st34" points="266.6,343.9 286,343.9 286,347.9 292.7,347.9 292.7,396.7 235.4,396.7 235.4,343.9 248.3,343.9 
	248.3,340.5 231,340.5 231,400.9 292.7,400.9 292.7,434.4 196.6,434.4 191.1,431.2 187.3,437.7 194.6,441.9 386,441.9 393.4,441.9 
	393.4,380 388.5,380 386,380 386,434.4 299.8,434.4 299.8,347.9 326.6,347.9 326.6,343 326.6,340.5 286,340.5 286,251.4 
	279.5,251.4 279.5,340.5 266.6,340.5 266.6,343.9 "/>
<polygon class="st35" points="266.6,343.9 286,343.9 286,347.9 292.7,347.9 292.7,396.7 235.4,396.7 235.4,343.9 248.3,343.9 
	248.3,340.5 231,340.5 231,400.9 292.7,400.9 292.7,434.4 196.6,434.4 191.1,431.2 187.3,437.7 194.6,441.9 386,441.9 393.4,441.9 
	393.4,380 388.5,380 386,380 386,434.4 299.8,434.4 299.8,347.9 326.6,347.9 326.6,343 326.6,340.5 286,340.5 286,251.4 
	279.5,251.4 279.5,340.5 266.6,340.5 "/>
<polyline class="st34" points="388.5,364.2 393.4,364.2 393.4,335.9 386,335.9 386,340.5 347.7,340.5 347.7,343 347.7,347.9 
	386,347.9 386,364.2 388.5,364.2 "/>
<polygon class="st35" points="388.5,364.2 393.4,364.2 393.4,335.9 386,335.9 386,340.5 347.7,340.5 347.7,343 347.7,347.9 
	386,347.9 386,364.2 "/>
<polyline class="st34" points="393.4,289.7 386,289.7 386,318.7 393.4,318.7 393.4,289.7 "/>
<rect x="386" y="289.7" class="st35" width="7.4" height="29"/>
<polyline class="st34" points="189.3,225.1 386,225.1 386,272.6 393.4,272.6 393.4,225.1 393.4,217.5 196.9,217.5 196.9,164.9 
	189.3,164.9 189.3,225.1 "/>
<polygon class="st35" points="189.3,225.1 386,225.1 386,272.6 393.4,272.6 393.4,225.1 393.4,217.5 196.9,217.5 196.9,164.9 
	189.3,164.9 "/>
<polyline class="st34" points="73,164.9 80.3,164.9 80.3,255.9 73,255.9 73,164.9 "/>
<rect x="73" y="164.9" class="st35" width="7.4" height="90.9"/>
<polyline class="st34" points="73,373.7 157.4,421 161.2,414.5 80.3,369.3 80.3,366.2 73,366.2 73,373.7 "/>
<polygon class="st35" points="73,373.7 157.4,421 161.2,414.5 80.3,369.3 80.3,366.2 73,366.2 "/>
<polyline class="st34" points="152.7,380.4 152.7,361 151.2,361 151.2,324.5 80.3,324.5 80.3,292.9 73,292.9 73,331.9 147.4,331.9 
	147.4,380.4 152.7,380.4 "/>
<polygon class="st35" points="152.7,380.4 152.7,361 151.2,361 151.2,324.5 80.3,324.5 80.3,292.9 73,292.9 73,331.9 147.4,331.9 
	147.4,380.4 "/>
<rect x="80.3" y="164.9" class="st30" width="109" height="7.6"/>
<rect x="80.3" y="164.9" class="st31" width="109" height="7.6"/>
<line class="st31" x1="231" y1="371.1" x2="196.9" y2="371.1"/>
<line class="st31" x1="231" y1="400.9" x2="231" y2="434.4"/>
<line class="st31" x1="245.2" y1="434.4" x2="259.7" y2="400.9"/>
<line class="st31" x1="231" y1="340.5" x2="196.9" y2="340.5"/>
<line class="st31" x1="253.9" y1="400.9" x2="253.9" y2="414.3"/>
<line class="st31" x1="246.3" y1="400.9" x2="246.3" y2="431.9"/>
<line class="st31" x1="231" y1="348.1" x2="196.9" y2="348.1"/>
<line class="st31" x1="231" y1="355.7" x2="196.9" y2="355.7"/>
<line class="st31" x1="231" y1="363.3" x2="196.9" y2="363.3"/>
<line class="st31" x1="253.9" y1="414.3" x2="253.9" y2="415"/>
<line class="st31" x1="253.9" y1="417.6" x2="253.9" y2="420.3"/>
<line class="st31" x1="253.9" y1="423" x2="253.9" y2="425.7"/>
<line class="st31" x1="253.9" y1="428.3" x2="253.9" y2="431"/>
<line class="st31" x1="253.9" y1="433.7" x2="253.9" y2="434.4"/>
<line class="st31" x1="261.5" y1="400.9" x2="261.5" y2="402.9"/>
<line class="st31" x1="261.5" y1="405.6" x2="261.5" y2="408.3"/>
<line class="st31" x1="261.5" y1="411" x2="261.5" y2="413.6"/>
<line class="st31" x1="261.5" y1="416.3" x2="261.5" y2="419"/>
<line class="st31" x1="261.5" y1="421.7" x2="261.5" y2="424.3"/>
<line class="st31" x1="261.5" y1="427" x2="261.5" y2="429.7"/>
<line class="st31" x1="261.5" y1="432.3" x2="261.5" y2="434.4"/>
<line class="st31" x1="269.3" y1="400.9" x2="269.3" y2="402.9"/>
<line class="st31" x1="269.3" y1="405.6" x2="269.3" y2="408.3"/>
<line class="st31" x1="269.3" y1="411" x2="269.3" y2="413.6"/>
<line class="st31" x1="269.3" y1="416.3" x2="269.3" y2="419"/>
<line class="st31" x1="269.3" y1="421.7" x2="269.3" y2="424.3"/>
<line class="st31" x1="269.3" y1="427" x2="269.3" y2="429.7"/>
<line class="st31" x1="269.3" y1="432.3" x2="269.3" y2="434.4"/>
<line class="st31" x1="238.8" y1="400.9" x2="238.8" y2="434.4"/>
<line class="st31" x1="276.9" y1="400.9" x2="276.9" y2="402.9"/>
<line class="st31" x1="276.9" y1="405.6" x2="276.9" y2="408.3"/>
<line class="st31" x1="276.9" y1="411" x2="276.9" y2="413.6"/>
<line class="st31" x1="276.9" y1="416.3" x2="276.9" y2="419"/>
<line class="st31" x1="276.9" y1="421.7" x2="276.9" y2="424.3"/>
<line class="st31" x1="276.9" y1="427" x2="276.9" y2="429.7"/>
<line class="st31" x1="276.9" y1="432.3" x2="276.9" y2="434.4"/>
<line class="st31" x1="284.4" y1="400.9" x2="284.4" y2="402.9"/>
<line class="st31" x1="284.4" y1="405.6" x2="284.4" y2="408.3"/>
<line class="st31" x1="284.4" y1="411" x2="284.4" y2="413.6"/>
<line class="st31" x1="284.4" y1="416.3" x2="284.4" y2="419"/>
<line class="st31" x1="284.4" y1="421.7" x2="284.4" y2="424.3"/>
<line class="st31" x1="284.4" y1="427" x2="284.4" y2="429.7"/>
<line class="st31" x1="284.4" y1="432.3" x2="284.4" y2="434.4"/>
<line class="st31" x1="231" y1="378.6" x2="196.9" y2="378.6"/>
<polyline class="st30" points="157.4,421 161.2,414.5 191.1,431.2 187.3,437.7 157.4,421 "/>
<polygon class="st31" points="157.4,421 161.2,414.5 191.1,431.2 187.3,437.7 "/>
<rect x="73" y="255.9" class="st30" width="7.4" height="37"/>
<rect x="73" y="255.9" class="st31" width="7.4" height="37"/>
<rect x="73" y="331.9" class="st30" width="7.4" height="34.3"/>
<rect x="73" y="331.9" class="st31" width="7.4" height="34.3"/>
<rect x="189.3" y="373.3" class="st34" width="7.6" height="5.3"/>
<rect x="189.3" y="373.3" class="st35" width="7.6" height="5.3"/>
<rect x="189.3" y="324.5" class="st34" width="7.6" height="5.1"/>
<rect x="189.3" y="324.5" class="st35" width="7.6" height="5.1"/>
<rect x="286" y="347.9" class="st30" width="6.7" height="48.8"/>
<rect x="286" y="347.9" class="st31" width="6.7" height="48.8"/>
<rect x="189.3" y="329.6" class="st30" width="7.6" height="43.7"/>
<rect x="189.3" y="329.6" class="st31" width="7.6" height="43.7"/>
<rect x="189.3" y="225.1" class="st30" width="7.6" height="99.4"/>
<rect x="189.3" y="225.1" class="st31" width="7.6" height="99.4"/>
<rect x="263.5" y="255.4" class="st30" width="16" height="15.6"/>
<rect x="263.5" y="255.4" class="st31" width="16" height="15.6"/>
<rect x="263.7" y="277" class="st30" width="15.8" height="16"/>
<rect x="263.7" y="277" class="st31" width="15.8" height="16"/>
<polyline class="st30" points="144.7,364.8 146.3,364.8 146.3,390.5 144.7,389.6 144.7,364.8 "/>
<polygon class="st31" points="144.7,364.8 146.3,364.8 146.3,390.5 144.7,389.6 "/>
<polyline class="st34" points="319.2,320.3 329.9,338.5 326.6,340.5 316.1,322.3 319.2,320.3 "/>
<polygon class="st35" points="319.2,320.3 329.9,338.5 326.6,340.5 316.1,322.3 "/>
<polyline class="st34" points="405.9,271.5 405.9,291.1 393.4,291.1 393.4,294.4 409.2,294.4 409.2,268.1 393.4,268.1 393.4,271.5 
	405.9,271.5 "/>
<polygon class="st35" points="405.9,271.5 405.9,291.1 393.4,291.1 393.4,294.4 409.2,294.4 409.2,268.1 393.4,268.1 393.4,271.5 
	"/>
<polyline class="st34" points="405.9,317.4 405.9,337.2 393.4,337.2 393.4,340.5 409.2,340.5 409.2,314 393.4,314 393.4,317.4 
	405.9,317.4 "/>
<polygon class="st35" points="405.9,317.4 405.9,337.2 393.4,337.2 393.4,340.5 409.2,340.5 409.2,314 393.4,314 393.4,317.4 "/>
<polyline class="st34" points="409.2,362.2 409.2,382 393.4,382 393.4,385.1 412.6,385.1 412.6,358.8 393.4,358.8 393.4,362.2 
	409.2,362.2 "/>
<polygon class="st35" points="409.2,362.2 409.2,382 393.4,382 393.4,385.1 412.6,385.1 412.6,358.8 393.4,358.8 393.4,362.2 "/>
<rect x="386" y="272.6" class="st30" width="7.4" height="17.2"/>
<rect x="386" y="272.6" class="st31" width="7.4" height="17.2"/>
<line class="st31" x1="393.4" y1="217.5" x2="393.4" y2="216.4"/>
<line class="st31" x1="393.4" y1="213.7" x2="393.4" y2="211.1"/>
<line class="st31" x1="393.4" y1="208.4" x2="393.4" y2="205.7"/>
<line class="st31" x1="393.4" y1="203.1" x2="393.4" y2="200.4"/>
<line class="st31" x1="393.4" y1="197.7" x2="393.4" y2="195"/>
<line class="st31" x1="393.4" y1="192.4" x2="393.4" y2="191.2"/>
<line class="st31" x1="393.4" y1="191.2" x2="392.7" y2="191.2"/>
<line class="st31" x1="390.1" y1="191.2" x2="387.4" y2="191.2"/>
<line class="st31" x1="384.7" y1="191.2" x2="382" y2="191.2"/>
<line class="st31" x1="379.4" y1="191.2" x2="376.7" y2="191.2"/>
<line class="st31" x1="374" y1="191.2" x2="371.3" y2="191.2"/>
<line class="st31" x1="368.7" y1="191.2" x2="366" y2="191.2"/>
<line class="st31" x1="363.3" y1="191.2" x2="360.6" y2="191.2"/>
<line class="st31" x1="358" y1="191.2" x2="355.3" y2="191.2"/>
<line class="st31" x1="352.6" y1="191.2" x2="349.9" y2="191.2"/>
<line class="st31" x1="347.3" y1="191.2" x2="344.6" y2="191.2"/>
<line class="st31" x1="341.9" y1="191.2" x2="339.3" y2="191.2"/>
<line class="st31" x1="336.6" y1="191.2" x2="333.9" y2="191.2"/>
<line class="st31" x1="331.2" y1="191.2" x2="328.6" y2="191.2"/>
<line class="st31" x1="325.9" y1="191.2" x2="323.2" y2="191.2"/>
<line class="st31" x1="320.5" y1="191.2" x2="317.9" y2="191.2"/>
<line class="st31" x1="315.2" y1="191.2" x2="312.5" y2="191.2"/>
<line class="st31" x1="309.8" y1="191.2" x2="307.2" y2="191.2"/>
<line class="st31" x1="304.5" y1="191.2" x2="301.8" y2="191.2"/>
<line class="st31" x1="299.1" y1="191.2" x2="296.5" y2="191.2"/>
<line class="st31" x1="293.8" y1="191.2" x2="291.1" y2="191.2"/>
<line class="st31" x1="288.4" y1="191.2" x2="285.8" y2="191.2"/>
<line class="st31" x1="283.1" y1="191.2" x2="280.4" y2="191.2"/>
<line class="st31" x1="277.8" y1="191.2" x2="275.1" y2="191.2"/>
<line class="st31" x1="272.4" y1="191.2" x2="269.7" y2="191.2"/>
<line class="st31" x1="267.1" y1="191.2" x2="264.4" y2="191.2"/>
<line class="st31" x1="261.7" y1="191.2" x2="259" y2="191.2"/>
<line class="st31" x1="256.4" y1="191.2" x2="253.7" y2="191.2"/>
<line class="st31" x1="251" y1="191.2" x2="248.3" y2="191.2"/>
<line class="st31" x1="245.7" y1="191.2" x2="243" y2="191.2"/>
<line class="st31" x1="240.3" y1="191.2" x2="237.6" y2="191.2"/>
<line class="st31" x1="235" y1="191.2" x2="232.3" y2="191.2"/>
<line class="st31" x1="229.6" y1="191.2" x2="226.9" y2="191.2"/>
<line class="st31" x1="224.3" y1="191.2" x2="221.6" y2="191.2"/>
<line class="st31" x1="218.9" y1="191.2" x2="216.2" y2="191.2"/>
<line class="st31" x1="213.6" y1="191.2" x2="210.9" y2="191.2"/>
<line class="st31" x1="208.2" y1="191.2" x2="205.6" y2="191.2"/>
<line class="st31" x1="202.9" y1="191.2" x2="200.2" y2="191.2"/>
<line class="st31" x1="197.5" y1="191.2" x2="196.9" y2="191.2"/>
<line class="st31" x1="231" y1="441.9" x2="231" y2="442.8"/>
<line class="st31" x1="231" y1="445.5" x2="231" y2="448.2"/>
<line class="st31" x1="231" y1="450.8" x2="231" y2="453.5"/>
<line class="st31" x1="231" y1="456.2" x2="231" y2="458.9"/>
<line class="st31" x1="231" y1="461.5" x2="231" y2="464.2"/>
<line class="st31" x1="231" y1="466.9" x2="231" y2="469.6"/>
<line class="st31" x1="231" y1="472.2" x2="231" y2="474.9"/>
<line class="st31" x1="231" y1="477.6" x2="231" y2="480.3"/>
<line class="st31" x1="231" y1="482.9" x2="231" y2="485.6"/>
<line class="st31" x1="231" y1="488.3" x2="231" y2="491"/>
<line class="st31" x1="231" y1="493.6" x2="231" y2="496.3"/>
<line class="st31" x1="231" y1="499" x2="231" y2="501.6"/>
<line class="st31" x1="231" y1="504.3" x2="231" y2="507"/>
<line class="st31" x1="231" y1="509.7" x2="231" y2="512.3"/>
<line class="st31" x1="231" y1="515" x2="231" y2="517.7"/>
<line class="st31" x1="231" y1="520.4" x2="231" y2="523"/>
<line class="st31" x1="231" y1="525.7" x2="231" y2="528.4"/>
<line class="st31" x1="231" y1="531.1" x2="231" y2="533.7"/>
<line class="st31" x1="231" y1="536.4" x2="231" y2="537.5"/>
<line class="st31" x1="231" y1="537.5" x2="233" y2="537.5"/>
<line class="st31" x1="235.6" y1="537.5" x2="238.3" y2="537.5"/>
<line class="st31" x1="241" y1="537.5" x2="243.7" y2="537.5"/>
<line class="st31" x1="246.3" y1="537.5" x2="249" y2="537.5"/>
<line class="st31" x1="251.7" y1="537.5" x2="254.4" y2="537.5"/>
<line class="st31" x1="257" y1="537.5" x2="259.7" y2="537.5"/>
<line class="st31" x1="262.4" y1="537.5" x2="265" y2="537.5"/>
<line class="st31" x1="267.7" y1="537.5" x2="270.4" y2="537.5"/>
<line class="st31" x1="273.1" y1="537.5" x2="275.7" y2="537.5"/>
<line class="st31" x1="278.4" y1="537.5" x2="281.1" y2="537.5"/>
<line class="st31" x1="283.8" y1="537.5" x2="286.4" y2="537.5"/>
<line class="st31" x1="289.1" y1="537.5" x2="291.8" y2="537.5"/>
<line class="st31" x1="294.5" y1="537.5" x2="297.1" y2="537.5"/>
<line class="st31" x1="299.8" y1="537.5" x2="302.5" y2="537.5"/>
<line class="st31" x1="305.2" y1="537.5" x2="307.8" y2="537.5"/>
<line class="st31" x1="310.5" y1="537.5" x2="312.5" y2="537.5"/>
<line class="st31" x1="312.5" y1="537.5" x2="312.5" y2="535.7"/>
<line class="st31" x1="312.5" y1="533.1" x2="312.5" y2="530.4"/>
<line class="st31" x1="312.5" y1="527.7" x2="312.5" y2="525.9"/>
<line class="st31" x1="312.5" y1="525.9" x2="314.5" y2="525.9"/>
<line class="st31" x1="317.2" y1="525.9" x2="319.9" y2="525.9"/>
<line class="st31" x1="322.5" y1="525.9" x2="325.2" y2="525.9"/>
<line class="st31" x1="327.9" y1="525.9" x2="330.6" y2="525.9"/>
<line class="st31" x1="333.2" y1="525.9" x2="335.9" y2="525.9"/>
<line class="st31" x1="338.6" y1="525.9" x2="341.3" y2="525.9"/>
<line class="st31" x1="343.9" y1="525.9" x2="346.6" y2="525.9"/>
<line class="st31" x1="349.3" y1="525.9" x2="352" y2="525.9"/>
<line class="st31" x1="354.6" y1="525.9" x2="357.3" y2="525.9"/>
<line class="st31" x1="360" y1="525.9" x2="362.7" y2="525.9"/>
<line class="st31" x1="365.3" y1="525.9" x2="367.6" y2="525.9"/>
<line class="st31" x1="367.6" y1="525.9" x2="367.6" y2="525.5"/>
<line class="st31" x1="367.6" y1="522.8" x2="367.6" y2="520.1"/>
<line class="st31" x1="367.6" y1="517.5" x2="367.6" y2="514.8"/>
<line class="st31" x1="367.6" y1="512.1" x2="367.6" y2="509.4"/>
<line class="st31" x1="367.6" y1="506.8" x2="367.6" y2="504.1"/>
<line class="st31" x1="367.6" y1="501.4" x2="367.6" y2="498.8"/>
<line class="st31" x1="367.6" y1="496.1" x2="367.6" y2="493.4"/>
<line class="st31" x1="367.6" y1="490.7" x2="367.6" y2="488.1"/>
<line class="st31" x1="367.6" y1="485.4" x2="367.6" y2="482.7"/>
<line class="st31" x1="367.6" y1="480" x2="367.6" y2="477.4"/>
<line class="st31" x1="367.6" y1="474.7" x2="367.6" y2="472"/>
<line class="st31" x1="367.6" y1="469.3" x2="367.6" y2="466.7"/>
<line class="st31" x1="367.6" y1="464" x2="367.6" y2="461.3"/>
<line class="st31" x1="367.6" y1="458.6" x2="367.6" y2="456"/>
<line class="st31" x1="367.6" y1="453.3" x2="367.6" y2="450.6"/>
<line class="st31" x1="367.6" y1="447.9" x2="367.6" y2="445.3"/>
<line class="st31" x1="367.6" y1="442.6" x2="367.6" y2="441.9"/>
<line class="st31" x1="235.9" y1="441.9" x2="235.9" y2="448.6"/>
<line class="st31" x1="235.9" y1="450.6" x2="235.9" y2="458.6"/>
<line class="st31" x1="235.9" y1="460.6" x2="235.9" y2="468.7"/>
<line class="st31" x1="235.9" y1="470.7" x2="235.9" y2="478.7"/>
<line class="st31" x1="235.9" y1="480.7" x2="235.9" y2="488.7"/>
<line class="st31" x1="235.9" y1="490.7" x2="235.9" y2="498.8"/>
<line class="st31" x1="235.9" y1="500.8" x2="235.9" y2="508.8"/>
<line class="st31" x1="235.9" y1="510.8" x2="235.9" y2="518.8"/>
<line class="st31" x1="235.9" y1="520.8" x2="235.9" y2="528.8"/>
<line class="st31" x1="235.9" y1="530.8" x2="235.9" y2="537.5"/>
<line class="st31" x1="362.7" y1="441.9" x2="362.7" y2="444.6"/>
<line class="st31" x1="362.7" y1="447.3" x2="362.7" y2="450"/>
<line class="st31" x1="362.7" y1="452.6" x2="362.7" y2="455.3"/>
<line class="st31" x1="362.7" y1="458" x2="362.7" y2="460.6"/>
<line class="st31" x1="1176.2" y1="463.3" x2="1176.2" y2="466"/>
<line class="st31" x1="362.7" y1="468.7" x2="362.7" y2="471.3"/>
<line class="st31" x1="362.7" y1="474" x2="362.7" y2="476.7"/>
<line class="st31" x1="362.7" y1="479.4" x2="362.7" y2="482"/>
<line class="st31" x1="362.7" y1="484.7" x2="362.7" y2="487.4"/>
<line class="st31" x1="362.7" y1="490.1" x2="362.7" y2="492.7"/>
<line class="st31" x1="362.7" y1="495.4" x2="362.7" y2="498.1"/>
<line class="st31" x1="362.7" y1="500.8" x2="362.7" y2="503.4"/>
<line class="st31" x1="362.7" y1="506.1" x2="362.7" y2="508.8"/>
<line class="st31" x1="362.7" y1="511.5" x2="362.7" y2="514.1"/>
<line class="st31" x1="362.7" y1="516.8" x2="362.7" y2="519.5"/>
<line class="st31" x1="362.7" y1="522.1" x2="362.7" y2="524.8"/>
<line class="st31" x1="362.7" y1="525.5" x2="362.7" y2="525.9"/>
<path class="st30" d="M290.5,351.1c0-0.6-0.5-1-1.1-1s-1.1,0.5-1.1,1c0,0.6,0.5,1,1.1,1S290.5,351.7,290.5,351.1"/>
<path class="st31" d="M290.5,351.1c0-0.6-0.5-1-1.1-1s-1.1,0.5-1.1,1c0,0.6,0.5,1,1.1,1S290.5,351.7,290.5,351.1"/>
<rect x="151.2" y="324.5" class="st30" width="1.6" height="36.5"/>
<rect x="151.2" y="324.5" class="st31" width="1.6" height="36.5"/>
<line class="st31" x1="189.3" y1="324.5" x2="189.1" y2="327.2"/>
<line class="st31" x1="188.8" y1="329.8" x2="188.6" y2="331.6"/>
<line class="st31" x1="188.6" y1="331.6" x2="188.4" y2="332.5"/>
<line class="st31" x1="187.7" y1="335.2" x2="186.8" y2="337.6"/>
<line class="st31" x1="185.7" y1="340.1" x2="185.1" y2="341.7"/>
<line class="st31" x1="185.1" y1="341.7" x2="184.6" y2="342.5"/>
<line class="st31" x1="183" y1="344.8" x2="181.5" y2="347"/>
<line class="st31" x1="179.7" y1="349" x2="178.6" y2="350.3"/>
<line class="st31" x1="178.6" y1="350.3" x2="177.9" y2="351"/>
<line class="st31" x1="175.7" y1="352.8" x2="173.7" y2="354.4"/>
<line class="st31" x1="171.5" y1="355.7" x2="169.9" y2="356.6"/>
<line class="st31" x1="169.9" y1="356.6" x2="169" y2="357"/>
<line class="st31" x1="166.6" y1="358.1" x2="164.1" y2="359.3"/>
<line class="st31" x1="161.4" y1="359.9" x2="159.9" y2="360.2"/>
<line class="st31" x1="159.9" y1="360.2" x2="158.8" y2="360.4"/>
<line class="st31" x1="156.1" y1="360.8" x2="153.4" y2="361"/>
<line class="st31" x1="144.7" y1="375.3" x2="144.7" y2="372.6"/>
<line class="st31" x1="144.7" y1="370" x2="144.7" y2="367.3"/>
<line class="st31" x1="144.7" y1="364.6" x2="144.7" y2="361.9"/>
<line class="st31" x1="144.7" y1="359.3" x2="144.7" y2="356.6"/>
<line class="st31" x1="144.7" y1="353.9" x2="144.7" y2="351.2"/>
<line class="st31" x1="144.7" y1="351.2" x2="144.7" y2="350.8"/>
<line class="st31" x1="146.3" y1="351.9" x2="146.3" y2="354.6"/>
<line class="st31" x1="146.3" y1="357.3" x2="146.3" y2="359.9"/>
<line class="st31" x1="146.3" y1="362.6" x2="146.3" y2="365.3"/>
<line class="st31" x1="146.3" y1="367.9" x2="146.3" y2="370.6"/>
<line class="st31" x1="146.3" y1="373.3" x2="146.3" y2="375.3"/>
<path class="st31" d="M266.6,340.4v-18.3c-2.4,0-4.8,0.5-7,1.4c-2.2,0.9-4.2,2.3-5.9,4c-1.7,1.7-3,3.7-4,5.9c-0.9,2.2-1.4,4.6-1.4,7
	"/>
<path class="st30" d="M290.5,363.8c0-0.6-0.5-1-1.1-1s-1.1,0.5-1.1,1c0,0.6,0.5,1,1.1,1S290.5,364.4,290.5,363.8"/>
<path class="st31" d="M290.5,363.8c0-0.6-0.5-1-1.1-1s-1.1,0.5-1.1,1c0,0.6,0.5,1,1.1,1S290.5,364.4,290.5,363.8"/>
<path class="st30" d="M290.5,363.8c0-0.6-0.5-1-1.1-1s-1.1,0.5-1.1,1c0,0.6,0.5,1,1.1,1S290.5,364.4,290.5,363.8"/>
<path class="st31" d="M290.5,363.8c0-0.6-0.5-1-1.1-1s-1.1,0.5-1.1,1c0,0.6,0.5,1,1.1,1S290.5,364.4,290.5,363.8"/>
<path class="st30" d="M290.5,368.5c0-0.6-0.5-1-1.1-1s-1.1,0.5-1.1,1s0.5,1,1.1,1S290.5,369.1,290.5,368.5"/>
<path class="st31" d="M290.5,368.5c0-0.6-0.5-1-1.1-1s-1.1,0.5-1.1,1s0.5,1,1.1,1S290.5,369.1,290.5,368.5"/>
<path class="st30" d="M290.5,373.3c0-0.6-0.5-1.1-1.1-1.1s-1.1,0.5-1.1,1.1c0,0.6,0.5,1.1,1.1,1.1S290.5,373.9,290.5,373.3"/>
<path class="st31" d="M290.5,373.3c0-0.6-0.5-1.1-1.1-1.1s-1.1,0.5-1.1,1.1c0,0.6,0.5,1.1,1.1,1.1S290.5,373.9,290.5,373.3"/>
<path class="st30" d="M290.5,378c0-0.6-0.5-1.1-1.1-1.1s-1.1,0.5-1.1,1.1s0.5,1.1,1.1,1.1S290.5,378.6,290.5,378"/>
<path class="st31" d="M290.5,378c0-0.6-0.5-1.1-1.1-1.1s-1.1,0.5-1.1,1.1s0.5,1.1,1.1,1.1S290.5,378.6,290.5,378"/>
<path class="st30" d="M290.5,382.8c0-0.6-0.5-1-1.1-1s-1.1,0.5-1.1,1c0,0.6,0.5,1,1.1,1S290.5,383.3,290.5,382.8"/>
<path class="st31" d="M290.5,382.8c0-0.6-0.5-1-1.1-1s-1.1,0.5-1.1,1c0,0.6,0.5,1,1.1,1S290.5,383.3,290.5,382.8"/>
<path class="st30" d="M290.5,387.4c0-0.6-0.5-1-1.1-1s-1.1,0.5-1.1,1c0,0.6,0.5,1,1.1,1S290.5,388,290.5,387.4"/>
<path class="st31" d="M290.5,387.4c0-0.6-0.5-1-1.1-1s-1.1,0.5-1.1,1c0,0.6,0.5,1,1.1,1S290.5,388,290.5,387.4"/>
<rect x="386" y="318.7" class="st30" width="7.4" height="17.2"/>
<rect x="386" y="318.7" class="st31" width="7.4" height="17.2"/>
<rect x="386" y="364.2" class="st30" width="7.4" height="15.8"/>
<rect x="386" y="364.2" class="st31" width="7.4" height="15.8"/>
<line class="st31" x1="159.9" y1="417" x2="189.7" y2="433.7"/>
<line class="st31" x1="77.6" y1="255.9" x2="77.6" y2="292.9"/>
<line class="st31" x1="77.6" y1="366.2" x2="77.6" y2="331.9"/>
<line class="st31" x1="80.3" y1="169.9" x2="189.3" y2="169.9"/>
<path class="st30" d="M140.4,341.5v-9.8h-9.2v9.8c0,0.6,0.1,1.2,0.4,1.8c0.2,0.6,0.6,1.1,1,1.5c0.4,0.4,0.9,0.8,1.5,1
	c0.6,0.2,1.2,0.3,1.8,0.3c0.6,0,1.2-0.1,1.8-0.3c0.6-0.2,1.1-0.6,1.5-1s0.8-0.9,1-1.5C140.3,342.7,140.4,342.1,140.4,341.5"/>
<path class="st31" d="M140.4,341.5v-9.8h-9.2v9.8c0,0.6,0.1,1.2,0.4,1.8c0.2,0.6,0.6,1.1,1,1.5c0.4,0.4,0.9,0.8,1.5,1
	c0.6,0.2,1.2,0.3,1.8,0.3c0.6,0,1.2-0.1,1.8-0.3c0.6-0.2,1.1-0.6,1.5-1s0.8-0.9,1-1.5C140.3,342.7,140.4,342.1,140.4,341.5"/>
<line class="st31" x1="140.5" y1="334.3" x2="131.1" y2="334.3"/>
<rect x="108.6" y="331.9" class="st30" width="13.1" height="10.5"/>
<rect x="108.6" y="331.9" class="st41" width="13.1" height="10.5"/>
<rect x="110" y="334.3" class="st30" width="10.5" height="6.7"/>
<rect x="110" y="334.3" class="st41" width="10.5" height="6.7"/>
<path class="st31" d="M279.5,251.5v-2.1c-2.9,0-5.8-0.6-8.5-1.7c-2.7-1.1-5.1-2.7-7.2-4.8s-3.7-4.5-4.8-7.2
	c-1.1-2.7-1.7-5.6-1.7-8.5h22.1v-2.1"/>
<rect x="268.8" y="299.5" class="st30" width="10.7" height="13.1"/>
<rect x="268.8" y="299.5" class="st41" width="10.7" height="13.1"/>
<rect x="270.2" y="300.9" class="st30" width="6.7" height="10.5"/>
<rect x="270.2" y="300.9" class="st41" width="6.7" height="10.5"/>
<rect x="103.3" y="331.9" class="st30" width="1.1" height="20.9"/>
<rect x="103.3" y="331.9" class="st31" width="1.1" height="20.9"/>
<path class="st30" d="M92.6,342.3c0-0.5-0.4-0.9-0.8-0.9c-0.4,0-0.8,0.4-0.8,0.9c0,0.5,0.4,0.9,0.8,0.9
	C92.2,343.2,92.6,342.8,92.6,342.3"/>
<path class="st31" d="M92.6,342.3c0-0.5-0.4-0.9-0.8-0.9c-0.4,0-0.8,0.4-0.8,0.9c0,0.5,0.4,0.9,0.8,0.9
	C92.2,343.2,92.6,342.8,92.6,342.3"/>
<line class="st31" x1="388.7" y1="272.6" x2="388.7" y2="289.7"/>
<line class="st31" x1="388.7" y1="318.7" x2="388.7" y2="335.9"/>
<line class="st31" x1="388.7" y1="364.2" x2="388.7" y2="380"/>
<polyline class="st34" points="372.2,387.8 370.4,384.7 384,376.6 386,380 372.2,387.8 "/>
<polygon class="st35" points="372.2,387.8 370.4,384.7 384,376.6 386,380 "/>
<path class="st31" d="M347.7,340.4L347.7,340.4c0-6.9-3.4-13.3-9-17.2c-5.6-3.9-12.8-4.9-19.3-2.6"/>
<path class="st31" d="M385.9,364.1L385.9,364.1c-5,0-9.7,2.3-12.6,6.3c-3,4-3.9,9.1-2.5,13.9"/>
<polyline class="st31" points="209.2,373.9 213.9,378.6 218.6,373.9 "/>
<text transform="matrix(1 0 0 1 83.8859 546.9985)" class="st38 st39">UG</text>
</svg>
