<?xml version="1.0" encoding="utf-8"?>
<!-- Generator: Adobe Illustrator 19.1.0, SVG Export Plug-In . SVG Version: 6.00 Build 0)  -->
<svg version="1.1" id="Ebene_1" xmlns="http://www.w3.org/2000/svg" xmlns:xlink="http://www.w3.org/1999/xlink" x="0px" y="0px"
	 viewBox="0 0 1280 720" style="enable-background:new 0 0 1280 720;" xml:space="preserve">
<style type="text/css">
	.st0{fill-rule:evenodd;clip-rule:evenodd;fill:#E8E8E8;}
	.st1{fill:none;stroke:#8C8C8C;stroke-width:0.144;stroke-linecap:round;stroke-linejoin:round;stroke-miterlimit:10;}
	.st2{fill-rule:evenodd;clip-rule:evenodd;fill:#FFFFFF;}
	.st3{fill:none;stroke:#000000;stroke-width:0.144;stroke-linecap:round;stroke-linejoin:round;stroke-miterlimit:10;}
	.st4{fill-rule:evenodd;clip-rule:evenodd;}
	.st5{fill:none;stroke:#000000;stroke-width:7.200000e-02;stroke-linecap:round;stroke-linejoin:round;stroke-miterlimit:10;}
	.st6{fill:none;stroke:#000000;stroke-width:0.216;stroke-linecap:round;stroke-linejoin:round;stroke-miterlimit:10;}
	.st7{fill:none;stroke:#5A5A5A;stroke-width:0.144;stroke-linecap:round;stroke-linejoin:round;stroke-miterlimit:10;}
	.st8{fill:none;stroke:#B3B3B3;stroke-width:0.288;stroke-linecap:round;stroke-linejoin:round;stroke-miterlimit:10;}
	.st9{fill:none;stroke:#B3B3B3;stroke-width:0.25;stroke-linecap:round;stroke-linejoin:round;stroke-miterlimit:10;}
	.st10{fill:none;stroke:#000000;stroke-width:0.25;stroke-linecap:round;stroke-linejoin:round;stroke-miterlimit:10;}
	.st11{fill-rule:evenodd;clip-rule:evenodd;fill:none;}
	.st12{fill:none;}
	.st13{font-family:'GTEestiProText-Regular';}
	.st14{font-size:12px;}
</style>
<g>
	<g>
	</g>
</g>
<polyline class="st9" points="-111.6,533.6 123.5,533.6 123.5,556.7 131.2,556.7 131.2,543.2 755.5,543.2 755.5,570.2 771,570.2 
	771,516.2 1148.6,516.2 1148.6,570.2 1166,570.2 1166,527.8 1352.5,527.8 "/>
<polyline class="st2" points="957.9,132.8 957.9,142.4 771,306.2 771,296.6 957.9,132.8 "/>
<polygon class="st3" points="957.9,132.8 957.9,142.4 771,306.2 771,296.6 "/>
<polyline class="st2" points="1177.5,325.5 1177.5,337 957.9,142.4 957.9,132.8 1177.5,325.5 "/>
<polygon class="st3" points="1177.5,325.5 1177.5,337 957.9,142.4 957.9,132.8 "/>
<polyline class="st2" points="127.4,132.8 135.1,132.8 135.1,306.2 127.4,306.2 127.4,132.8 "/>
<rect x="127.4" y="132.8" class="st3" width="7.7" height="173.4"/>
<rect x="954" y="157.8" class="st2" width="7.7" height="165.7"/>
<rect x="954" y="157.8" class="st3" width="7.7" height="165.7"/>
<line class="st10" x1="123.5" y1="533.6" x2="-111.6" y2="533.6"/>
<line class="st3" x1="771" y1="412.2" x2="778.7" y2="412.2"/>
<line class="st3" x1="786.4" y1="412.2" x2="794.1" y2="412.2"/>
<line class="st3" x1="801.8" y1="412.2" x2="809.5" y2="412.2"/>
<line class="st3" x1="817.2" y1="412.2" x2="824.9" y2="412.2"/>
<line class="st3" x1="832.6" y1="412.2" x2="840.3" y2="412.2"/>
<line class="st3" x1="848" y1="412.2" x2="855.7" y2="412.2"/>
<line class="st3" x1="863.4" y1="412.2" x2="871.2" y2="412.2"/>
<line class="st3" x1="878.9" y1="412.2" x2="886.6" y2="412.2"/>
<line class="st3" x1="894.3" y1="412.2" x2="902" y2="412.2"/>
<line class="st3" x1="909.7" y1="412.2" x2="917.4" y2="412.2"/>
<line class="st3" x1="925.1" y1="412.2" x2="932.8" y2="412.2"/>
<line class="st3" x1="940.5" y1="412.2" x2="948.2" y2="412.2"/>
<line class="st3" x1="955.9" y1="412.2" x2="963.6" y2="412.2"/>
<line class="st3" x1="971.3" y1="412.2" x2="979.1" y2="412.2"/>
<line class="st3" x1="986.8" y1="412.2" x2="994.5" y2="412.2"/>
<line class="st3" x1="1002.2" y1="412.2" x2="1009.9" y2="412.2"/>
<line class="st3" x1="1017.6" y1="412.2" x2="1025.3" y2="412.2"/>
<line class="st3" x1="1033" y1="412.2" x2="1040.7" y2="412.2"/>
<line class="st3" x1="1048.4" y1="412.2" x2="1056.1" y2="412.2"/>
<line class="st3" x1="1063.8" y1="412.2" x2="1071.5" y2="412.2"/>
<line class="st3" x1="1079.3" y1="412.2" x2="1087" y2="412.2"/>
<line class="st3" x1="1094.7" y1="412.2" x2="1102.4" y2="412.2"/>
<line class="st3" x1="1110.1" y1="412.2" x2="1117.8" y2="412.2"/>
<line class="st3" x1="1125.5" y1="412.2" x2="1133.2" y2="412.2"/>
<line class="st3" x1="1140.9" y1="412.2" x2="1148.6" y2="412.2"/>
<line class="st3" x1="1148.6" y1="412.2" x2="1148.6" y2="416"/>
<line class="st3" x1="1148.6" y1="423.8" x2="1148.6" y2="427.6"/>
<line class="st3" x1="1148.6" y1="427.6" x2="1140.9" y2="427.6"/>
<line class="st3" x1="1133.2" y1="427.6" x2="1125.5" y2="427.6"/>
<line class="st3" x1="1117.8" y1="427.6" x2="1110.1" y2="427.6"/>
<line class="st3" x1="1102.4" y1="427.6" x2="1094.7" y2="427.6"/>
<line class="st3" x1="1087" y1="427.6" x2="1079.3" y2="427.6"/>
<line class="st3" x1="1071.5" y1="427.6" x2="1063.8" y2="427.6"/>
<line class="st3" x1="1056.1" y1="427.6" x2="1048.4" y2="427.6"/>
<line class="st3" x1="1040.7" y1="427.6" x2="1033" y2="427.6"/>
<line class="st3" x1="1025.3" y1="427.6" x2="1017.6" y2="427.6"/>
<line class="st3" x1="1009.9" y1="427.6" x2="1002.2" y2="427.6"/>
<line class="st3" x1="994.5" y1="427.6" x2="986.8" y2="427.6"/>
<line class="st3" x1="979.1" y1="427.6" x2="971.3" y2="427.6"/>
<line class="st3" x1="963.6" y1="427.6" x2="955.9" y2="427.6"/>
<line class="st3" x1="948.2" y1="427.6" x2="940.5" y2="427.6"/>
<line class="st3" x1="932.8" y1="427.6" x2="925.1" y2="427.6"/>
<line class="st3" x1="917.4" y1="427.6" x2="909.7" y2="427.6"/>
<line class="st3" x1="902" y1="427.6" x2="894.3" y2="427.6"/>
<line class="st3" x1="886.6" y1="427.6" x2="878.9" y2="427.6"/>
<line class="st3" x1="871.2" y1="427.6" x2="863.4" y2="427.6"/>
<line class="st3" x1="855.7" y1="427.6" x2="848" y2="427.6"/>
<line class="st3" x1="840.3" y1="427.6" x2="832.6" y2="427.6"/>
<line class="st3" x1="824.9" y1="427.6" x2="817.2" y2="427.6"/>
<line class="st3" x1="809.5" y1="427.6" x2="801.8" y2="427.6"/>
<line class="st3" x1="794.1" y1="427.6" x2="786.4" y2="427.6"/>
<line class="st3" x1="778.7" y1="427.6" x2="771" y2="427.6"/>
<line class="st3" x1="771" y1="427.6" x2="771" y2="423.8"/>
<line class="st3" x1="771" y1="416" x2="771" y2="412.2"/>
<polyline class="st3" points="1166,506.6 1206.4,506.6 1206.4,527.8 "/>
<line class="st5" x1="1166" y1="524" x2="1171.7" y2="524"/>
<line class="st5" x1="1177.5" y1="524" x2="1183.3" y2="524"/>
<line class="st5" x1="1189.1" y1="524" x2="1194.9" y2="524"/>
<line class="st5" x1="1200.7" y1="524" x2="1206.4" y2="524"/>
<line class="st5" x1="1166" y1="518.2" x2="1171.7" y2="518.2"/>
<line class="st5" x1="1177.5" y1="518.2" x2="1183.3" y2="518.2"/>
<line class="st5" x1="1189.1" y1="518.2" x2="1194.9" y2="518.2"/>
<line class="st5" x1="1200.7" y1="518.2" x2="1206.4" y2="518.2"/>
<line class="st5" x1="1166" y1="512.4" x2="1171.7" y2="512.4"/>
<line class="st5" x1="1177.5" y1="512.4" x2="1183.3" y2="512.4"/>
<line class="st5" x1="1189.1" y1="512.4" x2="1194.9" y2="512.4"/>
<line class="st5" x1="1200.7" y1="512.4" x2="1206.4" y2="512.4"/>
<line class="st3" x1="1040.7" y1="506.6" x2="1040.7" y2="498.9"/>
<line class="st3" x1="1040.7" y1="491.2" x2="1040.7" y2="483.5"/>
<line class="st3" x1="1040.7" y1="483.5" x2="1040.7" y2="479.6"/>
<line class="st3" x1="1000.3" y1="493.1" x2="1000.3" y2="487.3"/>
<line class="st3" x1="1000.3" y1="479.6" x2="1000.3" y2="471.9"/>
<line class="st3" x1="1000.3" y1="464.2" x2="1000.3" y2="456.5"/>
<line class="st3" x1="1000.3" y1="448.8" x2="1000.3" y2="441.1"/>
<line class="st3" x1="1000.3" y1="433.4" x2="1000.3" y2="425.7"/>
<line class="st3" x1="1000.3" y1="418" x2="1000.3" y2="412.2"/>
<line class="st3" x1="1112" y1="419.9" x2="1112" y2="412.2"/>
<line class="st3" x1="1112" y1="404.5" x2="1112" y2="396.8"/>
<line class="st3" x1="1112" y1="389.1" x2="1112" y2="381.4"/>
<line class="st3" x1="1112" y1="373.7" x2="1112" y2="365.9"/>
<line class="st3" x1="1112" y1="358.2" x2="1112" y2="350.5"/>
<line class="st3" x1="1112" y1="342.8" x2="1112" y2="335.1"/>
<line class="st3" x1="1112" y1="337" x2="1112" y2="333.2"/>
<line class="st10" x1="1352.5" y1="527.8" x2="1166" y2="527.8"/>
<polyline class="st3" points="202.5,516.2 194.8,516.2 194.8,522 183.2,522 183.2,529.7 "/>
<rect x="202.5" y="429.5" class="st2" width="1.9" height="100.2"/>
<rect x="202.5" y="429.5" class="st3" width="1.9" height="100.2"/>
<line class="st3" x1="183.2" y1="429.5" x2="183.2" y2="522"/>
<polyline class="st3" points="568.6,516.2 578.3,516.2 578.3,522 587.9,522 587.9,529.7 "/>
<rect x="566.7" y="429.5" class="st2" width="1.9" height="100.2"/>
<rect x="566.7" y="429.5" class="st3" width="1.9" height="100.2"/>
<polyline class="st4" points="179.4,132.8 185.2,132.8 185.2,146.3 179.4,146.3 179.4,132.8 "/>
<rect x="179.4" y="132.8" class="st6" width="5.8" height="13.5"/>
<polyline class="st4" points="216,132.8 221.8,132.8 221.8,146.3 216,146.3 216,132.8 "/>
<rect x="216" y="132.8" class="st6" width="5.8" height="13.5"/>
<polyline class="st4" points="254.5,132.8 260.3,132.8 260.3,146.3 254.5,146.3 254.5,132.8 "/>
<rect x="254.5" y="132.8" class="st6" width="5.8" height="13.5"/>
<polyline class="st4" points="293.1,132.8 298.9,132.8 298.9,146.3 293.1,146.3 293.1,132.8 "/>
<rect x="293.1" y="132.8" class="st6" width="5.8" height="13.5"/>
<polyline class="st4" points="329.7,132.8 335.5,132.8 335.5,146.3 329.7,146.3 329.7,132.8 "/>
<rect x="329.7" y="132.8" class="st6" width="5.8" height="13.5"/>
<polyline class="st4" points="368.2,132.8 374,132.8 374,146.3 368.2,146.3 368.2,132.8 "/>
<rect x="368.2" y="132.8" class="st6" width="5.8" height="13.5"/>
<polyline class="st4" points="406.8,132.8 412.5,132.8 412.5,146.3 406.8,146.3 406.8,132.8 "/>
<rect x="406.8" y="132.8" class="st6" width="5.8" height="13.5"/>
<polyline class="st4" points="443.4,132.8 449.2,132.8 449.2,146.3 443.4,146.3 443.4,132.8 "/>
<rect x="443.4" y="132.8" class="st6" width="5.8" height="13.5"/>
<polyline class="st4" points="481.9,132.8 487.7,132.8 487.7,146.3 481.9,146.3 481.9,132.8 "/>
<rect x="481.9" y="132.8" class="st6" width="5.8" height="13.5"/>
<polyline class="st4" points="520.5,132.8 526.2,132.8 526.2,146.3 520.5,146.3 520.5,132.8 "/>
<rect x="520.5" y="132.8" class="st6" width="5.8" height="13.5"/>
<polyline class="st4" points="557.1,132.8 564.8,132.8 564.8,146.3 557.1,146.3 557.1,132.8 "/>
<rect x="557.1" y="132.8" class="st6" width="7.7" height="13.5"/>
<polyline class="st4" points="595.6,132.8 601.4,132.8 601.4,146.3 595.6,146.3 595.6,132.8 "/>
<rect x="595.6" y="132.8" class="st6" width="5.8" height="13.5"/>
<polyline class="st4" points="634.1,132.8 639.9,132.8 639.9,146.3 634.1,146.3 634.1,132.8 "/>
<rect x="634.1" y="132.8" class="st6" width="5.8" height="13.5"/>
<polyline class="st4" points="670.8,132.8 678.5,132.8 678.5,146.3 670.8,146.3 670.8,132.8 "/>
<rect x="670.8" y="132.8" class="st6" width="7.7" height="13.5"/>
<polyline class="st4" points="709.3,132.8 715.1,132.8 715.1,146.3 709.3,146.3 709.3,132.8 "/>
<rect x="709.3" y="132.8" class="st6" width="5.8" height="13.5"/>
<polyline class="st4" points="747.8,132.8 753.6,132.8 753.6,146.3 747.8,146.3 747.8,132.8 "/>
<rect x="747.8" y="132.8" class="st6" width="5.8" height="13.5"/>
<rect x="784.4" y="132.8" class="st4" width="7.7" height="15.4"/>
<rect x="784.4" y="132.8" class="st6" width="7.7" height="15.4"/>
<rect x="823" y="132.8" class="st4" width="5.8" height="15.4"/>
<rect x="823" y="132.8" class="st6" width="5.8" height="15.4"/>
<rect x="861.5" y="132.8" class="st4" width="5.8" height="15.4"/>
<rect x="861.5" y="132.8" class="st6" width="5.8" height="15.4"/>
<rect x="900.1" y="132.8" class="st4" width="5.8" height="15.4"/>
<rect x="900.1" y="132.8" class="st6" width="5.8" height="15.4"/>
<rect x="930.9" y="132.8" class="st4" width="5.8" height="15.4"/>
<rect x="930.9" y="132.8" class="st6" width="5.8" height="15.4"/>
<polyline class="st4" points="140.9,132.8 146.6,132.8 146.6,146.3 140.9,146.3 140.9,132.8 "/>
<rect x="140.9" y="132.8" class="st6" width="5.8" height="13.5"/>
<rect x="127.4" y="146.3" class="st2" width="628.2" height="11.6"/>
<rect x="127.4" y="146.3" class="st3" width="628.2" height="11.6"/>
<rect x="771" y="148.2" class="st2" width="190.8" height="9.6"/>
<rect x="771" y="148.2" class="st3" width="190.8" height="9.6"/>
<rect x="954" y="144.4" class="st2" width="7.7" height="13.5"/>
<rect x="954" y="144.4" class="st3" width="7.7" height="13.5"/>
<rect x="179.4" y="269.6" class="st2" width="163.8" height="36.6"/>
<rect x="179.4" y="269.6" class="st3" width="163.8" height="36.6"/>
<rect x="389.4" y="157.8" class="st2" width="204.3" height="148.4"/>
<rect x="389.4" y="157.8" class="st3" width="204.3" height="148.4"/>
<rect x="397.1" y="223.4" class="st2" width="34.7" height="82.9"/>
<rect x="397.1" y="223.4" class="st3" width="34.7" height="82.9"/>
<polyline class="st4" points="771,419.9 807.6,419.9 807.6,425.7 817.2,425.7 817.2,433.4 828.8,433.4 828.8,439.2 838.4,439.2 
	838.4,446.9 848,446.9 848,452.7 859.6,452.7 859.6,460.4 869.2,460.4 869.2,466.1 878.9,466.1 878.9,473.9 890.4,473.9 
	890.4,479.6 900.1,479.6 900.1,487.3 909.7,487.3 909.7,493.1 921.2,493.1 921.2,500.8 955.9,500.8 955.9,506.6 909.7,506.6 
	909.7,500.8 799.9,427.6 771,427.6 771,419.9 "/>
<polygon class="st6" points="771,419.9 807.6,419.9 807.6,425.7 817.2,425.7 817.2,433.4 828.8,433.4 828.8,439.2 838.4,439.2 
	838.4,446.9 848,446.9 848,452.7 859.6,452.7 859.6,460.4 869.2,460.4 869.2,466.1 878.9,466.1 878.9,473.9 890.4,473.9 
	890.4,479.6 900.1,479.6 900.1,487.3 909.7,487.3 909.7,493.1 921.2,493.1 921.2,500.8 955.9,500.8 955.9,506.6 909.7,506.6 
	909.7,500.8 799.9,427.6 771,427.6 "/>
<polyline class="st4" points="1148.6,419.9 1112,419.9 1112,425.7 1102.4,425.7 1102.4,433.4 1092.7,433.4 1092.7,439.2 
	1081.2,439.2 1081.2,446.9 1071.5,446.9 1071.5,452.7 1061.9,452.7 1061.9,460.4 1052.3,460.4 1052.3,466.1 1040.7,466.1 
	1040.7,473.9 1031.1,473.9 1031.1,479.6 1021.4,479.6 1021.4,487.3 1009.9,487.3 1009.9,493.1 1000.3,493.1 1000.3,500.8 
	963.6,500.8 963.6,506.6 1009.9,506.6 1009.9,500.8 1119.7,427.6 1148.6,427.6 1148.6,419.9 "/>
<polygon class="st6" points="1148.6,419.9 1112,419.9 1112,425.7 1102.4,425.7 1102.4,433.4 1092.7,433.4 1092.7,439.2 
	1081.2,439.2 1081.2,446.9 1071.5,446.9 1071.5,452.7 1061.9,452.7 1061.9,460.4 1052.3,460.4 1052.3,466.1 1040.7,466.1 
	1040.7,473.9 1031.1,473.9 1031.1,479.6 1021.4,479.6 1021.4,487.3 1009.9,487.3 1009.9,493.1 1000.3,493.1 1000.3,500.8 
	963.6,500.8 963.6,506.6 1009.9,506.6 1009.9,500.8 1119.7,427.6 1148.6,427.6 "/>
<polyline class="st4" points="1166,435.3 1148.6,435.3 1148.6,381.4 1166,381.4 1166,435.3 "/>
<rect x="1148.6" y="381.4" class="st6" width="17.3" height="54"/>
<path class="st4" d="M495.4,416.3h-3.8V318h-54.2v98.3h-2.7V318h-43.2v103.1h244.7V318H504.8v98.3H501V318h-5.7V416.3 M956.5,507.3
	V333.2H771.7v174.1H956.5 M380.4,430.2H139.1v8.2h-16v-17.3h257.4V318h-43.2v98.3h-2.7V318h-54.2v98.3h-3.8V318h-5.7v98.3H267V318
	H139.1v17.3h-16v-28.4h525.7v229.3h106V133h16.9v190.7h377.9v-12.1l15.9,13.9V337h-16.5v-3.8H964.1v174.1h201.3v62h-16.5v-52.5
	H771.7v52.5h-16.9v-25.5H130.6v12.1h-7.6v-19.7h513V430.2H391.4v99.9h-11V430.2"/>
<path class="st6" d="M495.4,416.3h-3.8V318h-54.2v98.3h-2.7V318h-43.2v103.1h244.7V318H504.8v98.3H501V318h-5.7V416.3 M956.5,507.3
	V333.2H771.7v174.1H956.5 M380.4,430.2H139.1v8.2h-16v-17.3h257.4V318h-43.2v98.3h-2.7V318h-54.2v98.3h-3.8V318h-5.7v98.3H267V318
	H139.1v17.3h-16v-28.4h525.7v229.3h106V133h16.9v190.7h377.9v-12.1l15.9,13.9V337h-16.5v-3.8H964.1v174.1h201.3v62h-16.5v-52.5
	H771.7v52.5h-16.9v-25.5H130.6v12.1h-7.6v-19.7h513V430.2H391.4v99.9h-11V430.2"/>
<polyline class="st4" points="505,529.7 501.2,529.7 501.2,429.5 505,429.5 505,529.7 "/>
<rect x="501.2" y="429.5" class="st6" width="3.9" height="100.2"/>
<polyline class="st4" points="495.4,529.7 491.5,529.7 491.5,429.5 495.4,429.5 495.4,529.7 "/>
<rect x="491.5" y="429.5" class="st6" width="3.9" height="100.2"/>
<polyline class="st4" points="279.6,529.7 275.7,529.7 275.7,429.5 279.6,429.5 279.6,529.7 "/>
<rect x="275.7" y="429.5" class="st6" width="3.9" height="100.2"/>
<polyline class="st4" points="270,529.7 266.1,529.7 266.1,429.5 270,429.5 270,529.7 "/>
<rect x="266.1" y="429.5" class="st6" width="3.9" height="100.2"/>
<rect x="123.5" y="439.2" class="st2" width="15.4" height="96.3"/>
<rect x="123.5" y="439.2" class="st3" width="15.4" height="96.3"/>
<rect x="123.5" y="335.1" class="st2" width="15.4" height="86.7"/>
<rect x="123.5" y="335.1" class="st3" width="15.4" height="86.7"/>
<line class="st3" x1="138.9" y1="416" x2="379.8" y2="416"/>
<line class="st3" x1="138.9" y1="529.7" x2="636.1" y2="529.7"/>
<line class="st3" x1="391.3" y1="416" x2="636.1" y2="416"/>
<polyline class="st3" points="771,412.2 807.6,412.2 807.6,419.9 "/>
<line class="st3" x1="807.6" y1="412.2" x2="807.6" y2="333.2"/>
<polyline class="st3" points="921.2,500.8 921.2,427.6 955.9,427.6 "/>
<line class="st3" x1="123.5" y1="306.2" x2="123.5" y2="132.8"/>
<rect x="117.7" y="128.9" class="st2" width="840.1" height="3.9"/>
<rect x="117.7" y="128.9" class="st3" width="840.1" height="3.9"/>
<polyline class="st2" points="957.9,128.9 1177.5,321.6 1177.5,325.5 957.9,132.8 957.9,128.9 "/>
<polygon class="st3" points="957.9,128.9 1177.5,321.6 1177.5,325.5 957.9,132.8 "/>
<line class="st3" x1="784.4" y1="285" x2="784.4" y2="157.8"/>
<line class="st3" x1="792.1" y1="279.2" x2="792.1" y2="157.8"/>
<line class="st3" x1="823" y1="250.3" x2="823" y2="157.8"/>
<line class="st3" x1="828.8" y1="246.5" x2="828.8" y2="157.8"/>
<line class="st3" x1="861.5" y1="217.6" x2="861.5" y2="157.8"/>
<line class="st3" x1="867.3" y1="211.8" x2="867.3" y2="157.8"/>
<line class="st3" x1="900.1" y1="184.8" x2="900.1" y2="157.8"/>
<line class="st3" x1="905.8" y1="179" x2="905.8" y2="157.8"/>
<rect x="639.9" y="157.8" class="st2" width="9.6" height="148.4"/>
<rect x="639.9" y="157.8" class="st3" width="9.6" height="148.4"/>
<rect x="135.1" y="234.9" class="st2" width="620.5" height="13.5"/>
<rect x="135.1" y="234.9" class="st3" width="620.5" height="13.5"/>
<rect x="649.6" y="298.5" class="st2" width="106" height="7.7"/>
<rect x="649.6" y="298.5" class="st3" width="106" height="7.7"/>
<rect x="593.7" y="298.5" class="st2" width="46.2" height="7.7"/>
<rect x="593.7" y="298.5" class="st3" width="46.2" height="7.7"/>
<rect x="343.2" y="298.5" class="st2" width="46.2" height="7.7"/>
<rect x="343.2" y="298.5" class="st3" width="46.2" height="7.7"/>
<rect x="135.1" y="298.5" class="st2" width="44.3" height="7.7"/>
<rect x="135.1" y="298.5" class="st3" width="44.3" height="7.7"/>
<line class="st3" x1="140.9" y1="234.9" x2="140.9" y2="157.8"/>
<line class="st3" x1="146.6" y1="234.9" x2="146.6" y2="157.8"/>
<line class="st3" x1="179.4" y1="234.9" x2="179.4" y2="157.8"/>
<line class="st3" x1="185.2" y1="234.9" x2="185.2" y2="157.8"/>
<line class="st3" x1="216" y1="234.9" x2="216" y2="157.8"/>
<line class="st3" x1="221.8" y1="234.9" x2="221.8" y2="157.8"/>
<line class="st3" x1="254.5" y1="234.9" x2="254.5" y2="157.8"/>
<line class="st3" x1="260.3" y1="234.9" x2="260.3" y2="157.8"/>
<line class="st3" x1="293.1" y1="234.9" x2="293.1" y2="157.8"/>
<line class="st3" x1="298.9" y1="234.9" x2="298.9" y2="157.8"/>
<line class="st3" x1="329.7" y1="234.9" x2="329.7" y2="157.8"/>
<line class="st3" x1="335.5" y1="234.9" x2="335.5" y2="157.8"/>
<line class="st3" x1="368.2" y1="234.9" x2="368.2" y2="157.8"/>
<line class="st3" x1="374" y1="234.9" x2="374" y2="157.8"/>
<line class="st3" x1="595.6" y1="234.9" x2="595.6" y2="157.8"/>
<line class="st3" x1="601.4" y1="234.9" x2="601.4" y2="157.8"/>
<line class="st3" x1="634.1" y1="234.9" x2="634.1" y2="157.8"/>
<line class="st3" x1="670.8" y1="234.9" x2="670.8" y2="157.8"/>
<line class="st3" x1="678.5" y1="234.9" x2="678.5" y2="157.8"/>
<line class="st3" x1="709.3" y1="234.9" x2="709.3" y2="157.8"/>
<line class="st3" x1="715.1" y1="234.9" x2="715.1" y2="157.8"/>
<line class="st3" x1="747.8" y1="234.9" x2="747.8" y2="157.8"/>
<line class="st3" x1="753.6" y1="234.9" x2="753.6" y2="157.8"/>
<line class="st3" x1="146.6" y1="298.5" x2="146.6" y2="248.4"/>
<line class="st3" x1="179.4" y1="269.6" x2="179.4" y2="248.4"/>
<line class="st3" x1="185.2" y1="269.6" x2="185.2" y2="248.4"/>
<line class="st3" x1="140.9" y1="298.5" x2="140.9" y2="248.4"/>
<line class="st3" x1="216" y1="269.6" x2="216" y2="248.4"/>
<line class="st3" x1="221.8" y1="269.6" x2="221.8" y2="248.4"/>
<line class="st3" x1="254.5" y1="269.6" x2="254.5" y2="248.4"/>
<line class="st3" x1="260.3" y1="269.6" x2="260.3" y2="248.4"/>
<line class="st3" x1="293.1" y1="269.6" x2="293.1" y2="248.4"/>
<line class="st3" x1="298.9" y1="269.6" x2="298.9" y2="248.4"/>
<line class="st3" x1="329.7" y1="269.6" x2="329.7" y2="248.4"/>
<line class="st3" x1="335.5" y1="269.6" x2="335.5" y2="248.4"/>
<line class="st3" x1="368.2" y1="248.4" x2="368.2" y2="298.5"/>
<line class="st3" x1="374" y1="248.4" x2="374" y2="298.5"/>
<line class="st3" x1="595.6" y1="248.4" x2="595.6" y2="298.5"/>
<line class="st3" x1="601.4" y1="248.4" x2="601.4" y2="298.5"/>
<line class="st3" x1="634.1" y1="248.4" x2="634.1" y2="298.5"/>
<line class="st3" x1="670.8" y1="248.4" x2="670.8" y2="298.5"/>
<line class="st3" x1="678.5" y1="248.4" x2="678.5" y2="298.5"/>
<line class="st3" x1="709.3" y1="248.4" x2="709.3" y2="298.5"/>
<line class="st3" x1="715.1" y1="248.4" x2="715.1" y2="298.5"/>
<line class="st3" x1="747.8" y1="248.4" x2="747.8" y2="298.5"/>
<line class="st3" x1="753.6" y1="248.4" x2="753.6" y2="298.5"/>
<rect x="1148.6" y="435.3" class="st2" width="17.3" height="71.3"/>
<rect x="1148.6" y="435.3" class="st3" width="17.3" height="71.3"/>
<rect x="1148.6" y="337" class="st2" width="17.3" height="44.3"/>
<rect x="1148.6" y="337" class="st3" width="17.3" height="44.3"/>
<line class="st3" x1="137" y1="335.1" x2="137" y2="421.8"/>
<line class="st3" x1="137" y1="439.2" x2="137" y2="535.5"/>
<line class="st3" x1="1150.6" y1="381.4" x2="1150.6" y2="337"/>
<line class="st3" x1="1150.6" y1="506.6" x2="1150.6" y2="435.3"/>
<rect x="32.9" y="-50.3" class="st11" width="1215.9" height="847.8"/>
<rect x="94.5" y="625.2" class="st12" width="160" height="76"/>
<text transform="matrix(1 0 0 1 94.5407 633.8251)" class="st13 st14">Schnitt</text>
</svg>
