<?xml version="1.0" encoding="utf-8"?>
<!-- Generator: Adobe Illustrator 19.1.0, SVG Export Plug-In . SVG Version: 6.00 Build 0)  -->
<svg version="1.1" id="Ebene_1" xmlns="http://www.w3.org/2000/svg" xmlns:xlink="http://www.w3.org/1999/xlink" x="0px" y="0px"
	 viewBox="-201 441 1280 720" style="enable-background:new -201 441 1280 720;" xml:space="preserve">
<style type="text/css">
	.st0{fill:none;stroke:#000000;stroke-width:0.432;stroke-linecap:round;stroke-linejoin:round;stroke-miterlimit:10;}
	.st1{fill:#FFFFFF;}
	.st2{fill:none;stroke:#000000;stroke-width:0.288;stroke-linecap:round;stroke-linejoin:round;stroke-miterlimit:10;}
	.st3{opacity:0.1;fill:#80712A;enable-background:new    ;}
	.st4{opacity:0.22;fill:#80712A;enable-background:new    ;}
	.st5{fill:none;stroke:#000000;stroke-width:0.144;stroke-linecap:round;stroke-linejoin:round;stroke-miterlimit:10;}
	.st6{enable-background:new    ;}
	.st7{fill:#212121;}
</style>
<g>
	<g>
		<g>
			<rect x="243.6" y="995.1" class="st0" width="65" height="11.3"/>
			<rect x="408.5" y="995.1" class="st0" width="50.2" height="11.3"/>
			<path d="M494.3,819.4v51h45.4v-51H494.3 M545.3,876.1H410.9v-5.7h77.7v-51h-77.7v-5.7h77.7l0,0h5.7l0,0h171.5v5.7h-42.5v51h65.2
				v-56.7H770v5.7h-78.7v51h73v-28.3h5.7v192.7h39.6v11.3h-45.3v-170H568v-5.7h49.6v-51h-72.3V876.1"/>
			<path class="st0" d="M494.3,819.4v51h45.4v-51H494.3 M545.3,876.1H410.9v-5.7h77.7v-51h-77.7v-5.7h77.7l0,0h5.7l0,0h171.5v5.7
				h-42.5v51h65.2v-56.7H770v5.7h-78.7v51h73v-28.3h5.7v192.7h39.6v11.3h-45.3v-170H568v-5.7h49.6v-51h-72.3V876.1"/>
			<rect x="353.3" y="757.1" class="st1" width="144.2" height="11.3"/>
			<rect x="353.3" y="757.1" class="st0" width="144.2" height="11.3"/>
			<line class="st2" x1="1.7" y1="1159.5" x2="-1" y2="1159.5"/>
			<line class="st2" x1="-2.4" y1="1159.5" x2="-5.3" y2="1159.5"/>
			<line class="st2" x1="-6.7" y1="1159.5" x2="-9.6" y2="1159.5"/>
			<line class="st2" x1="-11" y1="1159.5" x2="-13.9" y2="1159.5"/>
			<line class="st2" x1="-15.4" y1="1159.5" x2="-18.2" y2="1159.5"/>
			<line class="st2" x1="-19.7" y1="1159.5" x2="-22.6" y2="1159.5"/>
			<line class="st2" x1="-24" y1="1159.5" x2="-26.9" y2="1159.5"/>
			<line class="st2" x1="-28.3" y1="1159.5" x2="-31.2" y2="1159.5"/>
			<line class="st2" x1="-32.6" y1="1159.5" x2="-35.5" y2="1159.5"/>
			<line class="st2" x1="-37" y1="1159.5" x2="-39.8" y2="1159.5"/>
			<line class="st2" x1="-41.3" y1="1159.5" x2="-44.2" y2="1159.5"/>
			<line class="st2" x1="-45.6" y1="1159.5" x2="-48.5" y2="1159.5"/>
			<line class="st2" x1="-49.9" y1="1159.5" x2="-52.8" y2="1159.5"/>
			<line class="st2" x1="-54.2" y1="1159.5" x2="-57.1" y2="1159.5"/>
			<line class="st2" x1="-58.6" y1="1159.5" x2="-61.4" y2="1159.5"/>
			<line class="st2" x1="-62.9" y1="1159.5" x2="-65.8" y2="1159.5"/>
			<line class="st2" x1="-67.2" y1="1159.5" x2="-70.1" y2="1159.5"/>
			<line class="st2" x1="-71.5" y1="1159.5" x2="-74.4" y2="1159.5"/>
			<line class="st2" x1="-75.8" y1="1159.5" x2="-78.7" y2="1159.5"/>
			<line class="st2" x1="-80.2" y1="1159.5" x2="-83" y2="1159.5"/>
			<line class="st2" x1="-84.5" y1="1159.5" x2="-87.4" y2="1159.5"/>
			<line class="st2" x1="-88.8" y1="1159.5" x2="-91.7" y2="1159.5"/>
			<line class="st2" x1="-93.1" y1="1159.5" x2="-96" y2="1159.5"/>
			<line class="st2" x1="-97.4" y1="1159.5" x2="-100.3" y2="1159.5"/>
			<line class="st2" x1="-101.8" y1="1159.5" x2="-104.6" y2="1159.5"/>
			<line class="st2" x1="-106.1" y1="1159.5" x2="-109" y2="1159.5"/>
			<line class="st2" x1="-110.4" y1="1159.5" x2="-113.3" y2="1159.5"/>
			<line class="st2" x1="-114.7" y1="1159.5" x2="-117.4" y2="1159.5"/>
			<path class="st3" d="M323.1,972.5v-62.4H360v62.4H323.1 M409.1,819.4h-3.8v25.5c-3.4,0-6.7-0.7-9.8-1.9c-3.1-1.3-5.9-3.2-8.3-5.5
				c-2.4-2.4-4.2-5.2-5.5-8.3c-1.3-3.1-1.9-6.4-1.9-9.8H360v56.7H197.4v119.1h277.5v-79.4h-64v-5.7h146.3v5.7h-59.7v119.1h82.2
				V910.1H645v5.7h-59.6v119.1h82.2V910.1h5.7v124.7h91.1V876.1H617.6v-51h-72.3v51h-53.4l0,0h-76.3v-5.7h73.1V825h-74.9v22.7H411
				v-28.4L409.1,819.4"/>
			<path class="st4" d="M570,768.4h25.5c0,3.3-0.7,6.7-1.9,9.8c-1.3,3.1-3.2,5.9-5.5,8.3c-2.4,2.4-5.2,4.2-8.3,5.5
				c-3.1,1.3-6.4,2-9.7,2v20.5l69.3-0.6l0,0h26.4v5.7h-42.5V865h65.2v-51.1H770v5.7h-78.7l0.1,45.4h73l-0.1-22.7h5.7V1035h175.7
				v-99.2H809.6v-64.9h5.7V930h130.4l-0.2-81.9H809.7v-5.7h136.1v-89H815.4v60.7h-5.7l0.2-66.3h135.8v-84.2H829.5v53.9h-36.8v-53.9
				h-45.3v116.2h-19.8l0,0h-87.7l0,0h-2.8v-17h-67L570,768.4"/>
			<path class="st4" d="M256.9,762.7h-65.2V726h65.2L256.9,762.7 M296.6,808.1h-25.5c0-3.4,0.7-6.7,1.9-9.8c1.3-3.1,3.2-5.9,5.5-8.3
				c2.4-2.4,5.2-4.2,8.3-5.5c3.1-1.3,6.4-1.9,9.8-1.9V618.2H149.2v54.6h-5.7v-54.6H13.1v77.3h136.1v70.1h-5.7v-64.5H13.1v87.1h136.1
				v59.2h-5.7v-53.6H13.1v76.5h136.1v5.7H13.1v119.1h178.6v-153h5.9l-0.2,22.7h73.3v-45.4h-78.9v-5.7h81.8v51h57.7v-45.4h-34.6
				v-11.2"/>
			<rect x="871.9" y="753.5" class="st1" width="51.1" height="56.6"/>
			<rect x="871.9" y="753.5" class="st5" width="51.1" height="56.6"/>
			<polyline points="413.8,819.5 413.8,847.8 410.9,847.8 410.9,819.5 413.8,819.5 			"/>
			<rect x="410.9" y="819.5" class="st0" width="2.9" height="28.3"/>
			<polyline points="458.6,995.1 458.6,1006.4 486.2,1006.4 486.2,1034.7 486.2,1046.3 523,1046.3 523,1034.7 497.5,1034.7 
				497.5,915.7 557.3,915.7 557.3,910.2 410.9,910.2 410.9,915.7 491.8,915.7 491.8,995.1 458.6,995.1 			"/>
			<polygon class="st0" points="458.6,995.1 458.6,1006.4 486.2,1006.4 486.2,1034.7 486.2,1046.3 523,1046.3 523,1034.7 
				497.5,1034.7 497.5,915.7 557.3,915.7 557.3,910.2 410.9,910.2 410.9,915.7 491.8,915.7 491.8,995.1 			"/>
			<polyline points="645.1,910.2 579.8,910.2 579.8,1046.3 611,1046.3 611,1034.7 585.4,1034.7 585.4,915.7 645.1,915.7 
				645.1,910.2 			"/>
			<polygon class="st0" points="645.1,910.2 579.8,910.2 579.8,1046.3 611,1046.3 611,1034.7 585.4,1034.7 585.4,915.7 645.1,915.7 
							"/>
			<polyline points="699.1,1034.7 673.2,1034.7 673.2,910.2 667.7,910.2 667.7,1046.3 699.1,1046.3 699.1,1034.7 			"/>
			<polygon class="st0" points="699.1,1034.7 673.2,1034.7 673.2,910.2 667.7,910.2 667.7,1046.3 699.1,1046.3 			"/>
			<polyline points="945.6,1046.3 957.1,1046.3 957.1,1009.3 945.6,1009.3 945.6,1034.7 874.8,1034.7 874.8,1046.3 945.6,1046.3 			
				"/>
			<polygon class="st0" points="945.6,1046.3 957.1,1046.3 957.1,1009.3 945.6,1009.3 945.6,1034.7 874.8,1034.7 874.8,1046.3 			
				"/>
			<rect x="491.5" y="870.6" width="53.8" height="5.5"/>
			<rect x="491.5" y="870.6" class="st2" width="53.8" height="5.5"/>
			<rect x="500.4" y="819.5" class="st1" width="31.2" height="39.6"/>
			<rect x="500.4" y="819.5" class="st2" width="31.2" height="39.6"/>
			<rect x="503.3" y="813.7" class="st2" width="25.4" height="5.8"/>
			<polyline class="st1" points="924.5,692.5 924.5,715.1 873.4,715.1 873.4,692.5 924.5,692.5 			"/>
			<rect x="873.4" y="692.5" class="st5" width="51.1" height="22.6"/>
			<rect x="876.2" y="715.1" class="st1" width="11.3" height="5.8"/>
			<rect x="876.2" y="715.1" class="st5" width="11.3" height="5.8"/>
			<rect x="876.2" y="686.7" class="st1" width="11.3" height="5.8"/>
			<rect x="876.2" y="686.7" class="st5" width="11.3" height="5.8"/>
			<rect x="893.3" y="715.1" class="st1" width="11.3" height="5.8"/>
			<rect x="893.3" y="715.1" class="st5" width="11.3" height="5.8"/>
			<rect x="893.3" y="686.7" class="st1" width="11.3" height="5.8"/>
			<rect x="893.3" y="686.7" class="st5" width="11.3" height="5.8"/>
			<rect x="910.3" y="715.1" class="st1" width="11.3" height="5.8"/>
			<rect x="910.3" y="715.1" class="st5" width="11.3" height="5.8"/>
			<rect x="910.3" y="686.7" class="st1" width="11.3" height="5.8"/>
			<rect x="910.3" y="686.7" class="st5" width="11.3" height="5.8"/>
			<polyline class="st1" points="197.5,671.6 197.5,648.8 248.6,648.8 248.6,671.6 197.5,671.6 			"/>
			<rect x="197.5" y="648.8" class="st5" width="51.1" height="22.8"/>
			<rect x="234.5" y="643.1" class="st1" width="11.3" height="5.8"/>
			<rect x="234.5" y="643.1" class="st5" width="11.3" height="5.8"/>
			<rect x="234.5" y="671.6" class="st1" width="11.3" height="5.5"/>
			<rect x="234.5" y="671.6" class="st5" width="11.3" height="5.5"/>
			<rect x="217.4" y="643.1" class="st1" width="11.3" height="5.8"/>
			<rect x="217.4" y="643.1" class="st5" width="11.3" height="5.8"/>
			<rect x="217.4" y="671.6" class="st1" width="11.3" height="5.5"/>
			<rect x="217.4" y="671.6" class="st5" width="11.3" height="5.5"/>
			<rect x="200.4" y="643.1" class="st1" width="11.3" height="5.8"/>
			<rect x="200.4" y="643.1" class="st5" width="11.3" height="5.8"/>
			<rect x="200.4" y="671.6" class="st1" width="11.3" height="5.5"/>
			<rect x="200.4" y="671.6" class="st5" width="11.3" height="5.5"/>
			<rect x="41.5" y="701.1" class="st1" width="50.9" height="56.6"/>
			<rect x="41.5" y="701.1" class="st5" width="50.9" height="56.6"/>
			<rect x="126.5" y="701.1" class="st1" width="17" height="50.9"/>
			<rect x="126.5" y="701.1" class="st5" width="17" height="50.9"/>
			<rect x="497.5" y="955.5" class="st1" width="56.6" height="50.9"/>
			<rect x="497.5" y="955.5" class="st5" width="56.6" height="50.9"/>
			<rect x="497.5" y="915.7" class="st1" width="51.1" height="17"/>
			<rect x="497.5" y="915.7" class="st5" width="51.1" height="17"/>
			<rect x="815.3" y="753.5" class="st1" width="17" height="50.9"/>
			<rect x="815.3" y="753.5" class="st5" width="17" height="50.9"/>
			<polyline points="809.8,842.5 809.8,848 945.6,848 945.6,879.7 957.1,879.7 957.1,842.5 809.8,842.5 			"/>
			<polygon class="st2" points="809.8,842.5 809.8,848 945.6,848 945.6,879.7 957.1,879.7 957.1,842.5 			"/>
			<polyline points="809.8,753.5 809.5,753.5 809.5,819.5 815.3,819.5 815.3,753.5 945.6,753.5 945.6,792.3 957.1,792.3 
				957.1,663.5 957.1,652.2 945.6,652.2 945.6,697.5 957.1,697.5 957.1,747.7 809.8,747.7 809.8,753.5 			"/>
			<polygon class="st2" points="809.8,753.5 809.5,753.5 809.5,819.5 815.3,819.5 815.3,753.5 945.6,753.5 945.6,792.3 957.1,792.3 
				957.1,663.5 957.1,652.2 945.6,652.2 945.6,697.5 957.1,697.5 957.1,747.7 809.8,747.7 			"/>
			<polyline points="792.7,714.6 792.7,717.5 812.4,717.5 812.4,663.5 880.6,663.5 880.6,652.2 792.7,652.2 792.7,663.5 
				809.5,663.5 809.5,714.6 792.7,714.6 			"/>
			<polygon class="st2" points="792.7,714.6 792.7,717.5 812.4,717.5 812.4,663.5 880.6,663.5 880.6,652.2 792.7,652.2 792.7,663.5 
				809.5,663.5 809.5,714.6 			"/>
			<polyline points="730.3,777 730.3,663.5 747.4,663.5 747.4,652.2 719,652.2 719,751.3 564.2,751.3 564.2,762.8 637,762.8 
				637,779.9 639.8,779.9 639.8,762.8 727.4,762.8 727.4,779.6 747.4,779.6 747.4,777 730.3,777 			"/>
			<polygon class="st2" points="730.3,777 730.3,663.5 747.4,663.5 747.4,652.2 719,652.2 719,751.3 564.2,751.3 564.2,762.8 
				637,762.8 637,779.9 639.8,779.9 639.8,762.8 727.4,762.8 727.4,779.6 747.4,779.6 747.4,777 			"/>
			<polyline points="815.3,929.9 815.3,870.8 809.5,870.8 809.5,935.6 957.1,935.6 957.1,929.9 815.3,929.9 			"/>
			<polygon class="st2" points="815.3,929.9 815.3,870.8 809.5,870.8 809.5,935.6 957.1,935.6 957.1,929.9 			"/>
			<polyline points="256.8,745.8 191.8,745.8 191.8,726.1 194.4,726.1 194.4,743.1 254.2,743.1 254.2,726.1 256.8,726.1 
				256.8,745.8 			"/>
			<polygon class="st0" points="256.8,745.8 191.8,745.8 191.8,726.1 194.4,726.1 194.4,743.1 254.2,743.1 254.2,726.1 256.8,726.1 
							"/>
			<polyline points="13.2,644.5 13.2,606.8 1.7,606.8 1.7,644.5 13.2,644.5 			"/>
			<rect x="1.7" y="606.8" class="st0" width="11.5" height="37.7"/>
			<polyline points="149,765.5 149,695.4 13.2,695.4 13.2,694.7 1.7,694.7 1.7,721.5 13.2,721.5 13.2,701.1 143.5,701.1 
				143.5,765.5 149,765.5 			"/>
			<polygon class="st0" points="149,765.5 149,695.4 13.2,695.4 13.2,694.7 1.7,694.7 1.7,721.5 13.2,721.5 13.2,701.1 143.5,701.1 
				143.5,765.5 			"/>
			<polyline points="143.5,847.5 149,847.5 149,788.3 13.2,788.3 13.2,771.7 1.7,771.7 1.7,808.9 13.2,808.9 13.2,794 143.5,794 
				143.5,847.5 			"/>
			<polygon class="st0" points="143.5,847.5 149,847.5 149,788.3 13.2,788.3 13.2,771.7 1.7,771.7 1.7,808.9 13.2,808.9 13.2,794 
				143.5,794 			"/>
			<polyline points="149,870.3 13.2,870.3 13.2,859.1 1.7,859.1 1.7,896 13.2,896 13.2,876.1 149,876.1 149,870.3 			"/>
			<polygon class="st0" points="149,870.3 13.2,870.3 13.2,859.1 1.7,859.1 1.7,896 13.2,896 13.2,876.1 149,876.1 			"/>
			<polyline points="325,711.7 325,606.8 313.7,606.8 313.7,717.5 296.6,717.5 296.6,762.8 302.2,762.8 302.2,723 497.5,723 
				497.5,711.7 325,711.7 			"/>
			<polygon class="st0" points="325,711.7 325,606.8 313.7,606.8 313.7,717.5 296.6,717.5 296.6,762.8 302.2,762.8 302.2,723 
				497.5,723 497.5,711.7 			"/>
			<polyline points="296.6,606.8 256.8,606.8 256.8,618.1 296.6,618.1 296.6,606.8 			"/>
			<rect x="256.8" y="606.8" class="st0" width="39.8" height="11.3"/>
			<polyline points="143.5,618.1 63.4,618.1 63.4,606.8 191.8,606.8 191.8,618.1 149,618.1 149,672.8 143.5,672.8 143.5,618.1 			
				"/>
			<polygon class="st0" points="143.5,618.1 63.4,618.1 63.4,606.8 191.8,606.8 191.8,618.1 149,618.1 149,672.8 143.5,672.8 			"/>
			<polyline points="360,819.5 360,813.7 296.6,813.7 296.6,819.5 337.2,819.5 337.2,870.3 273.4,870.3 273.4,813.7 191.8,813.7 
				191.8,819.5 270.7,819.5 270.7,870.3 197.3,870.3 197.3,842 191.8,842 191.8,995.1 149,995.1 149,1006.4 243.6,1006.4 
				243.6,995.1 197.3,995.1 197.3,876.1 360,876.1 360,870.3 343,870.3 343,819.5 360,819.5 			"/>
			<polygon class="st0" points="360,819.5 360,813.7 296.6,813.7 296.6,819.5 337.2,819.5 337.2,870.3 273.4,870.3 273.4,813.7 
				191.8,813.7 191.8,819.5 270.7,819.5 270.7,870.3 197.3,870.3 197.3,842 191.8,842 191.8,995.1 149,995.1 149,1006.4 
				243.6,1006.4 243.6,995.1 197.3,995.1 197.3,876.1 360,876.1 360,870.3 343,870.3 343,819.5 			"/>
			<polyline points="308.6,995.1 308.6,1006.4 408.5,1006.4 408.5,995.1 308.6,995.1 			"/>
			<rect x="308.6" y="995.1" class="st0" width="99.8" height="11.3"/>
			<polyline points="1.7,961.1 1.7,1006.4 84,1006.4 84,995.1 13.2,995.1 13.2,961.1 1.7,961.1 			"/>
			<polygon class="st0" points="1.7,961.1 1.7,1006.4 84,1006.4 84,995.1 13.2,995.1 13.2,961.1 			"/>
			<line class="st5" x1="331.2" y1="870.3" x2="331.2" y2="819.5"/>
			<line class="st5" x1="196.8" y1="864.8" x2="250.3" y2="864.8"/>
			<path class="st2" d="M359.9,819.4h19.8c0,3.4,0.7,6.7,1.9,9.8c1.3,3.1,3.2,5.9,5.5,8.3c2.4,2.4,5.2,4.2,8.3,5.5
				c3.1,1.3,6.4,1.9,9.8,1.9v-25.5h5.7"/>
			<path class="st5" d="M570,813.8V794c3.4,0,6.7-0.7,9.8-1.9c3.1-1.3,5.9-3.2,8.3-5.5c2.4-2.4,4.2-5.2,5.5-8.3
				c1.3-3.1,1.9-6.4,1.9-9.8H570v-5.7"/>
			<rect x="191.8" y="745.8" class="st1" width="65" height="17"/>
			<rect x="191.8" y="745.8" class="st2" width="65" height="17"/>
			<rect x="191.8" y="726.1" class="st1" width="65" height="17"/>
			<rect x="191.8" y="726.1" class="st2" width="65" height="17"/>
			<rect x="563.8" y="652.2" width="5.8" height="70.3"/>
			<rect x="563.8" y="652.2" class="st0" width="5.8" height="70.3"/>
			<rect x="343" y="819.5" class="st1" width="17" height="50.9"/>
			<rect x="343" y="819.5" class="st2" width="17" height="50.9"/>
			<polyline class="st1" points="475,995.1 475,915.7 491.8,915.7 491.8,995.1 475,995.1 			"/>
			<rect x="475" y="915.7" class="st2" width="16.8" height="79.4"/>
			<rect x="470.9" y="610.4" class="st5" width="2.9" height="1.4"/>
			<rect x="492.2" y="606.8" width="5.5" height="76.6"/>
			<rect x="492.2" y="606.8" class="st0" width="5.5" height="76.6"/>
			<path class="st2" d="M296.6,782.6L296.6,782.6c-3.4,0-6.7,0.7-9.8,1.9c-3.1,1.3-5.9,3.2-8.3,5.5c-2.4,2.4-4.2,5.2-5.5,8.3
				c-1.3,3.1-1.9,6.4-1.9,9.8h25.5v5.7"/>
			<line class="st5" x1="296.6" y1="782.5" x2="296.6" y2="762.8"/>
			<line class="st2" x1="486.2" y1="1006.4" x2="486.2" y2="1007.4"/>
			<line class="st2" x1="486.2" y1="1010.3" x2="486.2" y2="1013.1"/>
			<line class="st2" x1="486.2" y1="1016" x2="486.2" y2="1018.9"/>
			<line class="st2" x1="486.2" y1="1021.8" x2="486.2" y2="1024.7"/>
			<line class="st2" x1="486.2" y1="1027.5" x2="486.2" y2="1030.4"/>
			<line class="st2" x1="486.2" y1="1033.3" x2="486.2" y2="1036.2"/>
			<line class="st2" x1="486.2" y1="1039.1" x2="486.2" y2="1041.9"/>
			<line class="st2" x1="486.2" y1="1044.8" x2="486.2" y2="1047.7"/>
			<line class="st2" x1="486.2" y1="1050.6" x2="486.2" y2="1053.5"/>
			<line class="st2" x1="486.2" y1="1056.3" x2="486.2" y2="1059.2"/>
			<line class="st2" x1="486.2" y1="1062.1" x2="486.2" y2="1063.3"/>
			<line class="st2" x1="486.2" y1="1063.3" x2="484.8" y2="1063.3"/>
			<line class="st2" x1="481.9" y1="1063.3" x2="479" y2="1063.3"/>
			<line class="st2" x1="476.2" y1="1063.3" x2="473.3" y2="1063.3"/>
			<line class="st2" x1="470.4" y1="1063.3" x2="467.5" y2="1063.3"/>
			<line class="st2" x1="464.6" y1="1063.3" x2="461.8" y2="1063.3"/>
			<line class="st2" x1="458.9" y1="1063.3" x2="456" y2="1063.3"/>
			<line class="st2" x1="453.1" y1="1063.3" x2="450.2" y2="1063.3"/>
			<line class="st2" x1="447.4" y1="1063.3" x2="444.5" y2="1063.3"/>
			<line class="st2" x1="441.6" y1="1063.3" x2="438.7" y2="1063.3"/>
			<line class="st2" x1="435.8" y1="1063.3" x2="433" y2="1063.3"/>
			<line class="st2" x1="430.1" y1="1063.3" x2="427.2" y2="1063.3"/>
			<line class="st2" x1="424.3" y1="1063.3" x2="421.4" y2="1063.3"/>
			<line class="st2" x1="418.6" y1="1063.3" x2="415.7" y2="1063.3"/>
			<line class="st2" x1="412.8" y1="1063.3" x2="409.9" y2="1063.3"/>
			<line class="st2" x1="407" y1="1063.3" x2="404.2" y2="1063.3"/>
			<line class="st2" x1="401.3" y1="1063.3" x2="398.4" y2="1063.3"/>
			<line class="st2" x1="395.5" y1="1063.3" x2="392.6" y2="1063.3"/>
			<line class="st2" x1="389.8" y1="1063.3" x2="386.9" y2="1063.3"/>
			<line class="st2" x1="384" y1="1063.3" x2="381.1" y2="1063.3"/>
			<line class="st2" x1="378.2" y1="1063.3" x2="375.4" y2="1063.3"/>
			<line class="st2" x1="372.5" y1="1063.3" x2="369.6" y2="1063.3"/>
			<line class="st2" x1="366.7" y1="1063.3" x2="363.8" y2="1063.3"/>
			<line class="st2" x1="361" y1="1063.3" x2="358.1" y2="1063.3"/>
			<line class="st2" x1="355.2" y1="1063.3" x2="352.3" y2="1063.3"/>
			<line class="st2" x1="349.4" y1="1063.3" x2="346.6" y2="1063.3"/>
			<line class="st2" x1="343.7" y1="1063.3" x2="340.8" y2="1063.3"/>
			<line class="st2" x1="337.9" y1="1063.3" x2="335" y2="1063.3"/>
			<line class="st2" x1="332.2" y1="1063.3" x2="329.3" y2="1063.3"/>
			<line class="st2" x1="326.4" y1="1063.3" x2="323.5" y2="1063.3"/>
			<line class="st2" x1="320.6" y1="1063.3" x2="317.8" y2="1063.3"/>
			<line class="st2" x1="314.9" y1="1063.3" x2="312" y2="1063.3"/>
			<line class="st2" x1="309.1" y1="1063.3" x2="306.2" y2="1063.3"/>
			<line class="st2" x1="303.4" y1="1063.3" x2="300.5" y2="1063.3"/>
			<line class="st2" x1="297.6" y1="1063.3" x2="294.7" y2="1063.3"/>
			<line class="st2" x1="291.8" y1="1063.3" x2="289" y2="1063.3"/>
			<line class="st2" x1="286.1" y1="1063.3" x2="283.2" y2="1063.3"/>
			<line class="st2" x1="280.3" y1="1063.3" x2="277.4" y2="1063.3"/>
			<line class="st2" x1="274.6" y1="1063.3" x2="271.7" y2="1063.3"/>
			<line class="st2" x1="268.8" y1="1063.3" x2="265.9" y2="1063.3"/>
			<line class="st2" x1="263" y1="1063.3" x2="260.2" y2="1063.3"/>
			<line class="st2" x1="257.3" y1="1063.3" x2="254.4" y2="1063.3"/>
			<line class="st2" x1="251.5" y1="1063.3" x2="250.3" y2="1063.3"/>
			<line class="st2" x1="250.3" y1="1063.3" x2="249.8" y2="1061.4"/>
			<line class="st2" x1="249.1" y1="1058.7" x2="248.4" y2="1055.9"/>
			<line class="st2" x1="247.7" y1="1053.2" x2="246.7" y2="1050.3"/>
			<line class="st2" x1="246" y1="1047.5" x2="245.3" y2="1044.8"/>
			<line class="st2" x1="244.6" y1="1041.9" x2="243.8" y2="1039.3"/>
			<line class="st2" x1="243.1" y1="1036.4" x2="242.4" y2="1033.5"/>
			<line class="st2" x1="241.7" y1="1030.9" x2="240.7" y2="1028"/>
			<line class="st2" x1="240" y1="1025.4" x2="239.3" y2="1022.5"/>
			<line class="st2" x1="238.6" y1="1019.9" x2="237.8" y2="1017"/>
			<line class="st2" x1="237.1" y1="1014.1" x2="236.4" y2="1011.5"/>
			<line class="st2" x1="235.4" y1="1008.6" x2="235" y2="1006.4"/>
			<line class="st5" x1="380.2" y1="757.1" x2="362.6" y2="723.2"/>
			<line class="st2" x1="353.3" y1="723" x2="353.3" y2="757.1"/>
			<line class="st2" x1="361.7" y1="723" x2="361.7" y2="757.1"/>
			<line class="st2" x1="370.3" y1="723" x2="370.3" y2="757.1"/>
			<line class="st2" x1="378.7" y1="723" x2="378.7" y2="757.1"/>
			<line class="st2" x1="387.1" y1="723" x2="387.1" y2="757.1"/>
			<line class="st2" x1="395.8" y1="723" x2="395.8" y2="757.1"/>
			<line class="st2" x1="404.2" y1="723" x2="404.2" y2="757.1"/>
			<line class="st2" x1="412.6" y1="723" x2="412.6" y2="757.1"/>
			<line class="st2" x1="421.2" y1="723" x2="421.2" y2="757.1"/>
			<line class="st2" x1="429.6" y1="723" x2="429.6" y2="757.1"/>
			<line class="st2" x1="438.2" y1="723" x2="438.2" y2="757.1"/>
			<line class="st2" x1="446.6" y1="723" x2="446.6" y2="757.1"/>
			<line class="st2" x1="455" y1="723" x2="455" y2="757.1"/>
			<line class="st2" x1="463.7" y1="723" x2="463.7" y2="757.1"/>
			<line class="st2" x1="472.1" y1="723" x2="472.1" y2="757.1"/>
			<line class="st2" x1="480.5" y1="723" x2="480.5" y2="757.1"/>
			<line class="st2" x1="489.1" y1="723" x2="489.1" y2="757.1"/>
			<line class="st2" x1="497.5" y1="723" x2="497.5" y2="757.1"/>
			<rect x="296.6" y="618.1" class="st2" width="17" height="99.4"/>
			<line class="st2" x1="224.2" y1="762.8" x2="224.2" y2="745.8"/>
			<line class="st2" x1="241" y1="765" x2="241" y2="760.7"/>
			<line class="st2" x1="207.4" y1="765" x2="207.4" y2="760.7"/>
			<rect x="945.6" y="935.6" class="st0" width="11.5" height="73.7"/>
			<rect x="1.7" y="896" class="st0" width="11.5" height="65.3"/>
			<rect x="191.8" y="606.8" class="st0" width="65" height="11.3"/>
			<line class="st2" x1="360" y1="844.9" x2="343" y2="844.9"/>
			<line class="st2" x1="362.2" y1="831.5" x2="357.8" y2="831.5"/>
			<line class="st2" x1="362.2" y1="857.4" x2="357.8" y2="857.4"/>
			<rect x="299.5" y="639.5" class="st2" width="11.3" height="11.5"/>
			<rect x="477.6" y="944" class="st2" width="11.5" height="11.3"/>
			<rect x="809.5" y="1034.7" class="st0" width="65.3" height="11.5"/>
			<rect x="699.1" y="1034.7" class="st0" width="65.3" height="11.5"/>
			<rect x="611" y="1034.7" class="st0" width="56.6" height="11.5"/>
			<rect x="523" y="1034.7" class="st0" width="56.9" height="11.5"/>
			<rect x="465.4" y="610.4" class="st5" width="2.9" height="1.4"/>
			<rect x="459.6" y="610.4" class="st5" width="2.9" height="1.4"/>
			<rect x="454.1" y="610.4" class="st5" width="2.6" height="1.4"/>
			<rect x="448.3" y="610.4" class="st5" width="2.9" height="1.4"/>
			<rect x="442.6" y="610.4" class="st5" width="2.9" height="1.4"/>
			<rect x="445.2" y="608" class="st5" width="2.9" height="1.4"/>
			<rect x="439.7" y="608" class="st5" width="2.9" height="1.4"/>
			<rect x="433.9" y="608" class="st5" width="2.9" height="1.4"/>
			<rect x="428.4" y="608" class="st5" width="2.6" height="1.4"/>
			<rect x="422.6" y="608" class="st5" width="2.9" height="1.4"/>
			<rect x="416.9" y="608" class="st5" width="2.9" height="1.4"/>
			<rect x="411.4" y="608" class="st5" width="2.6" height="1.4"/>
			<rect x="405.6" y="608" class="st5" width="2.9" height="1.4"/>
			<rect x="399.8" y="608" class="st5" width="2.9" height="1.4"/>
			<rect x="394.3" y="608" class="st5" width="2.9" height="1.4"/>
			<rect x="388.6" y="608" class="st5" width="2.9" height="1.4"/>
			<rect x="383" y="608" class="st5" width="2.6" height="1.4"/>
			<rect x="377.3" y="608" class="st5" width="2.9" height="1.4"/>
			<rect x="371.5" y="608" class="st5" width="2.9" height="1.4"/>
			<rect x="366" y="608" class="st5" width="2.9" height="1.4"/>
			<rect x="360.2" y="608" class="st5" width="2.9" height="1.4"/>
			<rect x="354.5" y="608" class="st5" width="2.9" height="1.4"/>
			<rect x="349" y="608" class="st5" width="2.9" height="1.4"/>
			<rect x="343.2" y="608" class="st5" width="2.9" height="1.4"/>
			<rect x="357.6" y="610.7" class="st5" width="2.9" height="1.4"/>
			<rect x="351.8" y="610.7" class="st5" width="2.9" height="1.4"/>
			<rect x="346.3" y="610.7" class="st5" width="2.6" height="1.4"/>
			<rect x="340.6" y="610.7" class="st5" width="2.9" height="1.4"/>
			<rect x="334.8" y="610.7" class="st5" width="2.9" height="1.4"/>
			<rect x="571.2" y="657" class="st5" width="2.9" height="1.4"/>
			<rect x="577" y="657" class="st5" width="2.6" height="1.4"/>
			<rect x="582.5" y="657" class="st5" width="2.9" height="1.4"/>
			<rect x="588.2" y="657" class="st5" width="2.9" height="1.4"/>
			<rect x="613" y="653.4" class="st5" width="2.9" height="1.2"/>
			<rect x="618.5" y="653.4" class="st5" width="2.9" height="1.2"/>
			<rect x="624.2" y="653.4" class="st5" width="2.9" height="1.2"/>
			<rect x="630" y="653.4" class="st5" width="2.6" height="1.2"/>
			<rect x="635.5" y="653.4" class="st5" width="2.9" height="1.2"/>
			<rect x="641.3" y="653.4" class="st5" width="2.9" height="1.2"/>
			<rect x="646.8" y="653.4" class="st5" width="2.9" height="1.2"/>
			<rect x="652.6" y="653.4" class="st5" width="2.9" height="1.2"/>
			<rect x="658.3" y="653.4" class="st5" width="2.9" height="1.2"/>
			<rect x="663.8" y="653.4" class="st5" width="2.9" height="1.2"/>
			<rect x="669.6" y="653.4" class="st5" width="2.9" height="1.2"/>
			<rect x="675.4" y="653.4" class="st5" width="2.6" height="1.2"/>
			<rect x="680.9" y="653.4" class="st5" width="2.9" height="1.2"/>
			<rect x="733.2" y="699" class="st1" width="11.3" height="11.3"/>
			<rect x="733.2" y="699" class="st2" width="11.3" height="11.3"/>
			<path class="st1" d="M744.5,727.1c0-1.2-1-2.2-2.2-2.2s-2.2,1-2.2,2.2c0,1.2,1,2.2,2.2,2.2C743.5,729.2,744.5,728.2,744.5,727.1"
				/>
			<path class="st2" d="M744.5,727.1c0-1.2-1-2.2-2.2-2.2s-2.2,1-2.2,2.2c0,1.2,1,2.2,2.2,2.2C743.5,729.2,744.5,728.2,744.5,727.1"
				/>
			<path class="st1" d="M737.5,727.1c0-1.2-1-2.2-2.2-2.2s-2.2,1-2.2,2.2c0,1.2,1,2.2,2.2,2.2C736.5,729.2,737.5,728.2,737.5,727.1"
				/>
			<path class="st2" d="M737.5,727.1c0-1.2-1-2.2-2.2-2.2s-2.2,1-2.2,2.2c0,1.2,1,2.2,2.2,2.2C736.5,729.2,737.5,728.2,737.5,727.1"
				/>
			<path class="st1" d="M744.5,720c0-1.1-1-2-2.2-2s-2.2,0.9-2.2,2s1,2,2.2,2S744.5,721.1,744.5,720"/>
			<path class="st2" d="M744.5,720c0-1.1-1-2-2.2-2s-2.2,0.9-2.2,2s1,2,2.2,2S744.5,721.1,744.5,720"/>
			<path class="st1" d="M737.5,720c0-1.1-1-2-2.2-2s-2.2,0.9-2.2,2s1,2,2.2,2S737.5,721.1,737.5,720"/>
			<path class="st2" d="M737.5,720c0-1.1-1-2-2.2-2s-2.2,0.9-2.2,2s1,2,2.2,2S737.5,721.1,737.5,720"/>
			<rect x="593.8" y="657" class="st5" width="2.9" height="1.4"/>
			<path class="st5" d="M563.8,657.9h-12.2v28.3c-3.7,0-7.4-0.7-10.8-2.2c-3.4-1.4-6.6-3.5-9.2-6.1c-2.6-2.6-4.7-5.8-6.1-9.2
				c-1.4-3.4-2.2-7.1-2.2-10.8h-25.4"/>
			<path class="st2" d="M304.1,665.6c0-1.2-1-2.2-2.2-2.2s-2.2,1-2.2,2.2c0,1.2,1,2.2,2.2,2.2S304.1,666.8,304.1,665.6"/>
			<path class="st2" d="M304.1,658.7c0-1.2-1-2.2-2.2-2.2s-2.2,1-2.2,2.2s1,2.2,2.2,2.2C303.1,660.8,304.1,659.8,304.1,658.7"/>
			<path class="st2" d="M311,665.6c0-1.2-1-2.2-2.2-2.2s-2.2,1-2.2,2.2c0,1.2,1,2.2,2.2,2.2S311,666.8,311,665.6"/>
			<path class="st2" d="M311,658.7c0-1.2-1-2.2-2.2-2.2s-2.2,1-2.2,2.2s1,2.2,2.2,2.2S311,659.8,311,658.7"/>
			<path class="st2" d="M489.1,969.7c0-1.2-1-2.2-2.2-2.2s-2.2,1-2.2,2.2s1,2.2,2.2,2.2S489.1,970.9,489.1,969.7"/>
			<path class="st2" d="M482.2,969.7c0-1.2-1-2.2-2.2-2.2s-2.2,1-2.2,2.2s1,2.2,2.2,2.2S482.2,970.9,482.2,969.7"/>
			<path class="st2" d="M489.1,962.5c0-1.2-1-2.2-2.2-2.2s-2.2,1-2.2,2.2s1,2.2,2.2,2.2S489.1,963.7,489.1,962.5"/>
			<path class="st2" d="M482.2,962.5c0-1.2-1-2.2-2.2-2.2s-2.2,1-2.2,2.2s1,2.2,2.2,2.2S482.2,963.7,482.2,962.5"/>
			<rect x="329.3" y="610.7" class="st5" width="2.9" height="1.4"/>
			<rect x="691.2" y="657" class="st5" width="2.6" height="1.4"/>
			<rect x="696.7" y="657" class="st5" width="2.9" height="1.4"/>
			<rect x="702.5" y="657" class="st5" width="2.9" height="1.4"/>
			<rect x="708.2" y="657" class="st5" width="2.6" height="1.4"/>
			<rect x="713.8" y="657" class="st5" width="2.9" height="1.4"/>
			<path class="st5" d="M491.9,683.4L491.9,683.4c-14,0-25.5,11.5-25.5,25.5"/>
			<line class="st5" x1="466.3" y1="708.8" x2="492.5" y2="708.8"/>
			<path class="st5" d="M595,748.1L595,748.1c0-14-11.5-25.5-25.5-25.5"/>
			<line class="st5" x1="595" y1="747.9" x2="568.8" y2="747.9"/>
			<line class="st2" x1="719" y1="652.2" x2="717.8" y2="652.2"/>
			<line class="st2" x1="715" y1="652.2" x2="712.1" y2="652.2"/>
			<line class="st2" x1="709.2" y1="652.2" x2="706.3" y2="652.2"/>
			<line class="st2" x1="703.4" y1="652.2" x2="700.6" y2="652.2"/>
			<line class="st2" x1="697.7" y1="652.2" x2="694.8" y2="652.2"/>
			<line class="st2" x1="691.9" y1="652.2" x2="689" y2="652.2"/>
			<line class="st2" x1="686.2" y1="652.2" x2="683.3" y2="652.2"/>
			<line class="st2" x1="680.4" y1="652.2" x2="677.5" y2="652.2"/>
			<line class="st2" x1="674.6" y1="652.2" x2="671.8" y2="652.2"/>
			<line class="st2" x1="668.9" y1="652.2" x2="666" y2="652.2"/>
			<line class="st2" x1="663.1" y1="652.2" x2="660.2" y2="652.2"/>
			<line class="st2" x1="657.4" y1="652.2" x2="654.5" y2="652.2"/>
			<line class="st2" x1="651.6" y1="652.2" x2="648.7" y2="652.2"/>
			<line class="st2" x1="645.8" y1="652.2" x2="643" y2="652.2"/>
			<line class="st2" x1="640.1" y1="652.2" x2="637.2" y2="652.2"/>
			<line class="st2" x1="634.3" y1="652.2" x2="631.4" y2="652.2"/>
			<line class="st2" x1="628.6" y1="652.2" x2="625.7" y2="652.2"/>
			<line class="st2" x1="622.8" y1="652.2" x2="619.9" y2="652.2"/>
			<line class="st2" x1="617" y1="652.2" x2="614.2" y2="652.2"/>
			<line class="st2" x1="611.3" y1="652.2" x2="608.4" y2="652.2"/>
			<line class="st2" x1="605.5" y1="652.2" x2="602.6" y2="652.2"/>
			<line class="st2" x1="599.8" y1="652.2" x2="596.9" y2="652.2"/>
			<line class="st2" x1="594" y1="652.2" x2="591.1" y2="652.2"/>
			<line class="st2" x1="588.2" y1="652.2" x2="585.4" y2="652.2"/>
			<line class="st2" x1="582.5" y1="652.2" x2="579.6" y2="652.2"/>
			<line class="st2" x1="576.7" y1="652.2" x2="573.8" y2="652.2"/>
			<line class="st2" x1="571" y1="652.2" x2="569.5" y2="652.2"/>
			<line class="st2" x1="569.5" y1="652.2" x2="569.5" y2="651.2"/>
			<line class="st2" x1="569.5" y1="648.3" x2="569.5" y2="645.5"/>
			<line class="st2" x1="569.5" y1="642.6" x2="569.5" y2="639.7"/>
			<line class="st2" x1="569.5" y1="636.8" x2="569.5" y2="633.9"/>
			<line class="st2" x1="569.5" y1="631.1" x2="569.5" y2="628.2"/>
			<line class="st2" x1="569.5" y1="625.3" x2="569.5" y2="622.4"/>
			<line class="st2" x1="569.5" y1="619.5" x2="569.5" y2="616.7"/>
			<line class="st2" x1="569.5" y1="613.8" x2="569.5" y2="610.9"/>
			<line class="st2" x1="569.5" y1="608" x2="569.5" y2="606.8"/>
			<line class="st2" x1="569.5" y1="606.8" x2="566.9" y2="606.8"/>
			<line class="st2" x1="564" y1="606.8" x2="561.1" y2="606.8"/>
			<line class="st2" x1="558.2" y1="606.8" x2="555.4" y2="606.8"/>
			<line class="st2" x1="552.5" y1="606.8" x2="549.6" y2="606.8"/>
			<line class="st2" x1="546.7" y1="606.8" x2="543.8" y2="606.8"/>
			<line class="st2" x1="541" y1="606.8" x2="538.1" y2="606.8"/>
			<line class="st2" x1="535.2" y1="606.8" x2="532.3" y2="606.8"/>
			<line class="st2" x1="529.4" y1="606.8" x2="526.6" y2="606.8"/>
			<line class="st2" x1="523.7" y1="606.8" x2="520.8" y2="606.8"/>
			<line class="st2" x1="517.9" y1="606.8" x2="515" y2="606.8"/>
			<line class="st2" x1="512.2" y1="606.8" x2="509.3" y2="606.8"/>
			<line class="st2" x1="506.4" y1="606.8" x2="503.5" y2="606.8"/>
			<line class="st2" x1="500.6" y1="606.8" x2="497.8" y2="606.8"/>
			<line class="st2" x1="494.9" y1="606.8" x2="492" y2="606.8"/>
			<line class="st2" x1="489.1" y1="606.8" x2="486.2" y2="606.8"/>
			<line class="st2" x1="483.4" y1="606.8" x2="480.5" y2="606.8"/>
			<line class="st2" x1="477.6" y1="606.8" x2="474.7" y2="606.8"/>
			<line class="st2" x1="471.8" y1="606.8" x2="469" y2="606.8"/>
			<line class="st2" x1="466.1" y1="606.8" x2="463.2" y2="606.8"/>
			<line class="st2" x1="460.3" y1="606.8" x2="457.4" y2="606.8"/>
			<line class="st2" x1="454.6" y1="606.8" x2="451.7" y2="606.8"/>
			<line class="st2" x1="448.8" y1="606.8" x2="445.9" y2="606.8"/>
			<line class="st2" x1="443" y1="606.8" x2="440.2" y2="606.8"/>
			<line class="st2" x1="437.3" y1="606.8" x2="434.4" y2="606.8"/>
			<line class="st2" x1="431.5" y1="606.8" x2="428.6" y2="606.8"/>
			<line class="st2" x1="425.8" y1="606.8" x2="422.9" y2="606.8"/>
			<line class="st2" x1="420" y1="606.8" x2="417.1" y2="606.8"/>
			<line class="st2" x1="414.2" y1="606.8" x2="411.4" y2="606.8"/>
			<line class="st2" x1="408.5" y1="606.8" x2="405.6" y2="606.8"/>
			<line class="st2" x1="402.7" y1="606.8" x2="399.8" y2="606.8"/>
			<line class="st2" x1="397" y1="606.8" x2="394.1" y2="606.8"/>
			<line class="st2" x1="391.2" y1="606.8" x2="388.3" y2="606.8"/>
			<line class="st2" x1="385.4" y1="606.8" x2="382.6" y2="606.8"/>
			<line class="st2" x1="379.7" y1="606.8" x2="376.8" y2="606.8"/>
			<line class="st2" x1="373.9" y1="606.8" x2="371" y2="606.8"/>
			<line class="st2" x1="368.2" y1="606.8" x2="365.3" y2="606.8"/>
			<line class="st2" x1="362.4" y1="606.8" x2="359.5" y2="606.8"/>
			<line class="st2" x1="356.6" y1="606.8" x2="353.8" y2="606.8"/>
			<line class="st2" x1="350.9" y1="606.8" x2="348" y2="606.8"/>
			<line class="st2" x1="345.1" y1="606.8" x2="342.2" y2="606.8"/>
			<line class="st2" x1="339.4" y1="606.8" x2="336.5" y2="606.8"/>
			<line class="st2" x1="333.6" y1="606.8" x2="330.7" y2="606.8"/>
			<line class="st2" x1="327.8" y1="606.8" x2="325" y2="606.8"/>
			<rect x="568.1" y="606.8" class="st5" width="1.4" height="2.9"/>
			<rect x="568.1" y="612.6" class="st5" width="1.4" height="2.6"/>
			<rect x="568.1" y="618.1" class="st5" width="1.4" height="2.9"/>
			<rect x="568.1" y="623.9" class="st5" width="1.4" height="2.9"/>
			<rect x="568.1" y="629.6" class="st5" width="1.4" height="2.6"/>
			<rect x="568.1" y="635.1" class="st5" width="1.4" height="2.9"/>
			<rect x="568.1" y="640.9" class="st5" width="1.4" height="2.9"/>
			<rect x="568.1" y="646.4" class="st5" width="1.4" height="2.9"/>
			<rect x="84" y="995.1" class="st0" width="65" height="11.3"/>
			<rect x="1.7" y="721.5" class="st0" width="11.5" height="50.2"/>
			<rect x="1.7" y="808.9" class="st0" width="11.5" height="50.2"/>
			<rect x="1.7" y="644.5" class="st0" width="11.5" height="50.2"/>
			<rect x="296.6" y="606.8" class="st0" width="17" height="11.3"/>
			<rect x="747.4" y="652.2" class="st0" width="45.4" height="11.3"/>
			<rect x="639.8" y="762.8" class="st1" width="87.6" height="16.8"/>
			<rect x="639.8" y="762.8" class="st2" width="87.6" height="16.8"/>
			<line class="st2" x1="698.2" y1="779.9" x2="698.2" y2="762.8"/>
			<line class="st2" x1="712.8" y1="781.1" x2="712.8" y2="777"/>
			<line class="st2" x1="683.8" y1="781.1" x2="683.8" y2="777"/>
			<rect x="730.3" y="663.5" class="st1" width="17" height="113.5"/>
			<rect x="730.3" y="663.5" class="st2" width="17" height="113.5"/>
			<line class="st2" x1="669.1" y1="779.9" x2="669.1" y2="762.8"/>
			<line class="st2" x1="654.5" y1="781.1" x2="654.5" y2="777"/>
			<rect x="792.7" y="663.5" class="st1" width="16.8" height="51.1"/>
			<rect x="792.7" y="663.5" class="st2" width="16.8" height="51.1"/>
			<rect x="812.4" y="663.5" class="st1" width="17" height="54"/>
			<rect x="812.4" y="663.5" class="st2" width="17" height="54"/>
			<rect x="686.6" y="653.4" class="st5" width="2.9" height="1.2"/>
			<rect x="601.4" y="653.4" class="st5" width="2.9" height="1.2"/>
			<rect x="607.2" y="653.4" class="st5" width="2.9" height="1.2"/>
			<rect x="880.6" y="652.2" class="st0" width="65" height="11.3"/>
			<rect x="945.6" y="697.5" class="st0" width="11.5" height="50.2"/>
			<rect x="945.6" y="792.3" class="st0" width="11.5" height="50.2"/>
			<rect x="945.6" y="879.7" class="st0" width="11.5" height="50.2"/>
			<line class="st5" x1="341" y1="629.1" x2="341" y2="677.1"/>
			<line class="st5" x1="360.5" y1="629.1" x2="360.5" y2="677.1"/>
			<line class="st5" x1="379.7" y1="629.1" x2="379.7" y2="677.1"/>
			<line class="st5" x1="398.9" y1="629.1" x2="398.9" y2="677.1"/>
			<line class="st5" x1="418.3" y1="629.1" x2="418.3" y2="677.1"/>
			<line class="st5" x1="437.5" y1="629.1" x2="437.5" y2="677.1"/>
			<line class="st5" x1="456.7" y1="629.1" x2="456.7" y2="677.1"/>
			<line class="st5" x1="476.2" y1="629.1" x2="476.2" y2="677.1"/>
			<line class="st5" x1="587.8" y1="674.3" x2="587.8" y2="722.5"/>
			<line class="st5" x1="607" y1="674.3" x2="607" y2="722.5"/>
			<line class="st5" x1="626.4" y1="674.3" x2="626.4" y2="722.5"/>
			<line class="st5" x1="645.6" y1="674.3" x2="645.6" y2="722.5"/>
			<line class="st5" x1="664.8" y1="674.3" x2="664.8" y2="722.5"/>
			<line class="st5" x1="684" y1="674.3" x2="684" y2="722.5"/>
			<line class="st5" x1="703.4" y1="674.3" x2="703.4" y2="722.5"/>
			<line class="st2" x1="1.7" y1="975.9" x2="0.5" y2="975.5"/>
			<line class="st2" x1="-1.9" y1="974.3" x2="-4.6" y2="972.8"/>
			<line class="st2" x1="-7.2" y1="971.6" x2="-9.8" y2="970.4"/>
			<line class="st2" x1="-12.5" y1="969.2" x2="-14.9" y2="968"/>
			<line class="st2" x1="-17.5" y1="966.8" x2="-20.2" y2="965.4"/>
			<line class="st2" x1="-22.8" y1="964.2" x2="-25.4" y2="963"/>
			<line class="st2" x1="-28.1" y1="961.8" x2="-30.5" y2="960.6"/>
			<line class="st2" x1="-33.1" y1="959.1" x2="-35.8" y2="957.9"/>
			<line class="st2" x1="-38.4" y1="956.7" x2="-41" y2="955.5"/>
			<line class="st2" x1="-43.7" y1="954.3" x2="-46.1" y2="953.1"/>
			<line class="st2" x1="-48.7" y1="951.7" x2="-51.4" y2="950.5"/>
			<line class="st2" x1="-54" y1="949.3" x2="-55" y2="948.8"/>
			<line class="st2" x1="-55" y1="948.8" x2="-55" y2="946.9"/>
			<line class="st2" x1="-55" y1="944" x2="-55" y2="941.1"/>
			<line class="st2" x1="-55" y1="938.3" x2="-55" y2="935.4"/>
			<line class="st2" x1="-55" y1="932.5" x2="-55" y2="929.6"/>
			<line class="st2" x1="-55" y1="926.7" x2="-55" y2="923.9"/>
			<line class="st2" x1="-55" y1="921" x2="-55" y2="918.1"/>
			<line class="st2" x1="-55" y1="915.2" x2="-55" y2="912.3"/>
			<line class="st2" x1="-55" y1="909.5" x2="-55" y2="906.6"/>
			<line class="st2" x1="-55" y1="903.7" x2="-55" y2="900.8"/>
			<line class="st2" x1="-55" y1="897.9" x2="-55" y2="895.1"/>
			<line class="st2" x1="-55" y1="892.2" x2="-55" y2="889.3"/>
			<line class="st2" x1="-55" y1="886.4" x2="-55" y2="883.5"/>
			<line class="st2" x1="-55" y1="880.7" x2="-55" y2="877.8"/>
			<line class="st2" x1="-55" y1="874.9" x2="-55" y2="872"/>
			<line class="st2" x1="-55" y1="869.1" x2="-55" y2="866.3"/>
			<line class="st2" x1="-55" y1="863.4" x2="-55" y2="860.5"/>
			<line class="st2" x1="-55" y1="857.6" x2="-55" y2="854.7"/>
			<line class="st2" x1="-55" y1="851.9" x2="-55" y2="849"/>
			<line class="st2" x1="-55" y1="846.1" x2="-55" y2="843.2"/>
			<line class="st2" x1="-55" y1="840.3" x2="-55" y2="837.5"/>
			<line class="st2" x1="-55" y1="834.6" x2="-55" y2="831.7"/>
			<line class="st2" x1="-55" y1="828.8" x2="-55" y2="825.9"/>
			<line class="st2" x1="-55" y1="823.1" x2="-55" y2="820.2"/>
			<line class="st2" x1="-55" y1="817.3" x2="-55" y2="814.4"/>
			<line class="st2" x1="-55" y1="811.5" x2="-55" y2="808.7"/>
			<line class="st2" x1="-55" y1="805.8" x2="-55" y2="802.9"/>
			<line class="st2" x1="-55" y1="800" x2="-55" y2="797.1"/>
			<line class="st2" x1="-55" y1="794.3" x2="-55" y2="791.4"/>
			<line class="st2" x1="-55" y1="788.5" x2="-55" y2="785.6"/>
			<line class="st2" x1="-55" y1="782.7" x2="-55" y2="779.9"/>
			<line class="st2" x1="-55" y1="778.2" x2="-55" y2="777.7"/>
			<line class="st2" x1="-52.3" y1="776.7" x2="-49.7" y2="775.5"/>
			<line class="st2" x1="-47" y1="774.6" x2="-44.2" y2="773.4"/>
			<line class="st2" x1="-41.5" y1="772.4" x2="-38.9" y2="771.2"/>
			<line class="st2" x1="-36.2" y1="770.3" x2="-33.6" y2="769.1"/>
			<line class="st2" x1="-31" y1="768.1" x2="-28.3" y2="766.9"/>
			<line class="st2" x1="-25.7" y1="765.9" x2="-22.8" y2="764.7"/>
			<line class="st2" x1="-20.2" y1="763.8" x2="-17.5" y2="762.6"/>
			<line class="st2" x1="-14.9" y1="761.6" x2="-12.2" y2="760.4"/>
			<line class="st2" x1="-9.6" y1="759.5" x2="-7" y2="758.3"/>
			<line class="st2" x1="-4.1" y1="757.3" x2="-1.4" y2="756.1"/>
			<line class="st2" x1="1.2" y1="755.1" x2="1.7" y2="754.9"/>
			<line class="st2" x1="1.7" y1="957.9" x2="1.7" y2="960.8"/>
			<rect x="13.2" y="606.8" class="st0" width="50.2" height="11.3"/>
			<rect x="595.9" y="653.4" class="st5" width="2.9" height="1.2"/>
			<line class="st5" x1="492.5" y1="711.7" x2="492.5" y2="708.8"/>
			<line class="st5" x1="568.8" y1="751.3" x2="568.8" y2="747.9"/>
			<line class="st5" x1="308.4" y1="864.8" x2="273.4" y2="864.8"/>
			<line class="st5" x1="688.6" y1="864.8" x2="623.3" y2="864.8"/>
			<line class="st5" x1="763.9" y1="864.8" x2="711.1" y2="864.8"/>
			<line class="st5" x1="545.3" y1="825" x2="597.8" y2="825"/>
			<line class="st5" x1="413.8" y1="825" x2="488.6" y2="825"/>
			<rect x="343" y="913.1" class="st1" width="17" height="56.6"/>
			<rect x="343" y="913.1" class="st2" width="17" height="56.6"/>
			<rect x="323" y="910.2" class="st1" width="17" height="62.4"/>
			<rect x="323" y="910.2" class="st2" width="17" height="62.4"/>
			<polyline points="360,969.7 360,972.6 340.1,972.6 340.1,910.2 360,910.2 360,913.1 343,913.1 343,969.7 360,969.7 			"/>
			<polygon class="st0" points="360,969.7 360,972.6 340.1,972.6 340.1,910.2 360,910.2 360,913.1 343,913.1 343,969.7 			"/>
			<polyline class="st1" points="439.2,992.3 416.6,992.3 416.6,941.4 439.2,941.4 439.2,992.3 			"/>
			<rect x="416.6" y="941.4" class="st5" width="22.6" height="50.9"/>
			<rect x="410.9" y="944" class="st1" width="5.8" height="11.3"/>
			<rect x="410.9" y="944" class="st5" width="5.8" height="11.3"/>
			<rect x="439.2" y="944" class="st1" width="5.8" height="11.3"/>
			<rect x="439.2" y="944" class="st5" width="5.8" height="11.3"/>
			<rect x="410.9" y="961.1" class="st1" width="5.8" height="11.3"/>
			<rect x="410.9" y="961.1" class="st5" width="5.8" height="11.3"/>
			<rect x="439.2" y="961.1" class="st1" width="5.8" height="11.3"/>
			<rect x="439.2" y="961.1" class="st5" width="5.8" height="11.3"/>
			<rect x="410.9" y="978.1" class="st1" width="5.8" height="11.3"/>
			<rect x="410.9" y="978.1" class="st5" width="5.8" height="11.3"/>
			<rect x="439.2" y="978.1" class="st1" width="5.8" height="11.3"/>
			<rect x="439.2" y="978.1" class="st5" width="5.8" height="11.3"/>
			<line class="st2" x1="957.1" y1="867.2" x2="957.8" y2="867.5"/>
			<line class="st2" x1="960.5" y1="868.2" x2="963.4" y2="868.9"/>
			<line class="st2" x1="966.2" y1="869.6" x2="968.9" y2="870.3"/>
			<line class="st2" x1="971.8" y1="871.3" x2="974.4" y2="872"/>
			<line class="st2" x1="977.3" y1="872.7" x2="979.9" y2="873.5"/>
			<line class="st2" x1="982.8" y1="874.2" x2="985.7" y2="875.1"/>
			<line class="st2" x1="988.3" y1="875.9" x2="991.2" y2="876.6"/>
			<line class="st2" x1="993.8" y1="877.3" x2="996.7" y2="878"/>
			<line class="st2" x1="999.4" y1="878.7" x2="1002.2" y2="879.7"/>
			<line class="st2" x1="1005.1" y1="880.4" x2="1007.8" y2="881.1"/>
			<line class="st2" x1="1010.6" y1="881.9" x2="1013.3" y2="882.6"/>
			<line class="st2" x1="1016.2" y1="883.3" x2="1016.6" y2="883.5"/>
			<line class="st2" x1="1016.6" y1="883.5" x2="1016.6" y2="885.9"/>
			<line class="st2" x1="1016.6" y1="888.8" x2="1016.6" y2="891.7"/>
			<line class="st2" x1="1016.6" y1="894.6" x2="1016.6" y2="897.5"/>
			<line class="st2" x1="1016.6" y1="900.3" x2="1016.6" y2="903.2"/>
			<line class="st2" x1="1016.6" y1="906.1" x2="1016.6" y2="909"/>
			<line class="st2" x1="1016.6" y1="911.9" x2="1016.6" y2="914.7"/>
			<line class="st2" x1="1016.6" y1="917.6" x2="1016.6" y2="920.5"/>
			<line class="st2" x1="1016.6" y1="923.4" x2="1016.6" y2="926.3"/>
			<line class="st2" x1="1016.6" y1="929.1" x2="1016.6" y2="932"/>
			<line class="st2" x1="1016.6" y1="934.9" x2="1016.6" y2="937.8"/>
			<line class="st2" x1="1016.6" y1="940.7" x2="1016.6" y2="943.5"/>
			<line class="st2" x1="1016.6" y1="946.4" x2="1016.6" y2="949.3"/>
			<line class="st2" x1="1016.6" y1="952.2" x2="1016.6" y2="955.1"/>
			<line class="st2" x1="1016.6" y1="957.9" x2="1016.6" y2="960.8"/>
			<line class="st2" x1="1016.6" y1="963.7" x2="1016.6" y2="966.6"/>
			<line class="st2" x1="1016.6" y1="969.5" x2="1016.6" y2="972.3"/>
			<line class="st2" x1="1016.6" y1="975.2" x2="1016.6" y2="978.1"/>
			<line class="st2" x1="1016.6" y1="981" x2="1016.6" y2="983.9"/>
			<line class="st2" x1="1016.6" y1="986.7" x2="1016.6" y2="989.6"/>
			<line class="st2" x1="1016.6" y1="992.5" x2="1016.6" y2="995.4"/>
			<line class="st2" x1="1016.6" y1="998.3" x2="1016.6" y2="1001.1"/>
			<line class="st2" x1="1016.6" y1="1004" x2="1016.6" y2="1006.9"/>
			<line class="st2" x1="1016.6" y1="1007.4" x2="1016.6" y2="1007.9"/>
			<line class="st2" x1="1016.6" y1="1007.9" x2="1015.9" y2="1008.1"/>
			<line class="st2" x1="1013.3" y1="1008.8" x2="1010.4" y2="1009.5"/>
			<line class="st2" x1="1007.5" y1="1010.3" x2="1004.9" y2="1011.2"/>
			<line class="st2" x1="1002" y1="1011.9" x2="999.4" y2="1012.7"/>
			<line class="st2" x1="996.5" y1="1013.4" x2="993.8" y2="1014.3"/>
			<line class="st2" x1="991" y1="1015.1" x2="988.3" y2="1015.8"/>
			<line class="st2" x1="985.4" y1="1016.5" x2="982.6" y2="1017.2"/>
			<line class="st2" x1="979.9" y1="1018.2" x2="977" y2="1018.9"/>
			<line class="st2" x1="974.4" y1="1019.6" x2="971.5" y2="1020.3"/>
			<line class="st2" x1="968.9" y1="1021.1" x2="966" y2="1022"/>
			<line class="st2" x1="963.1" y1="1022.7" x2="960.5" y2="1023.5"/>
			<line class="st2" x1="957.6" y1="1024.2" x2="957.1" y2="1024.4"/>
			<line class="st2" x1="957.1" y1="778.9" x2="958.3" y2="779.4"/>
			<line class="st2" x1="961" y1="780.3" x2="963.6" y2="781.3"/>
			<line class="st2" x1="966.5" y1="782" x2="969.1" y2="783"/>
			<line class="st2" x1="971.8" y1="783.9" x2="974.6" y2="784.9"/>
			<line class="st2" x1="977.3" y1="785.9" x2="979.9" y2="786.8"/>
			<line class="st2" x1="982.8" y1="787.8" x2="985.4" y2="788.7"/>
			<line class="st2" x1="988.1" y1="789.7" x2="991" y2="790.7"/>
			<line class="st2" x1="993.6" y1="791.6" x2="996.2" y2="792.6"/>
			<line class="st2" x1="999.1" y1="793.5" x2="1001.8" y2="794.5"/>
			<line class="st2" x1="1004.4" y1="795.2" x2="1007.3" y2="796.2"/>
			<line class="st2" x1="1009.9" y1="797.1" x2="1012.6" y2="798.1"/>
			<line class="st2" x1="1015.4" y1="799.1" x2="1016.6" y2="799.5"/>
			<line class="st2" x1="1016.6" y1="799.5" x2="1016.6" y2="801.2"/>
			<line class="st2" x1="1016.6" y1="804.1" x2="1016.6" y2="807"/>
			<line class="st2" x1="1016.6" y1="809.9" x2="1016.6" y2="812.7"/>
			<line class="st2" x1="1016.6" y1="815.6" x2="1016.6" y2="818.5"/>
			<line class="st2" x1="1016.6" y1="821.4" x2="1016.6" y2="824.3"/>
			<line class="st2" x1="1016.6" y1="827.1" x2="1016.6" y2="830"/>
			<line class="st2" x1="1016.6" y1="832.9" x2="1016.6" y2="835.8"/>
			<line class="st2" x1="1016.6" y1="838.7" x2="1016.6" y2="841.5"/>
			<line class="st2" x1="1016.6" y1="844.4" x2="1016.6" y2="847.3"/>
			<line class="st2" x1="1016.6" y1="850.2" x2="1016.6" y2="853.1"/>
			<line class="st2" x1="1016.6" y1="855.9" x2="1016.6" y2="858.8"/>
			<line class="st2" x1="1016.6" y1="861.7" x2="1016.6" y2="864.6"/>
			<line class="st2" x1="1016.6" y1="867.5" x2="1016.6" y2="870.3"/>
			<line class="st2" x1="1016.6" y1="873.2" x2="1016.6" y2="876.1"/>
			<line class="st2" x1="1016.6" y1="879" x2="1016.6" y2="881.9"/>
			<line class="st2" x1="1016.6" y1="883.1" x2="1016.6" y2="883.5"/>
			<line class="st2" x1="-55" y1="777.7" x2="-55" y2="775.3"/>
			<line class="st2" x1="-55" y1="772.4" x2="-55" y2="769.5"/>
			<line class="st2" x1="-55" y1="766.7" x2="-55" y2="763.8"/>
			<line class="st2" x1="-55" y1="760.9" x2="-55" y2="758"/>
			<line class="st2" x1="-55" y1="755.1" x2="-55" y2="752.3"/>
			<line class="st2" x1="-55" y1="749.4" x2="-55" y2="746.5"/>
			<line class="st2" x1="-55" y1="743.6" x2="-55" y2="740.7"/>
			<line class="st2" x1="-55" y1="737.9" x2="-55" y2="735.7"/>
			<line class="st2" x1="-55" y1="735.7" x2="-54" y2="735.2"/>
			<line class="st2" x1="-51.4" y1="734" x2="-49" y2="732.8"/>
			<line class="st2" x1="-46.3" y1="731.6" x2="-43.7" y2="730.4"/>
			<line class="st2" x1="-41" y1="729.2" x2="-38.4" y2="728"/>
			<line class="st2" x1="-35.8" y1="726.8" x2="-33.1" y2="725.6"/>
			<line class="st2" x1="-30.5" y1="724.4" x2="-27.8" y2="723.2"/>
			<line class="st2" x1="-25.2" y1="722" x2="-22.6" y2="720.8"/>
			<line class="st2" x1="-20.2" y1="719.6" x2="-17.5" y2="718.4"/>
			<line class="st2" x1="-14.9" y1="717.2" x2="-12.2" y2="716"/>
			<line class="st2" x1="-9.6" y1="714.8" x2="-7" y2="713.6"/>
			<line class="st2" x1="-4.3" y1="712.4" x2="-1.7" y2="711.2"/>
			<line class="st2" x1="1" y1="710" x2="1.7" y2="709.8"/>
			<line class="st2" x1="1.7" y1="709.8" x2="1.7" y2="710.7"/>
			<line class="st2" x1="1.7" y1="713.6" x2="1.7" y2="716.5"/>
			<line class="st2" x1="1.7" y1="719.4" x2="1.7" y2="722.3"/>
			<line class="st2" x1="1.7" y1="725.1" x2="1.7" y2="728"/>
			<line class="st2" x1="1.7" y1="730.9" x2="1.7" y2="733.8"/>
			<line class="st2" x1="1.7" y1="736.7" x2="1.7" y2="739.5"/>
			<line class="st2" x1="1.7" y1="742.4" x2="1.7" y2="745.3"/>
			<line class="st2" x1="1.7" y1="748.2" x2="1.7" y2="751.1"/>
			<line class="st2" x1="1.7" y1="753.9" x2="1.7" y2="754.9"/>
			<line class="st2" x1="1.7" y1="957.9" x2="0.7" y2="957.5"/>
			<line class="st2" x1="-1.9" y1="956.3" x2="-4.6" y2="955.1"/>
			<line class="st2" x1="-7" y1="953.9" x2="-9.6" y2="952.9"/>
			<line class="st2" x1="-12.2" y1="951.7" x2="-14.9" y2="950.5"/>
			<line class="st2" x1="-17.5" y1="949.3" x2="-20.2" y2="948.1"/>
			<line class="st2" x1="-22.8" y1="946.9" x2="-25.4" y2="945.7"/>
			<line class="st2" x1="-28.1" y1="944.5" x2="-30.7" y2="943.3"/>
			<line class="st2" x1="-33.4" y1="942.1" x2="-36" y2="940.9"/>
			<line class="st2" x1="-38.6" y1="939.7" x2="-41.3" y2="938.5"/>
			<line class="st2" x1="-43.7" y1="937.3" x2="-46.3" y2="936.1"/>
			<line class="st2" x1="-49" y1="934.9" x2="-51.6" y2="933.7"/>
			<line class="st2" x1="-54.2" y1="932.5" x2="-55" y2="932.3"/>
			<line class="st2" x1="1.7" y1="1006.4" x2="1.7" y2="1007.6"/>
			<line class="st2" x1="1.7" y1="1009.1" x2="1.7" y2="1011.9"/>
			<line class="st2" x1="1.7" y1="1013.4" x2="1.7" y2="1016.3"/>
			<line class="st2" x1="1.7" y1="1017.7" x2="1.7" y2="1020.6"/>
			<line class="st2" x1="1.7" y1="1022" x2="1.7" y2="1024.9"/>
			<line class="st2" x1="1.7" y1="1026.3" x2="1.7" y2="1029.2"/>
			<line class="st2" x1="1.7" y1="1030.7" x2="1.7" y2="1033.5"/>
			<line class="st2" x1="1.7" y1="1035" x2="1.7" y2="1037.9"/>
			<line class="st2" x1="1.7" y1="1039.3" x2="1.7" y2="1042.2"/>
			<line class="st2" x1="1.7" y1="1043.6" x2="1.7" y2="1046.5"/>
			<line class="st2" x1="1.7" y1="1047.9" x2="1.7" y2="1050.8"/>
			<line class="st2" x1="1.7" y1="1052.3" x2="1.7" y2="1055.1"/>
			<line class="st2" x1="1.7" y1="1056.6" x2="1.7" y2="1059.5"/>
			<line class="st2" x1="1.7" y1="1060.9" x2="1.7" y2="1063.8"/>
			<line class="st2" x1="1.7" y1="1065.2" x2="1.7" y2="1068.1"/>
			<line class="st2" x1="1.7" y1="1069.5" x2="1.7" y2="1072.4"/>
			<line class="st2" x1="1.7" y1="1073.9" x2="1.7" y2="1076.7"/>
			<line class="st2" x1="1.7" y1="1078.2" x2="1.7" y2="1081.1"/>
			<line class="st2" x1="1.7" y1="1082.5" x2="1.7" y2="1085.4"/>
			<line class="st2" x1="1.7" y1="1086.8" x2="1.7" y2="1089.7"/>
			<line class="st2" x1="1.7" y1="1091.1" x2="1.7" y2="1094"/>
			<line class="st2" x1="1.7" y1="1095.5" x2="1.7" y2="1098.3"/>
			<line class="st2" x1="1.7" y1="1099.8" x2="1.7" y2="1102.7"/>
			<line class="st2" x1="1.7" y1="1104.1" x2="1.7" y2="1107"/>
			<line class="st2" x1="1.7" y1="1108.4" x2="1.7" y2="1111.3"/>
			<line class="st2" x1="1.7" y1="1112.7" x2="1.7" y2="1115.6"/>
			<line class="st2" x1="1.7" y1="1117.1" x2="1.7" y2="1119.9"/>
			<line class="st2" x1="1.7" y1="1121.4" x2="1.7" y2="1124.3"/>
			<line class="st2" x1="1.7" y1="1125.7" x2="1.7" y2="1128.6"/>
			<line class="st2" x1="1.7" y1="1130" x2="1.7" y2="1132.9"/>
			<line class="st2" x1="1.7" y1="1134.3" x2="1.7" y2="1137.2"/>
			<line class="st2" x1="1.7" y1="1138.7" x2="1.7" y2="1141.5"/>
			<line class="st2" x1="1.7" y1="1143" x2="1.7" y2="1145.9"/>
			<line class="st2" x1="1.7" y1="1147.3" x2="1.7" y2="1150.2"/>
			<line class="st2" x1="1.7" y1="1151.6" x2="1.7" y2="1154.5"/>
			<line class="st2" x1="1.7" y1="1155.9" x2="1.7" y2="1158.8"/>
			<line class="st2" x1="1.7" y1="1160.3" x2="1.7" y2="1163.1"/>
			<line class="st2" x1="957.1" y1="1163.6" x2="957.1" y2="1160.7"/>
			<line class="st2" x1="957.1" y1="1159.3" x2="957.1" y2="1156.4"/>
			<line class="st2" x1="957.1" y1="1155" x2="957.1" y2="1152.1"/>
			<line class="st2" x1="957.1" y1="1150.7" x2="957.1" y2="1147.8"/>
			<line class="st2" x1="957.1" y1="1146.3" x2="957.1" y2="1143.5"/>
			<line class="st2" x1="957.1" y1="1142" x2="957.1" y2="1139.1"/>
			<line class="st2" x1="957.1" y1="1137.7" x2="957.1" y2="1134.8"/>
			<line class="st2" x1="957.1" y1="1133.4" x2="957.1" y2="1130.5"/>
			<line class="st2" x1="957.1" y1="1129.1" x2="957.1" y2="1126.2"/>
			<line class="st2" x1="957.1" y1="1124.7" x2="957.1" y2="1121.9"/>
			<line class="st2" x1="957.1" y1="1120.4" x2="957.1" y2="1117.5"/>
			<line class="st2" x1="957.1" y1="1116.1" x2="957.1" y2="1113.2"/>
			<line class="st2" x1="957.1" y1="1111.8" x2="957.1" y2="1108.9"/>
			<line class="st2" x1="957.1" y1="1107.5" x2="957.1" y2="1104.6"/>
			<line class="st2" x1="957.1" y1="1103.1" x2="957.1" y2="1100.3"/>
			<line class="st2" x1="957.1" y1="1098.8" x2="957.1" y2="1095.9"/>
			<line class="st2" x1="957.1" y1="1094.5" x2="957.1" y2="1091.6"/>
			<line class="st2" x1="957.1" y1="1090.2" x2="957.1" y2="1087.3"/>
			<line class="st2" x1="957.1" y1="1085.9" x2="957.1" y2="1083"/>
			<line class="st2" x1="957.1" y1="1081.5" x2="957.1" y2="1078.7"/>
			<line class="st2" x1="957.1" y1="1077.2" x2="957.1" y2="1074.3"/>
			<line class="st2" x1="957.1" y1="1072.9" x2="957.1" y2="1070"/>
			<line class="st2" x1="957.1" y1="1068.6" x2="957.1" y2="1065.7"/>
			<line class="st2" x1="957.1" y1="1064.3" x2="957.1" y2="1061.4"/>
			<line class="st2" x1="957.1" y1="1059.9" x2="957.1" y2="1057.1"/>
			<line class="st2" x1="957.1" y1="1055.6" x2="957.1" y2="1052.7"/>
			<line class="st2" x1="957.1" y1="1051.3" x2="957.1" y2="1048.4"/>
			<line class="st2" x1="957.1" y1="1047" x2="957.1" y2="1046.3"/>
			<line class="st2" x1="15.8" y1="1006.4" x2="15.8" y2="1008.3"/>
			<line class="st2" x1="15.8" y1="1009.8" x2="15.8" y2="1012.7"/>
			<line class="st2" x1="15.8" y1="1014.1" x2="15.8" y2="1017"/>
			<line class="st2" x1="15.8" y1="1018.4" x2="15.8" y2="1021.3"/>
			<line class="st2" x1="15.8" y1="1022.7" x2="15.8" y2="1025.6"/>
			<line class="st2" x1="15.8" y1="1027.1" x2="15.8" y2="1029.9"/>
			<line class="st2" x1="15.8" y1="1031.4" x2="15.8" y2="1034.3"/>
			<line class="st2" x1="15.8" y1="1035.7" x2="15.8" y2="1038.6"/>
			<line class="st2" x1="15.8" y1="1040" x2="15.8" y2="1042.9"/>
			<line class="st2" x1="15.8" y1="1044.3" x2="15.8" y2="1047.2"/>
			<line class="st2" x1="15.8" y1="1048.7" x2="15.8" y2="1051.5"/>
			<line class="st2" x1="15.8" y1="1053" x2="15.8" y2="1055.9"/>
			<line class="st2" x1="15.8" y1="1057.3" x2="15.8" y2="1060.2"/>
			<line class="st2" x1="15.8" y1="1061.6" x2="15.8" y2="1064.5"/>
			<line class="st2" x1="15.8" y1="1065.9" x2="15.8" y2="1068.8"/>
			<line class="st2" x1="15.8" y1="1070.3" x2="15.8" y2="1073.1"/>
			<line class="st2" x1="15.8" y1="1074.6" x2="15.8" y2="1077.5"/>
			<line class="st2" x1="15.8" y1="1078.9" x2="15.8" y2="1081.8"/>
			<line class="st2" x1="15.8" y1="1083.2" x2="15.8" y2="1086.1"/>
			<line class="st2" x1="15.8" y1="1087.5" x2="15.8" y2="1090.4"/>
			<line class="st2" x1="15.8" y1="1091.9" x2="15.8" y2="1094.7"/>
			<line class="st2" x1="15.8" y1="1096.2" x2="15.8" y2="1099.1"/>
			<line class="st2" x1="15.8" y1="1100.5" x2="15.8" y2="1103.4"/>
			<line class="st2" x1="15.8" y1="1104.8" x2="15.8" y2="1107.7"/>
			<line class="st2" x1="15.8" y1="1109.1" x2="15.8" y2="1112"/>
			<line class="st2" x1="15.8" y1="1113.5" x2="15.8" y2="1116.3"/>
			<line class="st2" x1="15.8" y1="1117.8" x2="15.8" y2="1120.7"/>
			<line class="st2" x1="15.8" y1="1122.1" x2="15.8" y2="1125"/>
			<line class="st2" x1="15.8" y1="1126.4" x2="15.8" y2="1129.3"/>
			<line class="st2" x1="15.8" y1="1130.7" x2="15.8" y2="1133.6"/>
			<line class="st2" x1="15.8" y1="1135.1" x2="15.8" y2="1137.9"/>
			<line class="st2" x1="15.8" y1="1139.4" x2="15.8" y2="1142.3"/>
			<line class="st2" x1="15.8" y1="1143.7" x2="15.8" y2="1146.6"/>
			<line class="st2" x1="15.8" y1="1148" x2="15.8" y2="1150.9"/>
			<line class="st2" x1="15.8" y1="1152.3" x2="15.8" y2="1155.2"/>
			<line class="st2" x1="15.8" y1="1156.7" x2="15.8" y2="1159.5"/>
			<line class="st2" x1="15.8" y1="1161" x2="15.8" y2="1163.9"/>
			<line class="st2" x1="945.6" y1="1160" x2="945.6" y2="1157.1"/>
			<line class="st2" x1="945.6" y1="1155.7" x2="945.6" y2="1152.8"/>
			<line class="st2" x1="945.6" y1="1151.4" x2="945.6" y2="1148.5"/>
			<line class="st2" x1="945.6" y1="1147.1" x2="945.6" y2="1144.2"/>
			<line class="st2" x1="945.6" y1="1142.7" x2="945.6" y2="1139.9"/>
			<line class="st2" x1="945.6" y1="1138.4" x2="945.6" y2="1135.5"/>
			<line class="st2" x1="945.6" y1="1134.1" x2="945.6" y2="1131.2"/>
			<line class="st2" x1="945.6" y1="1129.8" x2="945.6" y2="1126.9"/>
			<line class="st2" x1="945.6" y1="1125.5" x2="945.6" y2="1122.6"/>
			<line class="st2" x1="945.6" y1="1121.1" x2="945.6" y2="1118.3"/>
			<line class="st2" x1="945.6" y1="1116.8" x2="945.6" y2="1113.9"/>
			<line class="st2" x1="945.6" y1="1112.5" x2="945.6" y2="1109.6"/>
			<line class="st2" x1="945.6" y1="1108.2" x2="945.6" y2="1105.3"/>
			<line class="st2" x1="945.6" y1="1103.9" x2="945.6" y2="1101"/>
			<line class="st2" x1="945.6" y1="1099.5" x2="945.6" y2="1096.7"/>
			<line class="st2" x1="945.6" y1="1095.2" x2="945.6" y2="1092.3"/>
			<line class="st2" x1="945.6" y1="1090.9" x2="945.6" y2="1088"/>
			<line class="st2" x1="945.6" y1="1086.6" x2="945.6" y2="1083.7"/>
			<line class="st2" x1="945.6" y1="1082.3" x2="945.6" y2="1079.4"/>
			<line class="st2" x1="945.6" y1="1077.9" x2="945.6" y2="1075.1"/>
			<line class="st2" x1="945.6" y1="1073.6" x2="945.6" y2="1070.7"/>
			<line class="st2" x1="945.6" y1="1069.3" x2="945.6" y2="1066.4"/>
			<line class="st2" x1="945.6" y1="1065" x2="945.6" y2="1062.1"/>
			<line class="st2" x1="945.6" y1="1060.7" x2="945.6" y2="1057.8"/>
			<line class="st2" x1="945.6" y1="1056.3" x2="945.6" y2="1053.5"/>
			<line class="st2" x1="945.6" y1="1052" x2="945.6" y2="1049.1"/>
			<line class="st2" x1="945.6" y1="1047.7" x2="945.6" y2="1046.3"/>
			<line class="st2" x1="1.7" y1="1040" x2="-1" y2="1040"/>
			<line class="st2" x1="-2.4" y1="1040" x2="-5.3" y2="1040"/>
			<line class="st2" x1="-6.7" y1="1040" x2="-9.6" y2="1040"/>
			<line class="st2" x1="-11" y1="1040" x2="-13.9" y2="1040"/>
			<line class="st2" x1="-15.4" y1="1040" x2="-18.2" y2="1040"/>
			<line class="st2" x1="-19.7" y1="1040" x2="-22.6" y2="1040"/>
			<line class="st2" x1="-24" y1="1040" x2="-26.9" y2="1040"/>
			<line class="st2" x1="-28.3" y1="1040" x2="-31.2" y2="1040"/>
			<line class="st2" x1="-32.6" y1="1040" x2="-35.5" y2="1040"/>
			<line class="st2" x1="-37" y1="1040" x2="-39.8" y2="1040"/>
			<line class="st2" x1="-41.3" y1="1040" x2="-44.2" y2="1040"/>
			<line class="st2" x1="-45.6" y1="1040" x2="-48.5" y2="1040"/>
			<line class="st2" x1="-49.9" y1="1040" x2="-52.8" y2="1040"/>
			<line class="st2" x1="-54.2" y1="1040" x2="-57.1" y2="1040"/>
			<line class="st2" x1="-58.6" y1="1040" x2="-61.4" y2="1040"/>
			<line class="st2" x1="-62.9" y1="1040" x2="-65.8" y2="1040"/>
			<line class="st2" x1="-67.2" y1="1040" x2="-70.1" y2="1040"/>
			<line class="st2" x1="-71.5" y1="1040" x2="-74.4" y2="1040"/>
			<line class="st2" x1="-75.8" y1="1040" x2="-78.7" y2="1040"/>
			<line class="st2" x1="-80.2" y1="1040" x2="-83" y2="1040"/>
			<line class="st2" x1="-84.5" y1="1040" x2="-87.4" y2="1040"/>
			<line class="st2" x1="-88.8" y1="1040" x2="-91.7" y2="1040"/>
			<line class="st2" x1="-93.1" y1="1040" x2="-96" y2="1040"/>
			<line class="st2" x1="-97.4" y1="1040" x2="-100.3" y2="1040"/>
			<line class="st2" x1="-101.8" y1="1040" x2="-104.6" y2="1040"/>
			<line class="st2" x1="-106.1" y1="1040" x2="-109" y2="1040"/>
			<line class="st2" x1="-110.4" y1="1040" x2="-113.3" y2="1040"/>
			<line class="st2" x1="-114.7" y1="1040" x2="-117.4" y2="1040"/>
			<line class="st2" x1="1.7" y1="1045.5" x2="-1" y2="1045.5"/>
			<line class="st2" x1="-2.4" y1="1045.5" x2="-5.3" y2="1045.5"/>
			<line class="st2" x1="-6.7" y1="1045.5" x2="-9.6" y2="1045.5"/>
			<line class="st2" x1="-11" y1="1045.5" x2="-13.9" y2="1045.5"/>
			<line class="st2" x1="-15.4" y1="1045.5" x2="-18.2" y2="1045.5"/>
			<line class="st2" x1="-19.7" y1="1045.5" x2="-22.6" y2="1045.5"/>
			<line class="st2" x1="-24" y1="1045.5" x2="-26.9" y2="1045.5"/>
			<line class="st2" x1="-28.3" y1="1045.5" x2="-31.2" y2="1045.5"/>
			<line class="st2" x1="-32.6" y1="1045.5" x2="-35.5" y2="1045.5"/>
			<line class="st2" x1="-37" y1="1045.5" x2="-39.8" y2="1045.5"/>
			<line class="st2" x1="-41.3" y1="1045.5" x2="-44.2" y2="1045.5"/>
			<line class="st2" x1="-45.6" y1="1045.5" x2="-48.5" y2="1045.5"/>
			<line class="st2" x1="-49.9" y1="1045.5" x2="-52.8" y2="1045.5"/>
			<line class="st2" x1="-54.2" y1="1045.5" x2="-57.1" y2="1045.5"/>
			<line class="st2" x1="-58.6" y1="1045.5" x2="-61.4" y2="1045.5"/>
			<line class="st2" x1="-62.9" y1="1045.5" x2="-65.8" y2="1045.5"/>
			<line class="st2" x1="-67.2" y1="1045.5" x2="-70.1" y2="1045.5"/>
			<line class="st2" x1="-71.5" y1="1045.5" x2="-74.4" y2="1045.5"/>
			<line class="st2" x1="-75.8" y1="1045.5" x2="-78.7" y2="1045.5"/>
			<line class="st2" x1="-80.2" y1="1045.5" x2="-83" y2="1045.5"/>
			<line class="st2" x1="-84.5" y1="1045.5" x2="-87.4" y2="1045.5"/>
			<line class="st2" x1="-88.8" y1="1045.5" x2="-91.7" y2="1045.5"/>
			<line class="st2" x1="-93.1" y1="1045.5" x2="-96" y2="1045.5"/>
			<line class="st2" x1="-97.4" y1="1045.5" x2="-100.3" y2="1045.5"/>
			<line class="st2" x1="-101.8" y1="1045.5" x2="-104.6" y2="1045.5"/>
			<line class="st2" x1="-106.1" y1="1045.5" x2="-109" y2="1045.5"/>
			<line class="st2" x1="-110.4" y1="1045.5" x2="-113.3" y2="1045.5"/>
			<line class="st2" x1="-114.7" y1="1045.5" x2="-117.4" y2="1045.5"/>
			<path class="st5" d="M-331.8,483.5l628.2,0.6c3.7,0,7.4,0.7,10.8,2.2c3.4,1.4,6.6,3.5,9.2,6.2c2.6,2.6,4.7,5.8,6.1,9.2
				c1.4,3.4,2.2,7.1,2.2,10.8l-0.1,94.4"/>
			<line class="st5" x1="719" y1="652.2" x2="720" y2="401.6"/>
			<rect x="79.4" y="916.4" class="st1" width="34.1" height="19.9"/>
			<rect x="79.4" y="916.4" class="st5" width="34.1" height="19.9"/>
			<polyline class="st1" points="67.4,905.9 67.4,880.4 125.5,880.4 125.5,905.9 67.4,905.9 			"/>
			<rect x="67.4" y="880.4" class="st5" width="58.1" height="25.4"/>
			<polyline class="st1" points="70.3,905.9 70.3,883.3 122.6,883.3 122.6,905.9 70.3,905.9 			"/>
			<rect x="70.3" y="883.3" class="st5" width="52.3" height="22.6"/>
			<polyline class="st1" points="42.2,914.5 61.7,910.7 66,931.8 46.6,935.6 42.2,914.5 			"/>
			<polygon class="st5" points="42.2,914.5 61.7,910.7 66,931.8 46.6,935.6 			"/>
			<polyline class="st1" points="62.2,913.5 45.6,916.9 48.7,932.3 65.3,928.9 62.2,913.5 			"/>
			<polygon class="st5" points="62.2,913.5 45.6,916.9 48.7,932.3 65.3,928.9 			"/>
			<polyline class="st1" points="146.4,938 126.7,936.3 128.6,914.7 148.6,916.7 146.4,938 			"/>
			<polygon class="st5" points="146.4,938 126.7,936.3 128.6,914.7 148.6,916.7 			"/>
			<polyline class="st1" points="128.4,917.6 145.4,919.3 144,934.9 127,933.5 128.4,917.6 			"/>
			<polygon class="st5" points="128.4,917.6 145.4,919.3 144,934.9 127,933.5 			"/>
			<rect x="239.8" y="916.9" class="st1" width="19.7" height="33.8"/>
			<rect x="239.8" y="916.9" class="st5" width="19.7" height="33.8"/>
			<polyline class="st1" points="229.2,962.7 203.5,962.7 203.5,904.7 229.2,904.7 229.2,962.7 			"/>
			<rect x="203.5" y="904.7" class="st5" width="25.7" height="58.1"/>
			<polyline class="st1" points="229.2,960.1 206.4,960.1 206.4,907.5 229.2,907.5 229.2,960.1 			"/>
			<rect x="206.4" y="907.5" class="st5" width="22.8" height="52.6"/>
			<polyline class="st1" points="237.8,988.2 233.8,968.7 254.9,964.4 259,983.9 237.8,988.2 			"/>
			<polygon class="st5" points="237.8,988.2 233.8,968.7 254.9,964.4 259,983.9 			"/>
			<polyline class="st1" points="236.6,968 240,984.8 255.6,981.7 252.2,964.9 236.6,968 			"/>
			
				<rect x="237.6" y="966.9" transform="matrix(0.1961 0.9806 -0.9806 0.1961 1153.7699 542.3279)" class="st5" width="17.1" height="15.9"/>
			<polyline class="st1" points="261.4,883.8 259.4,903.5 238.1,901.5 239.8,881.9 261.4,883.8 			"/>
			<polygon class="st5" points="261.4,883.8 259.4,903.5 238.1,901.5 239.8,881.9 			"/>
			<polyline class="st1" points="241,901.8 242.4,885 258.2,886.4 256.6,903.2 241,901.8 			"/>
			<polygon class="st5" points="241,901.8 242.4,885 258.2,886.4 256.6,903.2 			"/>
			<rect x="847.7" y="977.4" class="st1" width="34.1" height="19.9"/>
			<rect x="847.7" y="977.4" class="st5" width="34.1" height="19.9"/>
			<polyline class="st1" points="835.7,966.8 835.7,941.4 893.8,941.4 893.8,966.8 835.7,966.8 			"/>
			<rect x="835.7" y="941.4" class="st5" width="58.1" height="25.4"/>
			<polyline class="st1" points="838.6,966.8 838.6,944.3 890.9,944.3 890.9,966.8 838.6,966.8 			"/>
			<rect x="838.6" y="944.3" class="st5" width="52.3" height="22.6"/>
			<polyline class="st1" points="810.5,975.5 829.9,971.6 834,992.7 814.6,996.6 810.5,975.5 			"/>
			<polygon class="st5" points="810.5,975.5 829.9,971.6 834,992.7 814.6,996.6 			"/>
			<polyline class="st1" points="830.4,974.3 813.6,977.6 817,993.2 833.5,989.9 830.4,974.3 			"/>
			<polygon class="st5" points="830.4,974.3 813.6,977.6 817,993.2 833.5,989.9 			"/>
			<polyline class="st1" points="914.6,999 895,997.3 896.9,975.7 916.6,977.6 914.6,999 			"/>
			<polygon class="st5" points="914.6,999 895,997.3 896.9,975.7 916.6,977.6 			"/>
			<polyline class="st1" points="896.6,978.6 913.7,980 912.2,995.9 895.2,994.4 896.6,978.6 			"/>
			<polygon class="st5" points="896.6,978.6 913.7,980 912.2,995.9 895.2,994.4 			"/>
			<path class="st5" d="M149.2,672.8L149.2,672.8c-2.8,0-5.6,0.5-8.1,1.6c-2.6,1.1-4.9,2.6-6.9,4.6s-3.5,4.3-4.6,6.9
				s-1.6,5.3-1.6,8.1h21.3v1.4"/>
			<path class="st5" d="M149.2,765.6L149.2,765.6c-2.8,0-5.6,0.5-8.1,1.6c-2.6,1.1-4.9,2.6-6.9,4.6s-3.5,4.3-4.6,6.9
				s-1.6,5.3-1.6,8.1h21.3v1.4"/>
			<path class="st5" d="M149.2,847.5L149.2,847.5c-2.8,0-5.6,0.6-8.2,1.6s-5,2.7-7,4.7s-3.6,4.4-4.7,7c-1.1,2.6-1.6,5.4-1.6,8.2
				h21.5v1.4"/>
			<path class="st5" d="M191.7,842.1L191.7,842.1c2.8,0,5.6-0.5,8.1-1.6c2.6-1.1,4.9-2.6,6.9-4.6s3.5-4.3,4.6-6.9s1.6-5.3,1.6-8.1
				h-21.3v-1.4"/>
			<path class="st5" d="M273.5,813.8h1.4v21.7c2.9,0,5.7-0.6,8.3-1.7c2.6-1.1,5-2.7,7-4.7s3.6-4.4,4.7-7s1.7-5.5,1.7-8.3"/>
			<path class="st5" d="M410.9,870.5V869h21.3c0-2.8-0.5-5.6-1.6-8.1c-1.1-2.6-2.6-4.9-4.6-6.9s-4.3-3.5-6.9-4.6
				c-2.6-1.1-5.3-1.6-8.1-1.6"/>
			<path class="st5" d="M568,876.1L568,876.1c0-2.8-0.5-5.6-1.6-8.1c-1.1-2.6-2.6-4.9-4.6-6.9s-4.3-3.5-6.9-4.6
				c-2.6-1.1-5.3-1.6-8.1-1.6v21.3h-1.4"/>
			<path class="st5" d="M557.3,910.1L557.3,910.1c0,2.8,0.5,5.5,1.6,8.1s2.6,4.9,4.6,6.8c2,2,4.3,3.5,6.8,4.6
				c2.6,1.1,5.3,1.6,8.1,1.6v-21.1h1.4"/>
			<path class="st5" d="M645.1,910.1L645.1,910.1c0,2.8,0.5,5.5,1.6,8.1s2.6,4.9,4.6,6.9s4.3,3.5,6.9,4.6c2.6,1.1,5.3,1.6,8.1,1.6
				v-21.1h1.4"/>
			<path class="st5" d="M665.8,813.8L665.8,813.8c0,2.8,0.6,5.6,1.6,8.1c1.1,2.6,2.6,4.9,4.6,6.9s4.3,3.5,6.9,4.6
				c2.6,1.1,5.3,1.6,8.1,1.6v-21.3h1.4"/>
			<path class="st1" d="M214.8,864.8v-10.5c0-0.7-0.1-1.3-0.4-1.9c-0.2-0.6-0.6-1.1-1.1-1.6s-1-0.8-1.6-1.1
				c-0.6-0.2-1.2-0.4-1.9-0.4c-0.7,0-1.3,0.1-1.9,0.4c-0.6,0.2-1.1,0.6-1.6,1.1s-0.8,1-1.1,1.6c-0.2,0.6-0.4,1.2-0.4,1.9v10.5H214.8
				"/>
			<path class="st5" d="M214.8,864.8v-10.5c0-0.7-0.1-1.3-0.4-1.9c-0.2-0.6-0.6-1.1-1.1-1.6s-1-0.8-1.6-1.1
				c-0.6-0.2-1.2-0.4-1.9-0.4c-0.7,0-1.3,0.1-1.9,0.4c-0.6,0.2-1.1,0.6-1.6,1.1s-0.8,1-1.1,1.6c-0.2,0.6-0.4,1.2-0.4,1.9v10.5H214.8
				"/>
			<line class="st5" x1="205" y1="861.9" x2="214.8" y2="861.9"/>
			<path class="st1" d="M331.2,827.2h-10.5c-0.7,0-1.3,0.1-1.9,0.4c-0.6,0.2-1.1,0.6-1.6,1.1s-0.8,1-1.1,1.6
				c-0.2,0.6-0.4,1.2-0.4,1.9s0.1,1.3,0.4,1.9c0.2,0.6,0.6,1.1,1.1,1.6s1,0.8,1.6,1.1c0.6,0.2,1.2,0.4,1.9,0.4h10.5V827.2"/>
			<path class="st5" d="M331.2,827.2h-10.5c-0.7,0-1.3,0.1-1.9,0.4c-0.6,0.2-1.1,0.6-1.6,1.1s-0.8,1-1.1,1.6
				c-0.2,0.6-0.4,1.2-0.4,1.9s0.1,1.3,0.4,1.9c0.2,0.6,0.6,1.1,1.1,1.6s1,0.8,1.6,1.1c0.6,0.2,1.2,0.4,1.9,0.4h10.5V827.2"/>
			<line class="st5" x1="328.3" y1="837.2" x2="328.3" y2="827.1"/>
			<path class="st1" d="M425.8,825.1v10.5c0,0.7,0.1,1.3,0.4,1.9c0.2,0.6,0.6,1.1,1.1,1.6s1,0.8,1.6,1.1c0.6,0.2,1.2,0.4,1.9,0.4
				s1.3-0.1,1.9-0.4c0.6-0.2,1.1-0.6,1.6-1.1s0.8-1,1.1-1.6c0.2-0.6,0.4-1.2,0.4-1.9v-10.5H425.8"/>
			<path class="st5" d="M425.8,825.1v10.5c0,0.7,0.1,1.3,0.4,1.9c0.2,0.6,0.6,1.1,1.1,1.6s1,0.8,1.6,1.1c0.6,0.2,1.2,0.4,1.9,0.4
				s1.3-0.1,1.9-0.4c0.6-0.2,1.1-0.6,1.6-1.1s0.8-1,1.1-1.6c0.2-0.6,0.4-1.2,0.4-1.9v-10.5H425.8"/>
			<line class="st5" x1="435.6" y1="827.9" x2="425.8" y2="827.9"/>
			<path class="st1" d="M553.1,825.1v10.5c0,0.7,0.1,1.3,0.4,1.9c0.2,0.6,0.6,1.1,1.1,1.6s1,0.8,1.6,1.1c0.6,0.2,1.2,0.4,1.9,0.4
				s1.3-0.1,1.9-0.4c0.6-0.2,1.1-0.6,1.6-1.1s0.8-1,1.1-1.6c0.2-0.6,0.4-1.2,0.4-1.9v-10.5H553.1"/>
			<path class="st5" d="M553.1,825.1v10.5c0,0.7,0.1,1.3,0.4,1.9c0.2,0.6,0.6,1.1,1.1,1.6s1,0.8,1.6,1.1c0.6,0.2,1.2,0.4,1.9,0.4
				s1.3-0.1,1.9-0.4c0.6-0.2,1.1-0.6,1.6-1.1s0.8-1,1.1-1.6c0.2-0.6,0.4-1.2,0.4-1.9v-10.5H553.1"/>
			<line class="st5" x1="563" y1="827.9" x2="553.2" y2="827.9"/>
			<path class="st1" d="M680.7,864.8v-10.5c0-0.7-0.1-1.3-0.4-1.9c-0.2-0.6-0.6-1.1-1.1-1.6s-1-0.8-1.6-1.1
				c-0.6-0.3-1.2-0.4-1.9-0.4s-1.3,0.1-1.9,0.4c-0.6,0.3-1.1,0.6-1.6,1.1s-0.8,1-1.1,1.6c-0.2,0.6-0.4,1.2-0.4,1.9v10.5H680.7"/>
			<path class="st5" d="M680.7,864.8v-10.5c0-0.7-0.1-1.3-0.4-1.9c-0.2-0.6-0.6-1.1-1.1-1.6s-1-0.8-1.6-1.1
				c-0.6-0.3-1.2-0.4-1.9-0.4s-1.3,0.1-1.9,0.4c-0.6,0.3-1.1,0.6-1.6,1.1s-0.8,1-1.1,1.6c-0.2,0.6-0.4,1.2-0.4,1.9v10.5H680.7"/>
			<line class="st5" x1="670.8" y1="861.9" x2="680.6" y2="861.9"/>
			<path class="st1" d="M755.8,864.8v-10.5c0-0.7-0.1-1.3-0.4-1.9c-0.2-0.6-0.6-1.1-1.1-1.6s-1-0.8-1.6-1.1
				c-0.6-0.2-1.2-0.4-1.9-0.4s-1.3,0.1-1.9,0.4c-0.6,0.2-1.1,0.6-1.6,1.1s-0.8,1-1.1,1.6c-0.2,0.6-0.4,1.2-0.4,1.9v10.5H755.8"/>
			<path class="st5" d="M755.8,864.8v-10.5c0-0.7-0.1-1.3-0.4-1.9c-0.2-0.6-0.6-1.1-1.1-1.6s-1-0.8-1.6-1.1
				c-0.6-0.2-1.2-0.4-1.9-0.4s-1.3,0.1-1.9,0.4c-0.6,0.2-1.1,0.6-1.6,1.1s-0.8,1-1.1,1.6c-0.2,0.6-0.4,1.2-0.4,1.9v10.5H755.8"/>
			<line class="st5" x1="745.9" y1="861.9" x2="755.8" y2="861.9"/>
			<rect x="225.8" y="853.5" class="st1" width="14.2" height="11.3"/>
			<rect x="225.8" y="853.5" class="st5" width="14.2" height="11.3"/>
			<rect x="227.3" y="854.7" class="st1" width="11.3" height="7.2"/>
			<rect x="227.3" y="854.7" class="st5" width="11.3" height="7.2"/>
			<rect x="285.1" y="853.5" class="st1" width="14.2" height="11.3"/>
			<rect x="285.1" y="853.5" class="st5" width="14.2" height="11.3"/>
			<rect x="286.6" y="854.7" class="st1" width="11.3" height="7.2"/>
			<rect x="286.6" y="854.7" class="st5" width="11.3" height="7.2"/>
			<rect x="444.5" y="825" class="st1" width="14.2" height="11.5"/>
			<rect x="444.5" y="825" class="st5" width="14.2" height="11.5"/>
			<rect x="445.9" y="827.9" class="st1" width="11.3" height="7.2"/>
			<rect x="445.9" y="827.9" class="st5" width="11.3" height="7.2"/>
			<rect x="573.6" y="825" class="st1" width="14.2" height="11.5"/>
			<rect x="573.6" y="825" class="st5" width="14.2" height="11.5"/>
			<rect x="575" y="827.9" class="st1" width="11.3" height="7.2"/>
			<rect x="575" y="827.9" class="st5" width="11.3" height="7.2"/>
			<rect x="650.9" y="853.5" class="st1" width="14.4" height="11.3"/>
			<rect x="650.9" y="853.5" class="st5" width="14.4" height="11.3"/>
			<rect x="652.3" y="855" class="st1" width="11.5" height="7"/>
			<rect x="652.3" y="855" class="st5" width="11.5" height="7"/>
			<rect x="721.2" y="853.5" class="st1" width="14.2" height="11.3"/>
			<rect x="721.2" y="853.5" class="st5" width="14.2" height="11.3"/>
			<rect x="722.4" y="855" class="st1" width="11.5" height="7"/>
			<rect x="722.4" y="855" class="st5" width="11.5" height="7"/>
			<polyline class="st1" points="247.9,870.3 247.9,819.5 270.7,819.5 270.7,870.3 247.9,870.3 			"/>
			<rect x="247.9" y="819.5" class="st5" width="22.8" height="50.9"/>
			<path class="st1" d="M250,821.5h18.5v36.4c0,1.2-0.2,2.4-0.7,3.5c-0.5,1.1-1.1,2.1-2,3c-0.9,0.9-1.9,1.5-3,2s-2.3,0.7-3.5,0.7
				s-2.4-0.2-3.5-0.7s-2.1-1.1-3-2c-0.9-0.9-1.5-1.9-2-3c-0.5-1.1-0.7-2.3-0.7-3.5L250,821.5"/>
			<path class="st5" d="M250,821.5h18.5v36.4c0,1.2-0.2,2.4-0.7,3.5c-0.5,1.1-1.1,2.1-2,3c-0.9,0.9-1.9,1.5-3,2s-2.3,0.7-3.5,0.7
				s-2.4-0.2-3.5-0.7s-2.1-1.1-3-2c-0.9-0.9-1.5-1.9-2-3c-0.5-1.1-0.7-2.3-0.7-3.5L250,821.5"/>
			<path class="st1" d="M260.2,826.7c0-0.5-0.4-1-1-1c-0.5,0-1,0.4-1,1c0,0.5,0.4,1,1,1C259.7,827.6,260.2,827.2,260.2,826.7"/>
			<path class="st5" d="M260.2,826.7c0-0.5-0.4-1-1-1c-0.5,0-1,0.4-1,1c0,0.5,0.4,1,1,1C259.7,827.6,260.2,827.2,260.2,826.7"/>
			<polyline class="st1" points="595,870.3 595,819.5 617.5,819.5 617.5,870.3 595,870.3 			"/>
			<rect x="595" y="819.5" class="st5" width="22.6" height="50.9"/>
			<path class="st1" d="M597,821.5h18.5v36.4c0,1.2-0.2,2.4-0.7,3.5c-0.5,1.1-1.1,2.1-2,3c-0.9,0.9-1.9,1.5-3,2s-2.3,0.7-3.5,0.7
				s-2.4-0.2-3.5-0.7s-2.1-1.1-3-2c-0.9-0.9-1.5-1.9-2-3c-0.5-1.1-0.7-2.3-0.7-3.5L597,821.5"/>
			<path class="st5" d="M597,821.5h18.5v36.4c0,1.2-0.2,2.4-0.7,3.5c-0.5,1.1-1.1,2.1-2,3c-0.9,0.9-1.9,1.5-3,2s-2.3,0.7-3.5,0.7
				s-2.4-0.2-3.5-0.7s-2.1-1.1-3-2c-0.9-0.9-1.5-1.9-2-3c-0.5-1.1-0.7-2.3-0.7-3.5L597,821.5"/>
			<path class="st1" d="M607.2,826.7c0-0.5-0.4-1-1-1s-1,0.4-1,1c0,0.5,0.4,1,1,1S607.2,827.2,607.2,826.7"/>
			<path class="st5" d="M607.2,826.7c0-0.5-0.4-1-1-1s-1,0.4-1,1c0,0.5,0.4,1,1,1S607.2,827.2,607.2,826.7"/>
			<polyline class="st1" points="691.2,870.6 691.2,819.5 714,819.5 714,870.6 691.2,870.6 			"/>
			<rect x="691.2" y="819.5" class="st5" width="22.8" height="51.1"/>
			<path class="st1" d="M693.4,821.5h18.5v36.4c0,1.2-0.2,2.4-0.7,3.5c-0.5,1.1-1.1,2.1-2,3c-0.9,0.9-1.9,1.5-3,2s-2.3,0.7-3.5,0.7
				s-2.4-0.2-3.5-0.7s-2.1-1.1-3-2c-0.9-0.9-1.5-1.9-2-3c-0.5-1.1-0.7-2.3-0.7-3.5L693.4,821.5"/>
			<path class="st5" d="M693.4,821.5h18.5v36.4c0,1.2-0.2,2.4-0.7,3.5c-0.5,1.1-1.1,2.1-2,3c-0.9,0.9-1.9,1.5-3,2s-2.3,0.7-3.5,0.7
				s-2.4-0.2-3.5-0.7s-2.1-1.1-3-2c-0.9-0.9-1.5-1.9-2-3c-0.5-1.1-0.7-2.3-0.7-3.5L693.4,821.5"/>
			<path class="st1" d="M703.7,826.7c0-0.5-0.4-1-1-1c-0.5,0-1,0.4-1,1c0,0.5,0.4,1,1,1C703.2,827.6,703.7,827.2,703.7,826.7"/>
			<path class="st5" d="M703.7,826.7c0-0.5-0.4-1-1-1c-0.5,0-1,0.4-1,1c0,0.5,0.4,1,1,1C703.2,827.6,703.7,827.2,703.7,826.7"/>
			<rect x="308.4" y="847.8" class="st1" width="22.8" height="22.6"/>
			<rect x="308.4" y="847.8" class="st5" width="22.8" height="22.6"/>
			<rect x="310.1" y="849.2" class="st1" width="19.9" height="19.9"/>
			<rect x="310.1" y="849.2" class="st5" width="19.9" height="19.9"/>
			<path class="st1" d="M328.6,867c0-0.5-0.4-1-1-1s-1,0.4-1,1c0,0.5,0.4,1,1,1S328.6,867.5,328.6,867"/>
			<path class="st5" d="M328.6,867c0-0.5-0.4-1-1-1s-1,0.4-1,1c0,0.5,0.4,1,1,1S328.6,867.5,328.6,867"/>
			<rect x="623.3" y="847.8" class="st1" width="22.6" height="22.8"/>
			<rect x="623.3" y="847.8" class="st5" width="22.6" height="22.8"/>
			<rect x="624.7" y="849.5" class="st1" width="19.9" height="19.7"/>
			<rect x="624.7" y="849.5" class="st5" width="19.9" height="19.7"/>
			<path class="st1" d="M627.8,867c0-0.5-0.4-1-1-1s-1,0.4-1,1c0,0.5,0.4,1,1,1S627.8,867.5,627.8,867"/>
			<path class="st5" d="M627.8,867c0-0.5-0.4-1-1-1s-1,0.4-1,1c0,0.5,0.4,1,1,1S627.8,867.5,627.8,867"/>
			<polyline points="524.8,596.1 529.9,601.2 535,596.1 524.8,596.1 			"/>
			<polyline class="st5" points="524.8,596.1 529.9,601.2 535,596.1 524.8,596.1 			"/>
			<rect x="465.8" y="819.5" class="st1" width="22.8" height="22.6"/>
			<rect x="465.8" y="819.5" class="st5" width="22.8" height="22.6"/>
			<rect x="467.3" y="820.7" class="st1" width="19.9" height="19.9"/>
			<rect x="467.3" y="820.7" class="st5" width="19.9" height="19.9"/>
			<path class="st1" d="M486,823.1c0-0.5-0.4-1-1-1c-0.5,0-1,0.4-1,1c0,0.5,0.4,1,1,1C485.6,824,486,823.6,486,823.1"/>
			<path class="st5" d="M486,823.1c0-0.5-0.4-1-1-1c-0.5,0-1,0.4-1,1c0,0.5,0.4,1,1,1C485.6,824,486,823.6,486,823.1"/>
			<polyline class="st5" points="492.4,745.2 497.6,740.1 492.4,734.9 			"/>
		</g>
		<g class="st6">
			<path class="st7" d="M-112,1063.5h-3.2c-0.1,0-0.2,0-0.3,0l0,0c0,0.1,0,0.2,0,0.3v1.5c0,0.1,0,0.2,0,0.3l0,0c0.1,0,0.2,0,0.3,0
				h2.8v1.2h-2.8c-0.1,0-0.2,0-0.3,0l0,0c0,0.1,0,0.2,0,0.3v2.2c0,0.2,0,0.3,0,0.3l0,0c0.1,0,0.2,0,0.3,0h3.3v1.2h-4.8v-8.4h4.8
				V1063.5z"/>
			<path class="st7" d="M-103.5,1063.3l-0.8,1c-0.5-0.5-1.4-0.9-2.4-0.9c-1.9,0-3,1.3-3,3.1c0,1.8,1.2,3.1,3.1,3.1
				c1.9,0,2.8-1.4,2.9-2.4l0,0c-0.1,0.1-0.3,0.1-0.8,0.1h-2v-1.2h4.2v0.5c0,2.2-1.4,4.4-4.2,4.4c-2.5,0-4.5-1.7-4.5-4.4
				c0-2.6,1.8-4.4,4.5-4.4C-105.2,1062.2-104.2,1062.7-103.5,1063.3z"/>
		</g>
	</g>
</g>
</svg>
