<?xml version="1.0" encoding="utf-8"?>
<!-- Generator: Adobe Illustrator 19.1.0, SVG Export Plug-In . SVG Version: 6.00 Build 0)  -->
<svg version="1.1" id="Ebene_1" xmlns="http://www.w3.org/2000/svg" xmlns:xlink="http://www.w3.org/1999/xlink" x="0px" y="0px"
	 viewBox="-201 441 1280 720" style="enable-background:new -201 441 1280 720;" xml:space="preserve">
<style type="text/css">
	.st0{fill:#FFFFFF;}
	.st1{fill:none;stroke:#000000;stroke-width:0.144;stroke-linecap:round;stroke-linejoin:round;stroke-miterlimit:10;}
	.st2{fill:none;stroke:#000000;stroke-width:0.216;stroke-linecap:round;stroke-linejoin:round;stroke-miterlimit:10;}
	.st3{fill:none;stroke:#000000;stroke-width:0.25;stroke-linecap:round;stroke-linejoin:round;stroke-miterlimit:10;}
	.st4{fill:none;stroke:#8C8C8C;stroke-width:0.144;stroke-linecap:round;stroke-linejoin:round;stroke-miterlimit:10;}
	.st5{enable-background:new    ;}
</style>
<rect x="419" y="614.3" class="st0" width="38.8" height="86.7"/>
<rect x="419" y="614.3" class="st1" width="38.8" height="86.7"/>
<polyline class="st0" points="566.4,614.8 566.4,588.9 522,588.9 522,656.6 556.1,656.6 556.1,614.8 566.4,614.8 "/>
<polygon class="st1" points="566.4,614.8 566.4,588.9 522,588.9 522,656.6 556.1,656.6 556.1,614.8 "/>
<polyline class="st0" points="563,614.8 563,592.8 525.9,592.8 525.9,656.6 556.1,656.6 556.1,614.8 563,614.8 "/>
<polygon class="st1" points="563,614.8 563,592.8 525.9,592.8 525.9,656.6 556.1,656.6 556.1,614.8 "/>
<rect x="556.1" y="614.8" class="st0" width="153.9" height="86.2"/>
<rect x="556.1" y="614.8" class="st1" width="153.9" height="86.2"/>
<polyline class="st0" points="134.9,654 292.3,654 292.3,776.4 134.9,776.4 134.9,654 "/>
<rect x="134.9" y="654" class="st1" width="157.4" height="122.4"/>
<rect x="419" y="717.8" class="st0" width="157.8" height="135.4"/>
<rect x="419" y="717.8" class="st1" width="157.8" height="135.4"/>
<rect x="452.2" y="886.4" class="st0" width="35.4" height="109.5"/>
<rect x="452.2" y="886.4" class="st1" width="35.4" height="109.5"/>
<path class="st1" d="M536.9,862.3h14.8v-8.9 M418.8,942.5v-8.9h14.8v-8.9h14.8v-8.9h14.8v-8.9H478V898h14.8v-9h14.8v-8.9h14.8v-8.9"
	/>
<polyline class="st1" points="419,798.9 419,789.8 433.7,789.8 433.7,781.2 448.3,781.2 448.3,772.1 463,772.1 463,763.5 
	478.1,763.5 478.1,754.4 492.7,754.4 492.7,745.4 507.4,745.4 507.4,736.8 522,736.8 522,727.7 537.1,727.7 537.1,718.7 
	551.8,718.7 551.8,710 566.4,710 566.4,701 "/>
<polyline points="718.6,939.4 718.6,1003.2 525.5,1003.2 525.5,870.8 718.6,870.8 718.6,903.6 732.8,903.6 732.8,779.5 718.6,779.5 
	718.6,860.5 338,860.5 338,870.8 512.6,870.8 512.6,1003.2 352.6,1003.2 352.6,959.7 352.6,949.7 127.6,949.7 127.6,855.8 
	112.9,855.8 112.9,959.7 338,959.7 338,1013.1 732.8,1013.1 732.8,939.4 718.6,939.4 "/>
<polygon class="st2" points="718.6,939.4 718.6,1003.2 525.5,1003.2 525.5,870.8 718.6,870.8 718.6,903.6 732.8,903.6 732.8,779.5 
	718.6,779.5 718.6,860.5 338,860.5 338,870.8 512.6,870.8 512.6,1003.2 352.6,1003.2 352.6,959.7 352.6,949.7 127.6,949.7 
	127.6,855.8 112.9,855.8 112.9,959.7 338,959.7 338,1013.1 732.8,1013.1 732.8,939.4 "/>
<polyline points="127.6,776.9 112.9,776.9 112.9,817.8 127.6,817.8 127.6,812.2 352.6,812.2 352.6,802.7 127.6,802.7 127.6,776.9 
	"/>
<polygon class="st2" points="127.6,776.9 112.9,776.9 112.9,817.8 127.6,817.8 127.6,812.2 352.6,812.2 352.6,802.7 127.6,802.7 "/>
<polyline points="419,717.8 718.6,717.8 718.6,751.4 732.8,751.4 732.8,632.9 718.6,632.9 718.6,705.3 419,705.3 419,717.8 "/>
<polygon class="st2" points="419,717.8 718.6,717.8 718.6,751.4 732.8,751.4 732.8,632.9 718.6,632.9 718.6,705.3 419,705.3 "/>
<polyline points="419,601.4 569.5,550.5 718.6,604.9 732.8,604.9 732.8,587.6 569.5,528.1 419,578.6 419,601.4 "/>
<polygon class="st2" points="419,601.4 569.5,550.5 718.6,604.9 732.8,604.9 732.8,587.6 569.5,528.1 419,578.6 "/>
<polyline points="127.6,748.8 127.6,574.2 351.7,623.8 352.6,623.4 352.6,601 350.5,601.4 112.9,548.8 112.9,748.8 127.6,748.8 "/>
<polygon class="st2" points="127.6,748.8 127.6,574.2 351.7,623.8 352.6,623.4 352.6,601 350.5,601.4 112.9,548.8 112.9,748.8 "/>
<polyline class="st0" points="419,578.6 419,601.4 352.6,623.4 352.6,601 419,578.6 "/>
<polygon class="st1" points="419,578.6 419,601.4 352.6,623.4 352.6,601 "/>
<rect x="127.6" y="942.4" class="st0" width="225" height="7.3"/>
<rect x="127.6" y="942.4" class="st1" width="225" height="7.3"/>
<rect x="127.6" y="798.9" class="st0" width="225" height="3.9"/>
<rect x="127.6" y="798.9" class="st1" width="225" height="3.9"/>
<rect x="352.6" y="853.2" class="st0" width="366" height="7.3"/>
<rect x="352.6" y="853.2" class="st1" width="366" height="7.3"/>
<rect x="419" y="701" class="st0" width="299.6" height="4.3"/>
<rect x="419" y="701" class="st1" width="299.6" height="4.3"/>
<rect x="352.6" y="995.9" class="st0" width="159.9" height="7.3"/>
<rect x="352.6" y="995.9" class="st1" width="159.9" height="7.3"/>
<line class="st1" x1="352.6" y1="942.4" x2="419" y2="942.4"/>
<line class="st1" x1="352.6" y1="942.4" x2="419" y2="942.4"/>
<line class="st1" x1="419" y1="951.5" x2="352.6" y2="951.5"/>
<line class="st1" x1="352.6" y1="960.1" x2="419" y2="960.1"/>
<line class="st1" x1="352.6" y1="969.1" x2="419" y2="969.1"/>
<line class="st1" x1="352.6" y1="978.2" x2="419" y2="978.2"/>
<line class="st1" x1="352.6" y1="986.8" x2="419" y2="986.8"/>
<line class="st1" x1="419" y1="942.4" x2="419" y2="995.9"/>
<line class="st1" x1="352.6" y1="798.9" x2="419" y2="798.9"/>
<line class="st1" x1="352.6" y1="807.9" x2="419" y2="807.9"/>
<line class="st1" x1="352.6" y1="817" x2="419" y2="817"/>
<line class="st1" x1="352.6" y1="826" x2="419" y2="826"/>
<line class="st1" x1="352.6" y1="835.1" x2="419" y2="835.1"/>
<line class="st1" x1="352.6" y1="844.1" x2="419" y2="844.1"/>
<line class="st1" x1="419" y1="798.9" x2="419" y2="853.2"/>
<line class="st1" x1="352.6" y1="812.2" x2="352.6" y2="853.2"/>
<rect x="492.3" y="951.9" class="st0" width="20.3" height="12.9"/>
<rect x="492.3" y="951.9" class="st1" width="20.3" height="12.9"/>
<line class="st1" x1="267.3" y1="942.4" x2="267.3" y2="812.2"/>
<polyline class="st0" points="338,888.1 338,889.4 350,889.4 350,888.1 338,888.1 "/>
<rect x="338" y="888.1" class="st1" width="12.1" height="1.3"/>
<polyline class="st0" points="338,905.8 338,907.1 350,907.1 350,905.8 338,905.8 "/>
<rect x="338" y="905.8" class="st1" width="12.1" height="1.3"/>
<polyline class="st0" points="338,923.9 338,925.2 350,925.2 350,923.9 338,923.9 "/>
<rect x="338" y="923.9" class="st1" width="12.1" height="1.3"/>
<polyline class="st0" points="350,942.4 350,870.8 352.6,870.8 352.6,942.4 350,942.4 "/>
<rect x="350" y="870.8" class="st1" width="2.6" height="71.6"/>
<rect x="338" y="812.2" class="st0" width="14.7" height="48.3"/>
<rect x="338" y="812.2" class="st1" width="14.7" height="48.3"/>
<line class="st1" x1="347.4" y1="812.2" x2="347.4" y2="860.5"/>
<rect x="682.8" y="805.3" class="st0" width="35.8" height="47.9"/>
<rect x="682.8" y="805.3" class="st1" width="35.8" height="47.9"/>
<line class="st1" x1="632.4" y1="853.2" x2="632.4" y2="717.8"/>
<line class="st1" x1="682.8" y1="805.3" x2="682.8" y2="717.8"/>
<line class="st1" x1="338" y1="870.8" x2="338" y2="942.4"/>
<rect x="328.5" y="764.8" class="st0" width="24.1" height="34.1"/>
<rect x="328.5" y="764.8" class="st1" width="24.1" height="34.1"/>
<polyline class="st0" points="328.5,798.9 328.5,764.8 330.2,764.8 330.2,798.9 328.5,798.9 "/>
<rect x="328.5" y="764.8" class="st1" width="1.7" height="34.1"/>
<polyline class="st0" points="330.2,775.1 352.6,775.1 352.6,776.9 330.2,776.9 330.2,775.1 "/>
<rect x="330.2" y="775.1" class="st1" width="22.4" height="1.7"/>
<polyline class="st0" points="350.9,775.1 350.9,764.8 352.6,764.8 352.6,775.1 350.9,775.1 "/>
<rect x="350.9" y="764.8" class="st1" width="1.7" height="10.3"/>
<path class="st0" d="M146.7,656.6V774h45.6V656.6H146.7 M195,656.6V774h46.3V656.6H195 M244,656.6V774h45.7V656.6H244 M292.3,776.6
	H144.1V653.9h148.2V776.6"/>
<path class="st1" d="M146.7,656.6V774h45.6V656.6H146.7 M195,656.6V774h46.3V656.6H195 M244,656.6V774h45.7V656.6H244 M292.3,776.6
	H144.1V653.9h148.2V776.6"/>
<polyline class="st0" points="146.5,675.6 192.2,675.6 192.2,676.8 146.5,676.8 146.5,675.6 "/>
<rect x="146.5" y="675.6" class="st1" width="45.7" height="1.3"/>
<polyline class="st0" points="146.5,695 192.2,695 192.2,696.2 146.5,696.2 146.5,695 "/>
<rect x="146.5" y="695" class="st1" width="45.7" height="1.3"/>
<polyline class="st0" points="146.5,714.8 192.2,714.8 192.2,716.1 146.5,716.1 146.5,714.8 "/>
<rect x="146.5" y="714.8" class="st1" width="45.7" height="1.3"/>
<polyline class="st0" points="146.5,734.2 192.2,734.2 192.2,735.5 146.5,735.5 146.5,734.2 "/>
<rect x="146.5" y="734.2" class="st1" width="45.7" height="1.3"/>
<polyline class="st0" points="146.5,753.6 192.2,753.6 192.2,754.9 146.5,754.9 146.5,753.6 "/>
<rect x="146.5" y="753.6" class="st1" width="45.7" height="1.3"/>
<line class="st1" x1="184" y1="656.6" x2="184" y2="773.8"/>
<polyline class="st0" points="194.8,675.6 241.4,675.6 241.4,676.8 194.8,676.8 194.8,675.6 "/>
<rect x="194.8" y="675.6" class="st1" width="46.6" height="1.3"/>
<polyline class="st0" points="194.8,695 241.4,695 241.4,696.2 194.8,696.2 194.8,695 "/>
<rect x="194.8" y="695" class="st1" width="46.6" height="1.3"/>
<polyline class="st0" points="194.8,714.8 241.4,714.8 241.4,716.1 194.8,716.1 194.8,714.8 "/>
<rect x="194.8" y="714.8" class="st1" width="46.6" height="1.3"/>
<polyline class="st0" points="194.8,734.2 241.4,734.2 241.4,735.5 194.8,735.5 194.8,734.2 "/>
<rect x="194.8" y="734.2" class="st1" width="46.6" height="1.3"/>
<polyline class="st0" points="194.8,753.6 241.4,753.6 241.4,754.9 194.8,754.9 194.8,753.6 "/>
<rect x="194.8" y="753.6" class="st1" width="46.6" height="1.3"/>
<polyline class="st0" points="244,675.6 289.7,675.6 289.7,676.8 244,676.8 244,675.6 "/>
<rect x="244" y="675.6" class="st1" width="45.7" height="1.3"/>
<polyline class="st0" points="244,695 289.7,695 289.7,696.2 244,696.2 244,695 "/>
<rect x="244" y="695" class="st1" width="45.7" height="1.3"/>
<polyline class="st0" points="244,714.8 289.7,714.8 289.7,716.1 244,716.1 244,714.8 "/>
<rect x="244" y="714.8" class="st1" width="45.7" height="1.3"/>
<polyline class="st0" points="244,734.2 289.7,734.2 289.7,735.5 244,735.5 244,734.2 "/>
<rect x="244" y="734.2" class="st1" width="45.7" height="1.3"/>
<polyline class="st0" points="244,753.6 289.7,753.6 289.7,754.9 244,754.9 244,753.6 "/>
<rect x="244" y="753.6" class="st1" width="45.7" height="1.3"/>
<line class="st1" x1="232.8" y1="656.6" x2="232.8" y2="773.8"/>
<line class="st1" x1="281" y1="656.6" x2="281" y2="773.8"/>
<polyline class="st0" points="352.6,623.4 352.6,709.6 419,709.6 419,601.4 352.6,623.4 "/>
<polygon class="st1" points="352.6,623.4 352.6,709.6 419,709.6 419,601.4 "/>
<polyline class="st0" points="356.1,626 356.1,705.7 415.1,705.7 415.1,606.1 356.1,626 "/>
<polygon class="st1" points="356.1,626 356.1,705.7 415.1,705.7 415.1,606.1 "/>
<polyline class="st0" points="352.6,709.6 352.6,798.9 419,798.9 419,709.6 352.6,709.6 "/>
<rect x="352.6" y="709.6" class="st1" width="66.4" height="89.2"/>
<polyline class="st0" points="356.1,713.1 356.1,795.4 415.1,795.4 415.1,713.1 356.1,713.1 "/>
<rect x="356.1" y="713.1" class="st1" width="59.1" height="82.3"/>
<rect x="112.9" y="748.8" class="st0" width="14.7" height="28"/>
<rect x="112.9" y="748.8" class="st1" width="14.7" height="28"/>
<rect x="112.9" y="817.8" class="st0" width="14.7" height="37.9"/>
<rect x="112.9" y="817.8" class="st1" width="14.7" height="37.9"/>
<rect x="718.6" y="903.6" class="st0" width="14.2" height="35.8"/>
<rect x="718.6" y="903.6" class="st1" width="14.2" height="35.8"/>
<rect x="718.6" y="751.4" class="st0" width="14.2" height="28"/>
<rect x="718.6" y="751.4" class="st1" width="14.2" height="28"/>
<rect x="718.6" y="604.9" class="st0" width="14.2" height="28"/>
<rect x="718.6" y="604.9" class="st1" width="14.2" height="28"/>
<line class="st1" x1="118.1" y1="748.8" x2="118.1" y2="776.9"/>
<line class="st1" x1="727.7" y1="604.9" x2="727.7" y2="632.9"/>
<line class="st1" x1="727.7" y1="751.4" x2="727.7" y2="779.5"/>
<line class="st1" x1="352.6" y1="606.1" x2="419" y2="584.2"/>
<line class="st1" x1="112.9" y1="892.9" x2="-258" y2="893.7"/>
<rect x="419" y="657" class="st0" width="20.3" height="44"/>
<rect x="419" y="657" class="st1" width="20.3" height="44"/>
<polyline class="st0" points="419,675.1 439.3,675.1 439.3,676.4 419,676.4 419,675.1 "/>
<rect x="419" y="675.1" class="st1" width="20.3" height="1.3"/>
<polyline class="st0" points="419,693.2 439.3,693.2 439.3,694.5 419,694.5 419,693.2 "/>
<rect x="419" y="693.2" class="st1" width="20.3" height="1.3"/>
<polyline class="st0" points="419,657 439.3,657 439.3,658.3 419,658.3 419,657 "/>
<rect x="419" y="657" class="st1" width="20.3" height="1.3"/>
<polyline class="st0" points="419.9,676.4 419.9,693.2 419,693.2 419,676.4 419.9,676.4 "/>
<rect x="419" y="676.4" class="st1" width="0.9" height="16.8"/>
<line class="st3" x1="1093" y1="867.3" x2="763.5" y2="867"/>
<line class="st1" x1="430.2" y1="614.3" x2="430.2" y2="618.6"/>
<line class="st1" x1="430.2" y1="623.8" x2="430.2" y2="629"/>
<line class="st1" x1="430.2" y1="634.2" x2="430.2" y2="639.3"/>
<line class="st1" x1="430.2" y1="644.5" x2="430.2" y2="649.7"/>
<line class="st1" x1="430.2" y1="654.9" x2="430.2" y2="660"/>
<line class="st1" x1="430.2" y1="665.2" x2="430.2" y2="670.4"/>
<line class="st1" x1="430.2" y1="675.6" x2="430.2" y2="680.7"/>
<line class="st1" x1="430.2" y1="685.9" x2="430.2" y2="691.1"/>
<line class="st1" x1="430.2" y1="696.2" x2="430.2" y2="701"/>
<polyline class="st1" points="524.2,701 524.2,673 556.1,673 "/>
<line class="st1" x1="556.1" y1="673" x2="557.8" y2="673"/>
<line class="st1" x1="563" y1="673" x2="564.7" y2="673"/>
<line class="st1" x1="564.7" y1="673" x2="564.7" y2="674.3"/>
<line class="st1" x1="564.7" y1="679.4" x2="564.7" y2="684.6"/>
<line class="st1" x1="564.7" y1="689.8" x2="564.7" y2="695"/>
<line class="st1" x1="564.7" y1="700.1" x2="564.7" y2="701"/>
<line class="st1" x1="564.7" y1="673" x2="564.7" y2="667.8"/>
<line class="st1" x1="564.7" y1="662.6" x2="564.7" y2="657.4"/>
<line class="st1" x1="564.7" y1="652.3" x2="564.7" y2="647.1"/>
<line class="st1" x1="564.7" y1="641.9" x2="564.7" y2="636.8"/>
<line class="st1" x1="564.7" y1="631.6" x2="564.7" y2="626.4"/>
<line class="st1" x1="564.7" y1="621.2" x2="564.7" y2="616.1"/>
<line class="st1" x1="564.7" y1="615.6" x2="564.7" y2="614.8"/>
<line class="st1" x1="572.5" y1="614.8" x2="572.5" y2="619.1"/>
<line class="st1" x1="572.5" y1="624.3" x2="572.5" y2="629.4"/>
<line class="st1" x1="572.5" y1="634.6" x2="572.5" y2="639.8"/>
<line class="st1" x1="572.5" y1="644.9" x2="572.5" y2="650.1"/>
<line class="st1" x1="572.5" y1="655.3" x2="572.5" y2="660.5"/>
<line class="st1" x1="572.5" y1="665.6" x2="572.5" y2="670.8"/>
<line class="st1" x1="572.5" y1="676" x2="572.5" y2="681.2"/>
<line class="st1" x1="572.5" y1="686.3" x2="572.5" y2="691.5"/>
<line class="st1" x1="572.5" y1="696.7" x2="572.5" y2="701"/>
<line class="st1" x1="457.8" y1="656.6" x2="556.1" y2="656.6"/>
<line class="st1" x1="603.1" y1="701" x2="603.1" y2="696.7"/>
<line class="st1" x1="603.1" y1="691.5" x2="603.1" y2="686.3"/>
<line class="st1" x1="603.1" y1="681.2" x2="603.1" y2="676"/>
<line class="st1" x1="603.1" y1="670.8" x2="603.1" y2="665.6"/>
<line class="st1" x1="603.1" y1="660.5" x2="603.1" y2="655.3"/>
<line class="st1" x1="603.1" y1="650.1" x2="603.1" y2="644.9"/>
<line class="st1" x1="603.1" y1="639.8" x2="603.1" y2="634.6"/>
<line class="st1" x1="603.1" y1="629.4" x2="603.1" y2="624.3"/>
<line class="st1" x1="603.1" y1="619.1" x2="603.1" y2="614.8"/>
<line class="st1" x1="710" y1="629.9" x2="707" y2="629.9"/>
<line class="st1" x1="701.8" y1="629.9" x2="696.6" y2="629.9"/>
<line class="st1" x1="691.5" y1="629.9" x2="688" y2="629.9"/>
<line class="st1" x1="688" y1="629.9" x2="688" y2="632"/>
<line class="st1" x1="688" y1="637.2" x2="688" y2="642.4"/>
<line class="st1" x1="688" y1="647.5" x2="688" y2="652.7"/>
<line class="st1" x1="688" y1="657.9" x2="688" y2="663.1"/>
<line class="st1" x1="688" y1="668.2" x2="688" y2="673.4"/>
<line class="st1" x1="688" y1="678.6" x2="688" y2="683.7"/>
<line class="st1" x1="688" y1="688.9" x2="688" y2="694.1"/>
<line class="st1" x1="688" y1="699.3" x2="688" y2="701"/>
<line class="st1" x1="710" y1="629.9" x2="718.6" y2="629.9"/>
<line class="st1" x1="118.1" y1="817.8" x2="118.1" y2="855.8"/>
<rect x="757" y="863.9" width="6.5" height="83.2"/>
<rect x="757" y="863.9" class="st2" width="6.5" height="83.2"/>
<polyline class="st0" points="732.8,863.9 757,863.9 757,944.6 732.8,944.6 732.8,863.9 "/>
<rect x="732.8" y="863.9" class="st1" width="24.1" height="80.6"/>
<line class="st4" x1="360.8" y1="624.7" x2="360.8" y2="705.7"/>
<line class="st4" x1="367.7" y1="622.1" x2="367.7" y2="705.7"/>
<line class="st4" x1="375" y1="619.5" x2="375" y2="705.7"/>
<line class="st4" x1="381.9" y1="617.4" x2="381.9" y2="705.7"/>
<line class="st4" x1="389.3" y1="614.8" x2="389.3" y2="705.7"/>
<line class="st4" x1="396.6" y1="612.6" x2="396.6" y2="705.7"/>
<line class="st4" x1="403.5" y1="610" x2="403.5" y2="705.7"/>
<line class="st4" x1="410.8" y1="607.9" x2="410.8" y2="705.7"/>
<line class="st4" x1="360.8" y1="713.1" x2="360.8" y2="795.4"/>
<line class="st4" x1="367.7" y1="713.1" x2="367.7" y2="795.4"/>
<line class="st4" x1="375" y1="713.1" x2="375" y2="795.4"/>
<line class="st4" x1="381.9" y1="713.1" x2="381.9" y2="795.4"/>
<line class="st4" x1="389.3" y1="713.1" x2="389.3" y2="795.4"/>
<line class="st4" x1="396.6" y1="713.1" x2="396.6" y2="795.4"/>
<line class="st4" x1="403.5" y1="713.1" x2="403.5" y2="795.4"/>
<line class="st4" x1="410.8" y1="713.1" x2="410.8" y2="795.4"/>
<g class="st5">
	<path d="M-29.9,981.8l-0.6,1.2c-0.5-0.3-1.1-0.5-1.7-0.5c-0.7,0-1,0.3-1,0.7c0,0.4,0.2,0.7,0.6,1l1.5,1.2c0.9,0.7,1.3,1.3,1.3,2.3
		c0,1.5-1.1,2.4-2.7,2.4c-1.1,0-2.1-0.4-2.7-0.8l0.6-1.2c0.5,0.3,1.3,0.7,2.2,0.7c0.9,0,1.3-0.4,1.3-1c0-0.5-0.3-0.8-0.9-1.3
		l-1.4-1.1c-0.7-0.6-1.2-1.2-1.2-2c0-1.2,0.9-2,2.4-2C-31.3,981.3-30.5,981.5-29.9,981.8z"/>
	<path d="M-28.9,987.1c0-1.8,1.3-3,3.1-3c0.7,0,1.3,0.2,1.9,0.6l-0.6,1c-0.4-0.3-0.9-0.4-1.4-0.4c-1,0-1.8,0.7-1.8,1.8
		s0.7,1.8,1.8,1.8c0.5,0,1-0.1,1.4-0.4l0.6,1c-0.6,0.4-1.2,0.6-1.9,0.6C-27.7,990-28.9,988.8-28.9,987.1z"/>
	<path d="M-21.8,984.3c0,0.5,0,0.8-0.1,1.2l0,0c0.4-0.9,1.1-1.4,2-1.4c1.2,0,2,0.8,2,2.1v3.6H-19v-3.3c0-0.8-0.4-1.3-1.2-1.3
		c-1,0-1.6,0.7-1.6,1.9v2.7H-23v-8.6h1.2V984.3z"/>
	<path d="M-11.2,986.2v3.6h-1.2v-3.3c0-0.8-0.4-1.3-1.2-1.3c-1,0-1.6,0.7-1.6,1.9v2.7h-1.2v-5.5h1.2c0,0.6,0,0.9-0.1,1.3l0,0
		c0.4-1,1.1-1.5,2-1.5C-12,984.1-11.2,984.9-11.2,986.2z"/>
	<path d="M-8.5,983h-1.3v-1.6h1.3V983z M-8.6,989.8h-1.2v-5.5h1.2V989.8z"/>
	<path d="M-5.3,983.7c0,0.2,0,0.4,0,0.6l0,0c0.1-0.1,0.2-0.1,0.5-0.1h0.6v1.1h-0.6c-0.3,0-0.4,0-0.5-0.1l0,0c0,0.2,0,0.4,0,0.6v3.8
		h-1.2V986c0-0.3,0-0.4,0-0.6l0,0c-0.1,0.1-0.2,0.1-0.5,0.1h-0.5v-1.1H-7c0.3,0,0.4,0,0.5,0.1l0,0c0-0.2,0-0.4,0-0.6v-1.6l1.1-0.8
		h0.1V983.7z"/>
	<path d="M-1.6,983.7c0,0.2,0,0.4,0,0.6l0,0c0.1-0.1,0.2-0.1,0.5-0.1h0.6v1.1h-0.6c-0.3,0-0.4,0-0.5-0.1l0,0c0,0.2,0,0.4,0,0.6v3.8
		h-1.2V986c0-0.3,0-0.4,0-0.6l0,0c-0.1,0.1-0.2,0.1-0.5,0.1h-0.5v-1.1h0.5c0.3,0,0.4,0,0.5,0.1l0,0c0-0.2,0-0.4,0-0.6v-1.6l1.1-0.8
		h0.1V983.7z"/>
</g>
</svg>
