<?xml version="1.0" encoding="utf-8"?>
<!-- Generator: Adobe Illustrator 19.1.0, SVG Export Plug-In . SVG Version: 6.00 Build 0)  -->
<svg version="1.1" id="Ebene_1" xmlns="http://www.w3.org/2000/svg" xmlns:xlink="http://www.w3.org/1999/xlink" x="0px" y="0px"
	 viewBox="0 0 1280 720" style="enable-background:new 0 0 1280 720;" xml:space="preserve">
<style type="text/css">
	.st0{fill:none;stroke:#000000;stroke-width:0.432;stroke-linecap:round;stroke-linejoin:round;stroke-miterlimit:10;}
	.st1{fill-rule:evenodd;clip-rule:evenodd;}
	.st2{fill-rule:evenodd;clip-rule:evenodd;fill:#FFFFFF;}
	.st3{fill:none;stroke:#000000;stroke-width:0.288;stroke-linecap:round;stroke-linejoin:round;stroke-miterlimit:10;}
	.st4{opacity:0.1;fill-rule:evenodd;clip-rule:evenodd;fill:#80712A;}
	.st5{opacity:0.22;fill-rule:evenodd;clip-rule:evenodd;fill:#80712A;}
	.st6{fill:none;stroke:#000000;stroke-width:0.144;stroke-linecap:round;stroke-linejoin:round;stroke-miterlimit:10;}
	.st7{fill:#212121;}
	.st8{font-family:'GTEestiProText-Regular';}
	.st9{font-size:12px;}
</style>
<g>
	<g>
		<g>
			<rect x="444.6" y="554.1" class="st0" width="65" height="11.3"/>
			<rect x="609.5" y="554.1" class="st0" width="50.2" height="11.3"/>
			<path class="st1" d="M695.3,378.4v51h45.4v-51H695.3 M746.3,435.1H611.9v-5.7h77.7v-51h-77.7v-5.7h77.7v0h5.7v0h171.5v5.7h-42.5
				v51h65.2v-56.7H971v5.7h-78.7v51h73v-28.3h5.7v192.7h39.6v11.3h-45.3V435.1H769v-5.7h49.6v-51h-72.3V435.1"/>
			<path class="st0" d="M695.3,378.4v51h45.4v-51H695.3 M746.3,435.1H611.9v-5.7h77.7v-51h-77.7v-5.7h77.7v0h5.7v0h171.5v5.7h-42.5
				v51h65.2v-56.7H971v5.7h-78.7v51h73v-28.3h5.7v192.7h39.6v11.3h-45.3V435.1H769v-5.7h49.6v-51h-72.3V435.1"/>
			<rect x="554.3" y="316.1" class="st2" width="144.2" height="11.3"/>
			<rect x="554.3" y="316.1" class="st0" width="144.2" height="11.3"/>
			<line class="st3" x1="202.7" y1="718.5" x2="200" y2="718.5"/>
			<line class="st3" x1="198.6" y1="718.5" x2="195.7" y2="718.5"/>
			<line class="st3" x1="194.3" y1="718.5" x2="191.4" y2="718.5"/>
			<line class="st3" x1="190" y1="718.5" x2="187.1" y2="718.5"/>
			<line class="st3" x1="185.6" y1="718.5" x2="182.8" y2="718.5"/>
			<line class="st3" x1="181.3" y1="718.5" x2="178.4" y2="718.5"/>
			<line class="st3" x1="177" y1="718.5" x2="174.1" y2="718.5"/>
			<line class="st3" x1="172.7" y1="718.5" x2="169.8" y2="718.5"/>
			<line class="st3" x1="168.4" y1="718.5" x2="165.5" y2="718.5"/>
			<line class="st3" x1="164" y1="718.5" x2="161.2" y2="718.5"/>
			<line class="st3" x1="159.7" y1="718.5" x2="156.8" y2="718.5"/>
			<line class="st3" x1="155.4" y1="718.5" x2="152.5" y2="718.5"/>
			<line class="st3" x1="151.1" y1="718.5" x2="148.2" y2="718.5"/>
			<line class="st3" x1="146.8" y1="718.5" x2="143.9" y2="718.5"/>
			<line class="st3" x1="142.4" y1="718.5" x2="139.6" y2="718.5"/>
			<line class="st3" x1="138.1" y1="718.5" x2="135.2" y2="718.5"/>
			<line class="st3" x1="133.8" y1="718.5" x2="130.9" y2="718.5"/>
			<line class="st3" x1="129.5" y1="718.5" x2="126.6" y2="718.5"/>
			<line class="st3" x1="125.2" y1="718.5" x2="122.3" y2="718.5"/>
			<line class="st3" x1="120.8" y1="718.5" x2="118" y2="718.5"/>
			<line class="st3" x1="116.5" y1="718.5" x2="113.6" y2="718.5"/>
			<line class="st3" x1="112.2" y1="718.5" x2="109.3" y2="718.5"/>
			<line class="st3" x1="107.9" y1="718.5" x2="105" y2="718.5"/>
			<line class="st3" x1="103.6" y1="718.5" x2="100.7" y2="718.5"/>
			<line class="st3" x1="99.2" y1="718.5" x2="96.4" y2="718.5"/>
			<line class="st3" x1="94.9" y1="718.5" x2="92" y2="718.5"/>
			<line class="st3" x1="90.6" y1="718.5" x2="87.7" y2="718.5"/>
			<line class="st3" x1="86.3" y1="718.5" x2="83.6" y2="718.5"/>
			<path class="st4" d="M524.1,531.5v-62.4h36.9v62.4H524.1 M610.1,378.4h-3.8v25.5c-3.4,0-6.7-0.7-9.8-1.9
				c-3.1-1.3-5.9-3.2-8.3-5.5c-2.4-2.4-4.2-5.2-5.5-8.3c-1.3-3.1-1.9-6.4-1.9-9.8l-19.8,0v56.7H398.4v119.1h277.5v-79.4h-64v-5.7
				h146.3v5.7h-59.7v119.1h82.2V469.1h65.3v5.7h-59.6v119.1h82.2V469.1h5.7v124.7h91.1V435.1H818.6v-51l-72.3,0v51h-53.4v0h-76.3
				v-5.7l73.1,0v-45.4l-74.9,0v22.7h-2.8v-28.4H610.1"/>
			<path class="st5" d="M771,327.4h25.5c0,3.3-0.7,6.7-1.9,9.8c-1.3,3.1-3.2,5.9-5.5,8.3c-2.4,2.4-5.2,4.2-8.3,5.5
				c-3.1,1.3-6.4,2-9.7,2l0,20.5l69.3-0.6v0h26.4v5.7h-42.5v45.4h65.2v-51.1l81.5,0v5.7h-78.7l0.1,45.4h73l-0.1-22.7h5.7v192.7
				h175.7v-99.2h-136.1v-64.9h5.7V489h130.4l-0.2-81.9h-135.8l0-5.7h136.1l0-89h-130.4v60.7h-5.7l0.2-66.3h135.8l0-84.2h-116.2v53.9
				h-36.8v-53.9h-45.3v116.2h-19.8l0,0l-87.7,0l0,0l-2.8,0v-17l-67,0L771,327.4"/>
			<path class="st5" d="M457.9,321.7h-65.2V285h65.2V321.7 M497.6,367.1h-25.5c0-3.4,0.7-6.7,1.9-9.8c1.3-3.1,3.2-5.9,5.5-8.3
				c2.4-2.4,5.2-4.2,8.3-5.5c3.1-1.3,6.4-1.9,9.8-1.9V177.2H350.2v54.6h-5.7v-54.6H214.1v77.3h136.1v70.1h-5.7v-64.5H214.1v87.1
				h136.1v59.2h-5.7v-53.6H214.1v76.5h136.1v5.7H214.1v119.1h178.6V401.1h5.9l-0.2,22.7h73.3v-45.4h-78.9v-5.7h81.8v51h57.7v-45.4
				h-34.6V367.1"/>
			<rect x="1072.9" y="312.5" class="st2" width="51.1" height="56.6"/>
			<rect x="1072.9" y="312.5" class="st6" width="51.1" height="56.6"/>
			<polyline class="st1" points="614.8,378.5 614.8,406.8 611.9,406.8 611.9,378.5 614.8,378.5 			"/>
			<rect x="611.9" y="378.5" class="st0" width="2.9" height="28.3"/>
			<polyline class="st1" points="659.6,554.1 659.6,565.4 687.2,565.4 687.2,593.7 687.2,605.3 724,605.3 724,593.7 698.5,593.7 
				698.5,474.7 758.3,474.7 758.3,469.2 611.9,469.2 611.9,474.7 692.8,474.7 692.8,554.1 659.6,554.1 			"/>
			<polygon class="st0" points="659.6,554.1 659.6,565.4 687.2,565.4 687.2,593.7 687.2,605.3 724,605.3 724,593.7 698.5,593.7 
				698.5,474.7 758.3,474.7 758.3,469.2 611.9,469.2 611.9,474.7 692.8,474.7 692.8,554.1 			"/>
			<polyline class="st1" points="846.1,469.2 780.8,469.2 780.8,605.3 812,605.3 812,593.7 786.4,593.7 786.4,474.7 846.1,474.7 
				846.1,469.2 			"/>
			<polygon class="st0" points="846.1,469.2 780.8,469.2 780.8,605.3 812,605.3 812,593.7 786.4,593.7 786.4,474.7 846.1,474.7 			
				"/>
			<polyline class="st1" points="900.1,593.7 874.2,593.7 874.2,469.2 868.7,469.2 868.7,605.3 900.1,605.3 900.1,593.7 			"/>
			<polygon class="st0" points="900.1,593.7 874.2,593.7 874.2,469.2 868.7,469.2 868.7,605.3 900.1,605.3 			"/>
			<polyline class="st1" points="1146.6,605.3 1158.1,605.3 1158.1,568.3 1146.6,568.3 1146.6,593.7 1075.8,593.7 1075.8,605.3 
				1146.6,605.3 			"/>
			<polygon class="st0" points="1146.6,605.3 1158.1,605.3 1158.1,568.3 1146.6,568.3 1146.6,593.7 1075.8,593.7 1075.8,605.3 			
				"/>
			<rect x="692.5" y="429.6" class="st1" width="53.8" height="5.5"/>
			<rect x="692.5" y="429.6" class="st3" width="53.8" height="5.5"/>
			<rect x="701.4" y="378.5" class="st2" width="31.2" height="39.6"/>
			<rect x="701.4" y="378.5" class="st3" width="31.2" height="39.6"/>
			<rect x="704.3" y="372.7" class="st3" width="25.4" height="5.8"/>
			<polyline class="st2" points="1125.5,251.5 1125.5,274.1 1074.4,274.1 1074.4,251.5 1125.5,251.5 			"/>
			<rect x="1074.4" y="251.5" class="st6" width="51.1" height="22.6"/>
			<rect x="1077.2" y="274.1" class="st2" width="11.3" height="5.8"/>
			<rect x="1077.2" y="274.1" class="st6" width="11.3" height="5.8"/>
			<rect x="1077.2" y="245.7" class="st2" width="11.3" height="5.8"/>
			<rect x="1077.2" y="245.7" class="st6" width="11.3" height="5.8"/>
			<rect x="1094.3" y="274.1" class="st2" width="11.3" height="5.8"/>
			<rect x="1094.3" y="274.1" class="st6" width="11.3" height="5.8"/>
			<rect x="1094.3" y="245.7" class="st2" width="11.3" height="5.8"/>
			<rect x="1094.3" y="245.7" class="st6" width="11.3" height="5.8"/>
			<rect x="1111.3" y="274.1" class="st2" width="11.3" height="5.8"/>
			<rect x="1111.3" y="274.1" class="st6" width="11.3" height="5.8"/>
			<rect x="1111.3" y="245.7" class="st2" width="11.3" height="5.8"/>
			<rect x="1111.3" y="245.7" class="st6" width="11.3" height="5.8"/>
			<polyline class="st2" points="398.5,230.6 398.5,207.8 449.6,207.8 449.6,230.6 398.5,230.6 			"/>
			<rect x="398.5" y="207.8" class="st6" width="51.1" height="22.8"/>
			<rect x="435.5" y="202.1" class="st2" width="11.3" height="5.8"/>
			<rect x="435.5" y="202.1" class="st6" width="11.3" height="5.8"/>
			<rect x="435.5" y="230.6" class="st2" width="11.3" height="5.5"/>
			<rect x="435.5" y="230.6" class="st6" width="11.3" height="5.5"/>
			<rect x="418.4" y="202.1" class="st2" width="11.3" height="5.8"/>
			<rect x="418.4" y="202.1" class="st6" width="11.3" height="5.8"/>
			<rect x="418.4" y="230.6" class="st2" width="11.3" height="5.5"/>
			<rect x="418.4" y="230.6" class="st6" width="11.3" height="5.5"/>
			<rect x="401.4" y="202.1" class="st2" width="11.3" height="5.8"/>
			<rect x="401.4" y="202.1" class="st6" width="11.3" height="5.8"/>
			<rect x="401.4" y="230.6" class="st2" width="11.3" height="5.5"/>
			<rect x="401.4" y="230.6" class="st6" width="11.3" height="5.5"/>
			<rect x="242.5" y="260.1" class="st2" width="50.9" height="56.6"/>
			<rect x="242.5" y="260.1" class="st6" width="50.9" height="56.6"/>
			<rect x="327.5" y="260.1" class="st2" width="17" height="50.9"/>
			<rect x="327.5" y="260.1" class="st6" width="17" height="50.9"/>
			<rect x="698.5" y="514.5" class="st2" width="56.6" height="50.9"/>
			<rect x="698.5" y="514.5" class="st6" width="56.6" height="50.9"/>
			<rect x="698.5" y="474.7" class="st2" width="51.1" height="17"/>
			<rect x="698.5" y="474.7" class="st6" width="51.1" height="17"/>
			<rect x="1016.3" y="312.5" class="st2" width="17" height="50.9"/>
			<rect x="1016.3" y="312.5" class="st6" width="17" height="50.9"/>
			<polyline class="st1" points="1010.8,401.5 1010.8,407 1146.6,407 1146.6,438.7 1158.1,438.7 1158.1,401.5 1010.8,401.5 			"/>
			<polygon class="st3" points="1010.8,401.5 1010.8,407 1146.6,407 1146.6,438.7 1158.1,438.7 1158.1,401.5 			"/>
			<polyline class="st1" points="1010.8,312.5 1010.5,312.5 1010.5,378.5 1016.3,378.5 1016.3,312.5 1146.6,312.5 1146.6,351.3 
				1158.1,351.3 1158.1,222.5 1158.1,211.2 1146.6,211.2 1146.6,256.5 1158.1,256.5 1158.1,306.7 1010.8,306.7 1010.8,312.5 			"/>
			<polygon class="st3" points="1010.8,312.5 1010.5,312.5 1010.5,378.5 1016.3,378.5 1016.3,312.5 1146.6,312.5 1146.6,351.3 
				1158.1,351.3 1158.1,222.5 1158.1,211.2 1146.6,211.2 1146.6,256.5 1158.1,256.5 1158.1,306.7 1010.8,306.7 			"/>
			<polyline class="st1" points="993.7,273.6 993.7,276.5 1013.4,276.5 1013.4,222.5 1081.6,222.5 1081.6,211.2 993.7,211.2 
				993.7,222.5 1010.5,222.5 1010.5,273.6 993.7,273.6 			"/>
			<polygon class="st3" points="993.7,273.6 993.7,276.5 1013.4,276.5 1013.4,222.5 1081.6,222.5 1081.6,211.2 993.7,211.2 
				993.7,222.5 1010.5,222.5 1010.5,273.6 			"/>
			<polyline class="st1" points="931.3,336 931.3,222.5 948.4,222.5 948.4,211.2 920,211.2 920,310.3 765.2,310.3 765.2,321.8 
				838,321.8 838,338.9 840.8,338.9 840.8,321.8 928.4,321.8 928.4,338.6 948.4,338.6 948.4,336 931.3,336 			"/>
			<polygon class="st3" points="931.3,336 931.3,222.5 948.4,222.5 948.4,211.2 920,211.2 920,310.3 765.2,310.3 765.2,321.8 
				838,321.8 838,338.9 840.8,338.9 840.8,321.8 928.4,321.8 928.4,338.6 948.4,338.6 948.4,336 			"/>
			<polyline class="st1" points="1016.3,488.9 1016.3,429.8 1010.5,429.8 1010.5,494.6 1158.1,494.6 1158.1,488.9 1016.3,488.9 			
				"/>
			<polygon class="st3" points="1016.3,488.9 1016.3,429.8 1010.5,429.8 1010.5,494.6 1158.1,494.6 1158.1,488.9 			"/>
			<polyline class="st1" points="457.8,304.8 392.8,304.8 392.8,285.1 395.4,285.1 395.4,302.1 455.2,302.1 455.2,285.1 
				457.8,285.1 457.8,304.8 			"/>
			<polygon class="st0" points="457.8,304.8 392.8,304.8 392.8,285.1 395.4,285.1 395.4,302.1 455.2,302.1 455.2,285.1 457.8,285.1 
							"/>
			<polyline class="st1" points="214.2,203.5 214.2,165.8 202.7,165.8 202.7,203.5 214.2,203.5 			"/>
			<rect x="202.7" y="165.8" class="st0" width="11.5" height="37.7"/>
			<polyline class="st1" points="350,324.5 350,254.4 214.2,254.4 214.2,253.7 202.7,253.7 202.7,280.5 214.2,280.5 214.2,260.1 
				344.5,260.1 344.5,324.5 350,324.5 			"/>
			<polygon class="st0" points="350,324.5 350,254.4 214.2,254.4 214.2,253.7 202.7,253.7 202.7,280.5 214.2,280.5 214.2,260.1 
				344.5,260.1 344.5,324.5 			"/>
			<polyline class="st1" points="344.5,406.5 350,406.5 350,347.3 214.2,347.3 214.2,330.7 202.7,330.7 202.7,367.9 214.2,367.9 
				214.2,353 344.5,353 344.5,406.5 			"/>
			<polygon class="st0" points="344.5,406.5 350,406.5 350,347.3 214.2,347.3 214.2,330.7 202.7,330.7 202.7,367.9 214.2,367.9 
				214.2,353 344.5,353 			"/>
			<polyline class="st1" points="350,429.3 214.2,429.3 214.2,418.1 202.7,418.1 202.7,455 214.2,455 214.2,435.1 350,435.1 
				350,429.3 			"/>
			<polygon class="st0" points="350,429.3 214.2,429.3 214.2,418.1 202.7,418.1 202.7,455 214.2,455 214.2,435.1 350,435.1 			"/>
			<polyline class="st1" points="526,270.7 526,165.8 514.7,165.8 514.7,276.5 497.6,276.5 497.6,321.8 503.2,321.8 503.2,282 
				698.5,282 698.5,270.7 526,270.7 			"/>
			<polygon class="st0" points="526,270.7 526,165.8 514.7,165.8 514.7,276.5 497.6,276.5 497.6,321.8 503.2,321.8 503.2,282 
				698.5,282 698.5,270.7 			"/>
			<polyline class="st1" points="497.6,165.8 457.8,165.8 457.8,177.1 497.6,177.1 497.6,165.8 			"/>
			<rect x="457.8" y="165.8" class="st0" width="39.8" height="11.3"/>
			<polyline class="st1" points="344.5,177.1 264.4,177.1 264.4,165.8 392.8,165.8 392.8,177.1 350,177.1 350,231.8 344.5,231.8 
				344.5,177.1 			"/>
			<polygon class="st0" points="344.5,177.1 264.4,177.1 264.4,165.8 392.8,165.8 392.8,177.1 350,177.1 350,231.8 344.5,231.8 			
				"/>
			<polyline class="st1" points="561,378.5 561,372.7 497.6,372.7 497.6,378.5 538.2,378.5 538.2,429.3 474.4,429.3 474.4,372.7 
				392.8,372.7 392.8,378.5 471.7,378.5 471.7,429.3 398.3,429.3 398.3,401 392.8,401 392.8,554.1 350,554.1 350,565.4 444.6,565.4 
				444.6,554.1 398.3,554.1 398.3,435.1 561,435.1 561,429.3 544,429.3 544,378.5 561,378.5 			"/>
			<polygon class="st0" points="561,378.5 561,372.7 497.6,372.7 497.6,378.5 538.2,378.5 538.2,429.3 474.4,429.3 474.4,372.7 
				392.8,372.7 392.8,378.5 471.7,378.5 471.7,429.3 398.3,429.3 398.3,401 392.8,401 392.8,554.1 350,554.1 350,565.4 444.6,565.4 
				444.6,554.1 398.3,554.1 398.3,435.1 561,435.1 561,429.3 544,429.3 544,378.5 			"/>
			<polyline class="st1" points="509.6,554.1 509.6,565.4 609.5,565.4 609.5,554.1 509.6,554.1 			"/>
			<rect x="509.6" y="554.1" class="st0" width="99.8" height="11.3"/>
			<polyline class="st1" points="202.7,520.1 202.7,565.4 285,565.4 285,554.1 214.2,554.1 214.2,520.1 202.7,520.1 			"/>
			<polygon class="st0" points="202.7,520.1 202.7,565.4 285,565.4 285,554.1 214.2,554.1 214.2,520.1 			"/>
			<line class="st6" x1="532.2" y1="429.3" x2="532.2" y2="378.5"/>
			<line class="st6" x1="397.8" y1="423.8" x2="451.3" y2="423.8"/>
			<path class="st3" d="M560.9,378.4l19.8,0c0,3.4,0.7,6.7,1.9,9.8c1.3,3.1,3.2,5.9,5.5,8.3c2.4,2.4,5.2,4.2,8.3,5.5
				c3.1,1.3,6.4,1.9,9.8,1.9v-25.5h5.7"/>
			<path class="st6" d="M771,372.8v-19.8c3.4,0,6.7-0.7,9.8-1.9c3.1-1.3,5.9-3.2,8.3-5.5c2.4-2.4,4.2-5.2,5.5-8.3
				c1.3-3.1,1.9-6.4,1.9-9.8H771v-5.7"/>
			<rect x="392.8" y="304.8" class="st2" width="65" height="17"/>
			<rect x="392.8" y="304.8" class="st3" width="65" height="17"/>
			<rect x="392.8" y="285.1" class="st2" width="65" height="17"/>
			<rect x="392.8" y="285.1" class="st3" width="65" height="17"/>
			<rect x="764.8" y="211.2" class="st1" width="5.8" height="70.3"/>
			<rect x="764.8" y="211.2" class="st0" width="5.8" height="70.3"/>
			<rect x="544" y="378.5" class="st2" width="17" height="50.9"/>
			<rect x="544" y="378.5" class="st3" width="17" height="50.9"/>
			<polyline class="st2" points="676,554.1 676,474.7 692.8,474.7 692.8,554.1 676,554.1 			"/>
			<rect x="676" y="474.7" class="st3" width="16.8" height="79.4"/>
			<rect x="671.9" y="169.4" class="st6" width="2.9" height="1.4"/>
			<rect x="693.2" y="165.8" class="st1" width="5.5" height="76.6"/>
			<rect x="693.2" y="165.8" class="st0" width="5.5" height="76.6"/>
			<path class="st3" d="M497.6,341.6L497.6,341.6c-3.4,0-6.7,0.7-9.8,1.9c-3.1,1.3-5.9,3.2-8.3,5.5c-2.4,2.4-4.2,5.2-5.5,8.3
				c-1.3,3.1-1.9,6.4-1.9,9.8h25.5v5.7"/>
			<line class="st6" x1="497.6" y1="341.5" x2="497.6" y2="321.8"/>
			<line class="st3" x1="687.2" y1="565.4" x2="687.2" y2="566.4"/>
			<line class="st3" x1="687.2" y1="569.3" x2="687.2" y2="572.1"/>
			<line class="st3" x1="687.2" y1="575" x2="687.2" y2="577.9"/>
			<line class="st3" x1="687.2" y1="580.8" x2="687.2" y2="583.7"/>
			<line class="st3" x1="687.2" y1="586.5" x2="687.2" y2="589.4"/>
			<line class="st3" x1="687.2" y1="592.3" x2="687.2" y2="595.2"/>
			<line class="st3" x1="687.2" y1="598.1" x2="687.2" y2="600.9"/>
			<line class="st3" x1="687.2" y1="603.8" x2="687.2" y2="606.7"/>
			<line class="st3" x1="687.2" y1="609.6" x2="687.2" y2="612.5"/>
			<line class="st3" x1="687.2" y1="615.3" x2="687.2" y2="618.2"/>
			<line class="st3" x1="687.2" y1="621.1" x2="687.2" y2="622.3"/>
			<line class="st3" x1="687.2" y1="622.3" x2="685.8" y2="622.3"/>
			<line class="st3" x1="682.9" y1="622.3" x2="680" y2="622.3"/>
			<line class="st3" x1="677.2" y1="622.3" x2="674.3" y2="622.3"/>
			<line class="st3" x1="671.4" y1="622.3" x2="668.5" y2="622.3"/>
			<line class="st3" x1="665.6" y1="622.3" x2="662.8" y2="622.3"/>
			<line class="st3" x1="659.9" y1="622.3" x2="657" y2="622.3"/>
			<line class="st3" x1="654.1" y1="622.3" x2="651.2" y2="622.3"/>
			<line class="st3" x1="648.4" y1="622.3" x2="645.5" y2="622.3"/>
			<line class="st3" x1="642.6" y1="622.3" x2="639.7" y2="622.3"/>
			<line class="st3" x1="636.8" y1="622.3" x2="634" y2="622.3"/>
			<line class="st3" x1="631.1" y1="622.3" x2="628.2" y2="622.3"/>
			<line class="st3" x1="625.3" y1="622.3" x2="622.4" y2="622.3"/>
			<line class="st3" x1="619.6" y1="622.3" x2="616.7" y2="622.3"/>
			<line class="st3" x1="613.8" y1="622.3" x2="610.9" y2="622.3"/>
			<line class="st3" x1="608" y1="622.3" x2="605.2" y2="622.3"/>
			<line class="st3" x1="602.3" y1="622.3" x2="599.4" y2="622.3"/>
			<line class="st3" x1="596.5" y1="622.3" x2="593.6" y2="622.3"/>
			<line class="st3" x1="590.8" y1="622.3" x2="587.9" y2="622.3"/>
			<line class="st3" x1="585" y1="622.3" x2="582.1" y2="622.3"/>
			<line class="st3" x1="579.2" y1="622.3" x2="576.4" y2="622.3"/>
			<line class="st3" x1="573.5" y1="622.3" x2="570.6" y2="622.3"/>
			<line class="st3" x1="567.7" y1="622.3" x2="564.8" y2="622.3"/>
			<line class="st3" x1="562" y1="622.3" x2="559.1" y2="622.3"/>
			<line class="st3" x1="556.2" y1="622.3" x2="553.3" y2="622.3"/>
			<line class="st3" x1="550.4" y1="622.3" x2="547.6" y2="622.3"/>
			<line class="st3" x1="544.7" y1="622.3" x2="541.8" y2="622.3"/>
			<line class="st3" x1="538.9" y1="622.3" x2="536" y2="622.3"/>
			<line class="st3" x1="533.2" y1="622.3" x2="530.3" y2="622.3"/>
			<line class="st3" x1="527.4" y1="622.3" x2="524.5" y2="622.3"/>
			<line class="st3" x1="521.6" y1="622.3" x2="518.8" y2="622.3"/>
			<line class="st3" x1="515.9" y1="622.3" x2="513" y2="622.3"/>
			<line class="st3" x1="510.1" y1="622.3" x2="507.2" y2="622.3"/>
			<line class="st3" x1="504.4" y1="622.3" x2="501.5" y2="622.3"/>
			<line class="st3" x1="498.6" y1="622.3" x2="495.7" y2="622.3"/>
			<line class="st3" x1="492.8" y1="622.3" x2="490" y2="622.3"/>
			<line class="st3" x1="487.1" y1="622.3" x2="484.2" y2="622.3"/>
			<line class="st3" x1="481.3" y1="622.3" x2="478.4" y2="622.3"/>
			<line class="st3" x1="475.6" y1="622.3" x2="472.7" y2="622.3"/>
			<line class="st3" x1="469.8" y1="622.3" x2="466.9" y2="622.3"/>
			<line class="st3" x1="464" y1="622.3" x2="461.2" y2="622.3"/>
			<line class="st3" x1="458.3" y1="622.3" x2="455.4" y2="622.3"/>
			<line class="st3" x1="452.5" y1="622.3" x2="451.3" y2="622.3"/>
			<line class="st3" x1="451.3" y1="622.3" x2="450.8" y2="620.4"/>
			<line class="st3" x1="450.1" y1="617.7" x2="449.4" y2="614.9"/>
			<line class="st3" x1="448.7" y1="612.2" x2="447.7" y2="609.3"/>
			<line class="st3" x1="447" y1="606.5" x2="446.3" y2="603.8"/>
			<line class="st3" x1="445.6" y1="600.9" x2="444.8" y2="598.3"/>
			<line class="st3" x1="444.1" y1="595.4" x2="443.4" y2="592.5"/>
			<line class="st3" x1="442.7" y1="589.9" x2="441.7" y2="587"/>
			<line class="st3" x1="441" y1="584.4" x2="440.3" y2="581.5"/>
			<line class="st3" x1="439.6" y1="578.9" x2="438.8" y2="576"/>
			<line class="st3" x1="438.1" y1="573.1" x2="437.4" y2="570.5"/>
			<line class="st3" x1="436.4" y1="567.6" x2="436" y2="565.4"/>
			<line class="st6" x1="581.2" y1="316.1" x2="563.6" y2="282.2"/>
			<line class="st3" x1="554.3" y1="282" x2="554.3" y2="316.1"/>
			<line class="st3" x1="562.7" y1="282" x2="562.7" y2="316.1"/>
			<line class="st3" x1="571.3" y1="282" x2="571.3" y2="316.1"/>
			<line class="st3" x1="579.7" y1="282" x2="579.7" y2="316.1"/>
			<line class="st3" x1="588.1" y1="282" x2="588.1" y2="316.1"/>
			<line class="st3" x1="596.8" y1="282" x2="596.8" y2="316.1"/>
			<line class="st3" x1="605.2" y1="282" x2="605.2" y2="316.1"/>
			<line class="st3" x1="613.6" y1="282" x2="613.6" y2="316.1"/>
			<line class="st3" x1="622.2" y1="282" x2="622.2" y2="316.1"/>
			<line class="st3" x1="630.6" y1="282" x2="630.6" y2="316.1"/>
			<line class="st3" x1="639.2" y1="282" x2="639.2" y2="316.1"/>
			<line class="st3" x1="647.6" y1="282" x2="647.6" y2="316.1"/>
			<line class="st3" x1="656" y1="282" x2="656" y2="316.1"/>
			<line class="st3" x1="664.7" y1="282" x2="664.7" y2="316.1"/>
			<line class="st3" x1="673.1" y1="282" x2="673.1" y2="316.1"/>
			<line class="st3" x1="681.5" y1="282" x2="681.5" y2="316.1"/>
			<line class="st3" x1="690.1" y1="282" x2="690.1" y2="316.1"/>
			<line class="st3" x1="698.5" y1="282" x2="698.5" y2="316.1"/>
			<rect x="497.6" y="177.1" class="st3" width="17" height="99.4"/>
			<line class="st3" x1="425.2" y1="321.8" x2="425.2" y2="304.8"/>
			<line class="st3" x1="442" y1="324" x2="442" y2="319.7"/>
			<line class="st3" x1="408.4" y1="324" x2="408.4" y2="319.7"/>
			<rect x="1146.6" y="494.6" class="st0" width="11.5" height="73.7"/>
			<rect x="202.7" y="455" class="st0" width="11.5" height="65.3"/>
			<rect x="392.8" y="165.8" class="st0" width="65" height="11.3"/>
			<line class="st3" x1="561" y1="403.9" x2="544" y2="403.9"/>
			<line class="st3" x1="563.2" y1="390.5" x2="558.8" y2="390.5"/>
			<line class="st3" x1="563.2" y1="416.4" x2="558.8" y2="416.4"/>
			<rect x="500.5" y="198.5" class="st3" width="11.3" height="11.5"/>
			<rect x="678.6" y="503" class="st3" width="11.5" height="11.3"/>
			<rect x="1010.5" y="593.7" class="st0" width="65.3" height="11.5"/>
			<rect x="900.1" y="593.7" class="st0" width="65.3" height="11.5"/>
			<rect x="812" y="593.7" class="st0" width="56.6" height="11.5"/>
			<rect x="724" y="593.7" class="st0" width="56.9" height="11.5"/>
			<rect x="666.4" y="169.4" class="st6" width="2.9" height="1.4"/>
			<rect x="660.6" y="169.4" class="st6" width="2.9" height="1.4"/>
			<rect x="655.1" y="169.4" class="st6" width="2.6" height="1.4"/>
			<rect x="649.3" y="169.4" class="st6" width="2.9" height="1.4"/>
			<rect x="643.6" y="169.4" class="st6" width="2.9" height="1.4"/>
			<rect x="646.2" y="167" class="st6" width="2.9" height="1.4"/>
			<rect x="640.7" y="167" class="st6" width="2.9" height="1.4"/>
			<rect x="634.9" y="167" class="st6" width="2.9" height="1.4"/>
			<rect x="629.4" y="167" class="st6" width="2.6" height="1.4"/>
			<rect x="623.6" y="167" class="st6" width="2.9" height="1.4"/>
			<rect x="617.9" y="167" class="st6" width="2.9" height="1.4"/>
			<rect x="612.4" y="167" class="st6" width="2.6" height="1.4"/>
			<rect x="606.6" y="167" class="st6" width="2.9" height="1.4"/>
			<rect x="600.8" y="167" class="st6" width="2.9" height="1.4"/>
			<rect x="595.3" y="167" class="st6" width="2.9" height="1.4"/>
			<rect x="589.6" y="167" class="st6" width="2.9" height="1.4"/>
			<rect x="584" y="167" class="st6" width="2.6" height="1.4"/>
			<rect x="578.3" y="167" class="st6" width="2.9" height="1.4"/>
			<rect x="572.5" y="167" class="st6" width="2.9" height="1.4"/>
			<rect x="567" y="167" class="st6" width="2.9" height="1.4"/>
			<rect x="561.2" y="167" class="st6" width="2.9" height="1.4"/>
			<rect x="555.5" y="167" class="st6" width="2.9" height="1.4"/>
			<rect x="550" y="167" class="st6" width="2.9" height="1.4"/>
			<rect x="544.2" y="167" class="st6" width="2.9" height="1.4"/>
			<rect x="558.6" y="169.7" class="st6" width="2.9" height="1.4"/>
			<rect x="552.8" y="169.7" class="st6" width="2.9" height="1.4"/>
			<rect x="547.3" y="169.7" class="st6" width="2.6" height="1.4"/>
			<rect x="541.6" y="169.7" class="st6" width="2.9" height="1.4"/>
			<rect x="535.8" y="169.7" class="st6" width="2.9" height="1.4"/>
			<rect x="772.2" y="216" class="st6" width="2.9" height="1.4"/>
			<rect x="778" y="216" class="st6" width="2.6" height="1.4"/>
			<rect x="783.5" y="216" class="st6" width="2.9" height="1.4"/>
			<rect x="789.2" y="216" class="st6" width="2.9" height="1.4"/>
			<rect x="814" y="212.4" class="st6" width="2.9" height="1.2"/>
			<rect x="819.5" y="212.4" class="st6" width="2.9" height="1.2"/>
			<rect x="825.2" y="212.4" class="st6" width="2.9" height="1.2"/>
			<rect x="831" y="212.4" class="st6" width="2.6" height="1.2"/>
			<rect x="836.5" y="212.4" class="st6" width="2.9" height="1.2"/>
			<rect x="842.3" y="212.4" class="st6" width="2.9" height="1.2"/>
			<rect x="847.8" y="212.4" class="st6" width="2.9" height="1.2"/>
			<rect x="853.6" y="212.4" class="st6" width="2.9" height="1.2"/>
			<rect x="859.3" y="212.4" class="st6" width="2.9" height="1.2"/>
			<rect x="864.8" y="212.4" class="st6" width="2.9" height="1.2"/>
			<rect x="870.6" y="212.4" class="st6" width="2.9" height="1.2"/>
			<rect x="876.4" y="212.4" class="st6" width="2.6" height="1.2"/>
			<rect x="881.9" y="212.4" class="st6" width="2.9" height="1.2"/>
			<rect x="934.2" y="258" class="st2" width="11.3" height="11.3"/>
			<rect x="934.2" y="258" class="st3" width="11.3" height="11.3"/>
			<path class="st2" d="M945.5,286.1c0-1.2-1-2.2-2.2-2.2c-1.2,0-2.2,1-2.2,2.2c0,1.2,1,2.2,2.2,2.2
				C944.5,288.2,945.5,287.2,945.5,286.1"/>
			<path class="st3" d="M945.5,286.1c0-1.2-1-2.2-2.2-2.2c-1.2,0-2.2,1-2.2,2.2c0,1.2,1,2.2,2.2,2.2
				C944.5,288.2,945.5,287.2,945.5,286.1"/>
			<path class="st2" d="M938.5,286.1c0-1.2-1-2.2-2.2-2.2c-1.2,0-2.2,1-2.2,2.2c0,1.2,1,2.2,2.2,2.2
				C937.5,288.2,938.5,287.2,938.5,286.1"/>
			<path class="st3" d="M938.5,286.1c0-1.2-1-2.2-2.2-2.2c-1.2,0-2.2,1-2.2,2.2c0,1.2,1,2.2,2.2,2.2
				C937.5,288.2,938.5,287.2,938.5,286.1"/>
			<path class="st2" d="M945.5,279c0-1.1-1-2-2.2-2c-1.2,0-2.2,0.9-2.2,2s1,2,2.2,2C944.5,281,945.5,280.1,945.5,279"/>
			<path class="st3" d="M945.5,279c0-1.1-1-2-2.2-2c-1.2,0-2.2,0.9-2.2,2s1,2,2.2,2C944.5,281,945.5,280.1,945.5,279"/>
			<path class="st2" d="M938.5,279c0-1.1-1-2-2.2-2c-1.2,0-2.2,0.9-2.2,2s1,2,2.2,2C937.5,281,938.5,280.1,938.5,279"/>
			<path class="st3" d="M938.5,279c0-1.1-1-2-2.2-2c-1.2,0-2.2,0.9-2.2,2s1,2,2.2,2C937.5,281,938.5,280.1,938.5,279"/>
			<rect x="794.8" y="216" class="st6" width="2.9" height="1.4"/>
			<path class="st6" d="M764.8,216.9h-12.2v28.3c-3.7,0-7.4-0.7-10.8-2.2c-3.4-1.4-6.6-3.5-9.2-6.1c-2.6-2.6-4.7-5.8-6.1-9.2
				c-1.4-3.4-2.2-7.1-2.2-10.8h-25.4"/>
			<path class="st3" d="M505.1,224.6c0-1.2-1-2.2-2.2-2.2c-1.2,0-2.2,1-2.2,2.2s1,2.2,2.2,2.2C504.1,226.8,505.1,225.8,505.1,224.6"
				/>
			<path class="st3" d="M505.1,217.7c0-1.2-1-2.2-2.2-2.2c-1.2,0-2.2,1-2.2,2.2s1,2.2,2.2,2.2C504.1,219.8,505.1,218.8,505.1,217.7"
				/>
			<path class="st3" d="M512,224.6c0-1.2-1-2.2-2.2-2.2s-2.2,1-2.2,2.2s1,2.2,2.2,2.2S512,225.8,512,224.6"/>
			<path class="st3" d="M512,217.7c0-1.2-1-2.2-2.2-2.2s-2.2,1-2.2,2.2s1,2.2,2.2,2.2S512,218.8,512,217.7"/>
			<path class="st3" d="M690.1,528.7c0-1.2-1-2.2-2.2-2.2c-1.2,0-2.2,1-2.2,2.2s1,2.2,2.2,2.2C689.1,530.9,690.1,529.9,690.1,528.7"
				/>
			<path class="st3" d="M683.2,528.7c0-1.2-1-2.2-2.2-2.2s-2.2,1-2.2,2.2s1,2.2,2.2,2.2S683.2,529.9,683.2,528.7"/>
			<path class="st3" d="M690.1,521.5c0-1.2-1-2.2-2.2-2.2c-1.2,0-2.2,1-2.2,2.2s1,2.2,2.2,2.2C689.1,523.7,690.1,522.7,690.1,521.5"
				/>
			<path class="st3" d="M683.2,521.5c0-1.2-1-2.2-2.2-2.2s-2.2,1-2.2,2.2s1,2.2,2.2,2.2S683.2,522.7,683.2,521.5"/>
			<rect x="530.3" y="169.7" class="st6" width="2.9" height="1.4"/>
			<rect x="892.2" y="216" class="st6" width="2.6" height="1.4"/>
			<rect x="897.7" y="216" class="st6" width="2.9" height="1.4"/>
			<rect x="903.5" y="216" class="st6" width="2.9" height="1.4"/>
			<rect x="909.2" y="216" class="st6" width="2.6" height="1.4"/>
			<rect x="914.8" y="216" class="st6" width="2.9" height="1.4"/>
			<path class="st6" d="M692.9,242.4L692.9,242.4c-14,0-25.5,11.5-25.5,25.5"/>
			<line class="st6" x1="667.3" y1="267.8" x2="693.5" y2="267.8"/>
			<path class="st6" d="M796,307.1L796,307.1c0-14-11.5-25.5-25.5-25.5"/>
			<line class="st6" x1="796" y1="306.9" x2="769.8" y2="306.9"/>
			<line class="st3" x1="920" y1="211.2" x2="918.8" y2="211.2"/>
			<line class="st3" x1="916" y1="211.2" x2="913.1" y2="211.2"/>
			<line class="st3" x1="910.2" y1="211.2" x2="907.3" y2="211.2"/>
			<line class="st3" x1="904.4" y1="211.2" x2="901.6" y2="211.2"/>
			<line class="st3" x1="898.7" y1="211.2" x2="895.8" y2="211.2"/>
			<line class="st3" x1="892.9" y1="211.2" x2="890" y2="211.2"/>
			<line class="st3" x1="887.2" y1="211.2" x2="884.3" y2="211.2"/>
			<line class="st3" x1="881.4" y1="211.2" x2="878.5" y2="211.2"/>
			<line class="st3" x1="875.6" y1="211.2" x2="872.8" y2="211.2"/>
			<line class="st3" x1="869.9" y1="211.2" x2="867" y2="211.2"/>
			<line class="st3" x1="864.1" y1="211.2" x2="861.2" y2="211.2"/>
			<line class="st3" x1="858.4" y1="211.2" x2="855.5" y2="211.2"/>
			<line class="st3" x1="852.6" y1="211.2" x2="849.7" y2="211.2"/>
			<line class="st3" x1="846.8" y1="211.2" x2="844" y2="211.2"/>
			<line class="st3" x1="841.1" y1="211.2" x2="838.2" y2="211.2"/>
			<line class="st3" x1="835.3" y1="211.2" x2="832.4" y2="211.2"/>
			<line class="st3" x1="829.6" y1="211.2" x2="826.7" y2="211.2"/>
			<line class="st3" x1="823.8" y1="211.2" x2="820.9" y2="211.2"/>
			<line class="st3" x1="818" y1="211.2" x2="815.2" y2="211.2"/>
			<line class="st3" x1="812.3" y1="211.2" x2="809.4" y2="211.2"/>
			<line class="st3" x1="806.5" y1="211.2" x2="803.6" y2="211.2"/>
			<line class="st3" x1="800.8" y1="211.2" x2="797.9" y2="211.2"/>
			<line class="st3" x1="795" y1="211.2" x2="792.1" y2="211.2"/>
			<line class="st3" x1="789.2" y1="211.2" x2="786.4" y2="211.2"/>
			<line class="st3" x1="783.5" y1="211.2" x2="780.6" y2="211.2"/>
			<line class="st3" x1="777.7" y1="211.2" x2="774.8" y2="211.2"/>
			<line class="st3" x1="772" y1="211.2" x2="770.5" y2="211.2"/>
			<line class="st3" x1="770.5" y1="211.2" x2="770.5" y2="210.2"/>
			<line class="st3" x1="770.5" y1="207.3" x2="770.5" y2="204.5"/>
			<line class="st3" x1="770.5" y1="201.6" x2="770.5" y2="198.7"/>
			<line class="st3" x1="770.5" y1="195.8" x2="770.5" y2="192.9"/>
			<line class="st3" x1="770.5" y1="190.1" x2="770.5" y2="187.2"/>
			<line class="st3" x1="770.5" y1="184.3" x2="770.5" y2="181.4"/>
			<line class="st3" x1="770.5" y1="178.5" x2="770.5" y2="175.7"/>
			<line class="st3" x1="770.5" y1="172.8" x2="770.5" y2="169.9"/>
			<line class="st3" x1="770.5" y1="167" x2="770.5" y2="165.8"/>
			<line class="st3" x1="770.5" y1="165.8" x2="767.9" y2="165.8"/>
			<line class="st3" x1="765" y1="165.8" x2="762.1" y2="165.8"/>
			<line class="st3" x1="759.2" y1="165.8" x2="756.4" y2="165.8"/>
			<line class="st3" x1="753.5" y1="165.8" x2="750.6" y2="165.8"/>
			<line class="st3" x1="747.7" y1="165.8" x2="744.8" y2="165.8"/>
			<line class="st3" x1="742" y1="165.8" x2="739.1" y2="165.8"/>
			<line class="st3" x1="736.2" y1="165.8" x2="733.3" y2="165.8"/>
			<line class="st3" x1="730.4" y1="165.8" x2="727.6" y2="165.8"/>
			<line class="st3" x1="724.7" y1="165.8" x2="721.8" y2="165.8"/>
			<line class="st3" x1="718.9" y1="165.8" x2="716" y2="165.8"/>
			<line class="st3" x1="713.2" y1="165.8" x2="710.3" y2="165.8"/>
			<line class="st3" x1="707.4" y1="165.8" x2="704.5" y2="165.8"/>
			<line class="st3" x1="701.6" y1="165.8" x2="698.8" y2="165.8"/>
			<line class="st3" x1="695.9" y1="165.8" x2="693" y2="165.8"/>
			<line class="st3" x1="690.1" y1="165.8" x2="687.2" y2="165.8"/>
			<line class="st3" x1="684.4" y1="165.8" x2="681.5" y2="165.8"/>
			<line class="st3" x1="678.6" y1="165.8" x2="675.7" y2="165.8"/>
			<line class="st3" x1="672.8" y1="165.8" x2="670" y2="165.8"/>
			<line class="st3" x1="667.1" y1="165.8" x2="664.2" y2="165.8"/>
			<line class="st3" x1="661.3" y1="165.8" x2="658.4" y2="165.8"/>
			<line class="st3" x1="655.6" y1="165.8" x2="652.7" y2="165.8"/>
			<line class="st3" x1="649.8" y1="165.8" x2="646.9" y2="165.8"/>
			<line class="st3" x1="644" y1="165.8" x2="641.2" y2="165.8"/>
			<line class="st3" x1="638.3" y1="165.8" x2="635.4" y2="165.8"/>
			<line class="st3" x1="632.5" y1="165.8" x2="629.6" y2="165.8"/>
			<line class="st3" x1="626.8" y1="165.8" x2="623.9" y2="165.8"/>
			<line class="st3" x1="621" y1="165.8" x2="618.1" y2="165.8"/>
			<line class="st3" x1="615.2" y1="165.8" x2="612.4" y2="165.8"/>
			<line class="st3" x1="609.5" y1="165.8" x2="606.6" y2="165.8"/>
			<line class="st3" x1="603.7" y1="165.8" x2="600.8" y2="165.8"/>
			<line class="st3" x1="598" y1="165.8" x2="595.1" y2="165.8"/>
			<line class="st3" x1="592.2" y1="165.8" x2="589.3" y2="165.8"/>
			<line class="st3" x1="586.4" y1="165.8" x2="583.6" y2="165.8"/>
			<line class="st3" x1="580.7" y1="165.8" x2="577.8" y2="165.8"/>
			<line class="st3" x1="574.9" y1="165.8" x2="572" y2="165.8"/>
			<line class="st3" x1="569.2" y1="165.8" x2="566.3" y2="165.8"/>
			<line class="st3" x1="563.4" y1="165.8" x2="560.5" y2="165.8"/>
			<line class="st3" x1="557.6" y1="165.8" x2="554.8" y2="165.8"/>
			<line class="st3" x1="551.9" y1="165.8" x2="549" y2="165.8"/>
			<line class="st3" x1="546.1" y1="165.8" x2="543.2" y2="165.8"/>
			<line class="st3" x1="540.4" y1="165.8" x2="537.5" y2="165.8"/>
			<line class="st3" x1="534.6" y1="165.8" x2="531.7" y2="165.8"/>
			<line class="st3" x1="528.8" y1="165.8" x2="526" y2="165.8"/>
			<rect x="769.1" y="165.8" class="st6" width="1.4" height="2.9"/>
			<rect x="769.1" y="171.6" class="st6" width="1.4" height="2.6"/>
			<rect x="769.1" y="177.1" class="st6" width="1.4" height="2.9"/>
			<rect x="769.1" y="182.9" class="st6" width="1.4" height="2.9"/>
			<rect x="769.1" y="188.6" class="st6" width="1.4" height="2.6"/>
			<rect x="769.1" y="194.1" class="st6" width="1.4" height="2.9"/>
			<rect x="769.1" y="199.9" class="st6" width="1.4" height="2.9"/>
			<rect x="769.1" y="205.4" class="st6" width="1.4" height="2.9"/>
			<rect x="285" y="554.1" class="st0" width="65" height="11.3"/>
			<rect x="202.7" y="280.5" class="st0" width="11.5" height="50.2"/>
			<rect x="202.7" y="367.9" class="st0" width="11.5" height="50.2"/>
			<rect x="202.7" y="203.5" class="st0" width="11.5" height="50.2"/>
			<rect x="497.6" y="165.8" class="st0" width="17" height="11.3"/>
			<rect x="948.4" y="211.2" class="st0" width="45.4" height="11.3"/>
			<rect x="840.8" y="321.8" class="st2" width="87.6" height="16.8"/>
			<rect x="840.8" y="321.8" class="st3" width="87.6" height="16.8"/>
			<line class="st3" x1="899.2" y1="338.9" x2="899.2" y2="321.8"/>
			<line class="st3" x1="913.8" y1="340.1" x2="913.8" y2="336"/>
			<line class="st3" x1="884.8" y1="340.1" x2="884.8" y2="336"/>
			<rect x="931.3" y="222.5" class="st2" width="17" height="113.5"/>
			<rect x="931.3" y="222.5" class="st3" width="17" height="113.5"/>
			<line class="st3" x1="870.1" y1="338.9" x2="870.1" y2="321.8"/>
			<line class="st3" x1="855.5" y1="340.1" x2="855.5" y2="336"/>
			<rect x="993.7" y="222.5" class="st2" width="16.8" height="51.1"/>
			<rect x="993.7" y="222.5" class="st3" width="16.8" height="51.1"/>
			<rect x="1013.4" y="222.5" class="st2" width="17" height="54"/>
			<rect x="1013.4" y="222.5" class="st3" width="17" height="54"/>
			<rect x="887.6" y="212.4" class="st6" width="2.9" height="1.2"/>
			<rect x="802.4" y="212.4" class="st6" width="2.9" height="1.2"/>
			<rect x="808.2" y="212.4" class="st6" width="2.9" height="1.2"/>
			<rect x="1081.6" y="211.2" class="st0" width="65" height="11.3"/>
			<rect x="1146.6" y="256.5" class="st0" width="11.5" height="50.2"/>
			<rect x="1146.6" y="351.3" class="st0" width="11.5" height="50.2"/>
			<rect x="1146.6" y="438.7" class="st0" width="11.5" height="50.2"/>
			<line class="st6" x1="542" y1="188.1" x2="542" y2="236.1"/>
			<line class="st6" x1="561.5" y1="188.1" x2="561.5" y2="236.1"/>
			<line class="st6" x1="580.7" y1="188.1" x2="580.7" y2="236.1"/>
			<line class="st6" x1="599.9" y1="188.1" x2="599.9" y2="236.1"/>
			<line class="st6" x1="619.3" y1="188.1" x2="619.3" y2="236.1"/>
			<line class="st6" x1="638.5" y1="188.1" x2="638.5" y2="236.1"/>
			<line class="st6" x1="657.7" y1="188.1" x2="657.7" y2="236.1"/>
			<line class="st6" x1="677.2" y1="188.1" x2="677.2" y2="236.1"/>
			<line class="st6" x1="788.8" y1="233.3" x2="788.8" y2="281.5"/>
			<line class="st6" x1="808" y1="233.3" x2="808" y2="281.5"/>
			<line class="st6" x1="827.4" y1="233.3" x2="827.4" y2="281.5"/>
			<line class="st6" x1="846.6" y1="233.3" x2="846.6" y2="281.5"/>
			<line class="st6" x1="865.8" y1="233.3" x2="865.8" y2="281.5"/>
			<line class="st6" x1="885" y1="233.3" x2="885" y2="281.5"/>
			<line class="st6" x1="904.4" y1="233.3" x2="904.4" y2="281.5"/>
			<line class="st3" x1="202.7" y1="534.9" x2="201.5" y2="534.5"/>
			<line class="st3" x1="199.1" y1="533.3" x2="196.4" y2="531.8"/>
			<line class="st3" x1="193.8" y1="530.6" x2="191.2" y2="529.4"/>
			<line class="st3" x1="188.5" y1="528.2" x2="186.1" y2="527"/>
			<line class="st3" x1="183.5" y1="525.8" x2="180.8" y2="524.4"/>
			<line class="st3" x1="178.2" y1="523.2" x2="175.6" y2="522"/>
			<line class="st3" x1="172.9" y1="520.8" x2="170.5" y2="519.6"/>
			<line class="st3" x1="167.9" y1="518.1" x2="165.2" y2="516.9"/>
			<line class="st3" x1="162.6" y1="515.7" x2="160" y2="514.5"/>
			<line class="st3" x1="157.3" y1="513.3" x2="154.9" y2="512.1"/>
			<line class="st3" x1="152.3" y1="510.7" x2="149.6" y2="509.5"/>
			<line class="st3" x1="147" y1="508.3" x2="146" y2="507.8"/>
			<line class="st3" x1="146" y1="507.8" x2="146" y2="505.9"/>
			<line class="st3" x1="146" y1="503" x2="146" y2="500.1"/>
			<line class="st3" x1="146" y1="497.3" x2="146" y2="494.4"/>
			<line class="st3" x1="146" y1="491.5" x2="146" y2="488.6"/>
			<line class="st3" x1="146" y1="485.7" x2="146" y2="482.9"/>
			<line class="st3" x1="146" y1="480" x2="146" y2="477.1"/>
			<line class="st3" x1="146" y1="474.2" x2="146" y2="471.3"/>
			<line class="st3" x1="146" y1="468.5" x2="146" y2="465.6"/>
			<line class="st3" x1="146" y1="462.7" x2="146" y2="459.8"/>
			<line class="st3" x1="146" y1="456.9" x2="146" y2="454.1"/>
			<line class="st3" x1="146" y1="451.2" x2="146" y2="448.3"/>
			<line class="st3" x1="146" y1="445.4" x2="146" y2="442.5"/>
			<line class="st3" x1="146" y1="439.7" x2="146" y2="436.8"/>
			<line class="st3" x1="146" y1="433.9" x2="146" y2="431"/>
			<line class="st3" x1="146" y1="428.1" x2="146" y2="425.3"/>
			<line class="st3" x1="146" y1="422.4" x2="146" y2="419.5"/>
			<line class="st3" x1="146" y1="416.6" x2="146" y2="413.7"/>
			<line class="st3" x1="146" y1="410.9" x2="146" y2="408"/>
			<line class="st3" x1="146" y1="405.1" x2="146" y2="402.2"/>
			<line class="st3" x1="146" y1="399.3" x2="146" y2="396.5"/>
			<line class="st3" x1="146" y1="393.6" x2="146" y2="390.7"/>
			<line class="st3" x1="146" y1="387.8" x2="146" y2="384.9"/>
			<line class="st3" x1="146" y1="382.1" x2="146" y2="379.2"/>
			<line class="st3" x1="146" y1="376.3" x2="146" y2="373.4"/>
			<line class="st3" x1="146" y1="370.5" x2="146" y2="367.7"/>
			<line class="st3" x1="146" y1="364.8" x2="146" y2="361.9"/>
			<line class="st3" x1="146" y1="359" x2="146" y2="356.1"/>
			<line class="st3" x1="146" y1="353.3" x2="146" y2="350.4"/>
			<line class="st3" x1="146" y1="347.5" x2="146" y2="344.6"/>
			<line class="st3" x1="146" y1="341.7" x2="146" y2="338.9"/>
			<line class="st3" x1="146" y1="337.2" x2="146" y2="336.7"/>
			<line class="st3" x1="148.7" y1="335.7" x2="151.3" y2="334.5"/>
			<line class="st3" x1="154" y1="333.6" x2="156.8" y2="332.4"/>
			<line class="st3" x1="159.5" y1="331.4" x2="162.1" y2="330.2"/>
			<line class="st3" x1="164.8" y1="329.3" x2="167.4" y2="328.1"/>
			<line class="st3" x1="170" y1="327.1" x2="172.7" y2="325.9"/>
			<line class="st3" x1="175.3" y1="324.9" x2="178.2" y2="323.7"/>
			<line class="st3" x1="180.8" y1="322.8" x2="183.5" y2="321.6"/>
			<line class="st3" x1="186.1" y1="320.6" x2="188.8" y2="319.4"/>
			<line class="st3" x1="191.4" y1="318.5" x2="194" y2="317.3"/>
			<line class="st3" x1="196.9" y1="316.3" x2="199.6" y2="315.1"/>
			<line class="st3" x1="202.2" y1="314.1" x2="202.7" y2="313.9"/>
			<line class="st3" x1="202.7" y1="516.9" x2="202.7" y2="519.8"/>
			<rect x="214.2" y="165.8" class="st0" width="50.2" height="11.3"/>
			<rect x="796.9" y="212.4" class="st6" width="2.9" height="1.2"/>
			<line class="st6" x1="693.5" y1="270.7" x2="693.5" y2="267.8"/>
			<line class="st6" x1="769.8" y1="310.3" x2="769.8" y2="306.9"/>
			<line class="st6" x1="509.4" y1="423.8" x2="474.4" y2="423.8"/>
			<line class="st6" x1="889.6" y1="423.8" x2="824.3" y2="423.8"/>
			<line class="st6" x1="964.9" y1="423.8" x2="912.1" y2="423.8"/>
			<line class="st6" x1="746.3" y1="384" x2="798.8" y2="384"/>
			<line class="st6" x1="614.8" y1="384" x2="689.6" y2="384"/>
			<rect x="544" y="472.1" class="st2" width="17" height="56.6"/>
			<rect x="544" y="472.1" class="st3" width="17" height="56.6"/>
			<rect x="524" y="469.2" class="st2" width="17" height="62.4"/>
			<rect x="524" y="469.2" class="st3" width="17" height="62.4"/>
			<polyline class="st1" points="561,528.7 561,531.6 541.1,531.6 541.1,469.2 561,469.2 561,472.1 544,472.1 544,528.7 561,528.7 
							"/>
			<polygon class="st0" points="561,528.7 561,531.6 541.1,531.6 541.1,469.2 561,469.2 561,472.1 544,472.1 544,528.7 			"/>
			<polyline class="st2" points="640.2,551.3 617.6,551.3 617.6,500.4 640.2,500.4 640.2,551.3 			"/>
			<rect x="617.6" y="500.4" class="st6" width="22.6" height="50.9"/>
			<rect x="611.9" y="503" class="st2" width="5.8" height="11.3"/>
			<rect x="611.9" y="503" class="st6" width="5.8" height="11.3"/>
			<rect x="640.2" y="503" class="st2" width="5.8" height="11.3"/>
			<rect x="640.2" y="503" class="st6" width="5.8" height="11.3"/>
			<rect x="611.9" y="520.1" class="st2" width="5.8" height="11.3"/>
			<rect x="611.9" y="520.1" class="st6" width="5.8" height="11.3"/>
			<rect x="640.2" y="520.1" class="st2" width="5.8" height="11.3"/>
			<rect x="640.2" y="520.1" class="st6" width="5.8" height="11.3"/>
			<rect x="611.9" y="537.1" class="st2" width="5.8" height="11.3"/>
			<rect x="611.9" y="537.1" class="st6" width="5.8" height="11.3"/>
			<rect x="640.2" y="537.1" class="st2" width="5.8" height="11.3"/>
			<rect x="640.2" y="537.1" class="st6" width="5.8" height="11.3"/>
			<line class="st3" x1="1158.1" y1="426.2" x2="1158.8" y2="426.5"/>
			<line class="st3" x1="1161.5" y1="427.2" x2="1164.4" y2="427.9"/>
			<line class="st3" x1="1167.2" y1="428.6" x2="1169.9" y2="429.3"/>
			<line class="st3" x1="1172.8" y1="430.3" x2="1175.4" y2="431"/>
			<line class="st3" x1="1178.3" y1="431.7" x2="1180.9" y2="432.5"/>
			<line class="st3" x1="1183.8" y1="433.2" x2="1186.7" y2="434.1"/>
			<line class="st3" x1="1189.3" y1="434.9" x2="1192.2" y2="435.6"/>
			<line class="st3" x1="1194.8" y1="436.3" x2="1197.7" y2="437"/>
			<line class="st3" x1="1200.4" y1="437.7" x2="1203.2" y2="438.7"/>
			<line class="st3" x1="1206.1" y1="439.4" x2="1208.8" y2="440.1"/>
			<line class="st3" x1="1211.6" y1="440.9" x2="1214.3" y2="441.6"/>
			<line class="st3" x1="1217.2" y1="442.3" x2="1217.6" y2="442.5"/>
			<line class="st3" x1="1217.6" y1="442.5" x2="1217.6" y2="444.9"/>
			<line class="st3" x1="1217.6" y1="447.8" x2="1217.6" y2="450.7"/>
			<line class="st3" x1="1217.6" y1="453.6" x2="1217.6" y2="456.5"/>
			<line class="st3" x1="1217.6" y1="459.3" x2="1217.6" y2="462.2"/>
			<line class="st3" x1="1217.6" y1="465.1" x2="1217.6" y2="468"/>
			<line class="st3" x1="1217.6" y1="470.9" x2="1217.6" y2="473.7"/>
			<line class="st3" x1="1217.6" y1="476.6" x2="1217.6" y2="479.5"/>
			<line class="st3" x1="1217.6" y1="482.4" x2="1217.6" y2="485.3"/>
			<line class="st3" x1="1217.6" y1="488.1" x2="1217.6" y2="491"/>
			<line class="st3" x1="1217.6" y1="493.9" x2="1217.6" y2="496.8"/>
			<line class="st3" x1="1217.6" y1="499.7" x2="1217.6" y2="502.5"/>
			<line class="st3" x1="1217.6" y1="505.4" x2="1217.6" y2="508.3"/>
			<line class="st3" x1="1217.6" y1="511.2" x2="1217.6" y2="514.1"/>
			<line class="st3" x1="1217.6" y1="516.9" x2="1217.6" y2="519.8"/>
			<line class="st3" x1="1217.6" y1="522.7" x2="1217.6" y2="525.6"/>
			<line class="st3" x1="1217.6" y1="528.5" x2="1217.6" y2="531.3"/>
			<line class="st3" x1="1217.6" y1="534.2" x2="1217.6" y2="537.1"/>
			<line class="st3" x1="1217.6" y1="540" x2="1217.6" y2="542.9"/>
			<line class="st3" x1="1217.6" y1="545.7" x2="1217.6" y2="548.6"/>
			<line class="st3" x1="1217.6" y1="551.5" x2="1217.6" y2="554.4"/>
			<line class="st3" x1="1217.6" y1="557.3" x2="1217.6" y2="560.1"/>
			<line class="st3" x1="1217.6" y1="563" x2="1217.6" y2="565.9"/>
			<line class="st3" x1="1217.6" y1="566.4" x2="1217.6" y2="566.9"/>
			<line class="st3" x1="1217.6" y1="566.9" x2="1216.9" y2="567.1"/>
			<line class="st3" x1="1214.3" y1="567.8" x2="1211.4" y2="568.5"/>
			<line class="st3" x1="1208.5" y1="569.3" x2="1205.9" y2="570.2"/>
			<line class="st3" x1="1203" y1="570.9" x2="1200.4" y2="571.7"/>
			<line class="st3" x1="1197.5" y1="572.4" x2="1194.8" y2="573.3"/>
			<line class="st3" x1="1192" y1="574.1" x2="1189.3" y2="574.8"/>
			<line class="st3" x1="1186.4" y1="575.5" x2="1183.6" y2="576.2"/>
			<line class="st3" x1="1180.9" y1="577.2" x2="1178" y2="577.9"/>
			<line class="st3" x1="1175.4" y1="578.6" x2="1172.5" y2="579.3"/>
			<line class="st3" x1="1169.9" y1="580.1" x2="1167" y2="581"/>
			<line class="st3" x1="1164.1" y1="581.7" x2="1161.5" y2="582.5"/>
			<line class="st3" x1="1158.6" y1="583.2" x2="1158.1" y2="583.4"/>
			<line class="st3" x1="1158.1" y1="337.9" x2="1159.3" y2="338.4"/>
			<line class="st3" x1="1162" y1="339.3" x2="1164.6" y2="340.3"/>
			<line class="st3" x1="1167.5" y1="341" x2="1170.1" y2="342"/>
			<line class="st3" x1="1172.8" y1="342.9" x2="1175.6" y2="343.9"/>
			<line class="st3" x1="1178.3" y1="344.9" x2="1180.9" y2="345.8"/>
			<line class="st3" x1="1183.8" y1="346.8" x2="1186.4" y2="347.7"/>
			<line class="st3" x1="1189.1" y1="348.7" x2="1192" y2="349.7"/>
			<line class="st3" x1="1194.6" y1="350.6" x2="1197.2" y2="351.6"/>
			<line class="st3" x1="1200.1" y1="352.5" x2="1202.8" y2="353.5"/>
			<line class="st3" x1="1205.4" y1="354.2" x2="1208.3" y2="355.2"/>
			<line class="st3" x1="1210.9" y1="356.1" x2="1213.6" y2="357.1"/>
			<line class="st3" x1="1216.4" y1="358.1" x2="1217.6" y2="358.5"/>
			<line class="st3" x1="1217.6" y1="358.5" x2="1217.6" y2="360.2"/>
			<line class="st3" x1="1217.6" y1="363.1" x2="1217.6" y2="366"/>
			<line class="st3" x1="1217.6" y1="368.9" x2="1217.6" y2="371.7"/>
			<line class="st3" x1="1217.6" y1="374.6" x2="1217.6" y2="377.5"/>
			<line class="st3" x1="1217.6" y1="380.4" x2="1217.6" y2="383.3"/>
			<line class="st3" x1="1217.6" y1="386.1" x2="1217.6" y2="389"/>
			<line class="st3" x1="1217.6" y1="391.9" x2="1217.6" y2="394.8"/>
			<line class="st3" x1="1217.6" y1="397.7" x2="1217.6" y2="400.5"/>
			<line class="st3" x1="1217.6" y1="403.4" x2="1217.6" y2="406.3"/>
			<line class="st3" x1="1217.6" y1="409.2" x2="1217.6" y2="412.1"/>
			<line class="st3" x1="1217.6" y1="414.9" x2="1217.6" y2="417.8"/>
			<line class="st3" x1="1217.6" y1="420.7" x2="1217.6" y2="423.6"/>
			<line class="st3" x1="1217.6" y1="426.5" x2="1217.6" y2="429.3"/>
			<line class="st3" x1="1217.6" y1="432.2" x2="1217.6" y2="435.1"/>
			<line class="st3" x1="1217.6" y1="438" x2="1217.6" y2="440.9"/>
			<line class="st3" x1="1217.6" y1="442.1" x2="1217.6" y2="442.5"/>
			<line class="st3" x1="146" y1="336.7" x2="146" y2="334.3"/>
			<line class="st3" x1="146" y1="331.4" x2="146" y2="328.5"/>
			<line class="st3" x1="146" y1="325.7" x2="146" y2="322.8"/>
			<line class="st3" x1="146" y1="319.9" x2="146" y2="317"/>
			<line class="st3" x1="146" y1="314.1" x2="146" y2="311.3"/>
			<line class="st3" x1="146" y1="308.4" x2="146" y2="305.5"/>
			<line class="st3" x1="146" y1="302.6" x2="146" y2="299.7"/>
			<line class="st3" x1="146" y1="296.9" x2="146" y2="294.7"/>
			<line class="st3" x1="146" y1="294.7" x2="147" y2="294.2"/>
			<line class="st3" x1="149.6" y1="293" x2="152" y2="291.8"/>
			<line class="st3" x1="154.7" y1="290.6" x2="157.3" y2="289.4"/>
			<line class="st3" x1="160" y1="288.2" x2="162.6" y2="287"/>
			<line class="st3" x1="165.2" y1="285.8" x2="167.9" y2="284.6"/>
			<line class="st3" x1="170.5" y1="283.4" x2="173.2" y2="282.2"/>
			<line class="st3" x1="175.8" y1="281" x2="178.4" y2="279.8"/>
			<line class="st3" x1="180.8" y1="278.6" x2="183.5" y2="277.4"/>
			<line class="st3" x1="186.1" y1="276.2" x2="188.8" y2="275"/>
			<line class="st3" x1="191.4" y1="273.8" x2="194" y2="272.6"/>
			<line class="st3" x1="196.7" y1="271.4" x2="199.3" y2="270.2"/>
			<line class="st3" x1="202" y1="269" x2="202.7" y2="268.8"/>
			<line class="st3" x1="202.7" y1="268.8" x2="202.7" y2="269.7"/>
			<line class="st3" x1="202.7" y1="272.6" x2="202.7" y2="275.5"/>
			<line class="st3" x1="202.7" y1="278.4" x2="202.7" y2="281.3"/>
			<line class="st3" x1="202.7" y1="284.1" x2="202.7" y2="287"/>
			<line class="st3" x1="202.7" y1="289.9" x2="202.7" y2="292.8"/>
			<line class="st3" x1="202.7" y1="295.7" x2="202.7" y2="298.5"/>
			<line class="st3" x1="202.7" y1="301.4" x2="202.7" y2="304.3"/>
			<line class="st3" x1="202.7" y1="307.2" x2="202.7" y2="310.1"/>
			<line class="st3" x1="202.7" y1="312.9" x2="202.7" y2="313.9"/>
			<line class="st3" x1="202.7" y1="516.9" x2="201.7" y2="516.5"/>
			<line class="st3" x1="199.1" y1="515.3" x2="196.4" y2="514.1"/>
			<line class="st3" x1="194" y1="512.9" x2="191.4" y2="511.9"/>
			<line class="st3" x1="188.8" y1="510.7" x2="186.1" y2="509.5"/>
			<line class="st3" x1="183.5" y1="508.3" x2="180.8" y2="507.1"/>
			<line class="st3" x1="178.2" y1="505.9" x2="175.6" y2="504.7"/>
			<line class="st3" x1="172.9" y1="503.5" x2="170.3" y2="502.3"/>
			<line class="st3" x1="167.6" y1="501.1" x2="165" y2="499.9"/>
			<line class="st3" x1="162.4" y1="498.7" x2="159.7" y2="497.5"/>
			<line class="st3" x1="157.3" y1="496.3" x2="154.7" y2="495.1"/>
			<line class="st3" x1="152" y1="493.9" x2="149.4" y2="492.7"/>
			<line class="st3" x1="146.8" y1="491.5" x2="146" y2="491.3"/>
			<line class="st3" x1="202.7" y1="565.4" x2="202.7" y2="566.6"/>
			<line class="st3" x1="202.7" y1="568.1" x2="202.7" y2="570.9"/>
			<line class="st3" x1="202.7" y1="572.4" x2="202.7" y2="575.3"/>
			<line class="st3" x1="202.7" y1="576.7" x2="202.7" y2="579.6"/>
			<line class="st3" x1="202.7" y1="581" x2="202.7" y2="583.9"/>
			<line class="st3" x1="202.7" y1="585.3" x2="202.7" y2="588.2"/>
			<line class="st3" x1="202.7" y1="589.7" x2="202.7" y2="592.5"/>
			<line class="st3" x1="202.7" y1="594" x2="202.7" y2="596.9"/>
			<line class="st3" x1="202.7" y1="598.3" x2="202.7" y2="601.2"/>
			<line class="st3" x1="202.7" y1="602.6" x2="202.7" y2="605.5"/>
			<line class="st3" x1="202.7" y1="606.9" x2="202.7" y2="609.8"/>
			<line class="st3" x1="202.7" y1="611.3" x2="202.7" y2="614.1"/>
			<line class="st3" x1="202.7" y1="615.6" x2="202.7" y2="618.5"/>
			<line class="st3" x1="202.7" y1="619.9" x2="202.7" y2="622.8"/>
			<line class="st3" x1="202.7" y1="624.2" x2="202.7" y2="627.1"/>
			<line class="st3" x1="202.7" y1="628.5" x2="202.7" y2="631.4"/>
			<line class="st3" x1="202.7" y1="632.9" x2="202.7" y2="635.7"/>
			<line class="st3" x1="202.7" y1="637.2" x2="202.7" y2="640.1"/>
			<line class="st3" x1="202.7" y1="641.5" x2="202.7" y2="644.4"/>
			<line class="st3" x1="202.7" y1="645.8" x2="202.7" y2="648.7"/>
			<line class="st3" x1="202.7" y1="650.1" x2="202.7" y2="653"/>
			<line class="st3" x1="202.7" y1="654.5" x2="202.7" y2="657.3"/>
			<line class="st3" x1="202.7" y1="658.8" x2="202.7" y2="661.7"/>
			<line class="st3" x1="202.7" y1="663.1" x2="202.7" y2="666"/>
			<line class="st3" x1="202.7" y1="667.4" x2="202.7" y2="670.3"/>
			<line class="st3" x1="202.7" y1="671.7" x2="202.7" y2="674.6"/>
			<line class="st3" x1="202.7" y1="676.1" x2="202.7" y2="678.9"/>
			<line class="st3" x1="202.7" y1="680.4" x2="202.7" y2="683.3"/>
			<line class="st3" x1="202.7" y1="684.7" x2="202.7" y2="687.6"/>
			<line class="st3" x1="202.7" y1="689" x2="202.7" y2="691.9"/>
			<line class="st3" x1="202.7" y1="693.3" x2="202.7" y2="696.2"/>
			<line class="st3" x1="202.7" y1="697.7" x2="202.7" y2="700.5"/>
			<line class="st3" x1="202.7" y1="702" x2="202.7" y2="704.9"/>
			<line class="st3" x1="202.7" y1="706.3" x2="202.7" y2="709.2"/>
			<line class="st3" x1="202.7" y1="710.6" x2="202.7" y2="713.5"/>
			<line class="st3" x1="202.7" y1="714.9" x2="202.7" y2="717.8"/>
			<line class="st3" x1="202.7" y1="719.3" x2="202.7" y2="722.1"/>
			<line class="st3" x1="1158.1" y1="722.6" x2="1158.1" y2="719.7"/>
			<line class="st3" x1="1158.1" y1="718.3" x2="1158.1" y2="715.4"/>
			<line class="st3" x1="1158.1" y1="714" x2="1158.1" y2="711.1"/>
			<line class="st3" x1="1158.1" y1="709.7" x2="1158.1" y2="706.8"/>
			<line class="st3" x1="1158.1" y1="705.3" x2="1158.1" y2="702.5"/>
			<line class="st3" x1="1158.1" y1="701" x2="1158.1" y2="698.1"/>
			<line class="st3" x1="1158.1" y1="696.7" x2="1158.1" y2="693.8"/>
			<line class="st3" x1="1158.1" y1="692.4" x2="1158.1" y2="689.5"/>
			<line class="st3" x1="1158.1" y1="688.1" x2="1158.1" y2="685.2"/>
			<line class="st3" x1="1158.1" y1="683.7" x2="1158.1" y2="680.9"/>
			<line class="st3" x1="1158.1" y1="679.4" x2="1158.1" y2="676.5"/>
			<line class="st3" x1="1158.1" y1="675.1" x2="1158.1" y2="672.2"/>
			<line class="st3" x1="1158.1" y1="670.8" x2="1158.1" y2="667.9"/>
			<line class="st3" x1="1158.1" y1="666.5" x2="1158.1" y2="663.6"/>
			<line class="st3" x1="1158.1" y1="662.1" x2="1158.1" y2="659.3"/>
			<line class="st3" x1="1158.1" y1="657.8" x2="1158.1" y2="654.9"/>
			<line class="st3" x1="1158.1" y1="653.5" x2="1158.1" y2="650.6"/>
			<line class="st3" x1="1158.1" y1="649.2" x2="1158.1" y2="646.3"/>
			<line class="st3" x1="1158.1" y1="644.9" x2="1158.1" y2="642"/>
			<line class="st3" x1="1158.1" y1="640.5" x2="1158.1" y2="637.7"/>
			<line class="st3" x1="1158.1" y1="636.2" x2="1158.1" y2="633.3"/>
			<line class="st3" x1="1158.1" y1="631.9" x2="1158.1" y2="629"/>
			<line class="st3" x1="1158.1" y1="627.6" x2="1158.1" y2="624.7"/>
			<line class="st3" x1="1158.1" y1="623.3" x2="1158.1" y2="620.4"/>
			<line class="st3" x1="1158.1" y1="618.9" x2="1158.1" y2="616.1"/>
			<line class="st3" x1="1158.1" y1="614.6" x2="1158.1" y2="611.7"/>
			<line class="st3" x1="1158.1" y1="610.3" x2="1158.1" y2="607.4"/>
			<line class="st3" x1="1158.1" y1="606" x2="1158.1" y2="605.3"/>
			<line class="st3" x1="216.8" y1="565.4" x2="216.8" y2="567.3"/>
			<line class="st3" x1="216.8" y1="568.8" x2="216.8" y2="571.7"/>
			<line class="st3" x1="216.8" y1="573.1" x2="216.8" y2="576"/>
			<line class="st3" x1="216.8" y1="577.4" x2="216.8" y2="580.3"/>
			<line class="st3" x1="216.8" y1="581.7" x2="216.8" y2="584.6"/>
			<line class="st3" x1="216.8" y1="586.1" x2="216.8" y2="588.9"/>
			<line class="st3" x1="216.8" y1="590.4" x2="216.8" y2="593.3"/>
			<line class="st3" x1="216.8" y1="594.7" x2="216.8" y2="597.6"/>
			<line class="st3" x1="216.8" y1="599" x2="216.8" y2="601.9"/>
			<line class="st3" x1="216.8" y1="603.3" x2="216.8" y2="606.2"/>
			<line class="st3" x1="216.8" y1="607.7" x2="216.8" y2="610.5"/>
			<line class="st3" x1="216.8" y1="612" x2="216.8" y2="614.9"/>
			<line class="st3" x1="216.8" y1="616.3" x2="216.8" y2="619.2"/>
			<line class="st3" x1="216.8" y1="620.6" x2="216.8" y2="623.5"/>
			<line class="st3" x1="216.8" y1="624.9" x2="216.8" y2="627.8"/>
			<line class="st3" x1="216.8" y1="629.3" x2="216.8" y2="632.1"/>
			<line class="st3" x1="216.8" y1="633.6" x2="216.8" y2="636.5"/>
			<line class="st3" x1="216.8" y1="637.9" x2="216.8" y2="640.8"/>
			<line class="st3" x1="216.8" y1="642.2" x2="216.8" y2="645.1"/>
			<line class="st3" x1="216.8" y1="646.5" x2="216.8" y2="649.4"/>
			<line class="st3" x1="216.8" y1="650.9" x2="216.8" y2="653.7"/>
			<line class="st3" x1="216.8" y1="655.2" x2="216.8" y2="658.1"/>
			<line class="st3" x1="216.8" y1="659.5" x2="216.8" y2="662.4"/>
			<line class="st3" x1="216.8" y1="663.8" x2="216.8" y2="666.7"/>
			<line class="st3" x1="216.8" y1="668.1" x2="216.8" y2="671"/>
			<line class="st3" x1="216.8" y1="672.5" x2="216.8" y2="675.3"/>
			<line class="st3" x1="216.8" y1="676.8" x2="216.8" y2="679.7"/>
			<line class="st3" x1="216.8" y1="681.1" x2="216.8" y2="684"/>
			<line class="st3" x1="216.8" y1="685.4" x2="216.8" y2="688.3"/>
			<line class="st3" x1="216.8" y1="689.7" x2="216.8" y2="692.6"/>
			<line class="st3" x1="216.8" y1="694.1" x2="216.8" y2="696.9"/>
			<line class="st3" x1="216.8" y1="698.4" x2="216.8" y2="701.3"/>
			<line class="st3" x1="216.8" y1="702.7" x2="216.8" y2="705.6"/>
			<line class="st3" x1="216.8" y1="707" x2="216.8" y2="709.9"/>
			<line class="st3" x1="216.8" y1="711.3" x2="216.8" y2="714.2"/>
			<line class="st3" x1="216.8" y1="715.7" x2="216.8" y2="718.5"/>
			<line class="st3" x1="216.8" y1="720" x2="216.8" y2="722.9"/>
			<line class="st3" x1="1146.6" y1="719" x2="1146.6" y2="716.1"/>
			<line class="st3" x1="1146.6" y1="714.7" x2="1146.6" y2="711.8"/>
			<line class="st3" x1="1146.6" y1="710.4" x2="1146.6" y2="707.5"/>
			<line class="st3" x1="1146.6" y1="706.1" x2="1146.6" y2="703.2"/>
			<line class="st3" x1="1146.6" y1="701.7" x2="1146.6" y2="698.9"/>
			<line class="st3" x1="1146.6" y1="697.4" x2="1146.6" y2="694.5"/>
			<line class="st3" x1="1146.6" y1="693.1" x2="1146.6" y2="690.2"/>
			<line class="st3" x1="1146.6" y1="688.8" x2="1146.6" y2="685.9"/>
			<line class="st3" x1="1146.6" y1="684.5" x2="1146.6" y2="681.6"/>
			<line class="st3" x1="1146.6" y1="680.1" x2="1146.6" y2="677.3"/>
			<line class="st3" x1="1146.6" y1="675.8" x2="1146.6" y2="672.9"/>
			<line class="st3" x1="1146.6" y1="671.5" x2="1146.6" y2="668.6"/>
			<line class="st3" x1="1146.6" y1="667.2" x2="1146.6" y2="664.3"/>
			<line class="st3" x1="1146.6" y1="662.9" x2="1146.6" y2="660"/>
			<line class="st3" x1="1146.6" y1="658.5" x2="1146.6" y2="655.7"/>
			<line class="st3" x1="1146.6" y1="654.2" x2="1146.6" y2="651.3"/>
			<line class="st3" x1="1146.6" y1="649.9" x2="1146.6" y2="647"/>
			<line class="st3" x1="1146.6" y1="645.6" x2="1146.6" y2="642.7"/>
			<line class="st3" x1="1146.6" y1="641.3" x2="1146.6" y2="638.4"/>
			<line class="st3" x1="1146.6" y1="636.9" x2="1146.6" y2="634.1"/>
			<line class="st3" x1="1146.6" y1="632.6" x2="1146.6" y2="629.7"/>
			<line class="st3" x1="1146.6" y1="628.3" x2="1146.6" y2="625.4"/>
			<line class="st3" x1="1146.6" y1="624" x2="1146.6" y2="621.1"/>
			<line class="st3" x1="1146.6" y1="619.7" x2="1146.6" y2="616.8"/>
			<line class="st3" x1="1146.6" y1="615.3" x2="1146.6" y2="612.5"/>
			<line class="st3" x1="1146.6" y1="611" x2="1146.6" y2="608.1"/>
			<line class="st3" x1="1146.6" y1="606.7" x2="1146.6" y2="605.3"/>
			<line class="st3" x1="202.7" y1="599" x2="200" y2="599"/>
			<line class="st3" x1="198.6" y1="599" x2="195.7" y2="599"/>
			<line class="st3" x1="194.3" y1="599" x2="191.4" y2="599"/>
			<line class="st3" x1="190" y1="599" x2="187.1" y2="599"/>
			<line class="st3" x1="185.6" y1="599" x2="182.8" y2="599"/>
			<line class="st3" x1="181.3" y1="599" x2="178.4" y2="599"/>
			<line class="st3" x1="177" y1="599" x2="174.1" y2="599"/>
			<line class="st3" x1="172.7" y1="599" x2="169.8" y2="599"/>
			<line class="st3" x1="168.4" y1="599" x2="165.5" y2="599"/>
			<line class="st3" x1="164" y1="599" x2="161.2" y2="599"/>
			<line class="st3" x1="159.7" y1="599" x2="156.8" y2="599"/>
			<line class="st3" x1="155.4" y1="599" x2="152.5" y2="599"/>
			<line class="st3" x1="151.1" y1="599" x2="148.2" y2="599"/>
			<line class="st3" x1="146.8" y1="599" x2="143.9" y2="599"/>
			<line class="st3" x1="142.4" y1="599" x2="139.6" y2="599"/>
			<line class="st3" x1="138.1" y1="599" x2="135.2" y2="599"/>
			<line class="st3" x1="133.8" y1="599" x2="130.9" y2="599"/>
			<line class="st3" x1="129.5" y1="599" x2="126.6" y2="599"/>
			<line class="st3" x1="125.2" y1="599" x2="122.3" y2="599"/>
			<line class="st3" x1="120.8" y1="599" x2="118" y2="599"/>
			<line class="st3" x1="116.5" y1="599" x2="113.6" y2="599"/>
			<line class="st3" x1="112.2" y1="599" x2="109.3" y2="599"/>
			<line class="st3" x1="107.9" y1="599" x2="105" y2="599"/>
			<line class="st3" x1="103.6" y1="599" x2="100.7" y2="599"/>
			<line class="st3" x1="99.2" y1="599" x2="96.4" y2="599"/>
			<line class="st3" x1="94.9" y1="599" x2="92" y2="599"/>
			<line class="st3" x1="90.6" y1="599" x2="87.7" y2="599"/>
			<line class="st3" x1="86.3" y1="599" x2="83.6" y2="599"/>
			<line class="st3" x1="202.7" y1="604.5" x2="200" y2="604.5"/>
			<line class="st3" x1="198.6" y1="604.5" x2="195.7" y2="604.5"/>
			<line class="st3" x1="194.3" y1="604.5" x2="191.4" y2="604.5"/>
			<line class="st3" x1="190" y1="604.5" x2="187.1" y2="604.5"/>
			<line class="st3" x1="185.6" y1="604.5" x2="182.8" y2="604.5"/>
			<line class="st3" x1="181.3" y1="604.5" x2="178.4" y2="604.5"/>
			<line class="st3" x1="177" y1="604.5" x2="174.1" y2="604.5"/>
			<line class="st3" x1="172.7" y1="604.5" x2="169.8" y2="604.5"/>
			<line class="st3" x1="168.4" y1="604.5" x2="165.5" y2="604.5"/>
			<line class="st3" x1="164" y1="604.5" x2="161.2" y2="604.5"/>
			<line class="st3" x1="159.7" y1="604.5" x2="156.8" y2="604.5"/>
			<line class="st3" x1="155.4" y1="604.5" x2="152.5" y2="604.5"/>
			<line class="st3" x1="151.1" y1="604.5" x2="148.2" y2="604.5"/>
			<line class="st3" x1="146.8" y1="604.5" x2="143.9" y2="604.5"/>
			<line class="st3" x1="142.4" y1="604.5" x2="139.6" y2="604.5"/>
			<line class="st3" x1="138.1" y1="604.5" x2="135.2" y2="604.5"/>
			<line class="st3" x1="133.8" y1="604.5" x2="130.9" y2="604.5"/>
			<line class="st3" x1="129.5" y1="604.5" x2="126.6" y2="604.5"/>
			<line class="st3" x1="125.2" y1="604.5" x2="122.3" y2="604.5"/>
			<line class="st3" x1="120.8" y1="604.5" x2="118" y2="604.5"/>
			<line class="st3" x1="116.5" y1="604.5" x2="113.6" y2="604.5"/>
			<line class="st3" x1="112.2" y1="604.5" x2="109.3" y2="604.5"/>
			<line class="st3" x1="107.9" y1="604.5" x2="105" y2="604.5"/>
			<line class="st3" x1="103.6" y1="604.5" x2="100.7" y2="604.5"/>
			<line class="st3" x1="99.2" y1="604.5" x2="96.4" y2="604.5"/>
			<line class="st3" x1="94.9" y1="604.5" x2="92" y2="604.5"/>
			<line class="st3" x1="90.6" y1="604.5" x2="87.7" y2="604.5"/>
			<line class="st3" x1="86.3" y1="604.5" x2="83.6" y2="604.5"/>
			<path class="st6" d="M-130.8,42.5l628.2,0.6c3.7,0,7.4,0.7,10.8,2.2c3.4,1.4,6.6,3.5,9.2,6.2c2.6,2.6,4.7,5.8,6.1,9.2
				c1.4,3.4,2.2,7.1,2.2,10.8l-0.1,94.4"/>
			<line class="st6" x1="920" y1="211.2" x2="921" y2="-39.4"/>
			<rect x="280.4" y="475.4" class="st2" width="34.1" height="19.9"/>
			<rect x="280.4" y="475.4" class="st6" width="34.1" height="19.9"/>
			<polyline class="st2" points="268.4,464.9 268.4,439.4 326.5,439.4 326.5,464.9 268.4,464.9 			"/>
			<rect x="268.4" y="439.4" class="st6" width="58.1" height="25.4"/>
			<polyline class="st2" points="271.3,464.9 271.3,442.3 323.6,442.3 323.6,464.9 271.3,464.9 			"/>
			<rect x="271.3" y="442.3" class="st6" width="52.3" height="22.6"/>
			<polyline class="st2" points="243.2,473.5 262.7,469.7 267,490.8 247.6,494.6 243.2,473.5 			"/>
			<polygon class="st6" points="243.2,473.5 262.7,469.7 267,490.8 247.6,494.6 			"/>
			<polyline class="st2" points="263.2,472.5 246.6,475.9 249.7,491.3 266.3,487.9 263.2,472.5 			"/>
			<polygon class="st6" points="263.2,472.5 246.6,475.9 249.7,491.3 266.3,487.9 			"/>
			<polyline class="st2" points="347.4,497 327.7,495.3 329.6,473.7 349.6,475.7 347.4,497 			"/>
			<polygon class="st6" points="347.4,497 327.7,495.3 329.6,473.7 349.6,475.7 			"/>
			<polyline class="st2" points="329.4,476.6 346.4,478.3 345,493.9 328,492.5 329.4,476.6 			"/>
			<polygon class="st6" points="329.4,476.6 346.4,478.3 345,493.9 328,492.5 			"/>
			<rect x="440.8" y="475.9" class="st2" width="19.7" height="33.8"/>
			<rect x="440.8" y="475.9" class="st6" width="19.7" height="33.8"/>
			<polyline class="st2" points="430.2,521.7 404.5,521.7 404.5,463.7 430.2,463.7 430.2,521.7 			"/>
			<rect x="404.5" y="463.7" class="st6" width="25.7" height="58.1"/>
			<polyline class="st2" points="430.2,519.1 407.4,519.1 407.4,466.5 430.2,466.5 430.2,519.1 			"/>
			<rect x="407.4" y="466.5" class="st6" width="22.8" height="52.6"/>
			<polyline class="st2" points="438.8,547.2 434.8,527.7 455.9,523.4 460,542.9 438.8,547.2 			"/>
			<polygon class="st6" points="438.8,547.2 434.8,527.7 455.9,523.4 460,542.9 			"/>
			<polyline class="st2" points="437.6,527 441,543.8 456.6,540.7 453.2,523.9 437.6,527 			"/>
			
				<rect x="438.6" y="525.9" transform="matrix(-0.1961 -0.9806 0.9806 -0.1961 11.3175 1076.9996)" class="st6" width="17.1" height="15.9"/>
			<polyline class="st2" points="462.4,442.8 460.4,462.5 439.1,460.5 440.8,440.9 462.4,442.8 			"/>
			<polygon class="st6" points="462.4,442.8 460.4,462.5 439.1,460.5 440.8,440.9 			"/>
			<polyline class="st2" points="442,460.8 443.4,444 459.2,445.4 457.6,462.2 442,460.8 			"/>
			<polygon class="st6" points="442,460.8 443.4,444 459.2,445.4 457.6,462.2 			"/>
			<rect x="1048.7" y="536.4" class="st2" width="34.1" height="19.9"/>
			<rect x="1048.7" y="536.4" class="st6" width="34.1" height="19.9"/>
			<polyline class="st2" points="1036.7,525.8 1036.7,500.4 1094.8,500.4 1094.8,525.8 1036.7,525.8 			"/>
			<rect x="1036.7" y="500.4" class="st6" width="58.1" height="25.4"/>
			<polyline class="st2" points="1039.6,525.8 1039.6,503.3 1091.9,503.3 1091.9,525.8 1039.6,525.8 			"/>
			<rect x="1039.6" y="503.3" class="st6" width="52.3" height="22.6"/>
			<polyline class="st2" points="1011.5,534.5 1030.9,530.6 1035,551.7 1015.6,555.6 1011.5,534.5 			"/>
			<polygon class="st6" points="1011.5,534.5 1030.9,530.6 1035,551.7 1015.6,555.6 			"/>
			<polyline class="st2" points="1031.4,533.3 1014.6,536.6 1018,552.2 1034.5,548.9 1031.4,533.3 			"/>
			<polygon class="st6" points="1031.4,533.3 1014.6,536.6 1018,552.2 1034.5,548.9 			"/>
			<polyline class="st2" points="1115.6,558 1096,556.3 1097.9,534.7 1117.6,536.6 1115.6,558 			"/>
			<polygon class="st6" points="1115.6,558 1096,556.3 1097.9,534.7 1117.6,536.6 			"/>
			<polyline class="st2" points="1097.6,537.6 1114.7,539 1113.2,554.9 1096.2,553.4 1097.6,537.6 			"/>
			<polygon class="st6" points="1097.6,537.6 1114.7,539 1113.2,554.9 1096.2,553.4 			"/>
			<path class="st6" d="M350.2,231.8L350.2,231.8c-2.8,0-5.6,0.5-8.1,1.6c-2.6,1.1-4.9,2.6-6.9,4.6c-2,2-3.5,4.3-4.6,6.9
				c-1.1,2.6-1.6,5.3-1.6,8.1h21.3v1.4"/>
			<path class="st6" d="M350.2,324.6L350.2,324.6c-2.8,0-5.6,0.5-8.1,1.6c-2.6,1.1-4.9,2.6-6.9,4.6c-2,2-3.5,4.3-4.6,6.9
				c-1.1,2.6-1.6,5.3-1.6,8.1h21.3v1.4"/>
			<path class="st6" d="M350.2,406.5L350.2,406.5c-2.8,0-5.6,0.6-8.2,1.6s-5,2.7-7,4.7c-2,2-3.6,4.4-4.7,7c-1.1,2.6-1.6,5.4-1.6,8.2
				h21.5v1.4"/>
			<path class="st6" d="M392.7,401.1L392.7,401.1c2.8,0,5.6-0.5,8.1-1.6c2.6-1.1,4.9-2.6,6.9-4.6c2-2,3.5-4.3,4.6-6.9
				c1.1-2.6,1.6-5.3,1.6-8.1h-21.3v-1.4"/>
			<path class="st6" d="M474.5,372.8h1.4v21.7c2.9,0,5.7-0.6,8.3-1.7c2.6-1.1,5-2.7,7-4.7c2-2,3.6-4.4,4.7-7
				c1.1-2.6,1.7-5.5,1.7-8.3"/>
			<path class="st6" d="M611.9,429.5V428h21.3c0-2.8-0.5-5.6-1.6-8.1c-1.1-2.6-2.6-4.9-4.6-6.9c-2-2-4.3-3.5-6.9-4.6
				c-2.6-1.1-5.3-1.6-8.1-1.6"/>
			<path class="st6" d="M769,435.1L769,435.1c0-2.8-0.5-5.6-1.6-8.1c-1.1-2.6-2.6-4.9-4.6-6.9c-2-2-4.3-3.5-6.9-4.6
				c-2.6-1.1-5.3-1.6-8.1-1.6v21.3h-1.4"/>
			<path class="st6" d="M758.3,469.1L758.3,469.1c0,2.8,0.5,5.5,1.6,8.1c1.1,2.6,2.6,4.9,4.6,6.8c2,2,4.3,3.5,6.8,4.6
				c2.6,1.1,5.3,1.6,8.1,1.6v-21.1h1.4"/>
			<path class="st6" d="M846.1,469.1L846.1,469.1c0,2.8,0.5,5.5,1.6,8.1c1.1,2.6,2.6,4.9,4.6,6.9c2,2,4.3,3.5,6.9,4.6
				c2.6,1.1,5.3,1.6,8.1,1.6v-21.1h1.4"/>
			<path class="st6" d="M866.8,372.8L866.8,372.8c0,2.8,0.6,5.6,1.6,8.1c1.1,2.6,2.6,4.9,4.6,6.9c2,2,4.3,3.5,6.9,4.6
				c2.6,1.1,5.3,1.6,8.1,1.6l0-21.3h1.4"/>
			<path class="st2" d="M415.8,423.8v-10.5c0-0.7-0.1-1.3-0.4-1.9c-0.2-0.6-0.6-1.1-1.1-1.6s-1-0.8-1.6-1.1
				c-0.6-0.2-1.2-0.4-1.9-0.4c-0.7,0-1.3,0.1-1.9,0.4c-0.6,0.2-1.1,0.6-1.6,1.1s-0.8,1-1.1,1.6c-0.2,0.6-0.4,1.2-0.4,1.9v10.5H415.8
				"/>
			<path class="st6" d="M415.8,423.8v-10.5c0-0.7-0.1-1.3-0.4-1.9c-0.2-0.6-0.6-1.1-1.1-1.6s-1-0.8-1.6-1.1
				c-0.6-0.2-1.2-0.4-1.9-0.4c-0.7,0-1.3,0.1-1.9,0.4c-0.6,0.2-1.1,0.6-1.6,1.1s-0.8,1-1.1,1.6c-0.2,0.6-0.4,1.2-0.4,1.9v10.5H415.8
				"/>
			<line class="st6" x1="406" y1="420.9" x2="415.8" y2="420.9"/>
			<path class="st2" d="M532.2,386.2h-10.5c-0.7,0-1.3,0.1-1.9,0.4c-0.6,0.2-1.1,0.6-1.6,1.1c-0.5,0.5-0.8,1-1.1,1.6
				c-0.2,0.6-0.4,1.2-0.4,1.9c0,0.7,0.1,1.3,0.4,1.9c0.2,0.6,0.6,1.1,1.1,1.6c0.5,0.5,1,0.8,1.6,1.1c0.6,0.2,1.2,0.4,1.9,0.4h10.5
				V386.2"/>
			<path class="st6" d="M532.2,386.2h-10.5c-0.7,0-1.3,0.1-1.9,0.4c-0.6,0.2-1.1,0.6-1.6,1.1c-0.5,0.5-0.8,1-1.1,1.6
				c-0.2,0.6-0.4,1.2-0.4,1.9c0,0.7,0.1,1.3,0.4,1.9c0.2,0.6,0.6,1.1,1.1,1.6c0.5,0.5,1,0.8,1.6,1.1c0.6,0.2,1.2,0.4,1.9,0.4h10.5
				V386.2"/>
			<line class="st6" x1="529.3" y1="396.2" x2="529.3" y2="386.1"/>
			<path class="st2" d="M626.8,384.1v10.5c0,0.7,0.1,1.3,0.4,1.9c0.2,0.6,0.6,1.1,1.1,1.6c0.5,0.5,1,0.8,1.6,1.1
				c0.6,0.2,1.2,0.4,1.9,0.4c0.7,0,1.3-0.1,1.9-0.4c0.6-0.2,1.1-0.6,1.6-1.1c0.5-0.5,0.8-1,1.1-1.6c0.2-0.6,0.4-1.2,0.4-1.9v-10.5
				H626.8"/>
			<path class="st6" d="M626.8,384.1v10.5c0,0.7,0.1,1.3,0.4,1.9c0.2,0.6,0.6,1.1,1.1,1.6c0.5,0.5,1,0.8,1.6,1.1
				c0.6,0.2,1.2,0.4,1.9,0.4c0.7,0,1.3-0.1,1.9-0.4c0.6-0.2,1.1-0.6,1.6-1.1c0.5-0.5,0.8-1,1.1-1.6c0.2-0.6,0.4-1.2,0.4-1.9v-10.5
				H626.8"/>
			<line class="st6" x1="636.6" y1="386.9" x2="626.8" y2="386.9"/>
			<path class="st2" d="M754.1,384.1v10.5c0,0.7,0.1,1.3,0.4,1.9c0.2,0.6,0.6,1.1,1.1,1.6c0.5,0.5,1,0.8,1.6,1.1
				c0.6,0.2,1.2,0.4,1.9,0.4c0.7,0,1.3-0.1,1.9-0.4c0.6-0.2,1.1-0.6,1.6-1.1c0.5-0.5,0.8-1,1.1-1.6c0.2-0.6,0.4-1.2,0.4-1.9v-10.5
				H754.1"/>
			<path class="st6" d="M754.1,384.1v10.5c0,0.7,0.1,1.3,0.4,1.9c0.2,0.6,0.6,1.1,1.1,1.6c0.5,0.5,1,0.8,1.6,1.1
				c0.6,0.2,1.2,0.4,1.9,0.4c0.7,0,1.3-0.1,1.9-0.4c0.6-0.2,1.1-0.6,1.6-1.1c0.5-0.5,0.8-1,1.1-1.6c0.2-0.6,0.4-1.2,0.4-1.9v-10.5
				H754.1"/>
			<line class="st6" x1="764" y1="386.9" x2="754.2" y2="386.9"/>
			<path class="st2" d="M881.7,423.8v-10.5c0-0.7-0.1-1.3-0.4-1.9c-0.2-0.6-0.6-1.1-1.1-1.6c-0.5-0.5-1-0.8-1.6-1.1
				s-1.2-0.4-1.9-0.4s-1.3,0.1-1.9,0.4s-1.1,0.6-1.6,1.1c-0.5,0.5-0.8,1-1.1,1.6c-0.2,0.6-0.4,1.2-0.4,1.9v10.5H881.7"/>
			<path class="st6" d="M881.7,423.8v-10.5c0-0.7-0.1-1.3-0.4-1.9c-0.2-0.6-0.6-1.1-1.1-1.6c-0.5-0.5-1-0.8-1.6-1.1
				s-1.2-0.4-1.9-0.4s-1.3,0.1-1.9,0.4s-1.1,0.6-1.6,1.1c-0.5,0.5-0.8,1-1.1,1.6c-0.2,0.6-0.4,1.2-0.4,1.9v10.5H881.7"/>
			<line class="st6" x1="871.8" y1="420.9" x2="881.6" y2="420.9"/>
			<path class="st2" d="M956.8,423.8v-10.5c0-0.7-0.1-1.3-0.4-1.9c-0.2-0.6-0.6-1.1-1.1-1.6c-0.5-0.5-1-0.8-1.6-1.1
				c-0.6-0.2-1.2-0.4-1.9-0.4c-0.7,0-1.3,0.1-1.9,0.4c-0.6,0.2-1.1,0.6-1.6,1.1c-0.5,0.5-0.8,1-1.1,1.6c-0.2,0.6-0.4,1.2-0.4,1.9
				v10.5H956.8"/>
			<path class="st6" d="M956.8,423.8v-10.5c0-0.7-0.1-1.3-0.4-1.9c-0.2-0.6-0.6-1.1-1.1-1.6c-0.5-0.5-1-0.8-1.6-1.1
				c-0.6-0.2-1.2-0.4-1.9-0.4c-0.7,0-1.3,0.1-1.9,0.4c-0.6,0.2-1.1,0.6-1.6,1.1c-0.5,0.5-0.8,1-1.1,1.6c-0.2,0.6-0.4,1.2-0.4,1.9
				v10.5H956.8"/>
			<line class="st6" x1="946.9" y1="420.9" x2="956.8" y2="420.9"/>
			<rect x="426.8" y="412.5" class="st2" width="14.2" height="11.3"/>
			<rect x="426.8" y="412.5" class="st6" width="14.2" height="11.3"/>
			<rect x="428.3" y="413.7" class="st2" width="11.3" height="7.2"/>
			<rect x="428.3" y="413.7" class="st6" width="11.3" height="7.2"/>
			<rect x="486.1" y="412.5" class="st2" width="14.2" height="11.3"/>
			<rect x="486.1" y="412.5" class="st6" width="14.2" height="11.3"/>
			<rect x="487.6" y="413.7" class="st2" width="11.3" height="7.2"/>
			<rect x="487.6" y="413.7" class="st6" width="11.3" height="7.2"/>
			<rect x="645.5" y="384" class="st2" width="14.2" height="11.5"/>
			<rect x="645.5" y="384" class="st6" width="14.2" height="11.5"/>
			<rect x="646.9" y="386.9" class="st2" width="11.3" height="7.2"/>
			<rect x="646.9" y="386.9" class="st6" width="11.3" height="7.2"/>
			<rect x="774.6" y="384" class="st2" width="14.2" height="11.5"/>
			<rect x="774.6" y="384" class="st6" width="14.2" height="11.5"/>
			<rect x="776" y="386.9" class="st2" width="11.3" height="7.2"/>
			<rect x="776" y="386.9" class="st6" width="11.3" height="7.2"/>
			<rect x="851.9" y="412.5" class="st2" width="14.4" height="11.3"/>
			<rect x="851.9" y="412.5" class="st6" width="14.4" height="11.3"/>
			<rect x="853.3" y="414" class="st2" width="11.5" height="7"/>
			<rect x="853.3" y="414" class="st6" width="11.5" height="7"/>
			<rect x="922.2" y="412.5" class="st2" width="14.2" height="11.3"/>
			<rect x="922.2" y="412.5" class="st6" width="14.2" height="11.3"/>
			<rect x="923.4" y="414" class="st2" width="11.5" height="7"/>
			<rect x="923.4" y="414" class="st6" width="11.5" height="7"/>
			<polyline class="st2" points="448.9,429.3 448.9,378.5 471.7,378.5 471.7,429.3 448.9,429.3 			"/>
			<rect x="448.9" y="378.5" class="st6" width="22.8" height="50.9"/>
			<path class="st2" d="M451,380.5h18.5v36.4c0,1.2-0.2,2.4-0.7,3.5c-0.5,1.1-1.1,2.1-2,3c-0.9,0.9-1.9,1.5-3,2
				c-1.1,0.5-2.3,0.7-3.5,0.7c-1.2,0-2.4-0.2-3.5-0.7c-1.1-0.5-2.1-1.1-3-2c-0.9-0.9-1.5-1.9-2-3c-0.5-1.1-0.7-2.3-0.7-3.5V380.5"/>
			<path class="st6" d="M451,380.5h18.5v36.4c0,1.2-0.2,2.4-0.7,3.5c-0.5,1.1-1.1,2.1-2,3c-0.9,0.9-1.9,1.5-3,2
				c-1.1,0.5-2.3,0.7-3.5,0.7c-1.2,0-2.4-0.2-3.5-0.7c-1.1-0.5-2.1-1.1-3-2c-0.9-0.9-1.5-1.9-2-3c-0.5-1.1-0.7-2.3-0.7-3.5V380.5"/>
			<path class="st2" d="M461.2,385.7c0-0.5-0.4-1-1-1c-0.5,0-1,0.4-1,1c0,0.5,0.4,1,1,1C460.7,386.6,461.2,386.2,461.2,385.7"/>
			<path class="st6" d="M461.2,385.7c0-0.5-0.4-1-1-1c-0.5,0-1,0.4-1,1c0,0.5,0.4,1,1,1C460.7,386.6,461.2,386.2,461.2,385.7"/>
			<polyline class="st2" points="796,429.3 796,378.5 818.5,378.5 818.5,429.3 796,429.3 			"/>
			<rect x="796" y="378.5" class="st6" width="22.6" height="50.9"/>
			<path class="st2" d="M798,380.5h18.5v36.4c0,1.2-0.2,2.4-0.7,3.5c-0.5,1.1-1.1,2.1-2,3c-0.9,0.9-1.9,1.5-3,2
				c-1.1,0.5-2.3,0.7-3.5,0.7c-1.2,0-2.4-0.2-3.5-0.7c-1.1-0.5-2.1-1.1-3-2c-0.9-0.9-1.5-1.9-2-3c-0.5-1.1-0.7-2.3-0.7-3.5V380.5"/>
			<path class="st6" d="M798,380.5h18.5v36.4c0,1.2-0.2,2.4-0.7,3.5c-0.5,1.1-1.1,2.1-2,3c-0.9,0.9-1.9,1.5-3,2
				c-1.1,0.5-2.3,0.7-3.5,0.7c-1.2,0-2.4-0.2-3.5-0.7c-1.1-0.5-2.1-1.1-3-2c-0.9-0.9-1.5-1.9-2-3c-0.5-1.1-0.7-2.3-0.7-3.5V380.5"/>
			<path class="st2" d="M808.2,385.7c0-0.5-0.4-1-1-1s-1,0.4-1,1c0,0.5,0.4,1,1,1S808.2,386.2,808.2,385.7"/>
			<path class="st6" d="M808.2,385.7c0-0.5-0.4-1-1-1s-1,0.4-1,1c0,0.5,0.4,1,1,1S808.2,386.2,808.2,385.7"/>
			<polyline class="st2" points="892.2,429.6 892.2,378.5 915,378.5 915,429.6 892.2,429.6 			"/>
			<rect x="892.2" y="378.5" class="st6" width="22.8" height="51.1"/>
			<path class="st2" d="M894.4,380.5h18.5v36.4c0,1.2-0.2,2.4-0.7,3.5c-0.5,1.1-1.1,2.1-2,3c-0.9,0.9-1.9,1.5-3,2
				c-1.1,0.5-2.3,0.7-3.5,0.7c-1.2,0-2.4-0.2-3.5-0.7c-1.1-0.5-2.1-1.1-3-2c-0.9-0.9-1.5-1.9-2-3c-0.5-1.1-0.7-2.3-0.7-3.5V380.5"/>
			<path class="st6" d="M894.4,380.5h18.5v36.4c0,1.2-0.2,2.4-0.7,3.5c-0.5,1.1-1.1,2.1-2,3c-0.9,0.9-1.9,1.5-3,2
				c-1.1,0.5-2.3,0.7-3.5,0.7c-1.2,0-2.4-0.2-3.5-0.7c-1.1-0.5-2.1-1.1-3-2c-0.9-0.9-1.5-1.9-2-3c-0.5-1.1-0.7-2.3-0.7-3.5V380.5"/>
			<path class="st2" d="M904.7,385.7c0-0.5-0.4-1-1-1c-0.5,0-1,0.4-1,1c0,0.5,0.4,1,1,1C904.2,386.6,904.7,386.2,904.7,385.7"/>
			<path class="st6" d="M904.7,385.7c0-0.5-0.4-1-1-1c-0.5,0-1,0.4-1,1c0,0.5,0.4,1,1,1C904.2,386.6,904.7,386.2,904.7,385.7"/>
			<rect x="509.4" y="406.8" class="st2" width="22.8" height="22.6"/>
			<rect x="509.4" y="406.8" class="st6" width="22.8" height="22.6"/>
			<rect x="511.1" y="408.2" class="st2" width="19.9" height="19.9"/>
			<rect x="511.1" y="408.2" class="st6" width="19.9" height="19.9"/>
			<path class="st2" d="M529.6,426c0-0.5-0.4-1-1-1s-1,0.4-1,1c0,0.5,0.4,1,1,1S529.6,426.5,529.6,426"/>
			<path class="st6" d="M529.6,426c0-0.5-0.4-1-1-1s-1,0.4-1,1c0,0.5,0.4,1,1,1S529.6,426.5,529.6,426"/>
			<rect x="824.3" y="406.8" class="st2" width="22.6" height="22.8"/>
			<rect x="824.3" y="406.8" class="st6" width="22.6" height="22.8"/>
			<rect x="825.7" y="408.5" class="st2" width="19.9" height="19.7"/>
			<rect x="825.7" y="408.5" class="st6" width="19.9" height="19.7"/>
			<path class="st2" d="M828.8,426c0-0.5-0.4-1-1-1s-1,0.4-1,1c0,0.5,0.4,1,1,1S828.8,426.5,828.8,426"/>
			<path class="st6" d="M828.8,426c0-0.5-0.4-1-1-1s-1,0.4-1,1c0,0.5,0.4,1,1,1S828.8,426.5,828.8,426"/>
			<polyline class="st1" points="725.8,155.1 730.9,160.2 736,155.1 725.8,155.1 			"/>
			<polyline class="st6" points="725.8,155.1 730.9,160.2 736,155.1 725.8,155.1 			"/>
			<rect x="666.8" y="378.5" class="st2" width="22.8" height="22.6"/>
			<rect x="666.8" y="378.5" class="st6" width="22.8" height="22.6"/>
			<rect x="668.3" y="379.7" class="st2" width="19.9" height="19.9"/>
			<rect x="668.3" y="379.7" class="st6" width="19.9" height="19.9"/>
			<path class="st2" d="M687,382.1c0-0.5-0.4-1-1-1c-0.5,0-1,0.4-1,1c0,0.5,0.4,1,1,1C686.6,383,687,382.6,687,382.1"/>
			<path class="st6" d="M687,382.1c0-0.5-0.4-1-1-1c-0.5,0-1,0.4-1,1c0,0.5,0.4,1,1,1C686.6,383,687,382.6,687,382.1"/>
			<polyline class="st6" points="693.4,304.2 698.6,299.1 693.4,293.9 			"/>
		</g>
		<text transform="matrix(1.005 0 0 1 79.7035 629.7491)" class="st7 st8 st9"> EG</text>
	</g>
	<g>
		<defs>
			<rect id="SVGID_1_" x="83.6" y="-8.4" width="481.4" height="290.6"/>
		</defs>
		<clipPath id="SVGID_2_">
			<use xlink:href="#SVGID_1_"  style="overflow:visible;"/>
		</clipPath>
	</g>
</g>
</svg>
