<?xml version="1.0" encoding="utf-8"?>
<!-- Generator: Adobe Illustrator 19.1.0, SVG Export Plug-In . SVG Version: 6.00 Build 0)  -->
<svg version="1.1" id="Ebene_1" xmlns="http://www.w3.org/2000/svg" xmlns:xlink="http://www.w3.org/1999/xlink" x="0px" y="0px"
	 viewBox="0 0 1280 740" style="enable-background:new 0 0 1280 740;" xml:space="preserve">
<style type="text/css">
	.st0{clip-path:url(#SVGID_2_);fill-rule:evenodd;clip-rule:evenodd;fill:#FFFFFF;}
	
		.st1{clip-path:url(#SVGID_2_);fill:none;stroke:#000000;stroke-width:0.144;stroke-linecap:round;stroke-linejoin:round;stroke-miterlimit:10;}
	
		.st2{clip-path:url(#SVGID_2_);fill:none;stroke:#1D1D1B;stroke-width:0.25;stroke-linecap:round;stroke-linejoin:round;stroke-miterlimit:10;}
	.st3{clip-path:url(#SVGID_2_);fill-rule:evenodd;clip-rule:evenodd;}
	
		.st4{clip-path:url(#SVGID_2_);fill:none;stroke:#000000;stroke-width:0.216;stroke-linecap:round;stroke-linejoin:round;stroke-miterlimit:10;}
	
		.st5{clip-path:url(#SVGID_2_);fill:none;stroke:#000000;stroke-width:7.200000e-02;stroke-linecap:round;stroke-linejoin:round;stroke-miterlimit:10;}
	
		.st6{clip-path:url(#SVGID_4_);fill:none;stroke:#000000;stroke-width:0.144;stroke-linecap:round;stroke-linejoin:round;stroke-miterlimit:10;}
	.st7{clip-path:url(#SVGID_4_);fill-rule:evenodd;clip-rule:evenodd;fill:#FFFFFF;}
	.st8{clip-path:url(#SVGID_4_);fill-rule:evenodd;clip-rule:evenodd;}
	
		.st9{clip-path:url(#SVGID_4_);fill:none;stroke:#000000;stroke-width:0.216;stroke-linecap:round;stroke-linejoin:round;stroke-miterlimit:10;}
	.st10{fill-rule:evenodd;clip-rule:evenodd;fill:#B3B3B3;}
	.st11{fill:none;stroke:#B3B3B3;stroke-width:0.288;stroke-linecap:round;stroke-linejoin:round;stroke-miterlimit:10;}
	.st12{fill-rule:evenodd;clip-rule:evenodd;}
	.st13{fill:none;stroke:#000000;stroke-width:0.216;stroke-linecap:round;stroke-linejoin:round;stroke-miterlimit:10;}
	.st14{fill:none;stroke:#000000;stroke-width:0.144;stroke-linecap:round;stroke-linejoin:round;stroke-miterlimit:10;}
	.st15{fill-rule:evenodd;clip-rule:evenodd;fill:#FFFFFF;}
	.st16{fill-rule:evenodd;clip-rule:evenodd;fill:none;stroke:#1D1D1B;stroke-width:0.25;stroke-miterlimit:10;}
	.st17{fill:none;stroke:#1D1D1B;stroke-width:0.25;stroke-linecap:round;stroke-linejoin:round;stroke-miterlimit:10;}
	.st18{fill:none;stroke:#000000;stroke-width:0.25;stroke-linecap:round;stroke-linejoin:round;stroke-miterlimit:10;}
	.st19{fill-rule:evenodd;clip-rule:evenodd;fill:#FFFFFF;stroke:#1D1D1B;stroke-width:0.25;stroke-miterlimit:10;}
	.st20{fill:none;stroke:#1D1D1B;stroke-width:0.25;stroke-miterlimit:10;}
	.st21{fill:none;stroke:#000000;stroke-width:7.200000e-02;stroke-linecap:round;stroke-linejoin:round;stroke-miterlimit:10;}
	.st22{fill-rule:evenodd;clip-rule:evenodd;fill:none;}
	.st23{fill:none;stroke:#1D1D1B;stroke-width:0.144;stroke-linecap:round;stroke-linejoin:round;stroke-miterlimit:10;}
	.st24{fill-rule:evenodd;clip-rule:evenodd;stroke:#1D1D1B;stroke-width:0.25;stroke-miterlimit:10;}
	.st25{font-family:'GTEestiProText-Regular';}
	.st26{font-size:12px;}
</style>
<line class="st16" x1="284.4" y1="620.6" x2="-126.4" y2="620.5"/>
<polyline class="st17" points="1385.7,620.6 949,620.6 949,658.7 934.1,658.7 934.1,632.5 299.3,632.5 299.3,658.7 284.4,658.7 
	284.4,620.6 -126.4,620.5 "/>
<path class="st12" d="M490.3,249h259.9V143.7l-127.6-39.8l-132.3,92.9V249 M490.3,614.9h-15.2V190.5L622.6,88.1l134.6,42.2v191.8
	h-5.9v-55.6H490.3v172.7H934v-52.7h15.2v272.2H934v-26.3H299.5l0,11.1v15.2h-15.2V470.7l15.4-1.1l-0.2,151.1H934V456.8H490.3V614.9"
	/>
<path class="st13" d="M490.3,249h259.9V143.7l-127.6-39.8l-132.3,92.9V249 M490.3,614.9h-15.2V190.5L622.6,88.1l134.6,42.2v191.8
	h-5.9v-55.6H490.3v172.7H934v-52.7h15.2v272.2H934v-26.3H299.5l0,11.1v15.2h-15.2V470.7l15.4-1.1l-0.2,151.1H934V456.8H490.3V614.9"
	/>
<polyline class="st12" points="949,190.4 949,281.1 934.1,281.1 934.1,200.8 803.8,160.7 803.8,144.8 949,190.4 "/>
<polygon class="st13" points="949,190.4 949,281.1 934.1,281.1 934.1,200.8 803.8,160.7 803.8,144.8 "/>
<line class="st18" x1="757.2" y1="130.4" x2="803.8" y2="144.8"/>
<line class="st18" x1="757.2" y1="145.8" x2="803.8" y2="160.7"/>
<rect x="934.1" y="281.1" class="st19" width="14.9" height="105.6"/>
<rect x="934.1" y="281.1" class="st17" width="14.9" height="105.6"/>
<line class="st17" x1="941.5" y1="281.1" x2="941.5" y2="386.7"/>
<rect x="751.2" y="322.2" class="st16" width="5.9" height="117"/>
<rect x="751.2" y="322.2" class="st20" width="5.9" height="117"/>
<polyline class="st12" points="475.2,457.5 284.4,470.9 284.4,456 475.2,442.7 475.2,457.5 "/>
<polygon class="st13" points="475.2,457.5 284.4,470.9 284.4,456 475.2,442.7 "/>
<line class="st18" x1="757.2" y1="137.9" x2="803.8" y2="152.7"/>
<line class="st17" x1="284.4" y1="620.6" x2="-126.4" y2="620.5"/>
<line class="st18" x1="722.5" y1="134.9" x2="722.5" y2="248.9"/>
<line class="st18" x1="733.9" y1="457" x2="733.9" y2="544.7"/>
<line class="st18" x1="618.9" y1="615.1" x2="618.9" y2="457"/>
<line class="st18" x1="710.6" y1="544.7" x2="766.6" y2="544.7"/>
<line class="st18" x1="710.6" y1="615.1" x2="710.6" y2="544.7"/>
<line class="st18" x1="766.6" y1="615.1" x2="766.6" y2="457"/>
<line class="st18" x1="742.8" y1="457" x2="742.8" y2="544.7"/>
<line class="st18" x1="549" y1="615.1" x2="549" y2="457"/>
<line class="st17" x1="490.1" y1="386.7" x2="549" y2="386.7"/>
<line class="st17" x1="549" y1="439.2" x2="549" y2="386.7"/>
<polyline class="st18" points="469.3,615.1 469.3,497.7 422.2,497.7 422.2,615.1 "/>
<line class="st17" x1="618.9" y1="439.2" x2="618.9" y2="266.7"/>
<line class="st18" x1="549" y1="603.2" x2="490.1" y2="603.2"/>
<line class="st18" x1="549" y1="591.3" x2="490.1" y2="591.3"/>
<line class="st18" x1="549" y1="579.9" x2="490.1" y2="579.9"/>
<line class="st18" x1="549" y1="568" x2="490.1" y2="568"/>
<line class="st18" x1="549" y1="556.1" x2="490.1" y2="556.1"/>
<line class="st18" x1="549" y1="544.7" x2="490.1" y2="544.7"/>
<line class="st18" x1="549" y1="532.9" x2="490.1" y2="532.9"/>
<line class="st18" x1="549" y1="521.5" x2="490.1" y2="521.5"/>
<line class="st18" x1="549" y1="509.6" x2="490.1" y2="509.6"/>
<line class="st18" x1="549" y1="497.7" x2="490.1" y2="497.7"/>
<line class="st18" x1="549" y1="486.3" x2="490.1" y2="486.3"/>
<line class="st18" x1="549" y1="474.4" x2="490.1" y2="474.4"/>
<line class="st18" x1="549" y1="462.5" x2="490.1" y2="462.5"/>
<line class="st18" x1="299.3" y1="615.1" x2="934.1" y2="615.1"/>
<line class="st17" x1="949" y1="620.6" x2="1385.7" y2="620.6"/>
<polyline class="st18" points="754.7,129.4 754.7,61.1 722.5,61.1 722.5,119.5 "/>
<text transform="matrix(1.0039 0 0 1 196.8081 644.9762)" class="st25 st26">Schnitt</text>
</svg>
