<?xml version="1.0" encoding="utf-8"?>
<!-- Generator: Adobe Illustrator 19.1.0, SVG Export Plug-In . SVG Version: 6.00 Build 0)  -->
<svg version="1.1" id="Ebene_1" xmlns="http://www.w3.org/2000/svg" xmlns:xlink="http://www.w3.org/1999/xlink" x="0px" y="0px"
	 viewBox="0 0 1280 720" style="enable-background:new 0 0 1280 720;" xml:space="preserve">
<style type="text/css">
	.st0{fill-rule:evenodd;clip-rule:evenodd;}
	.st1{fill:none;stroke:#000000;stroke-width:7.200000e-02;stroke-linecap:round;stroke-linejoin:round;stroke-miterlimit:10;}
	.st2{fill:none;stroke:#000000;stroke-width:0.216;stroke-linecap:round;stroke-linejoin:round;stroke-miterlimit:10;}
	.st3{fill-rule:evenodd;clip-rule:evenodd;fill:#FFFFFF;}
	.st4{fill:none;stroke:#000000;stroke-width:0.144;stroke-linecap:round;stroke-linejoin:round;stroke-miterlimit:10;}
	.st5{fill:none;}
	.st6{font-family:'GTEestiProText-Regular';}
	.st7{font-size:12px;}
</style>
<g>
	<g>
		<g>
			<rect x="681.8" y="498.4" class="st0" width="5.4" height="138.8"/>
			<rect x="681.8" y="498.4" class="st1" width="5.4" height="138.8"/>
			<rect x="687.2" y="631.9" class="st0" width="5.3" height="5.3"/>
			<rect x="687.2" y="631.9" class="st1" width="5.3" height="5.3"/>
			<rect x="545.8" y="50" class="st0" width="5.3" height="10.7"/>
			<rect x="545.8" y="50" class="st2" width="5.3" height="10.7"/>
			<rect x="545.8" y="114.1" class="st0" width="5.3" height="10.7"/>
			<rect x="545.8" y="114.1" class="st2" width="5.3" height="10.7"/>
			<rect x="545.8" y="242.1" class="st0" width="5.3" height="10.7"/>
			<rect x="545.8" y="242.1" class="st2" width="5.3" height="10.7"/>
			<rect x="545.8" y="370.3" class="st0" width="5.3" height="10.7"/>
			<rect x="545.8" y="370.3" class="st2" width="5.3" height="10.7"/>
			<rect x="545.8" y="498.4" class="st0" width="5.3" height="10.7"/>
			<rect x="545.8" y="498.4" class="st2" width="5.3" height="10.7"/>
			<rect x="545.8" y="626.6" class="st0" width="5.3" height="10.5"/>
			<rect x="545.8" y="626.6" class="st2" width="5.3" height="10.5"/>
			<rect x="415" y="493.1" class="st0" width="5.3" height="144"/>
			<rect x="415" y="493.1" class="st2" width="5.3" height="144"/>
			<rect x="415" y="218.3" class="st0" width="5.3" height="221.3"/>
			<rect x="415" y="218.3" class="st2" width="5.3" height="221.3"/>
			<rect x="415" y="50" class="st0" width="5.3" height="150.4"/>
			<rect x="415" y="50" class="st2" width="5.3" height="150.4"/>
			<rect x="676.5" y="50" class="st0" width="5.3" height="46.3"/>
			<rect x="676.5" y="50" class="st2" width="5.3" height="46.3"/>
			<rect x="676.5" y="112.2" class="st0" width="16" height="5.4"/>
			<rect x="676.5" y="112.2" class="st2" width="16" height="5.4"/>
			<rect x="681.8" y="117.7" class="st0" width="5.4" height="359.3"/>
			<rect x="681.8" y="117.7" class="st2" width="5.4" height="359.3"/>
			<rect x="687.2" y="498.4" class="st0" width="42.6" height="1.8"/>
			<rect x="687.2" y="498.4" class="st2" width="42.6" height="1.8"/>
			<rect x="728.1" y="500.2" class="st0" width="1.8" height="13.4"/>
			<rect x="728.1" y="500.2" class="st2" width="1.8" height="13.4"/>
			<rect x="687.2" y="524.2" class="st0" width="42.6" height="2"/>
			<rect x="687.2" y="524.2" class="st2" width="42.6" height="2"/>
			<rect x="728.1" y="536.7" class="st0" width="1.8" height="15.1"/>
			<rect x="728.1" y="536.7" class="st2" width="1.8" height="15.1"/>
			<rect x="687.2" y="550.1" class="st0" width="40.8" height="1.7"/>
			<rect x="687.2" y="550.1" class="st2" width="40.8" height="1.7"/>
			<rect x="780.2" y="498.4" class="st0" width="1.8" height="53.3"/>
			<rect x="780.2" y="498.4" class="st2" width="1.8" height="53.3"/>
			<rect x="729.9" y="631.9" class="st0" width="3.6" height="5.3"/>
			<rect x="729.9" y="631.9" class="st2" width="3.6" height="5.3"/>
			<rect x="769" y="631.9" class="st0" width="3.6" height="5.3"/>
			<rect x="769" y="631.9" class="st2" width="3.6" height="5.3"/>
			<polyline class="st0" points="940.8,377 816.7,377 816.7,631.9 820.7,631.9 820.7,637.2 810,637.2 810,631.9 813.9,631.9 
				813.9,374.3 940.8,374.3 940.8,117.7 946.1,117.7 946.1,631.9 940.8,631.9 940.8,377 			"/>
			<polygon class="st2" points="940.8,377 816.7,377 816.7,631.9 820.7,631.9 820.7,637.2 810,637.2 810,631.9 813.9,631.9 
				813.9,374.3 940.8,374.3 940.8,117.7 946.1,117.7 946.1,631.9 940.8,631.9 			"/>
			<rect x="858.1" y="631.9" class="st0" width="3.5" height="5.3"/>
			<rect x="858.1" y="631.9" class="st2" width="3.5" height="5.3"/>
			<rect x="897.1" y="631.9" class="st0" width="3.6" height="5.3"/>
			<rect x="897.1" y="631.9" class="st2" width="3.6" height="5.3"/>
			<polyline class="st0" points="938.1,631.9 938.1,637.2 946.1,637.2 946.1,631.9 938.1,631.9 			"/>
			<rect x="938.1" y="631.9" class="st2" width="8" height="5.3"/>
			<polyline class="st0" points="938.1,112.2 938.1,117.7 946.1,117.7 946.1,112.2 938.1,112.2 			"/>
			<rect x="938.1" y="112.2" class="st2" width="8" height="5.4"/>
			<rect x="897.1" y="112.2" class="st0" width="3.6" height="5.4"/>
			<rect x="897.1" y="112.2" class="st2" width="3.6" height="5.4"/>
			<rect x="858.1" y="112.2" class="st0" width="3.5" height="5.4"/>
			<rect x="858.1" y="112.2" class="st2" width="3.5" height="5.4"/>
			<rect x="810" y="112.2" class="st0" width="10.7" height="5.4"/>
			<rect x="810" y="112.2" class="st2" width="10.7" height="5.4"/>
			<rect x="769" y="112.2" class="st0" width="3.6" height="5.4"/>
			<rect x="769" y="112.2" class="st2" width="3.6" height="5.4"/>
			<rect x="729.9" y="112.2" class="st0" width="3.6" height="5.4"/>
			<rect x="729.9" y="112.2" class="st2" width="3.6" height="5.4"/>
			<rect x="772.2" y="137" class="st0" width="9.8" height="2.7"/>
			<rect x="772.2" y="137" class="st2" width="9.8" height="2.7"/>
			<rect x="772.2" y="139.7" class="st0" width="2.6" height="163.5"/>
			<rect x="772.2" y="139.7" class="st2" width="2.6" height="163.5"/>
			<rect x="774.8" y="300.6" class="st0" width="7.2" height="2.6"/>
			<rect x="774.8" y="300.6" class="st2" width="7.2" height="2.6"/>
			<rect x="687.2" y="216.2" class="st0" width="85" height="2.7"/>
			<rect x="687.2" y="216.2" class="st2" width="85" height="2.7"/>
			<rect x="687.2" y="317.5" class="st0" width="94.8" height="2.7"/>
			<rect x="687.2" y="317.5" class="st2" width="94.8" height="2.7"/>
			<rect x="772.2" y="334.3" class="st0" width="9.8" height="2.6"/>
			<rect x="772.2" y="334.3" class="st2" width="9.8" height="2.6"/>
			<rect x="772.2" y="336.9" class="st0" width="2.6" height="59.1"/>
			<rect x="772.2" y="336.9" class="st2" width="2.6" height="59.1"/>
			<rect x="687.2" y="396" class="st0" width="94.8" height="2.7"/>
			<rect x="687.2" y="396" class="st2" width="94.8" height="2.7"/>
			<rect x="772.2" y="412.8" class="st0" width="9.8" height="2.7"/>
			<rect x="772.2" y="412.8" class="st2" width="9.8" height="2.7"/>
			<rect x="779.3" y="415.5" class="st0" width="2.7" height="61.5"/>
			<rect x="779.3" y="415.5" class="st2" width="2.7" height="61.5"/>
			<rect x="687.2" y="474.5" class="st0" width="92.1" height="2.6"/>
			<rect x="687.2" y="474.5" class="st2" width="92.1" height="2.6"/>
			<rect x="551" y="498.4" class="st0" width="130.8" height="2.7"/>
			<rect x="551" y="498.4" class="st2" width="130.8" height="2.7"/>
			<rect x="420.3" y="498.4" class="st0" width="125.5" height="2.7"/>
			<rect x="420.3" y="498.4" class="st2" width="125.5" height="2.7"/>
			<rect x="420.3" y="50" class="st3" width="125.5" height="5.3"/>
			<rect x="420.3" y="50" class="st4" width="125.5" height="5.3"/>
			<rect x="551" y="50" class="st3" width="125.5" height="5.3"/>
			<rect x="551" y="50" class="st4" width="125.5" height="5.3"/>
			<rect x="676.5" y="96.3" class="st3" width="5.3" height="16"/>
			<rect x="676.5" y="96.3" class="st4" width="5.3" height="16"/>
			<rect x="415" y="200.4" class="st3" width="5.3" height="17.9"/>
			<rect x="415" y="200.4" class="st4" width="5.3" height="17.9"/>
			<rect x="415" y="439.6" class="st3" width="5.3" height="53.5"/>
			<rect x="415" y="439.6" class="st4" width="5.3" height="53.5"/>
			<rect x="420.3" y="631.9" class="st3" width="125.5" height="5.3"/>
			<rect x="420.3" y="631.9" class="st4" width="125.5" height="5.3"/>
			<rect x="551" y="631.9" class="st3" width="130.8" height="5.3"/>
			<rect x="551" y="631.9" class="st4" width="130.8" height="5.3"/>
			<rect x="692.5" y="631.9" class="st3" width="37.4" height="5.3"/>
			<rect x="692.5" y="631.9" class="st4" width="37.4" height="5.3"/>
			<rect x="733.5" y="631.9" class="st3" width="14.2" height="5.3"/>
			<rect x="733.5" y="631.9" class="st4" width="14.2" height="5.3"/>
			<rect x="772.7" y="631.9" class="st3" width="37.4" height="5.3"/>
			<rect x="772.7" y="631.9" class="st4" width="37.4" height="5.3"/>
			<rect x="820.7" y="631.9" class="st3" width="37.4" height="5.3"/>
			<rect x="820.7" y="631.9" class="st4" width="37.4" height="5.3"/>
			<rect x="861.6" y="631.9" class="st3" width="35.6" height="5.3"/>
			<rect x="861.6" y="631.9" class="st4" width="35.6" height="5.3"/>
			<rect x="900.7" y="631.9" class="st3" width="37.4" height="5.3"/>
			<rect x="900.7" y="631.9" class="st4" width="37.4" height="5.3"/>
			<rect x="900.7" y="112.2" class="st3" width="37.4" height="5.4"/>
			<rect x="900.7" y="112.2" class="st4" width="37.4" height="5.4"/>
			<rect x="861.6" y="112.2" class="st3" width="35.6" height="5.4"/>
			<rect x="861.6" y="112.2" class="st4" width="35.6" height="5.4"/>
			<rect x="820.7" y="112.2" class="st3" width="37.4" height="5.4"/>
			<rect x="820.7" y="112.2" class="st4" width="37.4" height="5.4"/>
			<rect x="772.7" y="112.2" class="st3" width="16" height="5.4"/>
			<rect x="772.7" y="112.2" class="st4" width="16" height="5.4"/>
			<rect x="733.5" y="112.2" class="st3" width="35.6" height="5.4"/>
			<rect x="733.5" y="112.2" class="st4" width="35.6" height="5.4"/>
			<rect x="692.5" y="112.2" class="st3" width="37.4" height="5.4"/>
			<rect x="692.5" y="112.2" class="st4" width="37.4" height="5.4"/>
			<rect x="774.8" y="139.7" class="st3" width="7.2" height="160.9"/>
			<rect x="774.8" y="139.7" class="st4" width="7.2" height="160.9"/>
			<rect x="769.5" y="498.4" class="st3" width="10.7" height="53.3"/>
			<rect x="769.5" y="498.4" class="st4" width="10.7" height="53.3"/>
			<rect x="772.2" y="415.5" class="st3" width="7.1" height="58.9"/>
			<rect x="772.2" y="415.5" class="st4" width="7.1" height="58.9"/>
			<rect x="774.8" y="336.9" class="st3" width="7.2" height="59.1"/>
			<rect x="774.8" y="336.9" class="st4" width="7.2" height="59.1"/>
			<line class="st1" x1="859.8" y1="256" x2="863.1" y2="256"/>
			<line class="st1" x1="866.7" y1="256" x2="870.3" y2="256"/>
			<line class="st1" x1="873.9" y1="256" x2="877.5" y2="256"/>
			<line class="st1" x1="881.1" y1="256" x2="884.8" y2="256"/>
			<line class="st1" x1="888.4" y1="256" x2="892" y2="256"/>
			<line class="st1" x1="895.6" y1="256" x2="898.9" y2="256"/>
			<line class="st1" x1="898.9" y1="256" x2="898.9" y2="258.8"/>
			<line class="st1" x1="898.9" y1="262.5" x2="898.9" y2="266.1"/>
			<line class="st1" x1="898.9" y1="269.7" x2="898.9" y2="273.3"/>
			<line class="st1" x1="898.9" y1="276.9" x2="898.9" y2="280.5"/>
			<line class="st1" x1="898.9" y1="284.2" x2="898.9" y2="287.8"/>
			<line class="st1" x1="898.9" y1="291.4" x2="898.9" y2="295"/>
			<line class="st1" x1="898.9" y1="298.6" x2="898.9" y2="302.2"/>
			<line class="st1" x1="898.9" y1="305.9" x2="898.9" y2="309.5"/>
			<line class="st1" x1="898.9" y1="313.1" x2="898.9" y2="316.7"/>
			<line class="st1" x1="898.9" y1="320.3" x2="898.9" y2="323.9"/>
			<line class="st1" x1="898.9" y1="327.5" x2="898.9" y2="331.2"/>
			<line class="st1" x1="898.9" y1="334.8" x2="898.9" y2="338.4"/>
			<line class="st1" x1="898.9" y1="342" x2="898.9" y2="345.6"/>
			<line class="st1" x1="898.9" y1="349.2" x2="898.9" y2="352.9"/>
			<line class="st1" x1="898.9" y1="356.5" x2="898.9" y2="360.1"/>
			<line class="st1" x1="898.9" y1="363.7" x2="898.9" y2="367.3"/>
			<line class="st1" x1="898.9" y1="370.9" x2="898.9" y2="374.6"/>
			<line class="st1" x1="898.9" y1="378.2" x2="898.9" y2="381.8"/>
			<line class="st1" x1="898.9" y1="385.4" x2="898.9" y2="389"/>
			<line class="st1" x1="898.9" y1="392.6" x2="898.9" y2="396.3"/>
			<line class="st1" x1="898.9" y1="399.9" x2="898.9" y2="403.5"/>
			<line class="st1" x1="898.9" y1="407.1" x2="898.9" y2="410.7"/>
			<line class="st1" x1="898.9" y1="414.3" x2="898.9" y2="417.9"/>
			<line class="st1" x1="898.9" y1="421.6" x2="898.9" y2="425.2"/>
			<line class="st1" x1="898.9" y1="428.8" x2="898.9" y2="432.4"/>
			<line class="st1" x1="898.9" y1="436" x2="898.9" y2="439.6"/>
			<line class="st1" x1="898.9" y1="443.3" x2="898.9" y2="446.9"/>
			<line class="st1" x1="898.9" y1="450.5" x2="898.9" y2="454.1"/>
			<line class="st1" x1="898.9" y1="457.7" x2="898.9" y2="461.3"/>
			<line class="st1" x1="898.9" y1="465" x2="898.9" y2="468.6"/>
			<line class="st1" x1="898.9" y1="472.2" x2="898.9" y2="475.8"/>
			<line class="st1" x1="898.9" y1="479.4" x2="898.9" y2="483"/>
			<line class="st1" x1="898.9" y1="486.7" x2="898.9" y2="489.5"/>
			<line class="st1" x1="898.9" y1="489.5" x2="895.6" y2="489.5"/>
			<line class="st1" x1="892" y1="489.5" x2="888.4" y2="489.5"/>
			<line class="st1" x1="884.8" y1="489.5" x2="881.1" y2="489.5"/>
			<line class="st1" x1="877.5" y1="489.5" x2="873.9" y2="489.5"/>
			<line class="st1" x1="870.3" y1="489.5" x2="866.7" y2="489.5"/>
			<line class="st1" x1="863.1" y1="489.5" x2="859.8" y2="489.5"/>
			<line class="st1" x1="859.8" y1="489.5" x2="859.8" y2="486.7"/>
			<line class="st1" x1="859.8" y1="483" x2="859.8" y2="479.4"/>
			<line class="st1" x1="859.8" y1="475.8" x2="859.8" y2="472.2"/>
			<line class="st1" x1="859.8" y1="468.6" x2="859.8" y2="465"/>
			<line class="st1" x1="859.8" y1="461.3" x2="859.8" y2="457.7"/>
			<line class="st1" x1="859.8" y1="454.1" x2="859.8" y2="450.5"/>
			<line class="st1" x1="859.8" y1="446.9" x2="859.8" y2="443.3"/>
			<line class="st1" x1="859.8" y1="439.6" x2="859.8" y2="436"/>
			<line class="st1" x1="859.8" y1="432.4" x2="859.8" y2="428.8"/>
			<line class="st1" x1="859.8" y1="425.2" x2="859.8" y2="421.6"/>
			<line class="st1" x1="859.8" y1="417.9" x2="859.8" y2="414.3"/>
			<line class="st1" x1="859.8" y1="410.7" x2="859.8" y2="407.1"/>
			<line class="st1" x1="859.8" y1="403.5" x2="859.8" y2="399.9"/>
			<line class="st1" x1="859.8" y1="396.3" x2="859.8" y2="392.6"/>
			<line class="st1" x1="859.8" y1="389" x2="859.8" y2="385.4"/>
			<line class="st1" x1="859.8" y1="381.8" x2="859.8" y2="378.2"/>
			<line class="st1" x1="859.8" y1="374.6" x2="859.8" y2="370.9"/>
			<line class="st1" x1="859.8" y1="367.3" x2="859.8" y2="363.7"/>
			<line class="st1" x1="859.8" y1="360.1" x2="859.8" y2="356.5"/>
			<line class="st1" x1="859.8" y1="352.9" x2="859.8" y2="349.2"/>
			<line class="st1" x1="859.8" y1="345.6" x2="859.8" y2="342"/>
			<line class="st1" x1="859.8" y1="338.4" x2="859.8" y2="334.8"/>
			<line class="st1" x1="859.8" y1="331.2" x2="859.8" y2="327.5"/>
			<line class="st1" x1="859.8" y1="323.9" x2="859.8" y2="320.3"/>
			<line class="st1" x1="859.8" y1="316.7" x2="859.8" y2="313.1"/>
			<line class="st1" x1="859.8" y1="309.5" x2="859.8" y2="305.9"/>
			<line class="st1" x1="859.8" y1="302.2" x2="859.8" y2="298.6"/>
			<line class="st1" x1="859.8" y1="295" x2="859.8" y2="291.4"/>
			<line class="st1" x1="859.8" y1="287.8" x2="859.8" y2="284.2"/>
			<line class="st1" x1="859.8" y1="280.5" x2="859.8" y2="276.9"/>
			<line class="st1" x1="859.8" y1="273.3" x2="859.8" y2="269.7"/>
			<line class="st1" x1="859.8" y1="266.1" x2="859.8" y2="262.5"/>
			<line class="st1" x1="859.8" y1="258.8" x2="859.8" y2="256"/>
			<line class="st1" x1="731.7" y1="256" x2="735" y2="256"/>
			<line class="st1" x1="738.6" y1="256" x2="742.2" y2="256"/>
			<line class="st1" x1="745.8" y1="256" x2="749.5" y2="256"/>
			<line class="st1" x1="753.1" y1="256" x2="756.7" y2="256"/>
			<line class="st1" x1="760.3" y1="256" x2="763.9" y2="256"/>
			<line class="st1" x1="767.5" y1="256" x2="770.9" y2="256"/>
			<line class="st1" x1="770.9" y1="256" x2="770.9" y2="256.3"/>
			<line class="st1" x1="770.9" y1="259.9" x2="770.9" y2="263.5"/>
			<line class="st1" x1="770.9" y1="267.1" x2="770.9" y2="270.7"/>
			<line class="st1" x1="770.9" y1="274.4" x2="770.9" y2="278"/>
			<line class="st1" x1="770.9" y1="281.6" x2="770.9" y2="285.2"/>
			<line class="st1" x1="770.9" y1="288.8" x2="770.9" y2="292.4"/>
			<line class="st1" x1="770.9" y1="296.1" x2="770.9" y2="299.7"/>
			<line class="st1" x1="770.9" y1="303.3" x2="770.9" y2="306.9"/>
			<line class="st1" x1="770.9" y1="310.5" x2="770.9" y2="314.1"/>
			<line class="st1" x1="770.9" y1="317.8" x2="770.9" y2="321.4"/>
			<line class="st1" x1="770.9" y1="325" x2="770.9" y2="328.6"/>
			<line class="st1" x1="770.9" y1="332.2" x2="770.9" y2="335.8"/>
			<line class="st1" x1="770.9" y1="339.5" x2="770.9" y2="343.1"/>
			<line class="st1" x1="770.9" y1="346.7" x2="770.9" y2="350.3"/>
			<line class="st1" x1="770.9" y1="353.9" x2="770.9" y2="357.5"/>
			<line class="st1" x1="770.9" y1="361.1" x2="770.9" y2="364.8"/>
			<line class="st1" x1="770.9" y1="368.4" x2="770.9" y2="372"/>
			<line class="st1" x1="770.9" y1="375.6" x2="770.9" y2="379.2"/>
			<line class="st1" x1="770.9" y1="382.8" x2="770.9" y2="386.5"/>
			<line class="st1" x1="770.9" y1="390.1" x2="770.9" y2="393.7"/>
			<line class="st1" x1="770.9" y1="397.3" x2="770.9" y2="400.9"/>
			<line class="st1" x1="770.9" y1="404.5" x2="770.9" y2="408.2"/>
			<line class="st1" x1="770.9" y1="411.8" x2="770.9" y2="415.4"/>
			<line class="st1" x1="770.9" y1="419" x2="770.9" y2="422.6"/>
			<line class="st1" x1="770.9" y1="426.2" x2="770.9" y2="429.9"/>
			<line class="st1" x1="770.9" y1="433.5" x2="770.9" y2="437.1"/>
			<line class="st1" x1="770.9" y1="440.7" x2="770.9" y2="444.3"/>
			<line class="st1" x1="770.9" y1="447.9" x2="770.9" y2="451.5"/>
			<line class="st1" x1="770.9" y1="455.2" x2="770.9" y2="458.8"/>
			<line class="st1" x1="770.9" y1="462.4" x2="770.9" y2="466"/>
			<line class="st1" x1="770.9" y1="469.6" x2="770.9" y2="473.2"/>
			<line class="st1" x1="770.9" y1="476.9" x2="770.9" y2="480.5"/>
			<line class="st1" x1="770.9" y1="484.1" x2="770.9" y2="487.7"/>
			<line class="st1" x1="770.9" y1="491" x2="770.9" y2="491.3"/>
			<line class="st1" x1="770.9" y1="491.3" x2="767.5" y2="491.3"/>
			<line class="st1" x1="763.9" y1="491.3" x2="760.3" y2="491.3"/>
			<line class="st1" x1="756.7" y1="491.3" x2="753.1" y2="491.3"/>
			<line class="st1" x1="749.5" y1="491.3" x2="745.8" y2="491.3"/>
			<line class="st1" x1="742.2" y1="491.3" x2="738.6" y2="491.3"/>
			<line class="st1" x1="735" y1="491.3" x2="731.7" y2="491.3"/>
			<line class="st1" x1="731.7" y1="491.3" x2="731.7" y2="491"/>
			<line class="st1" x1="731.7" y1="487.4" x2="731.7" y2="483.8"/>
			<line class="st1" x1="731.7" y1="480.2" x2="731.7" y2="476.6"/>
			<line class="st1" x1="731.7" y1="472.9" x2="731.7" y2="469.3"/>
			<line class="st1" x1="731.7" y1="465.7" x2="731.7" y2="462.1"/>
			<line class="st1" x1="731.7" y1="458.5" x2="731.7" y2="454.9"/>
			<line class="st1" x1="731.7" y1="451.2" x2="731.7" y2="447.6"/>
			<line class="st1" x1="731.7" y1="444" x2="731.7" y2="440.4"/>
			<line class="st1" x1="731.7" y1="436.8" x2="731.7" y2="433.2"/>
			<line class="st1" x1="731.7" y1="429.6" x2="731.7" y2="425.9"/>
			<line class="st1" x1="731.7" y1="422.3" x2="731.7" y2="418.7"/>
			<line class="st1" x1="731.7" y1="415.1" x2="731.7" y2="411.5"/>
			<line class="st1" x1="731.7" y1="407.9" x2="731.7" y2="404.2"/>
			<line class="st1" x1="731.7" y1="400.6" x2="731.7" y2="397"/>
			<line class="st1" x1="731.7" y1="393.4" x2="731.7" y2="389.8"/>
			<line class="st1" x1="731.7" y1="386.2" x2="731.7" y2="382.5"/>
			<line class="st1" x1="731.7" y1="378.9" x2="731.7" y2="375.3"/>
			<line class="st1" x1="731.7" y1="371.7" x2="731.7" y2="368.1"/>
			<line class="st1" x1="731.7" y1="364.5" x2="731.7" y2="360.8"/>
			<line class="st1" x1="731.7" y1="357.2" x2="731.7" y2="353.6"/>
			<line class="st1" x1="731.7" y1="350" x2="731.7" y2="346.4"/>
			<line class="st1" x1="731.7" y1="342.8" x2="731.7" y2="339.2"/>
			<line class="st1" x1="731.7" y1="335.5" x2="731.7" y2="331.9"/>
			<line class="st1" x1="731.7" y1="328.3" x2="731.7" y2="324.7"/>
			<line class="st1" x1="731.7" y1="321.1" x2="731.7" y2="317.5"/>
			<line class="st1" x1="731.7" y1="313.8" x2="731.7" y2="310.2"/>
			<line class="st1" x1="731.7" y1="306.6" x2="731.7" y2="303"/>
			<line class="st1" x1="731.7" y1="299.4" x2="731.7" y2="295.8"/>
			<line class="st1" x1="731.7" y1="292.1" x2="731.7" y2="288.5"/>
			<line class="st1" x1="731.7" y1="284.9" x2="731.7" y2="281.3"/>
			<line class="st1" x1="731.7" y1="277.7" x2="731.7" y2="274.1"/>
			<line class="st1" x1="731.7" y1="270.4" x2="731.7" y2="266.8"/>
			<line class="st1" x1="731.7" y1="263.2" x2="731.7" y2="259.6"/>
			<line class="st1" x1="731.7" y1="256.3" x2="731.7" y2="256"/>
			<path class="st4" d="M729.9,526.1v0.7H720c0,0.6,0.1,1.3,0.2,1.9c0.1,0.6,0.3,1.3,0.6,1.9c0.2,0.6,0.6,1.2,0.9,1.7
				c0.4,0.5,0.8,1,1.2,1.5c0.5,0.5,1,0.9,1.5,1.2c0.5,0.4,1.1,0.7,1.7,0.9c0.6,0.2,1.2,0.4,1.9,0.6c0.6,0.1,1.3,0.2,1.9,0.2"/>
			<path class="st4" d="M729.9,513.6L729.9,513.6c-1.3,0-2.6,0.3-3.8,0.8c-1.2,0.5-2.3,1.2-3.2,2.2c-0.9,0.9-1.7,2-2.2,3.2
				c-0.5,1.2-0.8,2.5-0.8,3.8h10v0.7"/>
			<path class="st4" d="M769.1,631.9v-21.4c-2.8,0-5.6,0.6-8.2,1.6c-2.6,1.1-4.9,2.6-6.9,4.6c-2,2-3.6,4.3-4.6,6.9
				c-1.1,2.6-1.6,5.4-1.6,8.2"/>
			<path class="st1" d="M788.6,117.6L788.6,117.6c0,2.8,0.6,5.6,1.6,8.2c1.1,2.6,2.6,4.9,4.6,6.9c2,2,4.3,3.6,6.9,4.6
				c2.6,1.1,5.4,1.6,8.2,1.6v-21.4"/>
			<rect x="770.9" y="510.5" class="st3" width="7.1" height="8"/>
			<rect x="770.9" y="510.5" class="st4" width="7.1" height="8"/>
			<path class="st3" d="M773.8,534.8c0.1-0.2,0.2-0.4,0.2-0.6c0-0.2,0-0.4-0.1-0.6c-0.1-0.2-0.2-0.4-0.4-0.5
				c-0.2-0.1-0.4-0.2-0.6-0.2c-0.2,0-0.4,0-0.6,0.1c-0.2,0.1-0.4,0.2-0.5,0.4c-0.1,0.2-0.2,0.4-0.2,0.6c0,0.2,0,0.4,0.1,0.6
				c0.1,0.2,0.2,0.4,0.4,0.5c0.2,0.1,0.4,0.2,0.6,0.2c0.2,0,0.4,0,0.6-0.1C773.5,535.1,773.7,535,773.8,534.8"/>
			<path class="st4" d="M773.8,534.8c0.1-0.2,0.2-0.4,0.2-0.6c0-0.2,0-0.4-0.1-0.6c-0.1-0.2-0.2-0.4-0.4-0.5
				c-0.2-0.1-0.4-0.2-0.6-0.2c-0.2,0-0.4,0-0.6,0.1c-0.2,0.1-0.4,0.2-0.5,0.4c-0.1,0.2-0.2,0.4-0.2,0.6c0,0.2,0,0.4,0.1,0.6
				c0.1,0.2,0.2,0.4,0.4,0.5c0.2,0.1,0.4,0.2,0.6,0.2c0.2,0,0.4,0,0.6-0.1C773.5,535.1,773.7,535,773.8,534.8"/>
			<path class="st3" d="M777.9,533.3c-0.1-0.2-0.3-0.4-0.5-0.5c-0.2-0.1-0.4-0.2-0.7-0.2s-0.5,0.1-0.7,0.2c-0.2,0.1-0.4,0.3-0.5,0.5
				c-0.1,0.2-0.2,0.4-0.2,0.7c0,0.2,0.1,0.5,0.2,0.7c0.1,0.2,0.3,0.4,0.5,0.5c0.2,0.1,0.4,0.2,0.7,0.2s0.5-0.1,0.7-0.2
				c0.2-0.1,0.4-0.3,0.5-0.5s0.2-0.4,0.2-0.7C778.1,533.8,778.1,533.5,777.9,533.3"/>
			<path class="st4" d="M777.9,533.3c-0.1-0.2-0.3-0.4-0.5-0.5c-0.2-0.1-0.4-0.2-0.7-0.2s-0.5,0.1-0.7,0.2c-0.2,0.1-0.4,0.3-0.5,0.5
				c-0.1,0.2-0.2,0.4-0.2,0.7c0,0.2,0.1,0.5,0.2,0.7c0.1,0.2,0.3,0.4,0.5,0.5c0.2,0.1,0.4,0.2,0.7,0.2s0.5-0.1,0.7-0.2
				c0.2-0.1,0.4-0.3,0.5-0.5s0.2-0.4,0.2-0.7C778.1,533.8,778.1,533.5,777.9,533.3"/>
			<path class="st3" d="M771.7,538.3c0.1,0.2,0.3,0.4,0.5,0.5c0.2,0.1,0.4,0.2,0.7,0.2c0.2,0,0.5-0.1,0.7-0.2
				c0.2-0.1,0.4-0.3,0.5-0.5c0.1-0.2,0.2-0.4,0.2-0.7c0-0.2-0.1-0.5-0.2-0.7c-0.1-0.2-0.3-0.4-0.5-0.5c-0.2-0.1-0.4-0.2-0.7-0.2
				c-0.2,0-0.5,0.1-0.7,0.2c-0.2,0.1-0.4,0.3-0.5,0.5c-0.1,0.2-0.2,0.4-0.2,0.7C771.6,537.8,771.6,538.1,771.7,538.3"/>
			<path class="st4" d="M771.7,538.3c0.1,0.2,0.3,0.4,0.5,0.5c0.2,0.1,0.4,0.2,0.7,0.2c0.2,0,0.5-0.1,0.7-0.2
				c0.2-0.1,0.4-0.3,0.5-0.5c0.1-0.2,0.2-0.4,0.2-0.7c0-0.2-0.1-0.5-0.2-0.7c-0.1-0.2-0.3-0.4-0.5-0.5c-0.2-0.1-0.4-0.2-0.7-0.2
				c-0.2,0-0.5,0.1-0.7,0.2c-0.2,0.1-0.4,0.3-0.5,0.5c-0.1,0.2-0.2,0.4-0.2,0.7C771.6,537.8,771.6,538.1,771.7,538.3"/>
			<line class="st4" x1="773" y1="538.9" x2="773" y2="538.9"/>
			<path class="st3" d="M777.9,538.4c0.1-0.2,0.2-0.4,0.2-0.6c0-0.2,0-0.4-0.1-0.6c-0.1-0.2-0.2-0.4-0.4-0.5
				c-0.2-0.1-0.4-0.2-0.6-0.2c-0.2,0-0.4,0-0.6,0.1c-0.2,0.1-0.4,0.2-0.5,0.4c-0.1,0.2-0.2,0.4-0.2,0.6c0,0.2,0,0.4,0.1,0.6
				c0.1,0.2,0.2,0.4,0.4,0.5c0.2,0.1,0.4,0.2,0.6,0.2c0.2,0,0.4,0,0.6-0.1C777.6,538.7,777.8,538.6,777.9,538.4"/>
			<path class="st4" d="M777.9,538.4c0.1-0.2,0.2-0.4,0.2-0.6c0-0.2,0-0.4-0.1-0.6c-0.1-0.2-0.2-0.4-0.4-0.5
				c-0.2-0.1-0.4-0.2-0.6-0.2c-0.2,0-0.4,0-0.6,0.1c-0.2,0.1-0.4,0.2-0.5,0.4c-0.1,0.2-0.2,0.4-0.2,0.6c0,0.2,0,0.4,0.1,0.6
				c0.1,0.2,0.2,0.4,0.4,0.5c0.2,0.1,0.4,0.2,0.6,0.2c0.2,0,0.4,0,0.6-0.1C777.6,538.7,777.8,538.6,777.9,538.4"/>
		</g>
	</g>
	<g>
		<defs>
			<polygon id="SVGID_1_" points="243,-10.5 538.7,-10.5 533.7,172.4 238,172.4 			"/>
		</defs>
		<clipPath id="SVGID_2_">
			<use xlink:href="#SVGID_1_"  style="overflow:visible;"/>
		</clipPath>
	</g>
</g>
<rect x="156.1" y="602.6" class="st5" width="85.5" height="88.5"/>
<text transform="matrix(1 0 0 1 156.1148 611.1588)" class="st6 st7">EG</text>
</svg>
