<?xml version="1.0" encoding="utf-8"?>
<!-- Generator: Adobe Illustrator 19.1.0, SVG Export Plug-In . SVG Version: 6.00 Build 0)  -->
<svg version="1.1" id="Ebene_1" xmlns="http://www.w3.org/2000/svg" xmlns:xlink="http://www.w3.org/1999/xlink" x="0px" y="0px"
	 viewBox="0 0 1280 720" style="enable-background:new 0 0 1280 720;" xml:space="preserve">
<style type="text/css">
	.st0{clip-path:url(#SVGID_2_);}
	.st1{clip-path:url(#SVGID_4_);}
	
		.st2{clip-path:url(#SVGID_6_);fill:none;stroke:#000000;stroke-width:0.144;stroke-linecap:round;stroke-linejoin:round;stroke-miterlimit:10;}
	.st3{clip-path:url(#SVGID_6_);fill-rule:evenodd;clip-rule:evenodd;fill:#FFFFFF;}
	.st4{clip-path:url(#SVGID_6_);fill-rule:evenodd;clip-rule:evenodd;fill:#E6E6E6;}
	
		.st5{clip-path:url(#SVGID_6_);fill:none;stroke:#8C8C8C;stroke-width:0.144;stroke-linecap:round;stroke-linejoin:round;stroke-miterlimit:10;}
	.st6{clip-path:url(#SVGID_6_);fill-rule:evenodd;clip-rule:evenodd;}
	
		.st7{clip-path:url(#SVGID_6_);fill:none;stroke:#000000;stroke-width:0.216;stroke-linecap:round;stroke-linejoin:round;stroke-miterlimit:10;}
	
		.st8{clip-path:url(#SVGID_6_);fill:none;stroke:#000000;stroke-width:7.200000e-02;stroke-linecap:round;stroke-linejoin:round;stroke-miterlimit:10;}
	
		.st9{clip-path:url(#SVGID_6_);fill:none;stroke:#000000;stroke-width:0.288;stroke-linecap:round;stroke-linejoin:round;stroke-miterlimit:10;}
	.st10{fill:#212121;}
	.st11{clip-path:url(#SVGID_10_);}
	.st12{clip-path:url(#SVGID_12_);}
	.st13{clip-path:url(#SVGID_14_);fill-rule:evenodd;clip-rule:evenodd;fill:#E6E6E6;}
	
		.st14{clip-path:url(#SVGID_14_);fill:none;stroke:#8C8C8C;stroke-width:0.144;stroke-linecap:round;stroke-linejoin:round;stroke-miterlimit:10;}
	
		.st15{clip-path:url(#SVGID_14_);fill:none;stroke:#000000;stroke-width:0.144;stroke-linecap:round;stroke-linejoin:round;stroke-miterlimit:10;}
	.st16{clip-path:url(#SVGID_14_);fill-rule:evenodd;clip-rule:evenodd;}
	
		.st17{clip-path:url(#SVGID_14_);fill:none;stroke:#000000;stroke-width:0.216;stroke-linecap:round;stroke-linejoin:round;stroke-miterlimit:10;}
	.st18{clip-path:url(#SVGID_14_);fill-rule:evenodd;clip-rule:evenodd;fill:#FFFFFF;}
	
		.st19{clip-path:url(#SVGID_14_);fill:none;stroke:#000000;stroke-width:7.200000e-02;stroke-linecap:round;stroke-linejoin:round;stroke-miterlimit:10;}
	
		.st20{clip-path:url(#SVGID_14_);fill:none;stroke:#000000;stroke-width:0.288;stroke-linecap:round;stroke-linejoin:round;stroke-miterlimit:10;}
	.st21{fill:none;stroke:#000000;stroke-width:0.144;stroke-linecap:round;stroke-linejoin:round;stroke-miterlimit:10;}
	.st22{fill-rule:evenodd;clip-rule:evenodd;}
	.st23{fill:none;stroke:#000000;stroke-width:0.216;stroke-linecap:round;stroke-linejoin:round;stroke-miterlimit:10;}
	.st24{fill:none;stroke:#000000;stroke-width:0.36;stroke-linecap:round;stroke-linejoin:round;stroke-miterlimit:10;}
	.st25{fill:none;}
	.st26{font-family:'GTEestiProText-Regular';}
	.st27{font-size:12px;}
</style>
<rect x="194" y="502" class="st21" width="879.3" height="2.6"/>
<rect x="390" y="453.5" class="st21" width="22.9" height="48.5"/>
<path class="st22" d="M815.8,307.7v97.1h92v-97.1H815.8 M1122.5,404.8v7.7H810.7V300h311.8v7.7H912.9v97.1H1122.5"/>
<path class="st23" d="M815.8,307.7v97.1h92v-97.1H815.8 M1122.5,404.8v7.7H810.7V300h311.8v7.7H912.9v97.1H1122.5"/>
<path class="st22" d="M203.5,439.3h-9.7v65.2h120.1v58.8h62.6V439.3H203.5 M193.8,369v62.6h182.7V369H201.8H193.8 M376.5,361.3
	v-94.6H193.8v94.6H376.5 M797.3,512.1H384.2V576h-77.9v-63.9h-99.7v12.8h-17.9v-12.8V264.2h0v-2.6h192.9v242.8h695.3v7.7v12.8h-29.1
	v-12.8H926.4v12.8h-30.7v-12.8H828v12.8h-30.7V512.1"/>
<path class="st23" d="M203.5,439.3h-9.7v65.2h120.1v58.8h62.6V439.3H203.5 M193.8,369v62.6h182.7V369H201.8H193.8 M376.5,361.3
	v-94.6H193.8v94.6H376.5 M797.3,512.1H384.2V576h-77.9v-63.9h-99.7v12.8h-17.9v-12.8V264.2h0v-2.6h192.9v242.8h695.3v7.7v12.8h-29.1
	v-12.8H926.4v12.8h-30.7v-12.8H828v12.8h-30.7V512.1"/>
<line class="st21" x1="-191.2" y1="503.3" x2="185.3" y2="502"/>
<rect x="779.9" y="371.7" class="st21" width="30.7" height="25.5"/>
<rect x="779.9" y="397.3" class="st21" width="30.7" height="4.3"/>
<rect x="779.9" y="449.6" class="st21" width="30.7" height="4.3"/>
<rect x="779.9" y="401.6" class="st21" width="30.7" height="48"/>
<rect x="779.9" y="454" class="st21" width="30.7" height="48"/>
<rect x="964.3" y="307.7" class="st21" width="1.7" height="89.6"/>
<line class="st21" x1="1122.6" y1="307.7" x2="1122.6" y2="404.6"/>
<line class="st21" x1="185.3" y1="251.4" x2="385.2" y2="251.4"/>
<rect x="385.2" y="251.4" class="st21" width="3" height="49.3"/>
<line class="st21" x1="1060.3" y1="307.7" x2="1065.5" y2="307.7"/>
<line class="st21" x1="1065.5" y1="312.9" x2="1065.5" y2="318.1"/>
<line class="st21" x1="1065.5" y1="323.3" x2="1065.5" y2="328.5"/>
<line class="st21" x1="1065.5" y1="333.7" x2="1065.5" y2="338.9"/>
<line class="st21" x1="1065.5" y1="344" x2="1065.5" y2="349.2"/>
<line class="st21" x1="1065.5" y1="354.4" x2="1065.5" y2="359.6"/>
<line class="st21" x1="1065.5" y1="364.8" x2="1065.5" y2="370"/>
<line class="st21" x1="1065.5" y1="375.2" x2="1065.5" y2="380.4"/>
<line class="st21" x1="1065.5" y1="385.6" x2="1065.5" y2="390.8"/>
<line class="st21" x1="1065.5" y1="396" x2="1065.5" y2="397.3"/>
<line class="st21" x1="1065.5" y1="397.3" x2="1061.6" y2="397.3"/>
<line class="st21" x1="1060.3" y1="393.4" x2="1060.3" y2="388.2"/>
<line class="st21" x1="1060.3" y1="383" x2="1060.3" y2="377.8"/>
<line class="st21" x1="1060.3" y1="372.6" x2="1060.3" y2="367.4"/>
<line class="st21" x1="1060.3" y1="362.2" x2="1060.3" y2="357"/>
<line class="st21" x1="1060.3" y1="351.8" x2="1060.3" y2="346.6"/>
<line class="st21" x1="1060.3" y1="341.4" x2="1060.3" y2="336.3"/>
<line class="st21" x1="1060.3" y1="331.1" x2="1060.3" y2="325.9"/>
<line class="st21" x1="1060.3" y1="320.7" x2="1060.3" y2="315.5"/>
<line class="st21" x1="1060.3" y1="310.3" x2="1060.3" y2="307.7"/>
<rect x="1060.3" y="412.4" class="st21" width="5.2" height="89.6"/>
<line class="st21" x1="1076.8" y1="502" x2="1320.8" y2="502"/>
<line class="st21" x1="185.3" y1="255.3" x2="385.2" y2="255.3"/>
<polyline class="st21" points="810.6,299.9 810.6,289.1 811.1,289.1 1122.6,289.1 1122.6,299.9 "/>
<line class="st21" x1="386.5" y1="346.6" x2="386.5" y2="317.2"/>
<line class="st21" x1="382.2" y1="351" x2="382.2" y2="312.9"/>
<line class="st21" x1="810.2" y1="346.6" x2="382.2" y2="346.6"/>
<line class="st21" x1="810.2" y1="351" x2="382.2" y2="351"/>
<line class="st21" x1="401.7" y1="317.2" x2="401.7" y2="346.6"/>
<line class="st21" x1="418.1" y1="316.8" x2="418.1" y2="346.6"/>
<line class="st21" x1="438.9" y1="316.8" x2="438.9" y2="346.6"/>
<line class="st21" x1="463.1" y1="316.4" x2="463.1" y2="346.6"/>
<line class="st21" x1="491.3" y1="315.9" x2="491.3" y2="346.6"/>
<line class="st21" x1="523.3" y1="315.5" x2="523.3" y2="346.6"/>
<line class="st21" x1="558.8" y1="315.5" x2="558.8" y2="346.6"/>
<line class="st21" x1="598.6" y1="314.6" x2="598.6" y2="346.6"/>
<line class="st21" x1="638" y1="314.2" x2="638" y2="346.6"/>
<line class="st21" x1="673.9" y1="313.8" x2="673.9" y2="346.6"/>
<line class="st21" x1="705.9" y1="313.3" x2="705.9" y2="346.6"/>
<line class="st21" x1="734" y1="313.3" x2="734" y2="346.6"/>
<line class="st21" x1="758.3" y1="312.9" x2="758.3" y2="346.6"/>
<line class="st21" x1="778.6" y1="312.5" x2="778.6" y2="346.6"/>
<line class="st21" x1="795.1" y1="312.5" x2="795.1" y2="346.6"/>
<line class="st21" x1="810.2" y1="307.7" x2="810.2" y2="351"/>
<line class="st21" x1="382.2" y1="317.2" x2="810.2" y2="312.5"/>
<line class="st21" x1="382.2" y1="312.9" x2="810.2" y2="307.7"/>
<line class="st21" x1="396.9" y1="317.2" x2="396.9" y2="346.6"/>
<line class="st21" x1="413.8" y1="317.2" x2="413.8" y2="346.6"/>
<line class="st21" x1="434.1" y1="316.8" x2="434.1" y2="346.6"/>
<line class="st21" x1="458.4" y1="316.4" x2="458.4" y2="346.6"/>
<line class="st21" x1="486.5" y1="316.4" x2="486.5" y2="346.6"/>
<line class="st21" x1="518.5" y1="315.9" x2="518.5" y2="346.6"/>
<line class="st21" x1="554.4" y1="315.5" x2="554.4" y2="346.6"/>
<line class="st21" x1="593.8" y1="315.1" x2="593.8" y2="346.6"/>
<line class="st21" x1="633.6" y1="314.2" x2="633.6" y2="346.6"/>
<line class="st21" x1="669.1" y1="313.8" x2="669.1" y2="346.6"/>
<line class="st21" x1="701.1" y1="313.8" x2="701.1" y2="346.6"/>
<line class="st21" x1="729.3" y1="313.3" x2="729.3" y2="346.6"/>
<line class="st21" x1="753.5" y1="312.9" x2="753.5" y2="346.6"/>
<line class="st21" x1="773.8" y1="312.9" x2="773.8" y2="346.6"/>
<line class="st21" x1="790.7" y1="312.5" x2="790.7" y2="346.6"/>
<line class="st21" x1="805.4" y1="312.5" x2="805.4" y2="346.6"/>
<line class="st21" x1="639.7" y1="297.3" x2="639.7" y2="285.6"/>
<line class="st21" x1="469.6" y1="299.5" x2="469.6" y2="287.8"/>
<line class="st21" x1="722.8" y1="296.4" x2="722.8" y2="279.1"/>
<line class="st21" x1="552.3" y1="298.6" x2="552.3" y2="280.9"/>
<line class="st21" x1="639.7" y1="285.6" x2="722.8" y2="279.1"/>
<line class="st21" x1="469.6" y1="287.8" x2="552.3" y2="280.9"/>
<line class="st21" x1="722.8" y1="296.4" x2="722.8" y2="299.9"/>
<line class="st21" x1="722.8" y1="305.1" x2="722.8" y2="308.6"/>
<line class="st21" x1="552.3" y1="298.6" x2="552.3" y2="302.1"/>
<line class="st21" x1="552.3" y1="307.3" x2="552.3" y2="310.7"/>
<line class="st21" x1="639.7" y1="297.3" x2="639.7" y2="301.2"/>
<line class="st21" x1="639.7" y1="306.4" x2="639.7" y2="309.9"/>
<line class="st21" x1="469.6" y1="299.5" x2="469.6" y2="302.9"/>
<line class="st21" x1="469.6" y1="308.1" x2="469.6" y2="311.6"/>
<polyline class="st21" points="810.6,295.6 400.4,300.8 388.3,300.8 "/>
<line class="st21" x1="385.2" y1="300.8" x2="388.3" y2="300.8"/>
<line class="st21" x1="382.2" y1="308.1" x2="810.6" y2="302.9"/>
<line class="st24" x1="383.5" y1="312.9" x2="383.5" y2="308.1"/>
<line class="st24" x1="384.4" y1="312.9" x2="382.2" y2="312.9"/>
<line class="st24" x1="382.2" y1="308.1" x2="384.4" y2="308.1"/>
<line class="st24" x1="407.7" y1="312.5" x2="407.7" y2="307.7"/>
<line class="st24" x1="408.6" y1="312.5" x2="406.4" y2="312.5"/>
<line class="st24" x1="406.4" y1="307.7" x2="408.6" y2="307.7"/>
<line class="st24" x1="468.3" y1="311.6" x2="468.3" y2="307.3"/>
<line class="st24" x1="469.6" y1="311.6" x2="467.5" y2="311.6"/>
<line class="st24" x1="467.5" y1="307.3" x2="469.6" y2="307.3"/>
<line class="st24" x1="553.6" y1="310.7" x2="553.6" y2="306"/>
<line class="st24" x1="554.9" y1="310.7" x2="552.3" y2="310.7"/>
<line class="st24" x1="552.3" y1="306" x2="554.9" y2="306"/>
<line class="st24" x1="638.8" y1="309.9" x2="638.8" y2="305.1"/>
<line class="st24" x1="639.7" y1="309.9" x2="637.5" y2="309.9"/>
<line class="st24" x1="637.5" y1="305.1" x2="639.7" y2="305.1"/>
<line class="st24" x1="723.7" y1="308.6" x2="723.7" y2="304.2"/>
<line class="st24" x1="724.9" y1="308.6" x2="722.8" y2="308.6"/>
<line class="st24" x1="722.8" y1="304.2" x2="724.9" y2="304.2"/>
<line class="st24" x1="808.9" y1="307.7" x2="808.9" y2="302.9"/>
<line class="st24" x1="810.2" y1="307.7" x2="807.6" y2="307.7"/>
<line class="st24" x1="807.6" y1="302.9" x2="810.2" y2="302.9"/>
<rect x="181.8" y="251.4" class="st21" width="3.5" height="250.6"/>
<rect x="230.7" y="293.4" class="st21" width="64" height="67.9"/>
<line class="st21" x1="230.7" y1="361.4" x2="230.7" y2="266.6"/>
<line class="st21" x1="964.3" y1="412.4" x2="964.3" y2="502"/>
<line class="st21" x1="966" y1="412.4" x2="966" y2="502"/>
<line class="st21" x1="912.8" y1="412.4" x2="912.8" y2="502"/>
<line class="st21" x1="185.3" y1="502" x2="188.8" y2="502"/>
<rect x="1073.3" y="412.4" class="st21" width="3.5" height="92.2"/>
<rect x="1114.9" y="307.7" class="st21" width="2.6" height="96.9"/>
<rect x="815.8" y="397.3" class="st21" width="92.2" height="7.4"/>
<rect x="912.8" y="397.3" class="st21" width="202.1" height="7.4"/>
<text transform="matrix(1 0 0 1 78.4135 615.1602)" class="st10 st26 st27">Schnitt</text>
</svg>
